<svg height="1000" width="875" xmlns="http://www.w3.org/2000/svg"><path d="M201.2 595.7q-9.8 -19.5 -7.8 -29.3 1.9 -9.8 23.4 -15.6 19.5 -5.9 25.4 -2t11.7 19.6q3.9 25.4 46.9 78.1V464.8q3.9 -76.1 56.6 -126.9 54.7 -52.7 134.8 -54.7 80.1 2 134.8 56.6 54.6 52.8 56.6 132.9 -3.9 95.7 -76.2 152.3t-175.8 29.3q-13.6 -7.8 -7.8 -33.2 7.8 -23.4 25.4 -21.5 78.1 2 125 -23.4T623 472.7q-1.9 -58.6 -41 -93.8 -41 -35.1 -93.7 -35.1t-93.8 42.9q-27.3 27.4 -31.2 66.4 -5.9 39.1 -3.9 130.9 0 44.9 1.9 109.4 76.2 44.9 162.1 35.1 86 -11.7 150.4 -74.2Q748 578.1 748 472.7T673.8 291Q597.7 216.8 490.2 216.8T308.6 291L291 308.6q-15.6 17.6 -23.4 29.3l-2 1.9q-3.9 15.7 -39 11.8 -23.5 -5.9 -27.4 -23.5V-37.1q0 -17.6 19.6 -19.5h472.6q9.8 0 13.7 11.7 1.9 9.7 1.9 17.6 0 5.8 -1.9 17.5Q701.2 0 691.4 2H253.9v259.7h2Q361.3 156.3 488.3 158.2T709 244.1q93.7 86 97.6 230.5 -1.9 130.9 -76.1 209 -72.3 78.1 -177.8 97.7T349.6 755.9 201.2 595.7zm125 -507.8q-2 7.8 5.8 25.4 7.8 17.6 21.5 13.7Q457 89.8 537.1 101.6q78.1 11.7 132.8 42.9 52.8 29.3 76.2 50.8 13.7 9.8 17.6 11.7 7.8 -1.9 23.4 -17.5 13.7 -15.7 3.9 -27.4Q697.3 76.2 591.8 56.6T408.2 50.8q-76.2 15.6 -82 37.1zm441.4 646.5q-111.3 105.4 -250 113.3 -136.7 7.8 -250 -74.3Q156.3 691.4 119.1 531.3q-3.9 -17.6 -29.3 -13.7 -25.3 1.9 -27.3 19.5Q91.8 709 218.8 806.6q125 99.7 289 97.7 162.1 0 300.8 -130.9 7.8 -13.6 -9.8 -31.2t-31.2 -7.8zM418 523.4q1.9 9.8 7.8 13.7l1.9 2q9.8 9.7 17.6 9.7 3.9 0 9.8 -5.8l33.2 -33.2 17.6 17.5 17.5 17.6q5.9 3.9 7.9 3.9 9.7 -1.9 21.4 -13.6 9.8 -9.8 0 -23.5l-33.2 -33.2 35.2 -35.1q5.8 -11.8 -7.8 -25.4t-23.5 -5.9l-35.1 35.2 -19.5 -19.6Q457 414.1 453.1 412.1q-3.9 -3.9 -7.8 -1.9 -7.8 0 -19.5 11.7t-3.9 21.5l35.1 35.1q-11.7 11.7 -19.5 17.6 -23.4 23.4 -19.5 27.3z"/></svg>