<svg height="1000" width="875" xmlns="http://www.w3.org/2000/svg"><path d="M828.1 423.8l-25.4 306.7 25.4 -306.7 -25.4 306.7q-5.8 39 -35.1 50.8 -29.3 9.7 -56.7 -5.9t-27.3 -54.7l19.5 -238.3 -80.1 3.9q31.3 60.6 31.3 134.8 -2 123 -82 207L494.1 752q56.7 -64.5 50.8 -140.7Q541 537.1 488.3 482.4 437.5 427.7 349.6 425.8q-76.2 0 -130.8 50.8l-76.2 -78.2Q209 335.9 300.8 320.3l148.4 -168 -84 -46.8 -99.6 89.8q-31.2 23.5 -60.5 11.7Q175.8 193.4 166 164.1q-7.8 -31.3 19.5 -58.6L318.4 -13.7q33.2 -25.4 70.3 -5.8 3.9 1.9 70.3 41 64.4 37.1 130.8 76.2 64.5 37.1 70.4 41 23.4 15.6 29.3 46.8 3.9 29.3 -17.6 56.7L558.6 371.1l207 -11.7q27.4 0 44.9 17.6 19.6 19.5 17.6 46.8zM701.2 123q42.9 -1.9 70.3 -29.2 27.3 -27.4 29.3 -70.4 -2 -42.9 -29.3 -70.3t-70.3 -29.3q-43 2 -70.3 29.3t-29.3 70.3q1.9 43 29.3 70.4t70.3 29.2zM351.6 816.4q-80.1 -3.9 -132.8 -50.8Q168 716.8 158.2 646.5q-11.7 -70.3 31.3 -136.7l-78.2 -76.2Q48.8 511.7 46.9 619.1q3.9 130.9 84 211t191.4 91.8q113.2 13.6 214.8 -62.5l-76.2 -78.1q-48.8 33.2 -109.3 33.2v1.9z"/></svg>