<svg height="1000" width="1250" xmlns="http://www.w3.org/2000/svg"><path d="M628.9 416v-1.9 1.9 -1.9L529.3 285.2l-15.6 5.8q-13.7 3.9 -33.2 23.5l-74.2 74.2q-64.5 62.5 -148.5 146.5Q160.2 630.9 85.9 705.1q-76.1 74.2 -80 80.1 -9.8 13.6 -2 13.6 9.8 -1.9 31.3 -9.7 5.8 -2 58.6 -17.6 52.7 -17.6 107.4 -35.2l58.6 -19.5v-35.2q-2 -15.6 -2 -19.5 0 -13.7 13.7 -17.6l181.6 -66.4q3.9 -3.9 52.8 -48.8t89.8 -84Q627 418 628.9 416zm312.5 234.4q19.5 23.4 33.2 23.4 13.7 2 27.4 -5.8 7.8 -2 60.5 -25.4 54.7 -21.5 109.4 -44.9 54.7 -21.5 60.5 -23.5 9.8 -7.8 2 -21.5t-15.6 -25.4q-5.9 -5.8 -64.5 -76.1 -60.5 -72.3 -138.7 -166T877 119.1Q818.4 48.8 812.5 43 800.8 25.4 787.1 21.5q-15.6 -3.9 -48.8 -3.9H574.2q-50.8 1.9 -64.4 1.9h-2q-27.3 -1.9 -41 3.9 -11.7 3.9 5.9 29.3 9.7 9.8 74.2 93.8 66.4 84 152.3 195.3Q791 457 863.3 548.8q70.3 91.8 78.1 101.6zm298.8 3.9q-5.8 -2 -35.1 -7.8 -21.5 -3.9 -39.1 -5.9 -3.9 0 -58.6 25.4L998 712.9q-54.6 25.4 -62.5 27.3 -21.4 9.8 -39 0t-31.3 -27.3L753.9 568.4q-15.6 -3.9 -64.4 -11.8 -50.8 -5.8 -64.5 -7.8 -11.7 0 -27.3 5.9 -9.8 3.9 -76.2 27.3l-136.7 50.8q-70.3 25.4 -80.1 29.3 -2 0 -5.9 2 -15.6 3.9 -15.6 11.7 0 5.8 5.9 7.8h1.9q7.8 1.9 93.8 21.5 87.9 19.5 205 44.9 115.3 25.4 203.2 46.9 89.8 19.5 99.6 21.5 5.8 1.9 13.7 3.9 21.4 3.9 46.8 7.8 25.4 1.9 44.9 -7.8 5.9 -3.9 64.5 -41 58.6 -35.2 117.2 -72.3 56.6 -35.2 64.4 -39.1 13.7 -11.7 -3.9 -15.6z"/></svg>