<svg height="1000" width="1000" xmlns="http://www.w3.org/2000/svg"><path d="M941.4 -13.7H56.6h884.8H56.6q-33.2 0 -44.9 11.7T0 43v761.7q0 33.2 11.7 44.9t44.9 11.7h884.8q35.2 0 46.9 -11.7t11.7 -46.9V44.9Q1000 9.8 988.3 -2t-46.9 -11.7zM347.7 353.5q-43 -29.3 -91.8 -15.6 -50.8 13.7 -72.3 62.5 -9.8 25.4 -31.3 15.6h-1.9q-29.3 -3.9 -44.9 -9.7Q80.1 392.6 85.9 367.2q7.9 -27.4 29.3 -52.7t39.1 -35.2q121.1 -60.5 244.1 -9.8 50.8 21.5 60.6 72.3 11.7 50.8 7.8 130.9v48.8q2 23.4 2 50.8 -5.9 60.5 15.6 123 5.8 11.7 -3.9 19.5 -15.7 9.8 -46.9 5.9 -31.3 -5.9 -44.9 -19.5 -2 -3.9 -3.9 -5.9t-3.9 -5.8q-9.8 -9.8 -23.5 1.9 -89.8 52.7 -179.7 31.3Q85.9 701.2 70.3 607.4q-3.9 -44.9 17.6 -82 19.5 -37.1 60.5 -56.6 56.7 -25.4 128.9 -31.3 39.1 -3.9 64.5 -9.8t29.3 -19.5Q375 377 347.7 353.5zm560.5 433.6q0 17.6 -7.8 19.5 -7.8 3.9 -17.6 2 -5.8 -2 -9.8 -2H101.6q-3.9 0 -7.8 2 -9.8 1.9 -17.6 -2 -7.8 -1.9 -7.8 -21.4 0 -13.7 7.8 -17.6 7.8 -2 15.6 0H884.8q7.8 -2 15.6 1.9 7.8 2 7.8 17.6zM916 123v568.4V123v568.4q2 21.5 -15.6 27.4 -9.8 0 -21.5 1.9 -29.3 7.8 -48.8 -13.7 -11.7 -15.6 -19.6 -5.8 -1.9 1.9 -5.8 3.9 -82 44.9 -168 5.8 -84 -39 -113.3 -171.8 -17.5 -99.6 31.3 -195.3 9.8 -25.4 44.9 -56.7 33.2 -31.2 87.9 -37.1 54.7 -7.8 132.8 33.2V144.5q-1.9 -37.1 5.9 -44.9t44.9 -5.8h17.6q29.3 -2 27.3 27.3v1.9zM814.5 576.2q-31.3 68.3 -87.9 68.3Q668 642.6 638.7 585.9q-44.9 -97.6 1.9 -197.2 27.4 -50.8 74.2 -52.8 48.9 -1.9 84 43 29.3 46.9 29.3 107.4 -1.9 62.5 -13.6 89.9zm-574.3 68.3h-3.9q-15.6 0 -37.1 -11.7 -23.4 -9.8 -25.4 -41 2 -43 39.1 -50.8 48.8 -11.7 99.6 -21.5l43 -7.8q19.5 -1.9 15.6 13.7v5.9q1.9 48.8 -35.2 82 -35.1 31.2 -95.7 31.2z"/></svg>