<svg height="1000" width="1000" xmlns="http://www.w3.org/2000/svg"><path d="M312.5 386.7Q234.4 494.1 154.3 543q-82 48.8 -127 19.5Q-13.7 527.3 7.8 433.6q21.5 -91.8 97.7 -199.2Q183.6 128.9 263.7 80.1q82 -48.8 126.9 -19.6 41 35.2 19.6 127t-97.7 199.2zM998 275.4Q884.8 459 738.3 539.1q-144.5 78.1 -257.8 17.5Q408.2 509.8 384.8 412.1 335.9 507.8 252 576.2q-82.1 66.4 -187.5 95.7 74.2 87.9 177.7 138.6 105.5 50.8 226.6 50.8 148.4 -1.9 267.5 -74.2Q857.4 716.8 927.7 595.7T1000 324.2q0 -25.4 -2 -48.8z"/></svg>