<svg height="1000" width="875" xmlns="http://www.w3.org/2000/svg"><path d="M437.5 652.3Q363.3 560.5 349.6 490.2 334 404.3 384.8 375q52.7 -27.3 105.4 0 50.8 29.3 35.2 115.2 -15.6 70.3 -87.9 162.1zM707 794.9q-62.5 25.4 -121.1 -5.8Q527.3 757.8 474.6 697.3 572.3 570.3 584 482.4q9.8 -85.9 -35.2 -130.8t-111.3 -45q-82 2 -121.1 58.6T294.9 502q19.6 85.9 105.5 195.3 -93.8 103.5 -166 107.4 -76.2 7.8 -119.2 -46.9T95.7 627q9.8 -27.4 39.1 -89.9t66.4 -136.7 66.4 -136.7l54.7 -109.4q3.9 -9.8 7.8 -17.6 19.5 -39 41 -66.4Q394.5 43 437.5 43t66.4 29.3q25.4 29.3 46.9 76.1l3.9 11.8q56.6 107.4 121.1 240.2Q740.2 531.3 779.3 627q19.5 48.8 0 97.6 -19.5 46.9 -72.3 70.3zm91.8 -265.6Q675.8 267.6 615.2 150.4 552.7 35.2 517.6 7.8q-35.2 -25.4 -80.1 -21.5 -64.5 2 -101.6 41t-64.4 101.6Q169.9 334 121.1 435.5 72.3 539.1 56.6 572.3L43 607.4Q9.8 710.9 66.4 785.2q54.7 72.2 152.4 76.1 31.2 2 87.8 -19.5 54.7 -23.4 130.9 -101.6 85.9 87.9 142.6 105.5 56.6 19.5 76.2 15.6 97.6 -3.9 152.3 -76.1Q865.2 710.9 832 607.4q0 -5.8 -9.7 -25.4 -7.8 -19.5 -15.7 -37.1 -7.8 -13.6 -7.8 -15.6z"/></svg>