<svg height="1000" width="1000" xmlns="http://www.w3.org/2000/svg"><path d="M500 -76.2q-138.7 2 -250 66.4Q138.7 56.6 70.3 168 3.9 279.3 0 416q0 140.6 66.4 253.9 64.5 113.3 177.7 181.7T498 923.8q129 0 240.3 -60.5 9.7 -7.8 1.9 -19.5l-46.8 -41.1q-15.7 -13.6 -35.2 -5.8Q582 830.1 494.1 828.1 322.3 822.3 209 705.1 95.7 589.8 93.8 416q7.8 -168 121 -281.2Q330.1 21.5 500 17.6h406.3v720.7L675.8 535.2q-13.7 -9.8 -25.4 1.9 -58.6 76.2 -164.1 74.2Q416 605.5 367.2 556.6T312.5 437.5q-3.9 -85.9 48.8 -142.6Q416 236.3 500 234.4q76.2 1.9 127 50.8 52.7 46.8 60.5 121.1 2 13.6 11.7 23.4l60.6 52.7q13.6 7.8 19.5 -7.8 5.9 -33.2 3.9 -70.3 -9.8 -109.4 -84 -181.6Q627 150.4 517.6 140.6q-123.1 -3.9 -209 74.2Q224.6 293 216.8 416q0 119.2 80.1 201.2 78.1 82 197.2 89.8 97.7 0 171.9 -54.7L966.8 918q9.8 9.7 21.5 3.9Q1000 918 1000 904.3V-56.6q-2 -17.6 -19.5 -19.6H500z"/></svg>