<svg height="1000" width="875" xmlns="http://www.w3.org/2000/svg"><path d="M738.3 -13.7H136.7h601.6H136.7q-58.6 2 -95.7 41Q2 64.5 0 123v601.6q2 58.6 41 95.7 37.1 39.1 95.7 41h601.6q56.6 -1.9 95.7 -39 39 -39.1 41 -97.7 -68.4 -37.1 -156.2 -84Q630.9 595.7 539.1 552.7 492.2 619.1 418 664.1t-168 46.8Q148.4 707 105.5 658.2q-43 -46.9 -45 -95.7Q50.8 502 91.8 453.1q41 -46.8 162.1 -50.8 107.4 4 248.1 48.9 25.3 -44.9 39 -80.1T554.7 334H207v-33.2h179.7v-60.6H171.9v-37.1h214.8v-99.6h99.6v99.6h212.9v37.1H486.3v60.6h171.9q0 3.9 -19.5 56.6T584 478.5q74.2 25.4 150.4 52.8L875 582V123Q873 64.5 834 27.3q-37.1 -39 -95.7 -41zM91.8 554.7q0 33.2 25.4 66.4 27.3 35.2 111.3 39.1 76.2 -3.9 134.8 -46.9 58.6 -44.9 95.7 -95.7Q324.2 459 246.1 455.1q-97.7 3.9 -127 37.1 -31.2 33.2 -27.3 62.5z"/></svg>