<svg height="1000" width="1250" xmlns="http://www.w3.org/2000/svg"><path d="M27.3 558.6q5.9 -11.7 19.6 -3.9 7.8 3.9 17.6 9.8l42.9 23.4q119.2 58.6 248.1 89.8 62.5 13.7 125 23.5 91.8 11.7 185.5 9.7 50.8 -1.9 101.6 -7.8 164 -19.5 318.3 -84 7.9 -3.9 17.6 -1.9 21.5 9.8 7.8 27.3 -7.8 7.8 -17.5 13.7Q1002 718.8 898.4 752 826.2 775.4 752 787.1q-52.8 7.8 -103.6 9.8H597.7q-11.8 -2 -21.5 -2 -50.8 -1.9 -99.6 -9.7Q396.5 771.5 320.3 744.1 162.1 687.5 35.2 574.2q-2 -3.9 -5.9 -7.8 0 -1.9 -2 -3.9v-3.9zM335.9 50.8l-7.8 1.9 7.8 -1.9 -7.8 1.9q-41 3.9 -74.2 29.3 -5.9 2 -9.8 5.9l-3.9 3.9q-1.9 0 -1.9 -2v-1.9q0 -7.8 -2 -13.7Q234.4 60.5 220.7 60.5h-21.5q-17.6 -1.9 -15.6 15.7v416q0 7.8 9.8 9.8h41q7.8 -2 9.7 -9.8V343.8l3.9 3.9q52.8 42.9 119.2 29.3 58.6 -11.8 85.9 -66.5 19.6 -41 19.6 -87.8Q476.6 173.8 457 127 433.6 68.4 371.1 54.7q-5.9 -2 -11.7 -2 -3.9 -1.9 -7.8 -1.9h-15.7zm-91.8 82q-1.9 -3.9 2 -5.8 41 -29.3 89.8 -25.4 45 0 64.5 48.8 11.7 33.2 9.8 64.4 1.9 31.3 -7.9 60.6 -21.4 60.5 -82 56.6 -41 -3.9 -74.2 -27.3 -2 -3.9 -2 -7.8V132.8zm400.4 -82h-1.9q-2 0 -3.9 1.9 -27.4 0 -54.7 7.8 -15.6 4 -27.4 7.9 -3.9 1.9 -7.8 1.9 -11.7 3.9 -11.7 15.6v19.6q0 13.6 13.7 9.7 5.8 -1.9 9.7 -1.9 17.6 -5.9 37.2 -9.8 35.1 -7.8 72.2 -1.9 19.6 1.9 33.2 15.6 9.8 15.6 9.8 33.2v50.8h-2q-31.2 -7.8 -62.5 -9.8 -33.2 -1.9 -66.4 7.8 -37.1 11.7 -56.6 48.8 -13.7 29.3 -7.8 58.6 5.8 43 42.9 62.5 35.2 17.6 72.3 9.8 44.9 -5.9 80.1 -35.1 0 -2 1.9 -2 2 2 2 5.9 0 7.8 2 15.6 1.9 9.7 9.7 9.7h33.2q7.8 0 9.8 -9.7v-211q0 -13.6 -2 -25.3Q765.6 87.9 732.4 66.4 712.9 56.6 689.5 52.7h-9.8Q673.8 50.8 668 50.8h-23.5zm68.4 250q0 3.9 -2 5.8 -33.2 23.5 -74.2 29.3 -15.6 2 -31.2 -3.9 -19.6 -7.8 -25.4 -25.4 -5.9 -19.5 0 -39 7.8 -23.5 33.2 -29.3 23.4 -7.8 46.9 -5.9l31.2 3.9q9.8 2 17.6 3.9 5.8 0 3.9 3.9v56.7zm507.8 251.9q-3.9 -13.6 -17.6 -15.6 -19.5 -5.8 -41 -7.8 -39.1 -3.9 -76.2 3.9 -42.9 7.8 -78.1 31.3 -3.9 1.9 -7.8 5.8 -2 3.9 0 7.8t5.9 3.9h3.9l23.4 -3.9q11.7 0 23.4 -1.9 33.2 -3.9 66.4 -2 13.7 2 27.4 5.9 15.6 3.9 15.6 19.5 0 23.4 -5.8 46.9 -13.7 43 -31.3 84v3.9q-1.9 1.9 -1.9 5.8 -2 9.8 7.8 7.8 5.8 -1.9 9.7 -5.8 11.8 -11.7 23.5 -25.4 37.1 -48.8 48.8 -109.4 2 -5.8 2 -13.6 1.9 -4 1.9 -5.9v-35.2zM962.9 312.5Q925.8 207 886.7 103.5l-7.8 -23.4Q877 74.2 875 70.3q-3.9 -9.8 -11.7 -9.8h-44.9q-7.9 0 -5.9 9.8 0 5.9 3.9 11.7Q873 222.7 931.6 365.2q3.9 11.8 0 23.5 -3.9 9.7 -9.7 19.5l-7.8 23.4q-9.8 19.6 -31.3 27.4 -13.7 1.9 -29.3 1.9 -3.9 -1.9 -7.8 -1.9h-7.8q-9.8 -2 -9.8 7.8v19.5q0 15.7 15.7 17.6 15.6 3.9 33.2 3.9 48.8 2 76.1 -41 9.8 -17.6 17.6 -37.1Q1041 255.9 1109.4 80.1q1.9 -5.9 1.9 -11.7 2 -7.9 -5.8 -7.9H1066.4q-11.7 0 -15.6 9.8 0 2 -2 3.9 0 2 -1.9 3.9l-66.4 195.3q-2 7.9 -5.9 13.7 -3.9 15.6 -9.8 29.3 -1.9 -1.9 -1.9 -3.9z"/></svg>