<svg height="1000" width="875" xmlns="http://www.w3.org/2000/svg"><path d="M502 242.2q-50.8 0 -127 15.6 -78.1 17.6 -138.7 66.4Q173.8 373 171.9 470.7q3.9 107.4 72.2 148.4 70.4 41.1 154.3 23.5Q480.5 625 529.3 554.7q11.7 17.6 43 46.9 29.3 29.3 46.8 44.9L728.5 537.1q-3.9 -1.9 -31.2 -31.2T666 433.6V146.5q2 -41 -44.9 -97.7Q572.3 -7.8 447.3 -13.7 318.4 -9.8 250 52.7q-66.4 60.6 -66.4 136.8l144.5 13.6q27.4 -68.3 64.5 -84t41 -11.7q50.8 0 60.5 31.3 11.8 29.3 7.9 80.1v23.4zm0 169.9q-2 76.2 -43 99.6 -39.1 23.5 -78.1 3.9 -39.1 -19.5 -43 -70.3 3.9 -68.3 56.6 -89.8Q449.2 332 502 332v80.1zm265.6 318.4Q755.9 752 668 802.7q-87.9 52.8 -240.3 58.6 -103.5 -1.9 -185.5 -39 -84 -35.2 -140.6 -82.1Q43 695.3 19.5 664.1 9.8 652.3 15.6 648.4t13.7 0l7.8 3.9q72.3 46.9 171.9 89.9t236.3 44.9q134.8 0 312.5 -80.1 27.4 -7.8 9.8 23.5zm78.1 3.9q-23.4 46.9 -41 60.5 -19.5 13.7 -13.7 -7.8 7.8 -13.7 19.5 -50.8 13.7 -39 5.9 -56.6 -11.7 -9.8 -39.1 -9.8 -27.3 2 -48.8 3.9h-5.8q-7.9 2 -11.8 2 -15.6 1.9 -15.6 -2 -1.9 -9.7 23.5 -19.5 25.3 -11.7 50.7 -15.6 23.5 -2 52.8 0 27.3 1.9 37.1 11.7 3.9 9.8 0 35.1 -3.9 23.5 -13.7 48.9z"/></svg>