<svg height="1000" width="875" xmlns="http://www.w3.org/2000/svg"><path d="M468.8 -13.7q-91.8 0 -185.6 25.4Q187.5 39.1 109.4 93.8q-17.6 9.7 -13.7 39v5.9q3.9 13.6 7.8 33.2 5.9 21.5 11.7 37.1 17.6 27.3 39.1 13.7 50.8 -35.2 132.8 -64.5 80.1 -27.3 166 -29.3 80.1 0 99.6 39.1 17.6 37.1 13.7 103.5v74.2Q478.5 357.4 380.9 375t-177.8 33.2Q125 425.8 91.8 439.5q-44.9 27.3 -54.7 95.7 -7.8 68.3 -5.8 111.3v11.7q0 21.5 15.6 68.4 17.6 48.8 70.3 89.8 52.7 43 158.2 44.9 72.3 -1.9 156.2 -25.4 82.1 -23.4 144.6 -56.6v48.8q0 11.7 11.7 17.6 9.8 2 52.7 3.9H834q11.7 -5.8 9.8 -17.6V252Q845.7 132.8 753.9 60.5 664.1 -11.7 468.8 -13.7zM566.4 666q-62.5 43 -154.3 46.9 -74.2 -2 -95.7 -35.2Q294.9 646.5 296.9 627v-7.9q-2 -23.4 3.9 -52.7 5.8 -27.3 33.2 -43 37.1 -21.4 101.5 -39Q500 464.8 566.4 457v209z"/></svg>