<svg height="1000" width="1125" xmlns="http://www.w3.org/2000/svg"><path d="M822.3 513.7q-43 -3.9 -46.9 -46.9 3.9 -43 46.9 -46.9 41 3.9 46.8 46.9 -5.8 43 -46.8 46.9zm-519.6 0q-41 -3.9 -46.8 -46.9 5.8 -43 46.8 -46.9 43 3.9 46.9 46.9 -3.9 43 -46.9 46.9zM837.9 230.5L931.6 68.4l-93.7 162.1L931.6 68.4q5.9 -9.8 2 -19.6Q927.7 39.1 916 39.1t-17.6 9.7l-95.7 166Q687.5 162.1 562.5 162.1t-240.2 52.7l-95.7 -166Q220.7 39.1 209 39.1t-17.6 9.7q-3.9 9.8 2 19.6l93.7 162.1q-123 68.3 -197.3 183.6Q13.7 527.3 0 673.8h1125q-13.7 -146.5 -89.8 -259.7Q960.9 298.8 837.9 230.5z"/></svg>