<svg height="1000" width="875" xmlns="http://www.w3.org/2000/svg"><path d="M677.7 343.8q11.8 -33.3 33.2 -93.8Q732.4 189.5 748 128.9q17.6 -58.6 19.6 -91.8 -2 -39.1 -23.5 -66.4t-62.5 -29.3q-37.1 3.9 -72.2 52.7 -33.2 50.8 -60.6 115.3 -27.3 66.4 -42.9 115.2 -9.8 23.4 -13.7 37.1 -2 -5.8 -5.9 -13.7 -11.7 -42.9 -41 -119.1T378.9 -9.8q-35.1 -62.5 -72.3 -66.4 -46.8 2 -68.3 29.3 -21.5 29.3 -21.5 72.3 2 50.8 29.3 138.7 29.3 85.9 52.7 152.3 5.9 13.7 9.8 25.4Q289.1 334 269.5 332q-37.1 2 -64.4 35.2 -29.3 31.2 -31.3 68.3 3.9 27.4 15.7 54.7v3.9Q85.9 523.4 89.8 632.8q2 111.3 89.9 199.2 87.9 86 232.4 91.8 173.8 -3.9 273.4 -115.2 97.7 -109.4 99.7 -281.3 1.9 -64.4 -17.6 -115.2 -21.5 -48.8 -89.9 -68.3zm-68.3 -209q5.8 -23.5 27.3 -72.3Q656.3 15.6 681.6 9.8q23.5 3.9 21.5 31.2 -1.9 19.5 -19.5 76.2Q666 175.8 644.5 234.4q-21.5 60.5 -31.2 89.8 -2 3.9 -2 5.9l-66.4 -11.7 64.5 -183.6zM277.3 17.6q0 -13.7 9.8 -25.4 9.8 -13.7 29.3 7.8 21.5 21.5 52.7 109.4l66.4 197.2q-3.9 -1.9 -9.7 -1.9 -39.1 -5.9 -58.6 3.9 0 -2 -2 -2Q353.5 273.4 332 216.8 312.5 160.2 294.9 103.5 279.3 48.8 277.3 17.6zm-3.9 382.8q29.3 3.9 58.6 48.8 31.3 44.9 50.8 95.7 21.5 48.9 21.5 64.5 -2 19.5 -19.5 23.4 -23.5 -1.9 -58.6 -41 -35.2 -37.1 -62.5 -82 -29.3 -45 -29.3 -68.4 0 -11.7 13.6 -25.4t25.4 -15.6zm359.4 363.3q-85.9 95.7 -212.9 95.7 -87.9 0 -154.3 -44.9 -64.4 -45 -97.6 -127Q144.5 623 162.1 587.9q17.6 -33.2 44.9 -35.2 13.7 2 37.1 31.3 25.4 31.2 46.9 64.4t23.5 46.9q-5.9 15.6 -23.5 17.6 -17.6 0 -31.2 -13.7t-33.2 -42.9q-15.7 -17.6 -35.2 -45 -27.3 31.3 -13.7 70.3 15.7 39.1 52.8 68.4 35.1 29.3 74.2 31.3 39.1 -2 60.5 -27.4t13.7 -54.7h23.4q0 41 17.6 78.1 17.6 35.2 62.5 41.1 2 -2 3.9 -9.8v-3.9q0 -25.4 -9.7 -48.8 -7.8 -23.5 -9.8 -48.9 2 -42.9 25.4 -80 25.4 -37.2 60.5 -60.6 23.5 -17.6 52.8 -25.4 29.3 -9.7 52.7 -31.2 -1.9 -37.1 -33.2 -41h-11.7q-35.2 1.9 -87.9 -2 -50.8 -2 -91.8 -19.5 -41 -15.7 -43 -54.7 -1.9 -11.7 3.9 -17.6 5.9 -7.8 29.3 -7.8 33.2 -2 87.9 3.9t105.5 19.5q50.8 11.7 76.2 33.2 19.5 17.6 25.4 74.2 3.9 58.6 -13.7 130.9 -19.6 72.3 -72.3 134.8zM441.4 517.6q17.6 5.8 39.1 9.7 7.8 0 17.5 2 -21.4 17.6 -39 37.1 -5.9 -17.6 -13.7 -37.1l-3.9 -11.7z"/></svg>