<svg height="1000" width="1250" xmlns="http://www.w3.org/2000/svg"><path d="M1250 388.7l-5.9 54.7 5.9 -54.7 -5.9 54.7 -68.3 5.8 -3.9 35.2 68.3 -3.9 -5.8 54.7 -68.4 3.9 -3.9 39 66.4 -3.9 -5.8 50.8 -125 7.8 23.4 -220.7 -91.8 224.6 -62.5 3.9L919.9 410.2l60.6 -3.9 25.4 156.2 62.5 -162.1L1250 388.7zM834 650.4l54.7 -3.9 -54.7 3.9 54.7 -3.9 25.4 -234.4 -54.7 3.9L834 650.4zm-517.6 31.2l-37.1 -70.3 37.1 70.3 -37.1 -70.3 -7.8 74.2 -54.7 2 5.9 -56.6q-17.6 27.3 -46.9 46.8 -27.4 19.6 -64.5 23.5 -50.8 1.9 -82 -27.4Q-2 642.6 0 587.9q3.9 -44.9 39.1 -84Q72.3 464.8 132.8 459q48.8 0 70.3 19.5 21.5 17.6 27.4 33.2 1.9 2 1.9 3.9l5.9 -60.5 76.2 -3.9q29.3 -2 52.7 7.8t29.3 39l5.8 -52.7 127 -7.8 -5.9 54.7 -70.3 3.9 -3.9 35.2 70.3 -4 -3.9 54.7 -72.2 3.9 -3.9 39.1 72.2 -5.9 -3.9 41.1L615.2 431.6l45 -3.9 62.5 216.8 17.5 -167.9 -42.9 3.9 5.8 -54.7L849.6 416l-5.8 54.7 -46.9 3.9 -19.6 179.7 -113.2 5.9 -7.8 -29.3 -78.2 3.9L562.5 666l-246.1 15.6zM230.5 544.9l-52.8 3.9 52.8 -3.9 -52.8 3.9Q160.2 513.7 127 517.6q-29.3 1.9 -46.9 21.5T58.6 582q-2 25.4 11.7 43 13.7 19.5 44.9 17.6 35.2 -3.9 56.7 -37.1l52.7 -2 5.9 -58.6zm109.3 -15.6q4 -33.2 -50.7 -23.4l-5.9 54.6q21.5 0 37.1 -5.8t19.5 -25.4zM380.9 668l11.7 -117.2L380.9 668l11.7 -117.2q-15.6 37.1 -54.7 52.7l43 64.5zm263.6 -87.9l-15.6 -74.2 15.6 74.2 -15.6 -74.2L599.6 584l44.9 -3.9zm-332 -146.5l-7.8 -33.2 7.8 33.2 -7.8 -33.2 -78.1 5.9 -15.7 35.1 -62.5 3.9L259.8 207l46.8 -3.9 60.6 199.2 19.5 -203.1 52.8 -3.9 74.2 123.1 11.7 -128.9 56.6 -4 -7.8 80.1v-1.9q11.7 -23.5 39.1 -54.7 27.3 -29.3 84 -35.2 52.7 -1.9 76.1 21.5t27.4 35.2q0 1.9 1.9 1.9l5.9 -62.5 76.2 -5.8q42.9 -5.9 70.3 19.5l-7.8 -23.4 62.5 -3.9 25.4 83.9 44.9 -89.8 60.5 -3.9 -84 154.3 -9.7 85.9 -56.7 3.9 9.8 -87.9 -31.2 -83.9q3.9 68.3 -62.5 97.6l50.7 76.2 -72.2 3.9 -37.1 -72.3 -7.9 76.2 -54.6 3.9 5.8 -62.5q-1.9 3.9 -3.9 5.9 -9.8 19.5 -35.1 41T673.8 416q-78.1 5.9 -107.4 -76.2l-7.8 78.2 -48.8 3.9L435.5 298.8l-11.7 128.9 -111.3 5.9zm541 -160.2q29.3 -1.9 41 -7.8 13.7 -7.8 15.7 -23.4t-5.9 -21.5q-9.8 -5.9 -44.9 -3.9l-5.9 56.6zm-212.9 68.4q15.7 17.6 41 15.6 13.7 -1.9 25.4 -7.8 17.6 -9.8 29.3 -29.3l-66.4 5.9 5.9 -46.9 123 -7.8 2 -23.5 -60.6 4q-11.7 -11.8 -21.4 -15.7 -11.8 -5.8 -25.4 -5.8 -23.5 1.9 -43 17.5 -21.5 19.6 -25.4 48.9 -2 27.3 15.6 44.9zm-394.5 15.6l46.9 -1.9 -46.9 1.9 46.9 -1.9 -15.7 -74.2 -31.2 76.1z"/></svg>