<svg height="1000" width="875" xmlns="http://www.w3.org/2000/svg"><path d="M781.3 -13.7H93.8h687.5H93.8q-39.1 2 -66.5 27.4Q2 41 0 80.1v687.5q2 39 27.3 66.4 27.4 25.4 66.5 27.3h687.5q39 -1.9 66.4 -27.3Q873 806.6 875 767.6V80.1Q873 41 847.7 13.7q-27.4 -25.4 -66.4 -27.4zM248 675.8q-21.4 27.3 -52.7 13.7Q166 668 179.7 636.7L209 587.9q46.9 -15.6 76.2 21.5L248 675.8zM519.5 570.3H164.1h355.4H164.1q-35.2 -3.9 -39.1 -39 3.9 -37.2 39.1 -39.1h99.6L390.6 269.5l-39 -68.3Q335.9 168 365.2 148.4q33.2 -15.6 54.7 13.7l15.6 29.3 17.6 -29.3q21.5 -29.3 54.7 -13.7 29.3 19.6 13.7 52.8l-168 291h121.1q31.3 1.9 43 25.4 13.7 25.4 1.9 52.7zm191.4 0h-56.6 56.6 -56.6l39.1 66.4Q707 668 677.7 689.5 646.5 703.1 625 675.8 582 601.6 548.8 543q-41 -72.3 -68.3 -119.2 -23.5 -42.9 -13.7 -80 7.8 -35.2 27.3 -50.8 7.9 11.7 15.7 27.3 37.1 64.5 99.6 171.9h101.5q35.2 1.9 39.1 39.1 -3.9 35.1 -39.1 39z"/></svg>