<svg height="1000" width="1000" xmlns="http://www.w3.org/2000/svg"><path d="M500 160.2l17.6 -31.3L500 160.2l17.6 -31.3q21.5 -29.3 54.7 -13.7 29.3 21.5 13.6 54.7L416 464.8h123.1q31.2 2 44.9 27.4t0 52.7H222.7q-37.2 -3.9 -41.1 -39 3.9 -37.1 41.1 -41.1h101.5L453.1 240.2l-39 -70.3q-15.7 -33.2 13.6 -54.7 33.2 -15.6 54.7 13.7l17.6 31.3zM345.7 585.9l-37.1 66.4 37.1 -66.4 -37.1 66.4q-21.5 29.3 -54.7 13.7 -31.2 -19.5 -15.6 -52.7l29.3 -50.8q46.9 -13.7 78.1 23.4zM675.8 464.8h103.5H675.8h103.5q37.1 4 41 41.1 -3.9 35.1 -41 39h-56.6l39 66.4q13.7 35.2 -15.6 54.7 -33.2 15.6 -54.7 -13.7Q640.6 562.5 601.6 496.1q-33.2 -58.6 -56.7 -99.6 -23.4 -43 -15.6 -82 9.8 -37.2 29.3 -52.8 37.1 62.5 107.4 185.6 3.9 7.8 9.8 17.5zM500 -60.5Q365.2 -58.6 255.9 5.9 146.5 70.3 82 179.7 17.6 289.1 15.6 423.8 17.6 558.6 82 668t173.9 173.8T500 908.2q134.8 -1.9 244.1 -66.4T918 668t66.4 -244.2Q982.4 289.1 918 179.7T744.1 5.9 500 -60.5zm421.9 484.3Q918 601.6 798.8 722.7 679.7 841.8 500 845.7q-177.7 -3.9 -298.8 -123Q82 603.5 78.1 423.8 82 246.1 201.2 125 320.3 5.9 500 2q177.7 3.9 298.8 123Q918 244.1 921.9 423.8z"/></svg>