<svg height="1000" width="1250" xmlns="http://www.w3.org/2000/svg"><path d="M82 390.6q31.3 0 45 5.9 15.6 5.8 21.4 23.4V375q2 -31.2 -33.2 -31.2Q84 341.8 84 369.1H9.8q0 -35.1 11.7 -46.8 15.6 -25.4 89.8 -23.5 89.9 -1.9 105.5 37.1 5.9 17.6 7.8 46.9v148.5h-76.2l3.9 -37.2h-1.9q-11.7 43 -70.3 39.1Q-3.9 537.1 0 460.9q-2 -72.2 82 -70.3zm33.2 93.8q35.2 1.9 33.2 -25.4 3.9 -25.4 -37.1 -23.5Q74.2 433.6 76.2 459q-5.9 29.3 39 25.4zM267.6 298.8h74.2 -74.2 74.2l-2 41h2q11.7 -25.3 27.3 -33.2 13.7 -7.8 45 -7.8 42.9 0 62.5 17.6 13.6 11.7 19.5 33.2t3.9 60.6q0 42.9 -3.9 66.4 -5.9 23.4 -19.5 37.1 -17.6 21.5 -64.5 19.5 -56.6 2 -66.4 -41h-1.9v136.7h-76.2V298.8zM425.8 418q0 -39.1 -7.8 -52.8 -7.8 -11.7 -33.2 -9.7 -23.5 -2 -31.3 9.7 -9.7 11.8 -7.8 45 -1.9 41 5.9 52.7 9.7 13.7 35.1 13.7 23.5 0 31.3 -11.8t7.8 -46.8zM539.1 298.8h74.2 -74.2 74.2l-2 41q13.7 -25.3 27.4 -33.2 15.6 -7.8 46.8 -7.8 41.1 0 60.6 17.6 15.6 11.7 19.5 33.2 5.9 21.5 5.9 60.6 0 42.9 -3.9 66.4Q761.7 500 748 513.7q-17.5 21.5 -64.4 19.5 -56.6 2 -66.4 -41h-2v136.7h-76.1V298.8zM697.3 418q0 -39.1 -7.8 -52.8 -7.9 -11.7 -33.2 -9.7 -23.5 -2 -33.3 9.7 -7.8 11.8 -7.8 45 0 41 7.8 52.7 9.8 13.7 33.3 13.7 25.3 0 33.2 -11.8t7.8 -46.8zm103.5 -7.8q0 -70.4 25.4 -89.9 23.4 -21.5 87.9 -21.5 60.5 0 85.9 23.5 23.4 23.4 23.4 85.9v21.5H875v9.8q-3.9 44.9 39.1 42.9 37.1 2 35.1 -27.3h74.2v3.9q-1.9 29.3 -13.6 48.8 -17.6 27.4 -87.9 25.4 -76.2 2 -97.7 -23.4 -23.4 -19.6 -21.5 -99.6h-1.9zm150.4 -21.5v-7.8q3.9 -33.2 -39.1 -29.3 -37.1 -2 -35.1 29.3v7.8h74.2zm107.4 -89.9h76.2 -76.2 76.2l-3.9 39.1h1.9q15.6 -41 56.7 -39.1 33.2 0 46.8 17.6 13.7 15.6 13.7 66.4v19.5h-68.4v-7.8q2 -42.9 -19.5 -39 -19.5 0 -25.4 19.5 -3.9 3.9 -1.9 23.4v132.9h-76.2V298.8z"/></svg>