<svg height="1000" width="750" xmlns="http://www.w3.org/2000/svg"><path d="M623 449.2q-1.9 -107.4 97.7 -166 -56.6 -78.1 -166 -87.9 -33.2 -1.9 -66.4 7.8t-58.6 19.6q-31.3 11.7 -46.9 13.6 -21.5 -1.9 -54.7 -15.6 -46.8 -19.5 -95.7 -23.4 -85.9 1.9 -152.3 66.4Q11.7 328.1 7.8 459q0 76.2 27.4 158.2 13.6 37.1 44.9 95.7 31.2 56.6 74.2 101.6t91.8 46.8q31.2 -1.9 62.5 -15.6 35.2 -17.6 84 -19.5 46.9 1.9 80.1 17.6 31.2 15.6 70.3 17.5 46.8 -3.9 87.9 -44.9 41 -43 70.3 -95.7 29.3 -54.7 41 -91.8Q654.3 580.1 636.7 519.5 619.1 460.9 623 449.2zM511.7 128.9Q548.8 80.1 556.6 41q5.9 -37.1 2 -54.7 -35.2 2 -72.3 21.5 -35.1 19.5 -60.5 46.9Q373 113.3 377 195.3q76.1 2 134.7 -66.4z"/></svg>