<svg height="1000" width="1250" xmlns="http://www.w3.org/2000/svg"><path d="M228.5 234.4q-23.4 27.3 -62.5 27.3 0 -37.1 23.5 -62.5Q214.8 169.9 250 168q2 37.1 -21.5 64.4v2zm21.5 33.2q-31.2 0 -54.7 11.7 -15.6 5.9 -25.4 7.8 -9.7 -1.9 -25.4 -7.8 -19.5 -9.8 -41 -11.7 -56.6 3.9 -85.9 52.7Q-7.8 369.1 3.9 427.7T43 527.3q13.6 21.5 29.3 37.2t37.1 15.6q17.6 -2 29.3 -7.8 13.6 -7.8 37.1 -9.8 23.4 2 37.1 9.8 11.7 7.8 31.2 7.8 21.5 -2 35.2 -15.6 15.6 -15.7 29.3 -35.2 13.7 -23.4 19.5 -39.1 7.8 -17.5 7.8 -19.5 -7.8 -1.9 -31.2 -21.5 -21.5 -19.5 -23.4 -62.5 1.9 -37.1 19.5 -54.7 15.6 -19.5 23.4 -23.4h2q-19.6 -27.3 -43 -35.2 -21.5 -5.8 -33.2 -5.8zm195.3 -72.3v380.9V195.3v380.9h58.6V447.3h82q58.6 -2 91.8 -35.2 35.2 -35.1 35.2 -91.8 0 -54.7 -33.2 -89.8 -35.2 -33.2 -91.8 -35.2H445.3zm58.6 50.8h68.4 -68.4 68.4q80 1.9 82 76.2 -2 72.2 -82 74.2h-68.4V246.1zm318.4 334q58.6 -2 85.9 -48.8h2v44.9h54.6V386.7q0 -41 -31.2 -64.4 -29.3 -25.4 -80.1 -25.4 -48.8 0 -78.1 23.4 -31.3 23.5 -33.2 62.5h52.7q9.8 -37.1 56.7 -39 54.7 0 56.6 46.8v21.5L834 416q-103.5 7.8 -105.5 82 0 37.2 25.4 58.6 25.4 23.5 68.4 23.5zm15.6 -44.9q-48.8 -2 -52.7 -39.1 1.9 -35.2 56.6 -39.1l66.4 -3.9v21.5q0 25.4 -19.5 43t-50.8 17.6zm199.2 144.5q43 1.9 68.4 -19.5 23.4 -19.6 41 -68.4l103.5 -291h-60.5l-68.4 224.6h-2l-70.3 -224.6h-60.5l99.6 277.3 -5.9 17.6q-11.7 41 -48.8 39.1 -9.8 0 -17.6 -2v46.9h21.5z"/></svg>