<svg height="1000" width="1125" xmlns="http://www.w3.org/2000/svg"><path d="M1011.7 527.3Q1125 408.2 1125 300.8q0 -97.7 -84 -168Q955.1 62.5 794.9 37.1 601.6 9.8 388.7 54.7 177.7 99.6 0 199.2 154.3 117.2 334 84 443.4 54.7 554.7 46.9 664.1 41 765.6 56.6q224.6 39.1 279.3 166.1 54.7 128.9 -85.9 285.1 -31.3 31.3 -68.4 60.6L595.7 125 224.6 683.6Q127 638.7 115.2 558.6t72.3 -169.9Q250 322.3 341.8 275.4q56.6 -37.1 121.1 -60.6Q267.6 277.3 148.4 396.5q-82 84 -82 162.1 0 105.5 132.8 162.1l-66.4 99.6h197.3L373 753.9q66.5 2 134.8 -5.9l-44.9 72.3h265.6L664.1 716.8q54.7 -15.6 107.4 -35.2l87.9 138.7h199.2L916 605.5q54.7 -35.2 95.7 -78.2zM644.5 685.5l-48.8 -80 48.8 80 -48.8 -80L531.3 709q-68.4 11.7 -134.8 9.8L595.7 406.3 750 648.4q-50.8 21.5 -105.5 37.1z"/></svg>