<svg height="1000" width="1000" xmlns="http://www.w3.org/2000/svg"><path d="M296.9 384.8q-27.4 -23.5 -48.9 5.8L3.9 880.9q-7.8 15.6 0 29.3 7.8 11.7 25.4 13.6h341.8q17.6 0 25.4 -15.6 54.7 -121.1 27.3 -267.6Q394.5 494.1 296.9 384.8zM476.6 -60.5Q375 105.5 373 253.9q-3.9 148.4 50.8 283.2 54.7 136.7 125 263.7 29.3 54.7 54.7 107.4 9.8 15.6 27.4 15.6h339.8q17.6 0 25.4 -13.6t0 -29.3q-2 -3.9 -46.9 -95.7Q902.3 693.4 834 556.6 767.6 419.9 697.3 281.3 628.9 142.6 580.1 46.9 533.2 -50.8 527.3 -60.5q-7.8 -15.7 -23.4 -15.7t-27.3 15.7z"/></svg>