<svg height="1000" width="1250" xmlns="http://www.w3.org/2000/svg"><path d="M1250 314.5v105.4V314.5v105.4L625 810.5 0 419.9V314.5l625 390.6 625 -390.6zM871.1 455.1l91.8 -56.7 -91.8 56.7 91.8 -56.7Q906.3 314.5 818.4 265.6T625 216.8q-107.4 0 -193.4 48.8 -87.8 48.9 -144.5 130.9h2q5.8 -5.9 13.6 -11.7Q441.4 275.4 599.6 294.9q160.2 21.5 271.5 160.2zm-431.6 37.1q50.7 -37.1 113.2 -37.1 103.6 3.9 168 93.7l89.8 -56.6q-31.2 -44.9 -80 -70.3T625 396.5q-119.1 3.9 -185.5 95.7zM203.1 238.3Q334 136.7 484.4 119.1q152.3 -17.5 292.9 43 140.7 62.5 240.3 197.3l1.9 1.9 95.7 -58.6q-80 -121.1 -207 -193.3Q779.3 39.1 625 37.1q-154.3 2 -281.2 72.3t-209 193.3q31.2 -35.1 68.3 -64.4z"/></svg>