<svg height="1000" width="1250" xmlns="http://www.w3.org/2000/svg"><path d="M209 478.5l-37.1 -82 37.1 82 -37.1 -82H70.3l-37.1 82H0L121.1 220.7l121.1 257.8H209zM121.1 285.2L84 369.1l37.1 -83.9L84 369.1h76.2l-39.1 -83.9zm220.7 201.1L220.7 228.5l121.1 257.8L220.7 228.5h33.2L341.8 416l87.9 -187.5h33.2L341.8 486.3zM500 478.5v-250 250 -250h29.3v250H500zM908.2 252v226.5V252v226.5H873V252h-80v-23.5h195.3V252h-80.1zm341.8 99.6q0 27.3 -9.8 50.7t-27.3 41.1 -41 27.3 -50.8 9.8 -50.8 -9.8 -41 -27.3T1002 402.3t-9.8 -50.7 9.8 -50.8 27.3 -41q15.6 -13.7 35.2 -21.5 1.9 0 5.8 -2 23.5 -9.7 50.8 -9.7t50.8 9.7q1.9 2 5.8 2 19.6 7.8 35.2 21.5 17.6 17.5 27.3 41t9.8 50.8zm-29.3 0q0 -21.5 -7.8 -39.1 -7.8 -19.5 -21.5 -33.2t-31.2 -21.5q-19.6 -7.8 -39.1 -7.8 -21.5 0 -39.1 7.8t-31.2 21.5 -21.5 33.2q-7.8 17.6 -7.8 39.1t7.8 39q7.8 19.6 21.5 31.3 13.7 13.6 31.2 21.5t39.1 7.8q19.5 0 39.1 -7.8 17.5 -7.9 31.2 -21.5 13.7 -11.7 21.5 -31.3 5.9 -17.6 7.8 -39zM1035.2 541v-13.7V541v-13.7L1209 507.8l-474.6 27.4q1.9 -7.9 1.9 -15.7 2 -5.8 2 -11.7l126.9 -15.6 -126.9 3.9v-2Q730.5 468.8 710.9 457q-21.4 -9.7 -23.4 -9.7l-2 -50.8h46.9l37.1 80.1h33.2L681.6 220.7l-123 255.9h35.2l37.1 -80.1h44.9l-2 50.8q-1.9 0 -23.4 9.7 -19.5 11.8 -25.4 37.1 -2 0 -2 2l-125 -3.9 125 15.6q0 5.9 2 13.7 0 5.8 2 13.7L152.3 507.8l173.9 19.5V541q-17.6 3.9 -19.6 23.5 2 21.4 23.5 23.4 23.4 -2 25.4 -23.4Q353.5 544.9 334 541v-11.7l156.2 17.6v9.7q-17.5 5.9 -17.5 23.5 1.9 19.5 23.4 19.5t23.4 -19.5q0 -19.6 -19.5 -23.5v-9.7l56.6 5.8v46.9h-11.7V627h11.7v-13.7h9.8V627h11.7v-27.4h-11.7v-44.9l74.2 7.8q13.7 17.6 25.4 21.5l11.7 5.8v13.7H668V627h7.8v-9.8h9.7v9.8h7.9v-23.5h-9.8v-13.7q1.9 0 13.7 -5.8 11.7 -3.9 23.4 -21.5l74.2 -7.8v44.9h-11.7V627h11.7v-13.7h9.8V627h11.7v-27.4h-11.7v-44.9l56.6 -7.8v9.7q-17.5 5.9 -19.5 23.5 2 19.5 23.4 21.5 23.5 0 25.4 -21.5 -1.9 -17.6 -19.5 -23.5v-9.7l156.2 -17.6V541q-19.5 3.9 -19.5 23.5 2 21.4 23.5 23.4 21.4 -2 23.4 -23.4 -2 -19.6 -19.5 -23.5zM642.6 369.1l39 -83.9 -39 83.9 39 -83.9 37.2 83.9h-35.2l-2 -78.1 -3.9 78.1h-35.1z"/></svg>