<svg height="1000" width="1000" xmlns="http://www.w3.org/2000/svg"><path d="M884.8 -13.7H275.4h609.4H275.4q-58.6 2 -103.5 39.1Q125 64.5 113.3 123L2 724.6q-9.8 58.6 23.4 97.7 31.2 37.1 89.8 39h609.4q58.6 -1.9 103.5 -39 46.9 -39.1 58.6 -97.7L998 123q9.8 -58.5 -23.4 -97.6 -31.2 -37.1 -89.8 -39.1zM771.5 664.1L709 691.4l62.5 -27.3L709 691.4 484.4 476.6q-44.9 29.3 -82.1 52.7l43 125 -35.1 25.4L330.1 560.5 228.5 466.8l31.3 -31.3L373 496.1q27.4 -31.3 64.5 -66.4l-41 -58.6L261.7 175.8l37.1 -56.7 17.6 -9.7 201.2 220.7 9.7 7.8q60.6 -58.6 66.5 -62.5 27.3 -17.6 58.5 15.6 27.4 35.2 5.9 60.6l-3.9 3.9q-17.6 11.7 -64.5 46.8l7.9 13.7 185.5 232.4 -11.7 15.7z"/></svg>