<svg height="1000" width="1250" xmlns="http://www.w3.org/2000/svg"><path d="M351.6 320.3q1.9 43 15.6 60.6 5.8 9.7 5.8 15.6 0 7.8 -7.8 11.7l-25.4 17.6q-3.9 3.9 -9.7 3.9 -2 1.9 -11.7 -5.9Q306.6 416 289.1 380.9 242.2 437.5 168 437.5 138.7 441.4 97.7 418q-43 -23.5 -43 -89.9 -2 -56.6 41 -87.9 41 -31.2 95.7 -29.3 19.5 -1.9 91.8 11.8v-31.3q3.9 -39.1 -19.5 -64.4 -23.5 -23.5 -66.4 -19.6h-2q-11.7 -5.8 -87.9 19.6 -17.6 5.8 -19.5 3.9h-2q-9.7 -2 -9.7 -21.5Q78.1 91.8 80.1 84 89.8 74.2 127 62.5t82 -13.7Q269.5 44.9 318.4 82q37.1 45 33.2 103.5v134.8zm-168 62.5q46.9 -1.9 70.3 -21.5 21.5 -19.5 25.4 -37.1 5.9 -23.4 3.9 -44.9v-7.8q-29.3 -9.8 -76.2 -9.8 -25.4 -3.9 -52.7 9.8T125 324.2q-2 25.4 13.7 43 17.6 17.6 44.9 15.6zm334 44.9q-21.5 0 -25.4 -19.5L394.5 85.9q-1.9 -7.8 -1.9 -15.6 -2 -7.8 5.8 -9.8h45q23.4 2 23.4 19.6l70.3 275.4L601.6 80.1q0 -5.9 5.8 -13.7 5.9 -5.9 19.6 -5.9h33.2q3.9 -1.9 13.6 2 7.8 2 11.7 17.6L750 359.4 822.3 80.1q0 -3.9 5.8 -11.7 3.9 -7.9 19.6 -7.9h37.1q1.9 -1.9 7.8 0 3.9 4 3.9 15.7v1.9q0 -3.9 -3.9 11.7 -5.9 15.7 -27.4 86T793 408.2q-2 19.5 -25.4 21.5h-35.2q-15.6 0 -21.5 -9.8Q707 410.2 707 408.2L642.6 140.6l-64.5 267.6q0 2 -3.9 11.7 -5.8 9.8 -21.5 7.8h-35.1zm533.2 11.8q-9.8 0 -43 -4Q974.6 431.6 939.5 416q-13.7 -7.8 -15.7 -23.4v-21.5q2 -11.7 7.8 -11.7 5.9 -2 9.8 0l7.8 3.9q19.6 9.7 48.8 15.6 50.8 9.8 78.2 2 25.4 -5.9 31.2 -9.8 0 -2 2 -2 17.6 -11.7 19.5 -33.2 3.9 -19.5 -9.8 -35.1 -11.7 -9.8 -25.3 -15.6 -13.7 -3.9 -45 -13.7 -13.6 -3.9 -33.2 -11.7 -11.7 0 -46.8 -23.5 -35.2 -21.5 -39.1 -78.1 0 -43 35.1 -76.2 35.2 -31.2 99.7 -33.2 21.4 0 58.5 7.8 35.2 5.9 50.8 23.5 3.9 5.8 3.9 13.7v19.5q0 13.7 -9.7 13.7l-17.6 -5.9q-23.4 -13.7 -78.1 -15.6 -13.7 -2 -43 5.8 -31.3 7.8 -33.2 43 3.9 27.3 27.3 39.1t31.3 13.6q13.7 3.9 25.4 5.9 37.1 11.7 58.6 21.5t39 29.3q23.5 35.1 19.6 66.4t-9.8 42.9q-33.2 50.8 -80.1 60.6 -46.9 7.8 -54.7 5.9h-1.9zm80.1 205q-105.5 76.2 -240.3 115.3 -134.7 39 -265.6 39 -171.9 2 -332 -58.6Q134.8 679.7 5.9 562.5 -3.9 554.7 2 546.9t17.5 -2Q306.6 707 638.7 709q246.1 -2 470.7 -95.7 19.5 -7.8 27.3 5.8 9.8 11.8 -5.8 25.4zm56.6 -64.4q-17.6 -15.6 -70.3 -13.7 -50.8 2 -87.9 7.8h-2q-21.4 -1.9 -3.9 -19.5 64.5 -39.1 134.8 -37.1t87.9 17.6q11.7 19.5 -5.9 87.8T1168 744.1q-21.5 11.8 -17.6 -7.8l1.9 -1.9q13.7 -35.2 29.3 -86 15.7 -48.8 5.9 -68.3z"/></svg>