<svg height="1000" width="1000" xmlns="http://www.w3.org/2000/svg"><path d="M877 365.2q37.1 -1.9 54.6 -9.7 15.7 -7.8 21.5 -15.7 17.6 -25.3 -9.7 -64.4t-93.8 -74.2q50.8 -101.6 70.3 -166 5.9 -35.2 0 -41.1Q918 11.7 896.5 62.5q-23.5 50.8 -70.3 127 -72.3 -33.2 -183.6 -45 -13.7 -29.3 -44.9 -82Q564.5 9.8 525.4 -29.3q-48.8 -46.9 -80.1 -46.9 -39 2 -52.7 21.5Q343.8 3.9 343.8 109.4q-21.5 -41 -56.7 -50.8 -31.2 -3.9 -52.7 39.1 -19.6 42.9 -17.6 121.1 -115.2 3.9 -181.6 21.4Q5.9 250 0 259.8q0 -2 46.9 -9.8 44.9 -7.8 171.9 -9.8 9.7 82.1 31.2 136.8t19.5 46.8q-17.5 23.5 -46.8 80.1 -29.3 54.7 -45 109.4 -15.6 66.4 0 91.8 19.6 35.1 45 37.1 76.1 13.7 169.9 -41 -27.4 41 -17.6 76.1 11.7 29.3 58.6 25.4t113.3 -44.9q60.5 95.7 109.4 146.5 7.8 7.8 15.6 13.7 17.6 7.8 17.6 5.8 -13.7 -9.7 -46.9 -54.7t-76.2 -125q66.4 -46.8 132.8 -134.7 173.8 3.9 230.5 -23.5 56.6 -25.4 58.6 -39 23.4 -29.3 0 -78.1Q962.9 418 877 365.2zM724.6 572.3q64.5 -109.4 56.7 -179.7 85.9 50.8 95.7 113.3 5.8 21.4 -23.5 39 -29.3 19.6 -128.9 27.4zM423.8 681.6q29.3 -19.5 56.7 -41 19.5 39.1 41 74.2 -62.5 31.3 -93.8 21.5 -29.3 -9.7 -3.9 -54.7zm420 -335.9q-31.3 -15.6 -62.5 -29.3 21.4 -35.1 42.9 -72.3 58.6 39.1 64.5 70.4 7.8 31.2 -44.9 31.2zM544.9 701.2Q529.3 668 513.7 630.9q62.5 -2 91.8 -19.6 29.3 -15.6 31.2 -21.5 0 2 -33.2 15.7 -33.2 11.7 -89.8 7.8 89.8 -74.2 166 -164.1 27.3 -29.3 48.8 -60.5 3.9 0 -31.2 -23.5 -76.2 87.9 -144.6 144.6t-115.2 82Q375 558.6 328.1 472.7 271.5 349.6 267.6 246.1q35.1 1.9 76.2 7.8 -31.3 54.7 -31.3 87.9t3.9 37.1q0 -3.9 3.9 -37.1 5.9 -33.2 35.2 -80.1 27.3 154.3 87.9 298.8h1.9q-1.9 2 35.2 -15.6Q441.4 433.6 427.7 345.7T414.1 205.1Q472.7 168 572.3 171.9q134.7 9.7 228.5 58.6 -21.5 31.2 -46.9 64.4 -31.2 -54.7 -60.5 -70.3Q664.1 207 660.2 209q1.9 0 27.3 21.5 27.3 23.4 52.7 70.3Q630.9 261.7 515.6 240.2q-39 -7.8 -78.1 -13.6v1.9q-2 -3.9 -3.9 39.1 115.2 21.5 197.3 52.7 83.9 31.3 128.9 58.6 3.9 70.3 -48.9 156.3 -78.1 111.3 -166 166zm54.7 -560.6q-126.9 -1.9 -185.5 41Q418 105.5 439.5 68.4q23.4 -37.1 48.8 -35.2 17.6 -1.9 43 23.4t44.9 52.8 23.4 31.2zm-255.8 5.9q1.9 35.1 5.8 72.3 -43 -2 -82 -2 -2 2 1.9 -23.4 2 -23.5 11.8 -48.9 9.7 -23.4 33.2 -23.4 17.5 3.9 29.3 25.4zm-54.7 316.4Q351.6 574.2 416 603.5q-68.3 35.2 -111.3 35.2 -43 -2 -54.7 -25.4 -3.9 1.9 -3.9 -29.3 0 -33.2 43 -121.1z"/></svg>