<svg height="1000" width="1125" xmlns="http://www.w3.org/2000/svg"><path d="M453.1 386.7q93.8 -41 93.8 -144.5 -2 -101.6 -64.5 -136.7Q418 68.4 326.2 70.3H0v693.4h335.9q97.7 0 168 -48.9Q576.2 668 580.1 562.5q0 -134.8 -127 -175.8zM152.3 189.5h142.6H152.3h142.6q43 -2 72.3 15.6 31.2 15.6 31.2 62.5 0 44.9 -25.4 64.4t-66.4 19.6H152.3V189.5zm162.2 457H152.3h162.2H152.3V455.1h166.1q105.4 -3.9 109.3 99.6 -1.9 50.8 -33.2 72.3 -31.2 19.5 -80 19.5zm701.1 -470.7H734.4h281.2H734.4v-68.4h281.2v68.4zM1125 519.5q0 -113.2 -62.5 -191.4Q1000 252 880.9 248q-115.3 2 -185.6 76.2Q627 398.4 625 513.7q0 119.1 68.4 189.4 68.3 72.3 187.5 74.2 179.6 0 234.3 -169.9H994.1q-11.7 33.2 -42.9 48.9 -33.2 17.5 -66.4 17.5Q763.7 669.9 761.7 544.9H1123q2 -11.7 2 -25.4zM761.7 459Q773.4 355.5 877 351.6q101.5 3.9 109.3 107.4H761.7z"/></svg>