<svg height="1000" width="1000" xmlns="http://www.w3.org/2000/svg"><path d="M955.1 127q48.8 52.7 44.9 128.9v394.5q-2 78.1 -52.7 126.9 -48.9 50.8 -127 52.8H179.7q-78.1 -2 -127 -52.8Q2 726.6 0 642.6V255.9Q2 179.7 52.7 127q48.9 -48.9 127 -50.8h56.6L187.5 25.4q-17.6 -15.6 -17.6 -43 0 -25.4 17.6 -41 17.6 -17.6 43 -17.6t42.9 17.6L416 76.2h171.9L734.4 -58.6q17.6 -17.6 42.9 -17.6t43 17.6q15.6 15.6 17.6 41 -2 27.4 -17.6 43l-48.8 50.8h56.6q78.2 1.9 127 50.8zm-76.2 136.7Q877 234.4 857.4 216.8q-17.6 -17.6 -44.9 -17.6h-625q-27.3 0 -46.9 17.6Q123 234.4 123 263.7v378.9q0 27.3 17.6 46.9 19.6 17.5 46.9 19.5h625q27.3 -2 46.9 -19.5 17.6 -19.6 19.5 -46.9V263.7zm-515.6 84q17.6 17.5 19.5 44.9V457q-1.9 27.4 -19.5 45 -17.6 19.5 -46.9 19.5 -27.3 0 -44.9 -19.5Q252 484.4 252 457v-64.4q0 -27.4 19.5 -44.9 17.6 -19.6 44.9 -19.6t46.9 19.6zm373 0q17.6 17.5 19.6 44.9V457q-2 27.4 -19.6 45 -17.5 19.5 -44.9 19.5 -29.3 0 -46.9 -19.5Q625 484.4 625 457v-64.4q2 -27.4 19.5 -44.9 19.6 -19.6 46.9 -19.6t44.9 19.6z"/></svg>