<svg height="1000" width="875" xmlns="http://www.w3.org/2000/svg"><path d="M812.5 -13.7h-750 750 -750q-27.3 0 -44.9 17.6T0 48.8v750q0 27.4 17.6 45t44.9 17.5h750q27.3 0 44.9 -17.5t17.6 -45v-750Q875 21.5 857.4 3.9t-44.9 -17.6zm-125 502q3.9 74.2 -33.2 117.2 -39.1 42.9 -169.9 44.9h-33.2q-62.5 0 -93.8 -19.5 -33.2 -21.5 -42.9 -56.7h-2v68.4h-125V189.5h125v146.4h2q9.7 -44.9 48.8 -60.5 41 -17.6 87.9 -15.6h33.2q130.8 0 169.9 44.9 37.1 43 33.2 115.2v68.4zm-125 -54.7v43 -43 43q2 33.2 -11.7 48.8Q537.1 543 488.3 543h-89.9q-41 1.9 -64.4 -13.7 -21.5 -13.7 -21.5 -56.6v-37.2q0 -41 21.5 -54.6 23.4 -15.7 64.4 -13.7h89.9q48.8 0 62.5 15.6 13.7 17.6 11.7 48.8v2z"/></svg>