<svg height="1000" width="1000" xmlns="http://www.w3.org/2000/svg"><path d="M984.4 423.8Q982.4 558.6 918 668 853.5 777.3 744.1 841.8 634.8 906.3 500 908.2 365.2 906.3 255.9 841.8T82 668 15.6 423.8Q17.6 289.1 82 179.7T255.9 5.9 500 -60.5q134.8 1.9 244.1 66.4T918 179.7t66.4 244.1zM707 355.5q5.9 -48.9 -23.4 -78.2 -31.3 -27.3 -82 -44.9L623 144.5l-52.7 -11.7 -21.5 84q-21.5 -5.9 -42.9 -9.8l21.4 -85.9 -52.7 -13.7 -21.5 87.9L418 187.5l-72.3 -17.6L332 226.6q2 0 19.6 3.9 15.6 3.9 17.5 3.9 29.3 11.7 25.4 31.2l-25.4 99.6q2 2 5.9 2h-2t-3.9 -2L334 505.9q-2 13.6 -23.5 11.7 -1.9 0 -19.5 -3.9t-19.5 -5.9l-25.4 60.6 68.4 17.5q11.7 3.9 23.4 5.9 7.8 2 13.7 3.9l-21.5 87.9 52.7 13.7 23.5 -86q19.5 3.9 41 9.8L425.8 709l52.7 11.7L502 632.8q68.3 15.6 117.1 2 46.9 -13.7 70.4 -72.3 15.6 -48.8 1.9 -80.1 -15.6 -31.2 -50.8 -48.8 54.7 -9.8 66.4 -78.1zM585.9 525.4q-15.6 43 -66.4 39.1 -50.7 -4 -85.9 -15.7 -5.9 -1.9 -11.7 -1.9l29.3 -117.2q5.8 1.9 13.6 1.9 39.1 7.9 84 27.4 45 21.5 37.1 66.4zm17.6 -171.9q-13.7 39.1 -56.6 37.1 -43 -1.9 -72.3 -11.7 -5.8 -1.9 -9.8 -3.9l27.4 -105.5q3.9 2 9.8 2 33.2 5.8 70.3 23.4t31.2 58.6z"/></svg>