<svg height="1000" width="968.8" xmlns="http://www.w3.org/2000/svg"><path d="M152.3 54.7q95.7 -86 214.9 -117.2 119.1 -29.3 240.2 2 119.2 31.2 216.8 123 17.6 23.4 0 43 -19.5 19.5 -44.9 0Q650.4 -15.6 486.3 -15.6t-291 113.3q-25.4 19.5 -43 0t0 -43zM345.7 873q29.3 4 39.1 -21.4 7.8 -25.4 -23.5 -37.1Q195.3 759.8 115.2 615.2q-80 -142.5 -41 -310.5 3.9 -29.3 -23.4 -37.1Q25.4 261.7 15.6 291q-31.2 125 2 244.2 31.2 119.1 117.2 208.9 84 89.9 210.9 128.9zm289.1 -3.9Q816.4 804.7 906.3 646.5 996.1 488.3 957 300.8q-9.7 -29.3 -37.1 -23.5 -25.4 5.9 -21.5 39.1 33.2 162.1 -44.9 298.8Q775.4 753.9 619.1 810.5q-31.2 13.7 -21.4 39.1 7.8 25.4 37.1 19.5zM513.7 714.8V574.2v140.6V574.2q-3.9 -27.3 -29.3 -29.3 -27.4 3.9 -29.3 29.3v140.6q1.9 25.4 29.3 29.3 25.4 -3.9 29.3 -29.3zM652.3 189.5v9.7q7.9 127 -17.5 187.5 -25.4 60.6 -150.4 60.6 -123.1 0 -148.5 -58.6Q308.6 330.1 316.4 212.9q0 -11.7 2 -23.4 -5.9 -31.3 -33.2 -31.3 -27.4 2 -31.3 31.3v138.6q3.9 101.6 74.2 140.7 68.4 39 156.3 37.1 87.9 1.9 156.2 -37.1 70.3 -39.1 74.2 -140.7V189.5q-3.9 -29.3 -31.2 -31.3 -27.3 0 -31.3 31.3z"/></svg>