<svg height="1000" width="1000" xmlns="http://www.w3.org/2000/svg"><path d="M324.2 152.3q2 35.2 -29.3 64.5Q263.7 246.1 183.6 248H44.9l41 -173.8h132.9q60.5 2 83.9 27.4t21.5 50.7zM570.3 74.2H437.5h132.8H437.5L402.3 248h136.8q76.1 -1.9 107.4 -31.2t29.3 -64.5q1.9 -25.3 -21.5 -50.7t-84 -27.4zM173.8 330.1H41h132.8H41L0 503.9h136.7Q216.8 502 248 474.6t31.3 -66.4q0 -25.4 -23.4 -50.8Q234.4 332 173.8 330.1zm351.6 0H392.6h132.8H392.6l-37.1 173.8h138.6q76.2 -1.9 107.5 -29.3 29.3 -27.3 29.3 -66.4 0 -25.4 -21.5 -50.8 -23.5 -25.4 -84 -27.3zM894.5 224.6H761.7h132.8H761.7l-35.1 173.8h136.7q76.2 -1.9 107.4 -29.3t29.3 -66.4q2 -25.4 -21.5 -50.7t-84 -27.4zm-54.7 269.5H707h132.8H707L671.9 668h136.7q80.1 -2 109.4 -29.3t27.3 -66.4q0 -25.4 -21.5 -50.8 -23.4 -25.4 -84 -27.4zM470.7 599.6H337.9h132.8H337.9l-37.1 173.8h136.7q82 -1.9 109.4 -31.2 29.3 -29.3 29.3 -64.5 0 -25.4 -23.5 -50.7 -21.4 -25.4 -82 -27.4z"/></svg>