<svg height="1000" width="875" xmlns="http://www.w3.org/2000/svg"><path d="M316.4 306.6q5.9 -7.8 17.6 -7.8 11.7 -1.9 54.7 -1.9h48.8q9.8 1.9 13.7 3.9 15.6 7.8 15.6 27.3 0 15.7 -13.7 25.4 -3.9 2 -13.6 3.9h-48.9q-50.8 0 -60.5 -1.9Q314.5 351.6 310.5 334q-3.9 -15.6 5.9 -27.4zm121.1 185.6q-76.2 -2 -95.7 0 -19.5 1.9 -21.5 7.8 -11.7 11.7 -11.7 27.3 3.9 15.7 19.5 23.5 2 0 25.4 1.9h84l93.8 -1.9 17.5 -2q27.4 -21.5 5.9 -48.8 -3.9 -5.9 -21.5 -7.8 -19.5 -2 -95.7 0zM873 746.1Q859.4 832 773.4 857.4q-3.9 2 -23.4 2 -17.6 1.9 -87.9 1.9H214.8T123 859.4q-19.5 0 -23.4 -2 -23.4 -5.8 -43 -19.5Q37.1 822.3 23.4 806.6 9.8 787.1 3.9 763.7 2 759.8 2 740.2 0 722.7 0 652.3v-455t2 -87.9Q2 89.8 3.9 85.9 25.4 9.8 103.5 -11.7q9.8 0 107.4 -2H660.2q97.6 2 107.4 2Q830.1 2 861.3 60.5q2 2 2 5.9 5.8 5.9 7.8 25.4t3.9 89.8v478.6q0 78.1 -2 85.9zM707 382.8q-3.9 -15.6 -15.6 -21.5 -5.9 -1.9 -29.3 -3.9 -17.6 0 -23.4 -1.9 -7.8 0 -11.7 -3.9 -17.6 -7.8 -15.7 -35.2 0 -60.5 -48.8 -111.3 -35.2 -35.2 -80.1 -48.8 -3.9 -2 -21.5 -2 -15.6 0 -54.6 -2 -60.6 0 -86 2 -27.3 2 -44.9 11.7 -82 33.2 -105.5 121.1Q168 293 168 316.4q-2 25.4 -2 95.7 0 89.9 2 119.2 0 31.2 5.8 46.8 15.7 44.9 50.8 76.2 35.2 29.3 76.2 37.1 11.7 2 70.3 2 58.6 1.9 117.2 1.9 58.6 -1.9 74.2 -1.9 56.6 -7.9 97.7 -50.8 31.2 -31.3 42.9 -76.2 3.9 -11.7 3.9 -54.7 2 -41 2 -80.1 -2 -41 -2 -48.8z"/></svg>