<svg height="1000" width="875" xmlns="http://www.w3.org/2000/svg"><path d="M873 359.4Q865.2 334 847.7 322.3q-9.8 -3.9 -48.9 -3.9 -27.3 -2 -37.1 -3.9t-19.5 -5.9Q714.8 294.9 718.8 250q-2 -97.7 -80.1 -177.7Q582 13.7 509.8 -7.8q-7.8 -2 -33.2 -3.9 -27.4 0 -89.9 -2 -97.6 0 -140.6 2 -41 3.9 -72.3 17.6Q43 60.5 5.9 203.1 3.9 212.9 2 252q0 39 -2 154.3 0 142.5 2 193.3 1.9 48.8 11.7 72.3 23.4 74.2 80.1 123t123 62.5q19.5 2 113.3 3.9h189.4t119.2 -3.9q91.8 -11.7 160.1 -82 48.9 -48.8 68.4 -121.1 5.8 -19.5 5.8 -87.9 2 -66.4 2 -130.9t-2 -76.1zm-628.9 -125q7.9 -11.7 27.4 -13.7 17.6 -1.9 85.9 -1.9h78.1q17.6 1.9 23.5 5.8 27.3 13.7 27.3 43 0 27.3 -25.4 42.9 -3.9 4 -21.4 4 -15.7 1.9 -76.2 1.9 -84 0 -99.6 -1.9 -25.4 -9.8 -31.3 -35.2t9.8 -44.9h1.9zM617.2 625l-29.3 3.9 29.3 -3.9 -29.3 3.9 -150.4 2q-97.7 1.9 -136.7 0 -37.1 -2 -41 -3.9 -23.5 -11.8 -29.3 -37.2 -2 -25.3 15.6 -44.9 5.9 -7.8 37.1 -9.7t154.3 -2q125 -1.9 154.3 2 29.3 1.9 35.2 13.6 17.5 17.6 15.6 39.1 -3.9 23.4 -25.4 37.1z"/></svg>