<svg height="1000" width="1125" xmlns="http://www.w3.org/2000/svg"><path d="M796.9 500h-2q-9.7 -2 -17.6 -3.9 5.9 1.9 9.8 1.9t9.8 2zM562.5 367.2q-41 -80.1 -130.9 -189.5Q343.8 66.4 244.1 -7.8 152.3 -70.3 107.4 -74.2 64.5 -80.1 43 -64.5q-27.4 13.7 -35.2 45T0 37.1Q0 58.6 5.9 123q3.9 64.5 9.7 129 7.8 66.4 13.7 89.8 31.2 95.7 117.2 132.8 84 35.2 181.6 25.4 5.9 -2 11.7 -2 4 0 7.9 -1.9l-19.6 3.9Q234.4 511.7 166 544.9t-72.2 99.6q-2 68.4 101.5 187.5 117.2 113.3 189.5 87.9T500 802.7q41 -89.8 62.5 -171.8v-2q5.9 17.6 11.7 39.1 19.6 80 54.7 158.2Q666 902.3 734.4 918q70.3 15.6 191.4 -86 95.7 -101.5 95.7 -169.9 -2 -70.3 -66.4 -109.4Q890.6 511.7 796.9 500q-2 0 -2 -2 -9.7 0 -17.6 -1.9 5.9 1.9 9.8 1.9t9.8 2q97.6 9.8 181.6 -25.4 86 -37.1 117.2 -132.8 5.9 -23.4 13.7 -89.8 5.8 -64.5 9.7 -129 5.9 -64.4 5.9 -85.9 0 -25.4 -7.8 -56.6t-35.2 -45q-19.5 -13.6 -64.4 -9.7T880.9 -7.8Q781.3 66.4 693.4 177.7 603.5 287.1 562.5 367.2z"/></svg>