<svg height="1000" width="875" xmlns="http://www.w3.org/2000/svg"><path d="M572.3 257.8l-84 84 84 -84 -84 84 -2 -168 86 84zm-86 429.7l86 -84 -86 84 86 -84 -84 -84 -2 168zM812.5 429.7q0 199.2 -44.9 306.6 -43 107.5 -125 148.5 -80.1 41 -191.4 39 -111.4 2 -199.2 -39T113.3 736.3Q64.5 628.9 62.5 429.7q0 -197.3 50.8 -308.6Q162.1 9.8 248 -33.2q87.9 -44.9 199.3 -43Q615.2 -82 712.9 27.3q97.6 107.5 99.6 402.4zm-308.6 0L658.2 257.8 503.9 429.7 658.2 257.8 414.1 -3.9v343.7L269.5 197.3 216.8 250l181.6 181.6L216.8 613.3l52.7 50.8L414.1 521.5l3.9 332 248 -250L503.9 429.7z"/></svg>