<svg height="1000" width="1125" xmlns="http://www.w3.org/2000/svg"><path d="M652.3 316.4Q650.4 252 568.4 250h-99.6v138.7h83.9q97.7 -2 99.6 -72.3zM1009.8 293q-13.7 -46.9 -17.6 -97.7 -3.9 -50.8 -2 -93.7 2 -46.9 -29.3 -80.1 -29.3 -33.2 -76.1 -35.2H242.2q-48.8 2 -78.1 35.2t-29.3 80.1q1.9 42.9 -2 93.7T115.2 293Q89.8 386.7 13.7 396.5v54.7q76.1 9.7 101.5 103.5 13.7 46.9 17.6 97.6t2 93.8q0 46.9 29.3 80.1t78.1 35.1h640.6q48.8 -1.9 78.1 -35.1t29.3 -80.1q-1.9 -43 2 -93.8t17.6 -97.6q25.4 -93.8 101.5 -103.5v-54.7Q1035.2 386.7 1009.8 293zM585.9 656.3H394.5h191.4H394.5V191.4h191.4q64.5 0 101.6 31.3t37.1 83.9q0 39.1 -23.4 66.4 -23.5 29.3 -60.6 35.2v2q48.9 5.8 78.2 37.1 29.2 29.3 29.2 78.1 0 60.5 -42.9 95.7t-119.2 35.2zM566.4 443.4h-97.6 97.6 -97.6v154.3h101.5q101.6 -2 103.5 -78.2 -1.9 -74.2 -107.4 -76.1z"/></svg>