<svg height="1000" width="1250" xmlns="http://www.w3.org/2000/svg"><path d="M168 310.5q-48.9 0 -80.1 39.1V228.5q-2 -13.7 -15.6 -15.6H15.6Q2 214.8 0 228.5v347.7q0 5.8 3.9 9.7 5.9 5.9 11.7 5.9h56.7q5.8 0 9.7 -5.9 5.9 -3.9 5.9 -9.7v-17.6q35.1 39.1 80.1 39.1 52.7 0 85.9 -37.2 35.2 -37.1 35.2 -107.4 0 -66.4 -35.2 -105.4Q220.7 310.5 168 310.5zm-27.4 211q-33.2 -2 -52.7 -25.4v-84q19.5 -23.4 52.7 -25.4 54.7 3.9 60.6 66.4 -5.9 64.5 -60.6 68.4zM445.3 406.3q-31.2 1.9 -35.1 33.2 3.9 31.2 35.1 33.2 31.3 -2 33.2 -33.2 0 -13.7 -9.7 -23.5t-23.5 -9.7zm89.9 -175.8v-87.9 87.9 -87.9q17.5 -9.8 15.6 -29.3Q544.9 93.8 525.4 91.8q-21.5 2 -25.4 21.5t15.6 29.3v87.9q-68.3 3.9 -121.1 44.9 -50.7 39.1 -70.3 105.5t2 126.9q21.5 62.5 76.1 103.5 56.7 39.1 123.1 39.1 64.4 0 121.1 -39.1 54.7 -41 76.2 -103.5 21.4 -60.5 3.9 -126.9Q707 314.5 654.3 275.4q-50.8 -41 -119.1 -44.9zm167.9 209q-1.9 46.8 -52.7 76.1 -48.8 31.3 -125 31.3t-127 -31.3q-48.8 -29.3 -50.7 -76.1 1.9 -45 50.7 -76.2Q449.2 332 525.4 332t125 31.3q50.8 31.2 52.7 76.2zm-97.6 33.2q31.2 -2 33.2 -33.2 -2 -31.3 -33.2 -33.2 -31.3 1.9 -35.2 33.2 3.9 31.2 35.2 33.2zm529.3 -60.6h-2q-43 -3.9 -43 -17.6 2 -19.5 35.2 -19.5 37.1 0 68.4 19.5 11.7 5.9 21.4 -5.8l17.6 -29.3q5.9 -13.7 -5.8 -21.5Q1179.7 310.5 1125 310.5q-58.6 0 -87.9 27.4 -29.3 25.4 -29.3 62.5 2 50.8 37.1 68.4 37.1 17.5 74.2 21.4 43 3.9 46.9 21.5 2 19.6 -37.1 21.5 -43 -3.9 -82 -27.3 -5.9 -3.9 -11.7 -2 -7.9 2 -11.8 5.9v1.9l-19.5 31.3q-5.9 13.6 5.9 23.4 46.8 31.3 115.2 31.3 60.5 0 91.8 -25.4 33.2 -25.4 33.2 -64.5 -2 -52.7 -39.1 -72.3 -37.1 -17.5 -74.2 -21.4 -1.9 0 -1.9 -2zM947.3 531.3q-5.9 -11.8 -19.6 -11.8 -3.9 2 -7.8 2 -23.4 -2 -23.4 -29.3v-99.6h39q13.7 0 15.7 -15.6v-45q-2 -13.6 -15.7 -15.6h-39v-58.6q0 -5.8 -5.9 -11.7 -3.9 -3.9 -11.7 -3.9h-54.7q-5.8 0 -11.7 3.9 -3.9 5.9 -3.9 11.7v58.6h-29.3q-5.9 0 -11.7 5.9 -3.9 3.9 -3.9 9.7v45q1.9 15.6 15.6 15.6h29.3v125q1.9 80.1 85.9 80.1 35.2 0 54.7 -9.8Q959 582 957 570.3z"/></svg>