<svg height="1000" width="875" xmlns="http://www.w3.org/2000/svg"><path d="M285.2 -76.2h152.3H285.2h306.6l85.9 99.6q3.9 -1.9 43 -5.8T791 37.1q27.4 29.3 46.9 48.8 17.6 19.6 19.5 19.6L834 164.1l29.3 85.9q-2 3.9 -23.5 85.9t-44.9 171.9Q771.5 595.7 765.6 623q-13.6 56.7 -31.2 89.9 -19.6 31.2 -60.6 60.5Q627 806.6 570.3 845.7q-58.6 39.1 -76.2 48.8 -3.9 3.9 -9.7 7.8h-2q-21.5 17.6 -44.9 21.5 -23.4 -3.9 -44.9 -21.5l-11.7 -7.8q-17.6 -9.7 -74.3 -48.8Q248 806.6 201.2 773.4q-41 -29.3 -60.6 -60.5Q123 679.7 109.4 623 103.5 595.7 80.1 507.8 56.6 418 35.2 335.9T11.7 250L41 164.1 17.6 105.5q1.9 0 19.5 -19.6Q56.6 66.4 84 37.1q31.2 -23.4 70.3 -19.5t43 5.8l87.9 -99.6zm152.3 796.9q11.7 -3.9 25.4 -17.6l1.9 -1.9h2q9.8 -9.8 50.8 -41 39 -29.3 48.8 -37.2 11.7 -9.7 3.9 -17.5 -9.8 -3.9 -41 -21.5l-7.8 -3.9q-5.9 -2 -9.8 -5.9 -25.4 -11.7 -46.9 -19.5t-27.3 -7.8q-5.9 0 -27.3 7.8t-45 19.5l-7.8 3.9q-5.8 3.9 -11.7 5.9 -31.2 17.6 -39.1 21.5 -9.7 7.8 3.9 17.5 7.9 7.9 48.9 37.2 39 31.2 50.8 41l1.9 1.9q13.7 13.7 25.4 17.6zm0 -324.2q17.6 -2 48.8 -9.8h2l3.9 -1.9q19.5 -3.9 13.7 -25.4v-3.9L498 316.4t-9.7 -56.6l-2 -2v-3.9q-1.9 -15.6 -3.9 -21.5 -3.9 -19.5 2 -21.5V207q3.9 -1.9 17.6 -7.8 15.6 -3.9 33.2 -7.8 1.9 -1.9 3.9 -1.9 3.9 -2 7.8 -2 1.9 -2 5.8 -2 15.7 -3.9 41.1 -1.9 23.4 0 42.9 1.9l2 2h9.7q25.4 3.9 13.7 7.8 -3.9 2 -19.5 7.8Q625 209 607.4 216.8q-15.6 5.9 -25.4 9.8 -3.9 0 -9.7 1.9 -19.6 7.8 -35.2 15.6 -17.6 9.8 -21.5 23.5 0 25.4 23.5 58.6 0 1.9 1.9 3.9 3.9 5.8 5.9 11.7 9.7 17.6 11.7 23.4t0 11.8T543 394.5q-13.7 9.8 -27.4 17.6 -5.8 3.9 -7.8 3.9v2h-1.9q-2 1.9 -5.9 3.9 -13.7 7.8 -31.2 21.5 -17.6 11.7 -19.6 21.4 2 13.7 25.4 35.2t37.1 31.3q13.7 7.8 37.1 19.5 21.5 11.7 37.1 13.7 31.3 1.9 60.6 -45 11.7 -21.5 5.8 -41Q648.4 457 640.6 441.4l-1.9 -5.9q-5.9 -13.6 0 -25.3 5.8 -9.8 11.7 -15.7 1.9 -1.9 3.9 -1.9l84 -89.9 3.9 -3.9t1.9 -3.9h2q17.6 -11.7 19.5 -44.9 -1.9 -15.6 -29.3 -54.7T683.6 123Q656.3 87.9 654.3 85.9q-5.9 0 -48.8 9.8 -45 7.8 -58.6 7.8 -17.6 -1.9 -50.8 -13.7 -3.9 0 -5.9 -1.9 -5.8 -2 -9.7 -3.9 -41 -9.8 -43 -7.8 -2 -2 -43 7.8 -7.8 3.9 -15.6 5.8 -33.2 11.8 -50.8 13.7 -13.6 0 -58.6 -7.8 -42.9 -9.8 -48.8 -9.8 -1.9 2 -29.3 35.2 -25.4 35.2 -52.7 74.2T109.4 250q1.9 33.2 21.5 44.9 0 2 1.9 2 2 1.9 3.9 5.8l84 89.9q2 0 2 1.9h1.9q17.6 11.8 11.7 43l-1.9 3.9q-7.8 17.6 -11.7 37.1t5.8 41q29.3 46.9 60.6 46.9 15.6 -3.9 39 -15.6 21.5 -11.7 35.2 -19.5Q377 521.5 400.4 500t25.4 -33.2q0 -11.7 -19.5 -23.4Q388.7 429.7 375 421.9q-5.9 -3.9 -7.8 -3.9 0 -2 -2 -2 -1.9 -1.9 -5.8 -3.9Q347.7 404.3 332 394.5 318.4 384.8 316.4 377q-1.9 -5.9 0 -11.8t11.7 -23.4l7.8 -15.6h2q21.5 -33.2 21.5 -58.6 -3.9 -13.7 -21.5 -23.5 -15.6 -7.8 -35.2 -15.6h-3.9q-1.9 -1.9 -5.8 -1.9 -9.8 -3.9 -23.5 -9.8h-1.9q-3.9 -2 -9.8 -3.9 -35.1 -13.7 -44.9 -17.6 -11.7 -3.9 13.7 -7.8h9.7q17.6 -2 43 -3.9t43 1.9q3.9 2 5.8 2 3.9 2 7.8 2 17.6 3.9 35.2 9.7 15.6 5.9 19.5 7.8v3.9q5.9 2 2 21.5 -2 5.9 -3.9 21.5v3.9l-2 2q-3.9 27.3 -9.7 56.6l-7.9 39.1v5.8q-5.8 19.6 13.7 23.5l3.9 1.9h2q31.2 7.8 48.8 9.8z"/></svg>