<svg height="1000" width="875" xmlns="http://www.w3.org/2000/svg"><path d="M582 -76.2q9.8 0 15.7 7.8l74.2 86 1.9 -2q27.4 -3.9 54.7 -1.9 35.2 3.9 56.7 25.4 23.4 23.4 44.9 46.8l5.8 5.9 7.9 7.8q1.9 2 1.9 3.9 9.8 11.7 5.9 23.5L832 175.8l25.4 74.2q2 5.9 2 11.7l-2 3.9q0 3.9 -1.9 11.7t-5.9 15.7q-1.9 11.7 -5.8 25.4 -15.7 62.5 -31.3 123 -5.9 19.5 -9.8 37.1 -31.2 117.2 -37.1 140.6 -13.6 62.5 -33.2 95.7t-60.5 60.6q-41 29.3 -95.7 66.4 -54.7 39.1 -74.2 50.8l-5.9 5.8q-2 0 -5.9 2l-1.9 1.9q-13.7 9.8 -23.5 15.7 -13.6 5.8 -27.3 5.8T410.2 918q-9.8 -5.9 -23.5 -15.7 -1.9 0 -3.9 -1.9t-3.9 -2q-1.9 -3.9 -5.9 -3.9v-1.9q-19.5 -11.7 -74.2 -48.8l-95.7 -68.4q-41 -27.4 -60.5 -60.6t-33.2 -95.7Q103.5 595.7 72.3 476.6 68.4 459 62.5 441.4 46.9 380.9 31.3 318.4 25.4 294.9 19.5 277.3q-1.9 -7.8 -1.9 -11.7l-2 -3.9q0 -5.8 2 -11.7L43 175.8 23.4 127q-3.9 -11.8 3.9 -21.5 0 -2 2 -2 2 -1.9 2 -3.9l7.8 -7.8 5.8 -5.9Q66.4 62.5 89.8 39.1q21.5 -21.5 56.7 -25.4 27.3 -2 54.7 1.9v2h1.9l74.2 -86q5.9 -7.8 15.7 -7.8h289zm-9.7 41H302.7h269.6H302.7l-76.1 87.9q-9.8 9.8 -21.5 5.9h-2q-5.8 0 -9.7 -2 -21.5 -3.9 -43 -1.9t-31.3 13.7l-44.9 44.9q-3.9 5.8 -7.8 9.7L82 166q3.9 7.8 2 15.6l-27.4 76.2q2 2 2 5.9v1.9q1.9 7.8 5.9 17.6 1.9 11.7 5.8 23.4 15.6 64.5 31.3 125 7.8 31.3 15.6 56.7 25.4 99.6 31.2 121.1 13.7 56.6 29.3 84 15.7 25.4 48.9 48.8 39 29.3 93.7 66.4t74.2 48.8q0 2 2 2 1.9 1.9 5.8 3.9t7.9 5.8q9.7 7.9 17.5 9.8 5.9 3.9 9.8 3.9t9.8 -3.9q5.8 -1.9 17.5 -9.8 4 -3.9 7.9 -5.8 3.9 -3.9 7.8 -5.9 17.5 -11.7 72.2 -48.8t95.7 -66.4q33.2 -23.4 48.9 -50.8 15.6 -25.4 29.3 -82 7.8 -29.3 44.9 -177.8 15.6 -60.5 33.2 -125 5.8 -21.4 9.8 -41 1.9 -3.9 1.9 -5.8t2 -2L791 181.6q-1.9 -7.8 0 -15.6l17.6 -43 -9.8 -9.7Q779.3 91.8 755.9 68.4 746.1 56.6 724.6 54.7t-43 1.9q-5.8 0 -9.7 2h-2q-11.7 3.9 -21.5 -5.9l-76.1 -87.9zM437.5 541q5.9 0 25.4 7.8 21.5 7.8 43 19.6 7.8 3.9 13.6 7.8 33.2 15.6 43 21.5 7.8 9.7 -3.9 17.5 -9.8 5.9 -46.9 35.2t-46.9 39.1q-1.9 1.9 -3.9 1.9 -11.7 13.7 -23.4 15.6 -11.7 -1.9 -23.4 -15.6 -2 0 -3.9 -1.9 -9.8 -9.8 -46.9 -39.1t-46.9 -35.2q-9.8 -9.7 -3.9 -17.5 7.8 -3.9 29.3 -15.7l27.3 -13.6q21.5 -11.8 43 -19.6 19.5 -7.8 25.4 -7.8zm0 -451.2q3.9 -1.9 41 9.8 5.9 2 13.7 3.9 31.2 11.7 48.8 13.7 13.7 -2 54.7 -9.8 41 -5.8 44.9 -7.8 2 2 27.4 35.2 27.3 33.2 52.7 70.3t27.3 52.7q-1.9 31.3 -21.4 43 -2 3.9 -5.9 5.8 -9.8 11.8 -33.2 37.2 -15.6 15.6 -29.3 31.2l-17.6 17.6q0 1.9 -1.9 3.9 -17.6 9.8 -11.7 39 0 2 1.9 4 7.8 15.6 11.7 35.1t-5.8 39.1q-27.4 46.8 -56.7 44.9 -13.6 -2 -37.1 -13.7 -21.5 -11.7 -33.2 -19.5 -13.7 -7.8 -35.1 -29.3 -21.5 -19.5 -25.4 -33.2 1.9 -7.8 19.5 -21.5 15.6 -11.7 29.3 -19.5 5.9 -3.9 7.8 -5.9t7.8 -3.9q13.7 -7.8 25.4 -17.6 13.7 -9.7 15.6 -15.6 0 -5.9 -1.9 -11.7 0 -5.9 -9.8 -21.5l-7.8 -15.6q-21.5 -31.3 -21.5 -56.7 3.9 -13.6 19.6 -21.4t33.2 -15.7q5.8 0 9.7 -1.9 13.7 -5.9 31.3 -13.7 35.1 -11.7 44.9 -15.6 11.7 -5.9 -13.7 -7.8h-7.8q-17.6 -3.9 -41 -3.9 -25.4 -2 -41 1.9 -3.9 2 -9.8 2 -17.6 5.8 -35.1 9.7 -15.7 5.9 -19.6 9.8v2q-5.8 1.9 -1.9 21.4 1.9 7.8 5.8 29.3 3.9 25.4 9.8 52.8 3.9 25.4 5.9 35.1v5.9q5.8 17.6 -11.8 23.4h-3.9q-29.3 7.8 -48.8 9.8 -17.6 -2 -48.8 -9.8h-3.9Q367.2 380.9 373 363.3q0 -3.9 2 -5.9 0 -9.7 5.9 -35.1 3.9 -27.4 9.7 -52.8 3.9 -21.5 3.9 -29.3 3.9 -19.5 0 -21.4l-1.9 -2q-2 -3.9 -17.6 -7.8 -15.6 -5.9 -33.2 -9.8 -7.8 -1.9 -13.7 -3.9 -15.6 -3.9 -39 -1.9 -25.4 0 -43 3.9h-7.8q-23.5 1.9 -13.7 7.8l29.3 9.7q23.4 9.8 43 17.6 1.9 0 5.8 2 3.9 0 7.8 1.9 17.6 5.9 33.3 15.7 15.6 7.8 19.5 21.4 0 25.4 -19.5 56.7 -5.9 7.8 -9.8 15.6 -7.8 15.6 -9.8 21.5t-1.9 11.7q1.9 5.9 17.5 15.6 13.7 11.8 25.4 17.6 3.9 3.9 7.8 3.9 2 2 5.9 3.9 13.7 7.8 29.3 21.5 17.6 11.7 19.5 21.5 -1.9 13.7 -25.4 33.2 -21.4 21.5 -35.1 29.3 -11.7 7.8 -33.2 19.5t-35.2 13.7q-31.2 1.9 -58.6 -44.9 -9.7 -19.6 -5.8 -39.1 5.8 -19.5 13.6 -35.1v-4q7.9 -29.2 -11.7 -39 0 -2 -1.9 -3.9t-7.8 -9.8q-15.7 -15.6 -39.1 -41Q166 318.4 154.3 306.6l-5.9 -5.8q-17.5 -11.7 -19.5 -43 2 -15.6 27.4 -52.7T207 134.8t27.4 -35.2q5.8 2 46.9 7.8 41 7.8 54.6 9.8 15.7 -2 46.9 -13.7 7.8 -1.9 15.6 -5.8 37.1 -9.8 39.1 -7.9h2 -2z"/></svg>