<svg height="1000" width="750" xmlns="http://www.w3.org/2000/svg"><path d="M605.5 398.4q87.9 -39 80 -160.1 -7.8 -82 -70.3 -117.2Q554.7 85.9 462.9 78.1V-76.2h-95.7V74.2q-37.1 0 -74.2 2V-76.2h-95.7V78.1q-19.6 2 -48.9 2h-82Q41 78.1 7.8 78.1v101.6h15.6q48.9 -2 74.3 3.9 27.3 5.9 33.2 39.1v423.8q-3.9 23.4 -23.5 29.3 -19.5 3.9 -60.5 1.9H27.3L7.8 791H168q33.2 0 29.3 0v132.8H293V793h74.2v130.8h95.7V791Q582 787.1 656.3 744.1q72.2 -41 85.9 -150.3Q748 503.9 710.9 459 673.8 412.1 605.5 398.4zM294.9 187.5q7.8 0 17.6 -2 35.2 -1.9 82 2 46.9 3.9 82.1 23.4 37.1 21.5 39 70.4 -1.9 48.8 -39 68.3t-84 23.4q-48.8 4 -82.1 2h-15.6V187.5zm0 490.2v-207 207 -207h21.5q41 -1.9 95.7 2 56.7 3.9 97.7 25.3 42.9 23.5 44.9 76.2 -2 52.8 -46.9 76.2 -43 21.5 -97.6 25.4 -56.7 3.9 -97.7 1.9h-17.6z"/></svg>