<svg height="1000" width="875" xmlns="http://www.w3.org/2000/svg"><path d="M835.9 668L451.2 857.4 835.9 668 451.2 857.4q-13.7 7.8 -27.4 0L39.1 668q-11.8 -7.8 0 -15.7l91.8 -44.9q15.6 -5.8 29.3 0l263.6 130.9q13.7 5.8 27.4 0L714.8 607.4q13.7 -5.8 29.3 0l91.8 44.9q11.8 7.9 0 15.7zm0 -267.6l-91.8 -44.9 91.8 44.9 -91.8 -44.9q-15.6 -5.9 -29.3 0L451.2 486.3q-13.7 5.9 -27.4 0L160.2 355.5q-13.7 -5.9 -29.3 0l-91.8 44.9q-11.8 7.8 0 13.7l384.7 191.4q13.7 5.8 27.4 0L835.9 414.1q11.8 -5.9 0 -13.7zM39.1 177.7l384.7 177.8L39.1 177.7l384.7 177.8q13.7 3.9 27.4 0L835.9 177.7q11.8 -5.8 0 -11.7L451.2 -11.7q-13.7 -3.9 -27.4 0L39.1 166q-11.8 5.9 0 11.7z"/></svg>