<svg height="1000" width="875" xmlns="http://www.w3.org/2000/svg"><path d="M0 -13.7v250 -250 250h250v-250H0zm234.4 234.4H15.6h218.8H15.6V2h218.8v218.7zm78.1 -234.4v250 -250 250h250v-250h-250zm234.4 234.4H328.1h218.8H328.1V2h218.8v218.7zM625 -13.7v250 -250 250h250v-250H625zm234.4 234.4H640.6h218.8H640.6V2h218.8v218.7zM0 298.8v250 -250 250h250v-250H0zm234.4 234.4H15.6h218.8H15.6V314.5h218.8v218.7zm78.1 -234.4v250 -250 250h250v-250h-250zm234.4 234.4H328.1h218.8H328.1V314.5h218.8v218.7zM625 298.8v250 -250 250h250v-250H625zm234.4 234.4H640.6h218.8H640.6V314.5h218.8v218.7zM0 611.3v250 -250 250h250v-250H0zm234.4 234.4H15.6h218.8H15.6V627h218.8v218.7zm78.1 -234.4v250 -250 250h250v-250h-250zm234.4 234.4H328.1h218.8H328.1V627h218.8v218.7zM625 611.3v250 -250 250h250v-250H625z"/></svg>