<svg height="1000" width="1125" xmlns="http://www.w3.org/2000/svg"><path d="M562.5 -13.7q-152.3 2 -275.4 60.6 -125 56.6 -197.3 156.2Q17.6 300.8 15.6 423.8q2 123.1 74.2 220.7 72.3 99.6 197.3 156.3 123.1 58.6 275.4 60.5 152.3 -1.9 275.4 -60.5 125 -56.7 197.3 -156.3 72.2 -97.6 74.2 -220.7 -2 -123 -74.2 -220.7Q962.9 103.5 837.9 46.9 714.8 -11.7 562.5 -13.7zm-166 697.3L125 687.5l271.5 -3.9L125 687.5 275.4 119.1h261.7q91.8 0 127 39.1 35.1 37.1 25.4 103.5 -2 5.9 -4 13.7 -15.6 -3.9 -33.2 -3.9 -64.4 0 -105.4 43 -43 41 -44.9 103.5 1.9 56.6 35.1 95.7 35.2 39 87.9 50.8Q574.2 677.7 396.5 683.6zM699.2 328.1h62.5 -62.5 62.5l-42.9 175.8h-70.4L627 435.5l-15.7 68.4h-72.2l50.7 -175.8h62.5l29.3 72.3zm285.2 355.5H599.6h384.8H599.6l31.3 -119.1q9.7 1.9 21.4 1.9 64.5 -1.9 105.5 -43 43 -42.9 44.9 -105.4 -1.9 -48.9 -27.3 -86Q748 294.9 703.1 279.3l43 -160.2h179.7L822.3 519.5h203.1zM414.1 449.2h-48.9 48.9 -48.9l-27.3 111.3h48.8q23.5 0 44.9 -9.7 19.6 -9.8 29.3 -43 5.9 -31.2 -7.8 -44.9 -15.6 -13.7 -39 -13.7zm41 -193.3h-41 41 -41l-23.5 93.7h41q27.4 -1.9 48.9 -19.5Q502 314.5 509.8 291q3.9 -25.4 -9.8 -31.2t-39.1 -3.9h-5.8z"/></svg>