<svg height="1000" width="1000" xmlns="http://www.w3.org/2000/svg"><path d="M750 611.3q5.9 -5.8 54.7 -48.8 48.8 -44.9 97.6 -85.9 48.9 -43 52.8 -46.9L921.9 416q-15.6 -7.8 -15.6 -17.6 0 -7.8 5.8 -17.5 2 -7.9 11.7 -39.1t17.6 -60.5 9.8 -31.3q-5.9 2 -48.9 9.8 -44.9 9.7 -64.4 15.6 -19.5 1.9 -25.4 -15.6 -3.9 -9.8 -15.6 -35.2l-13.7 -27.3q-1.9 1.9 -25.4 29.3L707 285.2t-31.2 33.2q-15.6 9.7 -25.4 3.9 -11.7 -7.8 -7.8 -23.5 0 -13.6 13.7 -74.2t25.3 -117.2q13.7 -56.6 13.7 -62.5 -1.9 2 -31.2 19.6 -29.3 15.6 -46.9 25.3Q597.7 107.4 584 80.1q-7.8 -9.8 -27.4 -46.9t-37.1 -72.3T500 -76.2q-2 2 -19.5 37.1t-37.1 72.3T416 80.1q-11.7 27.3 -33.2 9.7Q365.2 80.1 335.9 64.5 306.6 46.9 304.7 44.9q0 5.9 13.7 62.5t25.4 117.2q13.6 60.6 13.6 74.2 3.9 15.7 -7.8 23.5 -9.8 5.8 -25.4 -3.9 -3.9 -3.9 -31.2 -33.2 -25.4 -29.3 -48.9 -56.7 -25.3 -29.3 -27.3 -31.2 -2 1.9 -13.7 27.3t-15.6 35.2q-5.9 17.5 -25.4 15.6 -19.5 -5.9 -64.4 -15.6Q54.7 252 48.8 250q2 2 9.8 31.3 7.8 27.3 17.6 58.5t13.6 41.1q11.8 19.5 -9.7 35.1l-35.2 13.7q3.9 3.9 52.8 46.9 48.8 41 97.6 85.9 48.8 43 54.7 48.8 2 0 3.9 2 5.9 5.8 9.8 13.7 1.9 7.8 -3.9 27.3 -7.8 23.4 -13.7 44.9l-5.9 23.5q3.9 0 48.9 -9.8 46.8 -9.8 95.7 -19.5 48.8 -11.8 62.5 -13.7 29.3 -3.9 35.1 23.4 0 13.7 -3.9 66.4 -1.9 50.8 -3.9 99.6 -3.9 50.8 -3.9 54.7h58.6q0 -3.9 -3.9 -52.7 -2 -48.8 -3.9 -101.6 -3.9 -52.7 -3.9 -66.4 5.8 -27.3 37.1 -23.4 11.7 1.9 60.5 13.7 48.9 9.7 93.8 19.5t50.8 9.8l-5.9 -23.5Q748 677.7 740.2 654.3q-5.8 -19.5 -3.9 -27.3 3.9 -7.9 9.8 -13.7 1.9 -2 3.9 -2z"/></svg>