<svg height="1000" width="1125" xmlns="http://www.w3.org/2000/svg"><path d="M244.1 318.4V179.7q0 -3.9 2 -3.9 33.2 -25.4 74.2 -23.5 39.1 2 54.7 43 9.8 27.4 9.8 54.7 0 25.4 -7.8 48.8 -17.6 50.8 -70.4 46.9 -33.2 -1.9 -60.5 -21.5 -2 -1.9 -2 -5.8zm302.8 27.3q13.6 5.9 27.3 3.9 33.2 -3.9 60.6 -25.4 1.9 0 1.9 -3.9V273.4q0 -3.9 -3.9 -3.9 -7.8 -1.9 -15.6 -1.9l-23.4 -3.9q-21.5 -2 -41.1 3.9 -21.4 5.8 -27.3 25.4 -3.9 15.6 0 31.2 5.9 15.6 21.5 21.5zM1125 80.1v687.5V80.1v687.5q-2 39 -27.3 66.4 -27.4 25.4 -66.4 27.3H93.8Q54.7 859.4 27.3 834 2 806.6 0 767.6V80.1Q2 41 27.3 13.7q27.4 -25.4 66.5 -27.4h937.5q39 2 66.4 27.4Q1123 41 1125 80.1zM720.7 127q0 3.9 2 9.7 17.5 43 35.1 87.9 31.3 74.2 62.5 150.4 3.9 9.8 0 19.5l-7.8 15.7q-3.9 11.7 -7.8 21.4 -7.8 15.7 -25.4 21.5 -11.7 2 -25.4 2 -1.9 -2 -3.9 -2h-7.8q-7.8 -1.9 -7.8 7.8v15.7q0 13.6 11.7 15.6 13.7 1.9 27.3 1.9 43 2 64.5 -35.1 9.8 -13.7 15.6 -29.3 48.8 -123.1 95.7 -244.2 9.8 -25.3 19.6 -48.8 1.9 -5.8 3.9 -9.7 0 -7.9 -7.9 -7.9h-31.2q-9.8 0 -13.7 9.8v2q-1.9 1.9 -1.9 3.9l-56.7 164q-5.8 17.6 -13.6 35.2v-3.9q-17.6 -44.9 -33.2 -91.8l-31.3 -82q-3.9 -15.7 -9.8 -29.3 -1.9 -7.9 -9.7 -7.9h-39.1q-5.8 0 -3.9 7.9zm-248 199.2q5.8 35.1 35.1 52.7 29.3 13.7 62.5 7.8 37.1 -5.8 66.4 -29.3 0 -1.9 2 -1.9 0 1.9 1.9 3.9 0 7.8 2 13.6 1.9 7.9 7.8 7.9h27.3q7.8 0 7.8 -7.9V195.3q0 -9.8 -1.9 -19.5 -2 -33.2 -29.3 -50.8 -17.6 -9.8 -37.1 -11.7h-7.8q-5.9 -2 -9.8 -2h-23.4q-25.4 2 -48.9 7.8 -9.7 2 -21.4 5.9l-7.9 3.9q-7.8 2 -7.8 11.7v17.6q0 11.7 11.8 7.8 1.9 -1.9 3.9 -1.9l35.1 -7.8q29.3 -5.9 60.6 -2 15.6 0 27.3 13.7 7.8 11.7 7.8 25.4v42.9h-1.9q-25.4 -5.8 -52.8 -7.8t-54.7 5.9q-31.2 11.7 -46.8 41 -11.7 25.4 -7.8 50.8zM193.4 132.8v341.8V132.8v347.7q0 7.8 7.8 7.8h35.1q5.9 0 7.8 -7.8V357.4q2 0 2 2h1.9q43 37.1 99.7 25.4Q396.5 373 418 328.1q17.5 -35.1 17.5 -72.2 4 -43 -13.6 -82.1Q402.3 125 351.6 113.3q-5.9 0 -11.8 -2h-21.4t-3.9 2q-35.2 3.9 -62.5 23.4l-5.9 5.9q-3.9 1.9 -5.9 3.9v-2q0 -3.9 -1.9 -7.8v-5.8q-2 -11.8 -13.7 -11.8H207q-15.6 -1.9 -13.6 13.7zm771.4 453.1q-7.8 -1.9 -15.6 2 -128.9 54.7 -267.6 70.3 -42.9 3.9 -83.9 5.9 -78.2 1.9 -156.3 -7.8 -52.7 -7.9 -103.5 -19.6 -109.4 -25.4 -209 -76.2L93.8 541l-15.7 -7.8q-9.7 -5.9 -15.6 3.9v3.9q0 2 2 2 1.9 3.9 5.8 7.8 105.5 93.7 238.3 142.6 62.5 21.4 130.9 33.2 41 5.8 82 9.7H582q43 -1.9 87.9 -7.8 62.5 -9.7 123.1 -29.3 85.9 -27.3 162.1 -78.1 9.7 -5.9 15.6 -11.7 11.7 -15.6 -5.9 -23.5zm97.7 -54.6q-3.9 -9.8 -15.6 -13.7 -15.6 -3.9 -33.2 -5.9 -33.2 -1.9 -64.5 3.9 -35.1 5.9 -64.4 25.4 -3.9 2 -7.8 5.9v5.8q1.9 3.9 5.8 3.9h3.9l37.1 -5.8q29.3 -2 56.7 0 11.7 0 23.4 3.9t11.7 17.6q0 17.5 -3.9 37.1 -11.7 37.1 -27.3 74.2 0 1.9 -2 3.9 0 7.8 7.8 7.8l7.8 -3.9q0 -1.9 2 -1.9 9.8 -9.8 17.6 -19.6 31.2 -41 41 -91.8 1.9 -7.8 3.9 -17.6v-29.2z"/></svg>