<svg height="1000" width="1125" xmlns="http://www.w3.org/2000/svg"><path d="M589.8 349.6q0 52.7 -56.6 54.7h-46.9V296.9h46.9q56.6 1.9 56.6 52.7zm93.8 123.1q0 25.3 35.2 27.3 46.8 -3.9 48.8 -43v-15.6l-44.9 3.9q-39.1 2 -39.1 27.4zM1125 78.1v687.5V78.1v687.5q-2 39.1 -27.3 66.4 -27.4 25.4 -66.4 27.4H93.8Q54.7 857.4 27.3 832 2 804.7 0 765.6V78.1q2 -39 27.3 -66.4 27.4 -25.4 66.5 -27.3h937.5q39 1.9 66.4 27.3 25.3 27.4 27.3 66.4zM250 308.6q25.4 0 43 -19.5 15.6 -19.6 15.6 -46.9 -25.4 1.9 -43 21.5T250 308.6zm117.2 146.5q-5.9 -2 -19.5 -15.6 -15.7 -13.7 -17.6 -43 0 -27.4 13.7 -41 11.7 -11.7 15.6 -13.7h1.9Q347.7 322.3 332 316.4q-17.5 -3.9 -25.4 -3.9 -21.4 0 -37.1 7.8 -9.7 3.9 -17.5 5.9 -7.9 -2 -17.6 -5.9 -13.7 -5.8 -29.3 -7.8 -39.1 2 -60.6 37.1 -17.5 35.2 -9.7 76.2t29.3 68.3q17.5 33.2 44.9 37.2 11.7 -2 21.5 -5.9 9.7 -5.9 25.4 -5.9 17.5 0 25.4 5.9 9.7 5.9 23.4 5.9 27.3 -5.9 43 -35.2 19.5 -33.2 19.5 -41zM632.8 349.6q-1.9 -39.1 -25.4 -62.5Q584 263.7 544.9 263.7h-99.6v265.6h41v-91.8H543q41 0 64.4 -23.4t25.4 -64.5zm175.8 46.9Q804.7 335.9 730.5 334q-33.2 0 -54.7 15.6 -21.5 17.6 -23.5 43h37.2q5.8 -25.4 39 -27.4 39.1 0 39.1 33.2v15.7l-50.8 3.9q-72.3 3.9 -74.2 56.6 3.9 54.7 66.4 56.7 41 -2 60.5 -33.3v31.3h39.1V396.5zm199.2 -60.6h-41 41 -41L918 494.1h-2L867.2 335.9h-43l70.3 193.4 -3.9 11.7q-7.8 29.3 -35.1 27.4h-11.7v33.2h15.6q56.6 3.9 76.1 -62.5l72.3 -203.2z"/></svg>