<svg height="1000" width="1125" xmlns="http://www.w3.org/2000/svg"><path d="M0 767.6q2 39 27.3 66.4 27.4 25.4 66.5 27.3h937.5q39 -1.9 66.4 -27.3 25.3 -27.4 27.3 -66.4v-2h-121.1l-62.5 -68.3 -60.5 68.3H482.4V445.3H353.5L513.7 84H666l54.7 125V84h191.4l33.2 93.7L978.5 84H1125v-3.9Q1123 41 1097.7 13.7q-27.4 -25.4 -66.4 -27.4H93.8q-39.1 2 -66.5 27.4Q2 41 0 80.1v687.5zm859.4 -43l84 -89.8 -84 89.8 84 -89.8 82 89.8h99.6L992.2 584 1125 443.4h-99.6l-82 91.8 -80.1 -91.8h-99.6l130.8 142.5L763.7 724.6v-64.4H601.6v-43h158.2v-62.5H601.6v-44.9h162.1v-64.5H525.4v279.3h334zM1048.8 584l76.2 82 -76.2 -82 76.2 82V503.9l-76.2 80.1zM976.6 404.3L1048.8 209l-72.2 195.3L1048.8 209v195.3h76.2V125h-117.2l-62.5 173.8L882.8 125H763.7v279.3L638.7 125h-99.6L418 404.3h84l23.4 -54.7h128.9l23.4 54.7h160.2V209l72.3 195.3h66.4zM550.8 285.2l39 -89.9 -39 89.9 39 -89.9 37.2 89.9h-76.2z"/></svg>