<svg height="1000" width="1125" xmlns="http://www.w3.org/2000/svg"><path d="M468.8 80.1Q322.3 84 224.6 179.7 128.9 277.3 125 423.8q3.9 144.6 99.6 242.2 97.7 97.7 244.2 101.6Q613.3 763.7 710.9 666T812.5 423.8Q808.6 277.3 710.9 179.7 613.3 84 468.8 80.1zM390.6 627Q328.1 601.6 289.1 546.9 252 494.1 250 423.8q2 -70.3 39.1 -125 39 -54.7 101.5 -78.1V627zm156.3 0V220.7 627 220.7q60.5 23.4 99.6 78.1 37.1 54.7 39 125 -1.9 70.3 -39 123.1 -39.1 54.7 -99.6 80.1zm484.4 -640.7H93.8h937.5H93.8q-39.1 2 -66.5 27.4Q2 41 0 80.1v687.5q2 39 27.3 66.4 27.4 25.4 66.5 27.3h937.5q39 -1.9 66.4 -27.3 25.3 -27.4 27.3 -66.4V80.1Q1123 41 1097.7 13.7q-27.4 -25.4 -66.4 -27.4zM644.5 798.8H466.8h177.7H466.8Q308.6 794.9 201.2 689.5T89.8 427.7q4 -171.8 111.4 -273.4Q308.6 50.8 466.8 48.8h177.7q158.2 2 271.5 105.5 115.3 101.6 119.2 273.4 0 103.6 -54.7 187.5T835.9 748Q748 796.9 644.5 798.8z"/></svg>