<svg height="1000" width="1125" xmlns="http://www.w3.org/2000/svg"><path d="M1015.6 306.6q0 -23.4 -29.3 -23.4h-9.7V332h9.7q29.3 0 29.3 -25.4zm15.7 -320.3H93.8h937.5H93.8q-39.1 2 -66.5 27.4Q2 41 0 80.1v687.5q2 39 27.3 66.4 27.4 25.4 66.5 27.3h937.5q39 -1.9 66.4 -27.3 25.3 -27.4 27.3 -66.4V80.1Q1123 41 1097.7 13.7q-27.4 -25.4 -66.4 -27.4zm-86 271.5h15.6q31.3 -1.9 58.6 3.9 27.4 7.8 29.3 43 0 37.1 -37.1 44.9l50.8 68.4h-39.1l-42.9 -64.5h-3.9V418h-31.3V257.8zm-109.4 0h87.9 -87.9 87.9v27.4h-56.6v35.1h54.7v27.4h-54.7v42.9h56.6V418h-87.9V257.8zm-134.7 0l42.9 107.4L701.2 257.8l42.9 107.4 43 -107.4h35.2L752 421.9h-15.7L668 257.8h33.2zM591.8 252q37.1 0 62.5 25.3 25.4 25.4 25.4 62.5t-25.4 60.6q-25.4 25.4 -62.5 25.4t-60.5 -25.4Q505.9 377 505.9 339.8t25.4 -62.5Q554.7 252 591.8 252zm-95.7 11.7v37.1 -37.1 37.1q-31.3 -27.4 -60.6 -13.7t-31.2 50.8q2 39.1 31.2 50.8 31.3 13.6 60.6 -13.7v37.1q-44.9 19.5 -84 -1.9Q375 386.7 373 337.9q2 -46.9 39.1 -70.3t84 -3.9zM306.6 392.6q19.6 0 23.5 -15.6 5.8 -17.6 -29.3 -31.3 -43 -13.7 -41 -44.9 3.9 -33.2 35.1 -43t62.5 15.6l-15.6 21.5q-17.6 -15.6 -33.2 -13.6Q293 285.2 293 298.8q-2 11.7 23.4 21.5 50.8 15.6 46.9 48.8 -3.9 45 -43 52.8T252 392.6L271.5 373q11.7 19.6 35.1 19.6zM107.4 418H62.5h44.9H62.5V257.8h44.9q39.1 0 62.5 23.5 23.5 21.4 25.4 56.6 0 29.3 -21.5 52.7Q152.3 416 107.4 418zm132.8 0H209h31.2H209V257.8h31.2V418zm822.3 351.5q-2 27.4 -29.3 29.3H250Q437.5 761.7 611.3 695.3q171.9 -64.4 293 -125 123 -60.5 158.2 -84v283.2zm-918 -470.7q-13.6 -13.6 -42.9 -13.6h-7.8v105.4h7.8q29.3 0 42.9 -11.7 17.6 -17.6 17.6 -41t-17.6 -39.1z"/></svg>