<svg height="1000" width="1125" xmlns="http://www.w3.org/2000/svg"><path d="M843.8 400.4v-62.5 62.5 -62.5h66.4t7.8 0q23.4 5.9 25.4 31.2 -2 27.4 -25.4 31.3h-74.2zm82 41q-2 -1.9 -7.8 -1.9h-74.2v68.3h82q25.4 -5.8 27.3 -33.2 -1.9 -27.3 -27.3 -33.2zM1125 80.1v687.5V80.1v687.5q-2 39 -27.3 66.4 -27.4 25.4 -66.4 27.3H93.8Q54.7 859.4 27.3 834 2 806.6 0 767.6V80.1Q2 41 27.3 13.7q27.4 -25.4 66.5 -27.4h937.5q39 2 66.4 27.4Q1123 41 1125 80.1zM355.5 298.8H244.1h111.4H244.1q0 33.2 2 62.5 3.9 72.3 -7.8 111.4 -9.8 41 -64.5 41 -56.6 -2 -111.3 -29.3v54.7q46.9 11.7 87.9 13.6 43 3.9 44.9 3.9 119.2 -1.9 144.5 -52.7 23.5 -48.8 17.6 -144.5 -1.9 -27.4 -1.9 -60.6zm349.6 9.8Q640.6 291 566.4 293q-74.2 0 -128.9 29.3 -52.7 31.2 -54.7 101.5 2 74.2 58.6 103.5 54.7 29.3 128.9 27.4 76.2 0 134.8 -15.6v-54.7q-74.2 37.1 -140.6 27.3Q498 500 494.1 423.8q3.9 -76.1 70.4 -87.9 64.4 -9.7 140.6 27.4v-54.7zm357.4 175.8q-5.9 -56.7 -74.2 -62.5v-2q58.6 -11.7 58.6 -58.6 -3.9 -56.6 -72.3 -60.5 3.9 -2 -5.8 -2H740.2v250h240.3q35.1 0 58.6 -17.5t23.4 -46.9z"/></svg>