<svg height="1000" width="1125" xmlns="http://www.w3.org/2000/svg"><path d="M943.4 724.6q-2 21.5 -21.5 23.4 -21.5 -1.9 -23.5 -23.4 2 -19.5 23.5 -21.5 19.5 2 21.5 21.5zM335.9 703.1q-21.4 2 -21.4 21.5 0 21.5 21.4 23.4 19.6 -1.9 21.5 -23.4 -1.9 -19.5 -21.5 -21.5zm230.5 -1.9q-17.6 1.9 -19.5 17.6H584q-2 -17.6 -17.6 -17.6zm209 1.9q-19.5 2 -19.5 21.5 0 21.5 19.5 23.4 21.5 -1.9 23.4 -23.4 -1.9 -19.5 -23.4 -21.5zm207 50.8q2 0 2 2h-2v3.9h-1.9q-2 1.9 -2 0 -1.9 1.9 -1.9 0h-2l-1.9 -2v-3.9q0 -1.9 1.9 -1.9v-2h5.9q1.9 0 1.9 2v1.9zm-3.9 2h2V752h-5.9v5.8h2v-1.9l1.9 1.9h2l-2 -1.9zM1125 82v687.5V82v687.5q-2 39.1 -27.3 66.4 -27.4 25.4 -66.4 27.4H93.8q-39.1 -2 -66.5 -27.4Q2 808.6 0 769.5V82Q2 43 27.3 15.6 54.7 -9.8 93.8 -11.7h937.5q39 1.9 66.4 27.3Q1123 43 1125 82zM125 355.5q2 113.3 80.1 191.4Q281.3 623 396.5 625q80.1 0 148.4 -44.9Q437.5 486.3 439.5 355.5q0 -132.8 105.4 -224.6Q476.6 85.9 396.5 84q-115.2 3.9 -191.4 80.1Q127 240.2 125 355.5zm437.5 210.9Q666 480.5 666 355.5T562.5 142.6Q459 230.5 459 355.5t103.5 210.9zM285.2 716.8q-2 -27.3 -29.3 -29.3 -13.7 -2 -25.4 13.7Q224.6 687.5 207 687.5q-11.7 0 -21.5 9.8v-7.8h-15.6v72.2h15.6v-17.6q-5.8 -41 17.6 -41 21.5 0 17.6 41v17.6h15.6q-1.9 -9.7 -1.9 -17.6 -5.9 -41 19.5 -41 19.5 -1.9 15.6 41v17.6h15.7v-44.9zM373 689.5h-15.6H373h-15.6v7.8q-7.8 -9.8 -23.4 -9.8 -33.2 2 -35.2 37.1 2 35.2 35.2 39.1 15.6 0 23.4 -11.7v9.7H373v-72.2zm78.2 50.7q-3.9 -23.4 -29.3 -23.4 -13.7 0 -15.6 -7.8 1.9 -7.8 13.6 -7.8t23.5 5.8l5.8 -11.7q-15.6 -9.8 -37.1 -7.8 -19.5 3.9 -21.5 23.4 3.9 21.5 27.4 21.5 15.6 0 17.5 7.8 -1.9 9.8 -15.6 9.8t-25.4 -7.8l-5.8 11.7q17.6 11.7 39 7.8 21.5 -1.9 23.5 -21.5zm70.3 17.6l-5.9 -13.7 5.9 13.7 -5.9 -13.7Q509.8 748 502 748t-9.8 -11.7v-33.2h25.4v-13.6h-25.4V668h-15.6v21.5h-15.7v13.6h15.7v33.2q1.9 25.4 17.5 25.4 17.6 2 25.4 -3.9h2zm25.4 -25.4h52.7 -52.7 52.7q-1.9 -46.9 -33.2 -44.9 -33.2 2 -35.1 37.1 1.9 29.3 23.4 37.1 23.4 5.9 41 -9.7l-5.9 -11.8q-13.6 9.8 -25.3 7.8 -13.7 -1.9 -17.6 -15.6zm115.2 -42.9q-15.6 -7.9 -29.3 7.8v-7.8h-17.6v72.2h17.6v-41q0 -15.6 9.8 -17.6t13.7 2l5.8 -15.6zm21.5 35.1q0 -15.6 11.7 -21.5 13.7 -3.9 27.4 5.9l7.8 -13.7q-19.6 -11.7 -41 -5.8Q668 697.3 666 724.6q2 29.3 25.4 37.1 21.5 5.9 39.1 -7.8l-7.8 -11.7q-13.7 9.8 -27.4 3.9 -11.7 -3.9 -11.7 -21.5zm128.9 -35.1h-15.6 15.6 -15.6v7.8q-13.7 -15.7 -35.2 -7.8t-23.4 35.1q1.9 29.3 23.4 37.1 21.5 5.9 35.2 -9.7v9.7h15.6v-72.2zm66.4 0q-3.9 -2 -13.7 -2 -9.7 0 -15.6 9.8v-7.8H834v72.2h15.6v-41q0 -15.6 9.8 -17.6 7.8 -1.9 15.6 2l3.9 -15.6zM957 660.2h-15.6H957h-15.6v37.1q-13.7 -15.7 -35.1 -7.8 -19.6 7.8 -23.5 35.1 3.9 29.3 25.4 37.1 21.5 5.9 33.2 -9.7v9.7H957V660.2zm15.7 -146.5v9.7 -9.7 9.7h1.9v-9.7h3.9v-2h-9.7v2h3.9zm11.7 242.2V752l-2 -2q-1.9 0 -1.9 -2h-5.9q0 2 -1.9 2l-2 2v5.8t2 2q0 1.9 1.9 1.9H982.4v-1.9h2v-3.9zm7.8 -244.2h-3.9 3.9 -3.9l-2 7.8 -3.9 -7.8h-1.9v9.8 -7.8l3.9 7.8h1.9l3.9 -7.8v7.8h2v-9.8zm7.8 -156.2Q998 240.2 919.9 164.1 843.8 87.9 730.5 84q-82.1 1.9 -150.4 44.9 70.3 60.6 93.7 142.6 25.4 84 2 166t-95.7 142.6Q648.4 625 730.5 625q113.3 -2 189.4 -78.1Q998 468.8 1000 355.5z"/></svg>