<svg height="1000" width="1125" xmlns="http://www.w3.org/2000/svg"><path d="M960.9 355.5q-31.2 -2 -35.1 44.9h70.3q-3.9 -46.9 -35.2 -44.9zm-228.5 3.9Q709 361.3 699.2 373v103.6q9.8 11.7 33.2 13.6 41 -3.9 43 -64.4 -2 -60.6 -43 -66.4zm298.9 -373.1H93.8h937.5H93.8q-39.1 2 -66.5 27.4Q2 41 0 80.1v687.5q2 39 27.3 66.4 27.4 25.4 66.5 27.3h937.5q39 -1.9 66.4 -27.3 25.3 -27.4 27.3 -66.4V80.1Q1123 41 1097.7 13.7q-27.4 -25.4 -66.4 -27.4zm-793 486.4q-5.9 76.1 -97.7 78.1 -35.1 1.9 -76.1 -15.6v-66.4q39 21.4 76.1 23.4 25.4 0 27.4 -17.6Q164.1 457 130.9 449.2q-23.5 -7.8 -45 -23.4T62.5 377q3.9 -76.2 93.8 -78.2 35.1 0 68.3 11.7V377q-33.2 -17.6 -68.3 -17.6 -23.5 -2 -23.5 13.6 2 17.6 35.2 23.5 23.4 7.8 46.8 23.4 21.5 15.6 23.5 52.8zM373 363.3h-52.7H373h-52.7v97.6q2 29.3 23.5 29.3 19.5 0 29.2 -3.9V543q-13.6 7.8 -48.8 7.8 -31.2 0 -50.8 -19.5T252 480.5V257.8l68.3 -15.6v60.5H373v60.6zm144.6 3.9q-7.8 -3.9 -23.5 -2 -15.6 0 -29.3 15.7v166h-70.3V302.7h60.6l3.9 21.5q13.7 -21.5 31.2 -23.4 19.6 -2 27.4 1.9v64.5zm85.9 179.7h-70.3 70.3 -70.3V302.7h70.3v244.2zm0 -279.3l-70.3 13.7 70.3 -13.7 -70.3 13.7v-54.7l70.3 -15.7v56.7zM748 550.8q-35.1 -2 -48.8 -17.6v80.1L630.9 627V302.7h60.5l3.9 17.6Q709 302.7 748 298.8q39.1 0 66.5 31.3 27.3 33.2 29.3 93.7 -2 64.5 -29.3 95.7T748 550.8zm314.5 -99.6H925.8h136.7H925.8q9.7 44.9 54.7 41 39 0 68.3 -15.6v56.6q-29.3 17.6 -78.1 17.6 -50.8 0 -82 -31.3t-33.2 -93.7q1.9 -54.7 29.3 -89.9 27.3 -37.1 78.1 -37.1 48.8 0 74.2 37.1 25.4 35.2 25.4 89.9v25.4z"/></svg>