<svg height="1000" width="1125" xmlns="http://www.w3.org/2000/svg"><path d="M918 375q1.9 3.9 7.8 39.1 7.8 33.2 9.7 48.8h-64.4q5.9 -15.6 17.6 -48.8 11.7 -31.3 13.6 -35.2l4 -9.8t5.8 -19.5L918 375zM1125 80.1v687.5V80.1v687.5q-2 39 -27.3 66.4 -27.4 25.4 -66.4 27.3H93.8Q54.7 859.4 27.3 834 2 806.6 0 767.6V80.1Q2 41 27.3 13.7q27.4 -25.4 66.5 -27.4h937.5q39 2 66.4 27.4Q1123 41 1125 80.1zM298.8 570.3L421.9 267.6 298.8 570.3 421.9 267.6h-84l-76.2 207 -7.8 -41L226.6 293q-9.8 -27.4 -37.1 -25.4h-125l-2 5.8q46.9 11.8 82 33.2l70.3 263.7h84zm183.6 0l48.9 -302.7 -48.9 302.7 48.9 -302.7h-78.2l-48.8 302.7h78.1zm273.5 -97.6q0 -50.8 -66.4 -84 -43 -17.6 -45 -37.1 0 -23.5 45 -25.4 39 0 58.5 11.7l7.9 1.9 9.7 -64.4q-23.4 -11.7 -70.3 -13.7 -58.6 0 -93.7 27.4 -37.1 27.3 -37.1 74.2 0 31.2 21.4 50.8 23.5 19.5 46.9 31.2 43 19.5 41 37.1 -1.9 15.6 -15.6 23.5 -13.7 5.8 -31.2 5.8 -41.1 0 -74.3 -15.6l-9.7 -5.9 -11.7 68.4q31.2 15.6 87.8 17.6 62.5 -2 99.7 -29.3 35.1 -27.4 37.1 -74.2zm275.4 97.6L968.8 267.6l62.5 302.7L968.8 267.6h-60.6q-29.3 -2 -41 25.4L750 570.3h82q0 -1.9 7.8 -19.5 5.9 -17.6 7.9 -25.4h101.5q2 9.8 5.9 27.3 3.9 15.7 3.9 17.6h72.3z"/></svg>