<svg height="1000" width="1000" xmlns="http://www.w3.org/2000/svg"><path d="M642.6 449.2q-5.9 52.8 -44.9 84 -39.1 31.3 -91.8 25.4t-84 -44.9 -27.4 -91.8q5.9 -52.8 45 -84t91.8 -27.4q52.7 7.9 83.9 46.9 31.3 37.1 27.4 91.8zm-168 459Q330.1 898.4 222.7 820.3 113.3 744.1 58.6 623 3.9 502 19.5 361.3 37.1 234.4 109.4 136.7T291 -13.7q162.1 -72.2 318.4 -35.1 156.2 39 259.7 160.1 105.5 121.1 115.3 298.9 1.9 144.5 -66.4 259.7T732.4 849.6t-257.8 58.6zM826.2 556.6Q847.7 439.5 763.7 347.7q-84 -93.8 -201.2 -156.3Q443.4 127 363.3 99.6q-84 84 -101.6 261.7 -15.6 177.8 35.2 410.2Q400.4 793 537.1 736.3 675.8 679.7 826.2 556.6z"/></svg>