<svg height="1000" width="875" xmlns="http://www.w3.org/2000/svg"><path d="M566.4 115.2l60.6 60.6 -60.6 -60.6 60.6 60.6L478.5 326.2v-211h87.9zM248 175.8l150.4 150.4L248 175.8l150.4 150.4v-211h-87.9zm82.1 -80.1H416h-85.9H416v250l21.5 19.5L459 345.7v-250h87.9L437.5 -13.7zm50.8 328.1l-21.5 -21.5 21.5 21.5 -21.5 -21.5h-250v-87.8L0 423.8l109.4 107.5v-86h250l21.5 -21.5zm154.3 -41h210.9H535.2h210.9v-87.9l-60.6 -60.5zm339.8 41L765.6 314.5 875 423.8 765.6 314.5v87.8h-250l-21.5 21.5 21.5 21.5h250v86L875 423.8zM127 267.6L191.4 207 127 267.6 191.4 207l175.8 175.8h31.2v-29.3L220.7 175.8l62.5 -60.6H127v152.4zM746.1 115.2H593.8h152.3H593.8l60.5 60.6L478.5 353.5v29.3h29.3L685.5 207l60.6 60.6V115.2zM398.4 732.4V521.5v210.9V521.5L248 669.9l62.5 62.5h87.9zM127 382.8h212.8H127h212.8L191.4 234.4 127 294.9v87.9zm619.1 195.3l-60.6 62.5 60.6 -62.5 -60.6 62.5L507.8 462.9h-29.3v31.2l175.8 175.8 -60.5 62.5h152.3V578.1zm0 -115.2H535.2h210.9H535.2l150.3 150.4 60.6 -62.5v-87.9zM627 669.9L478.5 521.5 627 669.9 478.5 521.5v210.9h87.9zM191.4 613.3L339.8 462.9 191.4 613.3 339.8 462.9H127v87.9zM546.9 752H459h87.9H459V502l-21.5 -21.5L416 502v250h-85.9l107.4 107.4zM220.7 669.9L398.4 494.1 220.7 669.9 398.4 494.1v-31.2h-31.2L191.4 640.6 127 578.1v154.3h156.2z"/></svg>