<svg height="1000" width="1000" xmlns="http://www.w3.org/2000/svg"><path d="M0 423.8Q2 285.2 66.4 171.9l214.9 373q33.2 58.6 89.8 93.8T500 673.8q41 0 80.1 -13.6L431.6 919.9Q244.1 890.6 125 753.9 3.9 617.2 0 423.8zm712.9 128.9Q750 494.1 750 423.8 746.1 308.6 666 236.3h296.9q37.1 87.9 37.1 187.5 -2 138.7 -68.4 252T752 855.5q-111.4 66.4 -252 68.3L712.9 552.7zM933.6 173.8H500h433.6H500q-93.7 2 -160.2 56.7Q273.4 287.1 255.9 375L105.5 115.2Q175.8 27.3 277.3 -23.4T500 -76.2q140.6 2 253.9 68.4 113.3 68.3 179.7 181.6zm-605.5 250q2 -72.2 50.8 -121.1Q427.7 253.9 500 252q72.3 1.9 121.1 50.7t50.8 121.1q-2 72.3 -50.8 121.1T500 595.7q-72.3 -1.9 -121.1 -50.8T328.1 423.8z"/></svg>