<svg height="1000" width="1000" xmlns="http://www.w3.org/2000/svg"><path d="M875 48.8H125h750H125q-35.2 0 -58.6 25.4Q43 97.7 41 132.8v125h84v-125h750v582H584v84h291q35.2 0 58.6 -23.4Q957 750 959 714.8v-582Q957 97.7 933.6 74.2 910.2 48.8 875 48.8zm-834 625v125h125q0 -54.7 -37.1 -89.8Q93.8 673.8 41 673.8zm0 -166v82 -82 82q89.9 2 148.5 60.6Q248 710.9 250 798.8h84q-3.9 -123 -86 -207 -82 -82 -207 -84zm375 291h84 -84 84Q498 671.9 437.5 568.4 375 464.8 273.4 404.3 169.9 341.8 41 339.8v84q160.2 3.9 265.6 109.4T416 798.8z"/></svg>