<svg height="1000" width="1203.1" xmlns="http://www.w3.org/2000/svg"><path d="M291 517.6q13.7 101.5 89.9 162.1 78.1 60.5 195.3 54.7 78.1 64.4 181.6 64.4 105.5 0 181.7 -74.2Q1041 722.7 1109.4 668q66.4 -54.7 87.9 -138.7 19.5 -93.8 -25.4 -179.7 -46.9 -85.9 -156.3 -123 -33.2 -86 -97.6 -127Q851.6 58.6 779.3 50.8t-127 9.7q-83.9 25.4 -128.9 78.2T459 275.4h-2q-29.3 5.9 -85.9 46.9 31.2 3.9 29.3 37.1v41q-3.9 35.1 -39.1 37.1h-39q-35.2 0 -37.1 -31.2v-13.7h-91.8q-15.7 0 -21.5 23.4v78.1q1.9 21.5 23.4 23.5H291zm443.4 15.6q-13.7 66.4 21.5 107.4 35.1 41 85.9 62.5Q736.3 732.4 666 701.2q-72.2 -31.3 -97.6 -91.8Q543 546.9 578.1 486.3q-46.8 35.2 -56.6 89.9 -7.8 56.6 0 91.8 -3.9 -3.9 -9.8 -5.9 -29.3 -17.6 -62.5 -52.7t-41 -97.7q-1.9 -58.6 27.3 -107.4 31.3 -48.8 84 -76.2 50.8 -23.4 130.9 -7.8 82 17.6 130.9 87.9Q759.8 337.9 707 302.7t-125 -41q45 -44.9 97.7 -70.3 52.7 -23.4 125 -13.7 70.3 9.8 125 54.7 52.7 43 60.5 107.4 9.8 64.5 -52.7 130.9 50.8 -25.4 72.3 -70.3 23.4 -44.9 21.5 -80.1l19.5 39.1q35.1 66.4 19.5 140.6 -15.6 56.6 -56.6 97.7 -41 39 -99.6 50.7 -50.8 11.8 -107.5 -13.6Q750 611.3 734.4 533.2zM250 330.1h-78.1H250h-78.1q-29.3 -2 -31.3 -31.3v-78.1q2 -29.3 31.3 -31.2H250q29.3 1.9 31.3 31.2v78.1q-2 29.3 -31.3 31.3zM19.5 252Q2 250 0 232.4v-54.7q2 -17.5 19.5 -19.5h54.7q17.6 2 19.6 19.5v54.7Q91.8 250 74.2 252H19.5zm308.6 -48.9v-42.9 42.9 -42.9q2 -15.7 17.6 -17.6h43q15.6 1.9 17.6 17.6v42.9q-2 15.7 -17.6 17.6h-43q-15.6 -1.9 -17.6 -17.6zM109.4 384.8v48.8 -48.8 48.8q-2 19.5 -21.5 21.5H37.1q-19.5 -2 -21.5 -21.5v-48.8q2 -21.5 21.5 -23.5h50.8q19.5 2 21.5 23.5z"/></svg>