<svg height="1000" width="1250" xmlns="http://www.w3.org/2000/svg"><path d="M796.9 548.8L345.7 543l451.2 5.8L345.7 543q-3.9 0 -7.8 -3.9 -2 -3.9 0 -7.8 1.9 -7.9 9.8 -7.9l455 -5.8q43 -3.9 80.1 -31.3T935.5 418l27.4 -66.4v-9.8Q929.7 210.9 812.5 144.5 691.4 84 564.5 132.8q-125 50.8 -171.9 177.7 -35.2 -25.3 -76.2 -25.3 -41 -2 -78.1 21.4 -35.2 25.4 -48.8 62.5 -15.7 39.1 -5.9 82.1 -78.1 3.9 -130.9 56.6Q2 560.5 0 638.7q0 13.6 2 27.3 1.9 7.8 7.8 7.8h834q7.8 0 9.7 -7.8l5.9 -21.5q11.7 -41 -7.8 -68.3Q834 550.8 796.9 548.8zm207 -193.3h-13.7q-3.9 1.9 -5.8 5.8l-17.6 60.6q-11.7 41 7.8 68.3 19.5 25.4 54.7 27.4l97.7 5.8q3.9 0 5.8 3.9t2 7.9q-3.9 7.8 -11.8 7.8l-99.6 5.8q-41 2 -78.1 31.3 -37.1 27.3 -54.7 68.3l-7.8 17.6q0 3.9 2 5.9 0 1.9 3.9 1.9h343.7q5.9 0 7.8 -5.8 9.8 -33.2 9.8 -66.4 -2 -105.5 -72.3 -173.9 -70.3 -70.3 -173.8 -72.2z"/></svg>