<svg height="1000" width="875" xmlns="http://www.w3.org/2000/svg"><path d="M621.1 224.6l-17.6 15.6 17.6 -15.6 -17.6 15.6q-68.3 -62.5 -164 -66.4Q332 177.7 261.7 250q-72.2 74.2 -74.2 181.6 0 19.6 2 39.1 0 -84 52.7 -136.7t128.9 -54.7q72.3 2 123 48.8l-50.7 39.1q-25.4 -2 -45 15.6 -15.6 17.6 -15.6 39.1 0 23.4 15.6 41 17.6 15.6 39.1 15.6 23.4 0 39.1 -15.6 19.5 -21.5 15.6 -46.9L640.6 244.1q7.8 -11.7 0 -19.5 -9.7 -7.8 -19.5 0zM457 443.4q-19.5 15.6 -39 0 -15.7 -21.5 0 -41.1 19.5 -15.6 39 0 17.6 19.6 0 41.1zM437.5 -13.7q-121.1 2 -220.7 60.6Q119.1 105.5 60.5 203.1 2 302.7 0 423.8q2 121.1 60.5 220.7 58.6 97.7 156.3 156.3 99.6 58.6 220.7 60.5 121.1 -1.9 220.7 -60.5 97.7 -58.6 156.3 -156.3Q873 544.9 875 423.8 873 302.7 814.5 203.1 755.9 105.5 658.2 46.9 558.6 -11.7 437.5 -13.7zm0 750Q304.7 732.4 216.8 644.5 128.9 556.6 125 423.8 128.9 291 216.8 203.1t220.7 -91.8q132.8 3.9 220.7 91.8T750 423.8q-3.9 132.8 -91.8 220.7t-220.7 91.8z"/></svg>