<svg height="1000" width="1250" xmlns="http://www.w3.org/2000/svg"><path d="M441.4 681.6q0 -3.9 -3.9 -5.8 -2 -2 -3.9 -2h-291q-19.6 0 -31.3 -15.6T107.4 623l52.8 -199.2Q173.8 377 222.7 373h291q7.8 -1.9 11.7 -11.7l21.5 -80q1.9 -5.9 -5.9 -9.8H248q-66.4 3.9 -117.1 44.9 -52.8 41 -72.3 105.5L5.9 625q-17.6 54.7 13.6 101.6 35.2 46.8 91.8 48.8h296.9q9.8 -2 11.7 -9.8l21.5 -80.1v-3.9zM599.6 82v-1.9q0 -3.9 -1.9 -5.9t-5.9 -1.9h-80.1Q502 74.2 500 82l-43 158.2h99.6zm-248 560.6h101.5H351.6h101.5l60.6 -238.3h-99.6zM1000 80.1q-2 -7.8 -7.8 -7.8h-80.1q-9.8 0 -13.7 9.7L720.7 765.6v2q0 5.8 7.8 7.8h80.1q9.8 -2 11.7 -9.8L1000 82v-1.9zM634.8 673.8h-80.1 80.1 -80.1q-9.8 2 -13.7 11.7l-19.5 80.1q-2 0 -2 2 0 3.9 2 5.8t5.8 2h80.1q9.8 -2 13.7 -9.8l19.5 -80.1q2 -3.9 0 -7.8 -1.9 -1.9 -5.8 -3.9zM1242.2 72.3h-80.1 80.1 -80.1q-9.8 1.9 -11.7 9.7L970.7 765.6v2q0 5.8 7.8 7.8h80.1q9.8 -2 11.7 -9.8L1250 82v-1.9q-2 -7.8 -7.8 -7.8zm-515.6 291l19.5 -80.1 -19.5 80.1 19.5 -80.1 1.9 -1.9q-1.9 -7.9 -7.8 -7.9h-82q-7.8 2 -11.7 9.8L625 363.3v3.9q0 5.8 7.8 5.8h80.1q9.8 0 13.7 -9.7z"/></svg>