<svg height="1000" width="1000" xmlns="http://www.w3.org/2000/svg"><path d="M980.5 236.3L523.4 -68.4l457.1 304.7L523.4 -68.4q-23.4 -15.6 -46.8 0L19.5 236.3Q0 248 0 271.5v304.7q0 21.5 19.5 35.1L476.6 916q23.4 15.6 46.8 0L980.5 611.3q19.5 -13.6 19.5 -35.1V271.5q0 -23.5 -19.5 -35.2zM543 46.9l335.9 224.6L543 46.9l335.9 224.6 -150.4 99.6L543 248V46.9zm-86 0V248 46.9 248L271.5 371.1 121.1 271.5 457 46.9zM85.9 351.6l107.5 72.2L85.9 351.6l107.5 72.2L85.9 496.1V351.6zM457 800.8L121.1 576.2 457 800.8 121.1 576.2l150.4 -99.6 185.5 123v201.2zm43 -275.4L347.7 423.8 500 525.4 347.7 423.8 500 322.3l152.3 101.5L500 525.4zm43 275.4V599.6v201.2V599.6l185.5 -123 150.4 99.6L543 800.8zM914.1 496.1L806.6 423.8l107.5 72.3L806.6 423.8l107.5 -72.2v144.5z"/></svg>