<svg height="1000" width="921.9" xmlns="http://www.w3.org/2000/svg"><path d="M826.2 320.3q29.3 2 41 27.4 9.8 23.4 0 48.8t-43 27.3h-21.5v86H752V320.3h74.2zm95.7 293Q859.4 748 748 828.1q-113.2 78.2 -263.6 80.1Q349.6 906.3 240.2 841.8T66.4 668 0 423.8Q2 289.1 66.4 179.7T240.2 5.9t244.2 -66.4q142.6 1.9 251.9 72.2Q843.8 84 910.2 209L546.9 421.9l375 191.4zm-74.2 23.4L728.5 576.2l119.2 60.5L728.5 576.2q-82 134.7 -238.3 140.6 -125 -3.9 -207 -85.9t-84 -205.1q2 -125 84 -207t207 -84q144.6 1.9 228.6 123L834 191.4Q773.4 97.7 683.6 46.9T484.4 -3.9q-119.2 0 -216.8 56.6Q171.9 111.3 113.3 207 56.6 304.7 56.6 423.8t56.7 216.8q58.6 95.7 154.3 154.3 97.6 56.7 216.8 58.6 117.2 -1.9 210.9 -58.6T847.7 636.7z"/></svg>