<svg height="1000" width="1000" xmlns="http://www.w3.org/2000/svg"><path d="M3.9 728.5q-11.7 25.4 11.7 43l207.1 128.9q25.3 11.7 42.9 -11.7Q324.2 787.1 373 753.9q46.9 -33.2 130.9 -5.9 82 27.4 240.2 105.5 33.2 15.6 70.4 33.2 27.3 11.7 42.9 -13.7v-1.9l97.7 -222.7q9.7 -27.3 -15.6 -41 -33.2 -15.6 -89.9 -42.9T732.4 509.8Q505.9 404.3 365.2 429.7 222.7 455.1 142.6 541 60.5 628.9 19.5 705.1L3.9 728.5zM996.1 119.1q11.7 -25.3 -11.7 -42.9l-207.1 -127Q752 -64.5 734.4 -43l-2 2Q675.8 60.5 627 93.8t-130.9 5.8Q414.1 74.2 257.8 -3.9q-33.2 -15.6 -72.3 -35.2 -27.3 -9.7 -42.9 15.7L43 199.2q-7.8 27.4 15.6 43 35.2 15.6 91.8 43 56.6 25.3 115.2 54.6Q492.2 445.3 634.8 418 777.3 392.6 857.4 306.6q82.1 -85.9 123.1 -164l15.6 -23.5z"/></svg>