<svg height="1000" width="1000" xmlns="http://www.w3.org/2000/svg"><path d="M87.9 519.5q1.9 7.8 3.9 13.7 17.6 95.7 44.9 179.7 27.4 82 86 148.4H66.4q-27.3 0 -46.9 -19.5T0 794.9V52.7Q0 25.4 19.5 5.9t46.9 -19.6h113.3q-41 37.1 -72.3 86 -60.5 97.6 -56.6 207 5.8 107.4 35.1 224.6 2 7.8 2 15.6zM933.6 -13.7H757.8h175.8H757.8q62.5 62.5 103.5 164.1L591.8 207q-19.5 -42.9 -58.6 -70.3Q496.1 109.4 431.6 121.1q-72.2 19.5 -95.7 68.4 -13.6 23.4 -13.6 78.1 0 52.7 31.2 195.3 29.3 142.6 50.8 193.4 23.4 48.8 44.9 64.4 39.1 35.2 113.3 21.5 64.5 -13.7 87.9 -54.7 23.4 -39.1 25.4 -87.9L943.4 541Q949.2 750 832 861.3h101.6q27.3 0 46.9 -19.5 19.5 -17.6 19.5 -46.9V52.7q0 -27.3 -19.5 -46.8t-46.9 -19.6z"/></svg>