<svg height="1000" width="1250" xmlns="http://www.w3.org/2000/svg"><path d="M410.2 353.5Q402.3 316.4 375 294.9q-27.3 -21.5 -64.5 -21.5h-72.2q-21.5 2 -27.4 21.5l-68.3 253.9h48.8q21.5 -1.9 27.4 -21.5l50.7 -187.5h39.1q25.4 2 35.2 29.3 3.9 17.6 -7.9 31.3 -9.7 13.7 -27.3 13.7h-21.5q-21.5 1.9 -27.3 21.4l-11.8 45h62.5q54.7 -2 82.1 -41 27.3 -41.1 17.6 -86zm-304.7 54.7h35.1 -35.1 35.1q21.5 0 29.3 -21.5l11.7 -44.9h-78.1q-72.2 0 -99.6 80.1 -11.7 50.8 17.6 87.9t80.1 39H125L140.6 498q0 -15.6 -13.6 -15.6h-21.5Q68.4 476.6 68.4 445.3t37.1 -37.1zm482.4 -68.4H435.5h152.4H435.5l-5.8 27.4q-3.9 31.2 27.3 35.1h113.3q7.8 4 3.9 9.8v2l-17.6 60.5v2q0 7.8 -9.7 9.7h-68.4q-7.8 -1.9 -7.8 -7.8 0 -7.8 7.8 -7.8h41q21.5 -1.9 29.3 -21.5l5.9 -25.4h-93.8q-39 2 -54.6 31.3 -13.7 31.2 -2 60.5 13.7 29.3 54.7 33.2h111.3q35.2 -1.9 46.9 -35.1l27.3 -101.6q5.9 -29.3 -11.7 -48.8 -15.6 -21.5 -44.9 -23.5zm648.4 -66.4h-37.1 37.1 -37.1q-15.6 0 -19.5 15.7l-70.3 259.7q31.2 0 56.6 -17.5 23.5 -19.6 31.3 -48.9L1250 289.1q2 -13.7 -13.7 -15.7zm-460.9 68.4h-93.8l-52.7 191.4q-1.9 13.7 13.7 15.6h37.1q13.7 0 19.5 -15.6l33.2 -125h39.1q19.5 2 29.3 15.6t5.8 31.3l-19.5 78.1q-3.9 13.7 11.7 15.6h37.1q15.7 0 19.6 -15.6L873 468.8Q884.8 418 855.5 380.9t-80.1 -39.1zm191.4 144.5q-11.7 -1.9 -9.8 -11.7L972.7 416q3.9 -11.7 15.6 -11.7h64.4q7.8 0 7.8 9.8l-1.9 3.9q-2 5.8 -7.8 5.8h-43q-21.5 2 -27.3 21.5l-5.9 25.4h103.5q33.2 0 44.9 -35.2l7.9 -23.4q5.8 -27.3 -11.8 -48.8 -15.6 -21.5 -44.9 -21.5h-91.8q-56.6 2 -76.1 56.6l-19.6 78.2q-7.8 27.3 7.8 48.8t46.9 23.4h130.9q19.5 -1.9 27.3 -21.5l9.8 -41H966.8z"/></svg>