<svg height="1000" width="968.8" xmlns="http://www.w3.org/2000/svg"><path d="M484.4 -60.5q-142.6 1.9 -252 68.3Q125 74.2 62.5 183.6 2 293 0 423.8 2 558.6 66.4 668t173.8 173.8 244.2 66.4q128.9 -1.9 238.3 -62.5t177.7 -168q66.4 -109.3 68.4 -253.9 -2 -136.7 -64.5 -246.1Q839.8 68.4 732.4 3.9 623 -58.6 484.4 -60.5zm0 880.8q-168 -5.8 -279.3 -117.2Q91.8 589.8 87.9 423.8q0 -68.3 21.5 -128.9l126.9 56.7h-7.8v58.6h44.9v37.1h-44.9v58.6h52.8q19.5 97.6 87.8 146.4 68.4 50.8 154.3 50.8 82.1 -3.9 127 -31.2L630.9 582q-13.7 7.8 -39.1 13.7 -25.4 7.8 -52.7 7.8 -43 0 -80.1 -21.5 -37.1 -19.5 -52.7 -76.1H584l250 109.3v2q-5.9 13.7 -44.9 62.5Q750 726.6 673.8 771.5q-74.2 44.9 -189.4 48.8zm-31.3 -373h-1.9 1.9 -1.9 1.9zm150.4 -37.1h7.8 -7.8 7.8v-58.6H472.7L418 328.1q5.8 -17.6 15.6 -29.3 41 -44.9 101.6 -42.9 54.6 1.9 89.8 19.5l21.5 -91.8Q601.6 160.2 525.4 158.2q-117.2 2 -187.5 82 -15.6 19.6 -27.4 41.1L152.3 209Q214.8 119.1 285.2 80.1 353.5 41 410.2 33.2q54.6 -7.8 72.2 -5.9h2q169.9 4 281.2 115.3t115.3 281.2q0 54.7 -11.8 103.5L603.5 410.2z"/></svg>