<svg height="1000" width="968.8" xmlns="http://www.w3.org/2000/svg"><path d="M484.4 -60.5q-140.6 1.9 -250 68.3Q125 74.2 62.5 183.6 2 293 0 423.8q2 136.7 66.4 246.1 66.4 109.4 175.8 171.9 109.4 64.5 242.2 66.4 128.9 -1.9 238.3 -62.5t175.7 -168q68.4 -109.3 70.4 -253.9 -2 -136.7 -64.5 -246.1Q841.8 70.3 732.4 5.9t-248 -66.4zm0 880.8q-168 -5.8 -281.3 -117.2Q91.8 589.8 87.9 423.8 89.8 263.7 199.2 148.4T484.4 27.3q169.9 4 281.2 115.3t115.3 281.2Q875 605.5 759.8 710.9 642.6 818.4 484.4 820.3zM619.1 287.1H515.6h103.5H515.6v267.6h103.5q35.2 3.9 84 -19.5Q750 511.7 755.9 421.9 750 332 703.1 308.6q-48.8 -25.4 -84 -21.5zm2 212.9H582h39.1H582V343.8h39.1q9.8 -4 37.1 7.8 25.4 13.6 29.3 70.3 2 74.2 -66.4 78.1zM398.4 287.1H265.6h132.8H265.6v267.6H332v-85.9h52.8q76.1 -4 95.7 -39.1t15.6 -50.8q0 -91.8 -97.7 -91.8zM388.7 418H332h56.7H332v-80.1h54.7q44.9 3.9 43 41 0 35.2 -41 39.1z"/></svg>