<svg height="1000" width="968.8" xmlns="http://www.w3.org/2000/svg"><path d="M484.4 -60.5q138.6 1.9 248 66.4 109.4 64.4 171.9 171.8 62.5 109.4 64.5 246.1 -2 144.6 -70.4 253.9Q832 785.2 722.7 845.7t-238.3 62.5Q351.6 906.3 242.2 841.8 132.8 779.3 66.4 669.9 2 560.5 0 423.8 2 293 62.5 183.6 125 74.2 234.4 7.8t250 -68.3zm0 87.8Q308.6 33.2 199.2 148.4 89.8 263.7 87.9 423.8q3.9 166 115.2 279.3 113.3 111.4 281.3 117.2 158.2 -1.9 275.4 -109.4Q875 605.5 880.9 423.8 877 253.9 765.6 142.6T484.4 27.3zm0 117.2q-117.2 5.9 -160.2 91.8 -42.9 86 -39 187.5 -3.9 101.6 39 187.5t160.2 91.8q117.2 -5.8 160.1 -91.8t41 -187.5q2 -101.5 -41 -187.5T484.4 144.5zm0 105.5q9.7 0 17.6 2 19.5 15.6 5.8 42.9L402.3 490.2q-3.9 -37.1 -3.9 -66.4Q396.5 377 410.2 316.4q15.6 -60.5 74.2 -66.4zm80.1 89.8q7.8 48.9 5.8 84 2 48.9 -11.7 107.5 -15.6 60.5 -74.2 66.4 -21.5 0 -39.1 -11.8 -15.6 -13.6 0 -39L564.5 339.8z"/></svg>