<svg height="1000" width="968.8" xmlns="http://www.w3.org/2000/svg"><path d="M484.4 -60.5q138.6 1.9 248 66.4 109.4 64.4 171.9 171.8 62.5 109.4 64.5 246.1 -2 144.6 -70.4 253.9Q832 785.2 722.7 845.7t-238.3 62.5Q351.6 906.3 242.2 841.8 132.8 779.3 66.4 669.9 2 560.5 0 423.8 2 293 62.5 183.6 125 74.2 234.4 7.8t250 -68.3zm0 87.8Q308.6 33.2 199.2 148.4 89.8 263.7 87.9 423.8q3.9 166 115.2 279.3 113.3 111.4 281.3 117.2 158.2 -1.9 275.4 -109.4Q875 605.5 880.9 423.8 877 253.9 765.6 142.6T484.4 27.3zm316.4 404.3l9.7 5.9 -9.7 -5.9 9.7 5.9v136.7l-39 15.6q-29.3 13.7 -58.6 25.4 -27.4 11.8 -33.2 13.7Q669.9 627 623 607.4T519.5 564.5q-76.1 -31.3 -109.3 -45l-125 52.8L162.1 517.6v-125l115.2 -46.9q0 3.9 0 -17.6V207l130.9 -56.6 296.9 123v119.2l95.7 39zM664.1 591.8v-85.9 85.9 -85.9h-2V502L441.4 412.1V500l220.7 91.8h2zm13.6 -113.3l78.2 -31.2 -78.2 31.2 78.2 -31.2L683.6 416l-76.2 33.2 70.3 29.3zm103.6 74.2v-83.9 83.9 -83.9l-87.9 37.1v83.9l87.9 -37.1z"/></svg>