<svg height="1000" width="968.8" xmlns="http://www.w3.org/2000/svg"><path d="M484.4 -60.5q-142.6 1.9 -252 68.3Q125 74.2 62.5 183.6 2 293 0 423.8 2 558.6 66.4 668t173.8 173.8 244.2 66.4q128.9 -1.9 238.3 -62.5t177.7 -168q66.4 -109.3 68.4 -253.9 -2 -136.7 -64.5 -246.1T732.4 3.9Q623 -58.6 484.4 -60.5zm0 880.8q-168 -5.8 -279.3 -117.2Q91.8 589.8 87.9 423.8q0 -62.5 17.6 -117.2l248 109.4h-54.7v76.2h113.3l11.7 23.4v35.2h-125V627h125v109.3H543V627h126.9v-70.4L828.1 627l-1.9 1.9q-3.9 9.8 -43 56.6 -39.1 45 -113.3 87.9t-185.5 46.9zM656.3 550.8H543h113.3H543v-35.2l5.8 -11.7 107.5 46.9zM668 451.2V416v35.2V416h-74.2l123 -226.5H587.9l-84 187.5L459 357.4 380.9 189.5H252l54.6 99.6L146.5 218.8q39 -68.4 123 -129Q351.6 31.3 484.4 27.3q169.9 4 281.2 115.3t115.3 281.2q0 62.5 -15.7 115.3L668 451.2z"/></svg>