<svg height="1000" width="968.8" xmlns="http://www.w3.org/2000/svg"><path d="M484.4 -60.5Q349.6 -58.6 240.2 5.9 130.9 70.3 66.4 179.7 2 289.1 0 423.8 2 558.6 66.4 668t173.8 173.8 244.2 66.4q134.7 -1.9 244.1 -66.4T902.3 668t66.5 -244.2q-2 -134.7 -66.5 -244.1T728.5 5.9 484.4 -60.5zm0 878.9Q345.7 814.5 248 738.3 148.4 662.1 109.4 543 70.3 423.8 113.3 294.9l154.3 68.4q-7.8 29.3 -7.8 64.4 1.9 95.7 41 148.5 39 54.7 93.7 78.1 54.7 21.5 101.6 21.5 33.2 0 74.2 -13.7 41 -11.7 80.1 -44.9l-70.3 -85.9q-7.8 9.7 -25.4 21.4 -17.6 9.8 -44.9 11.8 -54.7 -4 -80.1 -46.9 -25.4 -44.9 -25.4 -93.8 146.5 64.5 232.4 103.5 101.6 45 140.6 62.5 41.1 17.6 46.9 21.5l5.9 2q-52.8 91.8 -142.6 148.4 -89.8 54.7 -203.1 56.7zm378.9 -293L425.8 330.1l437.5 195.3L425.8 330.1q29.3 -48.8 72.2 -50.8t74.3 29.3l78.1 -82q-39.1 -33.2 -80.1 -45 -41 -9.7 -72.3 -9.7 -138.6 5.8 -195.3 101.5L156.3 209Q209 127 294.9 78.1q86 -46.8 189.5 -48.8 167.9 5.9 279.3 115.2Q873 255.9 878.9 423.8q0 52.8 -13.7 101.6h-1.9z"/></svg>