<svg height="1000" width="968.8" xmlns="http://www.w3.org/2000/svg"><path d="M480.5 343.8L416 377l64.5 -33.2L416 377q-15.6 -27.4 -33.2 -33.2t-21.5 -5.9q-64.4 0 -64.4 85.9 0 35.2 15.6 60.6 13.7 23.4 48.8 25.4 43 0 60.6 -41l58.6 29.2q-7.8 19.6 -39.1 46.9 -29.3 27.4 -87.9 29.3 -37.1 3.9 -87.9 -25.4T209 423.8q3.9 -84 48.8 -117.2 46.9 -35.1 93.8 -33.2 89.8 0 128.9 70.4zm279.3 0L695.3 377l64.5 -33.2L695.3 377q-15.6 -27.4 -33.2 -33.2t-21.5 -5.9q-64.4 0 -64.4 85.9 0 35.2 15.6 60.6 13.7 23.4 48.8 25.4 43 0 60.6 -41l60.5 29.2q-3.9 9.8 -33.2 41.1 -31.2 31.2 -93.7 35.1 -39.1 3.9 -89.9 -25.4t-54.7 -125q2 -84 48.9 -117.2 44.9 -35.1 91.8 -33.2 89.8 0 128.9 70.4zM484.4 -60.5q-140.6 1.9 -250 68.3Q125 74.2 62.5 183.6 2 293 0 423.8q2 136.7 66.4 246.1 66.4 109.4 175.8 173.9 109.4 62.5 242.2 64.4 128.9 0 238.3 -62.5Q832 785.2 898.4 677.7q68.4 -109.3 70.4 -253.9 -2 -136.7 -64.5 -246.1Q841.8 70.3 732.4 5.9t-248 -66.4zm0 880.8q-168 -5.8 -281.3 -117.2Q91.8 589.8 87.9 423.8 89.8 263.7 199.2 148.4T484.4 27.3q169.9 4 281.2 115.3t115.3 281.2Q875 605.5 759.8 710.9 642.6 818.4 484.4 820.3z"/></svg>