<svg height="1000" width="968.8" xmlns="http://www.w3.org/2000/svg"><path d="M484.4 -60.5q136.7 1.9 246.1 64.4 109.3 64.5 173.8 171.9 62.5 109.4 64.5 248 -2 144.6 -70.4 253.9Q832 785.2 722.7 845.7t-238.3 62.5Q351.6 906.3 242.2 841.8T66.4 668Q2 558.6 0 423.8 2 293 62.5 183.6 125 74.2 234.4 7.8t250 -68.3zM109.4 293Q87.9 353.5 87.9 423.8q3.9 166 117.2 279.3 111.3 111.4 279.3 115.3 119.1 -2 195.3 -48.9Q755.9 720.7 793 673.8q39 -48.8 41 -58.6l-181.7 -80q-13.6 52.7 -52.7 78.1 -39.1 27.3 -82 29.3v74.2h-56.7v-74.2q-80 0 -146.4 -58.6l66.4 -66.4q52.7 42.9 107.4 42.9 56.6 2 62.5 -46.8 0 -19.6 -13.7 -31.3 -3.9 0 -7.8 -1.9 -5.9 -2 -33.2 -13.7Q470.7 455.1 382.8 416 296.9 377 109.4 293zm375 -267.6Q425.8 21.5 334 54.7 240.2 87.9 152.3 207l185.6 84q15.6 -44.9 52.7 -66.4 35.2 -19.5 72.3 -19.5v-76.2h54.7v76.2Q584 207 638.7 250l-62.5 64.5Q509.8 273.4 466.8 289.1t-27.3 46.8q11.7 5.9 21.4 9.8 39.1 17.6 58.6 25.4 17.6 7.8 39.1 17.6 19.5 9.7 62.5 27.3l248 111.3q11.8 -50.7 11.8 -103.5 0 -167.9 -115.3 -281.2Q650.4 25.4 484.4 25.4z"/></svg>