<svg height="1000" width="968.8" xmlns="http://www.w3.org/2000/svg"><path d="M484.4 -60.5q138.6 1.9 248 66.4 109.4 64.4 171.9 171.8 62.5 109.4 64.5 246.1 -2 144.6 -70.4 253.9Q832 785.2 722.7 845.7t-238.3 62.5Q351.6 906.3 242.2 841.8 132.8 779.3 66.4 669.9 2 560.5 0 423.8 2 293 62.5 183.6 125 74.2 234.4 7.8t250 -68.3zm0 87.8Q308.6 33.2 199.2 148.4 89.8 263.7 87.9 423.8q3.9 166 115.2 279.3 113.3 111.4 281.3 117.2 158.2 -1.9 275.4 -109.4Q875 605.5 880.9 423.8 877 253.9 765.6 142.6T484.4 27.3zm7.8 103.6q5.8 -2 13.7 3.9 7.8 3.9 9.7 17.5l11.7 211 9.8 -117.2q2 -17.6 21.5 -19.5 17.6 1.9 19.5 19.5v1.9q0 -3.9 2 21.5 1.9 23.5 9.7 136.8l11.8 -125q0 -13.7 19.5 -19.6 15.6 0 21.5 17.6l21.5 189.5 9.7 -25.4q5.9 -13.7 21.5 -13.7h113.3v43H709l-37.1 85.9q-5.9 13.7 -21.5 13.7 -15.6 -2 -17.6 -19.6L625 490.2l-15.6 181.7q0 11.7 -19.6 17.6 -13.6 1.9 -21.4 -17.6v-2q1.9 3.9 0 -19.5T556.6 519.5l-9.7 140.7q-3.9 15.6 -21.5 17.5 -13.7 2 -19.5 -17.5v-2q0 5.9 -2 -21.5Q502 611.3 494.1 488.3l-11.7 185.5q0 21.5 -21.5 23.5 -17.5 0 -19.5 -23.5L429.7 503.9q-3.9 58.6 -5.9 91.8 -3.9 58.6 -3.9 66.4 0 9.8 0 7.8 -3.9 17.6 -21.5 19.6 -13.6 1.9 -21.4 -19.6V666L365.2 492.2l-9.7 111.3Q349.6 623 334 621.1q-17.6 -2 -19.5 -17.6L293 455.1q-2 0 -2 1.9 -1.9 11.8 -19.5 13.7H169.9v-41h87.9L285.2 375q7.8 -13.7 21.4 -11.7t17.6 17.6l5.9 39 15.6 -191.4q2 -17.6 21.5 -19.5 1.9 -2 9.8 1.9 9.7 3.9 9.7 21.5l9.8 134.8 13.7 -179.7q0 -15.6 9.7 -17.6 7.8 -3.9 9.8 -3.9t11.7 3.9q7.8 3.9 9.8 17.6l9.7 156.3 11.8 -191.5q0 -3.9 1.9 -11.7 3.9 -7.8 17.6 -9.7z"/></svg>