<svg height="1000" width="968.8" xmlns="http://www.w3.org/2000/svg"><path d="M615.2 302.7V502 302.7 502h-54.7v234.3H410.2V502h-56.7V302.7q0 -11.7 9.8 -21.4 7.8 -9.8 21.5 -9.8H584q11.7 0 21.5 9.8t9.7 21.4zM416 179.7q0 -68.4 68.4 -68.4 66.4 0 66.4 68.4 0 66.4 -66.4 66.4 -68.4 0 -68.4 -66.4zm68.4 -240.2q138.6 1.9 248 66.4 109.4 64.4 171.9 171.8 62.5 109.4 64.5 246.1 -2 144.6 -70.4 253.9Q832 785.2 722.7 845.7t-238.3 62.5Q351.6 906.3 242.2 841.8 132.8 779.3 66.4 669.9 2 560.5 0 423.8 2 293 62.5 183.6 125 74.2 234.4 7.8t250 -68.3zm0 87.8Q308.6 33.2 199.2 148.4 89.8 263.7 87.9 423.8q3.9 166 115.2 279.3 113.3 111.4 281.3 117.2 158.2 -1.9 275.4 -109.4Q875 605.5 880.9 423.8 877 253.9 765.6 142.6T484.4 27.3z"/></svg>