<svg height="1000" width="875" xmlns="http://www.w3.org/2000/svg"><path d="M441.4 -76.2q3.9 2 66.4 39.1 62.5 35.1 144.5 82 84 48.9 146.5 84 62.5 37.1 66.4 39.1 7.8 3.9 7.8 11.7v490.2q0 7.8 -7.8 9.8 -17.5 11.7 -83.9 48.8 -64.5 37.1 -142.6 82T502 888.7q-54.7 29.3 -64.5 35.1h-5.9Q351.6 877 252 820.3 154.3 763.7 82 722.7t-76.1 -45Q2 675.8 2 671.9V177.7q0 -5.8 5.8 -9.7Q25.4 158.2 84 125 140.6 91.8 212.9 52.7q82 -46.8 148.4 -85.9 64.5 -37.1 76.2 -43h3.9zm-21.5 39.1Q230.5 72.3 41 179.7l60.6 23.4Q84 218.8 80.1 212.9L72.3 209q-11.8 -3.9 -25.4 -9.8 -13.7 -3.9 -17.6 -5.8v449.2q3.9 -5.9 39.1 -68.4 35.1 -60.5 64.4 -111.3 19.5 -35.2 21.5 -37.1 2 -3.9 11.7 -2h5.9t1.9 2q-27.3 46.9 -42.9 74.2 -25.4 44.9 -41.1 70.3 -15.6 27.4 -48.8 84 -1.9 3.9 2 2h365.2q3.9 1.9 3.9 -2v-17.6q0 -1.9 -5.8 -1.9H375q-21.5 1.9 -41 -25.4Q312.5 582 291 552.7q-1.9 -5.8 -21.5 -3.9h-11.7q-3.9 -1.9 -3.9 2 0 11.7 2 19.5v44.9q0 9.8 17.5 9.8h2q9.8 3.9 1.9 9.8h-66.4q-3.9 -2 -3.9 -5.9t3.9 -3.9h5.9q5.9 0 7.8 -7.8v-3.9q2 -11.7 2 -35.2V460.9q1.9 -27.3 -9.8 -25.4 -2 -1.9 -3.9 -1.9H207q-7.8 -5.9 3.9 -9.8h25.4q64.5 -1.9 84 9.8 21.5 13.7 23.5 39.1 0 37.1 -25.4 60.5l-3.9 3.9v3.9q3.9 3.9 5.8 7.8 5.9 5.9 9.8 11.7 5.8 7.9 11.7 13.7 29.3 35.2 39.1 43 9.7 5.8 29.3 7.8 1.9 0 1.9 -2v-21.4q0 -3.9 3.9 -2 23.5 2 44.9 -1.9 3.9 0 3.9 3.9v39q2 11.7 2 13.7t3.9 2H834Q755.9 519.5 675.8 380.9h1.9q-1.9 0 11.8 -2 3.9 -1.9 5.8 2 5.9 9.7 25.4 44.9 19.5 33.2 44.9 78.1 31.3 52.7 54.7 95.7 23.5 41 25.4 43V193.4q-5.9 1.9 -52.7 19.5 -48.9 19.5 -97.7 37.1 -50.8 19.5 -56.6 21.5 -2 0 -3.9 -2 0 -5.8 -3.9 -11.7 0 -1.9 1.9 -1.9 3.9 -2 48.8 -19.6 45 -15.6 93.8 -35.1 48.8 -17.6 58.6 -21.5Q662.1 80.1 490.2 -17.6l-39 -23.4 169.9 294.9q-23.4 -1.9 -23.4 -7.8 -2 -3.9 -29.3 -48.8Q533.2 136.7 492.2 62.5q-43 -72.3 -54.7 -93.8L414.1 7.8Q398.4 37.1 375 74.2q-37.1 66.4 -68.4 121.1 -33.2 54.7 -37.1 58.6 -5.8 2 -11.7 0H252q83.9 -144.5 167.9 -291zm101.6 253.9q5.8 0 11.7 -2 3.9 0 3.9 4 2 3.9 0 19.5v21.5q-3.9 3.9 -5.8 0 -2 -5.9 -4 -9.8 2 -7.8 -9.7 -9.8t-62.5 -3.9q-2 0 -2 2 0 3.9 2 60.5 1.9 58.6 3.9 115.3t1.9 62.5q0 1.9 2 1.9 7.8 3.9 17.6 7.8 19.5 13.7 23.4 39.1 3.9 19.5 -9.8 43 -11.7 25.4 -52.7 29.3 -7.8 1.9 -31.2 -5.9 -25.4 -5.9 -35.2 -41 -5.9 -27.4 5.9 -46.9 13.6 -17.6 31.2 -23.4 5.9 0 3.9 -5.9 2 -7.8 2 -58.6l3.9 -105.5q1.9 -54.6 1.9 -72.2 0 -2 -1.9 -2h-17.6q-35.2 0 -46.9 2 -11.7 3.9 -13.6 13.7 -4 9.7 -5.9 5.8 -2 -1.9 -2 -3.9 2 -17.6 5.9 -35.1 0 -5.9 5.9 -4t15.6 2q7.8 2 33.2 2h25.4q3.9 0 1.9 -4 2 -33.2 2 -41v-17.5q1.9 -4 -2 -4Q406.3 142.6 406.3 125q1.9 -23.4 19.5 -29.3 17.6 -7.8 33.2 5.9 19.5 27.3 -3.9 46.8 -5.9 3.9 -3.9 9.8 0 -1.9 0 3.9t1.9 54.7q0 2 2 2h25.4t41 -2zM132.8 201.2q43 -7.8 78.1 0 11.8 1.9 25.4 1.9 7.8 2 5.9 7.8v27.4q-2 15.6 -2 19.5 0 2 -1.9 3.9 -9.8 0 -7.8 -11.7v-2q-5.9 -23.4 -41 -33.2 -35.2 -7.8 -68.4 9.8Q87.9 240.2 84 296.9q0 37.1 25.4 68.3 25.4 33.2 80.1 31.3 25.3 -2 33.2 -11.7t9.7 -19.6q0 -7.8 5.9 -9.7 1.9 0 3.9 1.9t1.9 5.9q-5.8 27.3 -7.8 35.1v2q-3.9 9.8 -44.9 13.7t-84 -15.7 -52.7 -80q-3.9 -39.1 15.6 -72.3 19.5 -35.2 62.5 -44.9zm156.3 169.9H252h37.1H252q-4 0 -5.9 -2 3.9 -3.9 5.9 -3.9 5.8 2 5.8 -9.7v-78.2q2 -7.8 -5.8 -9.7 -9.8 0 -7.9 -3.9 2 -2 5.9 -2 35.2 0 58.6 2 13.7 1.9 19.5 15.6 7.8 11.7 -3.9 27.3 -5.8 7.9 -11.7 13.7v2q5.9 7.8 33.2 37.1 7.8 7.8 19.5 5.8 3.9 0 3.9 -3.9v-80q2 -13.7 -5.8 -13.7 -11.7 -2 0 -5.9h37.1q5.9 -1.9 1.9 5.9h-1.9q-7.8 0 -7.8 9.7v68.4t1.9 13.7v1.9q-1.9 3.9 9.8 3.9 9.8 3.9 0 5.9h-60.5q-23.5 1.9 -41.1 -29.3 -1.9 -5.9 -5.8 -9.8 -11.7 -7.8 -17.6 -1.9 2 9.7 2 15.6 -2 23.4 5.8 19.5 13.7 3.9 2 5.9zm537.1 -19.5v9.7q0 11.7 -9.8 11.7 -60.5 -1.9 -80.1 -1.9t-17.5 0h-7.9q-3.9 -2 -1.9 -3.9t0 -7.8l-7.8 -19.6q0 -3.9 -3.9 -3.9h-27.4l-3.9 2q-3.9 11.7 -9.7 21.5 0 5.8 13.6 3.9 5.9 0 11.7 1.9 9.8 3.9 0 5.9h-50.7q-7.9 -2 -2 -5.9 7.8 0 11.7 -5.8 3.9 -9.8 7.8 -17.6 13.7 -33.2 21.5 -50.8 9.8 -21.5 11.7 -27.3 2 -3.9 3.9 -3.9 0 -2 2 -2t3.9 2q3.9 7.8 17.6 41 17.6 43 27.3 60.5 7.8 5.9 11.7 3.9h2q7.8 0 7.8 -7.8v-1.9q0 1.9 0 -11.7v-68.4q0 -7.8 -7.8 -7.8h-3.9q-3.9 0 0 -5.9h43q11.7 2 -2 5.9 -3.9 0 -3.9 1.9 -1.9 2 -1.9 3.9v80.1q1.9 5.9 7.8 5.9 33.2 1.9 31.2 -7.8 5.9 -11.8 5.9 0zM623 478.5q-13.6 -3.9 -1.9 -7.8h72.3q5.8 -1.9 3.9 2v17.5q-2 2 -2 3.9 -1.9 5.9 -5.8 -1.9 1.9 -9.8 -19.6 -7.8 -5.8 -2 -11.7 -2 -3.9 0 -1.9 3.9v31.3q-2 3.9 1.9 1.9h7.8q9.8 2 23.5 -1.9 3.9 -3.9 5.8 3.9v9.8q-1.9 9.7 -1.9 11.7 -2 3.9 -5.9 0v-3.9q0 -3.9 -5.9 -5.9H668q-17.6 -5.9 -11.7 11.7v9.8q-2 23.4 7.8 21.5 19.5 1.9 25.4 0 3.9 -2 3.9 -5.9 1.9 -1.9 1.9 -3.9 3.9 -7.8 5.9 0 0 9.8 -2 19.5 2 2 -9.7 3.9h-58.6t-9.8 0q-7.8 -3.9 0 -5.8l1.9 -2q5.9 2 5.9 -3.9 3.9 -72.2 2 -87.9T623 478.5zm-1.9 -214.8q7.8 1.9 5.9 9.7V291q-4 7.8 -7.9 0 0 -13.7 -13.6 -17.6 -39.1 -9.7 -50.8 13.7Q543 308.6 550.8 332q9.7 21.5 29.3 27.4 17.6 3.9 27.3 0 11.7 -5.9 13.7 -11.7v-3.9q3.9 -4 5.9 3.9 1.9 1.9 0 11.7t-11.8 11.7q-5.8 1.9 -25.4 1.9 -17.5 0 -37.1 -7.8 -29.3 -17.5 -29.3 -44.9t15.7 -43q21.4 -19.5 48.8 -17.5 25.4 1.9 33.2 3.9zm-54.7 207q9.8 3.9 0 7.8h-1.9q-7.9 -1.9 -7.9 9.8v80.1q0 7.8 7.9 7.8 23.4 1.9 27.3 0 5.9 -2 5.9 -5.9 0 -1.9 3.9 -5.8t3.9 1.9q0 17.6 -2 21.5 -3.9 3.9 -7.8 1.9h-74.2q-5.9 -1.9 0 -5.8h1.9q5.9 0 7.9 -5.9v-93.7q-2 -7.8 -7.9 -5.9 -1.9 -1.9 -3.9 -1.9 -5.8 -3.9 2 -5.9h44.9zM503.9 357.4q2 9.8 9.8 7.8h1.9q7.8 3.9 0 5.9h-42.9q-9.8 -2 0 -5.9h1.9q5.9 2 5.9 -11.7v-78.1q-2 -7.8 -5.9 -7.8h-3.9q-5.9 -3.9 2 -5.9h41q3.9 2 -2 5.9h-1.9q-3.9 0 -5.9 5.8 0 -1.9 0 13.7v70.3zm-72.3 537.1q3.9 2 7.9 0 11.7 -7.8 60.5 -35.1Q546.9 832 609.4 796.9q74.2 -43 136.7 -78.1t78.1 -45q3.9 0 -13.7 0H468.8q-2 0 -2 2v3.9q0 13.7 2 48.8v46.9q0 7.8 -2 13.7v1.9l-3.9 9.8t-23.4 52.7q-2 5.9 -4 0L427.7 834q-7.8 -21.5 -15.6 -41 -5.8 -11.7 -3.9 -21.5 0 -3.9 2 -93.8 1.9 -5.8 -3.9 -3.9H48.8q3.9 2 50.8 29.3 44.9 25.4 109.4 62.5t123 70.3q80.1 46.9 99.6 58.6zM253.9 525.4q0 5.9 5.9 5.9h7.8q29.3 9.7 42.9 -13.7 7.9 -23.5 2 -46.9 -3.9 -21.5 -27.3 -29.3 -3.9 -1.9 -15.7 -1.9 -13.6 -2 -15.6 3.9v82zm207 -29.3q0 7.8 2 39.1v37.1q-2 13.6 -23.4 11.7Q416 580.1 414.1 566.4q0 -5.9 1.9 -37.1v-39.1q-21.5 13.7 -19.5 46.9t33.2 48.8q25.4 9.8 43 -13.6 7.8 -13.7 7.8 -37.1 -2 -23.5 -19.6 -39.1zM437.5 109.4q-15.6 1.9 -15.6 13.6 1.9 13.7 15.6 15.7 13.7 -2 13.7 -15.7 0 -11.7 -13.7 -13.6zM281.3 312.5q-2 3.9 3.9 3.9 19.5 2 21.4 -9.8 3.9 -11.7 2 -15.6Q304.7 275.4 293 273.4t-11.7 2v37.1zm414 11.7L683.6 293l11.7 31.2L683.6 293l-11.7 31.2h23.4z"/></svg>