<svg height="1000" width="1250" xmlns="http://www.w3.org/2000/svg"><path d="M613.3 396.5q39 -7.8 48.8 -35.2l-5.8 -5.8q-5.9 -3.9 -9.8 -7.8 -7.8 17.5 -27.4 21.4 -15.6 -1.9 -19.5 -17.5t13.7 -35.2q-3.9 -3.9 -15.6 3.9 0 -7.8 3.9 -11.7 -13.7 5.9 -21.5 15.6v-11.7q1.9 -3.9 0 -5.9l-7.8 7.9q-7.8 5.8 -9.8 19.5l3.9 -3.9q2 0 2 3.9 -2 3.9 -3.9 19.5t13.6 31.3q-1.9 -2 -1.9 -5.9t5.8 2q0 1.9 7.8 7.8t23.5 5.8v2zm101.5 -43q-3.9 -9.7 -9.7 -7.8 3.9 11.7 0 17.6 7.8 0 9.7 -9.8zm19.6 11.7q-2 -21.4 -25.4 -21.4 11.7 3.9 7.8 13.6 -2 9.8 -17.6 7.8 11.7 -11.7 -1.9 -23.4 0 15.6 -15.7 7.8 -1.9 -1.9 -7.8 -5.8Q666 337.9 662.1 334q-5.8 -3.9 -9.8 -3.9h-3.9q-1.9 -2 -1.9 -3.9 0 -3.9 -2 -5.9t-5.8 -1.9h-3.9q-3.9 -2 -5.9 -7.9 -1.9 9.8 5.9 13.7l3.9 3.9v3.9q0 5.9 7.8 11.8 15.6 11.7 17.6 15.6 3.9 5.8 1.9 9.7v11.8q3.9 11.7 13.7 13.6 -7.8 -7.8 0 -17.5 1.9 19.5 19.5 21.4t25.4 -9.7q-9.8 1.9 -17.6 -3.9 25.4 1.9 27.4 -19.6zm-76.2 -37.1q3.9 2 7.8 5.9 2 0 3.9 3.9 15.6 -33.2 29.3 -33.2t13.7 1.9q11.7 -5.8 27.3 -3.9Q732.4 291 714.8 289.1 707 291 703.1 291l-3.9 2q2 -5.9 5.9 -7.8 -9.8 1.9 -15.6 7.8 -4 3.9 -5.9 3.9 0 -3.9 1.9 -7.8 -15.6 11.7 -19.5 25.4 17.6 -17.6 39.1 -17.6 -33.2 7.8 -46.9 31.2zm474.6 101.6q-64.4 1.9 -99.6 3.9l15.6 15.6v152.4l-15.6 15.6q35.2 1.9 101.6 3.9 60.5 -2 87.9 -27.3t27.3 -68.4T1218.8 457q-31.3 -27.3 -86 -27.3zm-29.3 148.4V472.7v105.4V472.7q87.9 -11.8 89.9 52.7 0 35.1 -27.4 46.9 -25.4 11.7 -62.5 5.8zM589.8 277.3q-3.9 -9.7 2 -17.5 2 7.8 13.7 17.5 0 -7.8 1.9 -15.6 -1.9 -17.6 11.7 -19.5 19.6 5.8 9.8 27.3 3.9 5.9 9.8 11.8 1.9 1.9 5.8 3.9 9.8 -13.7 9.8 -27.4 0 -27.3 -33.2 -31.2 -27.3 0 -33.2 15.6t-5.9 21.5q3.9 13.6 7.8 13.6zm-1.9 11.8q0 1.9 -7.8 5.8l-11.7 7.8q13.6 -1.9 15.6 3.9v5.9q-2 2 -2 3.9 7.8 -7.8 21.5 -11.7 -3.9 -2 -7.8 -2 11.7 -9.7 25.4 -5.8 -9.8 0 -17.6 3.9 5.9 1.9 9.8 1.9 -7.8 3.9 -11.7 11.8 9.7 -5.9 15.6 3.9 5.8 7.8 -2 13.6 3.9 0 5.9 -1.9 -2 3.9 -5.9 7.8 11.8 -2 17.6 -9.8H627q-2 -5.8 0 -9.7 -7.9 5.8 -2 -7.9h-9.8q15.7 -3.9 23.5 -1.9 -2 5.9 -2 7.8 13.7 -1.9 11.7 9.8 9.8 -5.9 9.8 -19.6 -1.9 2 -5.9 3.9 0 -3.9 -3.9 -3.9 0 -13.6 -13.6 -25.3Q623 273.4 621.1 259.8q-3.9 5.8 -2 13.6 3.9 2 5.9 5.9 9.8 5.9 13.7 17.6 -3.9 -7.8 -11.7 -13.7 -13.7 -11.7 -15.7 -25.4 -5.8 7.8 -1.9 21.5 5.8 3.9 7.8 11.7 -3.9 -5.8 -11.7 -11.7 -9.8 -3.9 -15.7 -11.7 -1.9 5.8 2 11.7 2 0 -13.7 0 7.8 3.9 9.8 9.8zm50.8 13.6q-5.9 0 -7.8 -7.8 7.8 5.9 7.8 7.8zm76.1 7.8l-1.9 -1.9 1.9 1.9 -1.9 -1.9q-3.9 -2 -9.8 -2 -7.8 0 -13.6 5.9 -2 2 -2 3.9l-2 2v31.2q13.7 2 5.9 -13.7 5.9 2 9.8 5.9 1.9 0 9.7 -2 5.9 0 9.8 2v-35.2q-1.9 2 -3.9 2zm-558.5 211q23.4 -7.8 27.3 -21.5 5.9 -11.7 3.9 -17.6 -2 -29.3 -27.3 -39 -23.5 -9.8 -45 -9.8H5.9l15.6 17.6v56.6H0l21.5 29.3v62.5L5.9 617.2h50.7q56.7 0 80.1 -2t37.1 -9.7q19.6 -11.7 19.6 -35.2v-1.9q1.9 -9.8 -3.9 -23.5t-33.2 -23.4zM76.2 466.8H84q48.8 -3.9 48.8 19.5v5.9q0 13.7 -15.6 15.6 -13.7 2 -31.3 0h-9.7v-41zm0 117.2v-44.9V584v-44.9h9.7q19.6 -2 35.2 1.9 17.6 2 17.6 15.6v7.9h1.9q-1.9 23.4 -50.8 19.5H76.2zm197.2 -39.1l45 2 -45 -2 45 2v-2l27.3 -41h-72.3v-29.3H375l-27.3 -41H205.1l13.7 15.6v152.4l-13.7 15.6h158.2l27.3 -41H273.4v-31.3zm420 -117.2q-74.3 3.9 -99.6 50.8 -25.4 46.9 0 93.8 23.4 46.8 97.6 50.7 76.2 -3.9 99.6 -50.7 25.4 -46.9 0 -93.8t-97.6 -50.8zm-2 152.4q-35.1 -2 -48.8 -29.3 -11.7 -25.4 1.9 -50.8 11.8 -27.3 46.9 -29.3 37.1 2 48.8 29.3 13.7 25.4 2 50.8 -11.7 27.3 -50.8 29.3zM513.7 562.5l85.9 -128.9 -85.9 128.9 85.9 -128.9h-82l11.7 13.7 -39.1 74.2 -41 -74.2 11.7 -13.7H373l86 128.9v37.1l-13.7 17.6h82l-13.6 -17.6v-37.1zM459 267.6q3.9 1.9 3.9 13.7v76.1q0 9.8 -3.9 11.7 -2 0 -7.8 3.9t-7.8 5.9h68.3q27.4 2 50.8 -17.6 -2 -15.6 2 -23.4 -2 0 -5.9 5.9 -2 -19.6 19.5 -39.1 -3.9 -2 -17.6 1.9 4 -5.8 9.8 -9.7 7.8 -5.9 9.8 -5.9 -15.6 -35.1 -41 -41 -27.4 -5.9 -21.5 -3.9H459q-11.7 -2 -19.5 -7.8 -4 7.8 19.5 29.3zm41 11.7h3.9q9.8 -2 25.4 2 13.7 5.8 15.6 31.2 -1.9 25.4 -15.6 31.3 -15.6 3.9 -25.4 1.9H500v-66.4zm447.3 154.3l13.6 17.6 -13.6 -17.6 13.6 17.6v82q-13.6 -25.4 -50.7 -58.6 -31.3 -27.3 -39.1 -41h-60.6l13.7 17.6v150.4l-13.7 15.6h76.2L873 601.6v-93.8q7.9 17.6 43 48.8 39.1 37.2 50.8 60.6h43v-166l13.6 -17.6h-76.1zm-209 -187.5H679.7q-11.7 -2 -19.5 -7.8 -2 7.8 19.5 29.3 7.8 3.9 5.8 17.6v1.9q4 -3.9 11.8 -5.8 -3.9 1.9 -7.8 7.8 5.8 -7.8 29.3 -5.9 -5.9 0 -11.8 3.9h13.7v-7.8h3.9q11.7 -2 25.4 2 15.6 5.8 17.6 31.2 -2 27.3 -17.6 31.3 -13.7 3.9 -21.5 1.9 15.6 17.6 3.9 33.2Q781.3 375 793 349.6q13.6 -25.4 11.7 -37.1 1.9 -9.8 -9.8 -35.2Q785.2 252 738.3 246.1z"/></svg>