<svg height="1000" width="1125" xmlns="http://www.w3.org/2000/svg"><path d="M162.1 117.2q-5.8 -50.8 23.4 -93.8 0 21.5 7.9 41.1 17.5 -80.1 83.9 -127 -7.8 17.6 -5.8 35.2l3.9 -4q19.5 -25.3 82 -41 44.9 -7.8 82.1 2Q550.8 -43 576.2 70.3q11.7 68.4 -15.7 130.9 -15.6 35.1 -41 68.3l-5.8 -5.8q-2 -3.9 -5.9 -5.9l-29.3 -29.3q-31.2 -29.3 -33.2 -29.3 0 -1.9 -9.8 -13.7 -3.9 -3.9 0 -7.8 23.5 -39 19.6 -85.9Q451.2 62.5 431.6 41 410.2 17.6 378.9 19.5q-29.3 0 -50.8 21.5 -33.2 37.1 -21.5 86v7.8q-9.7 39 -5.8 82 1.9 0 1.9 2 -1.9 0 -1.9 1.9 -62.5 -31.2 -84 -101.6 -25.4 50.8 -11.7 105.5 -44.9 -44.9 -43 -107.4zm916 240.2q-33.2 -33.2 -78.1 -50.8Q962.9 289.1 921.9 291q-29.3 3.9 -56.7 13.7l-15.6 3.9q-15.6 0 -7.8 -13.7 3.9 -7.8 19.5 -15.6 3.9 -3.9 9.8 -7.8 1.9 0 3.9 -2h-9.8q-41 9.8 -76.1 43 -7.8 7.8 -17.6 15.6 -31.3 17.6 -23.5 -1.9 2 -7.8 7.9 -15.7 0 -1.9 1.9 -3.9l3.9 -7.8q2 0 2 -1.9l-2 -2q-78.1 54.7 -111.3 144.6 1.9 0 1.9 1.9v-1.9l2 -2q29.3 -35.2 70.3 -58.6 52.7 -31.2 115.2 -39.1H865.2q-5.8 2 -9.7 2 -54.7 7.8 -101.6 35.2Q668 431.6 607.4 515.6v2h-1.9q27.3 11.7 48.8 31.2 9.8 9.8 23.4 19.6v-2l2 -3.9Q714.8 482.4 771.5 416q48.8 -54.7 121.1 -39 13.7 3.9 23.4 9.7l11.7 3.9 2 -1.9q5.8 -3.9 13.7 -7.8 23.4 -11.8 50.7 -17.6 43 -9.8 87.9 -2v-1.9h-1.9l-2 -2zm-459 343.8q-46.8 -39.1 -52.7 -44.9 -5.9 -5.9 -11.7 -9.8 -3.9 -3.9 -19.5 -15.6l-3.9 5.8q-31.3 56.7 -86 93.8Q416 752 378.9 752q-62.5 0 -95.7 -52.8Q250 640.6 265.6 576.2q13.7 -44.9 35.2 -76.2 21.5 -29.3 37.1 -44.9l3.9 -3.9Q289.1 437.5 252 478.5q0 -41 21.4 -74.2 -70.3 31.2 -125 85.9 0 -11.7 3.9 -46.8 5.9 -35.2 5.9 -39.1 2 -9.8 -5.9 -15.6Q80.1 459 43 554.7q21.5 -17.6 46.8 -31.3 -13.6 31.3 -23.4 78.2 -7.8 48.8 7.8 119.1 11.7 54.7 46.9 101.6 5.9 7.8 13.7 13.6 1.9 3.9 5.8 5.9 -3.9 -21.5 -1.9 -43 1.9 2 3.9 5.9 3.9 5.8 7.8 9.8 37.1 46.8 91.8 70.3 72.3 31.2 152.3 17.5Q474.6 886.7 529.3 834 584 783.2 621.1 709q1.9 -5.9 -2 -7.8zm336 -91.8q-33.2 -9.8 -56.7 -5.9 25.4 9.8 37.1 23.5 17.6 23.4 15.7 46.8 -3.9 25.4 -27.4 43 -33.2 23.4 -74.2 17.6 -3.9 0 -5.8 -2 1.9 -1.9 3.9 -5.8 5.8 -7.8 11.7 -13.7 13.6 -27.4 7.8 -56.6Q863.3 625 841.8 603.5q-3.9 -5.8 -9.8 -9.7 -1.9 0 -3.9 -2v3.9q5.9 25.4 -9.7 44.9 -13.7 17.6 -39.1 17.6 -21.5 -1.9 -37.1 -15.6Q722.7 627 705.1 611.3 666 580.1 627 546.9q-17.6 -13.7 -39.1 -15.6 -9.8 -2 -17.6 -2h-9.8q-15.6 0 -19.5 -17.6 -1.9 -5.8 -3.9 -13.7v-5.8q-5.8 -23.4 -29.3 -27.4 -7.8 -1.9 -17.6 -1.9h-7.8q-37.1 -3.9 -44.9 -41 -11.7 35.1 15.6 58.6 5.9 5.8 11.7 9.7 7.9 5.9 13.7 11.8 13.7 11.7 15.6 29.3l3.9 27.3q7.9 31.2 33.3 48.8 17.5 13.7 33.2 29.3 31.2 25.4 64.4 50.8 21.5 19.5 25.4 43 2 21.5 0 48.8v17.6q0 72.2 64.5 101.5h3.9t3.9 2Q703.1 871.1 707 841.8q3.9 -31.3 19.6 -44.9 1.9 1.9 1.9 3.9v9.7q15.6 64.5 60.6 93.8 46.8 27.3 105.4 17.6 48.9 -7.8 84 -39.1l7.8 -7.8q2 -2 3.9 -5.9 -56.6 13.7 -99.6 -19.5 2 -1.9 3.9 0 62.5 5.9 111.4 -35.1 29.3 -25.4 39 -58.6 7.8 -35.2 -3.9 -70.4 -25.4 -56.6 -85.9 -76.1zm-761.7 -336q-15.7 -25.4 -43 -41 41 -1.9 78.1 7.8Q209 205.1 218.8 164.1q15.6 33.2 46.8 52.7 21.5 13.7 41 25.4 29.3 15.6 48.9 33.2 7.8 5.9 13.6 13.7 2 3.9 5.9 7.8 -2 -2 -2 -5.9 -1.9 -1.9 -1.9 -5.8 -15.6 -31.3 -44.9 -48.9 -5.9 -3.9 -5.9 -9.7 -9.8 -35.2 -1.9 -72.3 1.9 -15.6 7.8 -29.3v-2q3.9 -7.8 7.8 -13.6 0 1.9 1.9 3.9 -1.9 11.7 5.9 35.1 5.9 23.5 31.2 50.8 27.4 27.4 54.7 52.8l11.8 11.7q3.9 1.9 5.8 5.8 25.4 21.5 43 45l1.9 1.9q2 3.9 5.9 7.8 -15.6 -37.1 -46.9 -66.4 -27.3 -27.3 -56.6 -52.7 -9.8 -9.8 -9.8 -21.5 -3.9 -31.3 7.8 -58.6 2 -3.9 3.9 -5.9v7.9q2 5.8 2 13.6 7.8 31.3 27.3 54.7 21.5 25.4 58.6 58.6l11.7 11.7q29.3 25.4 48.9 60.6 15.6 27.3 11.7 58.6 0 1.9 1.9 3.9 19.6 5.8 19.6 27.3 21.5 -7.8 31.2 -27.3 5.9 31.2 -9.7 64.4 -15.7 35.2 -43 48.9v-2q1.9 -11.7 -2 -27.3 -3.9 -17.6 -31.2 -23.5 -11.7 -3.9 -27.4 -3.9h-15.6q7.8 -15.6 9.8 -27.3 3.9 -13.7 -9.8 -17.6 -37.1 -5.9 -70.3 0 -33.2 3.9 -43 9.8 25.4 0 46.9 5.8l-3.9 11.7q-3.9 13.7 -7.8 25.4 -2 9.8 1.9 17.6 5.9 7.8 15.7 2l3.9 -3.9t3.9 -2q-3.9 11.7 -3.9 17.6 -3.9 17.6 -2 17.6 3.9 21.4 25.4 15.6 2 -2 3.9 -2 -5.8 19.6 -33.2 35.2 -29.3 17.6 -54.7 15.6 21.5 -13.7 31.3 -35.1 -19.6 1.9 -37.1 5.8l-2 -1.9q13.7 -9.8 21.5 -25.4 11.7 -31.3 -3.9 -52.8 -13.7 -21.5 -44.9 -25.4 -27.4 -3.9 -50.8 9.8Q293 396.5 337.9 375q-7.8 -2 -11.7 -3.9 -9.8 -2 -13.7 -3.9 -3.9 0 -21.5 -5.9 43 -25.4 89.9 -27.3 -11.8 -5.9 -56.7 0t-80.1 41q17.6 2 33.2 5.9 5.9 0 11.8 1.9Q220.7 404.3 168 453.1q0 -5.8 1.9 -9.7l3.9 -19.6q2 -13.6 0 -25.4Q168 369.1 136.7 365.2q-23.4 -1.9 -46.9 3.9H84q29.3 -25.3 62.5 -41 21.5 -11.7 41 -25.4 17.6 -11.7 5.9 -29.3zm251.9 52.8Q457 375 492.2 373q-13.7 -33.2 -46.9 -46.8z"/></svg>