<svg height="1000" width="875" xmlns="http://www.w3.org/2000/svg"><path d="M584 445.3q-21.5 -11.7 -46.9 -11.7 -39.1 0 -66.4 25.4 -25.4 25.4 -25.4 64.4 0 43 25.4 68.4 25.4 27.3 64.5 27.3 41 0 66.4 -27.3 27.3 -27.3 27.3 -68.4 0 -23.4 -11.7 -44.9T584 445.3zM0 -13.7v875 -875 875h875v-875H0zm732.4 728.5H628.9h103.5H628.9V668H627q-31.3 52.7 -109.4 52.7 -52.8 0 -95.7 -27.3Q380.9 668 357.4 625q-21.5 -44.9 -21.5 -99.6t21.5 -97.7q23.5 -44.9 64.5 -70.3Q464.8 332 515.6 332q31.3 0 58.6 9.8 25.4 9.8 48.8 33.2V222.7l109.4 -23.5v515.6z"/></svg>