<svg height="1000" width="875" xmlns="http://www.w3.org/2000/svg"><path d="M742.2 404.3q9.8 -19.5 9.8 -48.8l-7.9 17.5q9.8 -39 7.9 -78.1 -2 -17.6 0 -35.1h-4q-5.8 -68.4 -48.8 -128.9 -44.9 -58.6 -97.6 -84Q554.7 25.4 500 23.4q-56.6 -3.9 -89.8 11.8 5.8 -3.9 13.6 -5.9h2q9.7 -2 5.8 -5.9 -27.3 2 -39 7.9 -11.7 3.9 -21.5 9.7 -9.8 9.8 -39.1 17.6 -5.8 7.8 11.8 1.9 15.6 -5.8 0 4 -11.8 3.9 -19.6 3.9 -11.7 0 -25.4 5.8t-35.1 27.4q3.9 1.9 11.7 -2 7.8 -7.8 -3.9 7.8 -31.3 2 -76.2 44.9 -43 43 -58.6 70.4l7.8 1.9q-9.7 23.4 -19.5 41 -13.7 23.5 -15.6 41 -2 13.7 -3.9 29.3v11.8q-5.9 41 -7.8 82 0 41 15.6 60.5l-3.9 25.4q1.9 3.9 3.9 5.9v1.9q3.9 7.9 7.8 13.7h-5.9q9.8 31.3 15.7 37.1 7.8 7.8 13.6 7.8 5.9 -1.9 13.7 5.9t21.5 41q-5.9 0 -17.6 -13.7 2 17.6 25.4 50.8l-5.9 5.9q5.9 9.7 15.7 17.6l5.8 5.8q-15.6 -7.8 -3.9 11.7 11.7 17.6 27.4 37.1 1.9 3.9 3.9 5.9 3.9 5.9 5.8 7.8l3.9 -7.8q0 17.6 25.4 48.8l15.7 -1.9q3.9 9.7 15.6 21.5 13.6 11.7 23.4 11.7l-7.8 11.7q19.5 7.8 25.4 11.7 1.9 5.9 31.2 17.6l-9.7 -15.6L377 873q13.6 15.7 39 29.3 27.4 9.8 43 11.8h3.9q13.7 1.9 39.1 9.7 -2 -1.9 -5.9 0 -5.9 -1.9 -13.7 -1.9 -42.9 1.9 -84 -9.8Q302.7 886.7 222.7 810.5 140.6 736.3 93.8 632.8t-43 -218.7q-2 -31.3 0 -60.6 1.9 -43 -3.9 -54.7l1.9 -5.8Q62.5 242.2 95.7 169.9V168q0 1.9 5.9 1.9 3.9 0 11.7 -11.7l3.9 -11.7 1.9 -2q0 -1.9 2 -3.9 5.9 -19.5 15.6 -35.1l5.9 -2q1.9 -13.7 19.5 -33.2 17.6 -17.6 39.1 -35.1l1.9 -2Q220.7 17.6 228.5 7.8l2 7.8q25.4 -21.5 60.5 -39t66.4 -31.3h2q13.6 -5.8 25.4 -11.7 -5.9 9.8 19.5 1.9 15.6 -3.9 31.2 -3.9l-7.8 3.9 -15.6 7.9q19.5 -3.9 29.3 0h2q7.8 1.9 27.3 0 -19.5 3.9 -21.5 7.8 21.5 0 33.2 -2h2q13.6 -5.8 37.1 0l-2 -7.8q19.6 5.9 33.2 9.8l2 1.9 27.3 7.8q15.7 5.9 39.1 19.6 9.8 0 13.7 -2h1.9q7.8 -5.8 29.3 2v1.9h2v2q0 3.9 5.8 7.8 3.9 5.8 21.5 15.6 2 -3.9 -9.8 -15.6h-1.9v-2h-2q48.9 27.4 91.8 76.2T834 173.8q-7.8 -15.6 -7.8 -11.7 -2 2 0 11.7 1.9 15.7 0 15.7 13.6 35.1 19.5 72.2l-1.9 -5.8q-4 -17.6 -13.7 -45t-25.4 -50.7q-2 9.7 -9.8 5.8 -5.8 -1.9 -7.8 2t3.9 23.4q7.8 7.8 7.8 2 0 -9.8 7.8 9.7 2 11.7 5.9 25.4v5.9q2 5.8 3.9 13.6 -3.9 -1.9 -7.8 -7.8 -3.9 -9.7 -5.9 -5.8 7.8 33.2 15.7 35.1l-2 2q-3.9 -2 -3.9 9.8 0 19.5 3.9 21.4 2 3.9 5.9 2 1.9 -2 3.9 -2 -2 7.8 -5.9 15.7 -11.7 21.4 -5.8 50.7 -4 -7.8 -5.9 -13.6 0 -2 -2 -3.9v-2q-1.9 -3.9 -1.9 -5.8 -2 11.7 0 19.5v3.9q1.9 11.7 -5.9 37.1 5.9 -21.5 5.9 -35.2 0 -11.7 -5.9 -3.9 -1.9 31.3 -15.6 56.7h-1.9q-11.8 19.5 -9.8 37.1l-11.7 -13.7q-17.6 27.4 -11.8 29.3v2q4 1.9 -7.8 19.5 3.9 -5.9 2 -7.8 -2 0 3.9 -9.8 -5.9 2 -19.5 17.6 -11.8 11.7 -25.4 21.5Q587.9 603.5 457 552.7q0 -1.9 -5.8 -7.8 -56.7 -39 -84 -85.9Q339.8 414.1 351.6 334q5.8 -3.9 9.7 -19.5v-2q7.8 -29.3 29.3 -46.9 11.7 -25.4 41 -44.9 31.3 -19.5 68.4 -21.5 37.1 0 66.4 15.6 31.3 17.6 46.9 39.1Q584 226.6 541 220.7q-41 -5.9 -84 13.7 -41 19.5 -62.5 58.6 -23.4 41 -19.5 87.9 0 -2 2 -2 1.9 -1.9 1.9 -7.8 3.9 91.8 74.2 140.6t144.6 19.6l1.9 3.9q31.3 -9.8 39.1 -21.5 5.8 -5.9 17.6 -15.7 0 4 -4 5.9 -9.7 7.8 -3.9 9.8 7.9 -3.9 23.5 -15.7l31.2 -27.3 2 -1.9h1.9q0 -2 2 -2l5.8 -5.9 2 -1.9q3.9 -11.7 2 -13.7 -2 -1.9 5.8 -19.5l13.7 -5.9q1.9 -3.9 1.9 -7.8 2 -1.9 2 -3.9v-1.9l1.9 -2h-1.9zM681.6 -9.8zm-197.2 586q-21.5 -11.7 -29.3 -21.5 -2 1.9 -2 3.9Q418 541 390.6 509.8q13.7 21.5 33.2 39 -21.5 -11.7 -42.9 -37.1v-1.9q-13.7 -15.7 -19.6 -17.6 33.2 54.7 101.6 84T582 587.9q-46.8 3.9 -97.6 -11.7zM638.7 341.8q-2 -3.9 -3.9 -5.9 3.9 -9.7 5.8 -11.7 3.9 0 3.9 19.6 -3.9 9.7 -5.8 -2zm-7.8 44.9q-3.9 23.5 -19.6 43 0 -3.9 -5.8 -5.9 -3.9 0 -3.9 -5.8 0 -3.9 15.6 -25.4 -2 5.8 -7.8 13.7v1.9q-5.9 9.8 -7.8 13.7 0 3.9 15.6 -5.9l1.9 -3.9q7.9 -11.7 11.8 -25.4zm-109.4 66.4q21.5 2 41 -3.9 -5.9 7.8 -15.6 15.6 -17.6 -3.9 -27.4 -7.8t2 -3.9zm-179.7 21.5q9.8 17.6 15.6 29.3l2 2q5.8 9.7 13.6 23.4Q359.4 515.6 347.7 500v-2q-3.9 -5.8 -9.8 -11.7l3.9 -11.7zM355.5 457q3.9 9.8 11.7 17.6l3.9 13.7 -2 -3.9q-9.7 -15.6 -15.6 -31.3l2 2v1.9zm466.8 -82q-5.9 50.8 -31.3 97.7 21.5 -43 29.3 -91.8l2 -5.9zM70.3 140.6h3.9q7.8 -5.8 0 15.7h-1.9l-2 1.9q-3.9 2 -7.8 5.9 7.8 -11.8 7.8 -23.5zm-21.5 80.1Q46.9 232.4 43 248v-9.7q-3.9 -7.8 7.8 -25.4 0 3.9 -2 7.8z"/></svg>