<svg height="1000" width="875" xmlns="http://www.w3.org/2000/svg"><path d="M873 56.6q-1.9 -1.9 -1.9 -3.9 -2 -1.9 -2 -3.9Q867.2 41 863.3 33.2q-3.9 -5.9 -9.8 -11.7Q847.7 13.7 839.8 7.8 837.9 3.9 834 2l-7.8 -4q-5.9 -3.9 -11.7 -5.8 -4 -2 -9.8 -2 -11.7 -3.9 -23.4 -3.9H93.8q-39.1 2 -66.5 27.4Q2 41 0 80.1v687.5q0 11.7 3.9 23.4 5.9 23.5 21.5 39.1 1.9 3.9 5.9 7.8 15.6 15.6 39 21.5 11.7 1.9 23.5 1.9h687.5q39 0 66.4 -27.3T875 767.6V80.1q0 -11.7 -2 -23.5zm-60.5 711q-2 29.3 -31.2 31.2H437.5v-375h-375V80.1q2 -29.3 31.3 -31.3h343.7v375h375v343.8z"/></svg>