<svg height="1000" width="1000" xmlns="http://www.w3.org/2000/svg"><path d="M746.1 189.5h101.6H746.1h101.6v468.7H746.1v-41q-29.3 35.1 -70.3 39.1t-74.2 -9.8q-80.1 -39.1 -86 -140.6 0 -45 21.5 -82.1t62.5 -56.6q31.3 -13.7 72.3 -11.7 41 3.9 74.2 37.1V189.5zm-125 316.4q0 27.3 17.6 44.9 17.6 19.5 46.8 19.5t46.9 -19.5T750 505.9t-17.6 -45q-17.6 -17.5 -46.9 -19.5 -29.2 2 -46.8 19.5 -17.6 19.6 -17.6 45zm-252 -316.4h99.7 -99.7 99.7v468.7h-99.7v-41q-31.2 35.1 -72.2 39.1t-72.3 -9.8q-82 -39.1 -87.9 -140.6 0 -45 21.5 -82.1t64.5 -56.6q31.2 -13.7 70.3 -11.7 41 3.9 76.1 37.1V189.5zM242.2 505.9q0 27.3 17.6 44.9 17.5 19.5 46.8 19.5t46.9 -19.5 17.6 -44.9 -17.6 -45q-17.6 -17.5 -46.9 -19.5 -29.3 2 -46.8 19.5 -17.6 19.6 -17.6 45zM875 111.3q25.4 0 44.9 17.6 17.6 17.6 17.6 44.9v500q0 25.4 -17.6 45 -17.6 17.5 -44.9 17.5H125q-25.4 0 -44.9 -17.5 -17.6 -17.6 -17.6 -45v-500q0 -25.4 17.6 -44.9Q97.7 111.3 125 111.3h750zm0 -62.5H125h750H125q-52.7 2 -87.9 37.1T0 173.8v500q2 52.8 37.1 87.9t87.9 37.1h750q52.7 -1.9 87.9 -37.1t37.1 -87.9v-500q-2 -52.7 -37.1 -87.9T875 48.8z"/></svg>