<svg height="1000" width="937.5" xmlns="http://www.w3.org/2000/svg"><path d="M402.3 923.8l60.6 -74.2 -60.6 74.2 60.6 -74.2q37.1 0 72.3 -13.7 52.7 -31.2 64.4 -74.2t9.8 -50.8q0 -3.9 -3.9 -9.7 -3.9 -7.8 -23.5 -29.3 -11.7 -11.7 -29.3 -33.2H707q0 72.2 -7.8 105.4t-11.7 43q-15.6 37.1 -62.5 80.1 -48.8 41 -123 54.7 -15.7 1.9 -43 1.9h-56.7zM793 595.7q56.6 0 89.8 -17.6 33.2 -15.6 54.7 -42.9H595.7l-35.2 60.5H793zM709 158.2v330.1V158.2v330.1H564.5L500 595.7h-11.7q-50.8 -1.9 -74.2 -29.3Q388.7 541 380.9 513.7T375 480.5q-3.9 -19.6 -21.5 -17.6t-17.6 21.5q2 23.4 13.7 54.7t37.1 56.6H209q-27.4 2 -78.1 -19.5Q80.1 556.6 39.1 507.8 -2 457 0 373V-43q0 -23.4 11.7 -27.3 9.8 -5.9 17.6 -5.9h162.1q9.8 -3.9 50.8 9.8 41 11.7 46.9 76.2 1.9 19.5 19.5 19.5T328.1 9.8q0 -52.8 -31.2 -86h164q105.5 2 158.2 43 54.7 41 72.3 95.7t17.6 95.7zM449.2 267.6l125 58.6 -125 -58.6 125 58.6Q585.9 279.3 562.5 252 541 224.6 505.9 226.6q-33.2 1.9 -56.7 41z"/></svg>