<svg height="1000" width="1250" xmlns="http://www.w3.org/2000/svg"><path d="M464.8 511.7h115.3H464.8h115.3L623 453.1H507.8l-43 58.6zM0 476.6v11.7 -11.7 11.7h160.2l9.7 -11.7H0zm337.9 -23.5q-11.7 0 -11.7 -3.9t1.9 -5.8q3.9 -3.9 5.9 -7.9 7.8 -11.7 15.6 -21.4 9.8 -9.8 -5.8 -9.8h-99.7l-80 107.4h195.3q48.8 -1.9 76.1 -23.4t35.2 -35.2H337.9zM957 439.5l78.2 -103.6L957 439.5l78.2 -103.6H914.1l-78.2 103.6H957zm-771.5 13.6H0h185.5H0v11.7h177.7l7.8 -11.7zm216.8 -52.7q-3.9 5.9 -9.7 15.6 -5.9 7.8 -9.8 13.7 -9.8 7.8 9.8 9.8h87.9l9.7 -11.8Q498 416 507.8 404.3q11.7 -19.5 -1.9 -43 -11.8 -23.4 -54.7 -25.4H220.7l-41 54.7h218.7q13.7 0 3.9 9.8zM0 511.7h142.6H0h142.6l9.7 -11.7H0v11.7zm630.9 0h115.2H630.9h115.2l43 -58.6H673.8q-1.9 3.9 -21.5 29.3 -17.5 25.4 -21.4 29.3zm433.6 0H1250h-185.5H1250V500h-175.8l-9.7 11.7zm42.9 -58.6l-7.8 11.7 7.8 -11.7 -7.8 11.7H1250v-11.7h-142.6zm-25.4 35.2h168 -168 168v-11.7h-158.2l-9.8 11.7zM761.7 335.9l-44.9 58.6 44.9 -58.6 -44.9 58.6H666l43 -58.6H595.7l-78.1 103.6h281.2L875 335.9H761.7zm64.5 117.2q-3.9 3.9 -11.7 17.6 -11.8 15.6 -2 27.3 11.7 13.7 46.9 13.7H1043l44.9 -58.6H826.2z"/></svg>