<svg height="1000" width="1000" xmlns="http://www.w3.org/2000/svg"><path d="M492.2 617.2q-3.9 1.9 -37.1 46.9 -33.2 46.8 -72.3 99.6 -27.3 35.1 -44.9 60.5 -17.6 25.4 -19.5 25.4 -3.9 -1.9 -45 -29.3 -41 -29.3 -80 -58.6 -41.1 -27.3 -45 -31.2 0 -2 23.5 -33.2 21.5 -31.3 50.8 -76.2 35.1 -50.8 64.4 -93.8 29.3 -41 31.3 -44.9Q312.5 478.5 248 457L119.1 414.1 48.8 390.6q0 -3.9 15.7 -52.7Q78.1 291 93.8 242.2q15.6 -46.9 17.5 -50.8 3.9 0 62.5 19.5 60.6 19.6 125 41.1 41 11.7 68.4 21.4 25.4 7.9 27.3 9.8 2 0 2 -3.9v-35.2q1.9 -33.2 1.9 -80V46.9q2 -54.7 2 -58.6 3.9 -2 52.7 -2H605.5q0 3.9 1.9 37.1 2 35.2 2 86 1.9 66.4 3.9 123t3.9 60.6q1.9 -2 31.2 -11.7 31.3 -9.8 74.3 -23.5 60.5 -21.5 111.3 -39 50.8 -15.7 54.7 -17.6l17.6 52.7q15.6 48.8 29.2 95.7 15.7 48.8 15.7 52.7 -2 0 -27.4 9.8 -25.4 7.8 -62.5 21.5l-123 41q-56.7 19.5 -62.5 23.4 1.9 2 29.3 45 29.3 41 64.4 91.8l46.9 70.3q19.5 31.2 21.5 33.2 -3.9 1.9 -44.9 31.2 -39.1 31.3 -80.1 60.6t-43 31.2q-1.9 -1.9 -19.5 -25.4 -17.6 -25.4 -44.9 -62.5Q566.4 718.8 531.3 668q-35.2 -48.9 -39.1 -50.8z"/></svg>