<svg height="1000" width="1000" xmlns="http://www.w3.org/2000/svg"><path d="M160.2 259.8H0h160.2H0v341.8h259.8V111.3h-99.6v148.5zm0 261.7H99.6h60.6H99.6V339.8h60.6v181.7zm580 -261.7v341.8V259.8v341.8h160.2v54.7H740.2v80H1000V259.8H740.2zm160.2 261.7h-60.6 60.6 -60.6V339.8h60.6v181.7zm-460.9 80.1h160.1H439.5h160.1v54.7H439.5v80h259.7V259.8H439.5v341.8zm99.6 -261.8h60.5 -60.5 60.5v181.7h-60.5V339.8zM298.8 111.3h101.6H298.8h101.6v99.6H298.8v-99.6zm0 148.5h101.6H298.8h101.6v341.8H298.8V259.8z"/></svg>