<svg height="1000" width="1000" xmlns="http://www.w3.org/2000/svg"><path d="M169.9 865.2h144.6H169.9h144.6V720.7H169.9v144.5zM48.8 601.6v119.1V601.6v119.1h121.1V601.6H48.8zM960.9 269.5Q925.8 160.2 845.7 80.1 763.7 -2 654.3 -37.1q-168 -48.8 -312.5 3.9Q197.3 17.6 107.4 140.6 17.6 261.7 15.6 423.8h187.5q2 -101.5 58.6 -177.7T410.2 140.6t199.2 5.9Q668 168 710.9 212.9q45 43 66.4 101.6 35.2 105.4 5.9 197.2T677.7 662.1Q601.6 718.8 500 720.7v187.5q162.1 -1.9 283.2 -91.8Q906.3 726.6 957 582q52.8 -144.5 3.9 -312.5zM500 720.7V535.2v185.5V535.2H314.5v185.5H500z"/></svg>