<svg height="1000" width="1250" xmlns="http://www.w3.org/2000/svg"><path d="M1025.4 60.5l-2 -1.9Q910.2 7.8 789.1 -13.7q-2 0 -3.9 2 -15.7 29.3 -29.3 60.5Q625 27.3 494.1 48.8 480.5 17.6 464.8 -11.7q-1.9 -2 -3.9 -2Q339.8 7.8 226.6 58.6l-2 1.9Q115.2 226.6 76.2 390.6 39.1 552.7 54.7 712.9q1.9 1.9 1.9 3.9 130.9 95.7 287.2 144.5 1.9 0 3.9 -1.9 33.2 -44.9 58.6 -95.7v-2t-2 -1.9q-46.9 -17.6 -89.8 -43 -2 -2 -2 -3.9t2 -2q9.7 -7.8 17.5 -13.6 2 -2 3.9 -2 142.6 64.5 289.1 64.5 148.4 0 289.1 -64.5 1.9 0 1.9 2 9.8 5.8 19.5 13.6v2t-1.9 3.9q-43 25.4 -87.9 43 -1.9 0 -3.9 1.9 0 2 2 2 25.3 50.8 58.5 95.7 0 1.9 4 1.9 154.2 -48.8 287.1 -144.5v-3.9q31.2 -369.1 -168 -652.4zM433.6 584q-43 -2 -72.3 -35.2Q332 515.6 332 466.8t29.3 -82q29.3 -31.3 72.3 -33.2 44.9 1.9 74.2 35.1 29.3 31.3 29.3 80.1t-29.3 82T433.6 584zm382.8 0q-43 -2 -72.3 -35.2 -29.3 -33.2 -31.2 -82 1.9 -48.8 29.3 -82 29.3 -31.3 74.2 -33.2 44.9 1.9 74.2 35.1 27.4 31.3 29.3 80.1 -1.9 48.8 -31.2 82Q861.3 582 816.4 584z"/></svg>