<svg height="1000" width="1250" xmlns="http://www.w3.org/2000/svg"><path d="M683.6 384.8H554.7h128.9H554.7V269.5h128.9v115.3zm0 -398.5H554.7h128.9H554.7v119.2h128.9V-13.7zm152.3 283.2H707h128.9H707v115.3h128.9V269.5zM531.3 128.9h-129 129 -129v117.2h129V128.9zm152.3 0H554.7h128.9H554.7v117.2h128.9V128.9zm541 195.3q-23.4 -15.6 -64.4 -19.5 -39.1 -3.9 -78.2 1.9 -9.7 -68.3 -80 -123l-27.4 -19.5 -19.5 27.3q-27.4 43 -31.3 99.6t25.4 103.5q-27.3 17.6 -95.7 21.5H3.9q-11.7 76.2 9.8 162.1t76.1 154.3q109.4 128.9 324.3 128.9 232.4 0 396.4 -103.5Q974.6 656.3 1054.7 462.9q35.1 3.9 87.9 -11.7 52.7 -13.7 89.8 -76.2 5.9 -9.8 15.6 -29.3 0 -1.9 2 -3.9l-25.4 -17.6zm-998 -54.7H97.7h128.9H97.7v115.3h128.9V269.5zm152.3 0H250h128.9H250v115.3h128.9V269.5zm152.4 0h-129 129 -129v115.3h129V269.5zM378.9 128.9H250h128.9H250v117.2h128.9V128.9z"/></svg>