<svg height="1000" width="937.5" xmlns="http://www.w3.org/2000/svg"><path d="M937.5 701.2L656.3 541l281.2 160.2L656.3 541v127H478.5q46.9 -54.7 109.4 -132.8Q650.4 455.1 697.3 375q48.8 -93.7 33.2 -173.8 -13.7 -80.1 -58.6 -125Q666 68.4 628.9 41 589.8 13.7 519.5 -3.9q-70.3 -19.5 -171.8 0 -86 19.5 -134.8 56.6T142.6 127q-35.2 66.4 -35.2 93.7 -5.8 50.8 25.4 89.8 29.3 39.1 86 41.1 46.8 -2 78.1 -33.2 33.2 -31.3 33.2 -78.2 0 -41 -25.4 -72.2t-68.4 -39.1q3.9 -11.7 21.5 -27.3 15.6 -15.7 31.3 -21.5 60.5 -23.5 107.4 0 44.9 21.5 54.7 66.4 7.8 58.6 -31.3 117.2Q380.9 324.2 332 375q-9.7 9.8 -17.5 19.5Q205.1 517.6 123 607.4 39.1 695.3 5.9 730.5L0 736.3h656.3v125zM722.7 648.4l91.8 52.8 -91.8 -52.8 91.8 52.8 -91.8 52.7V648.4zm-461 -410.1q-3.9 41 -42.9 44.9 -41.1 -3.9 -45 -44.9 3.9 -39.1 45 -43 39 3.9 42.9 43zM162.1 668q41 -45 127 -138.7 83.9 -95.7 166 -193.4 50.8 -64.4 62.5 -121.1 11.7 -54.6 -5.9 -99.6Q486.3 60.5 462.9 44.9q66.4 5.9 103.5 29.3t58.6 46.9q2 0 17.6 27.3 17.6 29.3 21.5 78.2 5.8 50.7 -29.3 115.2 -37.1 64.5 -87.9 132.8Q494.1 543 449.2 593.8q-44.9 52.7 -64.4 74.2H162.1z"/></svg>