<svg height="1000" width="1000" xmlns="http://www.w3.org/2000/svg"><path d="M500 -60.5Q365.2 -58.6 255.9 5.9 146.5 70.3 82 179.7 17.6 289.1 15.6 423.8 17.6 558.6 82 668t173.9 173.8T500 908.2q134.8 -1.9 244.1 -66.4T918 668t66.4 -244.2Q982.4 289.1 918 179.7T744.1 5.9 500 -60.5zm320.3 222.6q89.9 109.4 93.8 257.8Q900.4 416 816.4 406.3T625 408.2q-15.6 -39.1 -35.2 -82 113.3 -50.8 170 -101.6 54.7 -48.8 60.5 -62.5zm-46.9 -46.9q-3.9 11.8 -54.6 58.6Q666 220.7 556.6 263.7 503.9 169.9 459 101.6 414.1 35.2 402.3 21.5 502 -2 599.6 23.4q97.7 23.5 173.8 91.8zM324.2 50.8q9.8 11.7 54.7 78.1 44.9 66.4 97.7 160.2Q328.1 326.2 220.7 334t-125 5.8Q115.2 242.2 175.8 168 236.3 91.8 324.2 50.8zm-238.3 373v-11.7q19.6 2 142.6 -5.8 123.1 -9.8 283.2 -52.8 17.6 35.2 33.2 70.3Q431.6 457 337.9 535.2t-144.5 166Q89.8 587.9 85.9 423.8zM246.1 750q33.2 -68.4 117.2 -140.6 84 -72.3 210.9 -117.2 43 115.2 62.5 199.2 21.5 84 25.4 113.3 -101.6 43 -212.9 31.2Q339.8 822.3 246.1 750zm484.4 17.6Q728.5 746.1 709 666 691.4 585.9 650.4 472.7q99.6 -13.7 171.9 0 72.2 11.7 85.9 17.5 -13.7 86 -60.5 158.2 -46.9 70.4 -117.2 119.2z"/></svg>