<svg height="1000" width="937.5" xmlns="http://www.w3.org/2000/svg"><path d="M611.3 17.6Q615.2 -2 636.7 -5.9q23.5 -1.9 46.9 5.9 3.9 0 23.4 9.8t13.7 19.5q-37.1 -5.9 -66.4 3.9 -19.5 5.9 -31.3 3.9 -11.7 0 -11.7 -19.5zM218.8 29.3q41 -5.9 74.2 5.9 21.5 5.8 33.2 3.9 11.7 -2 11.7 -23.5 -2 -19.5 -27.4 -23.4 -23.4 -3.9 -50.7 5.8 -5.9 0 -27.4 11.8 -21.5 9.7 -13.6 19.5zm404.2 207q-27.3 2 -31.2 31.3 3.9 29.3 31.2 31.2 29.3 -1.9 31.3 -31.2 -2 -29.3 -31.3 -31.3zm-310.5 0q-29.3 2 -31.2 31.3 1.9 29.3 31.2 31.2 27.3 -1.9 31.3 -31.2 -4 -29.3 -31.3 -31.3zm621.1 318.4q-15.6 33.2 -52.7 25.4 -35.2 -7.8 -72.3 -27.4 -43 203.2 -246.1 242.2 -2 2 5.9 2h41q93.7 1.9 187.5 -15.6h1.9q-25.4 -21.5 -25.4 -46.9 2 -23.5 7.9 -27.4 1.9 -1.9 15.6 3.9 13.6 3.9 25.4 19.6 15.6 -19.6 35.1 -23.5 19.6 -5.8 23.5 -3.9 3.9 3.9 5.8 25.4 0 21.5 -17.6 43 13.7 -3.9 17.6 -3.9 7.8 0 15.6 9.7 9.8 11.8 -9.7 15.7 -23.5 3.9 -48.8 9.7 -17.6 5.9 -43 11.8Q668 839.8 574.2 837.9h-1.9l1.9 23.4q2 27.4 -21.5 33.2 -23.4 3.9 -33.2 -21.5 -1.9 27.4 -25.4 29.3 -25.3 2 -29.3 -31.2l-1.9 9.8q-3.9 27.3 -27.4 27.3 -25.3 0 -27.3 -27.3 -13.7 19.5 -33.2 11.7 -19.5 -5.9 -19.5 -29.3l3.9 -23.5q-86 2 -113.3 5.9h-7.8Q207 841.8 207 814.5t31.3 -31.3q3.9 2 33.2 2 33.2 1.9 89.8 3.9Q175.8 744.1 136.7 558.6q-39 21.5 -76.2 29.3 -39 7.8 -56.6 -27.4Q-7.8 527.3 19.5 500q29.3 -27.3 86 -62.5 13.6 -9.8 29.3 -21.5 1.9 -17.6 3.9 -37.1 -25.4 -41 -25.4 -82 -2 -17.6 -5.9 -37.1 -46.9 1.9 -44.9 -45 2 -25.3 3.9 -29.3 3.9 -3.9 17.6 -3.9 5.8 -1.9 7.8 -1.9 11.7 -44.9 62.5 -54.7Q207 113.3 269.5 113.3 324.2 43 427.7 17.6q-21.4 -29.3 -15.6 -52.8t9.8 -25.3 23.4 7.8 29.3 37.1q7.8 -11.7 21.5 -17.6 13.7 -3.9 15.6 -2 3.9 0 3.9 17.6 2 15.6 -13.6 31.3 119.1 17.6 187.5 99.6 54.6 1.9 97.6 13.7 43 13.6 52.7 52.7 4 0 7.9 1.9 13.6 0 17.5 3.9 2 4 3.9 29.3 2 46.9 -44.9 45 -3.9 17.5 -5.8 35.1 -2 29.3 -11.8 58.6 7.9 33.2 9.8 70.3 15.6 11.7 29.3 19.6 46.9 29.3 72.3 56.6 27.3 25.4 15.6 54.7zM404.3 236.3q0 -62.5 -44.9 -72.2Q314.5 152.3 252 158.2q-66.5 -3.9 -89.9 25.4 -9.8 23.4 -5.8 66.4 5.8 43 19.5 82 15.6 39.1 31.2 50.8 11.8 3.9 46.9 5.9t72.3 -2q35.1 -3.9 50.8 -17.6 11.7 -17.5 19.5 -60.5 9.8 -43 7.8 -72.3zm101.6 113.3q-2 -9.8 -5.9 -19.5 -5.9 -35.2 -23.4 -43 -9.8 -1.9 -21.5 0 -17.6 7.8 -23.5 41 -3.9 15.7 -9.7 31.3 27.3 1.9 37.1 13.6 5.8 4 9.8 4t9.7 -5.9q5.9 -13.7 27.4 -21.5zM771.5 185.5Q761.7 168 738.3 162.1q-25.4 -3.9 -56.7 -3.9h-1.9q-60.6 -5.9 -105.5 5.9 -42.9 9.7 -44.9 72.2 0 29.3 7.8 72.3 5.9 43 19.5 60.5 13.7 13.7 48.9 17.6 37.1 3.9 72.2 2t46.9 -5.9Q740.2 373 755.9 334t21.4 -82 -5.8 -66.5z"/></svg>