<svg height="1000" width="1250" xmlns="http://www.w3.org/2000/svg"><path d="M1183.6 294.9l-107.4 212.9 107.4 -212.9 -107.4 212.9L968.8 294.9h-72.3L918 334Q878.9 281.3 793 283.2q-48.9 0 -89.9 17.6t-48.8 66.4h66.4q7.8 -41 68.4 -43 78.1 -1.9 80 64.5v7.8h-82q-126.9 0 -150.4 68.3 3.9 -15.6 3.9 -33.2 -3.9 -76.1 -48.8 -111.3 -44.9 -37.1 -99.6 -37.1 -64.5 -3.9 -113.3 46.9V173.8h-62.5v330.1q-1.9 33.2 -3.9 64.5H375q2 -17.6 2 -37.1 42.9 48.8 115.2 48.8 54.7 -2 91.8 -29.3 37.1 -29.3 50.8 -76.2 -2 7.8 -2 17.6 0 35.1 31.3 60.5 29.3 25.4 87.9 27.4 76.1 3.9 121 -50.8 0 19.5 2 39.1h58.6q-2 -23.5 -2 -50.8V388.7q0 -27.4 -9.7 -46.9L1041 568.4l-54.7 105.4h70.3L1250 294.9h-66.4zm-707 242.2q-45 -1.9 -70.3 -29.3 -27.4 -27.3 -27.4 -76.2t27.4 -76.1q25.3 -27.4 70.3 -29.3 42.9 1.9 70.3 29.3t27.3 76.1 -27.3 76.2 -70.3 29.3zm392.5 -91.8q-1.9 89.9 -101.5 93.8 -37.1 -2 -52.8 -15.7 -15.6 -15.6 -15.6 -35.1 3.9 -50.8 91.8 -48.8 41 -2 78.1 -2v7.8zm-804.6 2h250 -250 250v-15.7q0 -76.1 -43 -111.3 -41 -37.1 -109.4 -37.1 -82 2 -123 41Q0 365.2 0 435.5 0 498 39.1 539.1q39 39 123 41 46.9 0 89.9 -19.6 42.9 -21.4 54.6 -70.3h-64.4q-13.7 35.2 -54.7 45t-80.1 -9.8Q70.3 503.9 64.5 447.3zm185.5 -41H64.5 250 64.5q9.7 -56.7 52.7 -74.3t85.9 2q41 17.6 46.9 72.3z"/></svg>