<svg height="1000" width="1000" xmlns="http://www.w3.org/2000/svg"><path d="M234.4 -3.9q123 -74.2 263.6 -72.3 164.1 2 275.4 70.3 113.3 66.4 170 164.1t56.6 195.3q-2 97.7 -70.3 169.9 -70.3 68.4 -169.9 72.3Q652.3 593.8 615.2 570.3 580.1 548.8 582 533.2q0 -9.8 9.8 -19.5l2 -2v-1.9Q625 474.6 625 427.7 621.1 308.6 519.5 230.5T265.6 148.4q-111.3 0 -210.9 52.8 44.9 -84 103.5 -138.7Q216.8 9.8 234.4 -2q1.9 -1.9 0 -1.9zm31.2 623q-3.9 87.9 31.3 170 41 78.1 111.3 134.7Q230.5 886.7 115.2 750 2 609.4 0 427.7 3.9 349.6 78.1 298.8q76.2 -52.7 187.5 -54.7 109.4 -1.9 199.2 62.5l-7.8 2q-78.1 31.2 -132.8 119.1 -56.6 87.9 -58.6 191.4zm652.4 86h-2 2 -2q-35.1 54.7 -82 97.6 -91.8 82.1 -212.9 97.7 -54.7 0 -105.5 -23.4Q439.5 843.8 396.5 773.4q-43 -72.2 -37.1 -154.3 0 -60.5 29.3 -115.2 41 99.6 130.8 158.2 91.8 58.6 199.3 56.7 91.7 0 175.7 -41.1l3.9 -1.9q11.8 -7.8 21.5 0 9.8 13.7 -1.9 27.3v2z"/></svg>