<svg height="1000" width="1000" xmlns="http://www.w3.org/2000/svg"><path d="M50.8 369.1zm898.4 31.3q3.9 -128.9 -56.6 -240.2Q832 52.7 732.4 -3.9 630.9 -60.5 505.9 -60.5 300.8 -54.7 185.5 70.3 72.3 195.3 50.8 369.1q62.5 -93.7 169.9 -164Q330.1 132.8 480.5 125q5.8 -2 54.7 7.8 50.7 7.8 99.6 52.7 46.8 43 41 144.6H332q9.8 -54.7 27.4 -89.9 15.6 -37.1 39 -64.4Q287.1 226.6 224.6 316.4 162.1 408.2 164.1 543q1.9 107.4 66.4 201.1 64.4 91.8 167.9 134.8 128.9 43 261.8 23.4t207 -64.4V632.8q-84 56.7 -207 70.3Q537.1 718.8 439.5 671.9 343.8 625 335.9 502h613.3V400.4z"/></svg>