<svg height="1000" width="968.8" xmlns="http://www.w3.org/2000/svg"><path d="M484.4 -60.5Q349.6 -58.6 240.2 5.9 130.9 70.3 66.4 179.7 2 289.1 0 423.8 2 558.6 66.4 668t173.8 173.8 244.2 66.4q134.7 -1.9 244.1 -66.4T902.3 668t66.5 -244.2q-2 -134.7 -66.5 -244.1T728.5 5.9 484.4 -60.5zm281.2 556.6q-27.3 97.7 -103.5 156.2 -76.2 60.6 -177.7 62.5Q382.8 712.9 306.6 652.3 230.5 593.8 203.1 496.1q-3.9 -25.4 19.6 -33.2 25.3 -3.9 33.2 19.5 23.4 78.1 85.9 127 60.5 46.9 142.6 48.8 82 -1.9 142.6 -48.8 62.5 -48.9 85.9 -127 7.8 -25.4 33.2 -19.5 23.4 7.8 19.5 33.2z"/></svg>