<svg height="1000" width="968.8" xmlns="http://www.w3.org/2000/svg"><path d="M562.5 29.3q-33.2 -5.9 -66.4 -5.9v-37.1q115.2 5.9 209 60.6t152.3 148.4l-31.2 17.6q-17.6 -27.4 -39.1 -52.7L752 191.4Q673.8 101.6 552.7 76.2l9.8 -46.9zm-459 523.4l44.9 -13.6 -44.9 13.6 44.9 -13.6Q130.9 484.4 128.9 423.8q0 -60.5 19.5 -115.2l-44.9 -13.7q11.7 -33.2 27.4 -60.5L99.6 214.8q-50.8 95.7 -52.7 209 1.9 113.3 52.7 209l31.3 -17.6q-15.7 -29.3 -27.4 -62.5zM416 771.5Q294.9 746.1 216.8 656.3l-35.2 31.2q-21.4 -25.4 -39 -52.7l-31.3 17.5q58.6 91.8 152.4 148.5 93.7 54.7 209 60.5v-37.1q-33.2 0 -66.4 -5.8l9.7 -46.9zM181.6 160.2l35.2 29.3 -35.2 -29.3 35.2 29.3Q294.9 101.6 416 76.2l-7.8 -46.9q31.3 -5.9 64.5 -5.9v-37.1q-115.3 5.9 -209 60.6T111.3 195.3l31.3 17.6q17.6 -29.3 39 -52.7zm605.5 527.3L752 656.3l35.1 31.2L752 656.3q-78.2 89.8 -199.3 115.2l9.8 46.9q-33.2 5.8 -66.4 5.8v37.1q115.2 -5.8 209 -60.5 93.7 -56.7 152.3 -148.5l-31.2 -17.5q-17.6 27.3 -39.1 52.7zM968.8 423.8q-2 134.8 -66.5 244.2Q837.9 777.3 728.5 841.8q-109.4 64.5 -244.1 66.4Q349.6 906.3 240.2 841.8T66.4 668 0 423.8Q2 289.1 66.4 179.7T240.2 5.9t244.2 -66.4q134.7 1.9 244.1 66.4t173.8 173.8 66.5 244.1zm-23.5 0Q943.4 294.9 882.8 191.4 820.3 87.9 716.8 25.4 613.3 -35.2 484.4 -37.1 355.5 -35.2 252 25.4 148.4 87.9 85.9 191.4 25.4 294.9 23.4 423.8q2 128.9 62.5 232.5 62.5 103.5 166.1 166 103.5 60.5 232.4 62.5 128.9 -2 232.4 -62.5 103.5 -62.5 166 -166 60.6 -103.6 62.5 -232.5zm-76.2 -209l-31.2 19.6 31.2 -19.6 -31.2 19.6q15.6 27.3 27.3 60.5l-44.9 13.7q19.5 54.7 19.5 115.2 -1.9 60.6 -19.5 115.3l44.9 13.6q-11.7 31.3 -27.3 60.6l31.2 17.6q50.8 -91.8 52.8 -207.1 -2 -113.3 -52.8 -209zM511.7 562.5q48.8 -9.8 80.1 -44.9l99.6 85.9q35.2 -39 52.7 -89.8l-125 -44.9q5.9 -21.5 7.9 -45 -2 -23.4 -7.9 -46.8l125 -43q-17.5 -50.8 -52.7 -89.9l-99.6 86q-31.3 -35.2 -80.1 -44.9l25.4 -130.9q-25.4 -5.9 -52.7 -5.9t-52.8 5.9L457 285.2q-48.8 9.7 -78.1 44.9l-101.6 -86q-35.1 39.1 -52.7 89.9l125 43q-5.8 23.4 -5.8 46.8t5.8 45l-125 44.9q17.6 50.8 52.7 89.8l101.6 -85.9q29.3 35.1 78.1 44.9l-25.4 130.9q25.4 3.9 52.8 5.8 27.3 -1.9 52.7 -5.8L511.7 562.5z"/></svg>