<svg height="1000" width="875" xmlns="http://www.w3.org/2000/svg"><path d="M0 -13.7q306.6 3.9 464.8 78.2Q625 140.6 681.6 252q56.7 109.3 56.7 218.7 -2 109.4 -15.6 179.7 -5.9 35.1 -5.9 50.8L875 861.3h-50.8L687.5 722.7q-17.6 1.9 -41 5.8 -66.4 15.6 -166 11.7 -99.6 -5.8 -212.9 -89.8Q173.8 574.2 132.8 474.6 93.8 375 60.5 226.6 37.1 123 0 -13.7zm156.3 89.9Q109.4 54.7 109.4 60.5q0 5.9 17.6 19.6 15.6 11.7 19.5 13.7 60.5 44.9 99.6 101.5 37.1 56.7 68.4 121.1l7.8 11.7q44.9 91.8 115.2 187.5t166 140.7q68.4 29.2 74.2 29.2 3.9 0 -23.4 -19.5 -17.6 -11.7 -39.1 -27.3Q572.3 603.5 521.5 527.3q-48.8 -74.2 -84 -142.5 -2 -3.9 -5.9 -7.8 -41 -87.9 -101.5 -166.1Q271.5 132.8 156.3 76.2z"/></svg>