<svg height="1000" width="750" xmlns="http://www.w3.org/2000/svg"><path d="M750 603.5q-2 13.7 -7.8 66.4 -7.8 52.8 -13.7 109.4 -5.8 56.6 -7.8 82 -169.9 -5.8 -337.9 -5.8 -168 -2 -382.8 5.8v-48.8q15.6 -3.9 29.3 -5.9 48.8 -7.8 70.3 -19.5 19.5 -11.7 19.5 -44.9 2 -74.2 3.9 -191.4V312.5q0 -119.1 -3.9 -199.2 0 -35.2 -19.5 -44.9Q82 56.6 29.3 48.8 15.6 46.9 0 43V-5.9h9.8q78.1 2 203.1 5.9 125 2 257.8 0T709 -13.7q-3.9 39.1 -7.8 97.7 -2 56.6 -3.9 101.5 -3.9 45 -3.9 46.9v2h-45q-3.9 -13.7 -5.8 -27.4Q628.9 148.4 607.4 103.5 587.9 58.6 541 56.6H273.4q-25.4 0 -19.5 19.6v320.3q169.9 -2 171.9 -5.9 37.1 0 48.8 -17.6T498 298.8q2 -15.6 7.9 -35.1h50.7q-3.9 48.8 -3.9 78.1 -1.9 46.9 -3.9 70.3v54.7q2 31.2 3.9 109.4H502q-4 -15.7 -5.9 -29.3Q488.3 502 474.6 480.5 462.9 457 423.8 455.1q2 0 -37.1 -2 -37.1 0 -134.7 -1.9v271.5q0 76.1 87.8 76.1h173.9q80.1 0 111.3 -33.2 31.3 -35.1 62.5 -119.1 9.8 -19.5 19.5 -43h43z"/></svg>