<svg height="1000" width="750" xmlns="http://www.w3.org/2000/svg"><path d="M236.3 181.6q0 31.3 -15.6 37.2 -17.6 5.8 -25.4 5.8H58.6q-17.6 2 -27.3 5.9h-2L242.2 13.7v1.9q-3.9 9.8 -5.9 27.4v138.6zm154.3 601.6q-19.5 -56.6 11.7 -101.6 31.3 -44.9 89.9 -46.8 27.3 1.9 31.2 23.4 5.9 23.4 -15.6 37.1 -3.9 2 -11.7 3.9 -13.7 2 -23.4 7.8 -11.8 7.8 -13.7 25.4 1.9 25.4 21.5 37.1 21.5 11.8 39 11.8 37.1 0 64.5 -25.4 25.4 -27.4 25.4 -64.5 1.9 -19.5 -17.6 -56.6Q574.2 599.6 515.6 584h-3.9q-25.4 -2 -72.2 -21.5t-56.7 -76.2q-5.8 27.4 -25.4 74.2 -21.5 46.9 -58.6 60.6 -17.5 5.9 -85.9 -2Q146.5 609.4 78.1 548.8q-1.9 0 -19.5 -25.4Q39.1 498 23.4 435.5l-3.9 -15.6Q7.8 371.1 2 314.5 5.9 259.8 50.8 252H123q66.5 0 89.9 -2T248 236.3q11.8 -7.8 13.7 -31.2t2 -95.7V35.2Q261.7 21.5 283.2 0q19.5 -19.5 84 -11.7 11.7 0 37.1 11.7t35.2 48.8l126.9 21.5q3.9 0 11.7 2 37.1 1.9 82.1 23.4 46.8 21.5 62.5 87.9 21.4 119.1 25.3 224.6 2 105.5 -1.9 171.9 -5.9 66.4 -7.8 68.3Q720.7 757.8 668 802.7q-50.8 45 -97.7 52.8 -44.9 7.8 -48.8 5.8 -29.3 0 -70.3 -17.5 -39.1 -15.7 -60.6 -60.6zM548.8 382.8q-5.8 9.8 2 13.7 21.5 7.8 50.8 9.8 27.3 3.9 37.1 1.9 7.8 -3.9 5.8 -13.7 -9.7 -31.2 -44.9 -37.1 -35.1 -3.9 -50.8 25.4z"/></svg>