<svg height="1000" width="968.8" xmlns="http://www.w3.org/2000/svg"><path d="M484.4 7.8q-175.8 5.9 -293 123.1Q74.2 248 68.4 423.8q5.8 175.8 123 293t293 123q175.8 -5.8 292.9 -123t123.1 -293Q894.5 248 777.3 130.9T484.4 7.8zM294.9 267.6q2 -80.1 54.7 -134.8Q404.3 80.1 484.4 78.1q80.1 2 134.7 54.7 52.8 54.7 54.7 134.8v52.7q0 15.6 -15.6 17.6H623q-15.6 -2 -17.5 -17.6v-52.7Q601.6 187.5 543 162.1q-58.6 -27.3 -117.2 0 -58.6 25.4 -62.5 105.5v52.7q-2 15.6 -17.6 17.6h-35.2q-15.6 -2 -17.5 -17.6v-52.7h1.9zM761.7 666q-3.9 31.3 -35.1 35.2H242.2Q210.9 697.3 207 666V388.7q3.9 -31.3 35.2 -33.2h484.4q31.2 1.9 35.1 33.2V666zM277.3 398.4v259.8V398.4v259.8q-1.9 7.8 -9.7 7.8H250q-7.8 0 -7.8 -7.8V398.4q0 -7.8 7.8 -9.7h17.6q7.8 1.9 9.7 9.7zm275.4 93.8q-1.9 41 -33.2 60.5v60.6q-1.9 17.6 -17.5 17.6h-35.2q-15.6 0 -17.6 -17.6v-60.6Q416 533.2 416 492.2q0 -29.3 19.5 -48.8t48.9 -19.6 48.8 19.6 19.5 48.8zM484.4 -60.5Q349.6 -58.6 240.2 5.9 130.9 70.3 66.4 179.7 2 289.1 0 423.8 2 558.6 66.4 668t173.8 173.8 244.2 66.4q134.7 -1.9 244.1 -66.4T902.3 668t66.5 -244.2q-2 -134.7 -66.5 -244.1T728.5 5.9 484.4 -60.5zm0 933.5q-125 0 -226.6 -60.5Q156.3 752 95.7 650.4 35.2 548.8 35.2 423.8T95.7 197.3 257.8 35.2t226.6 -60.6 226.5 60.6T873 197.3t60.6 226.5T873 650.4 710.9 812.5 484.4 873z"/></svg>