<svg height="1000" width="1000" xmlns="http://www.w3.org/2000/svg"><path d="M502 -60.5Q291 -56.6 156.3 72.3 19.5 203.1 15.6 410.2q0 105.4 41 193.3Q95.7 693.4 168 757.8q9.7 5.9 11.7 19.5t3.9 50.8v43q1.9 19.5 17.6 31.2 17.6 9.8 37.1 2 29.3 -11.7 48.8 -21.5 39.1 -17.6 52.7 -21.5 11.8 -3.9 21.5 0 152.4 39.1 295 -5.8 140.6 -43 232.4 -158.2t95.7 -287.1Q980.5 203.1 845.7 72.3 710.9 -56.6 502 -60.5zm291 361.3L650.4 527.3 793 300.8 650.4 527.3q-17.6 25.4 -48.8 31.3t-56.7 -11.7l-113.3 -86q-17.5 -11.7 -35.1 0L242.2 578.1q-15.6 9.8 -29.3 -1.9Q201.2 564.5 209 546.9L351.6 320.3q17.5 -25.4 48.8 -31.2t56.6 11.7l113.3 85.9q17.6 11.7 35.2 0L759.8 271.5q15.6 -11.7 29.3 0 11.7 11.7 3.9 29.3z"/></svg>