<svg height="1000" width="1000" xmlns="http://www.w3.org/2000/svg"><path d="M500 -11.7L64.5 423.8 500 -11.7 64.5 423.8 500 859.4 935.5 423.8 500 -11.7zM171.9 423.8q1.9 0 1.9 -1.9l37.1 -39.1L361.3 232.4Q421.9 171.9 484.4 166q60.5 -7.8 111.3 31.3 39.1 29.3 78.1 70.3t43 44.9q2 3.9 0 5.9 -27.3 29.3 -54.7 56.6 -3.9 5.9 -9.8 11.7 -48.8 -46.9 -66.4 -62.5 -19.5 -17.6 -29.3 -23.4Q531.3 281.3 500 285.2q-31.2 1.9 -54.7 25.3 -5.8 5.9 0 9.8l31.3 31.3 39 39q-35.1 33.2 -70.3 68.4 -19.5 -21.5 -39 -41L373 384.8q-44.9 42.9 -87.8 85.9L252 503.9zm459 197.3q-52.8 52.7 -109.4 60.5 -56.7 7.9 -99.6 -19.5 -29.3 -17.6 -58.6 -46.9Q334 587.9 291 543l-11.7 -11.7q11.7 -9.8 21.5 -21.5 23.4 -25.4 48.8 -48.9l21.5 21.5q31.2 31.3 44.9 43 11.7 9.8 19.5 17.6 60.6 42.9 117.2 -3.9 9.8 -5.9 0 -13.7L529.3 502l-39.1 -39.1v-2q-5.8 -1.9 -1.9 -7.8 17.6 -15.6 33.2 -33.2l29.3 -29.3 1.9 -1.9h2q17.6 15.6 33.2 33.2 19.5 21.5 41 41 35.2 -35.2 72.3 -70.3L748 345.7l43 43q17.6 17.6 37.1 35.1l-60.5 60.6q-39.1 41 -78.1 78.1l-58.6 58.6zM500 -76.2L0 423.8l500 -500L0 423.8l500 500 500 -500 -500 -500zm-468.7 500L500 -44.9 31.3 423.8 500 -44.9l468.8 468.7L500 892.6 31.3 423.8z"/></svg>