<svg height="1000" width="1250" xmlns="http://www.w3.org/2000/svg"><path d="M1144.5 480.5L1248 363.3l-103.5 117.2L1248 363.3h-121l-43 46.9 -43 -46.9H808.6V332H918v-93.7H623v146.5h-1.9q-27.3 -31.3 -68.4 -29.3 -42.9 1.9 -70.3 25.4 -29.3 25.4 -41 62.5Q421.9 386.7 375 365.2q-48.8 -19.5 -97.7 -5.8T203.1 416v-46.9H95.7v-50.7h117.2v-80.1H0v359.4h95.7V447.3h95.7q-3.9 15.6 -3.9 35.1 2 72.3 52.7 103.5 50.8 33.2 111.4 21.5 58.6 -13.6 89.8 -80.1h-82q-25.4 29.3 -56.7 19.6Q271.5 535.2 269.5 500h166q7.9 44.9 39.1 78.1 31.3 31.3 80.1 33.2 43 -1.9 66.4 -37.1h1.9v23.5h414.1l43 -48.9 44.9 48.9h125L1144.5 480.5zm-873 -33.2q13.7 -39.1 46.9 -39.1 33.2 2 44.9 39.1h-91.8zM572.3 543q-35.2 -2 -45 -31.3 -11.7 -31.2 0 -60.5 11.8 -29.3 45 -31.3 31.2 2 42.9 31.3t0 60.5Q605.5 541 572.3 543zm328.1 37.1H714.8h185.6H714.8V253.9h185.6v60.6H791v66.4h109.4v54.6H789.1v86h111.3v58.6zM810.5 502v-46.9V502v-46.9h109.4v-86l97.7 111.4 -97.7 111.3V502H810.5zm269.6 19.5l-50.8 58.6 50.8 -58.6 -50.8 58.6h-74.2l89.8 -99.6L955.1 378.9h78.1l50.8 58.6 50.8 -58.6h74.2l-87.9 101.6 89.8 99.6h-80l-50.8 -58.6z"/></svg>