<svg height="1000" width="875" xmlns="http://www.w3.org/2000/svg"><path d="M0 423.8q2 -123 60.5 -220.7Q119.1 103.5 216.8 46.9q97.7 -58.6 220.7 -60.6 123 2 220.7 60.6 99.6 56.6 156.3 156.2Q873 300.8 875 423.8q-2 123.1 -60.5 220.7 -56.7 99.6 -156.3 156.3 -97.7 58.6 -220.7 60.5H99.6Q56.6 859.4 29.3 832T0 761.7V423.8zm669.9 -123Q668 240.2 625 205.1 584 168 525.4 166q-50.8 2 -89.9 35.2 -39 31.2 -46.8 82v39.1q0 50.7 -2 103.5 3.9 78.1 0 150.4 0 39 -25.4 64.4 -23.4 23.5 -62.5 23.5 -37.1 0 -62.5 -25.4t-25.4 -62.5q2 -41 27.4 -66.4 27.3 -23.5 66.4 -23.5l52.7 -1.9v-72.3h-52.7q-70.3 2 -117.2 46.9 -46.9 46.9 -50.8 117.2 2 68.3 48.8 113.3 45 46.8 113.3 48.8 64.5 -2 109.4 -44.9 44.9 -41.1 52.7 -103.6V484.4h64.5q37.1 -3.9 37.1 -37.1 0 -31.3 -37.1 -35.2h-64.5V300.8q2 -25.4 19.6 -43 19.5 -17.6 44.9 -17.6 27.3 -1.9 48.8 13.7 21.5 13.7 21.5 46.9v11.7q-1.9 35.2 31.3 43 33.2 1.9 41 -33.2 1.9 -11.8 1.9 -21.5z"/></svg>