<svg height="1000" width="1000" xmlns="http://www.w3.org/2000/svg"><path d="M253.9 173.8zm687.5 87.9q-17.6 -39 -43 -72.2 -27.3 -35.2 -52.7 -48.9 39.1 82.1 46.9 144.6v1.9Q869.1 226.6 835.9 183.6q-31.2 -43 -68.3 -82Q718.8 48.8 673.8 -19.5q-25.4 -43 -23.4 -46.9 0 -2 -2 -2Q580.1 -27.3 539.1 39.1t-52.8 132.8q-48.8 1.9 -93.7 23.4 -3.9 2 -5.9 5.9t0 7.8q0 3.9 2 5.8 0 2 3.9 2 1.9 2 3.9 2h5.8q46.9 -21.5 97.7 -23.5 91.8 3.9 142.6 46.9 50.8 44.9 66.4 76.2Q689.5 302.7 658.2 293q-29.3 -7.8 -64.4 -3.9 85.9 48.8 99.6 136.7 15.6 87.9 -39.1 162.1 -52.7 72.3 -171.9 70.3 -87.9 -5.9 -138.6 -60.5Q291 543 285.2 482.4q-2 -5.8 29.3 -41 29.3 -37.1 128.9 -41 13.6 -2 33.2 -23.4Q498 357.4 500 347.7q0 -2 -21.5 -13.7Q457 324.2 429.7 310.5q-27.4 -15.6 -44.9 -31.2 -2 -3.9 -3.9 -5.9l-27.4 -27.3q-7.8 -3.9 -13.7 -7.8 -15.6 -58.6 0 -117.2Q265.6 158.2 224.6 209 210.9 187.5 209 146.5q-3.9 -39.1 -2 -56.7l-7.8 4q-5.8 3.9 -7.8 5.8 -25.4 17.6 -46.9 39.1 -25.4 25.4 -56.6 74.2 -33.2 48.8 -50.8 123 -7.8 31.3 -9.8 60.6 -3.9 29.3 -3.9 43 2 132.8 64.5 240.2 64.4 107.4 171.9 169.9Q367.2 914.1 500 916q179.7 -3.9 310.5 -115.2 129 -109.4 158.3 -281.3 13.6 -103.5 -2 -171.8 -17.6 -68.4 -25.4 -84v-2z"/></svg>