<svg height="1000" width="1000" xmlns="http://www.w3.org/2000/svg"><path d="M984.4 394.5q-2 -3.9 -2 -7.8V377q-3.9 -41.1 -13.6 -80.1l-2 -2 -2 -7.8v-3.9q-1.9 -1.9 -1.9 -3.9v-2q-2 -3.9 -2 -5.8v-2H959q0 -3.9 -2 -7.8v-1.9q0 -2 -1.9 -2v-3.9l-2 -1.9v-4l-1.9 -1.9v-2q-2 -1.9 -2 -3.9t-1.9 -3.9q-3.9 -11.7 -9.8 -23.4 0 -2 -2 -2 0 -1.9 -1.9 -3.9v-1.9q-2 -2 -2 -3.9l-1.9 -2v-1.9l-2 -2q0 -1.9 -1.9 -3.9v-1.9q-2 0 -2 -2t-1.9 -3.9 -2 -3.9l-1.9 -2v-1.9l-2 -2 -1.9 -1.9v-2l-2 -1.9q-1.9 -2 -1.9 -3.9 -2 -2 -2 -3.9l-3.9 -3.9q0 -2 -2 -4l-1.9 -1.9q0 -2 -2 -2v-1.9l-1.9 -2 -2 -3.9q-1.9 0 -1.9 -1.9l-3.9 -3.9q0 -2 -2 -3.9Q865.2 103.5 839.8 78.1 824.2 60.5 804.7 44.9 793 35.2 781.3 27.3 757.8 9.8 732.4 -2q-7.8 -3.9 -13.6 -7.8Q666 -35.2 609.4 -48.8h-5.9q-1.9 -2 -3.9 -2h-5.8q-37.2 -7.8 -74.3 -7.8H498q-44.9 0 -87.8 9.8Q308.6 -27.3 248 27.3q-1.9 0 -3.9 2l-1.9 2Q291 3.9 339.8 -5.9l11.8 -3.9h1.9t3.9 -1.9H365.2q95.7 -17.6 187.5 9.7 91.8 25.4 164.1 93.8 29.3 27.3 52.7 62.5 43 74.2 43 154.3 0 78.1 -35.2 134.8 -54.6 80 -146.4 97.6Q541 558.6 466.8 492.2 418 443.4 416 377q0 -31.3 11.7 -60.6 3.9 -7.8 15.7 -27.3t21.4 -21.5q-21.4 -3.9 -50.7 7.8 -31.3 11.7 -56.7 46.9 -21.5 35.1 -23.4 80 0 45 13.7 84 -17.6 -37.1 -23.5 -78.1 -13.7 -123 44.9 -212.9Q429.7 103.5 507.8 76.2 464.8 41 380.9 44.9q-82.1 5.9 -162.1 60.6Q130.9 171.9 97.7 283.2q3.9 -66.4 50.7 -164.1Q121.1 132.8 93.8 168t-43 74.2Q3.9 355.5 19.5 484.4v9.7q2 5.9 2 9.8 33.2 175.8 164 287.1Q316.4 904.3 500 906.3q134.8 0 244.1 -64.5Q853.5 775.4 918 666t66.4 -244.1v-27.4z"/></svg>