<svg height="1000" width="875" xmlns="http://www.w3.org/2000/svg"><path d="M25.4 371.1zM437.5 113.3q-21.5 0 -41 1.9l5.8 132.8L359.4 123q-41 9.8 -78.1 31.3l58.5 121.1L252 175.8q-35.2 25.4 -60.6 60.5l99.6 87.9L171.9 265.6q-21.5 37.1 -33.2 78.2l125 44.9 -132.8 -7.8q-2 21.4 -2 42.9t2 43L263.7 459l-125 43q11.7 42.9 33.2 80L291 523.4l-99.6 87.9q25.4 35.2 60.6 60.6l87.8 -99.6 -58.5 119.1q37.1 23.4 78.1 33.2l42.9 -125 -7.8 132.8q21.5 2 43 2t43 -2l-7.8 -134.7 42.9 126.9q43 -11.7 78.2 -33.2L537.1 572.3l87.9 99.6q33.2 -25.4 58.6 -60.6l-97.7 -87.9 119.2 56.7q21.5 -35.2 33.2 -78.1l-125 -43 130.8 7.8q2 -21.5 2 -43t-2 -42.9l-132.8 7.8 125 -43q-9.7 -43 -31.2 -80.1l-119.2 58.6 97.7 -87.9Q658.2 201.2 625 175.8l-87.9 99.6 56.7 -119.1Q558.6 132.8 515.6 123l-42.9 125 7.8 -132.8q-21.5 -1.9 -43 -1.9zm427.7 60.5v500 -500 500l-427.7 250L9.8 673.8v-500l427.7 -250 427.7 250zM832 193.4L437.5 -35.2 832 193.4 437.5 -35.2 43 193.4v458.9l394.5 230.5L832 652.3V193.4zM437.5 -3.9l367.2 214.8L437.5 -3.9l367.2 214.8v425.8L437.5 851.6 70.3 636.7V210.9L437.5 -3.9zm0 99.6Q298.8 99.6 207 191.4q-91.8 93.8 -95.7 232.4 3.9 138.7 95.7 232.5Q298.8 748 437.5 752 576.2 748 668 656.3q91.8 -93.8 95.7 -232.5Q759.8 285.2 668 191.4 576.2 99.6 437.5 95.7z"/></svg>