<svg height="1000" width="968.8" xmlns="http://www.w3.org/2000/svg"><path d="M484.4 -60.5Q349.6 -58.6 240.2 5.9 130.9 70.3 66.4 179.7 2 289.1 0 423.8 2 558.6 66.4 668t173.8 173.8 244.2 66.4q134.7 -1.9 244.1 -66.4T902.3 668t66.5 -244.2q-2 -134.7 -66.5 -244.1T728.5 5.9 484.4 -60.5zm0 953.1Q353.5 890.6 248 828.1 142.6 765.6 80.1 660.2 17.6 554.7 15.6 423.8 17.6 293 80.1 187.5T248 19.5t236.4 -64.4q130.8 1.9 236.3 64.4t168 168 64.4 236.3q-1.9 130.9 -64.4 236.4t-168 167.9 -236.3 64.5zm0 -898.5q-119.2 2 -216.8 58.6Q171.9 111.3 113.3 207 56.6 304.7 54.7 423.8q1.9 119.2 58.6 216.8 58.6 95.7 154.3 154.3 97.6 56.7 216.8 58.6 119.1 -1.9 216.8 -58.6 95.7 -58.6 154.3 -154.3Q912.1 543 914.1 423.8 912.1 304.7 855.5 207 796.9 111.3 701.2 52.7 603.5 -3.9 484.4 -5.9zm0 843.8Q308.6 832 191.4 716.8 76.2 599.6 70.3 423.8 76.2 248 191.4 130.9 308.6 15.6 484.4 9.8q175.8 5.8 292.9 121.1Q892.6 248 898.4 423.8q-5.8 175.8 -121.1 293Q660.2 832 484.4 837.9zM847.7 519.5q-11.8 48.9 -39.1 93.8L664.1 543l119.1 107.4q-31.2 41 -72.3 72.3L603.5 603.5 673.8 748q-44.9 27.4 -93.7 39.1L525.4 634.8l9.8 162.1q-25.4 3.9 -50.8 3.9 -27.4 0 -50.8 -3.9l7.8 -162.1 -52.7 152.3Q337.9 775.4 293 748l70.3 -144.5L257.8 724.6q-43 -33.2 -74.2 -74.2L304.7 543l-144.5 70.3q-27.4 -44.9 -39.1 -93.8l150.4 -54.7 -160.2 9.8q-3.9 -25.4 -3.9 -50.8t3.9 -52.7l162.1 9.8L121.1 328.1q11.7 -50.8 39.1 -95.7l144.5 70.3L185.5 195.3q31.3 -41 72.3 -72.3l107.4 121.1L294.9 99.6q44.9 -27.3 93.8 -39.1l52.7 150.4L433.6 50.8q23.4 -3.9 50.8 -3.9 25.4 0 50.8 3.9l-9.8 160.1L580.1 60.5q50.8 11.8 93.7 39.1l-70.3 144.5L710.9 123q41.1 31.3 72.3 74.3L664.1 302.7l144.5 -68.3q25.4 42.9 39.1 93.7l-152.4 52.8L857.4 373q2 25.4 2 50.8t-2 50.8l-160.1 -9.8 150.4 54.7z"/></svg>