<svg height="1000" width="875" xmlns="http://www.w3.org/2000/svg"><path d="M781.3 -13.7H93.8h687.5H93.8q-39.1 2 -66.5 27.4Q2 41 0 80.1v687.5q2 39 27.3 66.4 27.4 25.4 66.5 27.3h687.5q39 -1.9 66.4 -27.3Q873 806.6 875 767.6V80.1Q873 41 847.7 13.7q-27.4 -25.4 -66.4 -27.4zM283.2 546.9q-54.7 -2 -87.9 -37.1 -35.1 -33.2 -37.1 -86 2 -54.7 37.1 -87.9 33.2 -35.1 87.9 -37.1 52.7 2 85.9 37.1 35.2 33.2 37.2 87.9 -2 52.8 -37.2 86 -33.2 35.1 -85.9 37.1zm310.6 0q-54.7 -2 -87.9 -37.1 -35.2 -33.2 -37.1 -86 1.9 -54.7 37.1 -87.9 33.2 -35.1 87.9 -37.1 52.7 2 85.9 37.1 35.1 33.2 37.1 87.9 -2 52.8 -37.1 86 -33.2 35.1 -85.9 37.1z"/></svg>