<svg height="1000" width="750" xmlns="http://www.w3.org/2000/svg"><path d="M386.7 759.8q19.6 17.5 41 44.9 21.5 27.3 23.5 54.7v3.9q-11.7 58.6 -76.2 60.5 -37.1 -1.9 -56.6 -21.5 -21.5 -19.5 -19.6 -48.8 3.9 -23.4 23.5 -50.8 21.5 -25.4 41 -41v-1.9q3.9 -3.9 9.7 -5.9 7.9 0 13.7 5.9zM648.4 54.7q-48.8 -70.3 -123 -101.6Q445.3 -78.1 375 -76.2q-58.6 2 -97.7 11.7 -39 11.8 -54.6 19.6 -3.9 1.9 -5.9 1.9Q136.7 -2 95.7 64.5q-43 66.4 -41 169.9 9.8 80.1 58.6 164 50.8 84 119.1 158.2 66.4 76.2 127 132.9 0 1.9 1.9 1.9l9.8 9.8h5.9q1.9 0 1.9 -2 2 0 5.9 -1.9Q437.5 646.5 502 574.2T619.1 423.8q52.8 -80 70.4 -148.4 9.7 -56.6 1.9 -109.4t-43 -111.3zM365.2 611.3Q320.3 533.2 279.3 431.6q-41 -101.5 -48.8 -189.4 -3.9 -48.8 5.8 -107.4Q248 74.2 277.3 29.3q31.3 -46.9 87.9 -54.7v636.7zM642.6 275.4q-29.3 85.9 -97.7 177.7Q474.6 543 410.2 607.4q42.9 -78.1 83.9 -181.6T541 232.4q3.9 -70.3 -17.6 -142.6T447.3 -23.4q128.9 31.2 173.8 123 44.9 89.9 21.5 175.8z"/></svg>