<svg height="1000" width="875" xmlns="http://www.w3.org/2000/svg"><path d="M0 -13.7v875 -875 875h875v-875H0zm365.2 275.4q-25.4 0 -31.2 13.7 -7.8 13.7 -5.9 39.1v46.8q0 2 -1.9 3.9 -3.9 3.9 0 3.9H459l-21.5 72.3H328.1v228.5q-3.9 5.9 5.9 5.9l85.9 9.7v48.9H164.1v-50.8l41 -3.9q15.6 0 13.7 -15.6V447.3q-2 -5.9 -11.8 -5.9h-42.9v-72.3h54.7v-41q1.9 -140.6 150.3 -136.7 52.8 -1.9 87.9 19.5 37.1 19.6 39.1 84l-99.6 11.7q1.9 -50.7 -31.3 -44.9zm144.6 472.7v-48.9 48.9 -48.9l41 -5.8q13.7 0 13.7 -13.7V455.1q0 -11.7 -11.8 -15.6l-48.8 -11.8 13.7 -58.6h156.2v304.7q-3.9 5.9 5.9 5.9l31.2 5.8v48.9H509.8zM668 234.4l17.5 64.4L668 234.4l17.5 64.4 -13.6 15.7 -60.6 -33.2 -62.5 33.2 -13.6 -15.7 17.5 -64.4 -42.9 -46.9 7.8 -19.5h54.7l29.3 -54.7h17.5l31.3 54.7h54.7l5.8 19.5z"/></svg>