<svg height="1000" width="750" xmlns="http://www.w3.org/2000/svg"><path d="M222.7 361.3h181.6H222.7h181.6L375 460.9H224.6V779.3q-3.9 9.8 9.8 9.8l115.2 11.7v66.4H0v-68.4L56.6 793q19.6 0 17.6 -21.5V466.8Q72.3 459 58.6 460.9H0v-99.6h74.2v-56.6q2 -193.4 207.1 -187.5 72.2 -2 121 25.4 50.8 29.3 52.8 117.2l-134.8 15.6q0 -37.1 -9.8 -48.8 -11.7 -13.7 -35.1 -13.7 -35.2 0 -43 19.5 -9.7 19.6 -7.8 54.7v62.5q0 3.9 -1.9 7.8 -3.9 3.9 0 3.9zM750 867.2H474.6 750 474.6v-66.4l54.7 -7.8q21.5 0 21.5 -19.6v-289q-2 -15.6 -19.5 -21.5l-64.5 -17.6 17.6 -78.1h214.8v418q-3.9 5.8 7.8 7.8l43 7.8v66.4zM691.4 189.5l23.4 87.8 -23.4 -87.8 23.4 87.8 -19.5 19.6 -82 -43 -84 43 -19.5 -19.6 23.4 -87.8 -58.6 -72.3 9.8 -19.5h74.2l41 -74.3H625l41 74.3h74.2L750 125l-58.6 64.5z"/></svg>