<svg height="1000" width="1000" xmlns="http://www.w3.org/2000/svg"><path d="M955.1 486.3h-52.8 52.8 -52.8q-7.8 0 -9.7 9.8v62.5h-70.3V209q-2 -7.8 -9.8 -7.8h-52.7q-9.8 0 -9.8 7.8v62.5h-72.3V209q0 -7.8 -7.8 -7.8h-54.7q-7.8 0 -7.8 7.8v62.5h-72.2V209q-3.9 -11.7 -19.6 -7.8h-3.9V127q25.4 -7.9 50.8 -7.9 15.6 0 31.3 3.9t31.2 4q7.8 1.9 29.3 -2 21.5 -2 23.4 -13.7V-5.9q0 -7.8 -7.8 -7.8t-17.6 3.9q-13.6 3.9 -29.3 3.9 -13.6 0 -29.2 -3.9 -17.6 -3.9 -35.2 -3.9 -23.4 0 -46.9 5.9v-9.8q17.6 -9.7 17.6 -27.3 -2 -31.3 -29.3 -31.3t-31.2 31.3q1.9 17.6 17.5 27.3v218.8h-3.9q-15.6 -3.9 -19.5 7.8v62.5h-70.3V209q0 -7.8 -9.8 -7.8h-52.7q-7.8 0 -9.8 7.8v62.5H250V209q0 -7.8 -9.8 -7.8h-52.7q-7.8 0 -9.8 7.8v349.6h-70.3v-62.5q-1.9 -9.8 -9.7 -9.8H44.9q-7.8 0 -9.7 9.8v427.7h357.4V736.3q3.9 -70.3 56.6 -93.7 50.8 -23.5 101.6 0 52.7 23.4 56.6 93.7v187.5h357.4V496.1q-1.9 -9.8 -9.7 -9.8zm-562.5 -9.7q0 9.7 -7.8 9.7h-54.7q-7.8 0 -7.8 -9.7v-125q0 -7.8 7.8 -7.8h54.7q7.8 0 7.8 7.8v125zm287.1 0q-2 9.7 -9.8 9.7h-52.7q-9.8 0 -9.8 -9.7v-125q0 -7.8 9.8 -7.8h52.7q7.8 0 9.8 7.8v125z"/></svg>