<svg height="1000" width="1000" xmlns="http://www.w3.org/2000/svg"><path d="M406.3 386.7h-43 43 -43q-7.8 2 -7.8 7.8v101.6q0 5.9 7.8 7.8h43q5.8 -1.9 7.8 -7.8V394.5q-2 -5.8 -7.8 -7.8zm230.4 0h-42.9 42.9 -42.9q-5.9 2 -7.9 7.8v101.6q2 5.9 7.9 7.8h42.9q7.8 -1.9 7.8 -7.8V394.5q-1.9 -5.8 -7.8 -7.8zM894.5 142.6q-5.8 -9.8 -13.6 -17.6Q851.6 87.9 816.4 56.6 804.7 46.9 789.1 35.2l-3.9 -3.9q-2 0 -3.9 -2Q699.2 -29.3 597.7 -50.8q-46.9 -9.7 -97.7 -9.7t-97.7 9.7Q300.8 -29.3 220.7 29.3q-5.9 2 -9.8 5.9l-27.3 23.4q-7.8 5.9 -17.6 13.7v1.9l-15.6 15.6L119.1 125q-5.8 9.8 -13.6 17.6 -86 123 -89.9 281.2v11.7q2 2 2 4v23.4q0 3.9 1.9 7.8v15.6q2 3.9 2 7.8v3.9l1.9 11.8v1.9q2 2 2 3.9v7.8q1.9 0 1.9 2v5.9l2 1.9v3.9t2 5.9v3.9q1.9 1.9 1.9 3.9v1.9t2 3.9v2t1.9 5.9v1.9t2 2v5.8q1.9 2 1.9 5.9 2 1.9 2 3.9 1.9 3.9 1.9 5.8 2 2 2 5.9 1.9 0 1.9 2v1.9l2 5.9 1.9 1.9v2q2 1.9 2 3.9t1.9 1.9v5.9q2 0 2 1.9 1.9 2 1.9 4 2 1.9 2 3.9l2 1.9v3.9q1.9 0 1.9 2 2 1.9 2 3.9t1.9 3.9q5.9 11.7 13.7 23.4v2l1.9 1.9 2 2q0 1.9 1.9 3.9v1.9l4 3.9v2l1.9 2v1.9l2 2q1.9 1.9 1.9 3.9l2 1.9q1.9 3.9 5.8 7.8 56.7 76.2 136.7 127t175.8 68.3h5.9t5.8 2h11.8t5.8 2h15.6q2 0 4 1.9H531.3q1.9 -1.9 3.9 -1.9h17.5q2 -2 5.9 -2h9.8q1.9 -2 3.9 -2h7.8Q677.7 884.8 757.8 834q80.1 -52.7 134.8 -132.8h1.9q0 -2 2 -3.9 0 -2 1.9 -3.9l2 -2q0 -1.9 1.9 -3.9l2 -2v-1.9q2 0 2 -2t1.9 -3.9q2 0 2 -1.9v-2h1.9q0 -1.9 2 -3.9 0 -1.9 1.9 -1.9v-3.9q7.8 -11.8 13.7 -23.5 1.9 -1.9 1.9 -3.9 2 -1.9 2 -3.9l1.9 -1.9q0 -2 2 -3.9v-2l2 -2v-1.9q1.9 -2 1.9 -3.9t2 -2l1.9 -5.8q0 -2 2 -5.9v-1.9q1.9 0 1.9 -2l2 -5.8 1.9 -2v-2q0 -1.9 2 -3.9V584q1.9 -3.9 1.9 -5.9 2 -3.9 3.9 -9.7 0 -2 2 -5.9v-3.9q1.9 -3.9 1.9 -5.9 2 -1.9 2 -5.8 0 -2 2 -2v-5.8t1.9 -2v-5.8q0 -2 2 -4v-3.9q0 -1.9 1.9 -3.9v-5.8q2 -3.9 2 -7.8v-2l1.9 -11.7v-3.9q2 -3.9 2 -7.8v-7.8q1.9 -2 1.9 -3.9v-17.6q2 0 2 -2v-25.4q-2 -158.2 -89.9 -281.2zM875 650.4q-27.3 44.9 -66.4 82Q748 793 669.9 826.2q-41 17.6 -84 27.3V705.1Q584 646.5 541 628.9q-41 -19.5 -82 0 -43 19.5 -44.9 76.2v148.4q-43 -9.7 -84 -27.3Q252 793 191.4 732.4q-39.1 -37.1 -66.4 -84V509.8q0 -5.9 7.8 -7.8h43q5.8 1.9 7.8 7.8v50.7h56.6V279.3q0 -5.9 7.8 -7.8h43q5.9 1.9 7.8 7.8v50.8h56.7v-50.8q0 -5.9 7.8 -7.8h43q5.8 1.9 7.8 7.8v50.8h56.6v-50.8q3.9 -9.8 15.6 -7.8h3.9V95.7Q476.6 87.9 474.6 74.2 478.5 48.8 500 48.8t25.4 25.4q-2 13.7 -15.6 21.5v7.8q19.5 -3.9 39 -3.9 13.7 0 27.4 3.9 11.7 2 23.4 2t23.4 -3.9q7.9 -2 13.7 -2 7.8 0 7.8 5.9v95.7q-1.9 7.8 -19.5 9.7t-23.4 2q-13.7 0 -25.4 -2Q564.5 207 550.8 207q-21.5 0 -41 5.9v58.6h3.9q11.7 -2 15.6 7.8v50.8h56.6v-50.8q2 -5.9 7.9 -7.8h42.9q7.8 1.9 7.8 7.8v50.8h56.7v-50.8q1.9 -5.9 7.8 -7.8h43q7.8 1.9 7.8 7.8v281.2h56.6v-50.7q2 -5.9 7.8 -5.9h43q7.8 0 7.8 5.9v140.6z"/></svg>