<svg height="1000" width="875" xmlns="http://www.w3.org/2000/svg"><path d="M11.7 529.3Q0 478.5 0 427.7 2 306.6 58.6 209 117.2 109.4 214.8 50.8 314.5 -5.9 435.5 -7.8q48.9 0 95.8 11.7Q349.6 74.2 214.8 209 80.1 345.7 11.7 529.3zM779.3 160.2q-41 -52.8 -93.8 -89.9Q462.9 138.7 304.7 298.8 146.5 457 80.1 679.7q37.1 54.7 87.9 95.7Q234.4 550.8 394.5 388.7T779.3 160.2zm29.3 492.1q46.9 -74.2 58.6 -162.1Q750 554.7 656.3 650.4 564.5 746.1 500 863.3q89.8 -13.7 166 -62.5 103.5 39 209 66.4Q847.7 757.8 808.6 652.3zm58.6 -283.2q-7.8 -58.6 -31.3 -111.3Q632.8 326.2 484.4 478.5 335.9 628.9 267.6 834q52.7 21.5 111.3 29.3 68.4 -168 195.3 -296.9 125 -128.9 293 -197.3z"/></svg>