<svg height="1000" width="718.8" xmlns="http://www.w3.org/2000/svg"><path d="M630.9 -70.3H97.7h533.2H97.7Q43 -68.4 21.5 -39.1 0 -7.8 0 19.5v847.7q2 29.3 13.7 43 11.7 11.7 21.5 15.6t29.3 3.9q19.5 -2 35.1 -17.6Q222.7 769.5 277.3 707q54.7 -64.4 66.5 -78.1 13.6 -15.6 11.7 -13.7 5.8 -7.8 11.7 -5.8h164.1q48.8 -2 66.4 -27.4 15.6 -25.4 19.5 -48.8 1.9 0 1.9 -1.9L712.9 56.6q31.2 -125 -82 -126.9zM599.6 74.2l-23.4 117.2L599.6 74.2l-23.4 117.2q-5.9 21.5 -31.3 25.4h-209q-37.1 2 -39 39.1v25.4q1.9 37.1 39 41h177.8q11.7 0 21.5 9.7 7.8 11.8 5.8 25.4Q537.1 375 529.3 418q-7.8 41 -9.8 54.7 -3.9 19.5 -33.2 25.3H343.8q-19.6 0 -29.3 4 -11.8 5.8 -23.5 21.4 3.9 -5.8 -29.3 35.2 -31.2 39.1 -144.5 175.8 -3.9 1.9 -3.9 0V72.3q1.9 -27.4 31.2 -33.2h427.8q29.3 3.9 27.3 35.1z"/></svg>