<svg height="1000" width="875" xmlns="http://www.w3.org/2000/svg"><path d="M593.8 111.3q13.6 -13.6 68.3 -46.8Q718.8 31.3 779.3 9.8q58.6 -23.5 85.9 -2 19.6 25.4 -1.9 86T808.6 209q-33.2 56.6 -46.9 70.3 -17.6 15.6 -52.7 3.9 -35.2 -13.7 -70.3 -48.8t-48.9 -70.3q-11.7 -35.2 4 -52.8zm-379 -54.7Q158.2 23.4 97.7 3.9q-60.6 -21.5 -86 0 -23.4 27.4 0 89.9 21.5 60.5 54.7 117.1Q121.1 115.2 214.8 56.6zm580.1 207.1q9.8 33.2 -5.8 50.8 -21.5 19.5 -64.5 1.9 -41 -19.5 -84 -56.6 -42.9 -39.1 -64.4 -82.1 -27.4 -48.8 -17.6 -74.2Q566.4 76.2 605.5 82q15.6 -9.7 37.1 -21.5Q554.7 13.7 449.2 11.7q-179.7 5.9 -298.8 125Q31.3 253.9 27.3 433.6q4 179.7 123.1 296.9 119.1 119.1 298.8 125 177.8 -5.9 296.9 -125 119.1 -117.2 123 -296.9 0 -113.3 -52.7 -207 -11.7 21.4 -21.5 37.1z"/></svg>