<svg height="1000" width="1000" xmlns="http://www.w3.org/2000/svg"><path d="M488.3 -11.7V41v-52.7V41q-21.5 33.2 -33.2 146.5 -13.7 113.3 -15.6 273.4 37.1 -48.8 39 -93.7V334q0 -15.6 3.9 -31.3l3.9 -11.7q3.9 -5.8 13.7 -5.8t13.7 5.8l3.9 11.7q5.8 15.7 5.8 31.3v33.2q0 44.9 37.1 93.7Q558.6 300.8 544.9 187.5 533.2 74.2 511.7 41v-52.7h-23.4zm-50.8 289q-29.3 5.9 -54.7 17.6 27.4 54.7 3.9 74.2 -29.3 9.8 -62.5 -39 -33.2 25.4 -58.6 60.5 44.9 33.2 35.2 60.6 -17.6 21.5 -68.4 -2 -17.6 39.1 -23.4 82.1 29.3 0 50.8 11.7 54.7 -2 80 -7.8Q359.4 455.1 429.7 418q1.9 -74.2 7.8 -140.7zm125 0q5.9 66.5 7.8 140.7 70.3 37.1 89.9 117.2 25.3 5.8 80 7.8 21.5 -11.7 50.8 -11.7 -5.8 -43 -23.4 -82.1 -50.8 23.5 -68.4 2 -9.7 -27.4 35.2 -60.6Q709 355.5 675.8 330.1q-33.2 48.8 -62.5 39 -23.5 -19.5 3.9 -74.2 -25.4 -11.7 -54.7 -17.6zM500 294.9q-9.8 2 -11.7 39.1v33.2q-3.9 64.4 -58.6 123 -56.7 58.6 -125 62.5H293q-78.2 -1.9 -160.2 5.9Q50.8 568.4 0 609.4v3.9q27.3 50.8 64.5 93.7Q84 675.8 138.7 652.3T275.4 627q68.4 1.9 113.3 25.3 46.8 23.5 64.4 54.7 23.5 5.9 46.9 5.9t46.9 -5.9q17.6 -31.2 64.4 -54.7 45 -23.4 113.3 -25.3 82 1.9 136.7 25.3t74.2 54.7q37.2 -42.9 64.5 -93.7v-3.9q-50.8 -41 -132.8 -50.8 -82 -7.8 -160.2 -5.9h-11.7q-68.3 -3.9 -125 -62.5 -54.7 -58.6 -58.6 -123V334Q509.8 296.9 500 294.9zm0 187.5q33.2 2 56.6 23.5 21.5 23.4 23.5 56.6 -2 33.2 -23.5 56.6 -23.4 21.5 -56.6 23.5 -33.2 -2 -56.6 -23.5 -21.5 -23.4 -23.5 -56.6 2 -33.2 23.5 -56.6 23.4 -21.5 56.6 -23.5zm0 15.6q-27.3 0 -44.9 19.6 -19.6 17.6 -19.6 44.9t19.6 44.9Q472.7 627 500 627t44.9 -19.6q19.6 -17.6 19.6 -44.9t-19.6 -44.9Q527.3 498 500 498zm0 11.8q21.5 1.9 37.1 15.6 15.6 15.6 15.6 37.1t-15.6 37.1T500 615.2t-37.1 -15.6 -15.6 -37.1 15.6 -37.1q15.6 -13.7 37.1 -15.6zM275.4 640.6q-31.3 0 -58.6 3.9 0 21.5 13.7 56.7 27.3 -7.8 52.7 -7.8 62.5 3.9 101.6 44.9 41 41 52.7 101.5v9.8q29.3 3.9 62.5 5.9 33.2 -2 62.5 -5.9v-9.8q11.7 -60.5 52.7 -101.5 39.1 -41 101.6 -44.9 27.3 0 52.7 7.8 13.7 -35.2 13.7 -56.7 -27.3 -3.9 -58.6 -3.9 -54.7 2 -95.7 19.6 -37.1 50.7 -95.7 64.4h-1.9q-15.7 2 -31.3 2t-31.2 -2h-2q-58.6 -13.7 -95.7 -64.4Q332 642.6 275.4 640.6z"/></svg>