<svg height="1000" width="968.8" xmlns="http://www.w3.org/2000/svg"><path d="M484.4 908.2Q349.6 906.3 240.2 841.8 130.9 777.3 66.4 668 2 558.6 0 423.8 2 289.1 66.4 179.7T240.2 5.9t244.2 -66.4q134.7 1.9 244.1 66.4t173.8 173.8 66.5 244.1q-2 134.8 -66.5 244.2T728.5 841.8t-244.1 66.4zm0 -935.5q-127 0 -228.5 60.5Q154.3 93.8 93.8 195.3 33.2 296.9 33.2 423.8t60.6 228.5 162.1 162.2T484.4 875t228.5 -60.5T875 652.3t60.5 -228.5T875 195.3 712.9 33.2 484.4 -27.3zm54.7 41v48.8V13.7v48.8q89.8 13.7 162.1 68.4l35.1 -35.2Q650.4 29.3 539.1 13.7zm-109.4 0q-111.3 17.6 -197.3 82l35.2 35.2Q337.9 76.2 429.7 62.5V13.7zm25.4 99.6v160.1V113.3v160.1q-31.3 7.9 -54.7 23.5L285.2 181.6l-43 43 115.2 115.2q-15.6 23.5 -23.4 52.8H173.8v62.5H334q7.8 29.3 23.4 52.7L242.2 623l43 43L400.4 550.8q25.4 15.6 54.7 23.4v160.2h60.5V574.2q29.3 -7.8 52.8 -23.4L683.6 666l43 -43L611.3 507.8q15.7 -23.4 23.5 -54.7h160.1v-60.5H634.8Q627 363.3 611.3 339.8L726.6 224.6l-43 -43L568.4 296.9q-23.5 -15.6 -52.8 -23.5V113.3h-60.5zm357.4 58.6L777.3 207l35.2 -35.1L777.3 207q54.7 72.3 68.4 162.1h48.8q-15.6 -111.3 -82 -197.2zm-656.2 0Q89.8 257.8 74.2 369.1H123Q136.7 277.3 191.4 207l-35.1 -35.1zM74.2 478.5q15.6 111.3 82.1 197.3l35.1 -35.2Q136.7 570.3 123 478.5H74.2zm771.5 0Q832 570.3 777.3 640.6l35.2 35.2q66.4 -86 82 -197.3h-48.8zM267.6 716.8L232.4 752l35.2 -35.2L232.4 752q86 66.4 197.3 82v-48.8Q337.9 771.5 267.6 716.8zm433.6 0q-70.3 54.7 -162.1 68.4V834q111.3 -15.6 197.2 -82l-35.1 -35.2z"/></svg>