<svg height="1000" width="875" xmlns="http://www.w3.org/2000/svg"><path d="M796.9 48.8H80.1h716.8H80.1q-33.2 0 -56.7 23.5T0 128.9v263.7q2 123 58.6 220.7 58.6 99.6 158.2 158.2 97.7 56.6 220.7 58.6 123 -2 220.7 -58.6 99.6 -58.6 158.2 -158.2Q873 515.6 875 392.6V128.9q0 -35.1 -23.4 -56.6Q830.1 48.8 796.9 48.8zM480.5 574.2q-19.6 15.6 -43 15.6t-41 -15.6Q326.2 505.9 283.2 464.8q-78.1 -74.2 -95.7 -93.7Q169.9 349.6 171.9 332q1.9 -25.4 17.6 -41 17.5 -17.6 42.9 -17.6 15.6 -3.9 35.2 11.8 19.5 13.6 78.1 72.2 35.2 35.2 91.8 89.9 54.7 -52.8 89.8 -86 62.5 -62.5 82.1 -76.1 17.6 -15.7 35.1 -11.8 25.4 0 41 17.6 17.6 15.6 17.6 41 3.9 17.6 -13.6 39.1 -19.6 21.5 -95.7 93.7 -45 41.1 -113.3 109.4z"/></svg>