<svg height="1000" width="1000" xmlns="http://www.w3.org/2000/svg"><path d="M502 -60.5Q367.2 -58.6 257.8 5.9 148.4 70.3 84 179.7 19.5 289.1 17.6 423.8 19.5 558.6 84 668t173.8 173.8T502 908.2q134.7 -1.9 244.1 -66.4T919.9 668t66.4 -244.2Q984.4 289.1 919.9 179.7T746.1 5.9 502 -60.5zm-95.7 732.4L160.2 425.8l246.1 246.1L160.2 425.8 406.3 179.7l68.3 70.3 -46.9 46.9 -23.4 -21.5L253.9 425.8l150.4 150.4L457 525.4 353.5 421.9 400.4 373l152.3 152.4L406.3 671.9zM599.6 668l-70.3 -70.3 70.3 70.3 -70.3 -70.3 46.9 -46.9 23.4 21.5L750 421.9 599.6 271.5l-52.7 50.8 103.5 103.5 -46.9 46.9L453.1 322.3 599.6 175.8l244.2 246.1L599.6 668z"/></svg>