<svg height="1000" width="875" xmlns="http://www.w3.org/2000/svg"><path d="M859.4 384.8L476.6 2l382.8 382.8L476.6 2Q459 -13.7 437.5 -13.7q-23.4 0 -41 15.7l-78.1 80L418 183.6q41 -11.7 68.3 15.6t15.7 68.4l97.6 97.6q52.7 -13.6 78.1 27.4t-7.8 84Q625 511.7 584 484.4t-23.5 -82.1l-91.7 -89.8v238.3q37.1 19.5 37.1 52.7 1.9 33.2 -19.6 54.7 -19.5 19.5 -46.8 19.5t-46.9 -19.5Q367.2 630.9 373 597.7q7.9 -33.2 41.1 -48.9V308.6Q384.8 294.9 377 269.5q-7.9 -27.3 0 -48.8l-97.7 -99.6L15.6 382.8Q0 400.4 0 423.8q0 21.5 15.6 39.1l382.8 382.8q17.6 15.6 39.1 15.6 23.4 0 41 -15.6L859.4 464.8q15.6 -17.5 15.6 -41 0 -21.5 -15.6 -39z"/></svg>