<svg height="1000" width="1000" xmlns="http://www.w3.org/2000/svg"><path d="M421.9 232.4H267.6h154.3H267.6q-41 -9.7 -101.6 -5.8 -58.6 3.9 -105.5 39Q15.6 300.8 13.7 378.9 17.6 468.8 82 498h-1.9q-35.2 33.3 -52.8 54.7Q7.8 572.3 9.8 593.8 5.9 628.9 43 646.5q-43 33.2 -43 82 -2 46.9 44.9 72.3t154.3 25.4q212.9 -2 216.8 -142.6 2 -76.2 -58.6 -95.7T166 564.5q-21.5 -2 -44.9 -4l25.4 -41q29.3 7.8 84 5.9 54.7 -3.9 99.6 -33.2Q375 460.9 378.9 386.7 375 332 349.6 306.6l72.3 -5.8v-68.4zM298.8 705.1q-3.9 31.2 -52.7 42.9 -50.8 9.8 -99.6 0Q97.7 740.2 93.8 710.9q1.9 -23.4 21.4 -42.9 35.2 1.9 62.5 3.9 72.3 3.9 97.7 9.7t23.4 23.5zM199.2 443.4q-50.8 -3.9 -68.3 -37.1 -15.7 -33.3 1.9 -66.5 17.6 -33.2 68.4 -35.1 48.8 1.9 66.4 35.1 15.6 33.2 -2 66.5 -15.6 33.2 -66.4 37.1zM459 638.7v-62.5 62.5 -62.5q13.7 -2 21.5 -2 23.4 -1.9 27.3 -5.8 5.9 -3.9 5.9 -13.7V322.3q0 -9.8 -5.9 -13.7t-25.4 -11.7q-9.7 -2 -23.4 -7.8l9.8 -64.5h164v330.1q-1.9 15.6 13.7 15.6l39 5.9v62.5H459zM562.5 162.1q-70.3 -1.9 -72.3 -72.3 2 -68.3 72.3 -68.3t72.3 68.3q-2 70.4 -72.3 72.3zM1000 607.4q-56.6 29.3 -128.9 33.2 -70.3 0 -101.6 -31.2 -29.3 -29.3 -29.3 -97.7v-209q2 -5.8 -7.8 -5.8 -9.7 -2 -54.7 0v-70.3q52.8 -5.9 76.2 -37.1 25.4 -29.3 31.3 -93.8h74.2v68.4q0 41 1.9 48.8 0 5.9 5.9 3.9h111.3v80.1H859.4v191.4q0 11.7 3.9 31.2 5.8 21.5 31.2 31.3 25.4 7.8 84 -11.7z"/></svg>