<svg height="1000" width="937.5" xmlns="http://www.w3.org/2000/svg"><path d="M363.3 566.4q0 33.2 -17.6 68.4 -15.6 35.1 -54.7 39 -37.1 -3.9 -54.7 -39 -15.6 -35.2 -15.6 -68.4t15.6 -70.3Q253.9 460.9 291 459q39.1 1.9 54.7 37.1 17.6 37.1 17.6 70.3zm574.2 -99.6q3.9 97.7 -33.2 185.5 -39.1 72.3 -107.4 103.6Q726.6 787.1 644.5 793q-80 7.8 -154.3 5.8h-25.4q-74.2 2 -158.2 -5.8 -83.9 -5.9 -156.2 -37.1T39.1 652.3Q-2 564.5 0 466.8q0 -125 80.1 -220.7Q66.4 199.2 66.4 150.4q0 -31.3 5.9 -52.7Q80.1 76.2 93.8 48.8q66.4 0 115.2 15.7t97.6 54.6q86 -19.5 173.9 -19.5 80 0 156.2 17.6 48.8 -39.1 97.7 -52.7Q783.2 48.8 847.7 48.8q13.6 27.4 21.4 48.9t7.9 52.7q0 48.8 -15.7 93.7 78.2 97.7 76.2 222.7zm-125 99.6q-2 -66.4 -37.1 -113.3Q738.3 406.3 668 404.3q-43 2 -86 7.8l-23.4 3.9q-43 5.9 -87.9 5.9T382.8 416q-11.7 -1.9 -21.5 -1.9 -42.9 -7.8 -87.9 -9.8 -68.3 2 -105.4 48.8t-37.1 113.3q0 84 44.9 127T287.1 750q66.4 15.6 136.7 13.7h93.8q70.3 1.9 136.7 -13.7 68.4 -13.7 111.3 -56.6 44.9 -43 46.9 -127zM650.4 459q-37.1 1.9 -54.7 37.1 -17.6 37.1 -17.6 70.3t17.6 68.4 54.7 39q37.1 -3.9 54.7 -39t17.6 -68.4 -17.6 -70.3Q687.5 460.9 650.4 459z"/></svg>