<svg height="1000" width="1156.3" xmlns="http://www.w3.org/2000/svg"><path d="M1105.5 154.3q-9.8 -19.5 -31.3 -11.7 -17.6 7.8 -11.7 27.3 33.2 86 33.2 181.7 -3.9 203.1 -128.9 343.7 -127 140.6 -320.3 169.9V623q23.4 -3.9 44.9 -11.7v203.2Q849.6 773.4 951.2 648.4q99.6 -125 103.5 -296.8 -2 -134.8 -68.4 -244.2T808.6 -64.5q-19.5 -7.8 -31.3 9.8 -7.8 19.5 9.8 29.3 99.6 56.7 160.2 156.3 60.5 97.6 62.5 220.7 -2 138.6 -78.2 246.1Q857.4 705.1 736.3 753.9V574.2q45 -17.6 48.9 -66.4 -2 -39 -35.2 -58.6 9.8 -72.2 29.3 -97.6 17.6 -27.4 35.2 -35.2 21.4 -7.8 23.4 -31.2v-29.3q-2 -41.1 -46.9 -115.3T687.5 3.9 585.9 -66.4h-15.6q-43 7.8 -99.6 70.3Q412.1 66.4 367.2 140.6q-46.9 74.2 -48.8 115.3v29.3q1.9 23.4 23.4 31.2 17.6 7.8 37.1 35.2 17.6 25.4 27.4 97.6 -33.3 19.6 -35.2 58.6 3.9 48.8 48.8 66.4v179.7Q298.8 705.1 224.6 597.7 148.4 492.2 146.5 353.5q1.9 -125 62.5 -222.6Q269.5 31.3 369.1 -25.4q17.6 -9.8 9.8 -29.3 -11.7 -17.6 -31.2 -9.8Q236.3 -2 169.9 107.4t-68.3 246.1q3.9 169.9 103.5 294.9 101.5 125 259.7 166.1V611.3q21.5 7.8 45 13.7v240.2Q316.4 835.9 189.5 695.3 64.5 554.7 60.5 353.5q0 -97.6 33.3 -183.6Q99.6 150.4 82 142.6q-21.5 -7.8 -31.2 11.7Q15.6 248 15.6 353.5q2 152.4 72.3 277.4 72.3 123 193.4 199.2 123 76.2 273.4 84V628.9q21.5 2 46.9 0v285.2Q752 906.3 875 830.1q121.1 -76.2 193.4 -199.2 70.3 -125 72.2 -277.4 0 -105.5 -35.1 -199.2zM714.8 462.9q43 1.9 46.9 44.9 -3.9 43 -46.9 46.9Q671.9 550.8 668 507.8q3.9 -41 46.8 -44.9zm-273.4 91.8q-43 -3.9 -46.9 -46.9 3.9 -43 46.9 -46.9 43 3.9 46.9 46.9 -3.9 43 -46.9 46.9z"/></svg>