<svg height="1000" width="1000" xmlns="http://www.w3.org/2000/svg"><path d="M984.4 324.2l-2 -3.9 2 3.9 -2 -3.9L845.7 -35.2q-3.9 -9.7 -13.7 -17.5 -7.8 -3.9 -15.6 -3.9 -7.8 -2 -15.6 1.9 -9.8 2 -15.6 7.8l-7.9 15.6L685.5 250h-371L222.7 -31.3l-7.9 -15.6q-5.8 -5.8 -13.6 -7.8 -9.8 -3.9 -17.6 -1.9 -7.8 0 -15.6 3.9 -9.8 7.8 -13.7 17.5L17.6 320.3v3.9q-31.3 78.1 -7.8 160.2 23.4 80.1 89.8 130.8h2v2l207 154.3 103.5 78.1 62.5 46.9q11.7 7.8 25.4 9.8 13.7 -2 25.4 -9.8l62.5 -46.9 103.5 -78.1 207 -156.3h2q66.4 -50.7 87.9 -130.8 25.4 -82.1 -3.9 -160.2z"/></svg>