<svg height="1000" width="875" xmlns="http://www.w3.org/2000/svg"><path d="M494.1 214.8q-1.9 25.4 -7.8 50.8 -15.6 82.1 -33.2 164.1 -5.8 11.7 -21.5 9.8h-5.8q-33.2 -4 -46.9 -31.3 -11.7 -27.3 -11.7 -58.6 0 -44.9 17.6 -91.8t56.6 -70.3q13.7 -7.8 29.3 -7.8 27.3 1.9 23.4 35.1zM875 80.1v687.5V80.1v687.5q-2 39 -27.3 66.4 -27.4 25.4 -66.4 27.3H93.8Q54.7 859.4 27.3 834 2 806.6 0 767.6V80.1Q2 41 27.3 13.7q27.4 -25.4 66.5 -27.4h687.5q39 2 66.4 27.4Q873 41 875 80.1zM750 445.3q-2 -11.7 -21.5 -41t-27.3 -35.2q-9.8 -3.9 -19.6 -5.8 -56.6 3.9 -101.5 35.1l-11.7 7.9 -2 -2q5.9 -31.3 13.7 -62.5 13.7 -52.7 15.6 -107.4 -1.9 -127 -132.8 -123.1 -105.5 5.9 -158.2 82.1T252 353.5q5.8 162.1 169.9 166h5.8q9.8 -1.9 5.9 3.9 -19.5 115.3 -62.5 132.9 -41 19.5 -46.9 -17.6 2 -29.3 19.6 -46.9T375 568.4l3.9 -3.9Q377 552.7 349.6 541q-27.3 -9.7 -41 -9.7 -31.3 1.9 -48.8 35.1 -15.7 33.2 -15.7 62.5 0 48.8 27.4 78.1t76.2 29.3q72.2 -3.9 119.1 -58.6 48.8 -56.6 66.4 -121.1 7.8 -39 11.7 -56.6 3.9 -25.4 11.7 -25.4 52.8 -31.2 113.3 -33.2 21.5 0 46.9 5.9 9.8 1.9 25.4 3.9 5.8 0 7.8 -5.9z"/></svg>