<svg height="1000" width="875" xmlns="http://www.w3.org/2000/svg"><path d="M794.9 335.9q-13.6 -5.8 -29.3 -7.8 -48.8 2 -87.9 17.6 -39 17.6 -76.1 41 -9.8 3.9 -19.6 9.8l-1.9 -2q7.8 -50.7 21.5 -99.6Q623 209 627 121.1 627 15.6 572.3 -31.3 517.6 -76.2 414.1 -76.2q-111.4 2 -187.5 64.5Q152.3 48.8 113.3 136.7 76.2 226.6 76.2 310.5q0 130.9 72.2 199.3 70.4 68.3 199.3 68.3h9.7q15.6 -1.9 11.7 7.8Q349.6 709 308.6 761.7q-43 52.8 -78.1 50.8 -37.1 -3.9 -39.1 -43 2 -44.9 31.3 -74.2Q252 668 271.5 658.2q7.8 -5.9 7.8 -7.8 -3.9 -17.6 -48.8 -35.2 -43 -17.5 -66.4 -17.5 -48.9 3.9 -76.2 56.6Q62.5 707 62.5 752q0 78.1 44.9 125 44.9 44.9 123.1 46.8Q343.8 918 421.9 832 498 744.1 525.4 640.6q15.6 -64.4 19.5 -91.8l7.8 -31.2q3.9 -5.9 11.8 -9.8 44.9 -23.4 87.8 -39 43 -13.7 93.8 -13.7 33.2 0 74.2 9.7 17.6 2 41 5.9 11.7 0 13.7 -9.8 -2 -9.7 -17.6 -39 -15.6 -27.4 -35.1 -54.7 -19.6 -25.4 -27.4 -31.3zm-341.8 -164l-54.7 261.7q-9.7 21.5 -35.1 15.6h-7.8q-54.7 -3.9 -76.2 -48.8t-19.5 -93.8q0 -72.2 27.3 -146.4Q316.4 84 380.9 44.9q21.4 -11.7 42.9 -11.7 27.4 0 33.2 15.6 7.8 17.6 5.9 39.1 0 43 -9.8 84z"/></svg>