<svg height="1000" width="781.3" xmlns="http://www.w3.org/2000/svg"><path d="M632.8 548.8h-25.4 25.4 -25.4v68.4q-74.2 68.3 -175.8 68.3Q322.3 683.6 248 609.4 175.8 535.2 173.8 423.8q2 -111.3 74.2 -185.5 74.3 -74.2 183.6 -76.2 105.5 0 183.6 76.2L736.3 115.2Q609.4 -11.7 431.6 -13.7q-121.1 2 -218.7 60.6T58.6 203.1Q2 302.7 0 423.8q2 121.1 58.6 220.7 56.6 97.7 154.3 156.3 95.7 58.6 218.7 60.5 93.8 0 177.8 -39 85.9 -39.1 156.2 -121.1 -1.9 -44.9 -29.3 -97.7Q710.9 552.7 632.8 548.8zM609.4 328.1H402.3h207.1H402.3V502h230.5q101.6 1.9 148.5 82v-60.6q-2 -95.7 -50.8 -144.5Q681.6 328.1 609.4 328.1z"/></svg>