<svg height="1000" width="1250" xmlns="http://www.w3.org/2000/svg"><path d="M781.3 304.7l-19.6 3.9q-19.5 3.9 -37.1 9.8 -9.8 3.9 -19.5 5.8 -11.7 3.9 -25.4 7.8h-2q-7.8 3.9 -15.6 -7.8 -11.7 -13.7 -29.3 -21.5 -58.6 -27.3 -109.4 7.8 -62.5 41.1 -62.5 115.3 0 39 23.5 64.4 21.5 25.4 56.6 31.3 64.5 7.8 105.5 -39.1l11.7 -15.6q2 -3.9 3.9 -5.9V459H544.9q-17.6 0 -11.7 -17.6 7.8 -15.6 15.6 -35.1L564.5 375q1.9 -7.8 13.6 -11.7h197.3q13.7 -39.1 43 -78.1 62.5 -84 169.9 -101.6 93.7 -19.5 173.8 31.2 72.3 48.9 85.9 136.8 15.7 121.1 -72.2 205 -58.6 62.5 -144.5 78.2 -15.7 3.9 -31.3 3.9 -9.8 1.9 -17.6 1.9 -84 0 -148.4 -52.7 -44.9 -39.1 -60.6 -95.7 -9.7 21.5 -27.3 41 -62.5 87.9 -171.9 103.5 -89.8 13.7 -164 -39Q343.8 546.9 334 462.9q-9.8 -101.6 50.8 -179.7 66.4 -85.9 171.8 -105.5 86 -19.5 160.2 31.3 48.8 31.2 70.3 85.9 5.9 7.8 -5.8 9.8zm-687.5 9.8q-4 0 -2 -2l13.7 -17.6q1.9 -1.9 5.8 -1.9h218.8q1.9 0 1.9 3.9l-11.7 15.6q-1.9 3.9 -5.8 3.9L93.8 314.5zM2 371.1q-4 0 -2 -2l13.7 -17.5q1.9 -2 5.8 -2h277.4q3.9 0 3.9 2l-5.9 15.6q0 3.9 -3.9 3.9H2zm146.4 52.7q-1.9 2 2 3.9h132.8q2 0 3.9 -3.9v-15.6q0 -3.9 -1.9 -3.9H162.1q-3.9 0 -5.8 3.9l-7.9 15.6zM1127 388.7V375q-9.8 -46.9 -45 -68.4t-80 -11.7q-86 17.6 -107.5 105.5 -7.8 35.1 7.8 68.4 15.7 31.2 48.9 46.8 50.8 21.5 99.6 -3.9 72.2 -39 76.2 -117.2v-5.8z"/></svg>