<svg height="1000" width="875" xmlns="http://www.w3.org/2000/svg"><path d="M585.9 296.9q7.9 56.6 -7.8 109.4 -17.6 54.6 -62.5 87.8 -33.2 21.5 -72.2 23.5 -39.1 0 -66.4 -11.7 -52.8 -27.4 -74.3 -80.1T285.2 314.5q9.7 -87.9 52.7 -129 43 -42.9 95.7 -41 68.4 0 105.5 43 37.1 41 46.8 109.4zM875 95.7V752 95.7 752q-2 46.8 -31.2 78.1 -31.3 29.3 -78.2 31.2H109.4Q62.5 859.4 31.3 830.1 2 798.8 0 752V95.7Q2 48.8 31.3 17.6q31.2 -29.3 78.1 -31.3h656.2q46.9 2 78.2 31.3Q873 48.8 875 95.7zM644.5 535.2q0 1.9 0 -29.3V111.3h-56.6v78.2q-2 0 -3.9 -2Q570.3 156.3 533.2 127 494.1 99.6 435.5 97.7q-76.1 1.9 -125 42.9Q259.8 179.7 240.2 250q-13.6 43 -11.7 87.9 3.9 115.2 62.5 171.9t158.2 54.7q87.9 -5.9 134.8 -89.9 0 -1.9 1.9 -3.9h2v66.4q0 44.9 -13.7 85.9 -23.4 62.5 -87.9 76.2 -50.8 11.7 -103.5 -1.9 -64.4 -15.7 -80.1 -82.1 0 -3.9 -3.9 -1.9h-52.7q1.9 31.2 15.6 56.6 39.1 58.6 111.3 74.2 70.4 15.7 140.7 0Q585.9 724.6 615.2 668t29.3 -132.8z"/></svg>