<svg height="1000" width="750" xmlns="http://www.w3.org/2000/svg"><path d="M84 710.9h3.9H84 164.1q3.9 0 5.8 5.9 23.5 99.6 123.1 123 80 23.5 158.2 4Q550.8 822.3 584 726.6q23.4 -64.5 21.5 -130.9 1.9 -11.7 1.9 -50.8t-1.9 -50.8l-2 -1.9q0 1.9 -1.9 3.9t-2 5.9q-70.3 126.9 -207 134.7 -152.4 3.9 -240.3 -82Q62.5 466.8 56.6 293 54.7 222.7 74.2 156.3q29.3 -105.5 107.4 -168Q257.8 -74.2 375 -76.2q89.8 2 146.5 44.9 58.6 43 80.1 91.8 1.9 4 3.9 4V-54.7h85.9q2 267.6 2 408.2v191.4t0 48.9q0 117.1 -45 201.1 -46.8 86 -156.2 115.3 -107.4 25.3 -216.8 1.9Q168 888.7 109.4 798.8 85.9 759.8 84 710.9zM369.1 -3.9q-80 -2 -146.4 60.5 -66.4 64.5 -78.2 199.3 -7.8 89.8 25.4 169.9 31.3 80.1 113.3 121.1 43 19.5 101.6 17.6 58.6 0 111.3 -35.2 68.4 -50.8 93.7 -132.8t13.7 -168Q587.9 123 531.3 60.5 474.6 -3.9 369.1 -3.9z"/></svg>