<svg height="1000" width="1250" xmlns="http://www.w3.org/2000/svg"><path d="M207 343.8v80 -80 80h111.4q-7.9 41 -41.1 64.5Q248 507.8 207 507.8t-72.2 -23.4Q103.5 459 89.8 421.9q-11.7 -41 0 -80.1 13.7 -39.1 45 -62.5T207 255.9q45 -2 78.2 31.2l58.6 -60.5Q287.1 171.9 207 171.9q-60.5 1.9 -109.3 31.2 -48.9 31.3 -76.2 84 -43 93.8 0 187.5v2q27.3 52.7 76.2 83.9 48.8 29.3 109.3 31.3 84 -2 136.8 -50.8 58.5 -56.6 60.5 -154.3 0 -21.5 -3.9 -42.9H207zm759.8 -7.9q-29.3 -27.3 -80.1 -27.3 -66.4 0 -99.6 48.8l41 25.4q23.5 -33.2 60.6 -33.2 25.4 0 44.9 17.6 19.5 15.6 19.5 41v11.7q-27.3 -15.6 -68.3 -15.6 -48.9 0 -76.2 23.4 -29.3 21.5 -29.3 60.6 0 37.1 27.3 60.5 27.4 25.4 68.4 25.4 46.9 0 76.2 -42.9h1.9v35.1h43V412.1q0 -48.8 -29.3 -76.2zm-37.1 173.9q-21.5 21.5 -52.7 21.5 -19.6 1.9 -35.2 -11.8 -15.6 -11.7 -15.6 -29.3 0 -21.4 19.5 -35.1 17.6 -13.7 46.9 -13.7 39 0 60.5 17.6 0 29.3 -23.4 50.8zM746.1 232.4Q712.9 201.2 668 201.2H544.9v365.2h46.9V418H668q46.8 0 78.1 -31.3 1.9 0 1.9 -1.9l4 -3.9q29.3 -31.3 27.3 -74.3t-33.2 -74.2zm-31.3 123.1Q695.3 373 668 373h-76.2V246.1H668q25.4 0 44.9 17.6 17.6 19.5 19.5 44.9 0 25.4 -17.6 44.9v2zm484.4 -39.1l-70.3 179.7 70.3 -179.7 -70.3 179.7h-1.9l-72.3 -179.7h-50.8l101.6 234.4 -56.7 125h46.9L1250 316.4h-50.8z"/></svg>