<svg height="1000" width="1000" xmlns="http://www.w3.org/2000/svg"><path d="M500 -60.5Q365.2 -58.6 255.9 5.9 146.5 70.3 82 179.7 17.6 289.1 15.6 423.8 17.6 558.6 82 668t173.9 173.8T500 908.2q134.8 -1.9 244.1 -66.4T918 668t66.4 -244.2Q982.4 289.1 918 179.7T744.1 5.9 500 -60.5zM361.3 666q-64.4 0 -121.1 -33.2 -54.7 -31.2 -87.9 -87.9T119.1 423.8t33.2 -121.1 87.9 -87.9q56.7 -33.2 121.1 -33.2 93.8 0 162.1 62.5L459 308.6q-41 -37.1 -97.7 -37.1 -64.4 1.9 -105.4 44.9 -43 43 -45 107.4 2 64.5 45 107.5 41 42.9 105.4 44.9 50.8 0 89.9 -27.4T498 472.7H361.3v-84h228.5q4 19.5 4 41 -2 105.5 -64.5 169.9 -60.5 64.5 -168 66.4zM812.5 459v68.3V459v68.3h-70.3V459h-68.4v-70.3h68.4v-68.4h70.3v68.4h68.4V459h-68.4z"/></svg>