<svg height="1000" width="1250" xmlns="http://www.w3.org/2000/svg"><path d="M753.9 369.1q5.9 27.4 5.9 62.5 -2 164.1 -97.7 263.7Q564.5 796.9 400.4 798.8 240.2 794.9 134.8 689.5T25.4 423.8Q29.3 263.7 134.8 158.2T400.4 48.8q152.3 3.9 250 97.7l-101.6 97.6q-19.5 -19.5 -56.6 -39 -37.1 -17.6 -91.8 -17.6 -99.6 2 -164.1 68.4Q169.9 322.3 168 423.8q1.9 101.6 68.3 168 64.5 66.4 164.1 68.4 109.4 -3.9 158.2 -60.6 48.8 -54.7 54.7 -99.6H400.4V369.1h353.5zm361.3 13.7V273.4v109.4V273.4h-109.3v109.4H898.4v109.4h107.5v109.4h109.3V492.2h109.4V382.8h-109.4z"/></svg>