<svg height="1000" width="875" xmlns="http://www.w3.org/2000/svg"><path d="M306.6 171.9q107.5 173.8 164.1 316.4 -23.4 99.6 -60.5 193.3 -19.6 -78.1 -43 -150.3Q341.8 459 300.8 390.6q9.7 -72.2 5.8 -148.4v-70.3zm-93.7 142.6H31.3h181.6H31.3q-21.5 3.9 -11.8 25.3Q140.6 500 197.3 705.1h203.1Q377 603.5 339.8 509.8 302.7 414.1 238.3 328.1q-9.8 -13.6 -25.4 -13.6zm93.7 -171.9q103.6 158.2 179.7 339.8 76.2 183.6 89.9 378.9h222.6Q779.3 658.2 705.1 476.6t-185.6 -334H306.6zM798.8 9.8Q791 -11.7 769.5 -13.7H595.7q-15.6 2 -13.7 19.6 39.1 136.7 50.8 285.1 142.6 255.9 177.7 529.3Q834 730.5 845.7 628.9q13.7 -101.6 13.7 -205.1Q857.4 207 798.8 7.8v2z"/></svg>