<svg height="1000" width="968.8" xmlns="http://www.w3.org/2000/svg"><path d="M484.4 -60.5Q349.6 -58.6 240.2 5.9 130.9 70.3 66.4 179.7 2 289.1 0 423.8 2 558.6 66.4 668t173.8 173.8 244.2 66.4q134.7 -1.9 244.1 -66.4T902.3 668t66.5 -244.2q-2 -134.7 -66.5 -244.1T728.5 5.9 484.4 -60.5zM709 380.9L488.3 679.7 709 380.9 488.3 679.7 267.6 380.9Q252 361.3 250 318.4t44.9 -78.2q41 -23.4 76.2 -11.7 35.2 9.8 56.6 35.2 25.4 27.3 60.6 25.4 35.1 0 60.5 -25.4 19.6 -25.4 56.7 -35.2 35.1 -11.7 76.1 11.7 45 35.2 43 78.2 0 42.9 -15.6 62.5z"/></svg>