<svg height="1000" width="1000" xmlns="http://www.w3.org/2000/svg"><path d="M587.9 337.9q13.7 15.6 0 31.2l-19.5 19.6q-15.7 13.6 -31.3 0l-21.5 -19.6q-11.7 -17.5 0 -33.2l19.6 -19.5q15.6 -11.7 33.2 0l19.5 21.5zm-58.6 -39.1q7.8 -9.7 0 -19.5 -9.8 -9.8 -21.5 0 -7.8 9.8 0 19.5 11.7 9.8 21.5 0zm-50.8 11.7q-9.7 9.8 0 19.6 9.8 7.8 19.5 0 9.8 -9.8 0 -19.6t-19.5 0zm140.6 -27.3q-29.3 -21.5 -41 -58.6t19.6 -74.2q31.2 -35.2 58.6 -29.3 29.2 3.9 56.6 31.2 3.9 2 5.9 4 17.5 15.6 31.2 37.1 11.7 21.4 -2 52.7 -21.4 35.2 -58.5 46.9 -39.1 11.7 -70.4 -9.8zm93.8 -85.9q-13.7 -13.7 -27.4 1.9 -11.7 13.7 -1.9 29.3 13.7 13.7 31.2 3.9 19.6 -7.8 -1.9 -35.1zm271.5 226.5Q982.4 558.6 918 668 853.5 777.3 744.1 841.8 634.8 906.3 500 908.2 365.2 906.3 255.9 841.8T82 668 15.6 423.8Q17.6 289.1 82 179.7T255.9 5.9 500 -60.5q134.8 1.9 244.1 66.4T918 179.7t66.4 244.1zm-128.9 84q0 -27.3 -27.4 -35.1Q812.5 466.8 806.6 457q-19.5 -35.1 -44.9 -52.7 -23.4 -15.6 -62.5 -5.9 17.6 -11.7 31.3 -13.6h15.6q3.9 -15.7 -19.5 -46.9 5.8 -19.5 3.9 -31.3l-2 -13.6h-1.9q48.8 -27.4 58.6 -84 3.9 -46.9 -23.5 -82T687.5 85.9Q617.2 82 582 136.7q-31.2 58.6 -11.7 101.6 21.5 41 54.7 56.6Q601.6 293 580.1 277.3q-23.5 -15.6 -33.2 -48.8 -9.8 -39 -2 -70.3 9.8 -31.2 19.6 -48.8 -4 -5.9 -15.7 -17.6 -1.9 -2 -17.5 0 -13.7 2 -31.3 9.8 17.6 -21.5 33.2 -25.4t15.6 -2q2 -21.5 -5.8 -42.9Q533.2 13.7 513.7 13.7t-33.2 23.4v-1.9q-7.8 21.4 0 72.2t33.2 97.7q-9.8 7.8 -25.4 19.5Q455.1 246.1 418 291q-35.2 46.9 -39.1 52.8 -44.9 17.5 -93.7 64.4t-45 89.8q2 9.8 5.9 15.7 -7.8 5.8 -15.6 15.6 -17.6 23.4 -7.8 43 9.7 17.5 42.9 5.8 48.9 -25.4 70.3 -60.5 0 -3.9 -31.2 -7.8 19.5 -5.9 33.2 -9.8 37.1 -9.8 56.6 -7.8 11.8 0 13.7 -31.3t2 -37.1q1.9 -44.9 -21.5 -80 19.5 17.5 37.1 46.8 17.6 31.3 17.6 72.3 -2 25.4 -15.7 35.1 -11.7 9.8 -13.6 9.8 -3.9 5.9 -7.8 13.7 -21.5 33.2 -43 85.9 -23.5 52.8 -9.8 107.4 0 -1.9 -9.7 -17.5 -7.9 -13.7 -9.8 -27.4 -29.3 31.3 -52.7 68.4 -23.5 39 5.8 58.6 27.4 11.7 78.1 -37.1Q418 712.9 464.8 644.5q48.9 -70.3 68.4 -125 50.8 -31.2 82 -66.4 29.3 -35.1 43 -60.5 23.4 42.9 66.4 82 44.9 39.1 84 52.7 39.1 11.8 46.9 -19.5z"/></svg>