<svg height="1000" width="750" xmlns="http://www.w3.org/2000/svg"><path d="M220.7 511.7q0 -50.8 29.3 -97.6 29.3 -46.9 68.4 -91.8 41 -45 74.2 -95.7 31.2 -50.8 33.2 -111.4Q421.9 44.9 390.6 -5.9q-31.2 -48.8 -41 -54.6V-41q-1.9 62.5 -41 119.1 -37.1 56.7 -89.8 113.3 -60.6 62.5 -107.5 132.8Q64.5 396.5 62.5 484.4q2 70.3 39.1 121.1 39 48.8 91.8 89.8 91.8 68.4 123 107.4t29.3 62.5q-1.9 15.7 -5.9 27.4 -3.9 7.8 -3.9 15.6 35.2 -48.8 33.2 -91.8 0 -39.1 -23.4 -78.1Q324.2 701.2 293 660.2q-5.9 -5.9 -9.8 -11.8l-7.8 -11.7q-21.5 -29.3 -39.1 -58.6 -15.6 -29.3 -15.6 -66.4zm400.4 -76.2q-13.7 -64.4 -50.8 -121 -39 -54.7 -78.1 -91.8 -39.1 -35.2 -56.7 -41.1l7.9 13.7q7.8 13.7 5.8 33.2 -1.9 56.7 -39 117.2 -35.2 62.5 -58.6 93.8 -9.8 13.6 -11.8 17.5 -5.8 13.7 -5.8 29.3 1.9 31.3 15.6 56.7t19.5 25.4q3.9 0 29.3 -29.3 27.4 -29.3 54.7 -68.4 25.4 -39.1 29.3 -72.3 17.6 33.2 17.6 64.5 -2 41 -21.5 84 -19.5 44.9 -39 74.2T418 652.3q3.9 21.5 31.2 60.6 29.3 39.1 37.1 43 3.9 0 5.9 -3.9h1.9q56.7 -58.6 93.8 -125Q623 560.5 625 484.4q0 -23.5 -3.9 -48.9z"/></svg>