<svg height="1000" width="750" xmlns="http://www.w3.org/2000/svg"><path d="M119.1 293q0 15.6 3.9 27.3l5.9 9.8h2q1.9 -21.5 7.8 -31.3 -2 33.2 23.4 66.4 11.7 13.7 44.9 23.5 33.2 11.7 62.5 -11.7 3.9 7.8 5.9 17.5 3.9 15.7 0 31.3t-3.9 17.6q0 -2 13.7 -21.5 11.7 -19.6 11.7 -43Q334 377 339.8 341.8q-1.9 2 -23.4 5.9 -21.5 1.9 -46.9 -23.5 -15.6 -19.5 -56.6 -46.9Q169.9 250 107.4 261.7q11.7 3.9 25.4 7.8 -11.7 7.8 -13.7 23.5zm56.7 -2q60.5 35.2 87.9 72.3 -9.8 5.8 -31.3 7.8 -19.5 3.9 -42.9 -11.7 -15.7 -13.7 -17.6 -33.2 -2 -21.5 3.9 -35.2zm277.3 87.9q0 23.4 11.7 43 13.7 19.5 15.7 21.5 -2 -2 -5.9 -17.6t0 -33.2q2 -7.8 5.9 -15.6 29.3 23.4 62.5 11.7 33.2 -9.8 44.9 -23.5 25.4 -33.2 25.4 -66.4 3.9 9.8 7.8 31.3l5.9 -9.8q3.9 -11.7 3.9 -27.3 -2 -15.7 -13.7 -23.5 13.7 -3.9 25.4 -7.8Q580.1 252 537.1 277.3q-41 27.4 -56.6 46.9 -25.4 25.4 -46.9 23.5 -21.5 -3.9 -21.5 -5.9 3.9 35.2 41 37.1zM574.2 291q5.9 13.7 3.9 35.2 -1.9 19.5 -17.6 33.2Q537.1 375 515.6 373q-19.5 -3.9 -27.3 -9.7 25.4 -37.1 85.9 -72.3zM312.5 742.2h-56.6 56.6 -56.6q-15.7 0 -19.6 3.9 -5.8 5.9 -1.9 17.6 15.6 27.3 27.3 35.1 9.8 7.8 23.5 7.8 11.7 0 21.4 -7.8 21.5 -27.3 25.4 -39 2 -5.9 -1.9 -13.7 -5.9 -3.9 -17.6 -3.9zM681.6 543q-9.7 54.7 -46.8 85.9 -5.9 -35.1 -5.9 -72.3Q627 519.5 627 507.8q0 -23.4 9.7 -35.1Q646.5 459 650.4 457l11.7 -7.8q2 0 3.9 -1.9 29.3 -13.7 52.8 -33.2 25.3 -19.6 27.3 -52.8 -2 -23.4 -11.7 -35.1t-19.6 -19.6q-1.9 -1.9 -3.9 -1.9 -5.8 -5.9 -7.8 -9.8 -5.8 -15.6 -5.8 -41t1.9 -31.2q3.9 -2 15.6 -25.4 13.7 -23.5 7.9 -50.8Q716.8 123 695.3 113.3q-15.6 -9.8 -39 -9.8V91.8h-2q-2 -7.8 0 -15.6 0 -13.7 3.9 -21.5 13.7 -19.5 33.2 -27.4 21.5 -7.8 23.4 -7.8l23.5 -3.9L722.7 -3.9q0 -2 -23.5 -17.6 -23.4 -13.7 -66.4 -15.6 -23.4 0 -46.9 7.8 -37.1 11.7 -62.5 37.1Q498 31.3 488.3 46.9 480.5 43 470.7 41q-5.9 -25.4 5.9 -48.8 9.7 -23.5 11.7 -25.4 -2 -2 -19.5 0 -17.6 3.9 -46.9 29.3 -5.9 -9.8 -7.8 -29.3 -3.9 -19.5 3.9 -43 -41 15.7 -58.6 37.1Q343.8 -19.5 341.8 2 332 -3.9 330.1 -19.5q-2 -13.7 -2 -25.4v-5.9q-13.6 2 -33.2 27.4Q273.4 3.9 273.4 43q-5.8 1.9 -9.7 1.9l-2 2Q252 31.3 226.6 7.8q-25.4 -25.4 -62.5 -37.1 -23.5 -7.8 -46.9 -7.8 -41 1.9 -64.5 17.6Q29.3 -5.9 27.3 -3.9V-2L11.7 15.6l23.5 3.9q1.9 0 23.4 7.8 19.5 7.9 33.2 27.4 3.9 7.8 5.9 21.5 0 7.8 -2 15.6 -1.9 5.9 -1.9 11.7 -23.5 2 -39.1 9.8Q33.2 123 27.3 146.5q-5.8 27.3 7.9 50.8 11.7 23.4 15.6 25.4 1.9 7.8 1.9 31.2 0 25.4 -5.8 43l-7.8 7.8q-2 0 -2 1.9 -1.9 0 -1.9 2 -9.8 5.9 -19.6 17.6Q5.9 339.8 3.9 361.3q2 33.2 27.4 52.8 23.4 19.5 52.7 33.2 7.8 3.9 15.6 9.7 5.9 2 13.7 15.7 9.7 13.6 9.7 35.1v48.8q-1.9 37.2 -7.8 72.3Q78.1 597.7 68.4 543q-3.9 0 -27.4 35.1Q19.5 611.3 27.3 681.6q19.6 84 91.8 107.5 13.7 29.3 45 58.6 31.2 31.2 87.9 39 39 35.2 123 37.1 84 -1.9 125 -37.1 54.7 -7.8 87.9 -39 31.2 -29.3 43 -58.6 74.2 -23.5 91.8 -107.5Q730.5 611.3 709 578.1 685.5 543 681.6 543zM597.7 -2q15.6 -5.8 33.2 -5.8 33.2 1.9 48.8 9.8 -9.8 3.9 -19.5 9.7h-17.6q-31.3 0 -54.7 15.6 -35.2 27.4 -41 45Q541 68.4 533.2 64.5q-5.9 -2 -9.8 -4 9.8 -15.6 27.4 -33.2Q570.3 7.8 597.7 -2zm41 35.2q-3.9 2 -5.9 5.9Q625 54.7 625 74.2t-7.8 33.2q-13.7 2 -23.4 5.9 -5.9 -9.8 -19.6 -23.5 2 -19.5 25.4 -42.9 17.6 -13.7 39.1 -13.7zM89.8 11.7Q80.1 5.9 70.3 2q15.6 -7.9 48.8 -9.8 17.6 0 33.2 5.8 27.4 9.8 46.9 29.3 17.6 17.6 27.4 33.2 -3.9 2 -9.8 4 -7.8 3.9 -13.7 7.8 -5.8 -17.6 -41 -45Q138.7 9.8 107.4 9.8q-11.7 1.9 -17.6 1.9zm86 78.1q-13.7 13.7 -19.5 23.5 -9.8 -3.9 -23.5 -5.9Q125 93.8 125 74.2t-7.8 -35.1l-5.9 -5.9q21.5 0 39.1 13.7 23.4 23.4 25.4 42.9zm-62.5 341.8q-5.9 -3.9 -13.7 -7.8l-1.9 -1.9Q74.2 410.2 56.6 396.5T37.1 363.3q2 -29.3 17.6 -35.2l1.9 -1.9 3.9 -3.9q-1.9 23.4 -5.8 29.3 1.9 0 13.7 -21.5t17.5 -64.5q2 -17.6 0 -44.9Q82 195.3 76.2 181.6V209l-3.9 -3.9q-5.9 -5.9 -11.8 -21.5Q52.7 168 54.7 154.3q1.9 -11.7 13.7 -15.6 9.7 -5.9 29.3 -5.9 39 2 64.4 11.7 37.1 13.7 74.2 37.1 35.2 25.4 50.8 37.2l11.7 7.8L291 214.8q-1.9 -5.8 -27.3 -35.1Q236.3 148.4 187.5 123q3.9 -7.8 43 -29.2Q293 64.5 375 64.5t144.5 29.3q39.1 21.4 43 29.2 -48.8 25.4 -76.2 56.7Q460.9 209 459 214.8l-7.8 11.8 11.7 -7.8q15.6 -11.8 50.8 -37.2 37.1 -23.4 74.2 -37.1 25.4 -9.7 64.4 -11.7 19.6 0 29.3 5.9 11.8 3.9 13.7 15.6 2 13.7 -3.9 29.3 -7.8 15.6 -13.7 21.5l-3.9 3.9v-27.4q-5.8 13.7 -7.8 39.1 -3.9 27.3 -1.9 44.9 5.8 43 17.5 64.5t13.7 21.5q-3.9 -5.9 -5.8 -29.3l1.9 1.9 2 2 1.9 1.9q15.6 5.9 17.6 35.2 -2 19.5 -19.5 33.2t-41.1 25.4l-11.7 7.8q-1.9 0 -3.9 1.9 -29.3 15.7 -37.1 66.4 -1.9 23.5 0 66.5t5.9 82q-37.1 13.7 -76.2 13.7 -5.9 -11.8 -11.7 -25.4 -2 -7.8 -21.5 -54.7 -17.6 -46.9 -29.3 -68.4 7.8 58.6 21.5 105.5t23.4 70.3q-9.7 -2 -21.5 -2H261.7q-13.7 0 -23.4 2 9.7 -23.4 23.4 -70.3t21.5 -105.5q-11.7 23.5 -29.3 68.4 -19.5 46.9 -21.5 54.7 -5.8 13.6 -11.7 25.4 -39.1 0 -76.2 -13.7 3.9 -39.1 5.9 -82t0 -66.5q-7.8 -50.7 -37.1 -66.4zM68.4 714.8Q50.8 681.6 52.7 644.5q0 -35.1 7.8 -44.9 17.6 48.8 60.6 68.4t85.9 19.5q-9.7 11.7 -13.6 19.5l-3.9 2q-21.5 23.4 -7.9 62.5 -72.2 0 -113.2 -56.7zm89.8 84q15.6 3.9 35.2 5.9 9.7 23.4 23.4 44.9 -41 -19.5 -58.6 -50.8zM375 896.5q-85.9 -3.9 -123 -48.8 -35.2 -45 -43 -76.2 -9.8 -31.3 1.9 -46.9 5.9 -11.7 48.9 -13.7h230.4q43 2 48.9 13.7 11.7 15.6 1.9 46.9 -7.8 31.2 -43 76.2 -37.1 44.9 -123 48.8zm158.2 -46.9q13.7 -21.5 23.4 -44.9 17.6 -2 37.2 -5.9 -19.6 31.3 -60.6 50.8zM681.6 714.8q-41 56.7 -113.2 56.7 13.6 -39.1 -7.9 -60.6 -1.9 -1.9 -1.9 -3.9 -5.9 -7.8 -13.7 -19.5 41 0 84 -19.5t60.6 -68.4q7.8 9.8 9.7 46.9 0 35.1 -17.6 68.3zM375 291q19.5 -1.9 35.2 -17.6 17.5 -15.6 17.5 -17.5 -27.3 15.6 -52.7 15.6t-52.7 -15.6q0 1.9 17.5 17.5 15.7 13.7 35.2 17.6zm121.1 449.2h-58.6 58.6 -58.6q-11.7 0 -17.6 5.9 -3.9 7.8 -1.9 13.7 3.9 9.7 25.4 37.1 9.7 9.7 21.4 9.7 13.7 -1.9 23.5 -9.7Q500 791 515.6 761.7q3.9 -9.7 -1.9 -15.6 -3.9 -3.9 -17.6 -5.9z"/></svg>