<svg height="1000" width="500" xmlns="http://www.w3.org/2000/svg"><path d="M410.2 687.5l-27.4 48.8 27.4 -48.8 -27.4 48.8L373 892.6q-1.9 13.7 -35.1 21.5 -35.2 9.7 -87.9 9.7t-87.9 -9.7Q128.9 906.3 127 892.6L115.2 738.3 85.9 687.5q66.4 25.4 164.1 25.4 95.7 0 160.2 -25.4zM27.3 193.4l25.4 244.1L27.3 193.4l25.4 244.1Q62.5 406.3 82 375q21.5 -31.2 48.9 -44.9 19.5 -7.8 37.1 1.9 17.5 11.8 19.5 23.5 2 17.5 -7.8 17.5 -9.8 -1.9 -13.7 -13.6 -13.7 -21.5 -33.2 -5.9 -21.5 15.6 -33.2 39.1Q84 419.9 76.2 449.2q-5.9 19.6 -2 39.1 3.9 5.8 9.8 5.8 17.6 -3.9 31.2 -19.5 15.7 -15.6 25.4 -31.2l9.8 -29.3q13.7 -19.6 19.5 0 0 15.6 -7.8 31.2 -5.8 11.7 -11.7 35.2 -17.6 54.7 -15.6 50.8 -2 11.7 -11.8 15.6 -3.9 0 -5.8 -3.9 -2 -5.9 -2 -11.7 2 -5.9 7.8 -25.4l7.9 -23.5q-5.9 5.9 -13.7 11.7 -17.6 19.6 -41 23.5 -9.8 0 -15.7 -3.9L76.2 668q3.9 9.7 50.8 21.5t121 13.6q72.3 -1.9 121.1 -13.6Q416 677.7 419.9 668l21.5 -183.6q-1.9 1.9 -3.9 1.9 -15.6 15.7 -35.2 27.4 -7.8 3.9 -19.5 1.9 -13.7 0 -13.7 -13.6 3.9 -13.7 21.5 -33.2 3.9 -4 5.9 -9.8 7.8 -5.9 9.8 -15.6 -4 -7.9 -23.5 5.8 -9.8 7.8 -15.6 19.6 -11.7 17.5 -17.6 29.2 -3.9 11.8 -7.8 15.7 -2 5.8 -3.9 9.7T332 541q-7.8 19.5 -7.8 23.5 -1.9 1.9 -1.9 3.9 -3.9 5.8 -7.8 9.7 -5.9 2 -11.8 -1.9 -3.9 -2 -3.9 -5.9t2 -5.8q1.9 -11.8 15.6 -37.2 5.9 -13.6 13.7 -29.3 1.9 -7.8 1.9 -5.8h-1.9q-17.6 17.6 -27.4 21.5 -19.5 9.7 -27.3 -7.8v-2q-2 0 -2 -1.9 -17.5 15.6 -31.2 13.6 -11.7 0 -7.8 -29.3 -13.7 27.4 -43 29.3 -11.7 2 -17.6 -9.7 -3.9 -17.6 9.8 -45V459q5.9 -11.7 13.7 -31.3 5.8 -9.7 15.6 -7.8h1.9q5.9 5.9 2 15.6 -2 4 -5.9 7.9 -7.8 13.6 -13.6 31.2 -3.9 13.7 3.9 17.6 5.8 0 13.6 -3.9 13.7 -11.7 21.5 -27.4 5.9 -9.7 9.8 -23.4 1.9 -3.9 3.9 -9.8 3.9 -7.8 9.8 -9.7 3.9 0 7.8 3.9 3.9 5.8 0 13.6t-5.9 15.7l-7.8 15.6q-3.9 11.7 -5.9 23.4 2 7.8 13.7 2 7.8 -2 13.7 -7.8 0 -3.9 7.8 -23.5t43 -109.3q5.8 -9.8 11.7 -9.8 3.9 0 7.8 2 3.9 3.9 2 11.7 -2 1.9 -2 3.9 -1.9 3.9 -7.8 17.6 -9.8 21.4 -15.6 41 -5.9 9.7 -9.8 21.5 -3.9 7.8 -9.8 21.4 -5.8 15.7 -7.8 21.5 -1.9 7.8 2 11.7 9.7 -1.9 23.4 -13.6 15.6 -13.7 21.5 -19.6l2 -1.9 1.9 -2q0 -3.9 2 -7.8 0 -1.9 1.9 -3.9 2 -9.8 7.8 -19.5 2 -2 5.9 -2 7.8 0 7.8 7.8 0 5.9 -2 11.8l3.9 -3.9 5.9 -5.9q21.5 -17.6 35.2 -13.7t13.6 15.6q0 9.8 -9.7 23.5 -7.8 11.7 -15.7 21.5h-1.9q0 1.9 -2 1.9 -5.8 7.8 -7.8 9.8 2 3.9 5.9 3.9 5.8 -2 13.7 -7.8l1.9 -2q13.7 -11.7 29.3 -23.4 2 -2 2 -3.9l29.3 -265.6Q437.5 209 343.8 214.8t-187.5 0 -129 -21.4zm449.3 -17.6q-3.9 15.6 -72.3 23.4Q337.9 207 250 207T93.8 199.2Q27.3 191.4 23.4 175.8q3.9 -11.7 66.4 -21.5 64.5 -7.8 160.2 -9.8 25.4 0 50.8 2l25.4 -95.7 119.1 -125q5.9 -3.9 19.5 5.8 13.7 11.8 9.8 17.6v2L363.3 68.4l-19.5 80q58.5 3.9 95.7 11.8 35.1 5.8 37.1 15.6zm-136.8 9.7q0 -1.9 -3.9 -3.9l-1.9 2q-2 3.9 -21.5 3.9T291 183.6v-2h2q-5.9 2 -5.9 3.9 2 5.9 25.4 7.9 25.4 -2 27.3 -7.9z"/></svg>