<svg height="1000" width="1000" xmlns="http://www.w3.org/2000/svg"><path d="M933.6 173.8q-13.7 -19.5 -72.3 -60.5Q802.7 74.2 726.6 31.3q-74.3 -45 -138.7 -76.2Q523.4 -74.2 500 -76.2q-23.4 2 -87.9 31.3 -62.5 31.2 -138.7 76.2 -76.1 42.9 -134.7 82 -58.6 41 -70.3 60.5 -11.8 21.5 -15.7 91.8 -5.8 70.3 -5.8 158.2T52.7 582q3.9 70.3 15.7 91.8 11.7 19.6 70.3 60.6 58.6 39 134.7 82 76.2 44.9 138.7 76.2 64.5 29.3 87.9 31.2 23.4 -1.9 87.9 -31.2 64.4 -31.3 138.7 -76.2 76.1 -43 134.7 -82 58.6 -41 70.3 -60.6 11.8 -21.5 17.6 -91.8 3.9 -70.3 3.9 -158.2t-3.9 -158.2q-5.8 -70.3 -15.6 -91.8zM617.2 732.4q-9.8 -3.9 -41 -35.1Q543 666 543 658.2q1.9 -3.9 35.1 -3.9v-91.8q0 -48.8 2 -78.1 0 -2 -2 -3.9v-5.9H421.9v5.9q0 37.1 3.9 134.7 0 13.7 -11.7 11.8h-60.6q-11.7 1.9 -9.7 -11.8v-15.6q1.9 -46.9 1.9 -138.7 2 -89.8 -1.9 -261.7v-5.8q-31.3 0 -35.2 -3.9 0 -7.9 33.2 -39.1t43 -35.2q9.7 3.9 42.9 35.2 31.3 31.2 31.3 39.1 -3.9 3.9 -33.2 3.9v5.8q-2 29.3 -2 70.3 -1.9 41 -1.9 80.1v56.7h156.2v-4q0 -29.3 -1.9 -160.1 -2 -9.8 7.8 -9.8h64.4q9.8 0 9.8 9.8 -3.9 138.7 -3.9 212.9v109.4q0 35.1 2 50.7v39.1q29.2 0 35.1 3.9 0 7.8 -33.2 39.1 -31.2 31.2 -41 35.1z"/></svg>