<svg height="1000" width="1000" xmlns="http://www.w3.org/2000/svg"><path d="M865.2 -76.2H140.6h724.6H140.6q-7.8 56.7 -46.8 93.8Q56.6 56.6 0 64.5v724.6q54.7 7.8 93.8 44.9 37.1 35.1 46.8 89.8h726.6q5.8 -54.7 43 -91.8t89.8 -44.9V64.5Q945.3 54.7 908.2 15.6q-35.2 -37.1 -43 -91.8zm-72.2 791h-37.1q-9.8 -1.9 -17.6 -1.9 -5.9 0 -15.6 -2h-37.2q-46.8 0 -54.6 2 -9.8 1.9 -54.7 1.9 -7.8 -1.9 -7.8 -7.8 0 -7.8 7.8 -11.7 29.3 -9.8 37.1 -15.6 9.7 -3.9 9.7 -7.8l2 -2q9.8 -19.5 11.7 -72.2t0 -103.6q-1.9 -25.3 -1.9 -44.9 -2 -19.5 -25.4 -23.4H390.6q-23.4 3.9 -25.4 23.4 0 19.6 -1.9 44.9 -2 50.8 0 103.6t11.7 72.2l2 2q0 3.9 9.7 7.8 7.8 5.8 37.1 15.6 7.8 3.9 7.8 11.7 0 5.9 -7.8 7.8 -44.9 0 -54.7 -1.9 -7.8 -2 -54.6 -2h-37.2q-9.7 2 -17.5 2 -5.9 0 -15.7 1.9H207q-11.7 -1.9 -9.7 -9.7 0 -9.8 9.7 -11.7 3.9 0 5.9 -2Q232.4 689.5 250 666q9.8 -15.6 11.7 -72.2 3.9 -56.7 3.9 -175.8V218.8q-1.9 -31.3 -17.6 -45 -15.6 -11.7 -39 -17.5 -11.7 -4 -9.8 -13.7 3.9 -7.8 11.7 -9.8H248q11.8 2 17.6 2 7.8 0 19.6 1.9h37.1q41 0 48.8 -1.9 5.9 -2 46.9 -2 5.8 2 9.7 9.8 2 7.8 -7.8 11.7H416q-11.7 2 -29.3 15.6 -17.6 15.6 -19.5 60.6V330.1q0 19.5 1.9 35.1 -1.9 3.9 3.9 13.7t19.6 11.7h214.8q13.7 -1.9 19.6 -11.7t3.9 -13.7q1.9 -15.6 1.9 -35.1V230.5q-1.9 -45 -19.5 -60.6Q595.7 156.3 584 154.3h-3.9q-9.8 -3.9 -7.8 -11.7 3.9 -7.8 9.7 -9.8 39.1 0 46.9 2 3.9 0 13.7 1.9h72.2q11.8 -1.9 19.6 -1.9 5.8 0 17.6 -2h37.1q7.8 2 11.7 9.8 1.9 9.7 -9.8 13.7 -23.4 5.8 -39 17.5 -15.7 13.7 -17.6 45V416q0 121.1 3.9 177.8 1.9 56.6 11.7 72.2 11.7 13.7 19.5 17.6 5.9 5.9 17.6 7.8 3.9 2 5.9 2 9.7 1.9 9.7 9.7 2 9.8 -9.7 11.7z"/></svg>