<svg height="1000" width="1000" xmlns="http://www.w3.org/2000/svg"><path d="M507.8 421.9l-250 -433.6 250 433.6 -250 -433.6q-1.9 -2 -3.9 -2 -3.9 0 -3.9 2L0 421.9v3.9l252 433.6q1.9 1.9 3.9 1.9t3.9 -1.9l248 -433.6q2 -2 0 -3.9zM584 371.1q1.9 1.9 3.9 1.9h130.9q1.9 0 3.9 -1.9v-3.9L505.9 -11.7q-2 -2 -3.9 -2H373q-3.9 0 -3.9 2 -1.9 1.9 0 3.9zm416 50.8L752 -11.7l248 433.6L752 -11.7q-2 -2 -4 -2H617.2q-2 0 -3.9 2v3.9l248 431.6 -248 431.7v3.9q1.9 1.9 3.9 1.9H748q2 0 4 -1.9l248 -433.6v-3.9zm-285.2 58.6H585.9h128.9H585.9q-3.9 0 -3.9 1.9L369.1 855.5q-1.9 1.9 0 3.9 0 1.9 3.9 1.9h129q1.9 0 3.9 -1.9L718.8 486.3q1.9 -1.9 0 -3.9t-4 -1.9z"/></svg>