<svg height="1000" width="1250" xmlns="http://www.w3.org/2000/svg"><path d="M283.2 611.3l74.2 2 -74.2 -2 74.2 2q-39 -13.7 -74.2 -33.2v31.2zm111.3 -9.7v9.7 -9.7 9.7l-37.1 2Q466.8 648.4 543 627q-60.6 3.9 -148.5 -25.4zM1193.4 377q23.4 -2 41 -17.6 15.6 -15.6 15.6 -39.1 -3.9 -48.8 -56.6 -48.8 -50.8 0 -56.7 48.8 2 23.5 17.6 39.1t39.1 17.6zm-56.7 234.3H1250h-113.3H1250V396.5h-113.3v214.8zm-144.5 0h113.3H992.2h113.3V230.5l-113.3 52.7v328.1zM931.6 378.9q-29.3 -25.4 -62.5 -31.2 -33.2 -3.9 -35.1 -2 -2 -1.9 -35.2 2 -33.2 5.8 -62.5 31.2 -25.4 23.4 -29.3 46.9 -5.8 23.4 -3.9 46.9v15.6q-1.9 25.4 3.9 46.9 3.9 23.4 29.3 48.8 29.3 25.4 62.5 29.3 31.3 3.9 35.2 3.9 1.9 0 35.1 -3.9T931.6 584q25.4 -25.4 29.3 -48.8 5.9 -21.5 3.9 -46.9v-15.6q2 -23.5 -3.9 -46.9t-29.3 -46.9zm-76.1 140.6q0 5.9 -3.9 13.7Q845.7 543 834 543q-13.7 0 -17.6 -9.8 -3.9 -7.8 -3.9 -13.7v-80Q818.4 416 834 418q15.6 -2 21.5 21.5v80zm-209 -140.6Q617.2 353.5 584 347.7q-33.2 -3.9 -35.2 -2 -1.9 -1.9 -35.1 2 -33.2 5.8 -62.5 31.2 -5.9 3.9 -11.7 11.7Q328.1 308.6 240.2 271.5v-41L197.3 250Q117.2 218.8 68.4 220.7T5.9 252q-2 -2 -5.9 21.4 -3.9 21.5 21.5 70.4 23.4 46.8 105.5 123v144.5h113.2v-56.6Q220.7 543 203.1 529.3 160.2 496.1 127 466.8v-60.5q39 42.9 105.4 99.6l7.8 5.8v-56.6q0 -11.7 3.9 -23.5T261.7 418q23.5 3.9 21.5 29.3V543q52.7 35.1 111.3 58.6V418q0 -29.3 -19.5 -50.8t-58.6 -23.4q-48.8 1.9 -76.2 42.9V281.3q62.5 31.2 117.2 62.5 52.8 33.2 78.1 50.7 -23.4 39.1 -17.5 78.2v15.6q-2 23.4 3.9 46.9 3.9 23.4 29.3 46.8 29.3 25.4 62.5 31.3 33.2 3.9 35.1 3.9t35.2 -3.9q33.2 -5.9 62.5 -31.3 25.4 -23.4 29.3 -46.8 5.8 -23.5 3.9 -46.9v-15.6q1.9 -25.4 -3.9 -46.9 -3.9 -23.5 -29.3 -46.9zM127 283.2v123.1V283.2v123.1Q60.5 328.1 54.7 291q-5.9 -35.1 3.9 -39 43 -29.3 125 3.9zm443.3 236.3q0 5.9 -3.9 13.7 -3.9 9.8 -17.6 9.8t-17.5 -9.8q-4 -7.8 -4 -13.7v-80Q533.2 416 548.8 418q15.7 -2 21.5 21.5v80z"/></svg>