<svg height="1000" width="1000" xmlns="http://www.w3.org/2000/svg"><path d="M148.4 646.5q5.9 50.8 -39 76.2Q60.5 744.1 23.4 709 -9.8 669.9 9.8 623q25.4 -44.9 76.1 -39Q15.6 474.6 44.9 390.6T127 259.8q54.6 -46.9 60.5 -48.9 -7.8 66.4 -11.7 121.1t-3.9 58.6q-62.5 39.1 -54.7 68.4t48.8 46.9q43 17.5 84 25.4 31.3 82 99.6 130.8 70.3 48.8 158.2 48.8h9.8V748Q373 748 283.2 714.8T148.4 646.5zM359.4 7.8q3.9 -21.5 -5.9 -43 -13.7 -25.3 -37.1 -35.1Q291 -82 263.7 -72.3t-41 33.2 -7.9 50.8q5.9 29.3 27.4 44.9 21.5 17.6 50.8 15.7 -35.2 42.9 -68.4 132.8 -33.2 91.8 -35.1 238.3h42.9v-5.9q2 -85.9 46.9 -154.3 46.9 -66.4 125 -99.6 7.8 -41 25.4 -85.9T476.6 41q29.3 -9.7 72.2 54.7 2 0 56.7 3.9t121.1 13.7q0 -5.9 -46.9 -60.6Q632.8 0 550.8 -29.3T359.4 7.8zm595.7 261.7q25.4 -13.6 35.1 -39 11.8 -25.4 2 -52.8t-35.2 -41Q933.6 123 904.3 130.9q-27.3 7.8 -43 29.3 -15.6 23.4 -11.7 52.7Q802.7 179.7 714.8 148.4 627 119.1 490.2 119.1v45h5.9q5.9 -2 11.7 -2 86 2 152.4 48.8 68.3 45 101.5 125 41 9.8 82.1 27.4t48.8 46.9q5.8 27.3 -54.7 68.3 0 2 -3.9 56.7t-13.7 121.1q3.9 0 39.1 -29.3 35.1 -27.4 70.3 -78.2 37.1 -50.8 41 -119.1Q976.6 359.4 916 275.4q19.5 1.9 39.1 -5.9zM730.5 775.4Q763.7 728.5 791 642.6q27.4 -86 27.4 -216.8h-37.1v11.7q-2 87.9 -48.9 156.3 -48.8 68.3 -128.9 99.6 -9.7 41 -27.3 83.9 -17.6 41.1 -46.9 48.9t-68.4 -54.7q-3.9 0 -58.6 -3.9 -52.7 -3.9 -119.1 -11.7 0 5.8 46.9 60.5 48.8 54.7 132.8 82 84 29.3 195.3 -42.9 0 13.6 5.9 27.3 13.6 23.5 37.1 35.2 25.4 9.7 52.7 1.9 25.4 -7.8 41 -31.2 13.7 -21.5 9.8 -50.8Q798.8 810.5 779.3 793t-48.8 -17.6z"/></svg>