<svg height="1000" width="1000" xmlns="http://www.w3.org/2000/svg"><path d="M707 -76.2q-1.9 127 -46.8 207.1 -43 78.1 -105.5 125Q492.2 302.7 431.6 332l-1.9 2q-80.1 41 -127 89.8 -46.8 46.9 -48.8 148.5H62.5q2 -127 44.9 -205.1 43 -80.1 105.5 -125 64.4 -46.9 123 -78.1Q418 125 464.8 76.2t48.9 -152.4H707zM587.9 515.6q82 -41 128.9 -89.8Q763.7 377 763.7 275.4h191.4q-2 126.9 -44.9 205.1 -43 80 -105.5 125 -62.5 46.8 -123.1 78.1 -82 39.1 -128.9 87.9t-46.8 152.3H314.5q1.9 -126.9 44.9 -207 42.9 -78.1 105.4 -125t123.1 -76.2z"/></svg>