<svg height="1000" width="1000" xmlns="http://www.w3.org/2000/svg"><path d="M521.5 337.9q-76.2 72.3 -78.1 183.6 0 87.9 50.7 152.3l-97.6 97.7q-13.7 -3.9 -27.4 -3.9 -33.2 0 -54.6 21.5Q291 812.5 291 845.7t23.5 54.7q23.4 23.4 54.6 23.4 33.2 0 56.7 -23.4 21.5 -23.4 23.4 -54.7 0 -11.7 -3.9 -23.4L543 724.6q64.4 50.8 154.3 50.8 107.4 -2 179.7 -74.2 72.2 -70.3 74.2 -179.7 -2 -97.7 -62.5 -166 -58.6 -68.4 -152.4 -84V150.4Q789.1 125 791 66.4 789.1 27.3 763.7 0q-25.4 -25.4 -64.5 -27.3 -39 1.9 -64.4 27.3 -25.4 27.3 -27.4 66.4 2 58.6 54.7 84v119.1q-44.9 5.9 -82 27.4Q543 269.5 466.8 212.9q-54.7 -39.1 -113.3 -82T250 52.7q3.9 -13.6 3.9 -27.3 -1.9 -43 -31.2 -72.3 -27.4 -27.3 -72.3 -29.3 -43 2 -70.3 29.3Q50.8 -17.6 48.8 25.4q2 43 31.3 72.3 27.3 29.3 70.3 31.2 29.3 -1.9 52.7 -15.6l318.4 224.6zm175.8 318.4q-56.7 -2 -95.7 -39.1 -37.1 -37.1 -39.1 -95.7 2 -56.7 39.1 -95.7 39 -37.1 95.7 -39.1 56.6 2 95.7 39.1 37.1 39 39 95.7 -1.9 58.6 -39 95.7 -39.1 37.1 -95.7 39.1z"/></svg>