<svg height="1000" width="1125" xmlns="http://www.w3.org/2000/svg"><path d="M246.1 246.1q-62.5 3.9 -89.8 60.5 -21.5 58.6 21.4 103.6 45 42.9 103.6 21.4 56.6 -27.3 60.5 -87.8 -2 -41.1 -29.3 -68.4t-66.4 -29.3zM168 755.9h154.3H168h154.3V480.5H168v275.4zM464.8 341.8q-1.9 -27.3 -11.7 -37.1 -11.7 -7.8 -25.4 -5.9h-27.3v89.9h27.3q13.7 0 25.4 -7.8 9.8 -9.8 11.7 -39.1zm392.6 89.8V253.9v177.7V253.9h44.9v134.8h66.5Q957 267.6 900.4 203.1 841.8 138.7 757.8 115.2T585.9 91.8H400.4v162.1h27.3q78.2 3.9 80.1 87.9 -1.9 87.9 -80.1 89.8h-27.3v324.3h185.5q209 -2 296.9 -89.9 86 -87.9 86 -234.4H857.4zm-212.9 0H533.2h111.3H533.2V253.9h107.4v44.9h-62.5v19.6h58.6v44.9h-58.6v25.4h66.4v42.9zm144.6 0l-9.8 -33.2 9.8 33.2 -9.8 -33.2h-58.6l-9.8 33.2h-46.8l54.7 -177.7h62.5l54.6 177.7h-46.8zM585.9 -13.7H62.5h523.4H62.5v875h523.4q238.3 0 363.3 -113.3 125 -111.3 127 -326.1 1.9 -84 -33.2 -185.6Q1007.8 136.7 902.3 62.5 794.9 -9.8 585.9 -13.7zm0 834H103.5h482.4H103.5v-793h482.4q209 0 328.2 97.7 119.1 95.7 121.1 296.9 -2 197.2 -117.2 296.9Q804.7 820.3 585.9 820.3zM750 302.7l-15.6 50.8L750 302.7l-15.6 50.8h31.2L752 302.7h-2z"/></svg>