<svg height="1000" width="875" xmlns="http://www.w3.org/2000/svg"><path d="M175.8 556.6h-70.3 70.3 -70.3V287.1h70.3v269.5zM304.7 414.1l17.6 -127 -17.6 127 17.6 -127h91.8v269.5h-60.6V375l-27.3 181.6h-41L259.8 378.9v177.7h-60.6V287.1h89.9q0 15.6 3.9 33.2 1.9 11.7 3.9 25.4l7.8 68.4zm132.8 142.5V287.1v269.5V287.1h50.8q48.8 0 64.4 5.9 17.6 3.9 27.4 15.6 9.7 7.8 11.7 23.4 2 11.8 2 50.8v93.8q0 35.1 -2 48.8 -3.9 11.7 -11.7 17.6 -9.8 7.8 -21.5 9.7 -13.7 3.9 -37.1 3.9h-84zM505.9 334v173.8V334v173.8q15.6 0 19.5 -3.9 1.9 -5.9 1.9 -33.2V367.2q2 -17.6 0 -23.4t-5.8 -9.8h-15.6zm113.2 222.6V287.1v269.5V287.1h66.4V373q7.9 -7.8 17.6 -11.7 11.7 -5.8 25.4 -5.8t23.5 3.9q9.7 5.8 15.6 13.6 5.8 5.9 5.8 13.7 2 3.9 0 13.7V502q0 17.5 -1.9 29.3t-13.7 17.5q-13.7 11.7 -29.3 9.8 -13.7 0 -25.4 -3.9 -9.7 -5.9 -17.6 -15.6l-3.9 17.5h-62.5zm87.9 -41q2 -5.8 2 -25.4v-68.3q0 -17.6 -2 -21.5 -3.9 -5.9 -11.7 -5.9 -5.8 0 -7.8 3.9 -2 5.9 -2 23.5v70.3q0 19.5 2 23.4 2 5.9 7.8 5.9t11.7 -5.9zM816.4 -13.7q23.4 2 41 19.6Q873 23.4 873 48.8v750q0 25.4 -15.6 43 -15.6 15.6 -39 17.6l-2 1.9H58.6q-2 -1.9 -2 0Q7.8 853.5 0 802.7V44.9Q7.8 -5.9 58.6 -15.6h757.8v1.9zM58.6 3.9q-35.2 5.9 -41 41v757.8q1.9 15.7 13.7 27.4t27.3 13.7h757.8q37.1 -7.9 41 -45v-750q0 -17.5 -11.7 -31.2Q834 5.9 816.4 3.9H58.6z"/></svg>