<svg height="1000" width="875" xmlns="http://www.w3.org/2000/svg"><path d="M437.5 199.2q-95.7 2 -158.2 66.4 -64.5 62.5 -66.4 158.2 1.9 95.7 66.4 158.2 62.5 64.5 158.2 66.4 95.7 -1.9 158.2 -66.4 64.5 -62.5 66.4 -158.2 -1.9 -95.7 -66.4 -158.2Q533.2 201.2 437.5 199.2zm0 371.1Q375 568.4 334 527.3q-41 -41 -43 -103.5 2 -62.5 43 -103.5t103.5 -43q62.5 2 103.5 43t43 103.5q-2 62.5 -43 103.5t-103.5 43zM724.6 189.5q-5.8 48.8 -52.7 52.7Q623 238.3 619.1 189.5q0 -21.5 15.7 -37.2 13.6 -13.6 37.1 -13.6 21.5 0 37.1 13.6 13.7 15.7 15.6 37.2zM873 244.1Q873 136.7 800.8 60.5 724.6 -11.7 619.1 -11.7q-39 -2 -111.3 -2H367.2q-72.3 0 -109.4 2 -105.5 0 -183.6 72.2Q2 136.7 3.9 242.2 0 281.3 0 353.5v140.6t3.9 109.4Q2 710.9 74.2 787.1q76.2 72.3 183.6 70.3 37.1 2 109.4 3.9h140.6q72.3 -1.9 111.3 -3.9 105.5 2 181.7 -70.3Q873 710.9 873 603.5q2 -39 2 -109.4V353.5q0 -72.2 -2 -111.3v1.9zm-93.7 437.5q-25.4 58.6 -84 84 -39 13.7 -105.5 15.7t-121 1.9h-62.5q-54.7 0 -121.1 -1.9 -64.5 -2 -105.5 -15.7 -58.6 -25.4 -84 -84Q82 640.6 80.1 576.2q-2 -66.4 -2 -121.1v-62.5q0 -54.7 2 -121.1T95.7 166q25.4 -58.6 84 -84 41 -13.6 105.5 -15.6 66.4 -3.9 121.1 -1.9h62.5q54.6 0 121 1.9T695.3 82q58.6 25.4 84 84 13.7 39.1 15.6 105.5 3.9 66.4 2 121.1v62.5q1.9 54.7 -2 121.1 -1.9 66.4 -15.6 105.4z"/></svg>