<svg height="1000" width="875" xmlns="http://www.w3.org/2000/svg"><path d="M765.6 -13.7H109.4h656.2H109.4q-46.9 2 -78.1 31.3Q2 48.8 0 95.7V752q2 46.8 31.3 78.1 31.2 29.3 78.1 31.2h656.2q46.9 -1.9 78.2 -31.2Q873 798.8 875 752V95.7Q873 48.8 843.8 17.6q-31.3 -29.3 -78.2 -31.3zM554.7 146.5q3.9 -29.3 29.3 -29.3 25.4 0 29.3 29.3v390.6q-3.9 27.4 -29.3 27.4t-29.3 -27.4V146.5zM408.2 132.8q3.9 -29.3 29.3 -29.3 25.4 0 29.3 29.3v421.9Q462.9 584 437.5 584t-29.3 -29.3V132.8zm-146.5 13.7q3.9 -29.3 29.3 -29.3 25.4 0 29.3 29.3v390.6q-3.9 27.4 -29.3 27.4t-29.3 -27.4V146.5zm-144.5 58.6q3.9 -29.3 29.3 -29.3 25.4 0 29.3 29.3v261.7q-3.9 29.3 -29.3 29.3t-29.3 -29.3V205.1zM748 650.4q-74.2 60.5 -191.4 82 -115.2 21.5 -234.3 2Q205.1 712.9 127 650.4q-19.6 -21.5 -4 -41 17.6 -19.6 41.1 -3.9 68.3 54.7 171.8 72.2T543 675.8q103.5 -17.6 167.9 -70.3 23.5 -15.7 41.1 3.9 15.6 19.5 -4 41zm9.8 -183.6q-3.9 29.3 -29.3 29.3 -25.4 0 -29.3 -29.3V205.1q3.9 -29.3 29.3 -29.3t29.3 29.3v261.7z"/></svg>