<svg height="1000" width="1000" xmlns="http://www.w3.org/2000/svg"><path d="M943.4 236.3q17.5 -37.1 29.3 -84 11.7 -46.8 11.7 -87.8Q984.4 -44.9 875 -70.3 767.6 -95.7 576.2 -11.7 414.1 -17.6 285.2 82 154.3 183.6 113.3 353.5q44.9 -54.7 109.4 -111.3 62.5 -56.7 128.9 -85.9Q189.5 302.7 85.9 494.1 54.7 550.8 27.3 628.9 2 707 0 777.3q2 93.8 52.7 125 52.8 31.3 132.8 17.6 80.1 -15.6 166.1 -60.5 46.8 21.5 97.6 25.4 48.8 5.8 101.6 3.9 144.5 0 259.7 -74.2 113.3 -74.3 164.1 -211H738.3q-56.7 86 -144.5 97.7 -89.9 9.7 -164.1 -41Q357.4 611.3 353.5 511.7h642.6q9.8 -64.4 -3.9 -136.7Q980.5 302.7 943.4 236.3zM127 601.6q25.3 76.1 76.1 136.7 50.8 62.5 119.2 103.5 -89.9 48.8 -160.2 46.9Q91.8 884.8 74.2 816.4T127 601.6zM353.5 388.7q3.9 -82.1 62.5 -132.8 58.6 -50.8 140.6 -52.8 80.1 2 138.7 52.8t62.5 132.8H353.5zM712.9 21.5Q744.1 5.9 781.3 -5.9q37.1 -13.6 74.2 -15.6 46.8 2 76.1 29.3Q959 37.1 960.9 84q0 31.2 -9.7 66.4 -7.8 37.1 -19.6 66.4 -39 -62.5 -93.7 -115.2Q781.3 48.8 712.9 21.5z"/></svg>