<svg height="1000" width="875" xmlns="http://www.w3.org/2000/svg"><path d="M794.9 -13.7H80.1h714.8H80.1q-35.2 0 -56.7 23.5Q0 31.3 0 66.4v714.9q0 35.1 23.4 56.6 21.5 23.4 56.7 23.4h714.8q35.2 0 56.7 -23.4Q875 816.4 875 781.3V66.4Q875 31.3 851.6 9.8q-21.5 -23.5 -56.7 -23.5zM343.8 209q-2 33.2 -21.5 43 -21.5 9.7 -29.3 9.7 -23.5 0 -39.1 -15.6Q240.2 232.4 238.3 209q7.8 -50.8 52.7 -52.7 44.9 0 52.8 52.7zm306.6 451.2q-56.6 -2 -70.3 -31.3 -13.7 -31.2 -5.9 -74.2 7.8 -41 19.6 -78.1 3.9 -13.7 7.8 -25.4 11.7 -44.9 -11.8 -64.5t-56.6 -5.8q-33.2 15.6 -48.8 72.2l-50.8 201.2h-87.9l15.6 -62.5Q310.5 666 246.1 660.2 181.6 656.3 177.7 584q-1.9 -13.7 2 -33.2t21.5 -84q7.8 -33.2 21.5 -85.9h-62.5l17.5 -70.4h150.4q-21.5 86 -35.1 134.8 -21.5 87.9 -25.4 107.4t-3.9 27.4q3.9 31.2 42.9 19.5 41.1 -11.7 68.4 -64.4l39.1 -154.3h-62.5l17.5 -70.4h134.8l-17.6 78.2q43 -72.3 99.6 -82.1 54.7 -11.7 87.9 31.3 35.2 41 11.7 125 -7.8 31.2 -13.6 50.8 -9.8 35.1 -11.7 46.8 -3.9 9.8 -3.9 17.6 1.9 25.4 21.4 23.5 19.6 0 41.1 -56.7l35.1 13.7Q720.7 664.1 650.4 660.2z"/></svg>