<svg height="1000" width="1250" xmlns="http://www.w3.org/2000/svg"><path d="M1203.1 236.3h-130.8 130.8 -130.8Q1013.7 103.5 896.5 23.4 777.3 -58.6 625 -60.5 490.2 -58.6 380.9 5.9T207 179.7t-66.4 244.1q0 48.9 9.8 93.8H46.9Q3.9 521.5 0 564.5q3.9 42.9 46.9 46.8h130.8q58.6 132.8 175.8 212.9 119.2 82.1 271.5 84 134.8 -1.9 244.1 -66.4T1043 668t66.4 -244.2q0 -48.8 -9.8 -93.7h103.5q43 -3.9 46.9 -46.9 -3.9 -43 -46.9 -46.9zm-187.5 187.5q-3.9 166 -115.2 275.4Q791 810.5 625 814.5q-111.3 -2 -201.2 -56.7T283.2 611.3h544.9q43 -3.9 46.9 -46.8 -3.9 -43 -46.9 -46.9h-582q-11.7 -44.9 -11.7 -93.8 3.9 -166 115.2 -275.4Q459 37.1 625 33.2q111.3 2 201.2 56.6t142.6 146.5H421.9q-43 3.9 -46.9 46.9 3.9 43 46.9 46.9h582q11.7 44.9 11.7 93.7zM421.9 377h406.2H421.9h406.2q43 3.9 46.9 46.8 -3.9 43 -46.9 46.9H421.9q-43 -3.9 -46.9 -46.9 3.9 -42.9 46.9 -46.8z"/></svg>