<svg height="1000" width="875" xmlns="http://www.w3.org/2000/svg"><path d="M437.5 80.1Q294.9 84 201.2 177.7 105.5 273.4 103.5 416q2 140.6 97.7 236.3 93.7 93.8 236.3 97.7 140.6 -3.9 236.3 -97.7Q767.6 556.6 771.5 416 767.6 273.4 673.8 177.7 578.1 84 437.5 80.1zm154.3 468.7q-11.7 39.1 -52.7 46.9 -35.2 9.8 -62.5 -9.8 -35.2 -35.1 -3.9 -72.2 23.4 -17.6 68.3 -23.5h5.9q9.7 -1.9 15.6 -7.8 3.9 0 3.9 -25.4V324.2q0 -15.6 -15.6 -11.7 -7.8 2 -50.8 9.8t-84 15.6 -44.9 7.8q-13.7 2 -13.7 15.6v211t-1.9 21.5q-5.9 25.3 -29.3 37.1 -11.7 7.8 -31.3 9.7 -17.6 3.9 -29.3 2 -33.2 -7.8 -41 -35.2t11.7 -48.8q23.5 -19.5 68.4 -23.4 1.9 -2 5.8 -2 9.8 0 15.7 -7.8 3.9 -7.8 5.8 -62.5 0 -54.7 -1.9 -113.3 0 -72.3 1.9 -84 0 -7.8 5.9 -13.6 7.8 -5.9 13.7 -5.9 58.6 -9.8 97.6 -17.6Q527.3 212.9 552.7 209l23.5 -3.9q17.6 0 17.6 17.6v306.6t-2 19.5zm82 -562.5H201.2h472.6H201.2q-86 2 -142.6 58.6T0 187.5v472.7q2 85.9 58.6 142.5t142.6 58.6h472.6q86 -1.9 142.6 -58.6T875 660.2V187.5Q873 101.6 816.4 44.9T673.8 -13.7zM437.5 791Q277.3 787.1 169.9 681.6 64.5 574.2 60.5 416q4 -160.1 109.4 -267.6Q277.3 43 437.5 39.1 595.7 43 703.1 148.4 808.6 255.9 812.5 416q-3.9 158.2 -109.4 265.6Q595.7 787.1 437.5 791z"/></svg>