<svg height="1000" width="750" xmlns="http://www.w3.org/2000/svg"><path d="M746.1 681.6q-23.4 80.1 -107.4 93.8 -35.2 7.8 -66.4 5.9 -31.3 -4 -60.6 -25.4 -35.1 -31.3 -35.1 -72.3 -2 -41 31.2 -72.3 21.5 -21.5 56.7 -31.2 33.2 -9.8 80 -17.6 5.9 -2 11.8 -2 17.5 -1.9 31.2 -15.6 5.9 -3.9 7.8 -19.5t2 -82q-2 -64.5 -2 -216.8 2 -31.3 -33.2 -23.5 -13.7 2 -99.6 17.6 -84 17.6 -168 33.2t-93.7 15.6v2q-29.3 1.9 -27.4 31.2v252q2 97.6 0 138.7V748q-1.9 13.7 -3.9 23.5 -13.6 52.7 -58.6 76.2 -27.3 13.6 -62.5 19.5 -37.1 5.8 -62.5 1.9Q21.5 853.5 3.9 798.8q-15.6 -54.7 25.4 -99.6Q52.7 677.7 85.9 668T166 650.4q7.8 0 13.7 -2 17.6 -1.9 29.3 -13.6 7.8 -9.8 9.8 -66.4t1.9 -136.8q0 -78.1 -1.9 -156.2V162.1t1.9 -54.7q2 -15.6 13.7 -25.4Q250 70.3 259.8 70.3 412.1 43 503.9 25.4 632.8 0 673.8 -5.9l41 -7.8q33.2 0 35.2 35.2v570.3t-2 70.3q0 13.7 -1.9 19.5z"/></svg>