<svg height="1000" width="750" xmlns="http://www.w3.org/2000/svg"><path d="M543 535.2q15.6 -9.8 29.3 -17.6 15.6 -5.9 15.6 -7.8 -2 1.9 -46.9 7.8 -44.9 7.8 -103.5 13.7 -70.3 5.8 -136.7 5.8 -64.5 0 -103.5 -3.9 -54.7 -7.8 -35.2 -21.5 17.6 -13.7 56.7 -25.4 37.1 -11.7 42.9 -11.7 -1.9 -1.9 -46.9 2 -44.9 5.8 -111.3 35.1 -44.9 25.4 27.4 39.1t193.3 9.7Q443.4 558.6 543 535.2zM375 472.7Q361.3 443.4 341.8 416 302.7 369.1 294.9 314.5q-7.8 -52.8 80.1 -127Q472.7 107.4 490.2 48.8q19.6 -60.5 3.9 -91.8 -15.6 -33.2 -19.5 -33.2Q492.2 5.9 451.2 56.6q-39.1 52.8 -97.7 93.8t-95.7 91.8q-31.2 50.8 5.9 109.4 39 56.6 111.3 121.1zM599.6 128.9q-7.8 0 -54.7 17.6 -48.8 15.6 -99.6 50.8 -50.8 33.2 -66.4 84 -15.6 50.7 41 121 31.3 43 11.7 72.3 -17.5 31.3 -23.4 33.2 2 0 29.3 -19.5t44.9 -50.8q17.6 -33.2 -7.8 -72.3 -3.9 -5.8 -7.8 -9.7Q441.4 322.3 433.6 293t27.3 -66.4Q498 187.5 599.6 128.9zm-11.7 527.4q-2 3.9 -3.9 5.8Q705.1 625 732.4 574.2q25.4 -52.7 -11.7 -85.9Q685.5 453.1 623 470.7q-9.7 3.9 -17.5 13.7 11.7 -3.9 21.5 -5.9 33.2 -5.8 58.5 17.6 25.4 25.4 9.8 68.4 -17.6 42.9 -107.4 91.8zm91.8 121q3.9 2 5.8 15.7 4 11.7 -37.1 27.3 -60.5 15.6 -175.7 23.5t-226.6 3.9q-113.3 -5.9 -166 -27.4Q56.6 808.6 84 796.9q27.3 -13.7 46.9 -17.6 35.1 -5.9 35.1 -3.9 -25.4 -11.7 -78.1 1.9Q33.2 793 9.8 816.4q-21.5 23.4 46.8 37.1Q257.8 884.8 418 873q158.2 -9.7 234.3 -41 76.2 -29.3 27.4 -54.7zm-437.5 -80Q169.9 720.7 207 748q35.2 25.4 128.9 31.3 93.8 5.9 197.3 -33.2 -29.3 -11.7 -56.6 -27.3 -62.5 11.7 -105.5 13.6 -44.9 2 -101.6 -5.8Q224.6 720.7 232.4 709q5.9 -9.8 9.8 -11.7zm351.6 189.4q-119.2 21.5 -242.2 21.5 -125 0 -212.9 -13.7 0 2 29.3 11.8 29.3 7.8 111.3 13.6 93.7 7.8 199.2 2t181.7 -29.3q76.1 -21.5 82 -62.5 3.9 0 -21.5 17.6 -27.3 19.5 -126.9 39zm-84 -273.4q-86 15.6 -146.5 17.6 -60.6 1.9 -121.1 -3.9 -44.9 -7.9 -37.1 -23.5 9.7 -13.7 13.7 -15.6 -80.1 29.3 -41.1 52.7Q214.8 666 322.3 668q105.4 3.9 228.5 -29.3 -23.5 -7.8 -41 -25.4z"/></svg>