<svg height="1000" width="875" xmlns="http://www.w3.org/2000/svg"><path d="M779.3 654.3q87.9 -121.1 91.8 -224.6 1.9 -103.5 -25.4 -166 -29.3 -64.5 -33.2 -64.5 39.1 84 17.6 160.2t-58.6 123 -41 48.9q74.2 -125 68.3 -224.7Q793 209 748 140.6 705.1 72.3 660.2 37.1 617.2 2 613.3 2q68.3 52.7 76.2 117.1t-15.7 121.1q-23.4 58.6 -50.8 95.7T593.8 373q58.5 117.2 48.8 201.2t-52.8 140.6q-44.9 54.7 -85.9 82.1 -41 25.4 -44.9 25.4 0 1.9 0 -33.2 -2 -35.2 -3.9 -132.8l37.1 37.1q27.3 29.3 29.3 33.2l-46.9 -93.8 123.1 -17.6L474.6 597.7l39.1 -107.5 -60.6 89.9q-1.9 -91.8 -5.8 -232.4Q443.4 209 441.4 99.6q-3.9 -111.3 -3.9 -119.1v-5.9 2 -2 5.9q0 5.8 -2 117.2 -3.9 111.3 -7.8 250t-5.8 232.4l-60.6 -89.9 39.1 107.5 -123.1 17.5 123.1 17.6 -46.9 93.8 66.4 -70.3Q418 753.9 418 789.1q-2 35.1 -2 33.2 -1.9 0 -44.9 -25.4 -41 -27.4 -84 -82.1Q242.2 658.2 232.4 574.2T283.2 373q-3.9 0 -31.2 -37.1t-50.8 -95.7T185.5 119.1Q193.4 54.7 261.7 0q-1.9 2 -46.9 37.1Q171.9 72.3 127 140.6t-50.8 166q-5.9 99.7 68.3 224.7 -3.9 -2 -41 -48.9Q66.4 433.6 44.9 359.4 23.4 283.2 64.5 199.2q-5.9 0 -33.2 64.5Q2 326.2 5.9 429.7q1.9 103.5 91.8 224.6 -2 2 -31.3 -31.3T0 502q0 1.9 11.7 56.6 13.7 52.7 54.7 123 43 70.4 130.9 125 87.9 52.8 236.3 58.6h7.8q150.4 -5.8 238.3 -58.6 87.9 -54.6 128.9 -125 43 -70.3 56.6 -123Q877 503.9 875 502q-35.2 87.8 -64.5 121l-31.2 31.3z"/></svg>