<svg height="1000" width="1000" xmlns="http://www.w3.org/2000/svg"><path d="M951.2 753.9q-7.8 -25.4 -39.1 -48.8 -9.8 -7.8 -15.6 -13.7 -3.9 -3.9 -13.7 -11.7Q869.1 668 853.5 654.3q-13.7 -13.7 -15.6 -21.5 0 -15.6 15.6 -41 5.9 -7.8 9.8 -15.6Q877 543 884.8 513.7q29.3 -101.6 27.3 -214.9 0 -115.2 -39.1 -197.2Q855.5 68.4 824.2 35.2 791 0 761.7 -21.5 697.3 -68.4 603.5 -74.2 507.8 -82 429.7 -54.7q-3.9 2 -9.8 3.9 -35.1 11.7 -68.3 31.3 -15.7 7.8 -29.3 15.6 -43 21.5 -76.2 48.8t-46.9 74.2q-35.1 17.6 -46.9 58.6 -13.6 39.1 -11.7 93.8 0 7.8 2 17.6 3.9 13.6 3.9 25.4 -2 5.8 -7.8 13.6l-5.9 5.9q-15.6 43 -5.8 87.9 7.8 44.9 29.3 76.1 23.4 37.2 76.1 48.9 2 29.3 15.6 58.6 2 5.8 7.9 13.6 17.5 21.5 11.7 41.1 -2 5.8 -15.6 13.6 -11.8 7.8 -25.4 13.7 -7.8 3.9 -11.8 7.8 -15.6 9.8 -31.2 17.6 -37.1 21.5 -78.1 48.8 -9.8 5.9 -21.5 11.7Q68.4 779.3 56.6 791q-9.7 9.8 -7.8 31.3 5.9 29.3 19.6 62.5 3.9 13.6 9.7 27.3v3.9l3.9 7.8h824.3q13.6 -44.9 27.3 -91.8 1.9 -7.8 5.9 -15.6 11.7 -33.2 11.7 -62.5zM402.3 -9.8q5.9 -1.9 9.8 3.9 -1.9 9.8 -11.7 11.8 -3.9 0 -5.9 1.9 -7.8 9.8 -19.5 15.6 -9.8 7.9 -19.5 17.6 -7.8 7.8 -15.7 23.5 -13.6 27.3 -29.3 35.1 -9.7 2 -17.5 0h-9.8q-15.6 0 -29.3 5.9 -11.7 5.8 -25.4 7.8Q250 68.4 300.8 37.1 351.6 3.9 402.3 -9.8zm-205 181.7q41 -43 107.4 -50.8 13.7 46.9 1.9 99.6 -11.7 46.9 -3.9 91.8l3.9 11.7q3.9 13.7 5.9 25.4 0 11.7 -13.7 13.7 -3.9 -43 -41 -62.5t-80.1 3.9v-3.9q-3.9 -33.2 -1.9 -68.4t21.5 -60.5zm72.2 392.6q-3.9 -17.6 -5.8 -31.3 3.9 -7.8 13.6 -15.6 15.7 -11.7 7.9 -31.3 -15.7 0 -25.4 9.8 -7.8 9.8 -21.5 11.7 -39.1 0 -62.5 -39 -25.4 -37.2 -23.5 -74.3 2 -31.2 23.5 -52.7 21.5 -19.5 54.7 -17.6 23.4 3.9 33.2 23.5 11.7 19.5 15.6 42.9 13.7 2 29.3 0 15.6 -3.9 21.5 -13.6 0 -23.5 -7.8 -45 -7.8 -23.4 -7.8 -48.8 1.9 -31.2 9.7 -60.5 17.6 -54.7 0 -109.4 21.5 -44.9 70.3 -80.1Q441.4 -2 486.3 -23.4 543 -48.8 615.2 -35.2q70.3 11.8 125 43 48.9 31.3 82.1 84 5.8 7.8 11.7 13.7 -29.3 -7.8 -48.8 3.9t-15.7 37.1q25.4 -21.5 56.7 -7.8t44.9 39q17.6 43 17.6 103.6v19.5q3.9 84 -13.7 164 -19.5 80.1 -62.5 142.6 -3.9 5.9 -9.8 13.7 -15.6 27.3 -39 44.9 -39.1 29.3 -89.9 44.9 -52.7 17.6 -103.5 2 -62.5 -21.5 -99.6 -60.6t-70.3 -87.8q-2 -2 -3.9 -5.9 7.8 54.7 50.8 93.7 35.1 43 78.1 64.5 -19.5 -5.9 -41 -3.9t-29.3 17.6q-43 -2 -78.1 -9.8 -35.2 -9.8 -56.7 -37.1Q304.7 660.2 291 627t-21.5 -64.5v2zm433.6 242.1q9.8 -5.8 25.4 -7.8h7.8q-17.5 -7.8 -37.1 -3.9 0 -7.8 -3.9 -15.6 -1.9 -2 -1.9 -3.9 9.7 -5.9 25.4 -15.6 17.5 -13.7 37.1 -23.5 19.5 -7.8 33.2 -1.9 9.7 7.8 15.6 31.2 3.9 23.5 3.9 41 1.9 29.3 -7.8 45 -54.7 -2 -99.6 -13.7 1.9 -7.8 0 -15.6 0 -9.8 1.9 -15.7zm-33.2 -39q-44.9 3.9 -76.1 -21.5l1.9 -2q2 0 2 -1.9 37.1 11.7 78.1 -2 19.5 -3.9 37.1 -5.8 -13.7 7.8 -25.4 17.6 -9.8 7.8 -17.6 15.6zM644.5 832q0 -9.7 -1.9 -15.6 -3.9 -9.8 -2 -23.4 23.5 -15.7 35.2 -2 9.7 13.7 1.9 31.3 -5.8 15.6 -33.2 9.7zM441.4 781.3q-21.5 -2 -52.7 -17.6Q357.4 750 367.2 734.4q19.5 11.7 50.8 11.7 15.6 0 29.3 1.9 0 7.9 -2 15.7 -3.9 7.8 -3.9 17.6zM113.3 894.5Q99.6 857.4 84 822.3 173.8 748 283.2 699.2q3.9 0 13.7 9.8 9.7 11.7 21.5 25.4Q330.1 750 334 752q44.9 31.2 97.6 54.6 5.9 2 13.7 5.9 2 23.4 15.6 68.4 2 1.9 2 3.9 1.9 5.8 1.9 9.7H113.3zM582 906.3v-2 2zm15.7 -11.8q1.9 0 3.9 -1.9 3.9 -3.9 7.8 -5.9 3.9 3.9 5.8 7.8h-17.5zM627 845.7q-13.7 9.8 -25.4 21.5 -17.6 15.6 -39.1 29.3 -11.7 5.8 -33.2 13.7 -21.5 5.8 -33.2 5.8 -5.9 -3.9 -7.8 -13.7 -2 -1.9 -2 -5.8 -1.9 -5.9 -5.8 -13.7 -11.7 -25.4 -15.7 -58.6v-1.9q-1.9 -27.4 2 -54.7t29.3 -25.4Q543 752 582 773.4q5.9 3.9 9.8 5.9 11.7 9.8 33.2 13.7v7.8q-9.8 5.8 -23.4 7.8 -11.8 1.9 -19.6 5.9 27.4 1.9 45 11.7v19.5zm103.5 48.8h-27.4 27.4 -27.4q0 -9.7 -11.7 -11.7 -9.8 2 -11.7 11.7h-33.2q-7.8 -13.6 -17.6 -23.4 3.9 -3.9 5.9 -7.8t5.8 -5.9q13.7 3.9 25.4 -3.9 7.8 -5.8 17.6 -3.9 7.8 0 17.6 7.8 13.6 11.7 31.2 13.7l-1.9 23.4zm17.5 0q0 -11.7 2 -21.5 21.5 -9.7 41 -1.9 17.6 7.8 27.4 23.4H748zm162.2 -72.2q-5.9 33.2 -17.6 72.2h-56.7q2 -3.9 3.9 -5.8 -3.9 -7.8 -9.7 -13.7 -7.8 -5.9 -11.7 -17.6Q830.1 834 830.1 793q0 -43 -15.6 -72.3 -13.7 -27.3 -43 -15.6 5.8 -9.8 17.6 -17.6 13.6 -7.8 23.4 -19.5 19.5 15.6 37.1 33.2 11.7 13.6 27.4 27.3 3.9 3.9 9.7 7.8 25.4 15.7 31.3 37.1 0 15.7 -5.9 39.1 0 5.9 -1.9 9.8zM433.6 179.7q9.8 -25.4 35.2 -44.9 25.3 -21.5 52.7 -17.6 13.7 1.9 21.5 9.8 9.7 9.7 1.9 23.4 -42.9 -7.8 -68.3 11.7 -23.5 21.5 -37.1 52.7 -11.8 -3.9 -9.8 -15.6 0 -11.7 3.9 -21.5v2zm359.4 123q11.7 -5.8 27.3 -5.8 19.5 0 31.3 -5.9 -2 -5.8 -5.9 -13.7Q834 253.9 834 218.8h1.9q3.9 9.7 9.8 19.5 13.7 33.2 31.3 60.5 -11.8 23.5 -45 29.3 -35.1 7.8 -39 -25.4zm-187.5 3.9Q593.8 291 582 263.7q-11.7 -25.4 -5.8 -44.9 5.8 11.7 11.7 25.3 7.8 21.5 23.4 39.1l3.9 3.9q17.6 9.8 11.8 37.1 -7.9 11.7 -23.5 17.6 -23.4 7.8 -54.7 0Q519.5 334 533.2 308.6l19.5 3.9q31.3 9.8 50.8 -5.9h2zm52.7 136.8l3.9 15.6q2 19.5 19.5 25.4 21.5 1.9 45 -5.9t44.9 -17.6q11.7 -7.8 23.4 -11.7 9.8 -17.6 5.9 -29.3t-15.6 -21.5l-7.9 -7.8q-1.9 -3.9 -5.8 -7.8 -25.4 -27.3 -46.9 -62.5t-21.5 -76.2q7.8 -5.8 11.7 2l4 11.7v5.9q13.6 29.3 41 62.5 25.4 35.1 50.7 60.5 4 5.9 9.8 9.8 9.8 7.8 11.7 11.7 2 15.6 -5.8 29.3 -3.9 9.8 -3.9 17.6 -31.3 21.5 -68.4 37.1 -39.1 15.6 -89.8 11.7 -11.8 -9.8 -13.7 -27.3 -3.9 -17.6 7.8 -33.2zM263.7 425.8q-7.8 -5.9 -13.7 -19.5 -5.9 -19.6 -17.6 -21.5 -13.6 0 -15.6 17.5 -3.9 19.6 -2 41.1v9.7Q203.1 441.4 201.2 418q-2 -25.4 5.8 -43 -11.7 -3.9 -19.5 5.9 -2 3.9 -5.9 5.8 13.7 -48.8 50.8 -31.2 37.1 15.6 31.3 70.3zm585.9 56.6q-13.7 29.3 -39.1 52.8 -23.4 25.3 -66.4 27.3 -1.9 -23.4 0 -39.1 45 -5.8 78.2 -27.3 13.6 -7.8 27.3 -13.7zm-277.3 23.5q29.3 15.6 72.2 17.5 43 3.9 84 2 2 15.6 2 33.2v5.9q-50.8 1.9 -97.7 -11.8Q587.9 541 572.3 505.9zM752 597.7q-4 13.6 -17.6 21.4 -21.5 7.9 -58.6 9.8t-64.5 -9.8q-23.4 -15.6 -37.1 -39l-7.8 -11.7 -5.9 -5.9q-7.8 -5.9 -9.7 -13.7 -3.9 -5.8 15.6 -5.8 19.5 42.9 68.4 50.8t103.5 3.9H752z"/></svg>