<svg height="1000" width="968.8" xmlns="http://www.w3.org/2000/svg"><path d="M738.3 11.7Q617.2 -60.5 484.4 -60.5 361.3 -60.5 252 -2 142.6 58.6 72.3 169.9 2 285.2 0 412.1t56.6 240.2q58.6 111.4 173.9 183.6 115.2 70.4 242.2 72.3t240.2 -56.6Q824.2 793 896.5 677.7q70.3 -115.2 72.3 -242.2T912.1 195.3Q853.5 84 738.3 11.7zm101.5 630.9Q779.3 740.2 685.5 791q-95.7 48.8 -201.1 50.8 -19.6 0 -39.1 -2Q429.7 818.4 418 794.9q-13.7 -23.4 -19.6 -39l-3.9 -7.9q-15.6 -23.4 -11.7 -58.5 2 -33.2 76.2 -64.5 68.3 -21.5 175.8 -27.3t185.5 -5.9h46.9q-11.7 25.4 -27.4 50.8zm-392.5 -168Q365.2 472.7 332 447.3q-31.2 -25.4 2 -66.4 62.5 -66.4 117.2 -91.8 9.7 -3.9 17.6 -7.8 29.2 -19.6 25.3 -41.1 -1.9 -21.4 -72.2 -17.5 -125 9.7 -197.3 60.5Q152.3 332 117.2 392.6 84 453.1 74.2 496.1q-27.3 -150.4 54.7 -291Q226.6 56.6 388.7 17.6t314.4 50.8Q814.5 138.7 863.3 250q50.8 111.3 33.2 234.4 -27.4 0 -115.2 -2t-183.6 -3.9 -150.4 -3.9zM806.6 367.2q-35.1 -7.8 -80 9.8 -45 19.5 -89.9 42.9 -41 21.5 -50.8 19.6 -11.7 -2 -9.7 -2 3.9 -3.9 42.9 -29.3 37.2 -27.3 56.7 -39.1 3.9 -3.9 9.7 -5.8 17.6 -7.8 27.4 -19.5 9.8 -9.8 -11.7 -23.5 -9.8 -3.9 -19.6 -3.9 -42.9 3.9 -105.4 50.8 -11.7 9.8 -27.4 17.6Q502 416 462.9 431.6t-41 15.7l332 -3.9 89.9 -45q1.9 -1.9 -2 -11.7t-35.2 -19.5z"/></svg>