<svg height="1000" width="875" xmlns="http://www.w3.org/2000/svg"><path d="M2 103.5q0 -50.8 33.2 -82 33.2 -33.2 82 -35.2 44.9 0 76.2 27.4 33.2 27.3 41 70.3Q332 58.6 421.9 142.6l-86 87.9q-31.2 -29.3 -60.5 -29.3 -29.3 1.9 -48.8 21.5Q207 244.1 207 273.4t19.6 50.8l195.3 195.3 -86 86 -99.6 -99.6q-25.4 -23.5 -35.1 -33.2 -5.9 -7.9 -19.6 -21.5l-41 -41q-39 -39.1 -50.8 -89.9 -11.7 -52.7 2 -103.5Q52.7 209 27.3 177.7T2 103.5zM253.9 332l85.9 86 -85.9 -86 85.9 86q13.7 -11.7 54.7 -54.7l86 -86 54.7 -54.6q21.4 -21.5 50.7 -21.5t50.8 21.5q19.6 19.5 21.5 48.8 0 29.3 -27.3 58.6l85.9 87.9q87.9 -95.7 54.7 -197.3 44.9 -7.8 72.3 -39.1Q873 148.4 873 103.5q0 -50.8 -33.2 -82 -33.2 -33.2 -82 -35.2 -46.9 0 -78.1 29.3Q648.4 43 640.6 87.9 589.8 72.3 539.1 84q-50.8 13.7 -89.9 52.7Q423.8 162.1 375 209q-46.9 48.8 -91.8 93.7L253.9 332zm519.5 296.9q13.7 -48.8 0 -97.6 -13.6 -48.9 -50.7 -86 -3.9 -3.9 -5.9 -7.8l-13.7 -13.7T654.3 377q-37.1 -39.1 -125 -127l-87.9 85.9 195.3 195.4q21.5 21.4 21.5 50.7t-21.5 50.8q-19.5 19.5 -48.8 21.5 -29.3 0 -58.6 -27.3l-85.9 85.9q41 43 93.7 56.6 54.7 13.7 105.5 -1.9 9.7 41 41 66.4t74.2 27.3q50.8 -1.9 82 -35.1Q873 793 875 744.1q0 -44.9 -29.3 -78.1 -27.3 -31.2 -72.3 -37.1zm-164 -103.5l-86 -87.9 86 87.9 -86 -87.9L421.9 539.1q-23.5 23.4 -33.2 35.1 -7.8 5.9 -21.5 19.6 -11.7 13.6 -39.1 39 -21.5 21.5 -50.8 21.5 -27.3 0 -50.7 -21.5Q207 613.3 207 584q-1.9 -29.3 27.4 -58.6l-86 -87.9Q62.5 529.3 89.8 630.9q-39 9.7 -64.4 39Q0 701.2 0 744.1q2 50.8 35.2 82.1 31.2 33.2 82 35.1 43 0 74.2 -25.4 29.3 -25.4 39.1 -66.4 48.8 11.8 97.6 0Q377 755.9 416 718.8q17.6 -17.6 27.4 -29.3 11.7 -9.8 19.5 -19.6 13.7 -11.7 43 -42.9 31.2 -31.3 103.5 -101.6z"/></svg>