<svg height="1000" width="1125" xmlns="http://www.w3.org/2000/svg"><path d="M998 386.7q-13.6 -5.8 -13.6 -19.5 0 -11.7 -2 -21.5 -3.9 -39.1 -15.6 -74.2Q929.7 171.9 851.6 115.2 771.5 58.6 675.8 48.8 578.1 41 484.4 91.8q-80.1 44.9 -127 125 -3.9 -2 -5.8 -3.9 -5.9 -2 -9.8 -3.9 -89.8 -37.1 -166 17.6Q99.6 283.2 111.3 377q0 9.7 -9.7 17.5Q43 439.5 21.5 503.9t0 134.8Q43 707 99.6 750q54.7 43 127 46.9 68.3 1.9 134.7 1.9h175.8q179.7 0 359.4 -1.9 78.1 -2 136.7 -48.9 56.6 -44.9 74.2 -121 17.6 -72.3 -11.7 -136.8Q1064.5 425.8 998 386.7zm41.1 306.7q-54.7 68.3 -140.7 70.3 -117.1 1.9 -236.3 0h-95.7q-5.9 1.9 -82 1.9 -78.1 0 -154.3 -1.9h-84q-130.9 0 -185.6 -117.2Q33.2 584 52.7 521.5 70.3 459 127 419.9q27.3 -13.6 19.5 -44.9 -13.7 -78.1 52.7 -123t140.6 -5.9q4 1.9 7.9 5.9 9.7 5.8 17.5 5.8t17.6 -15.6q41 -78.1 119.2 -121.1Q599.6 70.3 701.2 87.9T875 181.6q70.3 76.2 76.2 199.3 -2 21.4 19.5 31.2 84 43 103.5 125 21.5 82 -35.1 156.3zM867.2 537.1q-9.8 46.9 -46.9 76.2 -35.1 29.3 -84 31.2 -48.8 -1.9 -85.9 -35.1 -31.3 -29.3 -72.3 -72.3 -31.2 -33.2 -62.5 -62.5 -29.3 -29.3 -52.7 -46.9 -60.6 -42.9 -117.2 7.8 -46.9 45 -31.2 95.8 13.6 50.7 62.5 72.2 46.8 23.5 99.6 -17.6 5.8 -5.8 9.7 -11.7 7.8 -7.8 15.7 -13.7 13.6 -7.8 23.4 -1.9 11.7 5.9 1.9 23.4Q500 621.1 459 634.8q-41 15.6 -86 3.9Q330.1 625 304.7 587.9 279.3 552.7 277.3 502q4 -68.4 70.4 -109.4 68.3 -39.1 130.8 3.9 74.2 60.5 121.1 117.2 44.9 50.8 87.9 80.1 37.1 23.4 74.2 13.6t60.6 -46.9q25.4 -50.7 3.9 -93.7t-66.4 -54.7Q712.9 398.4 668 437.5l-7.8 7.8q-5.9 7.8 -13.7 13.7 -17.6 9.8 -23.5 0 -7.8 -9.8 -1.9 -19.5 62.5 -87.9 162.1 -54.7 46.9 17.5 70.3 58.6 21.5 42.9 13.7 93.7z"/></svg>