<svg height="1000" width="875" xmlns="http://www.w3.org/2000/svg"><path d="M804.7 -13.7H70.3h734.4H70.3Q41 -13.7 19.5 5.9 0 27.3 0 56.6V791q0 29.3 19.5 50.8 21.5 19.5 50.8 19.5h734.4q29.3 0 50.8 -19.5Q875 820.3 875 791V56.6Q875 27.3 855.5 5.9 834 -13.7 804.7 -13.7zm-64.5 589.9q-1.9 60.5 -42.9 99.6 -39.1 41 -99.6 43h-461q2 -60.6 43 -101.6 39.1 -41 99.6 -41h460.9zm0 -222.7q-1.9 60.6 -42.9 99.6 -39.1 41 -99.6 43h-461q2 -60.6 43 -101.6 39.1 -39 99.6 -41h460.9zm0 -222.6q-1.9 60.5 -42.9 99.6 -39.1 41 -99.6 42.9h-461q2 -60.5 43 -101.5 39.1 -39.1 99.6 -41h460.9z"/></svg>