<svg height="1000" width="875" xmlns="http://www.w3.org/2000/svg"><path d="M558.6 742.2q-31.3 3.9 -35.2 35.1 3.9 31.3 35.2 35.2 33.2 -3.9 35.2 -35.2 -2 -31.2 -35.2 -35.1zM777.3 453.1q-13.6 -23.4 -56.6 -66.4 -43 -42.9 -113.3 -76.2 -17.6 -7.8 -37.1 -15.6 25.4 -60.5 -1.9 -121.1 -29.3 -60.5 -89.9 -82Q441.4 80.1 414.1 82q-2 -3.9 0 -19.5Q418 46.9 433.6 13.7l-44.9 -27.4L377 2q-25.4 35.1 -46.9 66.4 -7.8 -2 -15.6 -2 -25.4 -1.9 -39.1 -1.9 -29.3 -2 -35.2 -2h-7.8q-62.5 3.9 -82 41 -17.6 37.1 -15.6 48.8l-5.9 70.4q0 41 25.4 70.3 27.3 27.3 68.4 31.2l17.5 2q-50.7 27.3 -89.8 68.3Q62.5 488.3 43 584T27.3 763.7v64.4l45 -56.6q9.7 37.1 29.3 72.3 19.5 25.3 39 13.6 5.9 -1.9 9.8 -9.7 5.9 -9.8 -3.9 -29.3Q123 769.5 117.2 714.8L207 597.7l-46.8 146.4Q248 679.7 375 658.2q127 -23.4 246.1 9.8 50.8 13.6 95.7 1.9 43 -11.7 70.3 -48.8 0 -2 2 -3.9l1.9 -2q3.9 27.4 3.9 54.7 2 72.3 -29.3 160.2 -3.9 23.4 17.6 31.2 23.4 2 35.2 -21.5 29.3 -76.1 29.3 -169.9 -2 -115.2 -70.4 -216.8zm-500 -277.3l-29.3 -2 29.3 2 -29.3 -2 -3.9 41 25.4 2q0 19.5 2 39.1L226.6 252q-9.8 0 -15.7 -7.9 -7.8 -5.8 -5.8 -15.6l3.9 -72.2q1.9 -15.7 13.7 -19.6 9.7 -3.9 11.7 -1.9l56.6 1.9q-7.8 19.6 -13.7 39.1zm291.1 335.9q-15.7 9.8 -29.3 -3.9l-17.6 -21.5 -68.4 52.8q-11.7 7.8 -21.5 -2L400.4 500q-5.9 -11.7 3.9 -19.5l66.4 -52.8 -27.3 -33.2 -33.2 25.4q-11.8 7.8 -19.6 -1.9l-7.8 -7.8q-7.8 -11.8 2 -21.5L418 363.3q-2 -2 -17.6 -21.5 -15.6 -17.6 -19.5 -21.5Q377 314.5 377 306.6q1.9 -7.8 7.8 -11.7 15.6 -9.7 27.3 2l160.2 187.5q3.9 5.8 1.9 13.6 0 7.9 -5.8 13.7zM365.2 742.2q-31.2 3.9 -35.1 35.1 3.9 31.3 35.1 35.2 33.2 -3.9 35.2 -35.2 -2 -31.2 -35.2 -35.1z"/></svg>