<svg height="1000" width="1000" xmlns="http://www.w3.org/2000/svg"><path d="M125 722.7L242.2 607.4 125 722.7 242.2 607.4q89.8 127 248 132.8 89.9 2 168 -44.9l29.3 29.3q9.8 11.7 11.7 13.7 -95.7 62.5 -210.9 60.5Q359.4 793 257.8 710.9q0 2 -17.6 19.6 -19.5 17.5 -37.1 35.1l-19.5 19.6q11.7 44.9 -13.7 82 -27.3 37.1 -78.1 39.1 -39.1 0 -64.5 -27.4Q0 853.5 0 812.5q2 -50.8 39.1 -78.1Q78.1 709 125 722.7zM818.4 230.5Q875 324.2 873 433.6q-5.8 134.8 -93.7 236.3 2 3.9 23.4 25.4 19.6 21.5 23.5 23.5 29.3 -2 50.8 19.5 15.6 17.6 15.6 41t-17.6 41q-19.5 15.6 -43 15.6t-41 -17.5q-19.5 -21.5 -13.7 -50.8 -37.1 -41 -62.5 -66.4 -23.4 -25.4 -25.3 -27.4 125 -105.4 126.9 -242.2 0 -85.9 -41 -160.1l43 -41zM203.1 27.3q19.6 21.5 15.7 50.8l89.8 93.8 -3.9 3.9q-15.6 9.7 -41 39 -76.2 86 -80.1 201.2 -2 86 39.1 160.2l-43 42.9Q123 523.4 125 414.1q5.9 -134.8 93.8 -236.4L168 125q-29.3 3.9 -50.8 -17.6 -15.6 -17.6 -15.6 -41 1.9 -23.4 19.5 -41t41 -15.6q23.4 0 41 17.5zm705.1 -87.8q39.1 1.9 64.5 27.3Q998 -5.9 1000 33.2q-2 39.1 -27.3 66.4Q947.3 125 908.2 127q-21.5 0 -31.2 -4L753.9 240.2Q656.3 113.3 505.9 109.4q-89.9 -2 -168 42.9l-41 -42.9Q392.6 48.8 507.8 50.8q128.9 3.9 230.5 87.9l80.1 -76.2q-3.9 -13.7 -3.9 -29.3 0 -39.1 27.3 -66.4 27.3 -25.4 66.4 -27.3zM502 144.5q15.6 0 31.2 3.9Q650.4 166 718.8 252q68.3 87.8 56.6 207Q757.8 574.2 669.9 642.6t-205.1 56.6Q347.7 681.6 279.3 593.8T222.7 388.7q15.6 -107.4 93.7 -173.9Q392.6 148.4 502 144.5zM386.7 378.9q2 68.4 62.5 101.6L427.7 582h144.6L550.8 480.5q60.5 -33.2 62.5 -101.6 -2 -48.8 -33.2 -80.1T500 265.6q-48.8 2 -80.1 31.3 -31.2 31.2 -33.2 82z"/></svg>