<svg height="1000" width="875" xmlns="http://www.w3.org/2000/svg"><path d="M125 -13.7q-52.7 2 -87.9 37.1Q2 58.6 0 111.3v625q2 52.8 37.1 87.9t87.9 37.1h625q52.7 -1.9 87.9 -37.1T875 736.3v-625Q873 58.6 837.9 23.4T750 -13.7H125zm502 392.6l-45 44.9 45 -44.9 -45 44.9 45 45q35.1 37.1 35.1 83.9 0 48.9 -35.1 86 -37.2 35.1 -86 35.1t-85.9 -35.1L439.5 623q-35.2 48.9 -99.7 50.8 -50.7 -1.9 -85.9 -35.1 -33.2 -33.2 -35.1 -84V293q1.9 -50.8 35.1 -84t85.9 -35.2q64.5 2 99.7 52.8L455.1 209q37.1 -35.2 85.9 -35.2t86 35.2q35.1 37.1 35.1 85.9 0 46.9 -35.1 84z"/></svg>