<svg height="1000" width="1000" xmlns="http://www.w3.org/2000/svg"><path d="M984.4 150.4v-3.9q-2 0 -2 -2l-1.9 -1.9 -2 -2L789.1 33.2q-7.8 -5.9 -15.7 0L585.9 140.6l-1.9 2h-2v1.9l-1.9 2v1.9l-2 2v209l-156.2 89.8V43h-2v-3.9H418v-2l-2 -1.9q-1.9 0 -1.9 -2L226.6 -74.2q-7.8 -3.9 -15.7 0L21.5 33.2q0 2 -2 2v1.9q-1.9 0 -1.9 2h-2V43q-1.9 1.9 -1.9 3.9v644.5q0 9.8 7.8 13.7l376.9 216.8h2v1.9h9.8q1.9 -1.9 3.9 -1.9l375 -216.8q7.8 -3.9 7.8 -13.7V486.3L978.5 382.8q7.8 -5.8 7.8 -13.7V154.3q0 -2 -1.9 -3.9zM218.8 -43L375 46.9l-156.2 91.8L60.5 46.9zM390.6 74.2v394.6V74.2v394.6l-91.8 50.7 -64.4 39.1V166l89.8 -52.7zm0 806.7L44.9 683.6l345.7 197.3L44.9 683.6V74.2l66.4 39.1 91.8 52.7V591.8l2 2 1.9 1.9v2h2l1.9 1.9 179.7 101.6v179.7zm15.7 -207.1L250 585.9l156.3 87.9L250 585.9l164.1 -95.7L593.8 386.7 750 476.6 634.8 543zm359.3 7.8L421.9 880.9 765.6 681.6 421.9 880.9V701.2L677.7 554.7l87.9 -50.8v177.7zm0 -232.4l-64.4 -37.1 64.4 37.1 -64.4 -37.1 -91.8 -52.7V181.6l66.4 37.2 89.8 52.7v177.7zm15.7 -205.1L625 154.3l156.3 89.8L625 154.3 781.3 64.5l158.2 89.8zm15.6 205.1V271.5v177.7V271.5l91.8 -52.7 66.4 -37.2v177.8z"/></svg>