<svg height="1000" width="1000" xmlns="http://www.w3.org/2000/svg"><path d="M441.4 640.6L404.3 541l37.1 99.6L404.3 541q0 3.9 -41 33.2 -39.1 29.3 -107.4 33.2 -60.6 0 -97.7 -48.8Q121.1 511.7 121.1 429.7q1.9 -105.5 43 -148.4 42.9 -45 97.6 -43 82.1 0 119.2 56.6 35.1 56.7 62.5 156.3 5.8 23.4 15.6 50.8 23.4 83.9 89.8 140.6 68.4 56.6 212.9 58.6 107.4 1.9 171.9 -35.2T1000 543q-3.9 -95.7 -64.5 -128.9Q873 380.9 796.9 369.1q-9.8 -3.9 -21.5 -5.8 -70.3 -15.6 -64.5 -66.4 2 -60.6 80.1 -60.6 82 -1.9 89.9 68.4L996.1 291Q976.6 140.6 798.8 146.5q-82 -2 -140.6 35.1 -60.5 35.2 -64.4 128.9 -4 115.3 132.8 150.4 17.5 2 31.2 5.9 56.7 11.7 89.9 27.3t35.1 54.7q-1.9 62.5 -119.1 60.6 -86 -2 -128.9 -41T572.3 464.8q-7.8 -21.4 -13.7 -42.9 -33.2 -125 -91.8 -199.2 -56.6 -74.3 -209 -76.2 -126.9 0 -191.4 76.2Q0 296.9 0 433.6q3.9 263.7 250 267.6 95.7 -3.9 144.5 -29.3 46.9 -27.4 46.9 -31.3z"/></svg>