<svg height="1000" width="1250" xmlns="http://www.w3.org/2000/svg"><path d="M1197.3 351.6q0 -29.3 1.9 -50.8 3.9 -23.5 3.9 -56.7 2 -93.7 -80.1 -87.8h-39v46.8h11.7q39.1 -3.9 35.2 44.9 -2 21.5 -2 45 -1.9 25.4 -1.9 54.7 0 66.4 46.8 72.2v3.9q-46.8 5.9 -46.8 72.3 0 29.3 1.9 52.7 0 23.5 2 48.9 1.9 46.8 -35.2 42.9v2H1084v48.8h39q82.1 5.9 80.1 -87.9 0 -33.2 -3.9 -56.6 -1.9 -21.5 -1.9 -50.8 -2 -15.6 11.7 -29.3 11.7 -13.7 41 -15.6v-54.7q-29.3 -2 -41 -13.7 -13.7 -13.7 -11.7 -31.2zm-207.1 62.5q-5.8 -2 -13.6 -5.9 -41.1 -11.7 -45 -33.2 0 -25.4 35.2 -25.4 31.2 0 64.5 25.4l41 -54.7q-37.1 -35.1 -107.5 -39 -52.7 0 -83.9 27.3Q847.7 334 847.7 377q1.9 37.1 27.3 58.5t52.7 31.3l7.8 3.9q21.5 7.8 39.1 15.6 15.6 9.8 17.6 23.5 0 25.4 -41 27.3 -37.1 0 -78.2 -33.2l-41 60.6q23.5 19.5 54.7 31.2t60.6 11.7q62.5 -1.9 95.7 -29.3 31.2 -27.3 31.2 -70.3 -1.9 -43 -27.3 -62.5 -25.4 -21.5 -56.7 -31.2zM289.1 529.3q-13.7 2 -15.7 -25.4V156.3H127q-82.1 -5.9 -80.1 87.8 0 33.2 3.9 58.6 1.9 21.5 1.9 48.9 2 15.6 -11.7 29.3Q29.3 394.5 0 398.4v52.8q29.3 1.9 41 13.6 13.7 13.7 11.7 31.3 0 25.4 -1.9 48.8 -3.9 23.5 -3.9 56.7 0 93.7 80.1 87.9h39v-46.9h-11.7q-37.1 1.9 -33.2 -44.9v-46.9q1.9 -25.4 1.9 -54.7 0 -66.4 -44.9 -72.3v-1.9Q123 414.1 123 347.7q0 -27.4 -1.9 -52.8V248q-3.9 -46.8 33.2 -42.9h27.3V498q0 48.9 19.6 76.2 17.6 27.4 64.4 29.3 29.3 -1.9 46.9 -7.8l-11.7 -66.4q-7.8 2 -11.7 0zM742.2 414.1q-7.8 -2 -13.7 -5.9 -43 -9.8 -46.9 -33.2 0 -25.4 35.2 -25.4 33.2 0 64.5 25.4l41 -54.7q-37.1 -35.1 -107.5 -39 -52.7 0 -83.9 27.3Q599.6 334 597.7 377q1.9 37.1 27.3 58.5t54.7 31.3q1.9 2 5.8 3.9 23.5 7.8 39.1 15.6 17.6 9.8 17.6 23.5 0 25.4 -41 27.3 -37.1 0 -78.2 -33.2l-41 60.6q25.4 19.5 56.7 31.2t60.5 11.7q62.5 -1.9 93.8 -29.3 33.2 -27.3 33.2 -70.3 -2 -43 -27.4 -62.5 -25.4 -21.5 -56.6 -31.2zM439.5 279.3q-58.6 2 -101.6 44.9 -43 41 -43 117.2 2 76.2 44.9 117.2 43 43 109.4 43 58.6 0 109.4 -35.2l-29.3 -52.7q-35.2 19.5 -68.4 19.5 -64.4 2 -80 -68.4h185.5v-1.9q2 -11.7 3.9 -35.2 0 -64.4 -33.2 -105.4t-97.6 -43zm-58.6 128.9q13.6 -60.5 58.6 -60.5 54.6 3.9 52.7 60.5H380.9z"/></svg>