<svg height="1000" width="1250" xmlns="http://www.w3.org/2000/svg"><path d="M1017.6 173.8q99.6 2 164 68.4 66.4 64.4 68.4 164.1 -2 97.6 -68.4 162.1 -64.4 66.4 -164 68.3 -62.5 0 -113.3 -29.3t-82 -80.1q33.2 -52.7 35.1 -121 -1.9 -68.4 -35.1 -123.1v-1.9q31.2 -48.9 82 -78.2 48.8 -27.3 109.4 -29.3h3.9zm-392.6 0q62.5 0 113.3 29.3 52.7 29.3 84 80.1 -35.2 54.7 -35.2 123.1t35.2 121l-2 4q-31.2 46.8 -80.1 76.1 -50.7 27.4 -111.3 29.3H625q-62.5 0 -113.3 -29.3 -52.7 -29.3 -84 -80.1 35.2 -52.7 35.2 -121T427.7 283.2l2 -1.9q31.2 -48.9 80.1 -78.2 50.7 -27.3 111.3 -29.3h3.9zm-392.6 0q62.5 0 113.3 29.3t82 80.1q-33.2 54.7 -35.1 123.1 1.9 68.3 35.1 121v4q-31.2 46.8 -82 76.1 -48.8 27.4 -109.4 29.3h-3.9q-99.6 -1.9 -164 -68.3Q2 503.9 0 406.3 2 306.6 68.4 242.2q64.4 -66.4 164 -68.4z"/></svg>