<svg height="1000" width="1000" xmlns="http://www.w3.org/2000/svg"><path d="M607.4 308.6v158.2V308.6v158.2q0 7.8 -7.8 7.8h-25.4q-3.9 0 -5.8 -3.9L496.1 373v93.8q0 7.8 -7.8 7.8h-25.4q-5.9 0 -5.9 -7.8V308.6q0 -7.8 5.9 -7.8h25.4q3.9 0 5.8 3.9l72.3 97.6v-93.7q2 -7.8 7.8 -7.8h25.4q7.8 0 7.8 7.8zm-183.6 -7.8h-25.4 25.4 -25.4q-5.8 0 -5.8 7.8v158.2q0 7.8 5.8 7.8h25.4q7.8 0 7.8 -7.8V308.6q0 -5.9 -7.8 -7.8zm-60.5 132.8H293h70.3H293v-125q0 -7.8 -5.9 -7.8h-25.4q-7.8 0 -7.8 7.8v158.2q0 3.9 2 5.9t3.9 1.9h103.5q5.8 -1.9 5.8 -7.8v-25.4q0 -5.9 -5.8 -7.8zM742.2 300.8H638.7h103.5H638.7q-5.9 0 -5.9 7.8v158.2q0 5.9 5.9 7.8h103.5q5.8 0 5.8 -7.8v-25.4q0 -5.9 -5.8 -7.8h-70.3v-25.4h70.3q5.8 -1.9 5.8 -7.8V375q0 -7.8 -5.8 -7.8h-70.3v-25.4h70.3q5.8 -2 5.8 -7.8v-25.4q0 -5.9 -5.8 -7.8zM1000 105.5v636.7V105.5v636.7q-2 78.1 -52.7 128.9 -52.8 50.8 -128.9 52.7H181.6Q103.5 921.9 52.7 869.1 2 818.4 0 742.2V105.5Q2 27.3 54.7 -23.4q50.8 -50.8 126.9 -52.8h636.8q78.1 2 128.9 54.7 50.7 50.8 52.7 127zM863.3 380.9q-3.9 -127 -107.4 -209Q652.3 87.9 498 84q-154.2 3.9 -257.8 87.9 -101.5 82 -105.4 209 1.9 111.3 85.9 191.4t218.8 99.6q29.3 5.8 33.2 21.5t-3.9 52.7q-2 3.9 -2 7.8 -2 9.8 2 19.5 1.9 9.8 29.2 0 21.5 -9.7 74.3 -42.9t113.2 -78.2q58.6 -44.9 99.7 -89.8 78.1 -85.9 78.1 -181.6z"/></svg>