<svg height="1000" width="875" xmlns="http://www.w3.org/2000/svg"><path d="M431.6 164.1q0 1.9 2 1.9 1.9 2 3.9 2 3.9 0 5.9 -2 -2 -3.9 -5.9 -5.8 -5.9 -3.9 -11.7 0 -2 0 -2 1.9 2 2 3.9 2h3.9zm-42.9 3.9q1.9 0 3.9 -2l1.9 -1.9h2q3.9 0 3.9 -2 1.9 -1.9 0 -1.9 -5.9 -3.9 -11.7 0 -5.9 1.9 -5.9 5.8 2 2 5.9 2zm431.6 544.9q-9.8 -13.7 -13.7 -37.1v-2q-3.9 -25.4 -21.4 -42.9 -3.9 -3.9 -7.9 -5.9l-7.8 -3.9q23.5 -82 -7.8 -154.3 -15.6 -44.9 -41 -82t-48.8 -64.5l-2 -1.9Q644.5 289.1 625 255.9q-17.6 -33.2 -17.6 -76.2v-9.8q2 -48.8 -3.9 -105.4 -7.8 -56.7 -39 -97.7T459 -76.2q-84 2 -117.2 41t-37.1 89.9q-3.9 52.7 0 95.7 1.9 23.4 1.9 37.1 -1.9 64.5 -44.9 127 -27.3 33.2 -60.5 82Q168 447.3 148.4 503.9q-17.5 52.7 -11.7 103.5 -9.7 9.8 -19.5 23.5 -5.9 9.7 -11.7 15.6 -11.7 9.8 -29.3 13.7 -2 1.9 -3.9 1.9Q50.8 668 35.2 691.4q-5.9 11.7 -5.9 23.4t2 23.5q1.9 1.9 1.9 3.9 3.9 21.5 0 37.1 -15.6 41 -3.9 62.5 11.7 19.5 39.1 23.4 15.6 2 35.1 3.9 43 3.9 80.1 19.6 60.5 31.2 109.4 21.5 35.1 -7.9 50.8 -39.1 17.5 -2 37.1 -5.9 23.4 -5.8 56.6 -7.8 21.5 0 46.9 3.9 27.3 3.9 62.5 3.9 0 7.8 3.9 13.7 27.3 48.8 78.1 44.9t95.7 -54.7q29.3 -31.2 70.3 -46.8 15.6 -7.8 29.3 -15.7 23.5 -13.6 25.4 -37.1 2 -21.5 -29.3 -56.6zM437.5 93.8q15.6 -31.3 43 -31.3 25.4 0 42.9 31.3 15.7 46.8 -9.7 78.1 -3.9 -2 -23.5 -9.8l2 -1.9q3.9 -2 5.8 -5.9 5.9 -19.5 0 -35.2 -5.8 -17.5 -17.5 -17.5 -11.7 -2 -19.6 11.7t-3.9 33.2q-13.6 -7.8 -25.4 -9.8 -3.9 -21.5 5.9 -42.9zM357.4 72.3q15.6 0 27.4 17.5 11.7 19.6 9.7 46.9 -9.7 3.9 -19.5 9.8 2 -13.7 -3.9 -25.4 -5.9 -13.7 -15.6 -13.7 -11.7 3.9 -13.7 23.5 0 19.5 11.7 31.2v2q3.9 -2 -11.7 9.7 -23.4 -25.4 -17.6 -62.5 5.9 -35.1 33.2 -39zm-27.3 119.1q5.8 -5.9 11.7 -9.8 13.7 -9.7 17.6 -11.7 0 -1.9 1.9 -1.9 13.7 -19.6 50.8 -25.4 21.5 -2 50.8 17.6 9.8 5.8 21.5 9.7 9.7 2 23.4 7.8 27.4 9.8 19.5 35.2 -7.8 23.4 -42.9 35.1 -11.7 4 -21.5 11.8 -19.5 17.5 -52.7 17.5 -11.8 0 -19.6 -3.9 -11.7 -5.8 -21.5 -15.6 -7.8 -7.8 -17.5 -13.7 -25.4 -13.6 -29.3 -29.3t7.8 -25.3v1.9zm7.8 652.4q-7.8 48.8 -52.7 54.6 -46.9 3.9 -95.7 -19.5 -43 -21.5 -86 -21.5Q54.7 855.5 41 835.9q-7.8 -13.6 3.9 -52.7 5.9 -19.5 0 -41v-5.9q-5.8 -23.4 2 -39 9.7 -17.6 29.3 -21.5l7.8 -3.9q15.6 -3.9 29.3 -15.6l15.6 -19.6q5.9 -7.8 13.7 -15.6 11.7 -17.6 33.2 -13.7 23.4 3.9 43 31.3l39 70.3q11.7 21.5 33.2 46.9 19.5 23.4 33.2 44.9 13.7 23.4 13.7 43zM334 793q-11.7 -21.5 -27.4 -39.1 23.5 2 33.2 -17.6 5.9 -19.5 -15.6 -48.8 -21.5 -27.3 -46.9 -44.9T250 625q-39.1 -25.4 -48.8 -58.6 -7.8 -33.2 0 -68.4t23.4 -64.4q15.6 -31.3 29.3 -52.7 9.8 -7.9 -15.6 41 -15.6 25.4 -25.4 72.2 -9.8 45 19.5 89.9 2 -62.5 27.4 -121.1 5.8 -13.7 13.6 -31.3 19.6 -41 39.1 -91.8t23.4 -97.6q5.9 3.9 11.8 9.8 7.8 3.9 15.6 11.7 3.9 3.9 9.7 7.8 39.1 27.3 82.1 1.9l11.7 -7.8 19.5 -9.7q29.3 -9.8 43 -29.3 13.7 46.8 35.2 99.6 19.5 54.7 39 87.9 9.8 15.6 23.5 48.8t21.4 76.2q9.8 0 21.5 3.9Q687.5 488.3 666 441.4T625 377q-13.7 -13.7 -5.9 -13.7 19.6 17.6 39.1 48.8 19.5 29.3 29.3 66.4 9.8 35.2 2 70.3 25.3 9.8 44.9 27.4 21.5 15.6 15.6 41h-9.8q9.8 -27.4 -42.9 -50.8Q666 552.7 646.5 556.6q-21.5 3.9 -25.4 33.2 -33.2 15.7 -41 54.7 -7.8 31.3 -9.8 76.2 -1.9 23.4 -11.7 54.7v1.9q-48.8 35.2 -107.4 43Q390.6 828.1 334 793zm503.9 -23.5Q832 793 791 808.6q-41 15.6 -76.2 52.7 -42.9 45 -85.9 48.9T562.5 873q-9.8 -33.2 2 -70.3 3.9 -13.6 7.8 -25.4Q582 748 584 722.7q1.9 -45 7.8 -76.2 7.8 -29.3 27.3 -41h2q1.9 42.9 37.1 56.6 19.5 3.9 41 -7.8 21.5 -9.8 33.2 -23.4h3.9q23.5 -3.9 41 9.7 13.7 13.7 17.6 39.1 2 23.4 15.6 43 29.3 33.2 27.4 46.8zm-500 -554.7h1.9l13.7 13.7q19.5 17.6 54.7 19.5 33.2 -1.9 60.6 -19.5Q486.3 218.8 498 207q13.7 -9.7 5.9 -11.7 -3.9 0 -5.9 3.9l-5.8 5.9q-2 1.9 -5.9 3.9 -11.7 9.8 -21.5 15.6 -23.4 15.6 -56.6 19.5Q377 242.2 359.4 224.6q-9.8 -7.8 -15.6 -13.7 -2 -1.9 -2 -3.9 -2 -3.9 -5.9 -5.8 -5.8 1.9 2 13.6z"/></svg>