<svg height="1000" width="1000" xmlns="http://www.w3.org/2000/svg"><path d="M0 82h152.3H0h152.3v408.2q0 48.9 17.6 78.2 15.6 29.3 35.2 41 -21.5 17.6 -66.4 21.5 -44.9 5.8 -89.9 -27.4Q0 556.6 0 488.3V82zm949.2 339.9v-43 43 -43h46.9V228.5h-50.8Q927.7 158.2 875 115.2T748 70.3q-83.9 2 -140.6 58.6t-58.6 142.6v349.6q48.9 9.8 99.6 -27.3 50.8 -46.9 48.9 -115.3v-13.7h76.1V314.5h-76.1v-45q5.8 -50.7 50.7 -50.7t50.8 50.7v150.4q2 86 58.6 142.6t142.6 58.6V472.7q-46.9 -5.9 -50.8 -50.8zM375 228.5v220.7V228.5v220.7q-3.9 21.5 -23.4 21.5 -21.5 0 -23.5 -21.5V228.5H177.7v257.8q-1.9 37.1 17.6 72.3 17.6 37.1 70.3 52.7 54.7 11.7 84 -1.9 29.3 -15.6 29.3 -17.6 -7.8 41 -68.4 48.8 -23.4 2 -46.8 -3.9 -25.4 -5.8 -41 -11.7v136.7q74.2 23.5 152.3 9.8 70.3 -13.7 109.4 -66.4t41 -130.9V226.6H375v1.9z"/></svg>