<svg height="1000" width="875" xmlns="http://www.w3.org/2000/svg"><path d="M646.5 400.4q7.8 -2 17.6 0 5.8 -13.7 0 -35.2Q660.2 332 642.6 334q-17.6 3.9 -7.8 37.1 3.9 17.6 11.7 29.3zM541 416q13.7 5.9 15.6 3.9 3.9 -9.7 -23.4 -25.4 -31.2 -11.7 -58.6 7.8 -11.7 7.9 -11.7 13.7 1.9 3.9 15.6 0 11.7 -5.8 29.3 -7.8 19.5 0 33.2 7.8zm-17.6 9.8q-29.3 7.8 -25.4 19.5 0 2 9.8 -1.9 17.6 -5.9 37.1 -3.9 7.8 1.9 7.8 0 2 -11.8 -29.3 -13.7zM628.9 459q3.9 -9.8 -7.8 -15.6 -13.7 -7.9 -19.5 1.9 -3.9 11.7 9.7 17.6 11.7 5.9 17.6 -3.9zm31.3 -39.1q-11.8 2 -11.8 15.6 0 13.7 11.8 15.7 9.7 -2 11.7 -15.7 0 -13.6 -11.7 -15.6zM232.4 574.2q-5.8 3.9 -15.6 -5.8 -5.9 -9.8 2 -23.5 11.7 -19.5 3.9 -44.9Q207 474.6 185.5 474.6q-19.5 0 -31.2 13.7 -13.7 15.6 -15.6 29.3 0 15.6 5.8 17.6 5.9 0 7.8 -11.8 2 -5.8 5.9 -11.7 5.9 -7.8 15.6 -9.7t19.6 3.9q17.5 13.6 7.8 33.2 -3.9 11.7 -3.9 21.4 3.9 25.4 19.5 27.4t23.4 -9.8q0 -1.9 -1.9 -3.9 3.9 0 -5.9 0zm586 -33.2q0 -1.9 -2 -3.9 -3.9 -13.7 -3.9 -17.6 -2 -5.8 -7.8 -19.5 5.8 -5.9 11.7 -31.2 5.9 -23.5 -17.6 -52.8 -15.6 -15.6 -39 -23.4t-37.1 -11.7q-2 0 -3.9 -2 -2 -5.9 0 -19.5 0 -29.3 -5.9 -70.3t-37.1 -72.3q64.4 -64.5 66.4 -127 -2 -58.5 -60.6 -72.2Q621.1 2 533.2 37.1l-25.4 9.8L496.1 35.2q-9.8 -9.8 -21.5 -19.6Q464.8 3.9 462.9 3.9 410.2 -35.2 324.2 9.8q-85.9 46.8 -166 136.7Q76.2 236.3 41 324.2 3.9 414.1 50.8 459l29.3 23.4q-11.7 33.2 -9.8 66.4 7.8 50.8 46.9 84 37.1 33.2 85.9 33.2 62.5 130.9 189.5 173.8 128.9 43 253.9 2Q773.4 798.8 832 671.9q3.9 -7.8 9.8 -31.3 7.8 -23.4 7.8 -50.8 0 -25.3 -9.8 -37.1Q828.1 541 818.4 541zm-617.2 93.8q-35.2 -2 -64.5 -27.4Q107.4 582 103.5 544.9 99.6 484.4 136.7 459q35.2 -27.4 76.2 -11.7 43 13.6 54.7 74.2 7.8 44.9 -7.8 78.1t-58.6 35.2zM164.1 412.1q-45 9.8 -70.3 44.9 -7.9 -5.8 -17.6 -15.6 -9.8 -7.8 -13.7 -13.7 -15.6 -39 9.8 -95.7T127 232.4Q201.2 130.9 289.1 70.3 377 7.8 429.7 19.5q9.8 3.9 27.3 23.5 17.6 17.5 19.6 21.5 -2 0 -41.1 25.3 -39 23.5 -85.9 62.5Q222.7 253.9 164.1 412.1zm466.8 197.3q-2 0 -43 1.9 -41 0 -91.8 -15.6 5.9 -23.4 41 -15.6 21.5 3.9 56.7 3.9 35.1 -2 89.8 -15.6 48.8 -13.7 99.6 -50.8 9.8 23.4 13.7 48.8 7.8 -1.9 15.6 3.9 9.8 3.9 7.8 31.3 -9.8 56.6 -50.8 99.6 -27.3 27.3 -60.5 44.9 -19.5 9.8 -41 17.6 -80.1 23.4 -148.5 0t-97.6 -84Q418 669.9 416 660.2q-11.7 -41.1 -1.9 -84T451.2 502q5.8 -2 5.8 -7.9t-3.9 -9.7q-3.9 -5.9 -11.7 -13.7 -15.6 -15.6 -29.3 -41t-9.8 -64.5q5.9 -35.1 31.3 -56.6t54.7 -21.5l9.7 2q11.8 0 21.5 1.9 11.8 0 23.5 2 31.2 3.9 66.4 -23.5 1.9 0 1.9 -1.9 9.8 -9.8 25.4 -13.7 13.7 -1.9 25.4 5.9 13.7 9.7 19.5 29.3 3.9 19.5 3.9 37.1 0 11.7 2 29.3v25.4q2 25.4 19.5 27.3 5.9 2 13.7 3.9 3.9 2 5.9 2 37.1 9.7 50.7 23.4 7.9 7.8 9.8 19.5 5.9 35.2 -70.3 74.3 -68.4 27.3 -123 29.2 -54.7 0 -72.3 -1.9 0 -2 -2 -2 -31.2 -1.9 -42.9 25.4t5.8 56.7q23.5 31.2 82.1 35.1 60.5 3.9 121 -17.5 60.6 -19.6 91.8 -60.6 2 -3.9 -1.9 -1.9 -62.5 42.9 -132.8 54.6 -70.3 13.7 -117.2 -3.9 -7.8 -1.9 -19.5 -9.7 -9.8 -7.8 -11.8 -23.5 64.5 17.6 101.6 11.7 35.2 -7.8 37.1 -9.7t-1.9 -3.9zM334 232.4q52.7 -60.5 109.4 -89.8h1.9v1.9q-5.8 9.8 -9.8 25.4 2 2 2 0 17.6 -11.7 43 -21.5 27.3 -9.7 52.7 -11.7 2 0 2 2 -9.8 7.8 -15.7 15.6v2h2q41 1.9 80.1 21.4 0 2 -2 3.9 -103.5 -19.5 -173.8 7.9t-89.9 44.9l-1.9 -2v-1.9 1.9z"/></svg>