<svg height="1000" width="875" xmlns="http://www.w3.org/2000/svg"><path d="M453.1 923.8q-1.9 -5.8 -1.9 -19.5V875q1.9 -44.9 1.9 -54.7 2 -11.7 3.9 -25.4 2 -15.6 3.9 -17.6V748T459 712.9v-41q0 -23.5 -2 -33.2 0 -7.8 -3.9 -13.7 -3.9 -3.9 -1.9 -23.4v-25.4q-7.8 -43 -7.8 -64.5 0 -15.6 3.9 -19.5 9.7 -15.6 17.5 -44.9 5.9 -31.3 9.8 -41 2 -15.7 7.8 -29.3 5.9 -25.4 0 -31.3 0 2 -3.9 5.9 -3.9 5.8 -15.6 13.6 -23.4 17.6 -25.4 25.4 -2 11.7 0 15.7 2 1.9 3.9 9.7 3.9 13.7 2 29.3 -2 5.9 -3.9 15.6 -2 9.8 -2 15.7t-3.9 9.7q-2 2 -3.9 -1.9t-2 -9.8q-1.9 -5.8 -5.8 -21.5 -9.8 -29.3 -2 -41 2 -5.8 3.9 -9.8 0 -5.8 -15.6 -19.5 -17.6 -15.6 -19.5 -21.5 -5.9 -11.7 -9.8 -3.9t-5.9 43v23.4l4 5.9q5.8 5.8 13.6 19.5 9.8 11.7 13.7 17.6 7.8 15.6 7.8 46.9 0 39 3.9 48.8l2 2q-2 1.9 1.9 9.7 2 7.8 3.9 17.6 0 9.8 3.9 19.5 5.9 25.4 3.9 39.1 0 11.7 -1.9 33.2 -3.9 117.2 -3.9 121.1v41q-2 48.8 -5.9 54.7 -5.8 0 -23.4 -17.6 -9.8 -7.8 -5.9 -19.5 0 -5.9 2 -23.5 1.9 -19.5 3.9 -41 1.9 -15.6 1.9 -23.4 2 -27.4 5.9 -68.4 2 -29.3 3.9 -35.1 0 -7.8 2 -37.1v-33.2l-3.9 -7.8q-4 -7.9 -25.4 -31.3Q359.4 543 355.5 537.1l-3.9 -5.8 1.9 -21.5V394.5L351.6 377l-7.8 -7.9v-1.9q-7.9 -7.8 -9.8 -19.5 -2 -9.8 -2 -45 0 -19.5 -1.9 -23.4 0 -3.9 -15.6 -5.9 -11.8 0 -19.6 -3.9 -9.7 -5.8 -27.3 -23.4Q248 226.6 240.2 220.7v-1.9q-7.8 -2 0 -17.6l2 -9.8 -3.9 -5.9 -3.9 -7.8q-2 -1.9 -5.9 -11.7 -5.8 -9.7 -5.8 -13.7 -2 -3.9 1.9 -7.8 5.9 -7.8 7.8 -21.5 3.9 -17.5 9.8 -35.1Q248 72.3 253.9 66.4q11.7 -9.8 17.6 9.8 3.9 11.7 0 35.1 -2 11.7 -2 21.5t5.9 15.6q7.8 11.8 29.3 19.6 3.9 1.9 7.8 5.8 33.2 31.3 44.9 33.2 15.6 2 19.6 27.4 5.8 17.6 11.7 21.5 3.9 -2 5.8 -3.9 5.9 -2 3.9 -7.9 0 -17.5 -3.9 -35.1v-9.8q-1.9 -5.8 -1.9 -11.7 -7.8 -31.2 -9.8 -31.2Q377 146.5 373 125 371.1 97.7 349.6 91.8 334 85.9 322.3 76.2l-9.8 -9.8h-2q-7.8 -5.9 -9.7 -7.8l-3.9 -3.9Q279.3 44.9 273.4 31.3l-3.9 -9.8V-3.9l-1.9 -25.4L281.3 -41q13.6 -13.7 21.4 -17.6 5.9 -3.9 21.5 -3.9 21.5 0 23.5 3.9 3.9 7.8 0 15.6 -2 2 -3.9 5.9 0 1.9 -9.8 17.6 -3.9 5.8 -3.9 11.7Q345.7 2 353.5 5.9q11.7 3.9 11.7 11.7 0 5.8 -7.8 31.2l21.5 5.9 3.9 -7.8q7.8 -21.5 13.7 -43 -2 -11.7 -15.6 -11.7 -9.8 -2 -15.7 -5.9 -1.9 -17.6 9.8 -35.1l2 -2q7.8 -7.8 17.5 -7.8 3.9 0 13.7 -3.9 7.8 -2 15.6 -2l11.7 -3.9q9.8 -1.9 11.8 0 5.8 2 11.7 2l11.7 3.9q5.9 3.9 9.8 3.9 5.8 3.9 13.6 -1.9l9.8 -5.9h19.5q15.7 0 19.6 -2 5.8 0 11.7 -3.9l7.8 -3.9 5.9 2q3.9 3.9 7.8 11.7 7.8 9.8 3.9 15.6 -2 5.9 0 11.7l3.9 11.8q1.9 3.9 1.9 7.8 2 11.7 -3.9 13.6 -9.7 9.8 -13.6 17.6 -2 3.9 -2 5.9 -7.8 17.6 -13.7 23.4 -3.9 5.9 -15.6 9.8 -23.4 11.7 -31.2 11.7 -7.9 -1.9 -7.9 2l-7.8 7.8q-5.8 1.9 -9.7 7.8 -2 3.9 -3.9 5.8 -3.9 2 -5.9 4 -5.9 5.8 -13.7 9.7 -9.7 7.8 -15.6 11.7l-3.9 3.9 -3.9 3.9q-3.9 2 -2 7.9 0 5.8 2 11.7 3.9 11.7 0 21.5 -3.9 7.8 3.9 17.5 3.9 5.9 0 17.6 -2 9.8 -2 17.6 0 11.7 4 15.6 1.9 5.9 5.8 5.9 3.9 3.9 9.8 -23.5 1.9 -15.6 5.8 -21.4 5.9 -5.9 19.6 -11.8 11.7 -5.8 19.5 -11.7 9.8 -5.8 19.5 -9.7 17.6 -7.9 29.3 -21.5 19.6 -21.5 25.4 -66.4 0 -7.8 5.9 -15.7Q584 50.8 585.9 43q2 -15.7 9.8 -21.5Q609.4 7.8 605.5 43l-3.9 27.3V84l7.8 7.8 9.7 7.8v17.6q0 15.6 2 21.5v3.9l-11.7 13.7q-23.5 21.4 -33.2 41l-7.8 15.6q-7.9 13.7 -17.6 39.1l-3.9 15.6 -13.7 11.7q-13.7 11.7 -17.6 15.6 -9.7 5.9 -9.7 19.6 0 7.8 3.9 15.6l3.9 7.8t3.9 5.9q1.9 3.9 1.9 19.5t-1.9 25.4q-3.9 19.5 -7.8 23.4 -5.9 3.9 -9.8 41 -2 7.8 -2 17.6 -1.9 9.8 -3.9 31.3 -1.9 33.2 3.9 44.9 11.8 17.6 -21.4 44.9l-7.8 5.9v11.7q0 7.8 1.9 15.6 7.8 21.5 9.8 33.2v41q-2 76.2 1.9 86 0 5.8 2 13.6 0 5.9 1.9 13.7v82l-1.9 5.9q-5.9 5.9 -17.6 15.6 -11.7 7.8 -13.7 7.8zm58.6 -87.9q0 -3.9 -1.9 -29.3 0 -42.9 -3.9 -66.4 0 -9.7 -2 -33.2 0 -41 -3.9 -52.7 -2 -2 -3.9 -17.6t-2 -23.4q-1.9 -9.8 9.8 -17.6 9.8 -9.8 9.8 -1.9 1.9 5.8 5.8 19.5 5.9 21.5 7.8 29.3V669.9q-1.9 3.9 -3.9 21.5 -1.9 13.7 -1.9 54.7 0 60.5 -3.9 80.1 -2 9.7 -5.9 9.7zM373 761.7q-1.9 -9.7 -3.9 -21.5l-3.9 -19.5q0 -7.8 -1.9 -13.7 0 -9.7 -2 -17.5 -1.9 -9.8 -3.9 -23.5t-1.9 -17.6 -2 -15.6 -1.9 -31.2 1.9 -23.5q5.9 -1.9 21.5 13.7l9.8 11.7v11.7q-2 13.7 -2 29.3t-1.9 23.5q0 7.8 -2 31.2 -1.9 56.7 -3.9 62.5 0 2 -2 2v-2zM203.1 242.2q25.4 15.6 33.2 21.5 7.8 7.8 21.5 11.7 35.2 9.8 44.9 33.2Q175.8 412.1 154.3 447.3q-44.9 80 -11.7 132.8 31.2 54.7 132.8 37.1 -25.4 43 -91.8 41Q119.1 656.3 84 607.4 43 546.9 64.5 447.3 84 345.7 203.1 242.2zm410.2 349.6q85.9 5.9 113.3 -44.9Q755.9 494.1 705.1 416q-2 0 -35.2 -37.1 -35.1 -37.1 -89.8 -95.7 1.9 -43 58.6 -103.5 84 60.5 123 125 39.1 62.5 48.8 107.4 9.8 46.9 9.8 56.7v1.9q2 68.4 -39 105.5 -39.1 35.1 -89.9 39 -48.8 3.9 -78.1 -23.4z"/></svg>