<svg height="1000" width="875" xmlns="http://www.w3.org/2000/svg"><path d="M845.7 273.4Q843.8 179.7 812.5 125 783.2 72.3 753.9 48.8 722.7 27.3 720.7 27.3 656.3 0 546.9 -9.8q-109.4 -7.8 -218.8 0Q218.8 0 154.3 27.3q-2 0 -33.2 21.5Q91.8 72.3 62.5 125 31.3 179.7 29.3 273.4v35.2q-2 113.3 7.8 222.7 7.8 111.3 52.7 193.3 45 84 146.5 113.3 119.2 29.3 201.2 23.4 74.2 -5.8 115.2 -19.5l39.1 -15.6 -2 -72.3q-1.9 0 -46.8 9.8 -43 9.7 -103.5 9.7 -62.5 0 -113.3 -17.5T263.7 668q-2 -13.7 -2 -27.4 119.2 25.4 209 23.5 91.8 -2 130.9 -9.8h9.7q84 -11.7 144.6 -54.7 60.5 -41 72.2 -87.9 13.7 -80.1 15.7 -156.2t1.9 -82.1zM699.2 517.6h-91.8 91.8 -91.8V294.9q-1.9 -48.8 -31.2 -64.4 -31.3 -17.6 -60.6 1.9 -31.2 19.6 -33.2 76.2v123h-89.8v-123q-2 -56.6 -33.2 -76.2 -29.3 -19.5 -58.6 -1.9 -31.3 15.6 -33.2 64.4v222.7h-91.8V410.2q-2 -107.5 3.9 -156.3t33.2 -78.1q41 -43 101.6 -41 62.5 0 99.6 52.7l23.4 39.1 23.4 -39.1q39.1 -52.7 99.6 -52.7 60.6 -2 101.6 41 29.3 29.3 33.2 78.1 5.9 48.8 3.9 156.3v107.4z"/></svg>