<svg height="1000" width="1125" xmlns="http://www.w3.org/2000/svg"><path d="M33.2 236.3l-19.5 375 19.5 -375 -19.5 375h85.9l11.7 -156.2 52.8 156.2H252l50.7 -150.4 7.8 150.4h89.9L375 236.3h-87.9L207 466.8 125 236.3H33.2zm548.8 0h-93.7H582h-93.7v375H582q3.9 2 48.9 -5.8 44.9 -9.8 89.8 -48.9 43 -39 46.9 -132.8Q761.7 334 718.8 294.9q-45 -41 -87.9 -50.8 -45 -7.8 -48.9 -7.8zm-1.9 287.1V324.2v199.2V324.2q5.8 -1.9 44.9 15.6 41 17.6 46.9 82.1 -3.9 66.4 -44.9 84 -41.1 19.5 -46.9 17.5zm464.8 -144.5q21.5 -35.1 15.6 -76.2 -11.7 -48.8 -56.6 -58.6t-50.8 -7.8H851.6v375h89.8q3.9 0 44.9 -3.9t80.1 -29.3q41 -27.3 44.9 -91.8 -3.9 -62.5 -33.2 -85.9 -27.3 -23.4 -33.2 -21.5zm-99.6 -62.5q0 -1.9 13.7 0 11.7 2 17.6 17.6 -2 21.5 -7.8 23.4h-23.5v-41zm-1.9 212.9l1.9 -48.8 -1.9 48.8 1.9 -48.8v-35.2q3.9 -1.9 39.1 2 37.1 3.9 41 41 -5.9 37.1 -41 39 -35.2 4 -41 2z"/></svg>