<svg height="1000" width="625" xmlns="http://www.w3.org/2000/svg"><path d="M230.5 388.7q1.9 -7.8 5.8 -17.6 3.9 -17.6 7.8 -31.3 5.9 -15.6 13.7 -15.6 11.7 5.9 19.5 33.2 5.9 19.6 15.7 37.1 3.9 -25.4 7.8 -66.4 3.9 -39 7.8 -68.3 3.9 -31.3 11.7 -33.2 11.7 3.9 23.5 50.7 11.7 48.9 17.5 84 2 11.7 2 15.7 19.5 5.8 54.7 9.7 37.1 3.9 41 3.9 0 9.8 -25.4 11.7 -27.3 4 -52.7 4Q377 418 375 429.7q-5.9 27.3 -15.6 31.2 -7.8 -3.9 -15.6 -37.1 -5.9 -29.3 -19.6 -60.5l-17.6 128.9q-5.8 11.7 -15.6 -9.8 -11.7 -21.5 -21.5 -50.8 -3.9 -9.7 -5.8 -17.5h-2q-7.8 0 -35.1 -2 -27.4 0 -46.9 -3.9 -21.5 -3.9 -9.8 -9.8l60.6 -9.7zm214.8 410.1q31.3 -3.9 31.3 -31.2 0 -27.4 -31.3 -31.3H179.7q-31.3 3.9 -31.3 31.3t31.3 31.2h265.6zm-46.9 125q31.3 -3.9 31.3 -31.2 0 -27.4 -31.3 -31.3H226.6q-31.3 3.9 -31.3 31.3t31.3 31.2h171.8zm66.4 -275.4q2 -9.7 4 -17.5 3.9 -46.9 19.5 -78.2 23.4 -42.9 46.9 -80v-2q37.1 -56.6 62.5 -115.2Q623 298.8 625 226.6 621.1 97.7 533.2 13.7q-87.9 -86 -220.7 -89.9Q179.7 -72.3 91.8 13.7 3.9 97.7 0 226.6q2 72.2 27.3 130.8 25.4 56.7 62.5 115.3 23.5 37.1 46.9 80 15.6 31.3 19.6 80.1l3.9 15.6q7.8 29.3 37.1 25.4 27.3 -5.8 25.4 -35.1 0 -9.8 -2 -17.6 -5.9 -52.7 -27.3 -97.7Q168 478.5 144.5 439.5 111.3 386.7 87.9 335.9 64.5 287.1 64.5 226.6 66.4 125 136.7 56.6t175.8 -70.3q105.5 2 175.8 70.3t72.2 170q0 60.5 -23.4 109.3 -23.4 50.8 -56.6 103.6 -23.5 39 -48.9 83.9 -21.4 45 -27.3 95.7 -2 9.8 -2 17.6 -1.9 31.3 25.4 37.1 27.4 3.9 37.1 -25.4z"/></svg>