<svg height="1000" width="1250" xmlns="http://www.w3.org/2000/svg"><path d="M353.5 68.4q-150.4 3.9 -250 103.5Q3.9 273.4 0 423.8q3.9 150.4 103.5 252 99.6 99.6 250 103.5Q502 775.4 601.6 675.8q99.6 -101.6 103.5 -252Q701.2 273.4 601.6 171.9 502 72.3 353.5 68.4zM916 89.8q-76.2 4 -125 97.7 -50.8 93.8 -50.8 236.3T791 660.2q48.8 93.7 125 97.6 74.2 -3.9 125 -97.6 48.8 -93.8 50.8 -236.4 -2 -142.5 -50.8 -236.3Q990.2 93.8 916 89.8zm271.5 35.2q-25.4 2 -43 87.9 -17.5 84 -17.5 210.9t17.5 211q17.6 85.9 43 87.9 27.3 -2 44.9 -87.9 17.6 -84 17.6 -211t-17.6 -210.9Q1214.8 127 1187.5 125z"/></svg>