<svg height="1000" width="1062.5" xmlns="http://www.w3.org/2000/svg"><path d="M222.7 423.8q3.9 181.7 107.4 310.6 105.4 128.9 269.5 160.1 -54.7 13.7 -113.3 13.7Q349.6 906.3 240.2 841.8T66.4 668 0 423.8Q2 289.1 66.4 179.7T240.2 5.9t246.1 -66.4q58.6 0 113.3 13.6Q435.5 -15.6 330.1 113.3 226.6 242.2 222.7 423.8zm580 195.3q-117.2 82.1 -246.1 72.3Q425.8 683.6 334 591.8q15.6 41 41 78.1 95.7 130.9 246.1 156.3 148.4 25.4 281.2 -64.5 129 -95.7 154.3 -246.1T994.1 230.5q-27.3 -39.1 -60.5 -68.4 54.7 121.1 19.5 246.1Q918 535.2 802.7 619.1zM375 142.6l-3.9 3.9q-2 1.9 -3.9 1.9 97.6 -25.4 191.4 5.9 93.7 29.3 158.2 113.3 52.7 70.3 64.5 150.4 11.7 82 -15.7 158.2 82.1 -86 95.7 -195.3Q875 273.4 808.6 181.6 730.5 85.9 609.4 74.2 486.3 64.5 375 142.6zm203.1 218.7q-13.6 -1.9 -15.6 -15.6v-78.1q-2 -13.7 -15.6 -15.6h-93.8q-13.6 1.9 -15.6 15.6v78.1q-2 13.7 -15.6 15.6h-78.1q-13.7 2 -15.7 15.7v93.7q2 13.7 15.7 15.6h78.1q13.6 2 15.6 15.7v78.1q2 13.7 15.6 15.6h93.8q13.6 -1.9 15.6 -15.6V502q2 -13.7 15.6 -15.7h78.2q13.6 -1.9 15.6 -15.6V377q-2 -13.7 -15.6 -15.7h-78.2z"/></svg>