<svg height="1000" width="1000" xmlns="http://www.w3.org/2000/svg"><path d="M193.4 732.4q1.9 19.6 -15.7 25.4 -17.5 2 -23.4 -15.6 -2 -19.5 15.6 -25.4 17.6 -2 23.5 15.6zM472.7 873q-19.6 15.7 -7.9 39.1 17.6 19.5 39.1 5.9 19.5 -15.7 7.8 -39.1 -15.6 -19.5 -39 -5.9zm-168 -904.3q19.5 -5.8 17.6 -27.3 -5.9 -19.5 -27.4 -17.6 -19.5 7.8 -17.6 27.4 5.9 21.5 27.4 17.5zM66.4 365.2Q33.2 345.7 7.8 377q-19.5 35.1 11.7 60.5 33.2 19.5 58.6 -9.8Q97.7 390.6 66.4 365.2zM597.7 31.3q33.2 -23.5 15.6 -58.6Q589.8 -58.6 554.7 -43 523.4 -19.5 541 17.6q21.5 31.2 56.7 13.7zM224.6 144.5Q248 125 234.4 99.6 214.8 76.2 187.5 89.8q-21.5 21.5 -7.8 46.9 19.5 23.5 44.9 7.8zm728.5 304.7q-25.4 7.8 -21.5 33.2 7.9 23.5 31.3 21.5 23.4 -7.8 21.5 -33.2 -7.8 -23.4 -31.3 -21.5zm76.2 -109.4q-3.9 -17.5 -23.4 -15.6 -17.6 3.9 -15.7 23.5 5.9 17.5 25.4 15.6 17.6 -5.9 13.7 -23.5zM873 195.3q-25.3 21.5 -9.7 50.8 21.5 25.4 50.8 9.8 25.4 -21.5 9.7 -50.8Q902.3 177.7 873 195.3zm-11.7 271.5q37.1 66.4 23.5 136.7 -13.7 70.3 -76.2 115.3 -50.8 37.1 -109.4 35.1 -23.4 68.4 -85.9 87.9 -64.5 19.5 -121.1 -25.4 0 2 -2 2l-3.9 3.9q-60.5 39 -125 27.3Q294.9 837.9 252 779.3q-27.4 -43 -29.3 -91.8Q158.2 673.8 125 627 89.8 578.1 91.8 519.5q3.9 -58.6 50.8 -105.4 -39.1 -72.3 -7.8 -140.7Q168 205.1 248 189.5 289.1 89.8 384.8 56.6 478.5 23.4 566.4 84 669.9 54.7 748 113.3q78.2 60.5 74.3 168 60.5 23.4 74.2 82 11.7 58.6 -35.2 103.5zM724.6 613.3q-9.8 -25.4 -41 -25.4 -17.6 -2 -29.3 -7.8 -11.7 -3.9 -13.7 -21.5 -1.9 -23.4 9.8 -58.6 13.7 -35.2 31.2 -72.3 15.7 -37.1 27.4 -66.4 11.7 -31.2 9.8 -52.7 -5.9 -33.2 -25.4 -44.9T652.3 252q-33.2 0 -41 7.8v1.9h-1.9q-7.8 9.8 -21.5 -1.9l-3.9 -3.9q-13.7 -15.7 -33.2 -21.5 -31.3 -3.9 -52.8 19.5l-3.9 3.9q-5.8 5.9 -15.6 11.7t-19.5 2q-5.9 -2 -19.5 -9.8L412.1 250q-25.4 -9.8 -52.7 2 -27.4 13.6 -41 37.1 -17.6 33.2 -41.1 105.4 -21.4 72.3 -35.1 117.2 -3.9 15.6 -5.9 21.5 -11.7 41 9.8 66.4 23.4 27.4 62.5 25.4 29.3 2 48.8 -33.2 3.9 -7.8 17.6 -41 13.7 -35.2 29.3 -76.2 13.7 -39.1 25.4 -68.3t15.6 -35.2q7.8 -13.7 27.4 -9.8 15.6 11.7 11.7 29.3 0 9.8 -9.8 35.2t-21.5 52.7q-21.5 50.8 -25.4 64.5 -1.9 33.2 27.4 37.1t48.8 -29.3q3.9 -9.8 23.4 -48.8l45 -89.9q23.4 -44.9 27.3 -54.7 11.7 -15.6 23.4 -15.6 13.7 -3.9 13.7 21.5 -1.9 7.8 -11.7 29.3t-21.5 48.8q-15.6 29.3 -27.3 54.7 -11.7 27.3 -15.7 39.1 -5.8 31.2 7.9 58.6 13.6 25.3 41 41 23.4 9.7 68.3 11.7 46.9 1.9 46.9 -33.2zm9.8 179.7q-31.3 27.3 -9.8 62.5 25.4 33.2 62.5 11.7 31.3 -25.4 11.7 -62.5Q771.5 771.5 734.4 793z"/></svg>