<svg height="1000" width="968.8" xmlns="http://www.w3.org/2000/svg"><path d="M419.9 334v128.9V334v128.9l64.5 64.4 64.4 -64.4V334l-64.4 -66.4zm64.5 -394.5Q349.6 -58.6 240.2 5.9 130.9 70.3 66.4 179.7 2 289.1 0 423.8 2 558.6 66.4 668t173.8 173.8 244.2 66.4q134.7 -1.9 244.1 -66.4T902.3 668t66.5 -244.2q-2 -134.7 -66.5 -244.1T728.5 5.9 484.4 -60.5zM767.6 748l-50.8 39.1L767.6 748l-50.8 39.1L666 748V621.1l-64.4 -64.5 -66.4 64.5V748l-50.8 39.1L433.6 748V621.1l-64.5 -64.5 -66.4 64.5V748L252 787.1 201.2 748V578.1L316.4 462.9V291L433.6 175.8V27.3l50.8 -37.1 50.8 37.1v148.5L652.3 291v171.9l115.3 115.2V748z"/></svg>