<svg height="1000" width="1250" xmlns="http://www.w3.org/2000/svg"><path d="M1220.7 558.6q-39.1 -37.1 -95.7 -33.2 -62.5 -2 -76.2 -50.8 -15.6 -48.8 3.9 -142.6 31.3 -89.8 -15.6 -169.9Q988.3 82 880.9 76.2q-60.6 3.9 -97.7 31.2 -35.2 29.3 -60.5 62.5 -21.5 27.4 -43 46.9 -23.4 19.5 -54.7 19.5 -29.3 0 -52.7 -19.5 -21.5 -19.5 -41 -44.9 -27.4 -35.2 -62.5 -64.5Q431.6 80.1 369.1 76.2 261.7 82 214.8 162.1T199.2 332q19.6 93.8 3.9 142.6 -13.6 48.8 -76.1 50.8Q66.4 521.5 23.4 570.3 2 589.8 0 634.8t21.5 84q25.4 41 84 50.7 72.2 5.9 109.3 -48.8 37.2 -52.7 9.8 -123 -29.3 -76.2 17.6 -113.3 46.9 -39.1 121.1 -41 72.2 -2 123 31.2 50.8 35.2 25.4 107.4 -37.1 68.4 -1.9 127 37.1 58.6 115.2 60.5 80.1 -1.9 115.2 -60.5 37.1 -58.6 0 -127 -25.4 -72.2 25.4 -107.4 48.9 -33.2 123.1 -31.2t121.1 41q46.8 37.1 15.6 113.3 -13.7 31.2 -9.8 64.4 11.7 80.1 78.2 103.5 68.3 21.5 126.9 -35.1 25.4 -25.4 29.3 -80.1 2 -54.7 -29.3 -91.8zM627 521.5h-2 2 -2q-62.5 -2 -93.7 -43Q502 439.5 502 398.4q1.9 -50.7 37.1 -85.9 33.2 -35.2 85.9 -35.2h2q50.7 0 85.9 35.2t35.1 85.9q2 41.1 -29.2 80.1 -29.3 41 -91.8 43z"/></svg>