<svg height="1000" width="1250" xmlns="http://www.w3.org/2000/svg"><path d="M1250 544.9q0 134.8 -56.6 211Q1138.7 834 1035.2 834q-87.9 1.9 -154.3 -58.6t-152.4 -207L666 464.8q-13.7 -21.4 -25.4 -42.9Q632.8 408.2 625 396.5 593.8 449.2 564.5 502t-31.3 56.6q-95.7 168 -164.1 224.6T226.6 834Q119.1 834 60.5 757.8 0 681.6 0 550.8 2 408.2 48.8 285.2t127 -199.3 183.6 -80q72.2 0 140.6 41t142.6 134.7q52.7 -76.1 115.2 -125T896.5 5.9q97.6 1.9 177.7 76.1 80.1 72.3 127 193.4t48.8 269.5zM560.5 298.8Q500 209 453.1 175.8q-48.8 -35.2 -95.7 -33.2 -60.5 1.9 -111.3 60.5T166 355.5t-31.2 197.2q3.9 144.6 97.6 146.5 41 3.9 82.1 -39Q357.4 619.1 433.6 498q0 -1.9 33.2 -54.6Q502 390.6 560.5 298.8zm476.6 400.4q93.8 -3.9 91.8 -144.5Q1127 367.2 1058.6 242.2 992.2 119.1 888.7 113.3q-91.8 0 -185.6 152.3 27.4 41 56.7 89.9L834 476.6q82 134.7 121.1 179.7 41 46.8 82 42.9z"/></svg>