<svg height="1000" width="875" xmlns="http://www.w3.org/2000/svg"><path d="M779.3 630.9q89.8 -103.6 91.8 -246.1 -3.9 -168 -127 -281.3Q623 -9.8 437.5 -13.7 252 -9.8 130.9 103.5 7.8 216.8 3.9 384.8q3.9 169.9 127 283.2Q252 781.3 437.5 785.2q80.1 0 154.3 -27.4 9.8 -1.9 17.6 5.9 56.6 74.2 154.3 97.6 7.8 0 11.7 -7.8 0 -3.9 -2 -5.8Q736.3 798.8 738.3 738.3t43 -107.4h-2zm-134.8 -293l-113.2 85.9 113.2 -85.9 -113.2 85.9 41 134.8q1.9 7.8 -3.9 13.7 -7.9 3.9 -15.7 0L437.5 492.2l-115.2 80.1q-7.8 3.9 -15.7 0 -5.8 -5.9 -3.9 -13.7l41.1 -134.8L230.5 337.9q-5.9 -3.9 -3.9 -13.7 3.9 -7.8 11.7 -7.8l140.6 -3.9 46.9 -132.8q1.9 -7.8 11.7 -7.8 7.8 0 11.7 7.8l46.9 132.8 140.6 3.9q7.8 0 11.7 7.8 2 9.8 -3.9 13.7z"/></svg>