<svg height="1000" width="1000" xmlns="http://www.w3.org/2000/svg"><path d="M224.6 72.3Q199.2 41 160.2 37.1T91.8 60.5Q66.4 84 64.5 119.1q-2 33.2 17.5 62.5l179.7 240.3L82 666q-21.5 29.3 -19.5 62.5 2 35.2 29.3 58.6 29.3 27.4 68.4 23.4t62.5 -35.1L474.6 437.5q7.8 -13.7 0 -29.3zM918 666L738.3 421.9 918 666 738.3 421.9 918 181.6q19.5 -29.3 17.5 -62.5Q933.6 84 908.2 60.5 878.9 33.2 839.8 37.1t-64.4 35.2l-250 335.9q-7.8 13.7 0 27.3l251.9 339.9q23.5 31.2 62.5 35.1t70.4 -23.4q25.3 -23.4 27.3 -58.6 2 -33.2 -19.5 -62.5z"/></svg>