<svg height="1000" width="968.8" xmlns="http://www.w3.org/2000/svg"><path d="M484.4 -60.5Q349.6 -58.6 240.2 5.9 130.9 70.3 66.4 179.7 2 289.1 0 423.8 2 558.6 66.4 668t173.8 173.8 244.2 66.4q134.7 -1.9 244.1 -66.4T902.3 668t66.5 -244.2q-2 -134.7 -66.5 -244.1T728.5 5.9 484.4 -60.5zM328.1 627q-93.7 31.2 -156.2 93.7V189.5q0 -33.2 23.4 -54.7 21.5 -23.5 54.7 -23.5t54.7 23.5q23.4 21.5 23.4 54.7V627zm234.4 -19.6q-37.1 -5.8 -78.1 -5.8t-78.1 5.8V189.5q0 -33.2 23.4 -54.7 21.5 -23.5 54.7 -23.5t54.7 23.5q23.4 21.5 23.4 54.7v417.9zm234.4 113.3Q734.4 658.2 640.6 627V189.5q0 -33.2 23.5 -54.7 21.4 -23.5 54.7 -23.5t54.6 23.5q23.5 21.5 23.5 54.7v531.2z"/></svg>