<svg height="1000" width="968.8" xmlns="http://www.w3.org/2000/svg"><path d="M582 654.3q-41 39.1 -97.6 58.6 -56.7 -19.5 -97.7 -58.6H582zm86 -390.6q60.5 -50.8 136.7 -70.3v314.4Q798.8 668 705.1 748q-95.7 80.1 -220.7 80.1T263.7 748 164.1 507.8V193.4q76.1 19.5 134.7 70.3 86 -58.6 185.6 -58.6T668 263.7zM259.8 150.4Q359.4 60.5 484.4 60.5T707 148.4l-39 23.5Q580.1 127 484.4 127t-183.6 44.9q-19.5 -11.7 -41 -21.5zM85.9 105.5v136.7V105.5v136.7Q0 300.8 0 394.5q0 95.7 85.9 156.3 23.5 179.7 138.7 267.6t259.8 87.9 259.7 -89.9Q857.4 728.5 882.8 552.7v-1.9q86 -60.6 86 -154.3 0 -95.7 -86 -156.3V105.5q-50.8 1.9 -97.6 15.6Q703.1 31.3 593.8 2 484.4 -29.3 375 2 267.6 31.3 183.6 121.1 136.7 107.4 85.9 105.5zm420 505.8h41q39 -1.9 80.1 -1.9 33.2 -3.9 48.8 -13.7 33.2 -21.5 43 -46.9 7.8 -25.4 7.8 -41v-3.9q-11.8 0 -21.5 -1.9 -99.6 -4 -142.6 13.6 -41 15.7 -56.6 95.7zM242.2 503.9v3.9q0 15.6 7.8 41 9.8 25.4 43 46.9 15.6 9.8 48.8 13.7 41 0 78.1 1.9h43q-15.6 -80 -58.6 -95.7Q363.3 498 263.7 503.9h-21.5zm330.1 240.2q-11.8 -15.6 -13.7 -13.6 -76.2 19.5 -148.4 0 -2 -2 -11.8 11.7 -7.8 15.6 -7.8 19.5 43 25.4 93.8 25.4t93.7 -25.4q0 -3.9 -5.8 -17.6z"/></svg>