<svg height="1000" width="1000" xmlns="http://www.w3.org/2000/svg"><path d="M810.5 923.8H625h185.5H625L414.1 621.1v179.7l-168 123H54.7V-17.6l78.1 -58.6h212.9l240.2 343.8V46.9l170 -123.1h189.4v902.4zM76.2 -7.8v900.4V-7.8v900.4L216.8 789.1V302.7l419.9 601.6h166l101.6 -76.2H752L134.8 -50.8zm160.1 912.1L392.6 789.1 236.3 904.3 392.6 789.1V591.8L238.3 369.1v431.7L95.7 904.3h140.6zm-78.1 -959l605.5 863.3L158.2 -54.7l605.5 863.3h162.1V-54.7H769.5v619.2L334 -54.7H158.2zm449.2 353.5L748 498 607.4 298.8 748 498V-44.9L607.4 58.6v240.2z"/></svg>