<svg height="1000" width="1125" xmlns="http://www.w3.org/2000/svg"><path d="M767.6 -13.7q23.4 -1.9 41 9.8Q931.6 84 998 193.4q64.5 109.3 64.5 228.5 0 123 -64.5 232.4Q931.6 763.7 808.6 851.6q-15.6 11.7 -35.2 9.7Q752 859.4 736.3 843.8L378.9 488.3q-17.6 -17.6 -19.5 -41 1.9 -23.5 19.5 -41 15.6 -17.6 41 -17.6 23.5 0 39.1 17.6l324.2 320.3Q945.3 591.8 947.3 421.9q0 -89.9 -52.8 -175.8Q841.8 162.1 744.1 91.8 724.6 78.1 720.7 54.7t9.8 -43 37.1 -25.4zm-402.4 875q-23.4 2 -42.9 -9.7Q199.2 763.7 134.8 654.3T70.3 421.9q0 -119.2 64.5 -228.5T322.3 -3.9q17.5 -11.7 37.1 -9.8 21.5 2 37.1 17.6l357.4 355.5q17.6 17.6 17.6 41t-17.6 41q-15.6 17.6 -41 17.6 -23.4 0 -41 -17.6L349.6 121.1Q187.5 255.9 185.5 421.9q0 93.7 52.8 179.7 50.8 85.9 148.4 154.3 21.5 13.6 25.4 37.1t-9.8 44.9q-13.6 17.6 -37.1 23.4z"/></svg>