<svg height="1000" width="1000" xmlns="http://www.w3.org/2000/svg"><path d="M414.1 878.9q3.9 7.8 1.9 15.6 -1.9 9.8 -9.7 13.7 -7.9 5.9 -15.7 3.9Q205.1 867.2 93.8 714.8 -15.6 558.6 3.9 369.1 25.4 179.7 166 50.8q144.5 -125 334 -127 2 0 5.9 2h1.9q2 0 3.9 1.9t3.9 2q3.9 3.9 5.9 7.8V142.6l48.8 -50.8q2 -2 5.9 -3.9t9.7 -2q3.9 0 7.9 2 3.9 0 7.8 3.9 1.9 2 3.9 7.8 1.9 3.9 1.9 7.8v7.8q-1.9 3.9 -5.8 7.8l-86 91.8q-1.9 2 -5.8 4 -5.9 1.9 -11.8 1.9 -1.9 0 -5.8 -1.9 -5.9 -2 -7.8 -4l-86 -91.8q-5.8 -7.8 -5.8 -15.6 0 -9.7 5.8 -15.6 7.9 -5.9 15.7 -5.9 9.7 0 15.6 5.9l48.8 50.8V-31.3q-169.9 9.8 -294.9 127Q62.5 214.8 46.9 384.8q-13.7 169.9 85.9 308.6 46.9 66.4 117.2 111.3 68.4 44.9 150.4 64.4 7.8 2 13.7 9.8zM334 169.9q-2 3.9 -5.9 5.9 -60.5 43 -93.7 107.4 -35.2 64.5 -35.2 138.7t35.2 136.7Q267.6 625 328.1 668q7.8 3.9 9.8 13.6 0 5.9 -2 13.7 0 2 -1.9 2 -5.9 7.8 -13.7 7.8 -9.8 3.9 -15.6 -2Q234.4 656.3 193.4 582 154.3 505.9 154.3 421.9t39.1 -160.2q41 -74.2 111.3 -121.1 1.9 -3.9 7.8 -3.9h7.8q3.9 0 7.8 2 3.9 3.9 5.9 7.8 3.9 1.9 3.9 7.8 1.9 3.9 0 7.8 0 3.9 -3.9 7.8zm332 503.9q0 -1.9 2 -3.9 1.9 -1.9 1.9 -3.9 62.5 -41 97.7 -105.5 33.2 -66.4 33.2 -138.6 0 -74.2 -33.2 -138.7Q732.4 216.8 669.9 175.8l-1.9 -2t-2 -3.9l-3.9 -7.8t0 -5.8v-2q2 -5.9 3.9 -7.8 0 -2 2 -2 0 -3.9 3.9 -3.9 3.9 -3.9 7.8 -3.9 5.8 -1.9 9.8 0 3.9 0 7.8 3.9 68.3 46.9 109.3 121.1 37.2 76.2 37.2 160.2t-37.2 158.2q-41 76.2 -109.3 123l-7.8 3.9h-9.8q-2 0 -3.9 -1.9t-3.9 -2q-3.9 -1.9 -3.9 -3.9 -2 0 -2 -1.9l-3.9 -7.8v-2q-1.9 -3.9 0 -5.9 2 -5.8 3.9 -7.8zM609.4 -64.5q169.9 41.1 279.3 173.9 89.8 113.3 107.4 255.8t-44.9 273.5 -183.6 209Q644.5 923.8 500 923.8q-3.9 0 -7.8 -1.9l-7.8 -3.9q-3.9 -3.9 -3.9 -5.9v-1.9q-2 -3.9 -2 -7.9V709l-48.8 50.8q-3.9 3.9 -11.7 5.8h-3.9q-7.8 0 -15.7 -7.8 -5.8 -3.9 -5.8 -13.7t5.8 -15.6l86 -91.8q5.8 -5.8 13.6 -5.8 11.8 0 17.6 5.8l86 91.8q5.8 5.9 5.8 15.6t-5.8 13.7q-7.8 7.8 -15.7 7.8H582q-7.8 -1.9 -11.7 -5.8L521.5 709v169.9Q691.4 869.1 816.4 752 937.5 630.9 955.1 462.9 966.8 293 867.2 154.3 765.6 17.6 599.6 -21.5q-3.9 0 -7.8 -1.9 -2 -3.9 -5.9 -7.9 -3.9 -3.9 -1.9 -7.8 -2 -3.9 0 -7.8 0 -3.9 3.9 -7.8 1.9 -3.9 5.9 -5.8l7.8 -4h7.8zm80.1 488.3q-2 95.7 -95.7 164.1 -7.9 3.9 -15.7 3.9 -7.8 -2 -13.6 -7.8L427.7 449.2q-7.8 -7.8 -5.8 -15.6 0 -9.8 5.8 -15.6 7.8 -7.8 15.7 -7.8 9.7 0 15.6 7.8l123 121.1q62.5 -50.8 64.5 -115.3 -2 -72.2 -78.1 -126.9 -7.9 -5.9 -9.8 -13.7 -2 -9.8 3.9 -17.6 5.9 -5.8 13.7 -7.8 9.7 -1.9 17.6 3.9 93.7 68.4 95.7 162.1zm-265.7 168q-9.7 0 -17.5 -3.9Q310.5 519.5 308.6 423.8q1.9 -93.7 97.7 -162.1 7.8 -5.8 15.6 -3.9 7.8 0 13.6 5.9l136.8 136.7q5.8 5.9 5.8 15.6 0 7.8 -5.8 13.7v1.9q-7.8 5.9 -15.7 5.9 -9.7 0 -15.6 -5.9l-123 -123q-62.5 50.8 -62.5 115.2 0 70.3 76.1 127 7.9 5.8 9.8 15.6 2 7.8 -3.9 15.6t-13.7 9.8z"/></svg>