<svg height="1000" width="750" xmlns="http://www.w3.org/2000/svg"><path d="M482.4 507.8q48.9 3.9 52.8 52.7 -3.9 48.9 -52.8 52.8 -50.8 -3.9 -54.7 -52.8 3.9 -48.8 54.7 -52.7zm-261.7 52.7q3.9 -48.8 52.7 -52.7 48.9 3.9 52.8 52.7 -3.9 48.9 -52.8 52.8 -48.8 -2 -52.7 -52.8zM375 234.4q-56.6 0 -132.8 31.2 -78.1 31.3 -127 101.6L27.3 -76.2v654.3q4 148.5 101.6 244.2 97.7 97.6 246.1 101.5 146.5 -3.9 244.1 -101.5 99.7 -95.7 103.6 -244.2Q718.8 431.6 621.1 335.9 521.5 238.3 375 234.4zm0 601.5Q263.7 834 191.4 761.7 119.1 687.5 115.2 580.1q3.9 -109.4 76.2 -183.6Q263.7 324.2 375 322.3q109.4 1.9 181.6 74.2 74.3 74.2 76.2 181.6 -1.9 109.4 -76.2 183.6Q484.4 834 375 835.9z"/></svg>