<svg height="1000" width="875" xmlns="http://www.w3.org/2000/svg"><path d="M437.5 916q-19.5 0 -37.1 -9.7L279.3 834q-13.7 -7.8 -11.7 -9.8 1.9 -3.9 7.8 -5.8 17.6 -5.9 27.3 -9.8t27.4 -13.7q3.9 -1.9 9.7 0l91.8 54.7q5.9 3.9 11.8 0l361.3 -209q3.9 -1.9 3.9 -9.7V214.8q0 -5.8 -5.9 -9.7L443.4 -2q-5.9 -3.9 -11.8 0L72.3 205.1q-5.9 3.9 -5.9 9.7v418q0 5.9 5.9 7.8l97.6 58.6q41 17.6 64.5 3.9 21.5 -15.6 23.4 -41V252q0 -9.8 9.8 -11.8h44.9q9.8 2 11.7 11.8v410.1q-3.9 109.4 -107.4 113.3 -13.7 0 -31.3 -3.9T132.8 752L39.1 697.3Q2 675.8 2 630.9V214.8q0 -42.9 37.1 -64.4l361.3 -209q37.1 -19.5 74.2 0l361.3 209q37.1 21.5 39.1 64.4v418q-2 41 -39.1 64.5l-361.3 209Q457 916 437.5 916zm291 -410.1q0 -56.7 -39 -80.1 -41.1 -23.5 -125 -33.2Q484.4 382.8 460.9 373q-21.4 -9.7 -19.5 -29.2 -1.9 -17.6 15.6 -33.3T535.2 293q54.6 0 78.1 13.6 25.4 15.7 33.2 52.8 1.9 7.8 11.7 7.8h46.9q3.9 0 5.8 -3.9 3.9 -2 3.9 -7.8 -9.7 -127 -179.6 -125Q375 232.4 371.1 345.7q0 58.6 41 82 43 23.5 117.2 29.3 85.9 7.8 109.4 21.5 21.5 13.7 19.5 31.3 2 58.6 -109.4 56.6 -70.3 0 -95.7 -17.6 -23.4 -17.5 -27.3 -54.7 -2 -7.8 -9.8 -7.8h-46.9q-9.7 0 -11.7 9.8 -1.9 48.8 37.1 89.8t154.3 43q175.8 -1.9 179.7 -123z"/></svg>