<svg height="1000" width="1250" xmlns="http://www.w3.org/2000/svg"><path d="M617.2 806.6q-5.9 0 -11.7 -3.9l-37.1 -21.4q-5.9 -4 0 -4l15.6 -7.8q1.9 -1.9 3.9 0l27.3 15.7q2 1.9 3.9 0l113.3 -64.5q2 0 2 -3.9V587.9q0 -2 -2 -3.9L619.1 519.5q-1.9 -1.9 -3.9 0L503.9 584q-1.9 1.9 -1.9 3.9v128.9q0 2 1.9 3.9l29.3 17.6q27.3 7.8 27.3 -11.7V597.7q0 -2 4 -2h13.6q3.9 0 3.9 2v128.9q0 35.1 -33.2 35.1 -7.8 2 -25.4 -5.8l-31.2 -17.6q-9.8 -7.8 -11.7 -21.5V587.9q1.9 -13.7 11.7 -21.5L605.5 502q11.7 -5.9 23.4 0l113.3 64.4q11.7 7.8 11.7 21.5v128.9q0 13.7 -11.7 21.5l-113.3 64.4q-3.9 3.9 -11.7 3.9zM709 677.7q0 -31.2 -50.8 -35.1 -25.4 -3.9 -33.2 -5.9 -5.9 -3.9 -5.9 -9.7 -5.8 -11.8 29.3 -15.7 31.3 -1.9 35.2 21.5 0 2 3.9 2h15.6q2 -2 2 -3.9 -3.9 -39.1 -56.7 -39.1 -50.7 2 -50.7 37.1 0 33.2 48.8 33.2 27.3 3.9 33.2 7.8 7.8 3.9 7.8 9.8 0 17.6 -35.2 17.6 -39 0 -39 -23.5 0 -1.9 -2 -1.9h-15.6q-1.9 0 -3.9 3.9 0 13.7 11.7 27.3t48.8 13.7q54.7 0 56.7 -39.1zm107.4 -97.6q-1.9 19.5 -23.4 21.5 -19.6 -2 -21.5 -21.5 1.9 -19.6 21.5 -21.5 19.5 1.9 23.4 21.5zm-3.9 0q-2 -15.6 -19.5 -17.6 -15.7 2 -17.6 17.6 1.9 17.6 17.6 19.5 17.5 -1.9 19.5 -19.5zm-9.8 11.7h-3.9 3.9 -3.9q-1.9 -3.9 -1.9 -7.8 0 -2 -2 -2H791v9.8h-5.8v-23.4h9.7q5.9 -2 7.8 5.8 -1.9 5.9 -3.9 5.9 3.9 0 3.9 5.8v5.9zm-5.8 -15.6q0 -5.9 -2 -3.9H791v5.8h3.9q3.9 0 2 -1.9zM267.6 296.9q0 -7.8 -5.9 -11.7L140.6 214.8q-1.9 -1.9 -5.8 -1.9h-2q-1.9 0 -5.8 1.9L7.8 285.2Q0 289.1 0 296.9v185.5q0 3.9 3.9 5.9t7.8 0l70.3 -41q7.8 -3.9 7.8 -11.8v-85.9q0 -9.8 5.9 -13.7L127 318.4q3.9 -2 7.8 -2t5.8 2l31.3 17.5q5.8 3.9 5.8 13.7v85.9q2 7.9 7.8 11.8l72.3 41q2 1.9 5.9 0t3.9 -5.9V296.9zM923.8 93.8v345.7V93.8v345.7q-1.9 7.8 -7.8 11.7l-119.1 70.3q-7.8 1.9 -15.6 0L662.1 451.2q-7.8 -3.9 -7.8 -11.7V300.8q0 -7.8 7.8 -11.7l119.2 -70.3q7.8 -4 15.6 0l29.3 17.5q5.8 2 7.8 -3.9V48.8q1.9 -9.7 9.8 -5.8L916 82q5.9 3.9 5.9 11.8h1.9zM834 345.7l-2 -1.9 -41 -25.4h-3.9l-41 25.4q-2 0 -2 1.9v48.8q0 2 2 2l41 23.4q2 2 3.9 0l41 -23.4v-50.8h2zm408.2 0q7.8 -5.9 7.8 -13.7v-33.2q0 -7.8 -7.8 -11.7L1123 216.8q-5.8 -3.9 -13.6 0l-119.2 70.3q-7.8 3.9 -7.8 11.7v138.7q0 7.8 7.8 11.7l119.2 68.4q5.8 3.9 13.6 0l72.3 -41q5.9 -5.9 0 -11.8l-121.1 -68.3q-3.9 -3.9 -3.9 -7.8v-43q0 -3.9 3.9 -5.9l37.1 -21.4q3.9 -2 7.8 0l37.2 21.4q3.9 2 3.9 5.9v35.2q1.9 7.8 11.7 5.8l70.3 -41zm-150.4 5.9q-2 0 -2 1.9v27.4q0 1.9 2 1.9l23.4 13.7h2l23.4 -13.7q2 0 2 -1.9v-27.4q0 -1.9 -2 -1.9l-23.4 -13.7h-2l-23.4 13.7zm-496.1 85.9V298.8v138.7V298.8q0 -7.8 -7.8 -11.7L468.8 218.8q-7.9 -4 -15.7 0L334 287.1q-5.9 3.9 -7.8 11.7v138.7q1.9 7.8 7.8 11.7l121.1 68.4q5.8 3.9 13.7 0l119.1 -68.4q5.9 -3.9 7.8 -9.7v-4 2zM449.2 193.4h2 -2zm150.4 253.9l-1.9 -2 1.9 2 -1.9 -2v2h1.9z"/></svg>