<svg height="1000" width="1250" xmlns="http://www.w3.org/2000/svg"><path d="M203.1 449.2h50.8 -50.8 50.8v-50.8h-50.8v50.8zm103.5 -50.8v-50.7 50.7 -52.7q-1.9 -43 -39 -66.4 -39.1 -19.5 -78.1 2 -35.2 23.4 -37.2 66.4h50.8q3.9 -23.5 25.4 -25.4 23.5 1.9 25.4 25.4v50.7h52.7zm101.6 50.8q0 72.3 -52.7 125Q304.7 625 230.5 627h-2q-72.2 -2 -125 -52.8Q52.7 521.5 50.8 449.2H0Q2 543 66.4 611.3q68.4 66.4 162.1 66.4h2q95.7 0 162.1 -66.4Q459 543 459 449.2v-50.8h-50.8v50.8zm-306.6 0q1.9 72.3 64.4 109.4 62.5 35.2 127 0 60.5 -37.1 64.4 -109.4h-52.7q0 31.3 -21.5 52.8t-54.7 21.4q-31.2 0 -52.7 -21.4t-23.5 -52.8v-50.8h-50.7v-52.7q3.9 -72.3 64.4 -109.4 64.5 -33.2 128.9 2 60.6 39 62.5 109.4v50.7h50.8v-50.7q0 -46.9 -23.4 -87.9t-66.4 -66.4q-41.1 -23.5 -89.9 -23.5 -46.9 0 -87.9 23.5 -42.9 25.4 -66.4 66.4t-23.4 87.9v50.7h50.8v50.8zM918 310.5q41 0 58.6 35.2l1.9 2 44.9 -21.5v-2Q996.1 263.7 918 261.7q-72.3 3.9 -99.6 56.7V367.2q15.6 31.2 56.6 46.9 19.5 5.8 39.1 7.8 15.6 1.9 31.2 5.8 17.6 5.9 23.5 19.6v19.5q-11.8 21.5 -48.9 23.4Q875 488.3 857.4 453.1l-1.9 -3.9 -45 23.5 2 1.9q27.3 60.6 107.4 62.5 74.2 -1.9 101.6 -54.7V429.7q-15.6 -33.2 -56.7 -46.9 -21.4 -5.8 -39 -7.8 -15.6 -2 -29.3 -5.9Q877 363.3 871.1 349.6V334q11.7 -23.5 46.9 -23.5zM562.5 531.3h50.8 -50.8 50.8V398.4h-50.8v132.9zM1250 427.7q-9.8 -17.5 -31.2 -33.2 17.5 -11.7 25.3 -29.3l2 -48.8 -2 -1.9q-25.3 -48.9 -93.7 -52.8 -66.4 3.9 -93.8 52.8V365.2q9.8 17.6 25.4 29.3 -21.5 15.7 -29.3 33.2l-1.9 56.7 1.9 1.9q27.4 48.9 97.7 50.8 72.3 -1.9 99.6 -50.8v-58.6zm-142.6 -99.6q11.7 -19.5 43 -19.5t44.9 19.5v27.4q-13.7 19.5 -44.9 19.5t-43 -19.5v-27.4zm91.8 140.7q-13.7 21.4 -48.8 21.4t-46.9 -21.4v-31.3q11.7 -19.5 46.9 -19.5t48.8 19.5v31.3zM734.4 443.4L619.1 267.6l115.3 175.8L619.1 267.6h-56.6v80.1h50.8l123 183.6h48.9V267.6h-50.8v175.8z"/></svg>