<svg height="1000" width="781.3" xmlns="http://www.w3.org/2000/svg"><path d="M171.9 -60.5q5.8 -2 66.4 3.9 62.5 5.8 119.1 48.8 58.6 43 50.8 152.3 0 -3.9 15.6 -37.1 17.6 -31.2 60.6 -52.7t125 9.8q0 1.9 -13.7 35.1 -15.6 33.2 -52.7 60.6t-105.5 13.6q0 -1.9 11.7 -27.3 11.7 -27.4 39.1 -52.7 29.3 -27.4 78.1 -31.3 -1.9 -3.9 -48.8 5.9 -46.9 7.8 -111.3 89.8 0 -3.9 -15.7 -48.8T334 19.5Q294.9 -27.3 222.7 -37.1q3.9 0 39 17.6Q296.9 -3.9 334 43q35.1 44.9 41 130.8 -3.9 2 -52.7 -5.8 -50.8 -7.8 -99.6 -56.7Q173.8 60.5 171.9 -60.5zm609.4 617.1q1.9 144.6 -62.5 257.9 -62.5 44.9 -148.5 70.3 -85.9 23.4 -179.7 23.4T210.9 884.8Q125 859.4 62.5 814.5 -2 701.2 0 556.6 0 484.4 23.4 419.9 44.9 353.5 78.1 298.8q125 -91.8 312.5 -95.7 187.5 2 312.5 95.7 33.2 54.7 54.7 121.1 23.5 64.5 23.5 136.7zM234.4 759.8q0 -23.5 -15.6 -39.1 -15.7 -15.6 -39.1 -15.6t-39.1 15.6T125 759.8t15.6 39 39.1 15.7 39.1 -15.7 15.6 -39zm0 -128.9q0 -23.5 -15.6 -39.1 -15.7 -15.6 -39.1 -15.6t-39.1 15.6T125 630.9t15.6 39 39.1 15.6 39.1 -15.6 15.6 -39zm0 -128.9q0 -23.5 -15.6 -39.1 -15.7 -15.6 -39.1 -15.6t-39.1 15.6T125 502t15.6 37.1q15.7 15.6 39.1 17.5 23.4 -1.9 39.1 -17.5 15.6 -13.7 15.6 -37.1zM375 759.8q0 -23.5 -15.6 -39.1 -15.6 -15.6 -39.1 -15.6t-39 15.6 -15.7 39.1 15.7 39 39 15.7 39.1 -15.7 15.6 -39zm0 -128.9q0 -23.5 -15.6 -39.1 -15.6 -15.6 -39.1 -15.6t-39 15.6 -15.7 39.1 15.7 39 39 15.6 39.1 -15.6 15.6 -39zM375 502q0 -23.5 -15.6 -39.1 -15.6 -15.6 -39.1 -15.6t-39 15.6T265.6 502t15.7 37.1q15.6 15.6 39 17.5 23.5 -1.9 39.1 -17.5Q375 525.4 375 502zm140.6 257.8q0 -23.5 -15.6 -39.1 -15.6 -15.6 -39.1 -15.6t-39 15.6 -15.6 39.1 15.6 39 39 15.7T500 798.8t15.6 -39zm0 -128.9q0 -23.5 -15.6 -39.1 -15.6 -15.6 -39.1 -15.6t-39 15.6 -15.6 39.1 15.6 39 39 15.6T500 669.9t15.6 -39zm0 -128.9q0 -23.5 -15.6 -39.1 -15.6 -15.6 -39.1 -15.6t-39 15.6T406.3 502t15.6 37.1q15.6 15.6 39 17.5 23.5 -1.9 39.1 -17.5 15.6 -13.7 15.6 -37.1zm140.7 257.8q0 -23.5 -15.7 -39.1 -15.6 -15.6 -39 -15.6t-39.1 15.6 -15.6 39.1 15.6 39 39.1 15.7 39 -15.7 15.7 -39zm0 -128.9q0 -23.5 -15.7 -39.1 -15.6 -15.6 -39 -15.6t-39.1 15.6 -15.6 39.1 15.6 39 39.1 15.6 39 -15.6 15.7 -39zm0 -128.9q0 -23.5 -15.7 -39.1 -15.6 -15.6 -39 -15.6t-39.1 15.6T546.9 502t15.6 37.1q15.6 15.6 39.1 17.5 23.4 -1.9 39 -17.5 15.7 -13.7 15.7 -37.1zm46.8 -78.2q-1.9 -5.8 -1.9 -11.7 -9.8 -50.8 -29.3 -97.6Q552.7 253.9 390.6 252q-162.1 1.9 -281.2 62.5Q89.8 359.4 82 408.2l-3.9 15.6Q207 398.4 390.6 394.5q183.6 3.9 312.5 29.3z"/></svg>