<svg height="1000" width="1000" xmlns="http://www.w3.org/2000/svg"><path d="M890.6 605.5Q826.2 548.8 826.2 488.3q0 -60.6 33.2 -132.8 33.2 -86 11.7 -171.9T791 33.2Q730.5 -33.2 644.5 -60.5 503.9 -99.6 377 -43 250 15.6 195.3 152.3q-25.4 70.4 -21.5 144.6 5.9 60.5 31.3 113.3l15.6 42.9q21.5 74.2 -25.4 132.8 -44.9 60.6 -105.5 97.7 -66.4 43 -62.5 60.5t46.9 19.6q66.4 3.9 127 -29.3l7.8 -3.9q21.5 -9.8 46.9 -23.5 25.4 -15.6 33.2 -27.3l-7.8 15.6q-19.6 41 -37.2 91.8 -15.6 50.8 3.9 91.8 19.6 33.2 50.8 13.7 31.3 -17.6 58.6 -52.8 29.3 -33.2 39.1 -50.7 3.9 -5.9 9.8 -15.7 21.4 -37.1 54.6 -76.1 33.2 -37.1 60.6 0 21.5 41 27.3 91.8 3.9 64.4 43 113.2 31.2 31.3 54.7 17.6Q668 908.2 679.7 875q11.7 -31.2 11.7 -58.6v-15.6q-1.9 -27.4 0 -62.5T707 685.5q11.8 -15.6 43 13.7 13.7 13.7 31.3 33.2 29.2 37.1 64.4 68.4 37.1 31.2 78.1 29.3 39.1 -9.8 15.7 -52.8 -25.4 -44.9 -54.7 -80 -13.7 -15.7 -17.6 -21.5 7.8 5.8 33.2 19.5 23.4 13.7 46.9 17.6t25.4 -19.5q0 -19.6 -19.6 -39.1 -19.5 -17.6 -41 -33.2 -13.7 -7.8 -21.5 -15.6z"/></svg>