<svg height="1000" width="625" xmlns="http://www.w3.org/2000/svg"><path d="M537.1 576.2q-41 25.4 -89.8 37.1 -48.9 11.7 -86 15.6l41 41 148.5 148.5q25.4 29.3 13.7 58.6 -11.8 31.2 -43 42.9 -29.3 11.7 -58.6 -11.7L312.5 757.8 164.1 906.3q-29.3 25.3 -60.6 13.6Q74.2 908.2 62.5 877 48.8 847.7 76.2 818.4q17.6 -17.6 37.1 -39.1L224.6 668l41 -39.1q-39 -3.9 -87.9 -15.6T87.9 576.2Q39.1 546.9 21.5 521.5 2 496.1 21.5 460.9q9.8 -23.4 39 -31.2 27.4 -9.8 66.5 19.5 1.9 3.9 50.7 29.3 48.9 23.5 134.8 27.4 85.9 -3.9 136.7 -27.4Q498 453.1 498 449.2q39.1 -29.3 68.4 -19.5 27.4 7.8 39.1 31.2 17.5 35.2 -2 60.6 -17.6 25.4 -66.4 54.7zM58.6 177.7Q62.5 70.3 132.8 -2q72.3 -72.2 179.7 -74.2 107.4 2 179.7 74.2 70.3 72.3 74.2 179.7 -3.9 107.5 -74.2 177.8 -72.3 72.2 -179.7 74.2 -107.4 -2 -179.7 -74.2Q62.5 285.2 58.6 177.7zm128.9 0q2 52.8 37.1 87.9 35.2 35.2 87.9 35.2t87.9 -35.2 37.1 -87.9q-2 -54.7 -37.1 -89.8T312.5 52.7t-87.9 35.2 -37.1 89.8z"/></svg>