<svg height="1000" width="1000" xmlns="http://www.w3.org/2000/svg"><path d="M794.9 828.1Q668 921.9 500 923.8 334 921.9 209 830.1 84 740.2 29.3 591.8q7.8 5.9 15.6 9.8Q95.7 617.2 168 544.9q19.5 -19.5 44.9 -33.2Q265.6 476.6 326.2 457q1.9 2 27.3 45 25.4 41 56.7 101.5 23.4 58.6 -7.9 82 -31.2 25.4 -44.9 23.5h-3.9q-11.7 -2 -43 1.9t-54.6 25.4 -11.8 72.3q17.6 54.7 66.4 66.4T416 871.1q58.6 -15.6 101.6 -44.9 39 -29.3 52.7 -84Q582 687.5 582 642.6q-1.9 -44.9 -1.9 -46.9 58.6 -5.9 84 37.1 23.4 41 29.3 78.1 1.9 13.7 1.9 31.3 0 33.2 11.7 60.5 9.8 27.4 56.7 29.3 15.6 0 31.2 -3.9zM607.4 781.3q-5.8 -2 -5.8 -9.8 3.9 -5.9 9.7 -5.9 7.8 3.9 5.9 9.8 -2 7.8 -9.8 5.9zM203.1 595.7q5.9 -1.9 7.8 5.9 0 5.8 -5.8 7.8 -3.9 0 -7.8 -5.9 0 -5.8 5.8 -7.8zm679.7 150.4Q996.1 611.3 1000 423.8q0 -99.6 -35.2 -185.5Q929.7 150.4 865.2 82q0 72.3 -33.2 136.8 -19.5 31.2 -60.5 76.1 -43 44.9 -74.2 76.2 -2 1.9 -3.9 1.9v2q-15.7 25.4 5.8 43 33.2 23.4 70.3 62.5t45 80q7.8 52.8 31.2 99.7 23.4 48.8 35.2 68.3 1.9 3.9 3.9 3.9 0 7.8 -2 13.7zm-119.1 -332q-2 9.7 7.8 11.7t11.7 -7.8 -7.8 -11.7 -11.7 7.8zM882.8 294.9l-21.5 11.7 21.5 -11.7 -21.5 11.7 -5.8 23.5 -11.7 -21.5 -25.4 -5.9 23.4 -9.7 5.9 -25.4 9.7 21.5 25.4 5.8zM773.4 3.9Q750 17.6 738.3 48.8 724.6 82 716.8 123v2q-2 2 -2 3.9v3.9q-15.6 52.7 -41 64.5 -23.4 11.7 -41 7.8H627q-11.8 1.9 -17.6 -33.2 -5.9 -33.2 -35.2 -125Q537.1 -44.9 466.8 -43q-72.3 2 -142.6 46.9Q248 56.6 253.9 138.7q5.9 84 31.3 158.2l3.9 11.7q-13.7 11.7 -48.9 23.4h-1.9q-37.1 11.8 -78.1 33.2 -52.8 27.4 -95.7 64.5 -45 35.1 -60.6 58.6Q0 455.1 0 423.8 2 283.2 68.4 171.9 134.8 58.6 248 -7.8q111.4 -66.4 252 -68.4 152.3 2 273.4 80.1zm-658.2 291q-5.8 -7.8 -11.7 -3.9 -7.8 5.9 -3.9 13.7 5.9 5.8 11.7 1.9 7.8 -5.8 3.9 -11.7zM638.7 50.8q7.8 -3.9 13.6 1.9 4 9.8 -3.9 13.7 -5.8 3.9 -11.7 -3.9 -3.9 -5.9 2 -11.7zm-453.2 78.1q0 5.9 4 5.9 5.8 1.9 5.8 -3.9 2 -5.9 -3.9 -5.9t-5.9 3.9zm166.1 0q0 -62.5 33.2 -85.9 33.2 -21.5 39 -19.6 62.5 -21.4 89.9 2 25.4 23.4 39 70.3 17.6 44.9 0 68.4 -15.6 25.4 -74.2 46.8Q418 234.4 386.7 209q-31.2 -23.5 -35.1 -82v1.9zm173.8 27.4h1.9 -1.9 1.9q9.8 0 9.8 -9.8Q543 127 533.2 107.4q-3.9 -7.8 -11.7 -5.8 -9.8 3.9 -5.9 13.6 5.9 13.7 2 29.3 0 9.8 9.7 11.8h-1.9zM507.8 76.2q-7.8 0 -9.8 -5.9 -1.9 -3.9 -3.9 -5.8t-1.9 -4q-5.9 -7.8 0 -15.6 5.8 -5.8 13.7 0 3.9 7.8 7.8 13.7 1.9 0 1.9 1.9 3.9 7.9 -5.8 13.7h-2v2z"/></svg>