<svg height="1000" width="968.8" xmlns="http://www.w3.org/2000/svg"><path d="M460.9 -56.6h43q11.7 0 21.5 1.9 11.7 0 21.5 2h7.8q3.9 1.9 9.8 1.9 3.9 2 5.8 2 23.5 3.9 46.9 9.7 35.1 11.8 70.3 27.4Q765.6 23.4 826.2 84t95.7 136.7q1.9 2 3.9 5.9l3.9 7.8q7.8 19.5 13.7 39 11.7 37.1 19.5 74.3 0 9.7 1.9 17.5 2 11.8 2 23.5 2 23.4 2 48.8 0 13.7 -2 29.3 0 9.8 -2 19.5v5.9q0 5.8 -1.9 9.8v5.8q-2 13.7 -5.9 25.4 -11.7 52.7 -35.1 103.5Q875 734.4 791 802.7q-50.8 43 -111.3 68.4 -19.5 7.8 -37.1 15.6h-3.9q-9.8 3.9 -17.6 5.9 -19.5 5.8 -39.1 9.7l-27.3 4q-2 1.9 -5.9 1.9 -11.7 2 -25.4 2 -19.5 1.9 -39 1.9t-39.1 -1.9q-9.8 0 -19.5 -2h-5.9q-5.8 0 -9.7 -1.9h-5.9l-19.5 -4q-11.8 -1.9 -23.5 -5.8 -25.4 -5.9 -50.8 -15.6Q281.3 869.1 252 853.5q0 -1.9 -2 -1.9 -5.9 -2 -11.7 -5.9 -31.3 -19.5 -62.5 -43Q74.2 716.8 27.3 589.8 17.6 564.5 11.7 537.1 7.8 519.5 5.9 502q-2 -5.9 -2 -9.8v-5.9Q2 480.5 2 472.7v-7.9Q0 435.5 0 408.2q0 -9.8 2 -19.5v-7.8Q2 375 3.9 369.1v-5.8q0 -5.9 2 -9.8 0 -3.9 1.9 -7.8 0 -7.8 2 -15.6 9.7 -48.8 29.3 -93.8 1.9 -5.8 5.8 -11.7 0 -1.9 2 -5.8Q70.3 169.9 105.5 127 164.1 52.7 248 3.9q21.5 -11.7 45 -21.5 46.8 -19.5 95.7 -29.3l15.6 -3.9h5.9q3.9 -1.9 9.7 -1.9h5.9q5.8 -2 13.7 -2h5.8q5.9 -1.9 11.7 -1.9h3.9zm15.7 48.8q-25.4 0 -52.8 3.9l-42.9 7.8q-41.1 9.8 -78.2 29.3 -31.2 13.7 -60.5 33.2l-2 2Q228.5 76.2 218.8 84q-13.7 11.7 -29.3 23.4 -4 5.9 -7.9 9.8 -3.9 1.9 -5.8 3.9Q91.8 209 64.5 326.2q-5.9 25.4 -9.8 50.8 -2 25.3 -2 52.7 0 19.5 2 41t5.8 41q2 3.9 2 7.8 2 9.8 5.9 19.6Q85.9 607.4 127 668q25.3 37.1 58.5 70.3 46.9 44.9 107.5 76.2 21.5 9.7 42.9 17.5 2 2 3.9 2l27.4 7.8q31.2 9.8 66.4 15.6h17.6q39 3.9 80.1 0 3.9 0 9.7 -1.9 7.8 0 17.6 -2h3.9l15.6 -3.9h5.9q9.8 -3.9 19.5 -5.8 78.1 -21.5 142.6 -70.4 46.9 -35.1 82 -80 9.8 -11.8 15.7 -21.5l3.9 -3.9q9.7 -15.7 17.5 -31.3Q873 625 878.9 611.3q17.6 -35.1 27.4 -72.2 7.8 -31.3 11.7 -60.6 3.9 -39 1.9 -80.1 0 -5.8 -1.9 -13.6V377q-5.9 -56.7 -27.4 -109.4 -17.6 -44.9 -42.9 -84Q808.6 127 757.8 85.9q-76.2 -58.6 -168 -82Q566.4 -2 543 -5.9h-13.7q-3.9 -1.9 -7.8 -1.9 -21.5 -2 -44.9 0zM271.5 87.9q39 -27.4 85.9 -41l-7.8 3.9 -11.7 7.8q-33.2 19.5 -58.6 46.9 -21.5 21.5 -33.2 48.8 -9.8 19.5 -13.7 43 -3.9 13.6 -1.9 27.3 0 41 21.5 76.2 17.5 31.2 42.9 54.7 7.8 3.9 13.7 9.7 7.8 5.9 15.6 13.7 7.8 5.9 13.7 13.7 7.8 9.7 11.7 21.5 2 7.8 0 15.6V476.6q2 5.8 2 9.7 -2 2 0 5.9V552.7h-5.9q-33.2 -1.9 -62.5 -13.6Q265.6 531.3 250 519.5q-17.6 -11.7 -31.2 -27.3 -19.6 -21.5 -31.3 -46.9 -2 -1.9 -2 -3.9 -3.9 -3.9 -5.8 -7.8 0 -3.9 -2 -7.8l-3.9 -7.8q-11.7 -29.3 -15.6 -60.6 0 -1.9 -1.9 -3.9 0 -9.7 -2 -21.5 -2 -46.8 9.8 -91.8 5.8 -23.4 15.6 -46.8 19.5 -41.1 52.7 -74.3Q250 101.6 271.5 87.9zm343.7 -41q5.9 1.9 11.8 5.8h3.9q17.5 5.9 35.1 15.7 39.1 19.5 70.3 48.8t48.9 66.4q1.9 3.9 3.9 5.9l3.9 11.7q19.5 42.9 21.5 91.8 1.9 13.6 1.9 27.3 0 33.2 -7.8 66.4 -5.9 21.5 -15.6 43 -9.8 19.5 -21.5 37.1Q750 498 720.7 519.5q-31.2 23.5 -68.4 29.3 -11.7 2 -21.4 3.9h-2q-3.9 0 -9.8 -1.9v-21.5q2 -5.9 2 -11.7V414.1q1.9 -5.9 7.8 -13.7 13.7 -19.5 33.2 -35.2 15.6 -11.7 29.3 -27.3 23.4 -23.4 37.1 -54.7 7.8 -17.6 11.7 -35.2 2 -13.6 2 -27.3 -2 -23.4 -7.8 -44.9 -5.9 -15.6 -13.7 -31.3Q709 123 693.4 105.5 664.1 74.2 625 52.7q-2 0 -3.9 -1.9 -3.9 -2 -5.9 -3.9zM418 162.1q1.9 -3.9 5.8 -7.8 -1.9 3.9 -3.9 5.9 -9.7 11.7 -13.6 25.3 -4 9.8 -4 19.6 0 7.8 2 15.6 2 21.5 15.6 41 5.9 7.8 13.7 13.7 3.9 3.9 7.8 5.9h3.9q0 1.9 2 1.9 7.8 3.9 15.6 9.8t7.8 17.5V750t2 7.8h1.9q2 3.9 5.9 7.8 1.9 3.9 5.8 3.9 3.9 -1.9 5.9 -5.8 3.9 -3.9 5.8 -9.8v-91.8q2 -5.8 2 -11.7V500v9.8q2 9.7 2 21.5v7.8q1.9 5.8 1.9 11.7v7.8q2 5.9 2 9.8 0 5.8 1.9 11.7 0 5.8 2 13.7v3.9q3.9 23.4 9.7 48.8 2 13.7 7.8 27.3 5.9 23.5 19.6 45 5.8 5.8 11.7 13.6h1.9q2 2 4 0 0 -1.9 1.9 -3.9v-1.9q11.7 -23.5 25.4 -45l3.9 -7.8 11.7 -7.8q7.8 -3.9 17.6 -3.9 17.6 0 35.2 2 1.9 1.9 3.9 1.9 9.7 2 21.4 2H707q25.4 -2 48.9 -11.7 15.6 -7.9 29.3 -15.7 35.1 -21.5 58.6 -52.7l3.9 -3.9t3.9 -5.9l-7.8 19.6q-4 5.8 -5.9 11.7l-3.9 3.9q-13.7 29.3 -33.2 54.7 -11.7 15.6 -27.4 27.3 -19.5 19.5 -42.9 29.3 -25.4 9.8 -50.8 7.8 -11.7 -1.9 -21.5 -5.8 -5.9 -3.9 -11.7 -5.9 -2 -1.9 -3.9 -1.9Q632.8 712.9 625 707l15.6 15.7q13.7 11.7 27.4 21.4 11.7 5.9 25.4 9.8 3.9 2 7.8 2 -3.9 1.9 -5.9 5.8h-1.9Q666 781.3 634.8 793q-62.5 25.4 -128.9 31.2H474.6q-13.7 0 -25.4 -1.9 -33.2 -2 -64.4 -9.8T326.2 791q-27.4 -9.7 -48.9 -25.4 -1.9 -1.9 -3.9 -1.9l-7.8 -7.8q19.6 -2 37.1 -11.8 17.6 -7.8 31.3 -21.4 5.8 -5.9 11.7 -13.7 -9.8 5.8 -21.5 11.7t-25.4 9.8q-17.5 3.9 -35.1 1.9 -23.5 -3.9 -44.9 -17.6l-23.5 -19.5Q168 664.1 146.5 628.9 134.8 609.4 125 591.8q-2 -3.9 -3.9 -5.9 -2 -3.9 -3.9 -5.8 3.9 1.9 5.8 5.8 5.9 5.9 11.8 9.8 25.4 27.3 56.6 48.8 21.5 15.7 48.8 21.5 5.9 0 11.8 2h52.7q7.8 0 17.6 -2h1.9q7.8 -1.9 13.7 -1.9 11.7 -3.9 21.5 0 15.6 5.8 23.4 19.5 5.9 7.8 11.7 17.6 0 3.9 2 5.8 1.9 5.9 3.9 9.8 3.9 5.9 5.9 11.7 1.9 3.9 5.8 5.9 3.9 -2 3.9 -5.9 5.9 -9.7 9.8 -21.5v-3.9q5.8 -19.5 9.7 -39 5.9 -23.5 7.9 -45 1.9 -5.8 1.9 -9.7 0 -7.8 2 -13.7v-9.8q1.9 -5.8 1.9 -11.7l3.9 -50.8v-80q-1.9 -19.6 -1.9 -39.1 -2 -17.6 -7.8 -35.2 -5.9 -21.4 -17.6 -41Q416 312.5 402.3 300.8 392.6 287.1 377 283.2h-7.9l-1.9 -1.9q0 -7.9 1.9 -13.7v-2q5.9 -23.4 13.7 -44.9 3.9 -11.7 9.8 -23.4 11.7 -19.6 25.4 -35.2zm60.5 3.9l2 -1.9v95.7h-2q-1.9 -5.9 -1.9 -13.7l-3.9 -7.8v-3.9t-2 -5.9H421.9v-1.9q1.9 -2 5.8 -2 2 0 2 -1.9 5.8 0 9.8 -2l11.7 -3.9h1.9q2 -2 5.9 -2v-3.9q-3.9 -1.9 -5.9 -1.9h-1.9l-7.8 -3.9q-5.9 -2 -11.8 -2 -1.9 -1.9 -3.9 -1.9 -1.9 -2 -5.8 -2v-1.9H451.2q5.8 -2 9.7 0 5.9 0 9.8 -2 2 0 2 -1.9 0 -5.9 1.9 -13.7t3.9 -13.7zm11.7 -1.9q2 0 2 1.9l3.9 11.7q0 3.9 1.9 9.8v3.9t2 3.9q3.9 2 7.8 0h7.8q13.7 2 29.3 2h3.9v1.9q-3.9 0 -7.8 2 -1.9 0 -3.9 1.9l-15.6 3.9q-2 2 -5.9 2l-1.9 1.9q-2 2 -2 3.9 3.9 0 5.9 2 5.8 0 11.7 2 7.8 3.9 17.6 5.8l1.9 2v1.9H500q-2 3.9 -2 5.9v3.9q-1.9 5.8 -1.9 9.7l-3.9 11.8h-2v-95.7zM127 252q1.9 -2 1.9 -4l3.9 -7.8q-3.9 21.5 -5.8 45 -2 21.4 -2 44.9 3.9 58.6 27.3 113.3 9.8 17.5 21.5 33.2 17.6 21.4 39.1 41 13.7 11.7 29.3 21.5 1.9 0 3.9 1.9l15.6 7.8q15.6 5.9 31.3 9.8 3.9 0 7.8 1.9 7.8 0 13.7 2 15.6 5.9 25.3 17.6 13.7 15.6 19.6 35.1 3.9 9.8 5.8 17.6v5.9q-19.5 7.8 -39 11.7 -13.7 1.9 -25.4 1.9 -29.3 0 -58.6 -9.7 -11.7 -3.9 -21.5 -9.8 -23.4 -11.7 -44.9 -27.3l-15.6 -15.7q-27.4 -29.3 -43 -66.4 -5.9 -15.6 -11.7 -33.2v-1.9q-3.9 -9.8 -5.9 -21.5 -1.9 -5.9 -3.9 -9.8v-7.8q-1.9 -3.9 -1.9 -7.8v-3.9q-4 -17.6 -4 -33.2 0 -17.6 2 -35.2 2 -3.9 2 -7.8t1.9 -9.7q2 -15.7 5.9 -33.2Q111.3 285.2 127 252zm710.9 -11.8l3.9 7.8q0 2 2 2v2q5.8 11.7 11.7 25.3Q877 332 880.9 392.6v9.7q0 27.4 -5.9 54.7 -3.9 11.8 -5.9 21.5 -11.7 43 -35.1 82 -25.4 37.2 -62.5 60.6 -17.6 11.7 -35.2 19.5 -17.5 5.9 -35.1 9.8 -19.6 1.9 -39.1 1.9 -23.4 -1.9 -44.9 -9.7 -2 0 -3.9 -2 -3.9 -1.9 -7.8 -1.9 0 -3.9 1.9 -7.8v-2q3.9 -15.6 11.7 -31.2Q625 584 636.7 574.2q7.8 -5.8 15.6 -9.7t15.7 -4q3.9 -1.9 7.8 -1.9 19.5 -3.9 41 -13.7 29.3 -13.6 52.7 -37.1l3.9 -3.9 5.9 -5.9 19.5 -23.4q21.5 -29.3 33.2 -64.4v-2q3.9 -15.6 7.8 -29.3 2 -7.8 2 -13.7v-3.9q3.9 -17.5 3.9 -35.1 0 -19.6 -1.9 -39.1 -2 -23.4 -5.9 -46.9z"/></svg>