<svg height="1000" width="1250" xmlns="http://www.w3.org/2000/svg"><path d="M919.9 125v39.1q-17.6 -5.9 -93.7 -25.4Q748 119.1 654.3 113.3q-76.2 -7.8 -181.6 9.7Q365.2 138.7 218.8 224.6q-2 0 -2 2 -33.2 17.5 -93.8 70.3Q64.5 347.7 25.4 439.5 15.6 459 9.8 498q-5.9 37.2 3.9 80.1 9.7 37.1 33.2 70.3 54.7 76.2 152.3 86Q334 742.2 375 630.9q11.7 -39.1 -2 -86t-60.5 -76.1q-39.1 -21.5 -74.2 -21.5 -37.1 1.9 -60.6 17.5 -41 29.3 -42.9 78.2 1.9 41 29.3 60.5 25.4 21.5 52.7 21.5 15.6 0 31.2 -3.9 21.5 -5.9 25.4 -29.3 -1.9 -17.6 -13.6 -23.4 -9.8 -5.9 -19.6 -3.9h-5.8q-3.9 3.9 -17.6 3.9 -3.9 0 -11.7 -5.9 -9.8 -5.9 -11.7 -21.5 1.9 -17.6 17.5 -25.4 13.7 -9.7 33.2 -7.8 48.9 7.8 64.5 48.8 17.6 41.1 -9.8 80.1 -31.2 35.2 -93.7 29.3t-99.6 -70.3q-37.1 -76.2 9.7 -140.6 48.9 -64.5 160.2 -50.8 50.8 7.8 109.4 54.7 58.6 48.8 89.8 148.4h89.9q-11.8 -31.2 0 -78.1 11.7 -48.8 83.9 -54.7 66.4 2 95.7 33.2t45 70.3q5.8 15.7 13.6 29.3h95.7Q857.4 552.7 861.3 500q7.8 -37.1 33.2 -41 27.4 -5.9 68.4 1.9 27.3 2 60.5 3.9 95.7 -1.9 148.5 -25.3 50.8 -23.5 52.7 -29.3 3.9 -3.9 7.8 -15.7t3.9 -17.5q2 0 2 -2 0 -5.9 -3.9 -5.9 -2 2 -3.9 2 -13.7 7.8 -41 19.5 -27.4 9.8 -58.6 11.7 -41.1 -3.9 -93.8 -25.3 -52.7 -23.5 -64.4 -31.3 0 2 -3.9 -5.9t-17.6 -42.9q125 80.1 187.5 78.1 60.5 -3.9 95.7 -35.2v-1.9q5.8 -2 7.8 -9.8 -19.5 -68.3 -35.2 -97.6t-33.2 -39.1q-39 -21.5 -95.7 -35.1 -56.6 -15.7 -103.5 -23.5Q927.7 123 921.9 123l-2 2zm265.6 146.5q-3.9 41 -39 62.5 -37.1 17.6 -74.2 -2 -35.2 -23.4 -33.2 -64.4 1.9 -43 37.1 -62.5 39 -19.6 74.2 1.9 35.1 23.5 35.1 64.5zm-72.2 -54.7q-29.3 -2 -46.9 23.4 -15.6 25.4 -1.9 52.8 15.6 25.4 44.9 27.3 31.2 0 48.8 -23.4 15.6 -27.4 2 -52.8 -15.7 -27.3 -46.9 -27.3zm7.8 56.6q-21.5 -1.9 -21.5 -15.6t21.5 -15.6q23.4 1.9 23.4 15.6t-23.4 15.6z"/></svg>