<svg height="1000" width="1250" xmlns="http://www.w3.org/2000/svg"><path d="M826.2 785.2q0 37.1 -25.4 62.5Q775.4 873 738.3 873q-39.1 0 -64.5 -25.3t-25.4 -62.5q0 -39.1 25.4 -64.5t64.5 -25.4q37.1 0 62.5 25.4t25.4 64.5zM330.1 695.3q-37.1 0 -62.5 25.4t-25.4 64.5q0 37.1 25.4 62.5t62.5 25.3q39 0 64.4 -25.3t25.4 -62.5q0 -39.1 -25.4 -64.5t-64.4 -25.4zM900.4 168q-291 0 -460.9 -13.7Q271.5 140.6 173.8 99.6 76.2 56.6 0 -25.4 9.8 -9.8 21.5 7.8q25.4 54.7 85.9 113.3 58.6 58.6 203.1 97.7 142.6 39 418 37.1 236.3 -3.9 310.6 23.4 74.2 29.3 46.8 80.1t-95.7 117.2Q918 544.9 867.2 625q82 -74.2 154.3 -134.8Q1160.2 377 1220.7 304.7q60.6 -70.3 -5.9 -103.5Q1146.5 168 900.4 168z"/></svg>