<svg height="1000" width="968.8" xmlns="http://www.w3.org/2000/svg"><path d="M613.3 -11.7q-168 5.8 -267.6 123Q244.1 228.5 234.4 386.7q-9.8 160.2 89.8 294.9 54.7 66.4 128.9 107.5 72.3 39 160.2 39 107.4 0 193.3 -58.6Q673.8 888.7 484.4 892.6h-23.5Q332 884.8 226.6 818.4 123 753.9 62.5 646.5T0 408.2Q2 273.4 66.4 164.1T240.2 -9.8t244.2 -66.4h1.9q189.5 5.9 320.3 123.1Q720.7 -11.7 613.3 -11.7zm199.2 775.4Q750 800.8 683.6 798.8q-68.4 -1.9 -128.9 -44.9 84 -33.2 136.7 -126.9 52.7 -91.8 52.7 -218.8T691.4 189.5Q638.7 95.7 554.7 62.5q62.5 -41 128.9 -44.9 68.4 -2 130.9 35.1Q918 152.3 951.2 281.3q35.1 128.9 0 255.8Q916 666 812.5 763.7z"/></svg>