<svg height="1000" width="1125" xmlns="http://www.w3.org/2000/svg"><path d="M1119.1 746.1q17.6 -29.3 -11.7 -21.5 -9.7 -15.6 -21.5 -27.3 7.9 -31.3 -21.4 -17.6 -13.7 -9.8 -31.3 -17.6 0 -21.5 -11.7 -21.5t-21.5 9.8q-29.3 -5.9 -52.7 11.7V623q21.5 0 50.7 -17.5t39.1 -52.8q5.9 -19.5 0 -42.9Q1023.4 470.7 988.3 459 982.4 437.5 959 427.7q-21.5 0 -27.4 19.6 -31.2 0 -41 17.5 -7.8 0 -15.6 -1.9 -9.8 -2 -17.6 -2 7.8 -5.8 15.6 -9.7 17.6 -23.5 50.8 -21.5v-5.9q29.3 0 58.6 -9.7 29.3 -7.8 46.9 -25.4 17.6 -21.5 23.4 -50.8 3.9 -29.3 0 -56.6t-13.6 -52.8q-11.8 -25.4 -33.2 -41 -13.7 -9.8 -27.4 -3.9 -15.6 5.9 -17.6 21.5 0 5.8 -1.9 11.7 0 23.4 -11.7 33.2t-62.5 3.9Q855.5 183.6 802.7 136.7 697.3 52.7 568.4 44.9T324.2 64.5q11.7 1.9 21.5 3.9 50.8 9.7 95.7 27.3 -78.1 9.8 -148.4 44.9 -43 23.5 -64.5 41 -23.4 19.6 -39 35.2l-7.9 7.8q7.9 -1.9 13.7 -1.9 37.1 -7.9 72.3 -5.9 -27.4 15.6 -50.8 39.1 -33.2 1.9 -41 -7.9Q166 240.2 166 214.8q0 -3.9 -1.9 -9.7 -2 -15.6 -15.7 -21.5 -15.6 -5.9 -27.3 1.9 -43 35.2 -48.8 99.7t23.4 103.5q17.6 17.6 46.9 25.4 31.2 7.8 60.5 9.7v3.9q33.2 0 48.9 23.5 7.8 3.9 15.6 9.7 -7.8 0 -15.6 2 -9.8 0 -17.6 1.9 -13.7 -19.5 -41 -17.5Q189.5 427.7 166 427.7q-23.4 9.8 -29.3 31.3 -64.4 29.3 -48.8 93.7 9.8 35.2 39.1 52.8t50.7 17.5v39.1Q160.2 646.5 125 650.4q-9.8 -9.8 -21.5 -9.8 -11.7 -1.9 -11.7 21.5 -17.6 7.8 -31.3 17.6Q31.3 664.1 39.1 697.3 27.3 709 17.6 724.6q-29.3 -7.8 -11.7 21.5 -2 9.8 -3.9 21.5 3.9 48.8 50.7 85.9t93.8 41q54.7 0 84 -44.9 332 11.7 664 0 29.3 44.9 84 44.9 46.9 -3.9 93.8 -41t48.8 -85.9q0 -9.8 -2 -21.5zM974.6 250q3.9 -9.8 3.9 -27.3 3.9 -19.6 27.4 -2 17.5 19.5 23.4 50.8t3.9 48.8q-9.8 -44.9 -58.6 -70.3zm-9.8 13.7q29.3 9.7 43 37.1 13.7 27.3 15.6 58.6 -3.9 7.8 -9.7 15.6 -17.6 15.6 -50.8 23.4 5.9 -33.2 0 -66.4t-25.4 -56.6q15.6 -2 27.3 -11.7zM918 277.3q21.5 17.6 29.3 52.8 5.8 35.1 -2 70.3 -11.7 1.9 -21.5 1.9 -5.8 -64.4 -29.3 -125H918zm-824.2 43q-2 -17.6 3.9 -48.8 5.8 -31.3 21.4 -50.8 25.4 -19.5 27.4 2 1.9 17.5 5.8 27.3 -48.8 25.4 -58.5 70.3zm17.5 54.7q-5.8 -7.8 -9.7 -15.6 1.9 -31.3 15.6 -58.6 15.6 -27.4 43 -37.1 11.7 9.7 27.3 11.7Q168 298.8 162.1 332t0 66.4Q128.9 392.6 111.3 375zm93.8 27.3q-11.7 0 -25.4 -1.9Q168 343.8 191.4 296.9v1.9l23.4 -9.7q0 -2 2 -2 13.7 -5.8 27.3 -7.8 -31.2 58.6 -39 123zM564.5 85.9q62.5 0 105.4 43 41 41 43 103.5 -2 64.5 -43 105.5 -42.9 43 -105.4 44.9Q502 380.9 459 337.9q-41 -41 -43 -105.5 2 -62.5 43 -103.5 43 -43 105.5 -43zM791 425.8q0 27.3 -11.7 62.5 -9.8 35.1 -33.2 48.8 -19.5 13.7 -21.5 -31.2 -1.9 -27.4 -11.7 -82.1h21.5q29.3 0 56.6 2zm-105.5 -3.9q2 11.7 2 42.9 2 33.2 -5.9 39.1 -19.5 5.9 -50.7 5.9T582 502q-5.8 -7.9 -7.8 -39.1 -1.9 -29.3 0 -41h111.3zM543 527.3q-19.6 5.9 -52.8 5.9 -33.2 0 -52.7 -9.8 -9.8 -7.8 -7.8 -44.9 0 -37.1 3.9 -54.7 35.2 -1.9 70.3 -1.9h43q1.9 17.6 1.9 56.6 2 41 -5.8 48.8zM335.9 427.7q35.2 -1.9 72.3 -3.9 -3.9 25.4 -5.9 56.7t-3.9 46.8q-3.9 17.6 -19.5 7.9 -31.2 -15.7 -41 -46.9t-2 -60.6zm-70.3 60.6q23.5 -2 44.9 -3.9 2 0 2 -2 3.9 19.6 13.7 35.2 17.6 27.3 50.8 41 31.2 11.7 37.1 -27.3 11.7 21.4 46.8 23.4 37.1 1.9 60.6 -2h3.9q41 2 48.8 -27.3 41 9.8 86 5.9 1.9 -2 5.8 -2 29.3 2 41 -15.6 2 1.9 2 5.8 1.9 13.7 7.8 25.4 17.6 31.3 46.9 9.8 29.3 -19.5 44.9 -70.3 11.7 0 23.4 1.9l27.4 3.9q-2 3.9 0 9.8 0 5.9 13.6 11.7 -68.3 70.3 -144.5 125t-173.8 84q-91.8 -31.2 -166 -84Q314.5 582 250 513.7q25.4 -11.7 15.6 -25.4zm-41 337.9q-7.8 25.4 -29.3 41 -21.5 15.6 -48.8 15.6Q117.2 880.9 84 859.4 50.8 839.8 31.3 810.5q0 -46.8 46.8 -80 44.9 -33.2 82.1 -27.4 21.4 9.8 39 39.1 17.6 31.2 27.4 66.4 0 9.8 -2 17.6zM207 697.3q-1.9 -41 0 -80.1 7.8 -3.9 15.7 -11.7 21.4 -5.9 29.3 -19.6 3.9 -9.7 -5.9 -13.6 -5.9 -3.9 -3.9 -9.8h1.9l11.8 -5.9q82 87.9 191.4 150.4 -109.4 33.2 -207.1 91.8Q234.4 744.1 207 697.3zm660.2 125q-302.7 11.7 -605.5 0v1.9 -1.9q103.5 -64.5 220.7 -97.7 33.2 13.7 68.4 25.4 3.9 2 7.8 0 41 -11.7 82 -31.2 119.2 39 226.6 103.5zm19.5 -23.5Q783.2 740.2 668 705.1 779.3 644.5 871.1 556.6q5.9 3.9 13.7 5.9 1.9 2 1.9 3.9 -15.6 7.8 -11.7 19.5 7.8 13.7 29.3 17.6 7.8 9.8 15.6 13.7 0 41 -1.9 80.1h1.9Q890.6 750 886.7 798.8zm207.1 11.7q-19.6 29.3 -52.8 48.9 -33.2 21.5 -62.5 23.4 -29.3 0 -54.7 -19.5 -23.4 -17.6 -25.4 -52.8 9.8 -37.1 27.4 -66.4 17.6 -31.2 39 -39 37.2 -7.8 84 25.4 45 33.2 45 80zM728.5 70.3Q720.7 0 671.9 -27.3 623 -56.6 566.4 -43q-56.6 13.7 -84 68.4 136.7 -70.3 246.1 44.9zm-582 648.5q-27.4 3.9 -60.6 31.2 -33.2 25.4 -37.1 52.7 2 17.6 19.6 27.4 19.5 7.8 44.9 1.9 17.6 -5.8 39 -21.5t29.3 -31.2q9.8 -19.5 -1.9 -41Q168 718.8 146.5 718.8zM568.4 375q42.9 -2 70.3 -27.3 29.3 -27.4 31.2 -66.4Q666 226.6 621.1 201.2q-43 -25.4 -93.8 -7.8 31.3 11.7 33.2 42.9 -3.9 35.2 -35.1 43 -33.2 7.8 -56.6 -21.5 -7.9 50.8 21.4 84 31.3 31.2 78.2 33.2zM132.8 849.6q2 9.8 13.7 15.6 13.7 7.8 29.3 3.9 21.5 -11.7 33.2 -33.2 3.9 -9.7 -2 -23.4 -3.9 -13.7 -17.5 -11.7 -15.7 3.9 -35.2 19.5t-21.5 29.3zM978.5 718.8q-21.5 0 -33.2 19.5 -11.7 21.5 -3.9 41 9.8 15.6 31.3 31.2t41 21.5q23.4 5.9 42.9 -1.9 17.6 -9.8 19.6 -27.4 -3.9 -27.3 -37.1 -52.7 -33.2 -27.3 -60.6 -31.2zm-43 82q-13.6 -2 -17.5 11.7 -5.9 11.7 -2 23.4 9.8 21.5 35.2 33.2 13.6 3.9 27.3 -3.9 11.7 -5.8 13.7 -15.6 0 -13.7 -21.5 -29.3 -19.5 -15.6 -35.2 -19.5z"/></svg>