<svg height="1000" width="1000" xmlns="http://www.w3.org/2000/svg"><path d="M576.2 291h-89.9 89.9 -89.9v300.8h91.8q97.7 -3.9 130.9 -56.6 35.1 -50.8 31.2 -93.8 2 -62.5 -39 -105.5T576.2 291zM500 -60.5Q365.2 -58.6 255.9 5.9 146.5 70.3 82 179.7 17.6 289.1 15.6 423.8 17.6 558.6 82 668t173.9 173.8T500 908.2q134.8 -1.9 244.1 -66.4T918 668t66.4 -244.2Q982.4 289.1 918 179.7T744.1 5.9 500 -60.5zm-158.2 705h-58.6 58.6 -58.6V238.3h58.6v406.2zM312.5 193.4q-35.2 -3.9 -37.1 -39.1 1.9 -35.2 37.1 -39.1 35.2 3.9 39.1 39.1 -3.9 35.2 -39.1 39.1zm273.4 451.1H427.7h158.2H427.7V238.3h158.2q111.4 3.9 164.1 66.4 50.8 60.5 50.8 136.7 0 82 -56.7 140.6 -56.6 60.6 -158.2 62.5z"/></svg>