<svg height="1000" width="1000" xmlns="http://www.w3.org/2000/svg"><path d="M15.6 443.4q7.8 -201.2 125 -330.1Q257.8 -15.6 433.6 -41q136.7 -15.6 251.9 31.2Q798.8 39.1 877 132.8q76.1 95.7 99.6 218.8 27.3 177.7 -54.7 322.2Q839.8 820.3 679.7 886.7 654.3 898.4 644.5 873 591.8 736.3 541 601.6q-9.7 -23.5 13.7 -33.2Q627 537.1 638.7 459q7.8 -58.6 -27.4 -107.4 -39 -46.9 -97.6 -52.8 -58.6 -3.9 -101.6 29.3 -41 33.2 -50.8 87.9 -7.8 48.8 15.7 89.9 21.4 39 66.4 60.5 27.3 9.8 15.6 37.1L353.5 877q-7.8 19.5 -29.3 11.7Q246.1 859.4 177.7 800.8 111.3 742.2 68.4 656.3 35.2 591.8 27.3 539.1 17.6 488.3 15.6 457v-13.6zm41 -2v13.7q2 13.7 2 29.3 9.8 107.4 74.2 201.1 62.5 95.8 181.7 156.3 9.7 3.9 11.7 -5.9 42.9 -113.2 87.9 -228.5 3.9 -7.8 -5.9 -13.6 -91.8 -56.7 -87.9 -168 3.9 -62.5 46.9 -109.4 44.9 -48.8 105.5 -56.6 60.5 -9.8 119.1 23.4 46.9 27.3 70.3 74.2T679.7 459q-9.8 89.8 -87.9 136.7 -7.8 3.9 -5.9 11.7 45 115.3 89.9 228.5 1.9 9.8 9.7 5.9Q791 793 857.4 701.2q103.5 -142.6 84 -314.5 -15.6 -117.2 -84 -210.9Q791 84 683.6 33.2 576.2 -15.6 441.4 0 281.3 21.5 171.9 138.7 62.5 257.8 56.6 441.4z"/></svg>