<svg height="1000" width="1250" xmlns="http://www.w3.org/2000/svg"><path d="M582 -76.2q23.5 2 35.2 23.5L875 548.8v2l-5.9 19.5 -83.9 308.6q-5.9 23.4 -25.4 35.2 -19.6 13.6 -43 7.8L582 892.6l-132.8 29.3q-25.4 5.8 -44.9 -7.8 -19.5 -11.8 -25.4 -35.2l-84 -308.6 -5.8 -19.5v-2L546.9 -52.7q11.7 -21.5 35.1 -23.5zM312.5 552.7l255.9 76.2L312.5 552.7l255.9 76.2L582 869.1l15.7 -238.2 255.8 -76.2 -255.8 48.8 -17.6 -625 -9.8 625L312.5 552.7zM832 359.4l183.6 -80.1L832 359.4l183.6 -80.1h144.6L853.5 761.7 916 548.8 832 359.4zm336 -82.1l80 150.4 -80 -150.4 80 150.4q5.9 11.8 -3.9 19.6 -7.8 7.8 -19.5 3.9l-91.8 -44.9 35.2 -129zM248 546.9l62.5 216.8L248 546.9l62.5 216.8L3.9 226.6q-7.8 -17.6 2 -29.3 11.7 -9.8 29.3 -3.9l294.9 166L248 546.9z"/></svg>