<svg height="1000" width="968.8" xmlns="http://www.w3.org/2000/svg"><path d="M484.4 908.2Q349.6 906.3 240.2 841.8 130.9 777.3 66.4 668 2 558.6 0 423.8 2 289.1 66.4 179.7T240.2 5.9t244.2 -66.4q60.5 0 119.1 15.6L82 689.5h402.4v218.7zm0 -281.2V210.9 627 210.9L193.4 627h291zm187.5 62.5v181.6V689.5v181.6Q808.6 812.5 888.7 689.5H671.9zM783.2 419.9l-41 15.6 41 -15.6 -41 15.6 41 17.6v-33.2zm-39.1 105.5q-17.5 3.9 -15.6 25.4v15.6h31.3v-19.5q1.9 -19.6 -15.7 -21.5zM968.8 423.8q0 109.4 -45 203.2H671.9V-23.4q132.8 58.6 212.9 175.7 82 119.2 84 271.5zM703.1 205.1h134.8H703.1h134.8v-93.8h-27.4v64.5h-27.3v-58.6h-27.3v58.6h-25.4v-64.5h-27.4v93.8zm134.8 361.3h-52.7 52.7 -52.7v-21.5q1.9 -46.9 -41.1 -48.8 -42.9 1.9 -41 50.8v48.8h134.8v-29.3zm0 -201.2l-134.8 58.6 134.8 -58.6 -134.8 58.6v23.5l134.8 58.6v-33.2l-29.3 -11.8v-50.7l29.3 -11.8v-33.2zm-9.8 -134.7h-70.3 70.3 -70.3v52.7h27.4v-23.4h21.4q11.8 23.4 2 44.9t-39.1 23.4q-33.2 -1.9 -41 -27.3t11.7 -46.9l-23.4 -19.5q-23.4 29.3 -13.7 74.2t66.4 50.8q50.8 -3.9 66.4 -43 13.7 -39.1 -7.8 -85.9z"/></svg>