<svg height="1000" width="750" xmlns="http://www.w3.org/2000/svg"><path d="M750 535.2q-41 97.6 -101.6 128.9 -60.5 31.2 -121.1 23.4 -60.5 -7.8 -101.5 -27.3 -39.1 -17.6 -41 -19.6Q324.2 761.7 230.5 832q-91.8 68.4 -207.1 70.3Q0 900.4 0 878.9q0 -19.5 23.4 -23.4 95.7 -2 173.9 -58.6 80 -56.7 132.8 -156.3 -41 17.6 -97.7 19.6Q173.8 662.1 117.2 623 58.6 585.9 15.6 480.5q105.5 -43 175.8 -31.3 70.3 9.8 113.3 46.9 41 37.1 58.6 72.3 29.3 -70.4 43 -154.3Q400.4 416 334 416q-66.4 -1.9 -136.7 -41 -68.4 -39.1 -84 -154.3 115.2 -41 181.6 -1.9 64.5 39 91.8 93.7 25.4 52.7 25.4 58.6 2 -27.3 3.9 -64.5 2 -35.1 2 -39 -3.9 -2 -48.9 -44.9 -42.9 -43 -64.4 -115.3t39.1 -162.1Q460.9 -9.8 482.4 64.5q23.5 74.2 3.9 132.8 -17.5 60.5 -21.5 64.4v64.5q-1.9 -3.9 29.3 -43 29.3 -39.1 87.9 -66.4 58.6 -29.3 148.5 -2 -9.8 127 -76.2 170t-130.9 41q-64.4 0 -70.3 -3.9 -13.6 80.1 -39 152.3 1.9 -5.8 48.8 -41 46.9 -37.1 123 -50.8T750 535.2z"/></svg>