<svg height="1000" width="1125" xmlns="http://www.w3.org/2000/svg"><path d="M752 302.7q-4 -66.4 -64.5 -74.2 -58.6 -7.8 -121.1 15.6 -5.9 117.2 -5.9 234.4 -3.9 9.8 29.3 11.7 56.7 -1.9 107.5 -54.7T752 302.7zM371.1 443.4h1.9q7.9 -3.9 21.5 -5.9 37.1 5.9 31.3 43 -7.8 39 -60.6 42.9 -31.2 0 -50.7 -23.4Q293 478.5 293 439.5q1.9 -62.5 56.6 -130.9T490.2 193.4q0 -37.1 19.6 -54.7 17.5 -13.7 35.1 -7.8 17.6 7.8 23.5 29.3Q677.7 127 752 162.1q76.1 35.2 80 138.7 -1.9 78.1 -44.9 144.5 -43 64.5 -105.5 101.6t-123 23.4q0 117.2 5.9 195.3 3.9 13.7 -11.8 37.1 -15.6 17.6 -39 9.8 -25.4 -5.9 -31.3 -52.7 -3.9 -46.9 -3.9 -144.6t2 -193.3q3.9 -95.7 3.9 -134.8 -33.2 23.4 -72.3 66.4 -39.1 41 -41 82v7.9zM15.6 277.3q-1.9 4 9.8 37.2 11.7 31.2 64.4 37.1h58.6l45 423.8q-3.9 3.9 9.7 43 13.7 37.1 78.2 42.9h562.5q5.8 2 44.9 -11.7 37.1 -13.7 42.9 -74.2l45 -423.8h58.6q3.9 1.9 37.1 -9.8 33.2 -9.8 37.1 -64.5 1.9 -3.9 -9.8 -37.1 -11.7 -31.2 -64.4 -35.1h-60.6q-5.8 -43 -56.6 -91.8Q869.1 64.5 742.2 58.6h-54.7V21.5q0 -2 -7.8 -17.6t-33.2 -17.6h-168q-1.9 -1.9 -19.5 3.9 -19.5 5.9 -21.5 31.3v37.1h-54.7q-3.9 0 -54.7 7.8t-105.4 39.1q-56.7 31.2 -76.2 99.6H89.8q-3.9 -3.9 -37.1 7.8 -33.2 9.8 -37.1 64.4z"/></svg>