<svg height="1000" width="750" xmlns="http://www.w3.org/2000/svg"><path d="M216.8 502q-3.9 21.4 -11.7 74.2 -7.8 54.7 -17.6 109.3 -7.8 50.8 -11.7 78.2 0 3.9 -5.9 3.9H23.4Q0 765.6 0 742.2L115.2 15.6q7.8 -31.2 39.1 -33.2 84 0 142.6 -1.9 119.1 0 166 3.9 48.8 1.9 89.8 19.5 86 35.2 101.6 109.4 17.6 74.2 -15.6 164 -33.2 91.8 -103.5 134.8 -70.4 41 -170 43h-44.9q-43 -3.9 -70.3 3.9 -25.4 7.8 -33.2 43zM697.3 220.7q-3.9 -5.9 -5.9 2 -5.9 33.2 -17.6 66.4Q636.7 390.6 570.3 433.6q-68.3 43 -140.6 52.7 -74.2 7.8 -130.9 5.9h-23.4q-19.5 0 -21.5 17.6 -33.2 201.1 -43 269.5 -11.7 66.4 -9.7 62.5 -2 23.4 19.5 25.4h125q27.3 -2 33.2 -29.3v-2l3.9 -27.3q5.9 -25.4 25.4 -148.4 5.9 -29.3 17.6 -35.2 13.7 -5.9 31.2 -3.9h7.8q105.5 1.9 179.7 -48.8t99.6 -170q9.8 -52.7 2 -101.5t-48.8 -80.1z"/></svg>