<svg height="1000" width="875" xmlns="http://www.w3.org/2000/svg"><path d="M595.7 480.5H482.4h113.3H482.4v191.4h113.3q48.8 0 76.2 -25.4 25.4 -27.4 25.4 -72.3 0 -41 -27.4 -68.3 -27.3 -25.4 -74.2 -25.4zM291 175.8H177.7 291 177.7v191.4H291q48.8 0 76.2 -25.4 25.4 -27.3 25.4 -70.3t-27.4 -70.3Q337.9 175.8 291 175.8zM716.8 -13.7H158.2h558.6H158.2q-64.4 2 -111.3 46.9Q2 80.1 0 144.5v558.6q2 64.5 46.9 111.4 46.9 44.9 111.3 46.8h558.6q64.5 -1.9 111.3 -46.8Q873 767.6 875 703.1V144.5Q873 80.1 828.1 33.2 781.3 -11.7 716.8 -13.7zm123 716.8q0 50.8 -35.1 87.9 -37.1 35.2 -87.9 35.2H158.2q-50.8 0 -87.9 -35.2Q35.2 753.9 35.2 703.1V144.5q0 -50.7 35.1 -87.9 37.1 -35.1 87.9 -35.1h558.6q50.8 0 87.9 35.1 35.1 37.2 35.1 87.9v558.6zM595.7 175.8H482.4h113.3H482.4v191.4h113.3q48.8 0 76.2 -25.4 25.4 -27.3 25.4 -70.3t-27.4 -70.3q-27.3 -25.4 -74.2 -25.4z"/></svg>