<svg height="1000" width="875" xmlns="http://www.w3.org/2000/svg"><path d="M722.7 48.8q-117.2 -123 -279.3 -125Q269.5 -72.3 156.3 46.9 41 164.1 37.1 341.8q0 76.2 29.3 148.4 29.3 74.3 68.4 134.8 37.1 60.5 62.5 93.8 56.6 74.2 125 138.6 68.3 62.5 121.1 66.4 41 -3.9 93.7 -48.8 50.8 -44.9 91.8 -93.7t50.8 -62.5q25.4 -33.3 62.5 -93.8t66.4 -134.8 31.2 -148.4Q837.9 171.9 722.7 48.8zM443.4 888.7q-46.9 -3.9 -134.8 -93.8Q222.7 707 148.4 582 76.2 457 72.3 343.8 76.2 181.6 179.7 72.3T443.4 -41q150.4 3.9 253.9 113.3 101.5 109.3 105.4 271.5Q798.8 457 726.6 582T568.4 794.9q-84 89.9 -125 93.8zM660.2 328.1q-2 87.9 -64.5 150.4Q533.2 539.1 443.4 543q-99.6 -3.9 -158.2 -60.6Q224.6 423.8 214.8 343.8 207 261.7 261.7 187.5q2 37.1 25.4 60.5 25.4 25.4 62.5 27.4 37.1 -2 62.5 -27.4 23.4 -23.4 25.4 -60.5 -3.9 -56.6 -52.7 -80.1Q500 84 578.1 150.4t82.1 177.7z"/></svg>