<svg height="1000" width="968.8" xmlns="http://www.w3.org/2000/svg"><path d="M630.9 435.5v-25.3 25.3 -25.3q1.9 -2 21.4 -19.6 17.6 -17.6 19.6 -21.5l-17.6 -39q-5.9 -2 -29.3 -2h-29.3l-17.6 -17.6v-27.3q-1.9 -25.4 -3.9 -29.3l-39 -17.6q-3.9 2 -21.5 19.6 -15.7 17.5 -17.6 21.4h-27.3q-2 -3.9 -19.6 -21.4t-21.5 -19.6l-39 15.7q-2 3.9 -2 29.3 2 23.4 2 27.3l-17.6 17.6h-29.3t-29.3 1.9l-15.6 37.1q1.9 5.9 19.5 21.5 17.6 17.6 21.5 19.6v25.3q-2 2 -21.5 19.6 -17.6 17.6 -19.5 21.5l17.6 39q5.8 2 29.3 2H373l17.6 17.6v31.2q2 27.3 2 33.2l41 15.6q3.9 -1.9 19.5 -23.4 17.6 -19.5 19.6 -23.4l25.3 1.9q4 2 21.5 21.5 17.6 21.5 21.5 23.4l39.1 -15.6q1.9 -3.9 1.9 -31.2 -1.9 -27.4 -1.9 -31.3l17.6 -17.6H627q25.3 2 29.3 0l15.6 -39q-2 -3.9 -19.6 -21.5 -19.5 -17.6 -21.4 -19.6zM543 418q0 27.3 -15.7 44.9 -17.5 17.6 -42.9 19.5 -25.4 0 -44.9 -15.6 -17.6 -17.6 -19.6 -43 0 -25.4 17.6 -42.9 15.6 -17.6 41 -19.6 27.4 0 44.9 15.7t19.6 41zm392.5 -72.3L746.1 156.3l189.4 189.4L746.1 156.3Q630.9 48.8 482.4 48.8T218.8 158.2q-9.8 9.8 -17.6 19.5 -35.2 35.2 -50.8 48.9 -13.7 15.6 -35.2 37.1 -23.4 21.5 -82 82Q0 378.9 0 423.8t33.2 80.1q33.2 31.3 52.7 52.7 35.2 33.2 48.9 48.9 15.6 13.6 31.2 31.2 17.6 15.6 56.7 56.7v-2q115.2 107.4 263.6 107.4T750 689.5l56.6 -56.7q17.6 -17.6 31.3 -33.2 11.7 -11.7 35.1 -33.2l62.5 -62.5q33.3 -35.1 33.3 -80.1t-33.3 -78.1zM273.4 634.8Q187.5 543 187.5 423.8q0 -119.1 85.9 -210.9Q365.2 127 484.4 127t210.9 85.9q87.9 91.8 87.9 210.9t-87.9 211q-91.8 87.9 -210.9 85.9 -119.2 0 -211 -85.9z"/></svg>