<svg height="1000" width="1250" xmlns="http://www.w3.org/2000/svg"><path d="M416 595.7q7.8 0 25.4 -1.9 17.6 0 25.4 -2 -2 -2 -9.8 -2 -19.5 -1.9 -56.6 -19.5Q363.3 550.8 334 494.1q-15.6 -23.4 -13.7 -52.7 5.9 -37.1 39.1 -44.9t62.5 7.8q41 29.3 78.1 80.1 29.3 39 64.5 72.2 35.1 31.3 80 39.1 56.7 5.9 115.3 -19.5 58.6 -27.4 95.7 -70.3h-2l-1.9 1.9q-52.8 17.6 -127 11.7t-136.7 -41q-54.7 -35.1 -78.1 -78.1 -25.4 -43 -23.5 -68.4 5.9 -29.3 27.4 -37.1 23.4 -5.8 42.9 0 25.4 7.8 48.9 29.3 11.7 13.7 27.3 23.5 46.9 31.2 101.6 19.5 21.5 -3.9 44.9 -13.7 21.5 -9.7 25.4 -13.7h-3.9q-7.8 -1.9 -13.7 -1.9 -11.7 0 -23.4 -2Q687.5 322.3 634.8 275.4 580.1 230.5 535.2 171.9 484.4 107.4 423.8 58.6 363.3 7.8 271.5 -2 203.1 -7.8 132.8 9.8 60.5 27.3 3.9 66.4L0 70.3h5.9q17.5 -1.9 35.1 0 37.1 5.9 66.4 39.1 31.3 33.2 43 111.3 5.9 41 5.9 72.3 -2 41 9.7 95.7Q199.2 500 277.3 548.8q80.1 50.8 138.7 46.9zM146.5 50.8q-2 -2 -2 -3.9 35.2 -7.8 72.3 -9.8 -3.9 23.4 -27.3 27.4 -21.5 5.8 -43 -13.7zm384.8 683.6q-64.5 1.9 -129 -33.2Q337.9 668 291 615.2q-7.8 -7.8 -21.5 -23.4 -11.7 -15.6 -15.6 -21.5l2 -1.9q1.9 1.9 5.8 3.9 25.4 23.4 99.6 48.8 72.3 21.5 140.7 -5.9 33.2 -11.7 56.6 -5.8t27.3 11.7q-25.4 3.9 -33.2 7.8 -9.7 2 -13.6 7.8 -17.6 13.7 13.6 33.2 31.3 11.7 68.4 11.7 29.3 0 60.5 7.9 31.3 5.8 60.6 29.3 11.7 9.7 19.5 21.4v2q-1.9 -2 -5.8 -3.9 -17.6 -7.8 -72.3 -15.6 -39.1 -2 -80.1 5.8 -31.2 3.9 -72.2 5.9zM873 242.2h2q23.4 -7.8 58.6 -13.7 33.2 -5.8 70.3 7.8 44.9 19.6 62.5 68.4 9.8 27.3 9.8 54.7h-2v-2q-7.8 -33.2 -42.9 -54.7t-89.9 -3.9q-78.1 29.3 -175.8 9.8T595.7 205.1h-1.9q-2 -2 0 -5.9 1.9 0 5.8 2 52.7 39 117.2 52.7 85.9 15.6 156.2 -11.7zm201.2 230.5q-37.1 3.9 -64.4 41 -17.6 23.4 -50.8 46.8 -31.3 25.4 -87.9 37.2 -27.3 5.8 -52.7 7.8t-35.2 1.9v-1.9q2 0 5.9 -2 15.6 -1.9 52.7 -29.3l41 -41 3.9 -3.9q27.4 -31.3 64.5 -56.6 37.1 -23.5 95.7 -19.6 52.7 5.9 64.4 21.5 2 0 5.9 2v1.9q-21.5 -5.8 -43 -5.8zm-25.4 -46.9h-5.8Q1003.9 418 974.6 418q-31.2 0 -58.6 15.6l-11.7 7.8q-21.5 13.7 -46.9 23.4 -25.4 11.8 -62.5 17.6 -39 5.9 -70.3 2Q695.3 480.5 666 466.8l-1.9 -2q35.1 5.9 58.6 4 23.4 0 48.8 -15.7 11.7 -5.8 21.5 -13.6 46.8 -33.2 119.1 -46.9 82 -11.7 136.7 33.2zM525.4 113.3q-2 0 -3.9 -2v-1.9h3.9q13.7 0 41 1.9 25.4 2 58.6 13.7 37.1 17.6 64.5 41 15.6 11.7 33.2 23.5 33.2 21.4 72.2 15.6 5.9 0 13.7 -2H822.3h-2q0 2 -1.9 2 -23.5 11.7 -50.8 13.7Q691.4 224.6 625 189.5q-56.6 -29.3 -99.6 -76.2zM1250 580.1q-5.9 5.8 -29.3 11.7 -23.4 5.9 -54.7 -2 -21.5 -7.8 -39 -27.3 -9.8 -9.8 -21.5 -19.5 -29.3 -17.6 -52.8 -15.7h-1.9q0 -3.9 1.9 -3.9 43 -27.3 91.8 -11.7 25.4 9.8 46.9 33.2l13.7 13.7q27.3 21.5 41 19.5h3.9v2zM835.9 847.7q3.9 1.9 2 1.9v2q-54.7 -2 -91.8 -43 -29.3 -33.2 -54.7 -44.9Q668 752 654.3 750h-2q0 -2 2 -2 37.1 0 76.2 7.9 31.2 9.7 48.8 29.3 17.6 17.5 27.3 33.2l3.9 7.8q9.8 13.6 25.4 21.5z"/></svg>