<svg height="1000" width="1000" xmlns="http://www.w3.org/2000/svg"><path d="M187.5 46.9q68.4 -52.8 152.3 -80.1 82.1 -27.3 170 -25.4 85.9 0 167.9 29.3Q607.4 -43 535.2 -33.2 406.3 -15.6 316.4 82q13.7 -3.9 25.4 -9.7 3.9 0 5.9 -2Q402.3 46.9 459 41q58.6 -3.9 117.2 3.9 -9.8 2 -21.5 3.9 -31.3 3.9 -62.5 15.7 -103.5 33.2 -169.9 121 -41 58.6 -46.9 130.9 -3.9 54.7 39.1 85.9 33.2 21.5 72.2 13.7 44.9 -7.8 86 -31.2 33.2 -19.6 62.5 -46.9 5.8 -9.8 3.9 -19.5v-5.9h-2q-3.9 -2 -9.8 0Q494.1 332 457 341.8q-60.5 21.5 -121.1 2 39.1 5.8 74.3 -9.8 42.9 -23.5 82 -56.7l23.4 -19.5q82.1 -62.5 173.9 -107.4 76.1 -39.1 160.1 -46.9Q834 115.2 820.3 127q-33.2 27.3 -62.5 56.6 -41 41 -78.1 87.9 -7.8 9.8 -19.5 15.6l-7.9 3.9q-66.4 44.9 -101.5 117.2 -29.3 60.6 -21.5 125 3.9 43 41 68.4 39.1 21.4 84 9.7Q752 585.9 812.5 502t56.6 -187.5q0 -7.9 -1.9 -15.7v-29.3q23.4 58.6 31.2 119.2 5.9 42.9 -1.9 84 -3.9 17.5 -9.8 33.2 -3.9 15.6 -5.8 31.2Q941.4 468.8 957 378.9 972.7 271.5 929.7 173.8q60.5 95.7 70.3 209V459q-9.8 101.5 -58.6 189.4Q861.3 791 712.9 859.4q-117.2 54.7 -246.1 46.9T228.5 832Q111.3 759.8 48.8 638.7 5.9 552.7 0 457v-60.5Q5.9 293 56.6 201.2 105.5 111.3 187.5 46.9zm433.6 158.2q15.6 -3.9 31.2 -9.8t19.6 -21.5q-2 2 -3.9 2 -23.5 13.7 -46.9 29.3z"/></svg>