<svg height="1000" width="1250" xmlns="http://www.w3.org/2000/svg"><path d="M625 128.9q169.9 0 302.7 41 132.8 41 211 107.4 76.1 68.4 78.1 146.5 -2 78.2 -78.1 146.5 -78.2 66.4 -211 107.4t-302.7 43q-169.9 -1.9 -302.7 -43t-211 -107.4Q35.2 502 33.2 423.8q2 -78.1 78.1 -146.5 78.2 -66.4 211 -107.4t302.7 -41zm0 -33.2q-173.8 0 -314.5 44.9Q168 183.6 85.9 257.8 2 332 0 423.8q2 91.8 85.9 166Q168 664.1 310.5 707q140.7 45 314.5 45t314.5 -45Q1082 664.1 1164.1 589.8q83.9 -74.2 85.9 -166 -2 -91.8 -85.9 -166Q1082 183.6 939.5 140.6 798.8 95.7 625 95.7zM425.8 398.4q-11.7 50.8 -43 62.5 -31.2 9.8 -76.2 7.9h-17.5l27.3 -138.7h19.5q48.9 -2 74.3 7.8t15.6 58.6v1.9zm-236.3 209h72.2 -72.2 72.2l17.6 -85.9h25.4q48.8 0 84 -5.9 37.1 -3.9 66.4 -33.2 39 -37.1 46.9 -87.9 7.8 -48.8 -19.6 -84 -27.3 -31.2 -89.8 -31.2H253.9l-64.4 328.1zm363.2 -416H625h-72.3H625l-17.6 85.9h23.5q41 0 72.2 2 31.3 3.9 50.8 19.5 17.6 15.7 15.6 46.9Q767.6 375 752 449.2q-7.9 31.3 -15.7 70.3h-72.2q9.7 -42.9 15.6 -74.2 11.7 -60.5 13.7 -80.1 3.9 -19.5 -3.9 -25.4Q679.7 328.1 623 332h-25.3l-37.2 187.5h-72.2l64.4 -328.1zm433.6 207q-11.7 50.8 -42.9 62.5 -31.3 9.8 -76.2 7.9h-17.6L877 330.1h19.5q48.8 -2 74.2 7.8t15.6 58.6v1.9zM750 607.4h72.3H750h72.3l17.5 -85.9h23.5q50.8 0 85.9 -5.9 37.1 -5.8 66.4 -33.2 39.1 -37.1 46.9 -87.9 7.8 -48.8 -19.5 -84 -27.4 -31.2 -89.9 -31.2H814.5L750 607.4z"/></svg>