<svg height="1000" width="937.5" xmlns="http://www.w3.org/2000/svg"><path d="M890.6 -31.3q-84 19.6 -224.6 132.9Q574.2 48.8 468.8 48.8 296.9 52.7 181.6 168T62.5 455.1Q66.4 627 181.6 742.2t287.2 119.1q171.8 -3.9 287.1 -119.1T875 455.1Q873 291 759.8 171.9q-19.6 25.4 -33.2 54.7 85.9 97.6 87.9 228.5 -4 146.5 -101.6 244.1T468.8 800.8q-91.8 0 -171.9 -44.9 46.9 -58.6 89.8 -87.9t80.1 -48.9q62.5 -25.3 111.3 -83.9Q627 478.5 658.2 312.5q3.9 -48.8 54.7 -132.8Q763.7 97.7 904.3 0q11.7 -9.8 5.9 -21.5t-19.6 -9.8zM244.1 716.8Q185.5 668 154.3 599.6 123 531.3 123 455.1q4 -146.5 101.6 -244.2T468.8 109.4q78.1 0 150.3 35.1Q521.5 234.4 429.7 373T244.1 716.8z"/></svg>