<svg height="1000" width="1250" xmlns="http://www.w3.org/2000/svg"><path d="M1250 -27.3Q1150.4 41 1113.3 89.8q-37.1 48.9 -44.9 74.3l-5.9 11.7q-9.8 19.5 -17.6 62.5 -9.7 58.6 -29.3 101.5 -15.6 27.4 -46.8 48.9 -33.3 21.5 -60.6 35.1 -13.7 7.8 -21.5 13.7 -17.6 13.7 -39 48.8 -21.5 37.1 -43 76.2Q666 558.6 562.5 601.6T347.7 714.8q-23.5 15.7 -48.9 31.3 86 -31.3 84 -33.2 43 -15.6 80.1 -31.3 95.7 -42.9 197.3 -64.4t273.4 0h1.9q2 0 2 1.9 11.7 7.9 5.9 19.6L839.8 826.2q-9.7 15.6 -27.3 11.7Q693.4 818.4 589.8 826.2 484.4 834 390.6 851.6 287.1 871.1 191.4 875 84 873 41 841.8 -2 812.5 0 806.6q0 -3.9 3.9 -3.9 0 2 52.7 -3.9 52.8 -3.9 148.5 -25.4 107.4 -203.1 207 -289 99.6 -84 203.1 -82.1 3.9 0 39.1 5.9t76.2 31.3 62.5 83.9q33.2 -56.6 44.9 -76.1 11.7 -21.5 9.8 -19.6 3.9 -3.9 9.7 -15.6Q873 377 912.1 304.7q41 -70.3 105.5 -152.4 74.2 -91.8 132.8 -128.9 56.6 -35.1 99.6 -50.7z"/></svg>