<svg height="1000" width="1125" xmlns="http://www.w3.org/2000/svg"><path d="M476.6 404.3q-9.8 -5.9 -19.6 -5.9t-19.5 3.9q-9.8 2 -17.6 4l2 9.7zM742.2 791q-31.3 0 -80.1 11.7 -48.8 11.8 -76.2 27.4l13.7 87.9q103.5 19.5 207 -19.6l-5.8 -11.7q-11.7 -27.3 -29.3 -60.5T742.2 791zM666 269.5q13.7 5.9 37.1 33.2 2 5.9 7.8 9.8 9.8 -5.9 13.7 -15.6 0 -7.8 -9.8 -17.6Q703.1 267.6 699.2 252q21.5 -11.8 48.8 -13.7l23.5 -3.9Q970.7 189.5 1058.6 5.9q21.5 -37.2 25.4 -78.2l-3.9 5.9q-7.8 13.7 -15.6 25.4 -29.3 54.7 -56.7 87.9 -25.4 35.1 -87.9 82 -95.7 66.4 -207 105.5h-13.7v-43q-33.2 0 -42.9 -23.4 -5.9 -11.7 -17.6 -21.5 -11.7 11.7 -21.5 23.4 -35.2 48.9 -93.8 76.2 -35.1 11.7 -50.7 43 54.6 -23.5 117.1 -23.5 60.6 -1.9 76.2 3.9zm419.9 -345.7l-1.9 2 1.9 -2 -1.9 2v1.9 -1.9zM968.8 669.9Q921.9 582 853.5 513.7 785.2 445.3 675.8 445.3v-11.7q0 -13.7 21.5 -13.7 13.6 -1.9 29.3 -9.7T744.1 373l-27.3 13.7q-11.7 -27.3 -17.6 -44.9Q689.5 304.7 669.9 291q-17.6 -11.7 -82 -9.7 -41 0 -80.1 7.8 11.7 56.6 -21.5 97.6l37.1 11.7q-3.9 9.8 -3.9 19.6 2 23.4 35.2 23.4 17.6 2 31.2 9.8 15.7 7.8 15.7 31.2 -2 31.3 -39.1 72.3t-68.4 44.9q-7.8 0 -33.2 -25.4 -25.4 -23.4 -46.8 -52.7 -21.5 -27.4 -23.5 -39.1v-7.8l103.5 -23.4q17.6 -5.9 17.6 -23.5 -1.9 -17.5 -23.4 -19.5 -7.8 0 -35.2 5.9t-48.8 11.7q-9.8 1.9 -13.7 1.9 -5.8 -21.4 -25.4 -27.3 -5.8 0 -11.7 3.9l-7.8 3.9t-11.7 2q-15.6 1.9 -27.4 9.7 -13.6 7.8 -1.9 27.4L31.3 507.8q-17.6 3.9 -17.6 21.5 1.9 19.5 23.4 21.5 11.7 0 74.2 -13.7t127 -29.3q66.4 -15.6 85.9 -19.5l3.9 3.9q3.9 7.8 11.7 13.7 27.4 23.4 64.5 78.1 25.4 33.2 46.9 60.5 23.4 27.4 37.1 27.4 37.1 0 78.1 -25.4 39.1 -25.4 60.6 -54.7 9.7 -15.6 25.3 -13.7 -5.8 23.5 -37.1 52.8 -23.4 19.5 -27.3 31.2 -2 17.6 -2 44.9 0 25.4 2 37.1 46.9 9.8 93.7 -1.9 27.4 -3.9 56.7 -3.9 3.9 -13.7 5.8 -27.4 13.7 -48.8 13.7 -97.6v-17.6q-1.9 -44.9 -15.6 -64.4 -11.7 -19.6 -39.1 -41.1 -5.8 -3.9 -13.6 -9.7l-7.9 -7.8q2 0 2 -2 1.9 0 7.8 -1.9 72.3 3.9 101.6 76.1 27.3 70.3 41 162.1 9.8 66.4 25.4 125 17.6 56.7 50.8 86 31.2 -13.7 64.4 -27.4 72.3 -27.3 136.7 -64.4 -3.9 -3.9 -7.8 -5.9 -39 -35.1 -72.2 -68.3Q998 716.8 968.8 669.9zm-382.9 89.9v52.7 -52.7 52.7l23.5 -5.9 -5.9 -46.8h-17.6zm-134.7 -293L498 585.9 451.2 466.8 498 585.9l43 -27.3L478.5 459zm166 302.7l3.9 23.5 -3.9 -23.5 3.9 23.5q3.9 0 13.7 -2 27.3 -3.9 62.5 -9.7t37.1 -15.7v-5.8q-2 -2 -2 -3.9 -46.9 1.9 -76.1 7.8 -17.6 1.9 -39.1 5.8z"/></svg>