<svg height="1000" width="875" xmlns="http://www.w3.org/2000/svg"><path d="M400.4 265.6q0 31.3 -17.6 52.8 -17.6 19.5 -43 21.4 -21.4 0 -35.1 -7.8V199.2q13.7 -7.8 35.1 -7.8 25.4 0 43 21.5t17.6 52.7zm103.5 130.9q-21.5 0 -33.2 7.8v132.8q11.7 7.8 33.2 7.8 25.4 -1.9 43 -23.4 17.6 -19.5 19.5 -50.8Q564.5 437.5 546.9 418q-17.6 -21.5 -43 -21.5zM875 80.1v687.5V80.1v687.5q-2 39 -27.3 66.4 -27.4 25.4 -66.4 27.3H93.8Q54.7 859.4 27.3 834 2 806.6 0 767.6V80.1Q2 41 27.3 13.7q27.4 -25.4 66.5 -27.4h687.5q39 2 66.4 27.4Q873 41 875 80.1zM361.3 421.9q62.5 -2 101.6 -44.9 41 -45 43 -109.4 -2 -66.4 -43 -111.3 -39.1 -43 -101.6 -45 -35.1 0 -68.3 17.6h-87.9v402.4l101.5 -19.6v-99.6q23.5 9.8 54.7 9.8zm308.6 48.8q0 -64.4 -41 -109.4 -41 -42.9 -101.6 -44.9h-19.5q-11.7 37.1 -37.1 66.4 -43 44.9 -101.6 48.8v304.7l101.6 -19.5v-99.6q25.4 9.8 54.7 9.8 62.5 -2 103.5 -45 41 -44.9 41 -111.3z"/></svg>