<svg height="1000" width="968.8" xmlns="http://www.w3.org/2000/svg"><path d="M968.8 423.8q-2 134.8 -66.5 244.2Q837.9 777.3 728.5 841.8q-109.4 64.5 -244.1 66.4 -74.2 0 -142.6 -21.5 15.6 -25.4 33.2 -60.5 17.6 -33.2 25.4 -66.4L418 695.3t13.6 -50.8q11.8 23.5 43 39.1 29.3 15.6 68.4 15.6 111.3 -1.9 179.7 -87.9Q791 527.3 793 398.4q-2 -123 -86 -199.2Q623 121.1 494.1 119.1 337.9 123 255.9 209q-80.1 84 -80.1 203.1 0 56.7 25.4 109.4 25.4 54.7 72.2 78.1 13.7 5.9 15.7 -5.8 1.9 -7.9 7.8 -29.3 3.9 -15.7 5.8 -25.4 2 -7.8 -3.9 -13.7 -13.6 -19.5 -25.4 -48.8 -9.7 -31.3 -9.7 -62.5 0 -84 58.6 -144.6Q378.9 207 482.4 203.1q89.9 2 146.5 56.7 54.7 52.7 56.6 140.6 -1.9 99.6 -44.9 160.1T533.2 623q-37.1 -1.9 -58.6 -25.3 -21.5 -25.4 -13.7 -62.5 7.9 -31.3 17.6 -62.5Q498 416 500 375q2 -62.5 -60.5 -68.4 -37.2 0 -62.5 33.2 -23.5 31.3 -25.4 84 1.9 33.2 7.8 50.8 5.8 19.5 7.8 21.5 -2 1.9 -13.7 52.7t-25.4 107.5 -17.6 80q-7.8 31.3 -7.8 70.3 2 39.1 5.9 68.4Q169.9 820.3 85.9 699.2 2 580.1 0 423.8 2 289.1 66.4 179.7T240.2 5.9t244.2 -66.4q134.7 1.9 244.1 66.4t173.8 173.8 66.5 244.1z"/></svg>