<svg height="1000" width="750" xmlns="http://www.w3.org/2000/svg"><path d="M398.4 -62.5q-156.2 0 -273.4 93.8Q5.9 123 0 287.1q3.9 103.5 44.9 158.2Q85.9 502 125 502q13.7 -2 21.5 -29.3 7.8 -25.4 7.8 -39.1 0 -9.8 -11.7 -25.4 -11.7 -17.6 -21.5 -43 -11.7 -27.3 -13.7 -64.4 3.9 -121.1 80.1 -193.4Q263.7 33.2 382.8 31.3q101.6 1.9 166 56.6 62.5 54.7 64.5 158.2 1.9 54.7 -15.6 123Q582 439.5 543 490.2 503.9 543 437.5 544.9q-37.1 0 -62.5 -23.4Q347.7 498 347.7 459q3.9 -54.7 25.3 -109.4 23.5 -54.7 25.4 -111.3 -1.9 -64.5 -46.8 -80.1 -45 -13.7 -87.9 19.5Q218.8 209 214.8 289.1q0 50.7 19.6 97.6 -9.8 43 -23.5 93.8 -21.4 80 -39 162.1 -17.6 84 -19.6 152.3 0 41 5.9 82.1 2 13.6 2 29.3 1.9 1.9 3.9 1.9 1.9 5.9 9.7 0 62.5 -82 84 -134.8t41 -140.6q5.9 -27.3 15.7 -62.5Q334 605.5 373 623q37.2 17.6 76.2 17.6Q552.7 638.7 619.1 582t99.7 -144.5Q750 349.6 750 257.8 746.1 109.4 642.6 23.4 541 -62.5 398.4 -62.5z"/></svg>