<svg height="1000" width="1000" xmlns="http://www.w3.org/2000/svg"><path d="M472.7 496.1q19.5 -17.6 41 0l150.4 150.4q42.9 41 103.5 43h29.3L607.4 878.9q-46.9 43 -107.4 43t-107.4 -43L201.2 687.5h19.5q58.6 0 103.5 -43L472.7 496.1zm41 -144.5q-21.5 15.6 -41 0L324.2 201.2q-42.9 -43 -103.5 -43h-19.5L392.6 -31.3Q439.5 -76.2 500 -76.2t107.4 44.9l189.5 189.5h-29.3q-60.6 0 -103.5 43L513.7 351.6zm-293 -148.5q41 0 72.3 29.3l148.4 150.4q23.4 19.5 52.7 21.5 27.4 -2 50.8 -21.5L695.3 232.4q29.3 -29.3 72.3 -29.3h72.2l115.3 113.3Q998 363.3 998 423.8t-42.9 107.5L839.8 644.5h-72.2q-43 0 -72.3 -29.3L544.9 464.8q-23.4 -21.4 -52.7 -21.4t-50.8 21.4L293 613.3q-31.3 29.3 -72.3 31.2h-62.5L44.9 531.3Q0 484.4 0 423.8T44.9 316.4L158.2 203.1h62.5z"/></svg>