<svg height="1000" width="875" xmlns="http://www.w3.org/2000/svg"><path d="M125 -13.7q-52.7 2 -87.9 37.1Q2 58.6 0 111.3v625q2 52.8 37.1 87.9t87.9 37.1h625q52.7 -1.9 87.9 -37.1T875 736.3v-625Q873 58.6 837.9 23.4T750 -13.7H125zm335.9 164.1q121.1 1.9 197.3 68.4 76.2 68.3 78.1 173.8 -3.9 105.4 -84 169.9Q574.2 625 459 625q-64.5 -2 -113.3 -15.6 -46.9 -13.7 -48.8 -15.6v101.5q11.7 3.9 21.5 9.8 11.7 7.8 1.9 19.5H205.1q-9.8 -11.7 0 -19.5 9.7 -5.9 23.4 -9.8V267.6q-56.6 44.9 -68.3 74.2 5.8 27.3 -2 33.2l-7.8 3.9 -41 -64.4q0 -4 44.9 -43 43 -39.1 121.1 -78.1 80.1 -39.1 185.5 -43zm-7.8 435.5Q543 584 597.7 529.3q52.7 -54.7 54.6 -138.7Q650.4 304.7 599.6 248 548.8 189.5 453.1 187.5q-41 0 -84 11.7 -41 11.7 -72.2 33.2v322.3q56.6 29.3 156.2 31.2z"/></svg>