<svg height="1000" width="1125" xmlns="http://www.w3.org/2000/svg"><path d="M1115.2 650.4q-19.5 21.5 -46.8 35.1 -27.4 11.8 -29.3 13.7L638.7 841.8V736.3L933.6 630.9q50.8 -21.5 11.7 -37.1 -21.5 -7.9 -52.7 -5.9T834 599.6L638.7 668V558.6q66.4 -23.4 148.4 -33.2 60.6 -5.9 127 0 68.3 7.8 126.9 29.3 62.5 21.5 78.1 48.8 13.7 25.4 -3.9 46.9zM677.7 470.7V199.2v271.5V199.2q0 -25.4 -7.8 -44.9 -7.8 -17.6 -29.3 -25.4 -35.1 -5.9 -37.1 46.9v679.7L419.9 796.9V-13.7Q482.4 -2 552.7 19.5 625 39.1 673.8 54.7q113.3 39.1 162.1 99.6 46.9 60.5 45 169.9t-58.6 148.5q-58.6 39 -144.6 -2zM84 724.6Q17.6 705.1 3.9 673.8 -9.8 642.6 21.5 617.2 52.7 597.7 85.9 584T123 570.3l261.8 -93.7V582l-189.5 68.4q-50.8 21.5 -9.8 37.1 21.5 7.8 50.8 5.9 31.3 -2 58.6 -11.8l89.9 -33.2v95.7Q236.3 773.4 84 724.6z"/></svg>