<svg height="1000" width="1000" xmlns="http://www.w3.org/2000/svg"><path d="M636.7 351.6q0 31.2 -21.5 50.7 -19.5 21.5 -50.7 21.5H427.7V279.3h136.8q31.2 0 50.7 21.5 21.5 19.5 21.5 50.8zm347.7 72.2Q982.4 558.6 918 668 853.5 777.3 744.1 841.8 634.8 906.3 500 908.2 365.2 906.3 255.9 841.8T82 668 15.6 423.8Q17.6 289.1 82 179.7T255.9 5.9 500 -60.5q134.8 1.9 244.1 66.4T918 179.7t66.4 244.1zm-250 -72.2q-2 -72.3 -50.8 -121.1Q636.7 183.6 564.5 181.6H330.1V666h97.6V521.5h136.8q72.2 -2 119.1 -50.8 48.8 -46.9 50.8 -119.1z"/></svg>