<svg height="1000" width="843.8" xmlns="http://www.w3.org/2000/svg"><path d="M794.9 142.6L603.5 125l191.4 17.6L603.5 125l27.4 -64.5Q642.6 23.4 623 3.9q-21.4 -21.5 -48.8 -15.6L44.9 74.2Q21.5 78.1 7.8 97.7 -3.9 117.2 2 146.5l205 679.7q11.8 31.2 43 35.1t50.8 -21.5l68.3 -158.2 459 -451.1q23.5 -27.4 11.7 -54.7 -11.7 -29.3 -44.9 -33.2zM582 29.3q15.7 -2 9.8 13.7l-33.2 78.1L212.9 89.8 582 29.3zM44.9 134.8q-5.8 -17.6 11.7 -17.6L543 162.1 353.5 611.3 44.9 134.8zm220.7 679.7q-11.7 11.7 -17.6 -2L85.9 275.4 334 660.2l-23.5 52.7q-15.6 37.1 -29.2 68.4t-15.7 33.2zM798.8 201.2L410.2 582 798.8 201.2 410.2 582 585.9 166 793 183.6q13.6 5.9 5.8 17.6z"/></svg>