<svg height="1000" width="875" xmlns="http://www.w3.org/2000/svg"><path d="M859.4 316.4q-11.7 -46.9 -35.2 -76.2Q798.8 210.9 753.9 209h-78.1v93.7q-2 54.7 -39.1 91.8 -37.1 39.1 -89.8 41h-209q-44.9 0 -74.2 31.3 -29.3 29.3 -31.3 74.2v199.2q2 41.1 31.3 68.4 31.2 25.4 74.2 37.1 93.7 31.3 209 0 39 -11.7 70.3 -37.1t33.2 -68.4v-80h-209v-27.4h312.5q44.9 0 68.4 -29.3 21.5 -27.3 37.1 -76.2 31.2 -91.8 0 -212.8v1.9zM558.6 712.9q37.1 3.9 39.1 39.1 -2 37.1 -39.1 41 -35.2 -3.9 -39.1 -41 3.9 -35.2 39.1 -39.1zM328.1 408.2h209 -209 209q43 0 72.3 -31.2 29.3 -29.3 31.2 -74.3V103.5q-1.9 -43 -31.2 -72.2T537.1 -5.9q-111.3 -15.6 -209 0Q263.7 5.9 242.2 33.2q-21.5 25.4 -19.5 70.3v80.1h208.9V209H144.5q-44.9 0 -82 27.3 -35.2 27.4 -46.9 80.1Q0 373 0 419.9t15.6 107.4q9.8 46.9 37.1 76.2t72.3 29.3h72.3v-93.7q1.9 -54.7 39 -91.8t91.8 -39.1zM314.5 130.9Q279.3 127 275.4 89.8q3.9 -35.1 39.1 -39 35.1 3.9 39 39 -3.9 37.2 -39 41.1z"/></svg>