<svg height="1000" width="875" xmlns="http://www.w3.org/2000/svg"><path d="M847.7 744.1q-13.7 0 -33.2 -25.3 -19.6 -23.5 -37.2 -48.9 -17.5 -25.4 -17.5 -27.3 0 46.9 -25.4 99.6 -23.5 54.7 -74.2 97.6 29.3 9.8 62.5 27.4 35.1 17.6 27.3 41 -11.7 11.7 -72.3 13.7 -62.5 3.9 -132.8 0 -70.3 -2 -107.4 -5.9 -37.1 3.9 -107.4 5.9 -70.3 3.9 -132.8 0 -60.6 -2 -72.3 -13.7 -7.8 -23.4 27.3 -41 33.2 -17.6 62.5 -27.4 -50.7 -42.9 -74.2 -97.6 -25.4 -52.7 -25.4 -99.6 0 1.9 -17.5 27.3t-37.2 48.9Q41 744.1 27.3 744.1q-9.7 0 -9.7 -44.9 -2 -46.9 29.3 -148.4 11.7 -39.1 25.4 -78.1 15.6 -39.1 35.1 -86 7.8 -19.5 17.6 -42.9Q119.1 168 195.3 48.8q74.2 -121.1 242.2 -125 166 3.9 242.2 123.1T750 343.8q9.8 23.4 17.6 42.9 19.5 46.9 35.1 86 13.7 39 25.4 78.1 31.3 101.5 29.3 148.4 0 44.9 -9.7 44.9z"/></svg>