<svg height="1000" width="1000" xmlns="http://www.w3.org/2000/svg"><path d="M613.3 851.6h-2 2 -2q-84 -2 -154.3 -43Q384.8 769.5 343.8 697.3 302.7 623 302.7 543q0 -82.1 41.1 -156.3 41 -72.2 113.2 -111.3 70.3 -41 154.3 -43 142.6 5.9 230.5 105.5T918 578.1q1.9 3.9 5.8 7.8 7.8 9.8 15.7 21.5 39 -87.9 39 -189.4Q976.6 283.2 914.1 175.8 849.6 68.4 742.2 3.9 634.8 -58.6 502 -60.5 367.2 -58.6 259.8 3.9 152.3 68.4 87.9 175.8 25.4 283.2 23.4 418q2 132.8 64.5 240.2 64.4 107.4 171.9 171.9 107.4 62.5 242.2 64.4 68.3 0 136.7 -19.5Q627 867.2 619.1 857.4l-5.8 -5.8zm0 0zM765.6 521.5q-60.5 0 -107.4 31.2 -48.8 33.2 -72.3 87.9 -21.4 54.7 -9.7 111.4 9.7 56.6 52.7 99.6 43 41 99.6 52.7 54.7 11.7 111.3 -11.7 54.7 -23.5 86 -70.3Q959 773.4 959 714.8q0 -80 -56.7 -136.7T765.6 521.5z"/></svg>