<svg height="1000" width="875" xmlns="http://www.w3.org/2000/svg"><path d="M861.3 679.7h-58.6 58.6 -58.6q-1.9 19.5 -15.6 39.1 -15.6 19.5 -48.8 21.4 -56.7 -3.9 -95.7 -70.3Q707 619.1 748 543q39.1 -76.2 39.1 -171.9Q783.2 195.3 668 91.8 554.7 -11.7 400.4 -13.7 248 -11.7 134.8 91.8 19.5 197.3 13.7 371.1 17.6 502 89.8 597.7q72.3 93.7 181.7 132.8 111.3 39 228.5 9.7 29.3 50.8 72.3 84 42.9 35.2 115.2 37.1 78.1 -1.9 115.2 -39 39.1 -37.1 48.9 -80.1 11.7 -43 9.7 -62.5zM580.1 566.4q-27.4 -43 -68.4 -72.3 -41 -27.3 -109.4 -29.3 -91.8 4 -134.7 45l23.4 46.8q17.6 -7.8 39.1 -7.8 50.8 2 82 37.1 31.3 37.1 52.7 82.1 -29.3 9.7 -64.4 9.7 -214.9 -1.9 -209 -306.6Q185.5 64.5 400.4 62.5q218.7 2 212.9 308.6 0 123 -33.2 195.3z"/></svg>