<svg height="1000" width="1134.8" xmlns="http://www.w3.org/2000/svg"><path d="M1134.8 367.2q-2 -107.4 -78.2 -193.4Q982.4 89.8 853.5 39.1 726.6 -11.7 568.4 -13.7q-160.2 2 -287.1 52.8Q152.3 89.8 78.1 173.8 2 259.8 0 367.2q3.9 142.6 134.8 244.1 128.9 103.5 332 128.9v121.1h195.3V742.2q70.3 -9.8 134.8 -27.4L875 861.3h218.8L962.9 638.7q80.1 -52.8 125 -121.1 46.9 -70.3 46.9 -150.4zm-912.1 27.3q5.8 -109.3 126.9 -183.6 121.1 -72.2 304.7 -76.1 181.6 0 296.9 62.5 113.3 62.5 117.2 197.2 -3.9 146.5 -136.8 209 -7.8 -5.8 -13.6 -7.8Q902.3 587.9 884.8 582q-19.6 -7.8 -21.5 -7.8 3.9 2 44.9 -9.7 41 -9.8 82 -48.9 39.1 -39 43 -121.1 -3.9 -84 -44.9 -121.1 -43 -35.1 -86 -44.9 -42.9 -7.8 -46.8 -5.8H466.8v406.2Q357.4 595.7 291 535.2 224.6 472.7 222.7 394.5zm439.4 74.3V361.3v107.5V361.3q27.4 0 48.8 -1.9 60.6 -2 91.8 5.8t31.3 48.9q0 42.9 -35.2 50.7 -35.1 9.8 -89.8 5.9 -23.5 -1.9 -46.9 -1.9zm-1.9 142.5h52.7 -52.7 52.7q15.6 0 27.3 13.7 11.8 11.7 19.6 23.4 -46.9 5.9 -99.6 5.9v-43z"/></svg>