<svg height="1000" width="794.9" xmlns="http://www.w3.org/2000/svg"><path d="M726.6 378.9l-7.8 -13.7 7.8 13.7 -7.8 -13.7q0 -66.4 -25.4 -101.5Q666 228.5 628.9 209h2q23.4 -2 31.2 -25.4 35.2 -9.8 35.2 -31.3 7.8 -3.9 17.5 -13.6 7.9 -9.8 7.9 -23.5 19.5 -13.6 15.6 -35.1Q757.8 56.6 750 41q17.6 -27.3 2 -41 9.7 -17.6 1.9 -29.3Q744.1 -43 720.7 -41 709 -52.7 695.3 -54.7t-21.5 -1.9h-1.9q-3.9 -11.8 -31.3 -7.9 -21.5 -15.6 -42.9 -5.8 -21.5 -11.7 -37.2 -2l-7.8 3.9q-23.4 -5.8 -31.2 3.9 -2 2 -5.9 4 -29.3 -4 -41 13.6 -1.9 2 -1.9 3.9L459 -44.9Q431.6 -27.3 416 -2q-13.7 25.4 -17.6 45Q392.6 23.4 378.9 -2q-15.6 -25.3 -43 -42.9l-11.7 1.9 -3.9 -3.9q-11.7 -17.6 -39 -13.6 -5.9 -2 -7.9 -4 -9.7 -9.7 -31.2 -3.9l-7.8 -3.9q-9.8 -3.9 -19.6 -3.9 -7.8 0 -15.6 5.9 -23.4 -9.8 -44.9 5.8Q127 -68.4 123 -56.6h-1.9q-7.8 0 -21.5 1.9T74.2 -41Q50.8 -43 41 -29.3 33.2 -17.6 43 0q-15.7 13.7 1.9 41 -7.8 15.6 11.7 39.1 -3.9 21.5 15.7 35.1 0 13.7 7.8 23.5 9.7 9.7 17.6 13.6h1.9q-1.9 19.6 33.2 31.3 7.8 23.4 31.3 25.4h1.9q-37.1 19.5 -62.5 54.7Q76.2 298.8 76.2 365.2l-7.8 13.7q-45 27.4 -64.5 93.8Q-13.7 539.1 41 607.4q5.9 31.3 15.6 54.7 3.9 7.8 5.9 15.6 11.7 64.5 50.8 97.7 37.1 33.2 54.7 35.1 42.9 35.2 103.5 58.6 60.5 56.7 125 54.7h1.9q66.4 2 125 -54.7Q584 845.7 625 810.5q19.5 -1.9 56.6 -35.1 39.1 -33.2 50.8 -97.7 2 -7.8 5.9 -15.6 9.7 -23.4 15.6 -54.7Q808.6 539.1 791 472.7T726.6 377v1.9zm-43 -15.6q-5.9 13.7 -50.8 -17.6 -44.9 -31.2 -84 -70.3 -39 -39.1 -25.4 -44.9 68.4 -11.7 113.3 23.4 46.9 37.1 46.9 109.4zm-84 181.6q-37.1 21.5 -82 9.8Q474.6 541 445.3 500 418 457 423.8 412.1q3.9 -43 41 -68.3Q502 320.3 544.9 334q44.9 11.7 74.2 54.7 27.4 42.9 21.5 85.9 -5.8 44.9 -41 70.3zM466.8 -19.5q2 13.6 5.9 15.6 3.9 -3.9 7.8 -9.8 9.7 -11.7 25.4 -23.4 0 1.9 -2 3.9 -1.9 7.8 5.9 13.7 11.7 -15.7 31.2 -25.4 -5.8 11.7 0 15.6 0 2 2 2 13.6 -13.7 37.1 -23.5 0 2 -2 2 -9.7 7.8 -1.9 17.5 11.7 -9.7 44.9 -17.5l-3.9 3.9q-11.7 7.8 -5.9 13.6 19.6 -7.8 43 -9.7 -13.7 9.7 -7.8 17.6 21.5 -9.8 50.8 -5.9l-11.8 11.7q4 2 29.3 2h17.6v1.9Q720.7 -2 714.8 19.5q4 2 17.6 0h2Q726.6 37.1 714.8 43q-5.8 3.9 -7.8 9.7 7.8 5.9 21.5 0Q720.7 66.4 707 78.1q-5.8 3.9 -9.7 7.8 1.9 3.9 19.5 2 -15.6 15.6 -37.1 29.3 3.9 3.9 17.6 3.9h1.9q-15.6 13.7 -35.1 21.5 -5.9 1.9 -11.8 5.8 9.8 5.9 17.6 3.9h2q-13.7 9.8 -37.1 17.6 -5.9 0 -9.8 2 3.9 7.8 13.7 7.8 -17.6 7.8 -35.2 7.8 -11.7 0 -17.6 3.9 3.9 7.8 13.7 11.7 -27.3 2 -70.3 -7.8 -43 -11.7 -58.6 -56.6 43 -48.9 183.6 -121.1Q541 52.7 455.1 121.1 408.2 95.7 423.8 50.8q13.7 -43 43 -70.3zm-66.4 224.6q37.1 0 70.3 21.5 31.3 19.5 35.2 46.8 -5.9 46.9 -105.5 50.8 -48.8 0 -76.2 -17.6 -29.3 -17.5 -29.3 -39 2 -19.6 33.2 -41 29.3 -21.5 72.3 -21.5zM160.2 179.7q9.7 -2 13.6 -7.8 -3.9 -2 -7.8 -2 -25.4 -5.8 -41 -17.6h3.9q5.9 2 15.6 -3.9 -3.9 -3.9 -9.7 -5.8 -19.6 -7.8 -35.2 -21.5h2q11.7 0 17.5 -3.9Q97.7 103.5 82 87.9q15.7 1.9 19.6 -2Q95.7 82 91.8 78.1 78.1 66.4 70.3 52.7q11.7 5.9 21.5 0Q89.8 46.9 82 43 72.3 37.1 62.5 19.5h3.9q13.7 2 17.6 0Q76.2 -2 66.4 -13.7q0 -1.9 -1.9 -1.9h11.7q31.2 0 35.1 -2L99.6 -29.3q29.3 -3.9 52.7 5.9 5.9 -7.9 -7.8 -17.6 23.5 3.9 43 9.7 3.9 -5.8 -5.9 -13.6l-3.9 -3.9q33.2 7.8 45 17.5 5.8 -9.7 -3.9 -17.5l-2 -2q25.4 9.8 37.1 23.5h2l1.9 -2q5.9 -3.9 0 -15.6 19.5 9.7 29.3 25.4 7.8 -5.9 5.9 -13.7v-3.9q13.6 11.7 23.4 23.4l9.8 9.8q1.9 -2 5.8 -15.6 27.4 27.3 43 70.3 13.7 44.9 -31.2 70.3Q257.8 52.7 144.5 17.6q140.7 72.2 181.7 121.1 -13.7 44.9 -58.6 56.6 -43 9.8 -68.4 7.8 9.8 -3.9 13.7 -11.7 -5.9 -3.9 -19.5 -3.9 -17.6 0 -35.2 -7.8h2zm117.1 46.9q11.8 5.8 -27.3 44.9 -39.1 39 -84 70.3 -44.9 33.2 -48.8 17.6 -2 -72.3 44.9 -107.4Q207 216.8 277.3 226.6zM74.2 591.8Q37.1 560.5 37.1 500t62.5 -99.6q25.4 -3.9 25.4 46.9 2 50.7 -13.7 99.6t-37.1 44.9zM252 783.2q-21.5 13.7 -60.6 2 -37.1 -9.8 -74.2 -56.7 -21.5 -41 -21.5 -76.2 0 -33.2 17.6 -46.8 23.4 -13.7 56.6 1.9 33.2 13.7 62.5 48.9 25.4 31.2 33.2 70.3 5.9 39 -13.6 56.6zM201.2 550.8q-37.1 -25.4 -41 -70.3 -5.9 -43 21.4 -86 29.3 -42.9 72.3 -54.7 43 -13.6 82 9.8Q371.1 373 377 418t-21.5 87.9q-31.3 41 -74.2 54.6 -43 11.8 -80.1 -9.7zm199.2 341.8q-44.9 0 -78.1 -23.5 -33.2 -25.3 -35.2 -39 2 -19.6 41 -31.3 37.1 -13.6 76.2 -11.7 37.1 -1.9 70.3 9.8 35.2 9.7 37.1 27.3 0 17.6 -35.1 43 -33.2 23.4 -76.2 25.4zM515.6 648.4q-1.9 45 -33.2 74.3 -33.2 29.3 -82 31.2 -48.8 0 -82 -29.3 -33.2 -31.2 -33.2 -74.2v-2q0 -44.9 33.2 -74.2 31.2 -29.3 80 -31.2 50.8 1.9 82.1 31.2 33.2 29.3 35.1 74.2zm160.2 84q-39.1 48.9 -80.1 58.6 -41 7.8 -60.5 -7.8 -19.6 -21.5 -7.9 -64.4 9.8 -43 37.2 -76.2 31.2 -35.2 60.5 -50.8 31.3 -17.6 54.7 0 15.6 17.6 19.5 60.5 2 43 -23.4 80.1zm44.9 -142.6q-21.5 4 -37.1 -44.9 -13.7 -50.8 -13.7 -99.6 2 -50.8 25.4 -48.8 62.5 41 62.5 101.5t-37.1 91.8z"/></svg>