<svg height="1000" width="1000" xmlns="http://www.w3.org/2000/svg"><path d="M972.7 380.9q0 -9.8 -2 -19.6 -1.9 -19.5 -3.9 -41Q959 285.2 947.3 250 927.7 187.5 886.7 136.7 869.1 115.2 849.6 93.8q-41 -41.1 -91.8 -70.4Q705.1 -7.8 646.5 -23.4 615.2 -33.2 582 -39.1L554.7 -43H541v-1.9H472.7q-5.9 1.9 -9.8 1.9 -35.2 3.9 -66.4 13.7 -41 11.7 -78.1 33.2 -39.1 19.5 -74.3 46.9Q224.6 64.5 209 78.1q-31.3 27.4 -58.6 56.7 -39.1 39 -66.4 85.9 -25.4 41 -39.1 85.9Q33.2 339.8 29.3 375t-3.9 68.4q1.9 41 9.8 80 9.7 52.8 33.2 103.6 17.5 41 46.8 76.1 21.5 31.3 50.8 56.7 37.1 33.2 82 58.6 50.8 31.2 109.4 50.7 39.1 11.8 78.1 19.6 11.8 0 25.4 1.9h11.8q0 2 1.9 2H543q3.9 -2 9.7 -2 46.9 -3.9 91.8 -21.5 50.8 -17.5 95.7 -46.8 29.3 -17.6 56.7 -39.1 13.6 -9.8 25.4 -23.4 3.9 -2 5.8 -3.9l23.5 -23.5q35.1 -37.1 60.5 -80.1 29.3 -46.8 43 -99.6 7.8 -31.2 13.7 -62.5 1.9 -9.7 3.9 -21.4V459l1.9 -2v-72.2q-1.9 -2 -1.9 -3.9zm-314.5 -2q-1.9 0 -19.5 -1.9 -17.6 -4 -35.2 -4 -39 0 -52.7 19.6t-13.7 52.7v183.6H394.5v-373h142.6v62.5Q558.6 244.1 658.2 248v130.9z"/></svg>