<svg height="1000" width="1000" xmlns="http://www.w3.org/2000/svg"><path d="M816.4 269.5q-15.6 -3.9 -31.2 -9.7 1.9 -9.8 3.9 -21.5h1.9q17.6 -87.9 5.9 -152.4T744.1 -2q-39 -21.4 -95.7 -1.9 -58.6 19.5 -123 76.2Q511.7 84 500 95.7L484.4 80.1Q416 19.5 355.5 -2t-101.6 0q-39.1 23.5 -50.8 84t5.9 144.6q1.9 15.6 5.8 33.2l-35.1 11.7Q99.6 298.8 50.8 337.9 2 378.9 0 423.8q2 45 52.7 87.9 52.8 41 134.8 70.3l27.3 7.8L207 625q-15.6 84 -3.9 142.6t50.8 82q41 21.5 101.6 2 60.5 -21.5 125 -78.2 5.8 -3.9 11.7 -9.7l9.8 -9.8q13.6 13.7 27.3 25.4 62.5 52.7 119.1 72.3 58.6 19.5 97.7 -2 39.1 -23.4 50.8 -85.9Q810.5 701.2 793 615.2q-2 -13.6 -5.9 -27.3 9.8 -2 19.5 -5.9 86 -27.3 138.7 -70.3 52.7 -41 54.7 -87.9 -2 -44.9 -50.8 -85.9Q898.4 298.8 816.4 269.5zm-263.7 -166Q607.4 56.6 654.3 39.1q44.9 -17.6 70.3 -5.9 23.4 15.6 31.3 68.4T748 230.5l-3.9 19.5Q679.7 234.4 613.3 228.5 574.2 173.8 529.3 125q11.7 -9.8 23.4 -21.5zM326.2 525.4q15.6 25.4 31.2 48.8 -44.9 -3.9 -89.8 -13.7 11.7 -42.9 31.2 -87.8 13.7 27.3 27.4 52.7zM267.6 289.1q42.9 -9.8 89.8 -15.7l-31.2 50.8L298.8 375q-19.5 -44.9 -31.2 -85.9zm52.7 134.7q19.5 -41 43 -78.1 21.5 -39.1 46.9 -76.2 44.9 -3.9 89.8 -3.9t89.8 3.9q25.4 37.1 46.9 74.3 23.5 39 43 80 -19.5 39.1 -43 80.1 -21.5 37.1 -46.9 76.2Q546.9 582 500 582t-89.8 -1.9Q384.8 543 363.3 503.9q-23.5 -39.1 -43 -80.1zm353.5 99.6q13.7 -25.4 29.3 -50.7 17.6 41 31.3 85.9 -44.9 9.8 -91.8 15.6l31.2 -50.8zM701.2 375l-27.4 -50.8q-15.6 -25.4 -29.3 -50.8 46.9 5.9 87.9 15.7Q718.8 334 701.2 375zM500 154.3q31.3 33.2 58.6 70.3 -58.6 -1.9 -117.2 0 29.3 -37.1 58.6 -70.3zM273.4 35.2q25.4 -13.7 74.3 5.8 50.7 19.5 109.3 70.3l9.8 9.8 3.9 3.9q-44.9 48.8 -84 103.5 -66.4 5.9 -130.8 21.5Q252 234.4 250 218.8 236.3 146.5 242.2 97.7 250 48.8 273.4 35.2zm-46.8 515.6q-13.7 -3.9 -25.4 -7.8Q134.8 521.5 78.1 482.4 48.8 459 41 423.8q2 -29.3 43 -58.6Q125 334 193.4 310.5q15.6 -5.8 33.2 -9.7 19.5 62.5 48.8 123 -29.3 62.5 -48.8 127zm226.5 191.4q-48.8 43 -109.3 68.3 -35.2 15.7 -68.4 2Q250 798.8 244.1 752q-7.8 -48.9 3.9 -119.2 4 -15.6 7.9 -33.2 64.4 15.6 132.8 19.5 39 54.7 84 105.5 -9.8 7.8 -19.6 17.6zM502 693.4Q470.7 662.1 441.4 623q29.3 2 58.6 2t58.6 -2q-25.4 37.2 -56.6 70.4zM757.8 752q-3.9 37.1 -33.2 62.5 -23.4 11.7 -68.3 -4 -45 -17.5 -99.7 -64.4Q543 736.3 531.3 724.6q44.9 -48.8 82 -105.5 68.3 -5.8 132.8 -19.5 3.9 11.7 5.9 23.4 13.6 64.5 5.8 129zM793 543q-7.8 1.9 -17.6 3.9Q755.9 484.4 726.6 423.8q27.3 -60.5 46.8 -123 15.7 3.9 29.3 7.8Q873 334 914.1 365.2q42.9 29.3 44.9 56.7 -2 31.2 -46.9 62.5Q867.2 517.6 793 543zM500 513.7q37.1 -2 62.5 -27.4t27.3 -62.5q-1.9 -37.1 -27.3 -62.5T500 334q-37.1 1.9 -62.5 27.3t-27.3 62.5q1.9 37.1 27.3 62.5t62.5 27.4z"/></svg>