<svg height="1000" width="1125" xmlns="http://www.w3.org/2000/svg"><path d="M490.2 337.9l9.8 -7.8 -9.8 7.8 9.8 -7.8 11.7 7.8 -3.9 -13.7 11.7 -7.8h-13.6L500 302.7l-3.9 13.7h-13.7l11.7 7.8zm123.1 0l11.7 -7.8 -11.7 7.8 11.7 -7.8 11.7 7.8 -3.9 -13.7 11.7 -7.8h-15.6L625 302.7l-3.9 13.7h-13.7l9.8 7.8zm-177.8 97.6h-5.8 5.8 -5.8q-9.8 0 -7.8 17.6v5.9q0 13.7 -11.7 11.7 -11.8 2 -11.8 -11.7v-70.3q0 -13.7 11.8 -11.7 11.7 -2 11.7 11.7v3.9q-2 15.6 7.8 15.6h5.8q9.8 0 7.9 -17.6v-5.8q-2 -29.3 -33.2 -27.4 -31.3 -1.9 -33.2 27.4v78.1q1.9 29.3 33.2 27.3 31.2 2 33.2 -27.3v-9.8q1.9 -17.6 -7.9 -17.6zm-158.2 35.2H250h27.3H250v-39.1h21.5q7.8 0 7.8 -5.8v-5.9q0 -5.8 -7.8 -5.8H250V377h27.3q7.9 0 7.9 -5.9v-5.9q0 -5.8 -7.9 -5.8h-42.9q-5.9 0 -5.9 5.8v117.2q0 5.9 5.9 5.9h42.9q7.9 0 7.9 -5.9v-5.8q0 -5.9 -7.9 -5.9zm-82 -37.1q13.7 -5.9 15.6 -23.4v-23.5Q209 357.4 177.7 359.4h-27.3q-5.9 0 -5.9 7.8v115.2q0 5.9 5.9 5.9h7.8q7.8 0 7.8 -5.9v-44.9h9.8l15.6 44.9q2 5.9 7.8 5.9h5.9q9.7 0 5.8 -7.8zm-5.8 -27.3q-2 13.6 -13.7 11.7H166v-41h9.8q11.7 0 13.7 11.7v17.6zm154.3 -41.1q0 -3.9 -2 -5.8 -3.9 -2 -5.9 0h-13.6q-3.9 -2 -5.9 0t-1.9 5.8L293 480.5q-2 7.8 5.8 7.8h5.9q3.9 0 5.8 -2t2 -3.9l3.9 -21.5h23.4l4 21.5q0 2 3.9 3.9 1.9 2 3.9 2h7.8q7.8 0 5.8 -7.8zm-23.5 76.2l7.8 -56.6 -7.8 56.6 7.8 -56.6 9.8 56.6h-17.6zm173.8 41V377v105.4V377h15.7q5.8 0 5.8 -5.9v-5.9q0 -5.8 -5.8 -5.8H459q-7.8 0 -7.8 5.8v5.9q0 5.9 7.8 5.9h13.7v105.4q0 5.9 7.8 5.9h5.8q7.8 0 7.8 -5.9zm484.4 -1.9h-37.1 37.1 -37.1v-52.8h31.3q1.9 0 1.9 -1.9 2 0 2 -2v-1.9q0 -2 -2 -2 0 -1.9 -1.9 -1.9h-31.3v-50.8h39.1q1.9 -2 1.9 -3.9 0 -2 -1.9 -3.9h-48.9q-1.9 1.9 0 3.9v123q-1.9 0 0 2h48.9l1.9 -2v-1.9q0 -2 -1.9 -3.9h-2zM796.9 357.4h-2 2 -2q-29.3 0 -29.3 27.4v78.1q0 27.3 29.3 27.3h2q29.3 0 29.3 -27.3v-78.1q0 -27.4 -29.3 -27.4zM816.4 459q0 23.4 -19.5 21.5 -21.5 1.9 -21.5 -21.5v-70.3q0 -23.5 21.5 -21.5 19.5 -2 19.5 21.5V459zm-89.8 -27.4q17.5 -5.8 17.5 -27.3v-17.6q0 -27.3 -29.3 -27.3h-31.2v128.9H691.4l2 -2v-52.7h23.4l19.5 52.7q2 2 3.9 2h3.9q3.9 0 2 -3.9zm-13.7 -7.8h-19.5 19.5 -19.5v-56.6h19.5q21.5 0 21.5 21.5v13.6q0 21.5 -21.5 21.5zm168 -64.4h-27.4 27.4H851.6q-2 1.9 -2 3.9v123l2 2h7.8l1.9 -2v-52.7h19.6q29.3 0 29.3 -27.3v-19.6q0 -27.3 -29.3 -27.3zm19.5 44.9q1.9 21.5 -19.5 21.5h-19.6v-58.6h19.6q21.4 0 19.5 21.5v15.6zM507.8 525.4L502 511.7l5.8 13.7L502 511.7l-4 13.7h-13.6l11.7 7.8 -5.9 13.7 11.8 -7.8 11.7 7.8 -3.9 -13.7 11.7 -7.8h-13.7zM951.2 259.8Q918 246.1 882.8 238.3 910.2 123 898.4 44.9q-9.7 -78.1 -60.5 -107.4 -50.8 -27.3 -121.1 2T568.4 44.9l19.5 19.6Q666 -9.8 716.8 -31.3q52.7 -21.4 78.1 -15.6 25.4 3.9 29.3 7.8 35.2 19.6 46.9 84 11.7 66.4 -15.6 185.6 -82.1 -17.6 -166 -25.4Q582 58.6 490.2 -7.8 396.5 -74.2 334 -72.3q-44.9 2 -66.4 21.5 -21.5 21.5 -27.4 33.2Q214.8 29.3 216.8 99.6q3.9 70.3 23.4 144.5Q134.8 273.4 72.3 320.3 7.8 369.1 5.9 429.7q3.9 56.6 54.6 95.7Q109.4 564.5 166 584q56.7 21.5 78.1 25.4 -54.6 244.1 43 300.8 41 25.3 109.4 3.9 68.3 -23.5 162.1 -111.4Q546.9 793 537.1 783.2 459 857.4 408.2 878.9q-52.7 21.5 -78.1 15.6 -25.4 -3.9 -27.4 -7.8h-1.9q-33.2 -19.5 -44.9 -84 -13.7 -66.4 15.6 -185.5 37.1 11.7 166 25.4Q543 789.1 636.7 853.5q93.8 66.4 156.3 66.4 44.9 -1.9 66.4 -23.4 21.5 -19.5 25.4 -31.3Q910.2 816.4 908.2 748q-1.9 -70.3 -23.4 -144.5 222.6 -68.3 234.3 -169.9Q1132.8 332 951.2 259.8zM265.6 -3.9q3.9 -9.8 19.6 -23.4Q300.8 -43 334 -43q54.7 -1.9 138.7 58.6t179.6 187.5q-91.8 -5.8 -183.5 2 39 -54.7 82 -103.5L531.3 82q-52.8 58.6 -97.7 125 -84 7.8 -166 29.3v-3.9q-3.9 -11.7 -13.7 -52.7 -7.8 -43 -7.8 -93.8t19.5 -89.8zm595.7 855.5q-3.9 9.7 -19.5 23.4 -15.6 15.6 -48.8 15.6 -54.7 2 -138.7 -58.6T472.7 644.5q91.8 5.9 183.6 -1.9 -37.2 54.7 -82.1 103.5l19.6 19.5q54.6 -58.6 99.6 -125 70.3 -7.8 115.2 -17.6 43 -9.7 50.8 -11.7 29.3 121.1 19.5 177.8 -9.8 54.7 -17.6 62.5zM878.9 582q-11.7 -35.1 -25.4 -72.2 -11.7 0 -19.5 -11.8v2q-5.9 3.9 -11.7 5.9 17.5 42.9 29.3 82 -70.3 17.6 -140.7 25.4 13.7 -19.5 62.5 -105.5 -5.8 -1.9 -11.7 -5.8 -1.9 5.8 -21.5 7.8 -17.5 35.1 -66.4 107.4 -109.3 9.8 -218.7 1.9Q429.7 585.9 382.8 507.8q-1.9 -1.9 -5.8 -3.9 -2 5.9 -23.5 5.9 17.6 35.1 64.5 107.4 -70.3 -7.8 -140.7 -23.4 11.8 -41.1 27.4 -84h-2q-7.8 1.9 -13.6 -2 -7.8 2 -13.7 2 -13.7 39 -25.4 78.1Q19.5 519.5 29.3 425.8 41 330.1 248 267.6q9.8 35.1 23.5 70.3 27.3 1.9 27.3 9.8 3.9 -2 5.9 -3.9 -17.6 -43 -29.3 -84Q298.8 250 416 234.4q-46.9 72.2 -64.4 107.4 7.8 5.9 11.7 15.6 7.8 -11.7 19.5 -15.6 19.5 -37.1 68.4 -111.3 109.3 -9.8 220.7 -2 44.9 66.4 56.6 87.9 9.8 17.6 25.4 37.1 7.8 -9.7 19.5 -13.7Q755.9 304.7 707 230.5q117.2 15.6 140.7 23.4 -11.8 43 -27.4 85.9 7.8 4 13.7 9.8 5.8 -9.8 17.6 -11.7 13.6 -39.1 23.4 -76.2 35.2 7.8 68.4 21.5 97.6 39.1 126.9 76.2 31.3 39 25.4 66.4 -3.9 27.3 -9.8 33.2h-1.9q-33.2 50.8 -97.7 82 -66.4 29.3 -107.4 41zM654.3 359.4h-2 2 -2q-1.9 -2 -1.9 0l-2 1.9V459q2 23.4 -19.5 21.5 -19.5 1.9 -19.5 -21.5V359.4q-2 -2 -3.9 0h-2q-1.9 -2 -1.9 0l-2 1.9v101.6q0 27.3 29.3 27.3h2q29.3 0 29.3 -27.3V361.3l-2 -1.9t-3.9 0zm-25.4 166L623 511.7l5.9 13.7L623 511.7l-3.9 13.7h-13.6l11.7 7.8 -3.9 13.7 9.7 -7.8 11.8 7.8 -3.9 -13.7 11.7 -7.8h-13.7zm-60.5 13.7l-5.9 -11.8 5.9 11.8 -5.9 -11.8 -3.9 11.8 -13.7 1.9 11.7 7.8 -3.9 13.7 9.8 -9.8 11.7 9.8 -3.9 -13.7L582 541zm9.7 -58.6h-39 39 -39v-52.8h31.2q2 0 3.9 -1.9v-5.9q-1.9 -1.9 -3.9 -1.9h-31.2v-50.8h41V359.4h-48.8l-2 1.9v125l2 2h48.8l1.9 -2v-1.9q0 -2 -1.9 -3.9h-2zM562.5 285.2l-3.9 13.6 3.9 -13.6 -3.9 13.6h-13.7l11.7 7.8 -3.9 13.7 9.8 -7.8 11.7 7.8 -3.9 -13.7 11.7 -7.8h-13.6z"/></svg>