<svg height="1000" width="1125" xmlns="http://www.w3.org/2000/svg"><path d="M1031.3 15.6H759.8h271.5H759.8q-72.3 0 -127 43 -52.7 43 -70.3 113.3Q544.9 101.6 492.2 58.6t-125 -43H93.8Q54.7 15.6 27.3 43 2 68.4 0 109.4v478.5q2 41 27.3 66.4 27.4 27.3 66.5 27.3h175.7q146.5 0 207.1 37.2 62.5 35.1 80 109.3 5.9 9.8 11.8 0 17.5 -74.2 80 -109.3Q709 681.6 855.5 681.6h175.8q39 0 66.4 -27.3 25.3 -25.4 27.3 -66.4V109.4q-2 -41 -27.3 -66.4 -25.4 -27.4 -66.4 -27.4zM472.7 533.2q0 5.9 -5.9 5.9H152.3q-5.8 0 -5.8 -5.9v-44.9q0 -5.9 5.8 -5.9h314.5q5.9 0 5.9 5.9v44.9zm0 -119.1q0 5.8 -5.9 7.8H152.3q-5.8 -2 -5.8 -7.8v-45q0 -5.8 5.8 -5.8h314.5q5.9 0 5.9 5.8v45zm0 -119.2q0 5.9 -5.9 7.8H152.3q-5.8 -1.9 -5.8 -7.8V250q0 -5.9 5.8 -5.9h314.5q5.9 0 5.9 5.9v44.9zm505.8 238.3q0 5.9 -5.8 5.9H660.2q-7.9 0 -7.9 -5.9v-44.9q0 -5.9 7.9 -7.8h312.5q5.8 1.9 5.8 7.8v44.9zm0 -119.1q0 5.8 -5.8 5.8H660.2q-7.9 0 -7.9 -5.8v-45q0 -5.8 7.9 -5.8h312.5q5.8 0 5.8 5.8v45zm0 -119.2q0 5.9 -5.8 7.8H660.2q-7.9 -1.9 -7.9 -7.8V250q0 -5.9 7.9 -5.9h312.5q5.8 0 5.8 5.9v44.9z"/></svg>