<svg height="1000" width="875" xmlns="http://www.w3.org/2000/svg"><path d="M689.5 -13.7h-504 504 -504q-80 2 -130.8 54.7Q2 91.8 0 171.9v503.9q2 80.1 54.7 130.8 50.8 52.8 130.8 54.7h504q80 -1.9 130.8 -54.7Q873 755.9 875 675.8V171.9Q873 91.8 820.3 41 769.5 -11.7 689.5 -13.7zM283.2 316.4v109.4V316.4v109.4q-1.9 41 -27.3 68.3 -27.4 27.4 -68.4 27.4V220.7q3.9 -43 46.9 -46.9h300.8q0 41 -27.4 68.4 -27.3 25.4 -68.3 27.3H330.1q-19.6 0 -33.2 13.7t-13.7 33.2zM627 457H517.6 627 517.6q-19.6 0 -33.2 13.7t-13.7 33.2v109.4q-1.9 41 -27.3 68.3Q416 709 375 709V408.2q3.9 -43 46.9 -46.9h300.8q0 41 -27.4 68.4Q668 455.1 627 457z"/></svg>