<svg height="1000" width="1000" xmlns="http://www.w3.org/2000/svg"><path d="M728.5 195.3q-37.1 -1.9 -64.4 -23.4Q636.7 150.4 627 115.2q-45 5.9 -74.3 41.1 -31.2 33.2 -31.2 80 140.6 7.8 244.1 72.3 37.1 -31.3 87.9 -31.3 62.5 2 103.5 43t43 103.5q0 43 -23.4 78.2 -21.5 35.1 -60.6 52.7 -7.8 130.8 -125 216.8t-291 89.8Q326.2 857.4 209 771.5T84 554.7Q46.9 537.1 23.4 502 0 468.8 0 423.8 2 361.3 43 320.3t103.5 -43q50.8 0 87.9 31.3 103.5 -64.5 242.2 -72.3 1.9 -66.4 42.9 -113.3Q562.5 78.1 627 68.4q7.8 -35.2 35.1 -58.6t66.4 -23.5q44.9 2 74.2 31.3T832 89.8q0 45 -29.3 74.3t-74.2 31.2zM308.6 421.9q-33.2 1.9 -54.7 27.3 -21.5 25.4 -25.4 66.4 0 39.1 21.5 56.7t52.7 17.5q66.4 4 74.3 -72.2 1.9 -39.1 -17.6 -66.4t-52.8 -29.3h2zm462.9 93.7q-2 -41 -25.4 -66.4 -21.5 -25.4 -52.7 -27.3 -31.3 1.9 -50.8 29.3Q623 476.6 623 517.6q7.9 76.2 74.3 72.2 31.2 0 52.7 -17.5t21.5 -56.7zM654.3 654.3q2 -13.7 -9.8 -15.6Q576.2 630.9 500 630.9t-144.5 7.8q-11.7 1.9 -7.8 15.6 19.5 44.9 58.6 74.2 41 27.4 93.7 27.4t93.8 -27.4q41 -29.3 60.5 -74.2z"/></svg>