<svg height="1000" width="1000" xmlns="http://www.w3.org/2000/svg"><path d="M0 423.8Q2 283.2 68.4 171.9 134.8 58.6 248 -7.8q111.4 -66.4 252 -68.4 140.6 2 252 68.4 113.2 66.4 179.6 179.7Q998 283.2 1000 423.8q-2 140.7 -68.4 252Q865.2 789.1 752 855.5q-111.4 66.4 -252 68.3H72.3Q52.7 921.9 44.9 906.3 37.1 888.7 50.8 873l95.7 -95.7Q78.1 709 39.1 619.1 0 527.3 0 423.8zM683.6 224.6q35.2 -1.9 58.6 -25.4 23.4 -23.4 23.4 -58.6T742.2 82 683.6 56.6q-31.3 2 -54.7 19.6Q607.4 93.8 601.6 123q-52.8 7.9 -86 45 -33.2 35.1 -35.1 89.8 -111.4 5.9 -193.4 56.7Q257.8 291 216.8 289.1q-48.8 1.9 -82 35.1t-35.2 82.1q3.9 74.2 68.4 105.4 5.8 105.5 99.6 173.8T500 757.8q140.6 -3.9 234.4 -72.3T834 511.7q62.5 -31.2 66.4 -105.4 -2 -48.9 -35.2 -82.1t-82 -35.1q-41 1.9 -70.3 25.4 -84 -50.8 -195.3 -56.7 0 -39 23.4 -66.4 23.5 -25.4 60.6 -31.2 7.8 27.3 29.3 44.9t52.7 17.6v1.9zM345.7 406.3q25.4 0 41 21.4 15.6 23.5 15.6 54.7Q394.5 543 341.8 541q-25.4 0 -43 -13.7 -15.6 -15.6 -15.6 -46.8 2 -31.3 19.5 -52.8t43 -21.4zm371.1 74.2q2 31.2 -15.6 46.8 -17.6 13.7 -43 13.7 -52.7 2 -58.6 -58.6 -1.9 -33.2 13.7 -54.7t41 -21.4 43 21.4q17.5 19.6 19.5 52.8zM623 591.8q-15.6 37.1 -48.8 58.6Q543 671.9 500 673.8q-43 -1.9 -74.2 -23.4Q392.6 628.9 377 591.8q-2 -9.8 7.8 -13.7 54.7 -3.9 115.2 -3.9t115.2 3.9q9.8 3.9 7.8 13.7z"/></svg>