<svg height="1000" width="1000" xmlns="http://www.w3.org/2000/svg"><path d="M668 482.4q52.7 0 103.5 -17.6 52.7 -17.5 56.6 -74.2v-1.9q2 -2 -5.8 -31.3 -5.9 -27.3 -35.2 -156.2 -5.8 -25.4 -19.5 -44.9Q752 138.7 705.1 115.2 662.1 93.8 599.6 70.3 539.1 46.9 509.8 44.9q-21.5 2 -35.2 19.6t-41 19.5Q408.2 82 384.8 70.3q-21.5 -13.7 -45 -15.6 -44.9 0 -68.3 66.4Q234.4 224.6 226.6 250q-7.8 23.4 -5.9 23.4 2 27.4 58.6 76.2 58.6 48.8 158.2 87.9 101.6 41 230.5 43v1.9zm169.9 -60.5q5.9 31.2 7.8 41 2 9.8 2 11.7 -2 54.7 -54.7 84 -54.7 31.2 -136.7 31.2 -125 -1.9 -228.6 -41 -105.4 -39 -167.9 -93.7T195.3 349.6q0 -19.5 7.8 -37.1 -70.3 0 -134.7 23.4T0 433.6q3.9 84 113.3 168t269.5 140.6 318.4 60.5Q877 798.8 939.5 738.3q64.4 -60.6 60.5 -128.9 0 -50.8 -41 -101.6Q916 457 837.9 421.9z"/></svg>