<svg height="1000" width="875" xmlns="http://www.w3.org/2000/svg"><path d="M0 -13.7v875 -875 875h875v-875H0zm511.7 652.4q-11.7 5.8 -41 3.9 -29.3 -2 -56.6 -31.3Q384.8 578.1 332 488.3q-23.4 0 -41 -2v89.9q-1.9 29.3 7.8 37.1 7.8 7.8 29.3 9.7h11.7v15.7H205.1V623q5.8 0 9.7 -1.9 17.6 0 25.4 -7.8t7.8 -37.1V363.3q0 -29.3 -7.8 -35.2 -7.8 -7.8 -25.4 -9.7 -3.9 0 -9.7 -2v-15.6q50.8 1.9 97.6 0 23.5 -2 41.1 -2 46.8 0 78.1 23.5 29.3 21.5 31.2 66.4 0 31.2 -21.5 58.6 -21.4 25.4 -54.6 35.1 42.9 72.3 82 113.3 23.4 27.3 52.7 29.3v13.7zM556.6 375q-33.2 0 -48.8 -19.5 -13.7 -17.6 -13.7 -43V250q0 -19.5 13.7 -39.1 15.6 -19.5 52.7 -19.5 35.2 2 48.9 17.6 11.7 13.7 9.7 15.6v2l-19.5 13.6q0 -1.9 -9.8 -13.6 -9.7 -9.8 -29.3 -11.8 -13.6 0 -25.3 9.8 -11.8 11.7 -13.7 29.3v52.7q1.9 41.1 35.1 45 41.1 -2 43 -52.8h-35.1v-19.5H623V291q4 29.3 -7.8 56.7Q605.5 375 556.6 375zm-226.5 87.9q-25.4 0 -39.1 -2V326.2q19.5 -2 43 -2 70.3 2 72.3 68.4 -2 66.4 -76.2 70.3z"/></svg>