<svg height="1000" width="968.8" xmlns="http://www.w3.org/2000/svg"><path d="M548.8 466.8q66.4 -17.6 82.1 -37.1 13.6 -19.5 3.9 -46.9l-21.5 -76.2q-7.8 -31.2 -35.2 -39 -29.3 -9.8 -103.5 13.7L107.4 386.7l54.7 191.4L548.8 466.8zM486.3 -60.5Q310.5 -56.6 183.6 44.9 54.7 146.5 13.7 310.5l433.6 -125q50.7 -15.6 84 -19.5 35.1 -1.9 70.3 2 101.5 19.5 121.1 109.3l21.4 72.3q23.5 80.1 -46.8 144.5 -27.4 25.4 -52.8 39.1t-66.4 25.4l-181.6 52.7 429.7 52.8 19.5 66.4L752 755.9 191.4 683.6l44.9 156.2q109.4 66.5 248.1 68.4 134.7 -1.9 244.1 -66.4T902.3 668t66.5 -244.2q0 -134.7 -64.5 -244.1T730.5 5.9 486.3 -60.5zM74.2 683.6L0 425.8l74.2 257.8L0 425.8q2 142.6 74.2 257.8z"/></svg>