<svg height="1000" width="875" xmlns="http://www.w3.org/2000/svg"><path d="M566.4 460.9q-1.9 39.1 -21.5 70.4 -21.5 33.2 -58.6 46.8 -37.1 15.7 -74.2 7.8t-64.4 -35.1 -35.2 -64.5 7.8 -74.2Q334 375 367.2 353.5 398.4 334 437.5 332q52.7 2 89.8 39.1t39.1 89.8zm271.5 -9.7q-2 -87.9 -39.1 -166Q759.8 209 693.4 152.3l-89.9 50.8q66.4 43 103.5 111.4 37.1 66.4 37.1 146.4 -1.9 130.9 -89.8 216.8 -85.9 86 -216.8 89.9Q306.6 763.7 220.7 677.7T130.9 460.9q1.9 -123 82 -207Q291 168 410.2 154.3v78.1L623 109.4 410.2 -13.7v74.2Q250 76.2 144.5 187.5 41 298.8 37.1 460.9q3.9 168 113.3 279.3 111.3 113.3 277.3 121.1h410.2V451.2z"/></svg>