<svg height="1000" width="968.8" xmlns="http://www.w3.org/2000/svg"><path d="M484.4 -60.5Q349.6 -58.6 240.2 5.9 130.9 70.3 66.4 179.7 2 289.1 0 423.8 2 558.6 66.4 668t173.8 173.8 244.2 66.4q134.7 -1.9 244.1 -66.4T902.3 668t66.5 -244.2q-2 -134.7 -66.5 -244.1T728.5 5.9 484.4 -60.5zM791 759.8H615.2 791 615.2L396.5 502q-25.4 -33.2 -7.8 -68.4 15.6 -37.1 60.5 -41h146.5L431.6 199.2l-166 193.4H89.8L378.9 54.7q21.5 -25.4 52.7 -25.4t52.8 25.4L793 416q25.4 37.1 7.8 72.3 -17.6 37.1 -62.5 37.1h-56.7q-50.7 1.9 -80 1.9h-7.8L791 759.8z"/></svg>