<svg height="1000" width="1125" xmlns="http://www.w3.org/2000/svg"><path d="M554.7 363.3q-27.4 0 -46.9 19.5t-19.5 46.9q1.9 29.3 19.5 46.9 19.5 19.5 46.9 19.5 29.3 0 46.9 -19.5 19.5 -19.6 19.5 -46.9 0 -29.3 -19.5 -46.9Q584 363.3 554.7 363.3zm-214.9 0q-29.3 0 -46.8 19.5 -19.6 19.5 -19.6 46.9 0 29.3 19.6 46.9 17.5 19.5 46.8 19.5 27.4 0 46.9 -19.5t19.6 -46.9q0 -29.3 -19.6 -46.9 -19.5 -19.5 -46.9 -19.5zm431.7 0q-29.3 0 -48.8 19.5 -17.6 19.5 -17.6 46.9 0 29.3 19.5 46.9 17.6 19.5 46.9 19.5 27.3 0 46.9 -19.5 17.5 -19.6 19.5 -46.9 0 -27.4 -19.5 -46.9t-46.9 -19.5zm298.8 -109.4q-44.9 -70.3 -125 -123Q867.2 80.1 767.6 52.7 669.9 25.4 562.5 25.4q-70.3 0 -140.6 11.7 -43 -41 -97.7 -70.3 -97.6 -46.9 -177.7 -43t-125 21.5Q7.8 -48.8 3.9 -33.2 0 -19.5 11.7 -7.8q33.2 33.2 66.4 87.9t25.4 113.3Q3.9 294.9 3.9 423.8t99.6 230.5q7.8 58.6 -25.4 113.3t-66.4 87.9Q0 867.2 3.9 880.9q3.9 15.6 17.6 21.4 44.9 17.6 125 21.5t177.7 -42.9q54.7 -29.3 97.7 -70.4 70.3 11.8 140.6 11.8 107.4 0 207 -27.4 97.7 -27.3 175.8 -78.1 80.1 -52.7 125 -123 50.8 -80.1 50.8 -170t-50.8 -169.9zM556.6 724.6q-87.8 0 -173.8 -23.4l-41 39q-31.3 31.3 -72.3 52.8Q220.7 818.4 168 822.3q1.9 -2 1.9 -5.9l3.9 -3.9q58.6 -109.4 31.3 -195.3Q105.5 539.1 101.6 429.7q5.8 -125 132.8 -207 128.9 -82.1 322.2 -86 193.4 3.9 322.3 86 127 82 132.8 207 -5.8 125 -132.8 209 -128.9 82 -322.3 85.9z"/></svg>