<svg height="1000" width="1000" xmlns="http://www.w3.org/2000/svg"><path d="M994.1 412.1l-42.9 -27.3 42.9 27.3 -42.9 -27.3q-2 -5.9 -2 -11.8l37.1 -33.2q5.9 -5.8 3.9 -13.6t-9.7 -9.8l-46.9 -17.6v-1.9q0 -3.9 -2 -9.8l29.3 -41q3.9 -5.9 2 -13.7 -3.9 -7.8 -11.7 -7.8l-48.9 -9.8h-1.9q-2 -3.9 -3.9 -9.7L916 160.2q3.9 -7.9 0 -13.7 -3.9 -7.8 -11.7 -7.8l-50.8 1.9 -7.8 -7.8L857.4 84q2 -7.8 -3.9 -13.7t-13.7 -3.9L791 78.1l-7.8 -7.8 2 -48.8q0 -9.8 -7.9 -13.7 -5.8 -3.9 -13.6 0l-44.9 19.5q-5.9 -1.9 -9.8 -3.9l-9.8 -50.7q0 -7.9 -7.8 -11.8 -7.8 -1.9 -13.7 2l-41 29.3q-5.8 -2 -11.7 -2l-17.6 -46.8q-1.9 -7.9 -9.7 -9.8t-13.7 3.9l-33.2 37.1q-5.9 0 -11.7 -1.9l-27.4 -43q-3.9 -5.9 -11.7 -5.9t-11.7 5.9l-27.4 43q-5.8 1.9 -11.7 1.9L416 -62.5q-5.8 -5.9 -13.7 -3.9t-9.7 9.8L375 -9.8h-3.9q-3.9 2 -7.8 2l-41 -29.3q-5.9 -3.9 -13.7 -2 -7.8 3.9 -7.8 11.8L291 21.5v1.9q-3.9 2 -9.7 3.9l-45 -19.5q-7.8 -3.9 -13.6 0 -7.9 5.9 -7.9 13.7l2 48.8v2q-3.9 1.9 -7.8 5.8L160.2 66.4q-7.9 -1.9 -13.7 3.9T142.6 84l11.7 48.8 -7.8 7.8H97.7q-9.8 -1.9 -13.7 5.9 -3.9 5.8 0 13.7l19.5 44.9q-1.9 5.8 -3.9 9.7h-1.9l-48.9 9.8q-7.8 0 -11.7 7.8 -1.9 7.8 2 13.7l29.3 41q0 3.9 -2 9.8v1.9l-46.9 17.6q-7.8 2 -9.7 9.8t3.9 13.6L50.8 373q0 5.9 -2 11.8L5.9 412.1Q0 416 0 423.8t5.9 11.7l42.9 27.4q2 5.9 2 11.7l-37.1 33.2q-5.9 5.9 -3.9 13.7t9.7 9.8l46.9 17.5v3.9q2 3.9 2 7.8l-29.3 41.1q-3.9 5.8 -2 13.6Q41 623 48.8 623l48.9 9.8h1.9q2 5.9 3.9 9.8L84 687.5q-3.9 7.8 0 13.7 3.9 7.8 13.7 7.8l48.8 -2 7.8 7.8 -11.7 48.9q-2 7.8 3.9 13.6t13.7 4L209 769.5l7.8 7.8 -2 50.8q0 7.8 7.9 11.7 5.8 4 13.6 0l45 -19.5q3.9 2 9.7 3.9v2l9.8 48.8q0 7.8 7.8 11.7 7.8 2 13.7 -1.9l41 -29.3q3.9 0 7.8 1.9h3.9l17.6 46.9q1.9 7.8 9.7 9.8t13.7 -3.9L449.2 873q5.9 0 11.7 2l27.4 41q3.9 7.8 11.7 7.8t11.7 -7.8l27.4 -41q5.8 -2 11.7 -2l33.2 37.2q5.8 5.8 13.7 3.9t9.7 -9.8L625 857.4h3.9q3.9 -1.9 7.8 -1.9l41 29.3q5.9 3.9 13.7 1.9 7.8 -3.9 7.8 -11.7l9.8 -48.8q0 -2 1.9 -2l7.9 -3.9 44.9 19.5q7.8 4 13.6 0 7.9 -3.9 7.9 -11.7l-2 -50.8 7.8 -7.8 48.8 11.8q7.9 1.9 13.7 -4t3.9 -13.6l-11.7 -48.9 7.8 -7.8 50.8 2q7.8 0 11.7 -7.8 3.9 -5.9 0 -13.7l-19.5 -44.9 3.9 -7.8q0 -2 1.9 -2l48.9 -9.8q7.8 0 11.7 -7.8 1.9 -7.8 -2 -13.6l-29.3 -41.1q2 -5.8 2 -11.7l46.9 -17.5q7.8 -2 9.7 -9.8t-3.9 -13.7l-37.1 -33.2q0 -5.8 2 -11.7l41 -27.4q7.8 -3.9 7.8 -11.7t-7.8 -11.7h1.9zm-294.9 252q-25.4 -3.9 -33.2 21.4l-15.6 68.4Q578.1 787.1 498 787.1q-78.1 0 -152.3 -35.1l-15.6 -68.4q-2 -11.7 -11.7 -17.6 -7.9 -5.8 -19.6 -3.9l-62.5 13.7q-15.6 -17.6 -31.2 -37.1h298.8q5.9 0 5.9 -3.9V529.3q0 -5.9 -5.9 -3.9H416l2 -68.4h93.7q7.8 0 27.4 7.8t31.2 43q2 9.8 5.9 25.4 5.8 33.2 11.7 52.7 3.9 15.7 19.5 33.2 13.7 17.6 33.2 19.6h154.3q-15.6 19.5 -33.2 39zm48.8 66.4q-1.9 27.3 -29.2 31.2 -27.4 -3.9 -29.3 -31.2 1.9 -27.4 29.3 -29.3 27.3 3.9 29.2 29.3zm-439.4 0q-3.9 27.3 -31.3 29.3Q250 757.8 248 730.5q2 -27.4 29.3 -31.3h2q25.4 3.9 29.3 31.3zM136.7 380.9l62.5 -27.4 -62.5 27.4 62.5 -27.4q11.7 -5.8 15.6 -15.6 4 -11.7 -1.9 -21.5l-11.7 -29.3H252v234.4H148.4Q128.9 453.1 136.7 380.9zm-23.4 -70.4q0 -11.7 9.7 -21.4 7.9 -7.8 21.5 -7.8 27.4 3.9 29.3 29.2 -3.9 27.4 -31.2 29.3 -25.4 -1.9 -29.3 -29.3zM416 359.4l2 -70.3 -2 70.3 2 -70.3h123q5.9 0 25.4 7.8 17.6 7.8 19.5 29.3 -1.9 17.6 -17.5 25.4 -17.6 7.8 -37.1 7.8H416zm363.3 164q-33.2 0 -43 -19.5Q728.5 459 714.8 439.5q-15.6 -19.6 -37.1 -35.2l-1.9 -2q29.3 -17.5 52.7 -42.9Q750 334 752 298.8q-2 -37.1 -19.6 -60.5 -19.5 -25.4 -39 -37.1Q668 185.5 646.5 181.6q-23.5 -5.8 -31.3 -5.8H226.6Q310.5 84 431.6 60.5l46.9 48.9q7.8 7.8 17.6 7.8 11.7 0 19.5 -7.8l52.8 -48.9q80 15.7 144.5 62.5 64.4 45 105.5 117.2l-35.2 78.2q-7.8 23.4 13.7 35.1l68.3 31.3q2 31.2 0 62.5h-37.1q-5.8 0 -5.8 5.8v17.6q0 29.3 -13.7 41 -13.7 9.8 -29.3 11.7zM468.8 41Q470.7 13.7 498 11.7h2q25.4 3.9 27.3 31.3Q525.4 68.4 498 70.3 470.7 68.4 468.8 41zm384.7 300.8q-17.6 0 -25.4 -15.6 -7.8 -13.7 0 -29.3 7.8 -13.7 25.4 -13.7 27.4 2 29.3 29.3 -1.9 27.3 -29.3 29.3z"/></svg>