<svg height="1000" width="1000" xmlns="http://www.w3.org/2000/svg"><path d="M537.1 460.9l-74.2 -74.2 74.2 74.2 -74.2 -74.2L324.2 599.6zM500 -60.5Q365.2 -58.6 255.9 5.9 146.5 70.3 82 179.7 17.6 289.1 15.6 423.8 17.6 558.6 82 668t173.9 173.8T500 908.2q134.8 -1.9 244.1 -66.4T918 668t66.4 -244.2Q982.4 289.1 918 179.7T744.1 5.9 500 -60.5zm304.7 341.8L834 269.5l-29.3 11.8L834 269.5q5.8 -3.9 11.7 0 5.9 2 7.8 7.8 2 5.9 0 11.8t-7.8 7.8l-29.3 13.6q-13.7 4 -19.5 -9.7 -5.9 -13.7 7.8 -19.5zM613.3 107.4L627 78.1l-13.7 29.3L627 78.1q5.8 -11.7 19.5 -7.8 11.7 5.9 7.8 19.5l-11.7 29.3q-5.9 13.7 -19.6 7.9 -5.8 -2 -9.7 -7.9 -2 -5.8 0 -11.7zM500 41q13.7 2 15.6 15.6v31.3q-1.9 13.7 -15.6 15.6 -13.7 -1.9 -15.6 -15.6V56.6Q486.3 43 500 41zM353.5 70.3q5.9 -1.9 11.7 0t7.8 7.8l13.7 29.3q2 7.8 -1.9 15.6 -5.9 7.9 -15.7 5.9 -7.8 -1.9 -11.7 -9.8L345.7 89.8q-3.9 -13.6 7.8 -19.5zm-125 82q11.7 -7.8 23.5 0l21.4 23.5q9.8 9.7 0 21.5 -11.7 9.7 -21.4 0l-23.5 -21.5q-7.8 -11.7 0 -23.5zM117.2 423.8q1.9 -13.6 15.6 -15.6h31.3q13.6 2 15.6 15.6 -2 13.7 -15.6 15.7h-31.3q-13.7 -2 -15.6 -15.7zm78.1 142.6L166 578.1l29.3 -11.7L166 578.1q-5.8 3.9 -11.7 0 -5.9 -1.9 -7.8 -7.8 -2 -5.8 0 -11.7t7.8 -7.8l29.3 -13.7q13.7 -3.9 19.5 9.8 5.9 13.6 -7.8 19.5zm7.8 -265.6q-1.9 5.8 -7.8 9.7 -5.8 2 -11.7 0l-29.3 -13.6q-11.7 -5.9 -7.8 -19.6 5.8 -11.7 19.5 -7.8l29.3 11.8q13.7 5.8 7.8 19.5zm183.6 439.4L373 769.5l13.7 -29.3L373 769.5q-5.8 11.8 -19.5 7.8 -13.7 -5.8 -7.8 -19.5l11.7 -29.3q3.9 -7.8 11.7 -9.7 9.8 -2 15.7 5.8 3.9 7.8 1.9 15.6zM515.6 791q-1.9 13.7 -15.6 15.6Q486.3 804.7 484.4 791v-31.2q1.9 -13.7 15.6 -15.7 13.7 2 15.6 15.7V791zm130.9 -13.7q-5.9 2 -11.7 0t-7.8 -7.8l-13.7 -29.3q-3.9 -13.6 9.7 -19.5 13.7 -5.9 19.6 7.8l11.7 29.3q3.9 13.7 -7.8 19.5zm125 -82q-11.7 7.8 -23.5 0l-21.4 -23.4q-9.8 -9.8 0 -21.5 11.7 -9.8 21.4 0l23.5 21.5q7.8 11.7 0 23.4zM558.6 482.4L214.8 709 558.6 482.4 214.8 709 441.4 365.2 785.2 138.7zm294.9 87.9q-5.8 11.7 -19.5 7.8l-29.3 -11.7q-13.7 -5.9 -7.8 -19.5 1.9 -5.9 7.8 -9.8 5.8 -1.9 11.7 0l29.3 13.7q11.7 5.8 7.8 19.5zm13.7 -130.8h-31.3 31.3 -31.3q-13.6 -2 -15.6 -15.7 2 -13.6 15.6 -15.6h31.3q13.7 2 15.6 15.6 -1.9 13.7 -15.6 15.7z"/></svg>