<svg height="1000" width="1250" xmlns="http://www.w3.org/2000/svg"><path d="M486.3 404.3h-50.8 50.8 -50.8q0 -9.8 5.9 -17.6 5.9 -9.7 19.5 -9.7 21.5 -2 25.4 27.3zM753.9 377H752q-2 -2 -13.7 3.9 -11.7 5.8 -13.7 35.1 2 29.3 13.7 35.2t13.7 3.9h1.9q17.6 -2 21.5 -15.6 5.9 -13.7 5.9 -23.5 -2 -29.3 -13.7 -35.1T753.9 377zm-476.6 46.8q-5.8 3.9 -5.8 13.7 1.9 11.7 5.8 13.7 19.6 7.8 41.1 1.9v-33.2Q310.5 418 296.9 418q-11.7 0 -19.6 5.8zM1250 377q-3.9 132.8 -99.6 210.9 -93.8 78.1 -222.7 54.7 -29.3 52.7 -97.6 87.9Q759.8 763.7 668 724.6q-43 93.8 -127 123.1Q455.1 877 373 843.8q-83.9 -33.3 -121 -129Q132.8 732.4 64.5 660.2 -3.9 589.8 0 490.2q5.9 -99.6 103.5 -164Q72.3 246.1 91.8 168q21.5 -76.2 84 -128.9 60.5 -50.8 152.3 -52.8 117.2 2 191.4 95.7Q584 15.6 677.7 13.7q62.5 0 113.3 31.2t80.1 82.1q93.7 -37.2 179.7 -13.7 85.9 25.4 140.6 95.7 56.6 70.3 58.6 168zM234.4 439.5q0 -17.6 -11.7 -23.5 -11.8 -7.8 -21.5 -9.7l-7.8 -4q-15.7 -1.9 -19.6 -13.6 2 -13.7 19.6 -13.7 15.6 2 29.3 9.8 1.9 0 3.9 -2l1.9 -5.8t3.9 -7.9q0 -1.9 -1.9 -3.9Q209 353.5 181.6 357.4t-31.2 33.2q1.9 17.6 13.7 25.4 11.7 5.9 21.4 7.8 2 2 4 2 17.5 1.9 21.4 15.6 0 13.7 -17.5 13.7 -19.6 0 -37.1 -11.7 -2 -2 -4 0l-3.9 15.6v1.9q7.9 9.8 45 13.7 41 -1.9 41 -35.1zm62.5 -84q-31.3 1.9 -41 9.7v3.9l3.9 13.7q1.9 2 3.9 2l1.9 -2q5.9 -3.9 31.3 -5.8 11.7 0 17.6 3.9 7.8 9.7 5.8 19.5v1.9q-1.9 -1.9 -5.8 -1.9 -21.5 -5.9 -52.8 7.8Q248 419.9 248 437.5q-1.9 15.6 13.7 27.3 19.6 11.8 44.9 7.9 23.5 -2 29.3 -3.9 5.9 -2 5.9 -4v-66.4q2 -9.7 -5.9 -25.4 -5.8 -15.6 -39 -17.5zm91.8 -41v-2h-23.5V470.7h23.5V314.5zM498 371.1q-5.8 -9.8 -35.1 -13.7 -5.9 -1.9 -17.6 2 -11.7 1.9 -23.4 15.6 -15.6 27.3 -11.7 41 0 5.9 1.9 17.6 2 13.7 11.7 23.4 5.9 11.8 45 15.7 31.2 0 35.1 -5.9 2 -2 2 -3.9L500 449.2q0 -1.9 -2 -1.9t-1.9 1.9q-5.9 3.9 -29.3 3.9 -21.5 -1.9 -27.3 -13.6t-4 -17.6v-2h72.3q2 0 2 -1.9v-2q0 -5.8 -2 -17.6 0 -13.6 -9.8 -27.3zm70.4 103.5q41 -1.9 42.9 -35.1Q609.4 421.9 599.6 416q-11.7 -7.8 -21.5 -9.7h-1.9q-2 -2 -5.9 -2 -17.6 -3.9 -19.5 -15.6 0 -11.7 15.6 -13.7 17.6 0 33.2 9.8l2 -2t3.9 -5.8q1.9 -5.9 1.9 -7.9t-1.9 -3.9q-25.4 -11.7 -39.1 -9.7 -37.1 1.9 -39.1 35.1 0 17.6 11.8 25.4 11.7 5.9 21.4 7.8 4 2 5.9 2 17.6 3.9 21.5 15.6 -2 11.7 -19.5 13.7 -19.6 0 -37.1 -11.7 0 -2 -2 -2v2l-5.9 15.6q0 1.9 2 1.9 5.9 9.8 43 13.7zM697.3 361.3q0 -1.9 -2 -1.9h-23.4q0 -2 1.9 -9.8 2 -9.8 7.8 -15.6 13.7 -7.8 21.5 -2h2q1.9 0 1.9 -1.9l5.9 -15.6q1.9 -2 0 -2 -7.8 -3.9 -23.4 -2 -13.7 0 -25.4 9.8 -13.7 19.5 -15.7 39.1h-15.6q-1.9 0 -1.9 1.9L627 377q0 1.9 3.9 1.9h15.6q-5.9 27.4 -7.8 46.9 -7.8 35.1 -9.8 44.9 -1.9 11.7 -3.9 15.6 -2 11.7 -9.8 15.7h-1.9q-2 3.9 -17.6 0 0 -2 -3.9 1.9 0 2 -2 5.9 -1.9 5.8 -1.9 7.8 -2 1.9 0 3.9 17.6 3.9 35.1 0 17.6 -9.8 23.5 -25.4 1.9 -7.8 3.9 -21.5 3.9 -11.7 9.8 -50.8 3.9 -17.5 7.8 -44.9h25.4q1.9 0 1.9 -1.9zm103.5 31.3q0 -5.9 -9.8 -19.6 -9.7 -13.6 -39 -15.6 -43 5.9 -48.9 35.2 -5.8 13.7 0 46.9 0 1.9 9.8 17.5t39.1 17.6q42.9 -5.8 48.8 -35.1 7.8 -33.2 0 -46.9zm89.8 -33.2q-7.8 -2 -21.5 0 -13.6 0 -21.4 11.7v-9.8l-2 -1.9h-21.5V470.7l2 2h19.5l2 -2V416q-2 -13.7 7.8 -29.3Q875 375 882.8 380.9q2 0 2 -2 3.9 -7.8 5.8 -15.6 2 -2 0 -3.9zm91.8 105.4l-3.9 -13.6 3.9 13.6 -3.9 -13.6q-1.9 -2 -3.9 -2 -15.6 5.9 -21.5 3.9 -7.8 2 -19.5 -5.8Q919.9 441.4 919.9 416q-1.9 -11.7 3.9 -25.4Q931.6 377 951.2 377q11.7 0 23.4 1.9 0 2 2 0V377q1.9 -5.9 3.9 -13.7v-2q-37.1 -9.7 -54.7 0 -5.9 2 -17.6 13.7t-13.7 41q-1.9 7.8 5.9 31.3 9.8 23.4 50.8 27.3 15.6 0 29.3 -5.8 1.9 -2 1.9 -4zm105.5 -76.1q-2 -5.9 -11.7 -17.6 -7.8 -13.7 -33.2 -13.7 -45 5.9 -48.9 35.2 -3.9 11.7 -3.9 23.4 2 37.1 21.5 46.9 19.6 11.7 37.1 9.8 31.3 0 35.2 -5.9 1.9 -2 1.9 -3.9l-5.8 -13.7q0 -1.9 -2 -1.9t-1.9 1.9q-5.9 3.9 -27.4 3.9 -23.4 -1.9 -29.3 -13.6t-3.9 -17.6v-2h72.3q1.9 0 1.9 -1.9v-2q2 -7.8 -1.9 -27.3zM1041 377q-13.7 0 -19.5 9.7 -5.9 7.8 -5.9 17.6h50.8Q1060.5 373 1041 377z"/></svg>