<svg height="1000" width="1250" xmlns="http://www.w3.org/2000/svg"><path d="M589.8 664.1q-1.9 1.9 0 0zm486.4 -170q-60.6 0 -113.3 25.4 -3.9 -5.8 -7.8 -13.6 -13.7 -25.4 -17.6 -45 0 -3.9 -2 -7.8 -1.9 -17.6 0 -41 4 -25.4 11.8 -44.9l1.9 -7.8q2 -2 -3.9 -7.8 -3.9 -3.9 -23.4 -5.9 -41 0 -48.9 11.7 -7.8 17.6 -9.7 37.1 -5.9 19.6 -31.3 66.4T785.2 541q-13.7 -23.4 -15.7 -43 -1.9 -3.9 -1.9 -7.8 -3.9 -17.5 -2 -41 5.9 -25.4 13.7 -42.9 2 -7.9 2 -9.8t-4 -7.8q-5.8 -3.9 -23.4 -5.9 -43 2 -48.8 11.7 -2 5.9 -3.9 13.7l-7.8 23.4q-3.9 9.8 -19.6 46.9 -17.5 39.1 -35.1 80.1t-27.4 60.5q-11.7 27.4 -19.5 41.1l-2 1.9v2 -2l-5.8 13.7q-5.9 9.7 -9.8 11.7 -3.9 -2 2 -39.1 3.9 -23.4 11.7 -52.7 7.8 -27.3 11.7 -48.8 5.9 -19.6 5.9 -21.5 5.8 -9.8 -13.7 -21.5 -19.5 -3.9 -23.4 3.9 -2 0 -2 2l-3.9 3.9q3.9 -5.9 3.9 -43 0 -35.2 -41 -41 -27.4 1.9 -58.6 25.4 -31.3 21.5 -52.7 50.8h-2q-27.3 15.6 -82 44.9 -5.9 3.9 -13.7 7.8 -13.7 7.8 -25.4 15.6l-1.9 -1.9q0 -2 -2 -2 -33.2 -33.2 -76.2 -64.4 -46.8 -35.2 -82 -74.3Q93.8 394.5 93.8 343.8q0 -19.6 13.6 -56.7 13.7 -35.1 66.4 -85.9 54.7 -48.9 168 -107.4 146.5 -68.4 248 -62.5T712.9 84q19.5 43 -11.7 97.6 -29.3 56.7 -99.6 101.6 -68.4 46.9 -168 60.6Q377 347.7 345.7 334t-39.1 -23.5Q294.9 294.9 291 300.8q-5.8 7.8 0 19.5 3.9 13.7 23.5 29.3 17.5 15.6 48.8 27.4 29.3 9.7 89.8 7.8 60.6 0 142.6 -31.3 93.8 -37.1 148.4 -119.1 56.7 -80.1 39.1 -164.1 -27.3 -84 -136.7 -107.4Q535.2 -60.5 400.4 -15.6 320.3 11.7 244.1 54.7q-78.1 43 -138.6 99.6Q35.2 220.7 15.6 273.4 -5.9 328.1 2 353.5 17.6 416 70.3 464.8q54.7 48.9 111.3 86 39.1 25.4 64.5 46.9 -2 1.9 -3.9 1.9 -3.9 2 -5.9 3.9 -29.3 11.7 -91.8 52.8T54.7 748q-23.4 58.6 -7.8 95.8t39 42.9q62.5 15.6 119.2 -9.7 54.7 -23.5 89.8 -76.2Q328.1 748 330.1 693.4q0 -54.7 -15.6 -86v-1.9l11.7 -7.8 11.7 -7.9q25.4 -13.6 46.9 -25.3 -11.8 29.3 -17.6 83.9 -2 33.2 9.8 68.4 9.7 33.2 29.3 50.8 15.6 13.7 29.2 9.7 37.2 -3.9 52.8 -48.8 11.7 -25.4 21.5 -46.9l9.7 -21.4q-1.9 0 -3.9 25.3t5.9 48.9q5.8 25.4 29.3 27.3 13.7 -1.9 27.3 -13.7 11.7 -11.7 17.6 -23.4v2l2 -3.9 1.9 -3.9q11.7 -19.6 48.8 -89.9 25.4 -50.8 43 -93.7t19.5 -46.9q3.9 25.4 11.8 50.8 5.8 19.5 17.5 41 3.9 9.7 7.8 17.6l-11.7 15.6q-7.8 11.7 -19.5 25.4l-11.7 15.6q-37.1 41 -46.9 56.6 -7.8 17.6 5.9 27.4 11.7 7.8 31.2 5.8 33.2 -3.9 44.9 -11.7 21.5 -7.8 41.1 -19.5 37.1 -27.4 37.1 -78.1 -2 -29.3 -13.7 -54.7v-3.9q3.9 -2 5.8 -5.9 29.3 -44.9 48.9 -80.1 19.5 -37.1 19.5 -39 3.9 25.4 11.7 50.8 7.8 19.5 19.6 42.9l3.9 7.8q-54.7 46.9 -66.4 86 -17.6 58.6 17.5 64.4 15.7 0 33.2 -7.8 23.5 -7.8 43 -21.5 41 -25.4 44.9 -76.1 0 -23.5 -9.7 -46.9 44.9 -21.5 121.1 -13.7 80 11.7 105.4 48.8 25.4 35.2 21.5 60.6 -5.8 21.5 -17.6 33.2t-17.5 15.6q-11.8 5.9 -9.8 9.8 1.9 5.8 11.7 3.9 7.8 -2 31.3 -19.5t27.3 -56.7q2 -52.7 -43 -93.7 -44.9 -43 -130.8 -45zM238.3 777.3q-29.3 29.3 -60.6 39.1 -29.3 11.7 -46.8 2 -17.6 -11.8 -11.8 -46.9 7.9 -33.2 41.1 -66.4 44.9 -39.1 83.9 -62.5l11.8 -7.8t11.7 -5.9l1.9 -1.9q2 -2 3.9 -2l2 -2q21.5 89.9 -37.1 154.3zM500 597.7q-3.9 7.8 -7.8 19.5 -9.8 29.3 -23.4 56.6 -13.7 29.3 -23.5 29.3 -11.7 -3.9 -13.7 -41Q429.7 627 443.4 582q7.8 -23.4 19.5 -46.8 13.7 -21.5 23.4 -33.2 33.2 -33.2 45 -19.6 3.9 13.7 -9.8 54.7 -13.7 43 -21.5 60.6zm216.8 103.5q-7.8 5.8 -11.7 3.9 0 -3.9 1.9 -5.9 2 0 13.7 -15.6 13.7 -13.7 23.4 -25.4t21.5 -27.3v1.9q-1.9 27.4 -17.6 44.9 -17.5 17.6 -31.2 23.5zm168 -37.1q-7.8 -2 9.7 -41.1 5.9 -19.5 37.1 -46.8 3.9 9.7 3.9 19.5 -1.9 33.2 -19.5 48.8 -15.6 13.7 -31.2 19.6z"/></svg>