<svg height="1000" width="875" xmlns="http://www.w3.org/2000/svg"><path d="M685.5 232.4L578.1 142.6l107.4 89.8L578.1 142.6 722.7 66.4 875 152.3l-189.5 80.1zM375 162.1l89.8 -54.7L375 162.1l89.8 -54.7 66.5 68.4 -107.5 56.6L375 162.1zm-127 13.7l62.5 -43 -62.5 43 62.5 -43 33.3 54.7 -72.3 44.9L248 175.8zm-44.9 171.9l-17.6 -68.4 17.6 68.4 -17.6 -68.4 56.7 -35.2 27.3 68.4 -66.4 35.2zM160.2 183.6L207 148.4l-46.8 35.2L207 148.4l17.6 46.9 -50.8 35.2 -13.6 -46.9zm-45 144.5l-7.8 -56.6 7.8 56.6 -7.8 -56.6 44.9 -29.3 11.8 54.7 -48.9 31.2zm-60.5 31.3l41 -25.4 -41 25.4 41 -25.4 5.9 66.4 -43 23.4 -3.9 -64.4zM2 447.3l39 -19.6L2 447.3l39 -19.6V502L0 519.5l2 -72.2zm117.1 115.2l-56.6 17.6 56.6 -17.6 -56.6 17.6 -2 -91.8 48.9 -21.5 9.7 95.7zm74.3 -125l-60.6 25.4 60.6 -25.4 -60.6 25.4L123 382.8l52.8 -27.3 17.6 82zm46.8 222.7l-80 11.7 80 -11.7 -80 11.7 -15.7 -125 68.4 -19.6 27.3 132.9zm56.7 -273.5l41 111.3 -41 -111.3 41 111.3L248 525.4 220.7 419.9l76.2 -33.2zm166 451.2l-136.7 -7.8 136.7 7.8 -136.7 -7.8L277.3 644.5 384.8 627l78.1 210.9zM298.8 291l82.1 -43 -82.1 43 82.1 -43 54.6 87.9 -99.6 43L298.8 291zm80.1 185.6L498 439.5l-119.1 37.1L498 439.5l103.6 169.9 -156.3 21.5L378.9 476.6zm99.6 -168L609.4 252l-130.9 56.6L609.4 252l128.9 128.9 -173.8 50.7 -86 -123z"/></svg>