<svg height="1000" width="1000" xmlns="http://www.w3.org/2000/svg"><path d="M457 -33.2q2 -39.1 43 -43 41 3.9 44.9 43Q541 7.8 500 11.7 459 7.8 457 -33.2zm154.3 462.9q0 46.9 -31.2 80.1Q546.9 541 500 541t-80.1 -31.2q-31.2 -33.2 -31.2 -80.1t31.2 -80.1q33.2 -31.2 80.1 -31.2t80.1 31.2q31.2 33.2 31.2 80.1zm46.9 177.7Q724.6 546.9 736.3 457h234.4q-5.9 89.9 -44.9 171.9Q888.7 709 822.3 771.5t-148.5 95.7T500 900.4 326.2 867.2Q242.2 834 177.7 771.5 111.3 709 74.2 628.9 35.2 546.9 29.3 457h234.4q11.7 89.9 78.1 150.4Q410.2 666 500 668q89.8 -2 158.2 -60.6zM142.6 197.3q-2 41 -43 46.8Q60.5 240.2 54.7 201.2q1.9 -41 43 -44.9 41 1.9 44.9 41zm714.8 1.9q3.9 -41 43 -42.9 41 1.9 44.9 42.9 -3.9 41 -44.9 44.9 -39.1 -3.9 -43 -44.9zM621.1 109.4Q568.4 152.3 500 154.3q-68.4 -2 -121.1 -44.9Q328.1 64.5 316.4 -2q43 -19.5 91.8 -29.3 0 39.1 27.3 66.5 25.4 25.3 64.5 27.3 39.1 -2 66.4 -27.3 25.4 -27.4 25.4 -66.5 48.8 9.8 91.8 29.3 -11.7 66.5 -62.5 111.4zM162.1 375Q97.7 396.5 33.2 373q5.9 -46.8 21.5 -91.7 15.6 7.8 33.2 11.7 19.5 1.9 37.1 -3.9 17.6 -3.9 31.3 -15.7 15.6 -11.7 23.4 -27.3 9.8 -15.6 11.7 -33.2 3.9 -19.5 -1.9 -37.1 -4 -17.6 -15.7 -31.3 -11.7 -15.6 -27.3 -25.4Q177.7 84 216.8 54.7q52.7 44.9 66.4 111.3 11.7 66.4 -21.5 127 -35.1 58.6 -99.6 82zm675.8 0q-64.5 -23.4 -97.7 -82Q705.1 232.4 716.8 166 730.5 99.6 783.2 54.7q39.1 29.3 70.3 66.4 -33.2 19.5 -43 54.7 -9.7 37.1 9.8 70.3t56.7 43q35.1 9.7 68.3 -7.8 15.6 44.9 21.5 91.7 -64.5 25.4 -128.9 2z"/></svg>