<svg height="1000" width="750" xmlns="http://www.w3.org/2000/svg"><path d="M82 418Q35.2 361.3 35.2 261.7 37.1 113.3 130.9 39.1q91.8 -76.2 230.4 -76.2Q498 -35.2 584 9.8t126.9 84q5.9 3.9 9.8 5.8L623 240.2l-74.2 -46.8 52.8 -76.2Q492.2 46.9 361.3 46.9q-78.1 0 -146.5 39Q148.4 125 142.6 197.3q3.9 48.8 56.6 29.3 68.4 -13.7 109.4 27.3 37.1 39.1 35.2 89.9 -2 52.7 -37.2 89.8 -44.9 43 -111.3 39.1T82 418zm621.1 11.7Q654.3 373 580.1 373q-58.6 -1.9 -97.7 35.2t-41 95.7q0 50.8 37.1 87.9 41 41 109.4 27.3 52.7 -19.5 56.6 31.3 0 11.7 -3.9 23.4 -52.7 123.1 -236.3 127Q248 798.8 123 707l64.5 -76.1 -68.4 -52.8L0 716.8l29.3 27.3q78.1 68.4 173.8 105.5 95.7 35.2 199.2 35.2 76.2 1.9 138.7 -17.6 64.5 -19.5 123.1 -68.4 54.7 -50.8 74.2 -123 19.5 -70.3 7.8 -138.7 -9.8 -66.4 -43 -107.4z"/></svg>