<svg height="1000" width="898.4" xmlns="http://www.w3.org/2000/svg"><path d="M431.6 177.7l-132.8 56.7 132.8 -56.7 -132.8 56.7V7.8L193.4 380.9 298.8 332v255.9L431.6 177.7zM267.6 -9.8l-2 7.8 2 -7.8 -2 7.8 -29.3 103.6q-60.5 23.4 -97.6 76.1 -35.2 52.8 -37.1 121.1 1.9 78.2 44.9 132.8 44.9 56.7 117.2 72.3v105.5Q148.4 589.8 74.2 503.9 2 419.9 0 298.8 2 177.7 78.1 91.8 152.3 7.8 267.6 -9.8zM877 863.3q-37.2 29.3 -56.7 19.5 -9.8 -3.9 -52.7 -37.1 -27.4 -21.5 -64.5 -48.8 -41 -29.3 -54.7 -50.8 -13.6 -19.5 -21.4 -43 -4 -7.8 -7.9 -17.6Q605.5 654.3 576.2 627t-70.3 -43l-17.6 -29.3q-74.2 50.8 -160.2 56.6l3.9 -13.6L363.3 502q70.3 -19.6 113.3 -74.3Q521.5 373 521.5 298.8q0 -82 -50.8 -142.5Q419.9 97.7 334 87.9V-13.7Q459 -2 541 84t84 214.8q-2 99.6 -56.6 175.8l29.3 19.5q13.6 39.1 42.9 68.4 27.4 29.3 58.6 43 9.8 3.9 17.6 7.8 21.5 7.8 43 21.5 21.5 15.6 50.7 54.7 27.4 37.1 48.9 64.4 33.2 43 37.1 52.7 9.8 19.6 -19.5 56.7zm-19.6 -35.2q-1.9 -13.6 -15.6 -15.6 -13.7 2 -15.6 15.6 1.9 13.7 15.6 15.7 13.7 -2 15.6 -15.7z"/></svg>