<svg height="1000" width="875" xmlns="http://www.w3.org/2000/svg"><path d="M689.5 -13.7h-504 504 -504q-78.1 2 -130.8 54.7T0 171.9v503.9q2 78.1 54.7 130.8t130.8 54.7h504q80 -1.9 130.8 -54.7Q873 753.9 875 675.8V171.9Q873 93.8 820.3 41 769.5 -11.7 689.5 -13.7zm-97.7 617.2q-43 72.3 -119.1 91.8 -76.2 21.5 -150.4 -17.6 -37.1 52.8 -66.4 31.3 -31.3 -21.5 -15.7 -58.6l31.3 -52.7Q293 566.4 328.1 582q23.5 13.7 17.6 11.8 -3.9 -4 19.5 9.7 41.1 23.5 86 11.7 42.9 -11.7 68.3 -52.7 23.5 -43 11.8 -85.9 -11.8 -45 -52.8 -70.3Q459 394.5 460.9 396.5l-1.9 -2q-3.9 0 -17.6 -7.8 -33.2 -25.4 -15.6 -58.6 19.5 -31.2 58.6 -15.6 21.5 13.7 17.6 11.7 -4 -3.9 17.5 9.8 72.3 43 91.8 121.1 21.5 76.2 -19.5 148.4zm43 -406.2q-9.8 17.5 -15.7 27.3 -11.7 21.5 -15.6 25.4 -3.9 5.9 -5.8 7.8 -19.6 21.5 -50.8 7.8Q523.4 252 527.3 253.9q5.9 3.9 -17.5 -9.8 -41 -23.4 -86 -11.7 -42.9 11.7 -68.3 52.8 -23.5 42.9 -11.7 85.9 11.7 44.9 52.7 70.3 1.9 0 17.6 9.8t19.5 9.7q33.2 25.4 15.6 58.6 -19.5 31.3 -58.6 15.7Q367.2 521.5 373 523.4q4 3.9 -17.5 -9.7 -72.3 -43 -91.8 -119.2 -21.5 -78.1 19.5 -150.4 43 -72.2 119.1 -91.8 76.2 -21.4 150.4 19.6l9.8 -17.6q25.4 -33.2 56.6 -15.6 33.2 19.5 15.7 58.6z"/></svg>