<svg height="1000" width="1250" xmlns="http://www.w3.org/2000/svg"><path d="M1054.7 386.7q7.8 -35.1 7.8 -72.2Q1058.6 175.8 966.8 82 873 -9.8 734.4 -13.7q-115.3 2 -201.2 70.3Q445.3 125 416 236.3q-46.9 -39 -107.4 -41 -70.3 2 -115.2 48.8Q146.5 291 144.5 359.4q0 21.5 5.9 44.9 -64.5 29.3 -99.6 87.9Q13.7 550.8 11.7 621.1 15.6 722.7 82 791q68.4 68.4 170 70.3h746q101.6 -1.9 170 -70.3 66.4 -68.3 70.3 -169.9 -2 -84 -52.8 -148.4 -48.8 -64.5 -130.8 -86zM390.6 709q-3.9 25.4 -29.3 29.3h-60.5Q273.4 734.4 269.5 709V492.2q3.9 -27.4 31.3 -31.3h60.5q25.4 3.9 29.3 31.3V709zm173.9 0q-2 25.4 -29.3 29.3h-60.6Q447.3 734.4 445.3 709V451.2q2 -27.4 29.3 -29.3h60.6q27.3 1.9 29.3 29.3V709zm175.7 0q-3.9 25.4 -29.3 29.3h-60.5Q623 734.4 619.1 709V390.6q3.9 -27.3 31.3 -29.3h60.5q25.4 2 29.3 29.3V709zm170 0q-3.9 25.4 -29.3 29.3h-56.7Q796.9 734.4 794.9 709V269.5q2 -27.3 29.3 -31.2h56.7q25.4 3.9 29.3 31.2V709z"/></svg>