<svg height="1000" width="875" xmlns="http://www.w3.org/2000/svg"><path d="M195.3 724.6l60.6 27.4 -60.6 -27.4 60.6 27.4 7.8 -19.6 -60.6 -27.3zm76.2 35.2l60.5 25.4 -60.5 -25.4 60.5 25.4 7.8 -19.6 -58.5 -25.4zm337.9 -27.4l7.8 19.6 -7.8 -19.6 7.8 19.6 60.5 -27.4L668 705.1zM349.6 793l58.6 27.3L349.6 793l58.6 27.3 9.8 -19.5 -58.6 -27.4zM117.2 691.4l60.5 25.4 -60.5 -25.4 60.5 25.4 7.8 -17.6L127 671.9zm414.1 74.2l7.8 19.6 -7.8 -19.6 7.8 19.6 60.5 -25.4 -9.8 -19.6zm-78.2 35.2l9.8 19.5 -9.8 -19.5 9.8 19.5L521.5 793l-7.8 -19.6zM685.5 699.2l7.9 17.6 -7.9 -17.6 7.9 17.6 60.5 -25.4 -7.8 -19.5zM332 15.6h-64.4H332h-64.4v19.6H332V15.6zm-91.8 0h-66.4 66.4 -66.4v19.6h66.4V15.6zm-91.8 0H82h66.4H82v19.6h66.4V15.6zm275.4 0h-64.4 64.4 -64.4v19.6h64.4V15.6zm185.6 0H543h66.4H543v19.6h66.4V15.6zm91.8 0h-66.4 66.4 -66.4v19.6h66.4V15.6zm-185.6 0h-64.4 64.4 -64.4v19.6h64.4V15.6zm277.4 0h-66.4H793h-66.4v19.6H793V15.6zM103.5 609.4H82h21.5H82v66.4h21.5v-66.4zM240.2 187.5h-66.4 66.4 -66.4V209h66.4v-21.5zM103.5 209h44.9 -44.9 44.9v-21.5H82v66.4h21.5V209zm330.1 445.3q76.2 -2 125 -50.8 50.8 -50.8 52.7 -126.9 -1.9 -76.2 -52.7 -125 -48.8 -50.8 -125 -52.8 -76.2 2 -127 52.8 -50.7 48.8 -52.7 125 2 76.1 52.7 126.9 50.8 48.8 127 50.8zM339.8 437.5q2 -35.2 33.2 -48.8Q404.3 375 435.5 377q43 1.9 78.2 19.5l7.8 3.9 -15.6 31.2h-2Q492.2 418 472.7 412.1q-21.5 -5.8 -39.1 -5.8 -15.6 0 -35.2 5.8Q377 418 375 435.5q2 11.8 17.6 15.7 13.7 1.9 37.1 1.9 35.1 -1.9 66.4 7.8 31.2 7.9 33.2 48.9 -3.9 37.1 -35.2 48.8 -33.2 13.7 -64.4 11.7 -50.8 2 -91.8 -23.4l17.6 -35.2q11.7 17.6 31.2 23.5 21.5 5.8 39.1 5.8 15.6 0 39 -5.8 23.5 -3.9 25.4 -23.5 0 -15.6 -17.5 -19.5t-43 -3.9q-33.2 1.9 -60.6 -5.9 -29.3 -9.7 -29.3 -44.9zm-236.3 -166H82h21.5H82v66.4h21.5v-66.4zm668 404.3H793h-21.5H793v-66.4h-21.5v66.4zm-668 -150.4H82h21.5H82v64.4h21.5v-64.4zM0 -68.4v793 -793 793L433.6 916 875 724.6v-793H0zm818.4 755.9l-384.8 168 384.8 -168 -384.8 168 -377 -168V160.2h761.8v527.3zm0 -584H56.6h761.8H56.6V-11.7h761.8v115.2zM103.5 357.4H82h21.5H82v64.5h21.5v-64.5zm0 84H82h21.5H82v64.5h21.5v-64.5zM332 187.5h-64.4H332h-64.4V209H332v-21.5zm439.5 318.4H793h-21.5H793v-64.5h-21.5v64.5zm0 -84H793h-21.5H793v-64.5h-21.5v64.5zM423.8 187.5h-64.4 64.4 -64.4V209h64.4v-21.5zm347.7 150.4H793h-21.5H793v-64.5h-21.5v64.5zm0 253.9H793h-21.5H793v-66.4h-21.5v66.4zM515.6 187.5h-64.4 64.4 -64.4V209h64.4v-21.5zm93.8 0H543h66.4H543V209h66.4v-21.5zm162.1 66.4H793h-21.5H793v-66.4h-64.5V209h43v44.9zm-70.3 -66.4h-66.4 66.4 -66.4V209h66.4v-21.5z"/></svg>