<svg height="1000" width="1000" xmlns="http://www.w3.org/2000/svg"><path d="M791 570.3l11.7 -7.8 17.6 -7.8q2 -2 7.8 -5.9l7.8 -7.8 2 -1.9q9.8 -9.8 21.5 -9.8 5.8 0 13.6 3.9l60.6 -54.7q1.9 -1.9 3.9 -1.9 9.8 -5.9 17.6 0 9.7 5.8 1.9 21.4l-64.4 54.7v3.9q1.9 5.9 0 11.8 -2 3.9 -5.9 7.8l-3.9 3.9 -5.8 5.8 -35.2 25.4q-5.9 3.9 -9.8 7.8 -7.8 2 -13.6 5.9 -2 0 -2 2h-3.9q-17.6 7.8 -35.2 9.7 -7.8 72.3 -48.8 132.8 -50.8 76.2 -140.6 115.3 -87.9 39 -191.4 39Q253.9 921.9 166 859.4 62.5 787.1 62.5 666v-9.7Q66.4 574.2 111.3 500q43 -72.3 128.9 -99.6 43 -11.7 87.9 -11.7t93.8 15.6q48.8 17.6 109.4 58.6l105.4 70.3q44.9 29.3 80.1 39.1Q709 500 664.1 447.3 617.2 394.5 546.9 369.1L502 353.5q-62.5 -21.5 -93.8 -43 -82 -56.6 -91.8 -154.2v-17.6q0 -95.7 76.2 -158.2Q459 -76.2 552.7 -76.2q70.3 0 127 41t62.5 115.3l1.9 19.5q0 54.7 -29.3 93.8 -27.3 39 -50.7 39 -3.9 0 -7.8 -1.9L589.8 293q-15.6 9.7 -21.4 -2 -5.9 -7.8 0 -17.6h1.9q0 -1.9 3.9 -3.9l60.6 -58.6v-9.7q-2 -11.7 7.8 -19.6 41 -37.1 41 -83.9T648.4 17.6q-35.1 -31.3 -97.6 -31.3 -76.2 0 -125 45Q375 78.1 375 142.6q0 52.7 41 93.7 39.1 43 123.1 66.4Q656.3 335.9 716.8 416q54.7 70.3 62.5 160.2 5.9 -3.9 11.7 -5.9zM574.2 273.4q0 2 3.9 2l52.8 -46.9 3.9 -3.9q0 -7.8 -31.3 19.5 -29.3 27.4 -29.3 29.3zm15.6 11.8q0 -2 -1.9 -2 -3.9 0 -5.9 2 -5.8 0 -7.8 1.9 -1.9 0 -1.9 2t3.9 1.9h5.8q7.8 -1.9 7.8 -5.8zm45 -39.1q0 -7.8 -9.8 0 -5.9 3.9 -11.7 11.7l-9.8 9.8q-9.7 9.7 -9.7 11.7l1.9 2h2l19.5 -15.7q17.6 -17.6 17.6 -19.5zm310.5 234.4l-58.6 52.7 58.6 -52.7 -58.6 52.7q5.9 3.9 7.8 7.8l58.6 -52.7v-3.9q-1.9 -2 -7.8 -3.9zm-1.9 -2h-2 2 -2l-52.7 43 3.9 3.9 50.8 -46.9zM716.8 634.8q-23.4 -5.9 -44.9 -15.7Q627 601.6 560.5 556.6l-72.2 -48.8q-46.9 -29.3 -84 -44.9 -39.1 -13.7 -76.2 -13.7h-9.7q-95.7 3.9 -146.5 70.3Q123 580.1 123 664.1q0 91.8 74.3 144.5t203.1 52.7q101.6 0 171.9 -35.1 70.3 -37.1 107.4 -95.7 29.3 -46.9 37.1 -95.7z"/></svg>