<svg height="1000" width="1000" xmlns="http://www.w3.org/2000/svg"><path d="M789.1 812.5Q660.2 908.2 500 908.2 365.2 906.3 255.9 841.8T82 668 15.6 423.8Q17.6 289.1 82 179.7T255.9 5.9 500 -60.5q185.5 1.9 324.2 125 2 1.9 2 7.8 -3.9 3.9 -7.8 3.9Q763.7 68.4 707 68.4q-193.3 0 -312.5 76.1Q277.3 222.7 273.4 371.1q2 105.5 52.8 171.9 50.8 64.4 128.9 105.4t164 72.3q101.6 35.2 170 82 1.9 2 1.9 5.9 0 1.9 -1.9 3.9zM982.4 378.9q0 -1.9 -1.9 -3.9Q906.3 312.5 837.9 283.2 771.5 255.9 697.3 255.9q-78.2 1.9 -111.4 25.4t-41 48.8q-5.8 25.4 -3.9 31.2 2 60.6 66.4 97.7 62.5 35.1 152.4 66.4 93.7 33.2 181.6 78.1 2 2 5.9 0 1.9 0 3.9 -3.9 41 -105.5 31.2 -220.7z"/></svg>