<svg height="1000" width="875" xmlns="http://www.w3.org/2000/svg"><path d="M757.8 127q0 -5.9 -7.8 -7.9h-37.1q-31.3 -1.9 -35.2 -1.9 -1.9 -2 -23.4 -21.5T619.1 60.5v845.8l246.1 -60.6q-1.9 -5.9 -17.5 -111.3T812.5 488.3Q791 347.7 775.4 242.2 759.8 134.8 757.8 127zM564.5 60.5Q558.6 43 548.8 27.3q-31.2 -60.5 -85.9 -60.5h-7.8l-2 -2 -1.9 -1.9q-23.5 -25.4 -58.6 -23.4 -74.2 3.9 -132.8 95.7 -41 68.3 -50.8 136.7 -87.9 25.4 -93.8 29.3 -19.5 3.9 -23.4 9.7 -5.9 5.9 -7.8 25.4Q84 248 72.3 334 60.5 418 46.9 527.3T21.5 718.8q-9.8 82 -11.7 87.8l591.8 101.6V52.7h-9.8l-27.3 7.8zM455.1 95.7q-23.5 7.8 -50.8 15.6 -23.4 7.8 -46.9 13.7Q373 66.4 406.3 27.3 419.9 13.7 439.5 2q19.5 48.8 15.6 93.7zm-62.5 -125q13.7 0 27.3 7.8 -19.5 9.8 -37.1 27.4 -44.9 54.6 -60.5 130.8 -43 13.7 -82.1 25.4 13.7 -62.5 54.7 -123 41 -62.5 97.7 -68.4zm-91.8 431.6q5.8 27.4 48.8 48.9 31.3 17.6 60.6 46.8 29.3 29.3 33.2 82.1 3.9 70.3 -31.3 113.3t-95.7 48.8q-72.3 0 -109.4 -23.4 -39 -23.5 -39 -27.4l21.5 -85.9q1.9 1.9 31.2 19.5t62.5 17.6q19.5 -2 29.3 -15.6 7.8 -11.8 7.8 -23.5 -7.8 -41 -48.8 -62.5Q248 525.4 226.6 502q-21.5 -25.4 -25.4 -68.4 -5.9 -72.3 41 -127Q287.1 252 384.8 242.2q39 -2 58.6 3.9 19.5 3.9 19.5 5.9l-31.3 111.3 -21.4 -5.9q-19.6 -7.8 -50.8 -5.8 -43 3.9 -50.8 23.4 -9.8 17.6 -7.8 27.3zM486.3 85.9q2 -39 -13.6 -85.9 27.3 7.8 41 29.3 15.6 23.4 19.5 43 -19.5 5.8 -46.9 13.6z"/></svg>