<svg height="1000" width="1000" xmlns="http://www.w3.org/2000/svg"><path d="M380.9 -60.5l9.7 44.9 -9.7 -44.9 9.7 44.9Q324.2 0 265.6 35.2L242.2 -3.9Q306.6 -43 380.9 -60.5zm240.2 0l-11.7 44.9 11.7 -44.9 -11.7 44.9q66.4 15.6 125 50.8l23.4 -39.1Q693.4 -43 619.1 -60.5h2zM72.3 166Q33.2 230.5 15.6 304.7l44.9 9.8q15.7 -66.5 50.8 -125L72.3 166zM46.9 423.8q0 -33.2 5.8 -68.3L5.9 349.6q-11.8 74.2 0 148.4l46.8 -5.8Q46.9 459 46.9 423.8zm710.9 427.8l-23.4 -39.1 23.4 39.1 -23.4 -39.1q-58.6 35.2 -125 50.8l11.7 46.9q72.3 -19.6 136.7 -58.6zM953.1 423.8q0 33.2 -5.8 68.4l46.8 5.8q11.8 -74.2 0 -148.4l-46.8 5.9q5.8 35.1 5.8 68.3zM986.3 543l-46.8 -9.8 46.8 9.8 -46.8 -9.8q-15.7 66.4 -50.8 125l39 23.4Q966.8 617.2 986.3 543zM568.4 871.1q-68.4 11.7 -136.8 0l-5.8 46.9q74.2 11.7 148.4 0l-5.8 -46.9zM865.2 693.4q-41 54.6 -95.7 95.7l27.4 37.1q60.5 -44.9 105.4 -105.5l-37.1 -29.3v2zM769.5 58.6q54.7 41 95.7 95.7L902.3 127Q857.4 66.4 796.9 21.5l-27.4 37.1zm-634.7 95.7q41 -54.7 95.7 -95.7L203.1 21.5Q142.6 66.4 97.7 127l37.1 27.3zM927.7 166l-39 23.5 39 -23.5 -39 23.5q35.1 58.5 50.8 125l46.8 -11.8Q966.8 230.5 927.7 166zM431.6 -23.4q68.4 -11.8 136.8 0l5.8 -46.9Q500 -82 425.8 -70.3l5.8 46.9zM160.2 837.9l-97.7 23.4 97.7 -23.4 -97.7 23.4 23.4 -97.6 -46.8 -9.8 -21.5 97.7q-3.9 11.7 0 23.4t11.7 19.5 19.5 11.8 25.4 0l95.7 -21.5 -9.7 -46.9zM48.8 712.9l46.9 9.8 -46.9 -9.8 46.9 9.8 15.6 -66.4Q76.2 597.7 60.5 533.2L15.6 543q13.7 62.5 44.9 119.1l-11.7 48.8v2zm218.8 101.6l-66.4 15.6 66.4 -15.6 -66.4 15.6 9.7 44.9 50.8 -11.7q54.7 31.2 117.2 46.9l11.7 -46.9q-64.4 -15.6 -123 -50.8v2zM500 17.6q-111.3 0 -207 56.6 -93.8 56.7 -148.5 154.3 -52.7 95.7 -50.7 207 3.9 111.4 62.5 205.1l-39.1 166 166 -39q82 50.8 177.7 60.5 93.8 9.8 183.6 -25.4 89.9 -33.2 154.3 -103.5t91.8 -162.1q25.4 -93.7 9.8 -187.5Q882.8 255.9 824.2 179.7 767.6 103.5 681.6 60.5T500 17.6z"/></svg>