<svg height="1000" width="1000" xmlns="http://www.w3.org/2000/svg"><path d="M939.5 48.8H732.4h207.1H732.4q-21.5 0 -37.1 15.7 -13.7 13.6 -13.7 35.1v78.1H318.4V99.6q0 -21.5 -15.7 -35.1Q289.1 48.8 267.6 48.8H60.5Q13.7 52.7 7.8 99.6V748q3.9 46.9 52.7 50.8h879q48.8 -3.9 52.7 -50.8V99.6Q986.3 52.7 939.5 48.8zM293 619.1q-54.7 -1.9 -91.8 -39 -37.1 -35.2 -39.1 -91.8 2 -54.7 39.1 -91.8 37.1 -35.2 91.8 -37.1 54.7 1.9 91.8 37.1 37.1 37.1 37.1 91.8 0 56.6 -37.1 91.8 -37.1 37.1 -91.8 39zm414 0q-54.7 -1.9 -91.8 -39 -37.1 -35.2 -37.1 -91.8 0 -54.7 37.1 -91.8 37.1 -35.2 91.8 -37.1 54.7 1.9 91.8 37.1 37.1 37.1 39.1 91.8 -2 56.6 -39.1 91.8 -37.1 37.1 -91.8 39z"/></svg>