<svg height="1000" width="875" xmlns="http://www.w3.org/2000/svg"><path d="M0 -13.7l136.7 232.5L0 -13.7l136.7 232.5L21.5 195.3 158.2 373q-9.8 50.8 0 101.6L21.5 652.3l115.2 -23.4L0 861.3 232.4 724.6 209 839.8 386.7 703.1q50.8 9.8 101.6 0L666 839.8 642.6 724.6 875 861.3 738.3 628.9l115.2 23.4L716.8 474.6q9.8 -50.8 0 -101.6L853.5 195.3l-115.2 23.5L875 -13.7 642.6 123 666 7.8 488.3 144.5q-25.4 -5.8 -50.8 -5.8t-50.8 5.8L209 7.8 232.4 123 0 -13.7zm437.5 195.3q97.7 0 171.9 70.4 70.3 74.2 70.3 171.8t-70.3 171.9Q535.2 666 437.5 666T265.6 595.7Q195.3 521.5 195.3 423.8T265.6 252q74.2 -70.4 171.9 -70.4zm0 70.4q-68.4 0 -121.1 50.7 -50.8 52.8 -50.8 121.1t50.8 121.1q52.7 50.8 121.1 50.8t121.1 -50.8q50.8 -52.7 50.8 -121.1T558.6 302.7Q505.9 252 437.5 252z"/></svg>