<svg height="1000" width="1000" xmlns="http://www.w3.org/2000/svg"><path d="M54.7 240.2l-37.1 48.9 37.1 -48.9 -37.1 48.9h177.7L207 33.2l-152.3 207zM773.4 13.7l-250 -27.4 250 27.4 -250 -27.4 263.7 287.1L773.4 13.7zM218.8 349.6l-21.5 -43 21.5 43 -21.5 -43H19.5L459 818.4zm3.9 -60.5h554.6H222.7h554.6L619.1 117.2 500 -11.7zm582 17.5L543 818.4 804.7 306.6 543 818.4 980.5 306.6H804.7zm5.8 -248L793 33.2l17.5 25.4L793 33.2l1.9 35.2 11.7 220.7h175.8zm-587.8 48.8l-9.8 166 9.8 -166 -9.8 166L478.5 -13.7 226.6 13.7zm560.5 199.2H216.8h566.4H216.8l84 162.2L500 861.3 783.2 306.6z"/></svg>