<svg height="1000" width="1250" xmlns="http://www.w3.org/2000/svg"><path d="M1250 566.4q-2 99.6 -66.4 160.2 -64.5 62.5 -162.1 64.4Q900.4 787.1 818.4 712.9 736.3 640.6 666 544.9q-68.3 -93.7 -150.4 -166Q435.5 306.6 318.4 302.7q-107.5 3.9 -162.1 64.5 -52.8 62.5 -52.8 142.6 2 82 56.7 142.5 56.6 62.5 167.9 64.5 64.5 0 128.9 -23.4 64.5 -21.5 117.2 -58.6 3.9 -3.9 11.7 -9.8 17.6 -19.5 33.2 -23.4 17.6 1.9 19.6 21.4 0 11.8 -11.7 25.4 -11.8 11.8 -23.5 21.5 -62.5 54.7 -142.6 86Q382.8 789.1 300.8 791q-125 -1.9 -211 -80.1Q3.9 634.8 0 507.8q3.9 -128.9 85.9 -209 84 -80 212.9 -82 142.6 3.9 238.3 84 93.8 80.1 169.9 181.6 64.5 86 134.8 148.5t164.1 66.4q95.7 -5.9 126.9 -72.3 31.3 -64.5 0 -130.9t-121.1 -70.3q-29.3 2 -54.7 11.7 -21.5 9.8 -37.1 9.8Q892.6 443.4 888.7 416q1.9 -17.6 5.8 -35.1t5.9 -37.1Q896.5 246.1 834 183.6 769.5 123 671.9 121.1q-56.7 1.9 -91.8 19.5 -37.1 19.6 -58.6 37.1 -15.6 13.7 -23.5 15.7 -19.5 -2 -21.4 -23.5 1.9 -15.6 13.6 -27.3 39.1 -43 91.8 -64.5T691.4 56.6q119.1 3.9 195.3 78.2 74.2 72.2 76.2 191.4 0 19.5 -2 41 35.2 -9.8 70.4 -9.8 91.7 2 154.2 58.6 62.5 58.6 64.5 150.4z"/></svg>