<svg height="1000" width="875" xmlns="http://www.w3.org/2000/svg"><path d="M830.1 509.8q7.8 -41 7.8 -86Q834 253.9 720.7 140.6T437.5 23.4q-43 0 -85.9 7.9 -56.7 -43 -132.8 -45 -93.8 2 -154.3 64.5Q2 111.3 0 205.1q2 76.2 44.9 132.8 -7.8 41 -7.8 85.9Q41 593.8 154.3 707t283.2 117.2q43 0 85.9 -7.8 56.7 43 132.9 44.9 91.7 -1.9 154.2 -64.4T875 642.6q-2 -76.2 -44.9 -132.8zM449.2 687.5q-97.6 0 -166 -37.1 -66.4 -35.2 -68.4 -89.9 0 -23.4 13.7 -41t43 -17.5q37.1 3.9 60.5 35.1 17.6 17.6 43 35.2 25.4 15.6 68.4 17.5 80 -3.9 83.9 -52.7Q525.4 513.7 505.9 502q-19.6 -9.8 -54.7 -17.6 -3.9 0 -5.9 -2 -17.6 -3.9 -33.2 -7.8Q328.1 459 273.4 427.7 216.8 396.5 214.8 312.5q4 -85.9 68.4 -123 66.4 -35.2 144.5 -35.2 84 0 148.5 29.3t68.3 78.1q-1.9 25.4 -15.6 44.9 -15.6 17.6 -44.9 17.6 -33.2 -1.9 -52.7 -27.3 -15.7 -13.7 -35.2 -25.4 -21.5 -11.7 -58.6 -11.7 -78.1 -2 -82 42.9 0 25.4 25.4 35.2 25.4 11.7 78.1 23.4 15.6 2 31.2 5.9 64.5 11.7 119.2 44.9T668 519.5q-3.9 86 -68.4 127 -66.4 41 -150.4 41z"/></svg>