<svg height="1000" width="875" xmlns="http://www.w3.org/2000/svg"><path d="M183.6 539.1q0 39 -27.3 64.4 -25.4 27.4 -64.5 27.4T27.3 603.5Q2 578.1 0 539.1 2 500 27.3 474.6t64.5 -27.3h91.8v91.8zm46.9 0q0 -39.1 27.3 -64.5 25.4 -25.4 64.5 -27.3 39 1.9 64.4 27.3t27.4 64.5v230.4q-2 39.1 -27.4 64.5t-64.4 27.3Q283.2 859.4 257.8 834q-27.3 -25.4 -27.3 -64.5V539.1zm91.8 -369.2q-39.1 0 -64.5 -27.3Q230.5 117.2 230.5 78.1t27.3 -64.4q25.4 -25.4 64.5 -27.4 39 2 64.4 27.4t27.4 64.4v91.8h-91.8zm0 46.9q39 0 64.4 27.3 25.4 25.4 27.4 64.5 -2 39.1 -27.4 64.4t-64.4 27.4H91.8Q52.7 398.4 27.3 373T0 308.6q2 -39.1 27.3 -64.5 25.4 -27.3 64.5 -27.3h230.5zm369.1 91.8q0 -39.1 27.4 -64.5 25.3 -27.3 64.4 -27.3t64.5 27.3q25.3 25.4 27.3 64.5 -2 39.1 -27.3 64.4t-64.5 27.4h-91.8v-91.8zm-46.9 0q0 39.1 -27.3 64.4 -25.4 25.4 -64.5 27.4 -39 -2 -64.4 -27.4t-27.4 -64.4V78.1q2 -39 27.4 -64.4t64.4 -27.4q39.1 2 64.5 27.4 27.3 25.4 27.3 64.4v230.5zm-91.8 369.1q39.1 0 64.5 27.4 27.3 25.4 27.3 64.4T617.2 834q-25.4 25.4 -64.5 27.3 -39 -1.9 -64.4 -27.3t-27.4 -64.5v-91.8h91.8zm0 -46.8q-39 0 -64.4 -27.4 -25.4 -25.4 -27.4 -64.4 2 -39.1 27.4 -64.5t64.4 -27.3h230.5q39.1 1.9 64.5 27.3t27.3 64.5q-2 39 -27.3 64.4 -25.4 27.4 -64.5 27.4H552.7z"/></svg>