<svg height="1000" width="1000" xmlns="http://www.w3.org/2000/svg"><path d="M367.2 224.6q-50.8 0 -85.9 33.2 -33.3 31.3 -35.2 78.1 1.9 48.9 35.2 80.1 35.1 31.3 85.9 33.2 50.8 -1.9 84 -33.2 35.1 -31.2 35.1 -80.1 0 -46.8 -35.1 -78.1 -33.2 -33.2 -84 -33.2zm279.3 0q-50.8 0 -86 33.2 -33.2 31.3 -35.1 78.1 1.9 48.9 35.1 80.1 35.2 31.3 86 33.2 50.8 -1.9 85.9 -33.2 33.2 -31.2 35.2 -80.1 -2 -46.8 -35.2 -78.1 -35.1 -33.2 -85.9 -33.2zm306.6 175.8l-11.7 7.8 11.7 -7.8 -11.7 7.8V21.5q-1.9 -41 -27.3 -68.4t-62.5 -29.3H150.4q-39.1 2 -64.5 29.3T60.5 21.5v386.7l-7.8 -3.9q-1.9 -2 -5.8 -3.9 -21.5 -13.7 -33.2 -2 -9.8 13.7 1.9 35.2 52.8 72.3 209 140.6 -39.1 140.6 -5.8 222.7 33.2 84 97.6 111.3 62.5 29.3 115.2 3.9 52.8 -23.4 54.7 -93.7V628.9q5.9 2 11.7 2l15.7 3.9v183.6q1.9 70.3 54.7 95.7 52.7 23.4 115.2 -5.9Q748 880.9 781.3 798.8q33.2 -84 -4 -222.6Q931.6 505.9 984.4 435.5q11.7 -23.4 1.9 -37.1 -9.7 -11.7 -33.2 2zm-60.5 37.1q-93.8 48.8 -171.9 56.6 -76.2 5.9 -126.9 2h-13.7q-66.4 0 -66.4 48.8 -33.2 -27.3 -39.1 -35.1Q459 494.1 419.9 496.1h-15.6q-48.8 3.9 -125 -2 -74.2 -7.8 -166 -52.7V64.5q0 -48.9 17.6 -70.4 15.6 -19.5 62.5 -17.5h619.1q85.9 -3.9 80.1 87.9v373z"/></svg>