<svg height="1000" width="1000" xmlns="http://www.w3.org/2000/svg"><path d="M970.7 640.6Q959 615.2 937.5 603.5q-3.9 -1.9 -7.8 -1.9 -2 -2 -5.9 -3.9l-7.8 -3.9Q849.6 558.6 814.5 505.9q-11.8 -15.7 -19.6 -31.3 -1.9 -9.8 0 -13.7t5.9 -5.8q11.7 -7.8 21.5 -13.7 13.6 -7.8 21.5 -13.7 27.3 -19.5 39 -41 17.6 -35.1 3.9 -70.3 -21.5 -48.8 -78.1 -50.8 -11.7 0 -23.4 2 -2 0 -5.9 1.9 0 -33.2 -2 -68.3 -5.8 -58.6 -23.4 -93.8 -17.6 -37.1 -41 -60.5Q685.5 15.6 648.4 -5.9 582 -43 500 -43T351.6 -5.9q-37.1 21.5 -64.5 52.8 -23.4 25.4 -41 60.5t-23.4 93.8q-2 35.1 -2 68.3 -3.9 0 -5.9 -1.9 -11.7 -2 -23.4 -2 -56.6 2 -78.1 50.8 -13.7 35.2 3.9 70.3 11.7 21.5 39.1 41 5.8 3.9 15.6 9.8 3.9 2 5.8 3.9 7.8 5.9 19.6 13.7 3.9 1.9 7.8 5.8 1.9 3.9 -2 13.7 -5.8 15.6 -17.6 31.3 -35.1 50.7 -99.6 85.9 -5.8 3.9 -9.7 5.9 -31.3 11.7 -46.9 42.9 -11.7 31.3 17.6 62.5 9.7 11.7 23.4 19.6 27.4 15.6 58.6 23.4 7.8 1.9 11.7 5.9 5.9 3.9 7.8 11.7 2 5.8 7.9 15.6 7.8 11.7 17.5 17.6 29.3 17.6 64.5 15.6 33.2 0 72.2 11.7 17.6 5.9 37.2 19.6 23.4 15.6 60.5 31.2 37.1 13.7 91.8 15.6 54.7 -1.9 91.8 -15.6 37.1 -15.6 60.5 -31.2 19.6 -13.7 37.2 -19.6 39 -11.7 70.3 -11.7h1.9q35.2 2 64.5 -13.7 11.7 -9.7 19.5 -23.4 3.9 -5.9 5.9 -11.7 1.9 -7.8 7.8 -11.7 3.9 -4 9.7 -5.9 31.3 -7.8 60.6 -23.4 13.7 -7.9 25.4 -19.6v-1.9q27.3 -29.3 15.6 -60.6zm-66.4 35.2q-33.2 15.6 -56.6 21.5 -17.6 3.9 -31.3 11.7 -13.7 9.8 -13.7 25.4 0 13.6 -7.8 19.5 -9.7 5.9 -37.1 5.9 -33.2 -2 -85.9 13.6 -23.5 9.8 -46.9 23.5 -23.4 15.6 -50.8 27.3 -29.3 11.7 -74.2 13.7 -43 -2 -72.3 -13.7T377 796.9q-23.5 -13.7 -48.9 -23.5 -52.7 -15.6 -85.9 -13.6 -27.4 0 -37.1 -5.9 -7.8 -5.9 -7.8 -19.5 0 -15.6 -13.7 -25.4 -13.7 -7.8 -31.3 -11.7 -23.4 -5.9 -56.6 -21.5Q78.1 664.1 82 658.2t11.8 -9.8Q201.2 589.8 234.4 531.3q33.2 -60.6 29.3 -72.3h1.9q3.9 -13.7 -9.7 -27.4Q240.2 418 207 398.4q-13.6 -9.7 -21.5 -13.6 -31.2 -21.5 -23.4 -48.9 9.8 -17.5 29.3 -17.5 5.9 0 11.7 1.9 21.5 5.9 39.1 11.7 11.7 5.9 21.5 7.8h3.9q9.7 2 9.7 -9.7 0 -3.9 -1.9 -7.8 -3.9 -45 0 -115.3 3.9 -46.8 17.6 -76.1Q306.6 103.5 326.2 82 335.9 68.4 377 41 419.9 13.7 500 9.8q80.1 3.9 123 31.2 41.1 27.4 50.8 41 19.6 19.6 33.2 48.9 13.7 27.3 17.6 76.1 2 33.2 2 66.4 -2 31.3 -3.9 52.8v1.9q0 13.7 9.7 11.7h3.9q9.8 -1.9 21.5 -7.8 17.6 -7.8 39.1 -11.7 5.8 -1.9 11.7 -1.9 19.5 0 29.3 17.5 7.8 27.4 -23.4 48.9 -7.9 3.9 -21.5 11.7 -33.2 21.5 -48.9 35.1 -13.6 13.7 -9.7 27.4h1.9q-3.9 9.8 29.3 70.3t140.7 119.1q7.8 2 11.7 9.8 3.9 5.9 -13.7 17.6z"/></svg>