<svg height="1000" width="1250" xmlns="http://www.w3.org/2000/svg"><path d="M1250 507.8q-5.9 68.4 -56.6 117.2 -50.8 46.9 -121.1 46.9H646.5q-13.7 0 -25.4 -9.8 -9.8 -11.7 -9.8 -25.4v-459q0 -11.7 5.9 -21.4t17.6 -15.7q0 -1.9 29.3 -13.6 31.2 -11.8 91.8 -13.7 78.1 0 144.5 39 50.8 31.3 85.9 78.2 35.2 48.8 46.9 107.4 21.5 -5.9 44.9 -5.9 35.2 -1.9 66.4 11.8 33.2 13.6 56.7 39t37.1 56.7q11.7 33.2 11.7 68.3zM558.6 207v-5.8l-3.9 -3.9q-2 -3.9 -3.9 -3.9 -3.9 -2 -5.9 -2 -3.9 0 -5.8 2 -3.9 1.9 -5.9 3.9t-1.9 3.9q-2 3.9 0 5.8 -9.8 115.3 -13.7 226.6 -2 111.3 13.7 226.6 0 3.9 3.9 7.8t9.7 3.9q3.9 0 7.8 -3.9t5.9 -7.8q15.6 -115.3 11.7 -226.6Q568.4 322.3 558.6 207zm-85.9 52.8q-2 -3.9 -5.9 -7.8t-9.8 -4q-3.9 0 -9.7 4 -3.9 3.9 -3.9 7.8 -23.5 201.1 0 400.4 1.9 5.8 5.8 7.8 3.9 3.9 7.8 3.9 5.9 0 9.8 -3.9t5.9 -7.8q25.3 -199.3 0 -400.4zM384.8 248q0 -5.8 -3.9 -9.7t-9.8 -3.9q-3.9 0 -7.8 3.9t-5.9 9.7q-9.7 103.6 -11.7 205.1t11.7 207.1q0 5.8 3.9 9.7 5.9 3.9 9.8 3.9 5.9 0 9.8 -3.9 3.9 -5.8 3.9 -9.7 15.6 -107.5 13.6 -207.1T386.7 248h-1.9zm-86 39.1q0 -5.8 -3.9 -9.8t-9.7 -3.9 -9.8 3.9 -3.9 9.8q-23.5 187.5 0 373.1 0 5.8 3.9 9.7 3.9 2 9.8 2t9.7 -2q3.9 -3.9 3.9 -9.7 25.4 -185.6 2 -373.1h-2zm-85.9 93.8q0 -5.9 -3.9 -9.8t-9.8 -5.9q-5.8 2 -9.7 5.9t-4 9.8q-15.6 70.3 -11.7 138.6 2 68.4 11.7 140.7 0 5.8 4 9.7 3.9 2 9.7 2 3.9 0 7.8 -2 3.9 -3.9 5.9 -9.7 9.8 -72.3 11.7 -140.7 3.9 -68.3 -11.7 -138.6zM127 365.2q0 -5.8 -4 -9.7 -5.8 -3.9 -9.7 -2 -5.9 0 -9.8 2 -5.8 3.9 -5.8 9.7Q84 437.5 85.9 505.9t11.8 142.5q3.9 9.8 15.6 9.8 9.7 0 13.7 -9.8 11.7 -74.2 11.7 -142.5Q140.6 439.5 127 365.2zm-87.9 48.9q0 -5.9 -3.9 -9.8t-9.8 -3.9 -9.8 3.9 -5.8 9.8Q-2 462.9 0 505.9q2 44.9 11.7 93.7 0 5.9 3.9 9.8 3.9 1.9 9.8 1.9t9.8 -1.9q3.9 -3.9 3.9 -9.8 11.7 -48.8 13.6 -93.7 2 -43 -13.6 -91.8z"/></svg>