<svg height="1000" width="1000" xmlns="http://www.w3.org/2000/svg"><path d="M418 502H195.3 418 195.3q-52.7 0 -97.6 -25.4 -45 -27.4 -72.3 -72.3Q0 357.4 0 306.6T25.4 209q27.3 -44.9 72.3 -72.3 44.9 -25.4 97.6 -25.4h259.8q44.9 2 66.4 39.1 21.5 39.1 0 78.1 -21.5 37.1 -66.4 39.1H191.4q-39.1 5.8 -39.1 39 0 35.2 39.1 39.1h222.7q52.7 0 97.6 25.4 44.9 27.3 70.3 72.3 27.4 46.8 27.4 97.6T582 638.7q-25.4 44.9 -70.3 72.2 -44.9 25.4 -97.6 25.4h-336q-44.9 -1.9 -68.3 -39 -19.6 -39.1 0 -78.2 23.4 -37.1 68.3 -39H418q39 -3.9 39 -39.1 0 -33.2 -39 -39zm164 234.3q82.1 -56.6 99.6 -156.2h127q15.6 0 27.3 -11.7 9.8 -11.8 9.8 -27.4V306.6q0 -15.6 -9.8 -27.3 -11.7 -11.7 -27.3 -11.7H578.1q29.3 -35.2 29.3 -78.1t-29.3 -78.2h267.6q66.4 2 109.4 45 42.9 44.9 44.9 111.3v312.5q-2 66.4 -44.9 111.3 -43 43 -109.4 44.9H582z"/></svg>