<svg height="1000" width="968.8" xmlns="http://www.w3.org/2000/svg"><path d="M484.4 -60.5Q349.6 -58.6 240.2 5.9 130.9 70.3 66.4 179.7 2 289.1 0 423.8 2 558.6 66.4 668t173.8 173.8 244.2 66.4q134.7 -1.9 244.1 -66.4T902.3 668t66.5 -244.2q-2 -134.7 -66.5 -244.1T728.5 5.9 484.4 -60.5zm197.2 712.8q-11.7 0 -21.4 -7.8Q568.4 591.8 464.8 582q-103.5 -7.8 -208.9 15.7 -2 0 -3.9 1.9 -11.8 2 -19.6 2 -29.3 -2 -29.3 -29.3 2 -29.3 25.4 -33.2 121.1 -27.4 240.3 -19.6 117.1 9.8 222.6 70.3 19.5 7.9 19.5 33.2 -3.9 27.4 -29.3 29.3zm52.8 -128.9q-13.7 0 -21.5 -5.8 -2 -2 -3.9 -2Q615.2 460.9 492.2 443.4 367.2 425.8 244.1 459q-3.9 0 -7.8 1.9 -7.8 2 -15.6 2 -35.2 -2 -39.1 -37.1 0 -31.3 31.3 -41Q252 373 298.8 365.2q45 -5.8 105.5 -5.8 195.3 0 345.7 87.9 21.5 13.6 21.5 39 -3.9 35.2 -37.1 37.1zM794.9 375q-13.6 0 -25.4 -7.8Q658.2 304.7 502 291 347.7 275.4 220.7 310.5h-3.9q-9.8 4 -21.5 4 -43 -4 -44.9 -45 3.9 -41 33.2 -46.8 103.5 -31.3 230.5 -31.3 107.4 0 212.9 23.4 103.5 23.5 187.5 70.4 23.4 11.7 25.3 44.9Q834 373 794.9 375z"/></svg>