<svg height="1000" width="875" xmlns="http://www.w3.org/2000/svg"><path d="M236.3 580.1q-9.7 -2 -19.5 -2t-19.5 -1.9q-11.8 11.7 -13.7 27.3 1.9 17.6 33.2 23.5t62.5 0q29.3 -7.9 33.2 -27.4 0 -11.7 -15.6 -13.7 -15.6 -3.9 -60.6 -5.8zM252 349.6q-48.9 3.9 -48.9 43 -1.9 37.1 46.9 42.9 46.9 -5.8 46.9 -42.9 0 -39.1 -44.9 -43zM750 -13.7H125h625H125q-52.7 2 -87.9 37.1T0 111.3v625q2 52.8 37.1 87.9t87.9 37.1h625q52.7 -1.9 87.9 -37.1T875 736.3v-625Q873 58.6 837.9 23.4T750 -13.7zM476.6 259.8q-43 0 -45 -45 2 -42.9 45 -42.9t44.9 42.9q-2 45 -44.9 45zM293 304.7h95.7H293h95.7v43l-44.9 1.9q15.6 17.6 17.5 50.8 -1.9 46.9 -29.3 66.4 -29.3 19.5 -62.5 19.5 -35.1 2 -52.7 -1.9l-15.6 25.4h1.9q13.7 0 25.4 1.9 82 2 119.2 13.7 39 13.7 37.1 60.5 -2 87.9 -136.8 89.9 -128.9 -2 -123 -62.5 0 -29.3 27.3 -50.8 -23.4 -11.7 -21.4 -31.2 0 -23.5 42.9 -60.6h2q-39.1 -19.5 -43 -74.2 5.9 -74.2 62.5 -89.9Q250 293 293 304.7zm236.3 210.9l25.4 3.9 -25.4 -3.9 25.4 3.9v39.1H412.1v-39.1q7.8 -1.9 13.7 -1.9 23.4 0 19.5 -11.7V359.4q3.9 -9.8 -19.5 -13.7 -2 -1.9 -5.9 -1.9l-7.8 -4 5.9 -39h103.5v205.1q-2 9.7 7.8 9.7zm207 -19.5l13.7 43 -13.7 -43 13.7 43q-35.2 17.5 -80.1 19.5 -85.9 1.9 -82 -80.1V345.7t-19.5 -1.9h-19.6v-43q62.5 -3.9 66.4 -82h46.9v44.9q0 33.2 2 31.2h72.2v48.9h-74.2v121q-1.9 11.8 9.8 31.3 9.7 17.6 64.4 0z"/></svg>