<svg height="1000" width="875" xmlns="http://www.w3.org/2000/svg"><path d="M62.5 742.2L0 859.4 62.5 742.2 0 859.4 2 218.8Q3.9 121.1 70.3 54.7q64.5 -66.4 164.1 -68.4H873q-138.6 45 -269.5 130.9Q472.7 205.1 377 316.4 277.3 431.6 205.1 529.3 134.8 627 62.5 742.2zM875 -13.7q-3.9 0 -76.2 41Q728.5 68.4 642.6 140.6q-84 74.2 -130.9 171.9Q490.2 363.3 474.6 418 457 476.6 435.5 529.3 412.1 582 373 623q-62.5 50.8 -140.6 80.1 -33.2 13.7 -66.4 29.3Q130.9 752 80.1 787.1 31.3 822.3 0 861.3h642.6q99.6 -1.9 164 -68.3Q873 726.6 875 628.9V-13.7z"/></svg>