<svg height="1000" width="875" xmlns="http://www.w3.org/2000/svg"><path d="M324.2 183.6q-56.6 25.4 -95.7 74.2 -39 48.8 -52.7 111.3 11.7 2 82 -3.9 68.4 -3.9 166 -27.3Q388.7 277.3 359.4 234.4t-35.2 -50.8zM375 164.1q7.8 9.7 37.1 52.7 27.4 43 62.5 103.5Q544.9 293 578.1 261.7q33.2 -29.3 37.1 -37.1Q564.5 181.6 502 166t-127 -1.9zm166 505.8q-1.9 -19.5 -15.6 -74.2t-41 -128.9Q404.3 496.1 349.6 543t-76.2 91.8q60.6 46.8 130.9 54.7 72.3 7.8 136.7 -19.6zm-95.7 -291q-103.5 27.4 -183.6 33.2 -78.1 5.9 -91.8 3.9v7.8q3.9 105.5 70.3 179.7Q273.4 544.9 334 496.1q58.6 -50.8 132.8 -72.3Q457 400.4 445.3 378.9zm140.6 267.6Q679.7 582 701.2 466.8q-7.8 -3.9 -54.7 -11.7t-111.3 0q25.3 74.2 37.1 125 11.7 52.7 13.6 66.4zM519.5 414.1q68.4 -7.8 121.1 -2 54.7 5.9 64.5 9.8 -3.9 -95.7 -60.6 -166 -3.9 7.8 -39 39 -37.1 33.2 -109.4 66.4 11.7 27.4 23.4 50.8v2zM750 -13.7H125h625H125q-52.7 2 -87.9 37.1T0 111.3v625q2 52.8 37.1 87.9t87.9 37.1h625q52.7 -1.9 87.9 -37.1T875 736.3v-625Q873 58.6 837.9 23.4T750 -13.7zm-312.5 750q-84 0 -156.2 -41Q209 652.3 166 580.1 125 505.9 125 423.8t41 -156.2q43 -72.3 115.3 -115.3 72.2 -41 156.2 -41t156.3 41q72.2 43 115.2 115.3 41 74.2 41 156.2t-41 156.3q-43 72.2 -115.2 115.2 -72.3 41 -156.3 41z"/></svg>