<svg height="1000" width="875" xmlns="http://www.w3.org/2000/svg"><path d="M0 111.3v625 -625 625q2 52.8 37.1 87.9t87.9 37.1h625q52.7 -1.9 87.9 -37.1T875 736.3v-625Q873 58.6 837.9 23.4T750 -13.7H125q-52.7 2 -87.9 37.1T0 111.3zm660.2 25.4l85.9 226.6L660.2 136.7l85.9 226.6 1.9 1.9q17.6 50.8 4 103.6 -15.7 50.7 -58.6 83.9l-134.8 99.6 -105.5 80.1 -1.9 2q-7.8 3.9 -13.7 3.9 -9.8 -2 -15.6 -5.9L314.5 652.3 183.6 552.7h-2Q138.7 519.5 123 468.8 109.4 416 127 365.2l1.9 -1.9 87.9 -226.6q2 -7.8 7.8 -11.7t9.8 -3.9q3.9 -2 7.8 0 1.9 1.9 3.9 1.9t3.9 2q0 2 2 2l1.9 1.9q3.9 3.9 5.9 9.8l56.6 179.7h240.2l58.6 -179.7q2 -5.9 5.9 -9.8t7.8 -5.9q5.9 -1.9 11.7 -1.9 3.9 0 9.8 3.9t9.8 11.7z"/></svg>