<svg height="1000" width="875" xmlns="http://www.w3.org/2000/svg"><path d="M324.2 527.3q27.4 11.8 37.1 39.1 11.7 25.4 0 54.7 -11.7 27.3 -39 37.1 -25.4 11.7 -52.8 0l-56.6 -23.4q15.6 33.2 50.8 46.8 37.1 15.7 72.2 0Q373 668 388.7 630.9t0 -74.3Q373 521.5 337.9 503.9q-37.1 -13.7 -72.3 0l58.6 23.4zM875 111.3Q873 58.6 837.9 23.4 802.7 -11.7 750 -13.7H125q-52.7 2 -87.9 37.1T0 111.3v283.2l228.5 93.8q35.2 -25.4 78.1 -21.5L416 308.6v-2q2 -72.2 48.8 -121.1 48.9 -46.8 121.1 -48.8 72.3 2 121.1 48.8 48.9 48.9 50.8 121.1 -1.9 74.3 -52.7 123.1Q656.3 478.5 582 478.5L427.7 587.9q2 58.6 -35.1 95.7t-91.8 39.1q-48.8 -2 -82 -29.3 -35.2 -29.3 -45 -74.3L0 546.9v189.4q2 52.8 37.1 87.9t87.9 37.1h625q52.7 -1.9 87.9 -37.1T875 736.3v-625zM472.7 306.6q1.9 64.5 56.6 99.7 56.6 29.2 115.2 0 54.7 -35.2 56.7 -99.7 -2 -64.4 -56.7 -97.6 -58.6 -31.3 -115.2 0 -54.7 33.2 -56.6 97.6zm29.3 0q0 -48.8 41 -74.2 42.9 -23.4 85.9 0 43 25.4 43 74.2t-43 74.3q-43 23.4 -85.9 0 -41 -25.4 -41 -74.3z"/></svg>