<svg height="1000" width="875" xmlns="http://www.w3.org/2000/svg"><path d="M875 111.3Q873 58.6 837.9 23.4 802.7 -11.7 750 -13.7H125q-52.7 2 -87.9 37.1T0 111.3v625q2 52.8 37.1 87.9t87.9 37.1h625q52.7 -1.9 87.9 -37.1T875 736.3v-625zm-373 625Q394.5 732.4 357.4 673.8 320.3 617.2 322.3 564.5V388.7h-58.6q-9.8 0 -11.7 -11.7v-84q0 -13.7 13.6 -19.6 56.7 -21.4 78.2 -62.5 23.4 -41 25.3 -80 2 -19.6 19.6 -19.6h85.9q11.7 2 11.7 11.7v140.7h101.6q11.7 1.9 11.7 11.7V377q0 9.7 -11.7 11.7H486.3v162.1q0 31.2 21.5 44.9t62.5 -1.9q7.8 -4 15.6 -2 5.9 2 7.9 9.8l27.3 78.1q3.9 9.8 0 17.6 -13.7 13.6 -44.9 27.3 -31.3 11.7 -74.2 11.7z"/></svg>