<svg height="1000" width="875" xmlns="http://www.w3.org/2000/svg"><path d="M179.7 421.9q0 74.2 39.1 136.7l5.8 9.8 -25.4 93.7 97.7 -25.4 9.7 5.9q60.6 35.1 130.9 37.1 109.4 -3.9 183.6 -76.2t76.2 -181.6q-2 -107.4 -78.2 -181.7Q543 164.1 437.5 164.1 328.1 166 255.9 238.3q-72.3 74.2 -76.2 183.6zm357.4 146.5q-17.6 3.9 -37.1 0t-56.6 -19.6q-52.8 -25.4 -87.9 -62.5 -33.2 -37.1 -41 -50.8l-2 -1.9v-2q-5.9 -3.9 -17.6 -27.3 -13.6 -23.4 -15.6 -52.7 2 -25.4 9.8 -41.1 9.7 -15.6 17.5 -21.4v-2q11.8 -9.8 21.5 -9.8h15.7q7.8 -1.9 15.6 13.7 1.9 2 1.9 3.9l7.8 19.6q2 5.8 3.9 9.7 9.8 19.6 11.8 25.4 3.9 5.9 0 11.7 -9.8 19.6 -17.6 25.4 -11.7 7.8 -5.9 17.6 23.5 37.1 46.9 56.6 25.4 19.6 58.6 35.2 11.7 5.9 17.6 -2 3.9 -3.9 11.7 -13.6t11.7 -15.7q7.8 -9.7 17.6 -3.9 7.8 2 27.3 11.8 17.6 9.7 25.4 13.6h2q1.9 0 1.9 2h2q7.8 1.9 9.8 5.8 3.9 7.9 -4 37.2 -7.8 13.6 -23.4 25.3 -17.6 9.8 -29.3 11.8zM875 111.3Q873 58.6 837.9 23.4 802.7 -11.7 750 -13.7H125q-52.7 2 -87.9 37.1T0 111.3v625q2 52.8 37.1 87.9t87.9 37.1h625q52.7 -1.9 87.9 -37.1T875 736.3v-625zM289.1 693.4L125 736.3l164.1 -42.9L125 736.3l44.9 -160.1Q127 503.9 127 419.9q3.9 -130.8 91.8 -218.7 87.8 -86 218.7 -89.9 127 2 218.8 91.8Q746.1 293 750 421.9q-3.9 130.8 -91.8 218.7 -89.8 86 -220.7 89.9 -80.1 0 -148.4 -37.1z"/></svg>