<svg height="1000" width="875" xmlns="http://www.w3.org/2000/svg"><path d="M302.7 544.9q56.7 3.9 62.5 -48.8 -3.9 -54.7 -60.5 -52.7h-89.9v101.5h87.9zM293 293h-78.2H293h-78.2v87.9h84q46.9 0 50.8 -45Q347.7 310.5 332 300.8 316.4 293 293 293zm251.9 146.5H668 544.9 668q-5.9 -56.7 -60.6 -58.6 -56.6 1.9 -62.5 58.6zM750 -13.7H125h625H125q-52.7 2 -87.9 37.1T0 111.3v625q2 52.8 37.1 87.9t87.9 37.1h625q52.7 -1.9 87.9 -37.1T875 736.3v-625Q873 58.6 837.9 23.4T750 -13.7zm-66.4 298.9H531.3h152.3H531.3V248h152.3v37.2zM378.9 400.4q68.4 23.4 68.4 99.6 -2 56.6 -41 84 -39.1 25.4 -91.8 25.4H132.8v-375h177.7q48.9 0 84 19.5 33.2 19.5 35.2 74.2 0 52.8 -50.8 72.3zm230.5 -76.2q64.4 2 99.6 43 33.2 43 33.2 105.5v13.6H546.9q0 66.4 66.4 68.4 17.6 0 35.1 -9.8 17.6 -7.8 23.5 -25.4h66.4Q707 611.3 609.4 611.3q-64.5 -1.9 -101.6 -41Q472.7 533.2 470.7 468.8q2 -62.5 39.1 -103.6 37.1 -39 99.6 -41z"/></svg>