<svg height="1000" width="875" xmlns="http://www.w3.org/2000/svg"><path d="M750 -13.7q52.7 2 87.9 37.1Q873 58.6 875 111.3v625q-2 52.8 -37.1 87.9T750 861.3H125Q72.3 859.4 37.1 824.2T0 736.3v-625Q2 58.6 37.1 23.4T125 -13.7h625zM205.1 289.1q-58.6 1.9 -95.7 39 -39.1 39.1 -41 97.7 1.9 58.6 41 97.6 37.1 37.1 95.7 39.1 76.2 -3.9 115.2 -62.5l2 -2 -2 -1.9q-19.5 -31.3 -19.5 -70.3 0 -41 21.5 -72.3Q281.3 293 205.1 289.1zm232.4 0q-76.2 3.9 -115.2 62.5v3.9q19.5 31.2 19.5 70.3 0 41 -21.5 72.2 41 60.6 117.2 64.5 76.2 -3.9 115.2 -62.5l2 -2 -2 -1.9q-19.5 -31.3 -19.5 -70.3 0 -41 21.5 -72.3Q513.7 293 437.5 289.1zm232.4 0q-76.1 3.9 -115.2 62.5l-2 1.9 2 2q19.5 31.2 19.5 70.3 0 41 -21.5 72.2 41.1 60.6 117.2 64.5 58.6 -2 95.7 -39.1 39.1 -39 41 -97.6 -1.9 -58.6 -41 -97.7 -37.1 -37.1 -95.7 -39z"/></svg>