<svg height="1000" width="1000" xmlns="http://www.w3.org/2000/svg"><path d="M363.3 593.8q-27.4 35.1 0 68.3 35.1 29.3 68.3 0L738.3 355.5q29.3 -27.4 68.3 -27.4t68.4 27.4q29.3 29.3 29.3 68.3T875 492.2L574.2 793q29.3 29.3 68.4 29.3T710.9 793L943.4 560.5Q1000 500 1000 423.8T943.4 287.1Q884.8 230.5 806.6 230.5q-76.1 0 -136.7 56.6L363.3 593.8zM841.8 390.6q-35.2 -29.3 -68.4 0L466.8 697.3q-31.3 27.3 -68.4 27.3 -39 0 -68.3 -27.3 -35.2 -29.3 -68.4 0 -29.3 33.2 0 68.3 58.6 56.7 136.7 56.7 76.2 0 134.8 -56.7L841.8 457q27.3 -33.2 0 -66.4zM330.1 560.5L636.7 253.9 330.1 560.5 636.7 253.9q27.4 -35.1 0 -68.4 -35.1 -29.2 -68.3 0L261.7 492.2q-29.3 27.3 -68.3 27.3T125 492.2Q95.7 462.9 95.7 423.8T125 355.5L425.8 54.7Q396.5 25.4 357.4 25.4t-68.3 29.3L56.6 287.1Q0 347.7 0 423.8t56.6 136.7q58.6 56.7 136.8 56.7 76.1 0 136.7 -56.7zM158.2 457q35.2 29.3 68.4 0L533.2 150.4Q564.5 123 601.6 123q39 0 68.3 27.4 35.2 29.3 68.4 0 29.3 -33.2 0 -68.4Q679.7 25.4 601.6 25.4q-76.2 0 -134.8 56.6L158.2 390.6q-27.3 33.2 0 66.4z"/></svg>