<svg height="1000" width="875" xmlns="http://www.w3.org/2000/svg"><path d="M875 111.3Q873 58.6 837.9 23.4 802.7 -11.7 750 -13.7H125q-52.7 2 -87.9 37.1T0 111.3v625q2 52.8 37.1 87.9t87.9 37.1h625q52.7 -1.9 87.9 -37.1T875 736.3v-625zM230.5 668Q166 593.8 169.9 505.9q2 -89.9 60.6 -152.4 58.6 -64.4 160.1 -68.3 39.1 0 76.2 13.6 -13.7 25.4 -17.6 52.8 -29.3 -11.8 -58.6 -11.8 -74.2 2 -119.1 52.8 -44.9 48.8 -46.9 121.1 0 64.4 37.1 109.3 37.1 46.9 97.7 58.6 60.5 -25.3 91.8 -85.9 29.3 -58.6 41 -128.9t9.8 -127v-42.9Q466.8 199.2 416 111.3q39.1 29.3 60.6 82.1T502 294.9v2q21.4 66.4 23.4 136.7 0 160.2 -134.8 250h-3.9q74.2 0 121.1 -48.8 44.9 -48.9 46.9 -121.1 0 -37.1 -13.7 -70.3 29.3 -5.9 52.8 -19.6 21.4 54.7 13.6 121.1T548.8 668q-66.4 68.3 -158.2 68.3 -93.7 0 -160.1 -68.3zM537.1 349.6q33.2 -17.6 66.4 -44.9 35.2 -27.4 54.7 -58.6 5.9 -11.7 7.8 -23.4 -19.5 41 -58.6 70.3 -41 29.3 -84 39 -15.6 -21.5 -15.6 -46.8 2 -35.2 25.4 -62.5 23.4 -19.6 52.7 -25.4 0 -2 2 -2 23.4 -5.8 46.9 -19.5 21.5 -13.7 39 -50.8 31.3 48.8 31.3 107.4T679.7 334q-27.4 44.9 -76.2 46.9 -39 -3.9 -66.4 -31.3z"/></svg>