<svg height="1000" width="875" xmlns="http://www.w3.org/2000/svg"><path d="M875 111.3Q873 58.6 837.9 23.4 802.7 -11.7 750 -13.7H125q-52.7 2 -87.9 37.1T0 111.3v625q2 52.8 37.1 87.9t87.9 37.1h625q52.7 -1.9 87.9 -37.1T875 736.3v-625zm-252 418Q494.1 693.4 406.3 693.4q-54.7 0 -91.8 -99.6Q302.7 552.7 293 517.6v-2Q267.6 416 248 361.3q-19.5 -52.7 -44.9 -54.7 -7.8 0 -48.8 29.3L125 298.8q19.5 -17.5 37.1 -33.2 2 -1.9 3.9 -1.9v-2q43 -39 80.1 -68.3t62.5 -31.3q72.3 -7.8 89.8 99.6 27.4 187.5 52.8 226.6 25.4 37.1 78.1 -50.8 39.1 -62.5 41 -93.7Q574.2 296.9 543 291q-29.3 -3.9 -60.6 9.8Q529.3 148.4 658.2 154.3q97.7 2 91.8 125 -3.9 89.8 -127 250z"/></svg>