<svg height="1000" width="875" xmlns="http://www.w3.org/2000/svg"><path d="M875 111.3Q873 58.6 837.9 23.4 802.7 -11.7 750 -13.7H125q-52.7 2 -87.9 37.1T0 111.3v625q2 52.8 37.1 87.9t87.9 37.1h625q52.7 -1.9 87.9 -37.1T875 736.3v-625zM125 423.8q2 -84 56.6 -138.6 54.7 -54.7 138.7 -56.7 80.1 2 130.9 50.8l-52.8 50.8Q377 304.7 320.3 300.8q-50.8 1.9 -85.9 35.1 -33.2 35.2 -35.2 87.9 2 52.8 35.2 87.9 35.1 35.2 85.9 35.2 56.7 -2 82 -31.3t29.3 -52.7H320.3v-66.4h183.6q3.9 13.7 3.9 31.2 -1.9 86 -50.8 138.7 -50.7 50.8 -136.7 52.7 -84 -1.9 -138.7 -56.6T125 423.8zM693.4 459v56.6V459v56.6h-56.7V459h-56.6v-56.7h56.6v-56.6h56.7v56.6H750V459h-56.6z"/></svg>