<svg height="1000" width="875" xmlns="http://www.w3.org/2000/svg"><path d="M437.5 191.4q-44.9 0 -70.3 37.1 -23.4 41 0 80.1 25.4 39.1 70.3 39.1t70.3 -39.1q23.5 -39.1 0 -80.1 -25.4 -37.1 -70.3 -37.1zM750 -13.7H125h625H125q-52.7 2 -87.9 37.1T0 111.3v625q2 52.8 37.1 87.9t87.9 37.1h625q52.7 -1.9 87.9 -37.1T875 736.3v-625Q873 58.6 837.9 23.4T750 -13.7zm-312.5 125q89.8 2 136.7 78.2 43 80 0 158.2 -46.9 78.1 -136.7 80 -89.8 -1.9 -136.7 -80 -43 -78.2 0 -158.2 46.9 -76.2 136.7 -78.2zm115.2 328.2q25.4 -17.6 43 -11.8 17.6 3.9 23.4 19.6 11.8 21.5 0 37.1t-41 35.1q-25.4 15.7 -56.6 23.5 -29.3 7.8 -52.7 9.7l25.3 25.4 91.8 91.8q23.5 29.3 -1.9 54.7 -23.5 23.4 -52.7 2 -37.2 -39.1 -93.8 -93.8l-93.7 93.8q-29.3 21.4 -52.8 -2 -23.4 -25.4 -1.9 -54.7 11.7 -9.7 25.4 -23.4 9.7 -9.8 19.5 -21.5 23.4 -23.4 48.8 -46.9l25.4 -25.4q-23.4 -1.9 -54.7 -9.7t-56.6 -23.5q-29.3 -19.5 -41 -35.1t0 -37.1q5.8 -15.7 23.4 -19.6 17.6 -5.8 43 11.8 0 1.9 31.2 17.5 29.3 15.7 84 17.6 54.7 -1.9 84 -17.6 31.2 -15.6 31.2 -17.5z"/></svg>