<svg height="1000" width="875" xmlns="http://www.w3.org/2000/svg"><path d="M875 111.3Q873 58.6 837.9 23.4 802.7 -11.7 750 -13.7H125q-52.7 2 -87.9 37.1T0 111.3v625q2 52.8 37.1 87.9t87.9 37.1h625q52.7 -1.9 87.9 -37.1T875 736.3v-625zM519.5 720.7V611.3Q517.6 566.4 498 552.7q56.7 -3.9 101.6 -27.3 43 -25.4 46.9 -115.2 -2 -48.9 -33.2 -76.2 1.9 -7.8 5.8 -31.3 2 -23.4 -9.7 -56.6 -23.5 -3.9 -54.7 13.7t-35.2 19.5q-39 -9.8 -80 -9.8 -43 0 -82.1 9.8 -3.9 -2 -35.1 -19.5t-54.7 -13.7q-11.7 33.2 -9.8 56.6 3.9 23.5 7.8 31.3 -31.2 27.3 -31.2 76.2 1.9 89.8 44.9 113.2 43 25.4 99.6 29.3 -13.7 11.8 -19.5 43 -15.6 7.8 -44.9 7.8 -27.4 0 -50.8 -35.1Q250 546.9 232.4 541q-15.6 -5.8 -17.6 -5.8 -21.4 1.9 -13.6 9.7 7.8 9.8 11.7 9.8 15.6 9.8 25.4 27.3t9.7 19.6q19.6 41 62.5 41 43 1.9 46.9 -2v74.2q0 4 2 5.9 0 15.6 -23.5 15.6Q238.3 701.2 177.7 619.1 119.1 535.2 117.2 425.8 119.1 289.1 207 201.2t226.6 -89.9q136.7 2 228.5 89.9t95.7 224.6q-1.9 109.4 -60.5 193.3Q640.6 701.2 541 736.3q-23.4 0 -21.5 -15.6zM341.8 613.3q0 -5.9 5.9 -5.9 7.8 0 7.8 3.9t-5.9 5.9q-5.8 0 -7.8 -3.9zm-17.6 5.8q-5.8 0 -7.8 -3.9 2 -3.9 7.8 -5.8 5.9 0 7.8 5.8 -1.9 3.9 -7.8 3.9zm-27.3 -3.9q-5.9 -1.9 -5.9 -5.8 2 -3.9 7.8 -3.9 5.9 1.9 5.9 7.8 -2 3.9 -7.8 1.9zm-25.4 -13.6q-3.9 -5.9 -2 -7.8 3.9 -4 9.8 0 3.9 5.8 2 7.8 -4 3.9 -9.8 0zM255.9 582q-3.9 -5.8 0 -7.8t7.8 2q1.9 5.8 0 7.8 -3.9 1.9 -7.8 -2zm-11.8 -17.5q-3.9 -4 -1.9 -7.9 3.9 -1.9 7.8 2 2 3.9 0 5.9 -3.9 3.9 -5.9 0zm-11.7 -13.7q-3.9 -2 -3.9 -3.9 2 -2 5.9 -2 3.9 3.9 1.9 5.9 0 1.9 -3.9 0z"/></svg>