<svg height="1000" width="875" xmlns="http://www.w3.org/2000/svg"><path d="M550.8 423.8L365.2 318.4l185.6 105.4L365.2 318.4v210.9L550.8 423.8zM750 -13.7H125h625H125q-52.7 2 -87.9 37.1T0 111.3v625q2 52.8 37.1 87.9t87.9 37.1h625q52.7 -1.9 87.9 -37.1T875 736.3v-625Q873 58.6 837.9 23.4T750 -13.7zM777.3 252q11.8 46.8 13.7 107.4 2 58.6 2 64.4t-2 66.4q-1.9 58.6 -13.7 105.5 -13.6 48.8 -62.5 62.5 -31.2 7.8 -95.7 11.7 -66.4 2 -121.1 3.9H377q-54.7 -1.9 -121.1 -3.9Q191.4 666 160.2 658.2 111.3 644.5 97.7 597.7 85.9 548.8 84 490.2q-2 -60.5 -2 -66.4 0 -5.8 2 -64.4Q85.9 298.8 97.7 252q13.6 -48.9 62.5 -62.5 31.2 -7.9 95.7 -11.8 66.4 -1.9 121.1 -3.9h121q54.7 2 121.1 3.9 64.5 3.9 95.7 11.8 48.9 13.6 62.5 62.5z"/></svg>