<svg height="1000" width="875" xmlns="http://www.w3.org/2000/svg"><path d="M109.4 -13.7h656.2H109.4h656.2q46.9 2 78.2 31.3Q873 48.8 875 95.7V752q-2 46.8 -31.2 78.1 -31.3 29.3 -78.2 31.2H109.4Q62.5 859.4 31.3 830.1 2 798.8 0 752V95.7Q2 48.8 31.3 17.6q31.2 -29.3 78.1 -31.3zM529.3 459q9.8 -76.2 37.1 -105.5 25.4 -31.2 62.5 -29.3 39.1 0 62.5 25.4 25.4 27.4 25.4 70.3 0 44.9 -25.4 70.3 -23.4 27.4 -62.5 27.4 -41 -2 -66.4 -23.5Q537.1 474.6 529.3 459zm-52.7 -82Q453.1 328.1 439.5 269.5H316.4v152.4q0 42.9 -19.5 68.3 -17.6 27.4 -54.7 27.4t-56.7 -27.4q-21.4 -25.4 -21.4 -68.3V269.5H93.8v152.4q1.9 68.3 41 113.3 41 44.9 107.4 44.9 64.4 0 103.5 -43 41 -44.9 41 -115.2V318.4q5.9 27.3 23.5 70.3t46.8 85.9l-37.1 216.8h72.3l25.4 -154.3q11.7 9.8 25.4 19.5 37.1 21.5 80 23.5h5.9q68.4 -2 113.3 -44.9 43 -45 44.9 -115.3 -1.9 -70.3 -44.9 -113.3Q697.3 261.7 628.9 259.8q-66.4 1.9 -103.5 37.1 -37.1 33.2 -48.8 80.1z"/></svg>