<svg height="1000" width="875" xmlns="http://www.w3.org/2000/svg"><path d="M378.9 337.9Q332 371.1 334 431.6q5.8 58.6 56.6 86 54.7 23.4 105.5 -7.8Q543 476.6 541 418q-5.8 -60.6 -56.6 -87.9 -54.7 -23.5 -105.5 7.8zM658.2 203.1q-15.6 -15.6 -37.1 -23.4Q593.8 169.9 546.9 168 498 166 459 168h-43q-41 -2 -87.9 0t-74.2 11.7q-21.5 7.8 -37.1 23.4t-23.4 37.1q-9.8 27.4 -11.8 74.3t0 85.9v46.9q-1.9 39 0 85.9t11.8 74.2q7.8 21.5 23.4 37.1t37.1 23.5q27.4 9.7 74.2 11.7 48.9 1.9 87.9 0h43q41 1.9 87.9 0T621.1 668q21.5 -7.8 37.1 -23.5t23.4 -37.1q9.8 -27.3 11.8 -74.2t0 -87.9v-43q1.9 -41 0 -87.8t-11.8 -74.3q-7.8 -21.4 -23.4 -37.1zM527.3 291q72.3 52.8 70.4 142.6 -9.8 91.8 -89.9 134.8 -82 37.1 -160.1 -11.8Q275.4 503.9 277.3 414.1q9.8 -91.8 89.9 -134.8 82 -37.1 160.1 11.7zm56.7 -3.9q-9.8 -5.8 -13.7 -15.6T568.4 250t9.7 -19.5 19.6 -9.8q9.7 -1.9 21.4 2 9.8 3.9 15.7 13.6t7.8 19.6l-3.9 15.6q-2 5.8 -7.8 11.7t-11.8 7.8q-7.8 3.9 -13.6 3.9 -11.7 0 -21.5 -7.8zM875 111.3Q873 58.6 837.9 23.4 802.7 -11.7 750 -13.7H125q-52.7 2 -87.9 37.1T0 111.3v625q2 52.8 37.1 87.9t87.9 37.1h625q52.7 -1.9 87.9 -37.1T875 736.3v-625zM697.3 683.6q-54.7 50.8 -130.9 50.8 -27.3 1.9 -78.1 1.9H386.7t-78.1 -1.9q-76.2 0 -130.9 -50.8Q127 628.9 127 552.7q-2 -27.3 -2 -78.1V373t2 -78.1q0 -76.1 50.7 -130.8 54.7 -50.8 130.9 -50.8 27.3 -2 78.1 -2h101.6t78.1 2q76.2 0 130.9 50.8Q748 218.8 748 294.9q2 44.9 2 128.9t-2 128.9q0 76.2 -50.7 130.9z"/></svg>