<svg height="1000" width="875" xmlns="http://www.w3.org/2000/svg"><path d="M125 48.8q-27.3 0 -44.9 17.6Q62.5 84 62.5 111.3v625q0 27.4 17.6 45t44.9 17.5h625q27.3 0 44.9 -17.5t17.6 -45v-625q0 -27.3 -17.6 -44.9T750 48.8H125zM0 111.3Q2 58.6 37.1 23.4 72.3 -11.7 125 -13.7h625q52.7 2 87.9 37.1t37.1 87.9v625q-2 52.8 -37.1 87.9T750 861.3H125Q72.3 859.4 37.1 824.2T0 736.3v-625zm300.8 113.3q-2 29.3 -23.5 43h369.2q23.4 1.9 25.4 25.4 0 5.8 -2 11.7l-60.5 134.8 60.5 134.7q2 5.9 2 11.7 -2 23.5 -25.4 25.4H281.3v62.5h-62.5V265.6q-19.6 -15.6 -19.6 -41 3.9 -46.9 50.8 -50.8 46.9 3.9 50.8 50.8z"/></svg>