<svg height="1000" width="875" xmlns="http://www.w3.org/2000/svg"><path d="M875 111.3Q873 58.6 837.9 23.4 802.7 -11.7 750 -13.7H125q-52.7 2 -87.9 37.1T0 111.3v625q2 52.8 37.1 87.9t87.9 37.1h625q52.7 -1.9 87.9 -37.1T875 736.3v-625zM412.1 472.7q-3.9 -11.8 -7.8 -21.5 -2 -5.9 -2 -9.8 -17.5 -62.5 -39 -97.6 -23.5 -35.2 -74.2 -35.2 -35.2 -2 -60.6 25.4 -27.3 27.3 -27.3 93.7 0 50.8 23.4 82.1 23.4 29.3 60.6 29.3 42.9 -2 66.4 -21.5Q377 500 378.9 498l21.5 62.5q0 2 -29.3 17.6 -29.3 17.6 -89.8 19.6 -152.4 -2 -156.3 -168Q127 255.9 287.1 250q95.7 2 130.9 46.9 35.1 46.9 56.6 126.9 2 7.8 5.9 17.6 1.9 3.9 1.9 7.8 13.7 39.1 39.1 64.5 27.3 25.4 82 25.4 72.3 1.9 74.2 -37.1 -1.9 -23.5 -23.4 -35.2Q634.8 457 599.6 451.2q-1.9 -2 -3.9 -2 -7.8 -1.9 -15.6 -1.9 -86 -21.5 -84 -93.8 1.9 -58.6 41 -82Q574.2 250 625 250q111.3 -2 123 91.8l-72.2 7.8q-3.9 -44.9 -56.7 -43 -48.8 0 -50.7 39.1 -2 31.3 41 41 5.8 2 13.6 2 46.9 7.8 86 29.3t41 80q-2 54.7 -41 76.2 -41 23.5 -107.4 23.5 -91.8 -2 -132.8 -37.2t-56.7 -87.8z"/></svg>