<svg height="1000" width="875" xmlns="http://www.w3.org/2000/svg"><path d="M875 111.3Q873 58.6 837.9 23.4 802.7 -11.7 750 -13.7H125q-52.7 2 -87.9 37.1T0 111.3v625q2 52.8 37.1 87.9t87.9 37.1h625q52.7 -1.9 87.9 -37.1T875 736.3v-625zM183.6 548.8Q166 546.9 171.9 529.3l95.7 -169.9L207 253.9q-7.8 -17.6 11.8 -19.5h89.8q15.6 0 25.4 17.6l62.5 107.4q-3.9 5.8 -97.7 171.9 -9.7 17.5 -25.4 17.5h-89.8zM502 484.4l128.9 232.4q5.8 17.6 -11.8 19.5h-91.8q-15.6 0 -25.3 -17.5L373 484.4q5.9 -9.8 125 -216.8 19.6 -35.2 41.1 -74.2 17.5 -31.3 37.1 -64.5 9.7 -17.6 23.4 -17.6h91.8q17.6 2 11.7 19.6L502 484.4z"/></svg>