<svg height="1000" width="875" xmlns="http://www.w3.org/2000/svg"><path d="M750 -13.7H125h625H125q-50.8 0 -87.9 37.1T0 111.3v625q0 50.8 37.1 87.9t87.9 37.1h625q50.8 0 87.9 -37.1T875 736.3v-625q0 -50.8 -37.1 -87.9T750 -13.7zm-7.8 623.1q-7.8 9.7 -17.6 13.6 -17.6 11.8 -39.1 15.7l-7.8 3.9q-3.9 3.9 -5.8 7.8 0 3.9 -3.9 9.8 -3.9 7.8 -11.7 13.6 -21.5 11.7 -45 9.8 -19.5 0 -46.8 7.8 -11.8 3.9 -25.4 13.7 -15.7 9.7 -41.1 19.5 -23.4 11.7 -60.5 11.7T377 724.6q-25.4 -9.8 -41.1 -19.5 -13.6 -9.8 -25.4 -13.7 -27.3 -7.8 -46.8 -7.8 -23.5 1.9 -44.9 -9.8 -5.9 -3.9 -11.8 -11.7 -3.9 -5.8 -5.8 -11.7 0 -3.9 -3.9 -7.8l-7.8 -3.9Q168 634.8 150.4 623q-9.8 -3.9 -17.6 -11.7Q115.2 589.8 123 568.4q9.8 -21.5 31.3 -27.4 2 -1.9 5.9 -3.9 42.9 -23.4 68.3 -58.6 5.9 -9.7 11.7 -21.5 2 -5.8 0 -7.8l-3.9 -3.9q-7.8 -5.8 -13.6 -9.8 -2 0 -3.9 -1.9 -7.9 -3.9 -11.8 -7.8 -17.5 -11.7 -25.4 -27.4Q169.9 377 177.7 351.6q15.7 -33.2 52.8 -33.2 7.8 0 15.6 1.9h3.9q0 -21.5 2 -44.9 9.7 -74.2 42.9 -103.5 17.6 -21.5 43 -35.2 44.9 -25.4 99.6 -25.4t99.6 25.4q25.4 13.7 43 35.2 33.2 29.3 42.9 103.5 2 21.5 2 44.9h3.9q7.8 -1.9 15.6 -1.9 37.1 0 52.8 33.2 7.8 25.4 -3.9 46.8 -7.9 15.7 -25.4 27.4 -5.9 3.9 -15.7 9.7 -5.8 4 -13.6 9.8l-3.9 3.9t0 7.8q5.8 11.8 11.7 21.5 25.4 35.2 70.3 58.6 2 2 3.9 2l3.9 3.9q2 0 5.9 1.9 15.6 5.9 21.5 23.5 7.8 21.4 -9.8 41zM709 574.2q-70.3 -39 -93.8 -80.1 -21.4 -39 -19.5 -46.8 -3.9 -9.8 3.9 -17.6 11.7 -9.8 33.2 -23.4 9.8 -5.9 13.7 -9.8 23.4 -13.7 17.6 -31.3 -5.9 -11.7 -19.6 -11.7h-7.8q-15.6 3.9 -27.3 9.8 -7.8 1.9 -13.7 3.9h-1.9q-7.9 1.9 -5.9 -7.8v-2q1.9 -29.3 0 -78.1 -7.8 -60.5 -33.2 -84 -5.9 -9.8 -35.2 -27.3 -29.3 -19.6 -82 -21.5 -52.7 1.9 -82 21.5 -29.3 17.5 -35.2 27.3 -25.4 23.5 -33.2 84 -1.9 46.9 0 76.2v5.8q2 7.8 -5.8 7.8l-2 -1.9q-5.9 0 -13.7 -3.9 -11.7 -5.9 -27.3 -9.8h-7.8q-13.7 0 -19.6 11.7 -5.8 17.6 17.6 31.3 3.9 3.9 13.7 9.8 21.5 13.6 33.2 23.4 7.8 7.8 3.9 17.6 2 7.8 -19.5 46.8 -23.5 41.1 -93.8 80.1 -5.8 2 -7.8 5.9 -3.9 5.8 9.8 11.7 21.5 11.7 37.1 13.7 11.7 3.9 21.5 9.7 7.8 5.9 7.8 15.7t5.8 13.6 23.5 3.9q23.4 0 58.6 9.8 17.5 5.9 31.2 15.6 27.4 23.5 84 27.4 56.6 -3.9 84 -27.4 15.6 -9.7 31.2 -15.6 35.2 -9.8 58.6 -9.8 17.6 0 23.5 -3.9t5.8 -11.7q0 -11.7 7.8 -17.6 9.8 -5.8 21.5 -7.8 15.6 -3.9 39.1 -15.6 11.7 -5.9 7.8 -11.7 -2 -3.9 -7.8 -5.9z"/></svg>