<svg height="1000" width="875" xmlns="http://www.w3.org/2000/svg"><path d="M750 -13.7H125h625H125q-52.7 2 -87.9 37.1T0 111.3v625q2 52.8 37.1 87.9t87.9 37.1h142.6l-5.9 -1.9q-3.9 -44.9 -3.9 -76.2t7.8 -72.3q9.8 -41 27.4 -113.2 11.7 -46.9 27.3 -113.3 0 -2 -7.8 -21.5 -5.9 -17.6 -5.9 -50.8 2 -68.3 37.2 -97.6 35.1 -27.4 72.2 -15.7 35.2 13.7 37.1 64.5 -1.9 41 -21.5 97.6 -9.7 31.3 -17.5 62.5 -7.8 37.1 13.6 60.6 21.5 25.4 56.7 25.4 66.4 -2 107.4 -60.6 43 -60.5 44.9 -158.2Q634.8 302.7 580.1 250T435.5 195.3Q332 199.2 275.4 259.8t-56.6 144.5q0 31.2 9.7 60.5 11.7 29.3 25.4 48.9 5.9 5.8 3.9 13.6 -3.9 15.7 -9.8 37.2 -1.9 11.7 -3.9 15.6 -1.9 13.7 -15.6 7.8 -44.9 -23.4 -70.3 -78.1Q130.9 457 130.9 402.3q0 -119.1 82 -203.1 80.1 -84 234.4 -87.9 128.9 2 210.9 78.2 82 78.1 85.9 199.2 -1.9 126.9 -70.3 210.9t-179.7 87.9q-37.1 -2 -66.4 -17.6t-42.9 -39q-2 5.8 -11.8 48.8 -11.7 44.9 -17.5 66.4 -7.8 29.3 -23.5 58.6 -15.6 31.2 -31.2 56.6H750q52.7 -1.9 87.9 -37.1T875 736.3v-625Q873 58.6 837.9 23.4T750 -13.7z"/></svg>