<svg height="1000" width="875" xmlns="http://www.w3.org/2000/svg"><path d="M125 -13.7q-52.7 2 -87.9 37.1Q2 58.6 0 111.3v625q2 52.8 37.1 87.9t87.9 37.1h625q52.7 -1.9 87.9 -37.1T875 736.3v-625Q873 58.6 837.9 23.4T750 -13.7H125zm449.2 414.1q58.6 29.3 80.1 80.1 17.6 37.1 11.7 87.9T615.2 668q-66.4 68.3 -185.5 68.3Q291 734.4 220.7 644.5q-62.5 -80 -64.4 -220.7 1.9 -140.6 64.4 -220.7 72.3 -91.8 209 -91.8 138.7 0 210.9 89.9 37.1 44.9 52.8 107.4l-52.8 13.7q-13.6 -50.8 -41 -86Q543 168 429.7 166q-111.3 2 -166 70.3 -52.8 66.4 -52.8 187.5t52.8 185.6q54.7 70.3 166 72.2 95.7 0 148.4 -54.6 29.3 -31.3 35.2 -66.5 3.9 -33.2 -7.8 -58.5 -11.7 -27.4 -41 -45 -7.9 52.8 -33.2 84 -33.3 43 -93.8 46.9 -46.9 1.9 -84 -21.5 -41 -29.3 -44.9 -78.1 -2 -46.9 33.2 -78.1Q375 380.9 433.6 377q41 -2 76.2 3.9Q505.9 351.6 492.2 334q-21.5 -21.5 -60.6 -23.5h-1.9q-37.1 -3.9 -68.4 35.2l-44.9 -31.2q39.1 -56.7 113.3 -58.6h1.9q125 3.9 134.8 140.6l7.8 3.9zM433.6 533.2q27.3 0 48.8 -17.6 23.5 -19.5 29.3 -78.1 -25.4 -5.9 -56.6 -5.9h-17.6q-43 3.9 -58.6 19.6 -17.6 17.6 -15.6 35.1 1.9 25.4 23.4 37.1t48.8 9.8h-1.9z"/></svg>