<svg height="1000" width="875" xmlns="http://www.w3.org/2000/svg"><path d="M125 -13.7h625H125h625q52.7 2 87.9 37.1t37.1 87.9v625q-2 52.8 -37.1 87.9T750 861.3H125Q72.3 859.4 37.1 824.2T0 736.3v-625Q2 58.6 37.1 23.4T125 -13.7zM597.7 248q31.2 0 50.7 -21.4 21.5 -19.6 21.5 -50.8T648.4 125q-19.5 -21.5 -50.7 -21.5 -56.7 3.9 -72.3 58.6 -44.9 5.9 -74.2 37.1 -29.3 33.2 -31.3 80.1 -97.6 3.9 -167.9 48.8 -27.4 -19.5 -62.5 -21.5 -43 2 -72.3 31.3 -29.3 27.3 -29.3 72.3 1.9 64.4 58.6 91.8 5.8 91.8 85.9 152.3 82.1 58.6 205.1 62.5 123 -3.9 205.1 -62.5Q722.7 593.8 728.5 502q56.7 -27.4 58.6 -91.8 0 -45 -29.3 -72.3 -29.3 -29.3 -72.3 -31.3 -35.1 2 -62.5 21.5Q550.8 283.2 453.1 279.3q0 -33.2 19.6 -56.6 21.4 -23.5 52.7 -29.3 15.6 52.7 72.3 56.6v-2zm-295 160.2q21.5 0 35.2 19.5 13.7 19.6 13.7 48.9 -5.9 52.7 -50.8 48.8Q252 527.3 248 474.6q2 -29.3 17.6 -46.9t37.1 -19.5zM627 474.6q-2 52.7 -50.8 50.8 -46.9 3.9 -52.8 -50.8 0 -27.3 13.7 -46.9t35.2 -19.5q23.4 0 39 19.5 13.7 17.6 15.7 46.9zm-82.1 95.7q-29.3 68.4 -107.4 72.3 -76.2 -3.9 -107.4 -72.3 -2 -7.8 5.8 -9.8 48.9 -5.8 101.6 -5.8 54.7 0 101.6 5.8 7.8 2 5.8 9.8z"/></svg>