<svg height="1000" width="875" xmlns="http://www.w3.org/2000/svg"><path d="M875 111.3Q873 58.6 837.9 23.4 802.7 -11.7 750 -13.7H125q-52.7 2 -87.9 37.1T0 111.3v625q2 52.8 37.1 87.9t87.9 37.1h625q52.7 -1.9 87.9 -37.1T875 736.3v-625zM353.5 793q-48.8 -2 -80.1 -21.5Q244.1 750 230.5 716.8l66.4 -39.1q15.6 37.1 52.7 41.1 43 5.8 44.9 -50.8V388.7h82.1V668q-2 64.4 -35.2 95.7Q408.2 793 353.5 793zm168 -84l66.4 -39.1L521.5 709l66.4 -39.1q23.4 46.9 82 50.8 52.8 -3.9 54.7 -41 0 -21.5 -15.6 -31.3Q693.4 636.7 664.1 625l-19.6 -9.8q-44.9 -17.5 -72.2 -44.9Q546.9 541 544.9 492.2q2 -46.9 33.2 -78.1 33.2 -29.3 87.9 -31.3 78.1 -1.9 117.2 66.4l-64.4 41Q699.2 453.1 666 455.1q-37.1 1.9 -39 35.1 -2 31.3 50.7 50.8l19.6 7.8q52.7 21.5 82 50.8 27.3 27.4 27.3 78.1 -1.9 56.7 -39 86T669.9 793Q556.6 787.1 521.5 709z"/></svg>