<svg height="1000" width="875" xmlns="http://www.w3.org/2000/svg"><path d="M125 -13.7q-52.7 2 -87.9 37.1Q2 58.6 0 111.3v625q2 52.8 37.1 87.9t87.9 37.1h625q52.7 -1.9 87.9 -37.1T875 736.3v-625Q873 58.6 837.9 23.4T750 -13.7H125zm560.5 326.2q0 87.9 -41 169.9 -42.9 84 -123 138.7 -82 54.7 -199.2 56.6Q210.9 675.8 125 621.1h31.3q91.7 0 158.2 -54.7 -43 0 -74.3 -25.4Q207 517.6 195.3 478.5q27.4 3.9 56.7 -1.9 -43 -9.8 -72.3 -45 -29.3 -33.2 -29.3 -82v-1.9q25.4 15.6 58.6 17.5 -27.4 -17.5 -43 -46.8Q150.4 291 150.4 257.8q1.9 -35.1 17.6 -64.4 48.8 58.6 117.2 93.7 66.4 35.2 146.4 41Q421.9 259.8 459 216.8q37.1 -44.9 99.6 -46.9 56.6 2 91.8 41 44.9 -9.7 82 -31.2 -15.6 44.9 -56.6 70.3 39 -3.9 74.2 -19.5 -27.3 39 -64.5 66.4v15.6z"/></svg>