<svg height="1000" width="875" xmlns="http://www.w3.org/2000/svg"><path d="M125 -13.7q-52.7 2 -87.9 37.1Q2 58.6 0 111.3v625q2 52.8 37.1 87.9t87.9 37.1h625q52.7 -1.9 87.9 -37.1T875 736.3v-625Q873 58.6 837.9 23.4T750 -13.7H125zm334 285.2l103.5 89.8L459 271.5l103.5 89.8 101.6 -19.5q-7.8 -11.7 -7.8 -27.3 3.9 -43 46.8 -46.9 43 3.9 46.9 46.9 -3.9 41 -44.9 46.8L595.7 605.5q-19.5 35.1 -58.6 37.1H337.9q-39.1 -2 -58.6 -37.1L169.9 361.3q-41 -5.8 -44.9 -46.8 3.9 -43 46.9 -46.9 42.9 3.9 46.9 46.9 0 15.6 -7.9 27.3l101.6 19.5L416 271.5q-27.3 -13.7 -29.3 -46.9 3.9 -46.9 50.8 -50.8 46.9 3.9 50.8 50.8 -2 33.2 -29.3 46.9z"/></svg>