<svg height="1000" width="875" xmlns="http://www.w3.org/2000/svg"><path d="M478.5 377q0 13.6 -9.7 27.3Q460.9 416 435.5 418h-37.1v-82.1h37.1q25.4 2 33.3 15.7 9.7 11.7 9.7 25.4zM875 -13.7v875 -875 875H0v-875h875zm-580.1 500q5.9 -60.5 -89.8 -87.9 -56.7 -17.5 -50.8 -37.1 0 -25.4 39.1 -27.3 41 1.9 41 35.1h60.5q0 -31.2 -23.4 -56.6 -25.4 -23.4 -76.2 -25.4 -37.1 0 -68.3 17.6 -33.2 17.6 -35.2 56.6 -2 27.4 19.5 48.9 19.6 19.5 80.1 39 46.9 13.7 43 37.1 -2 21.5 -19.6 25.4 -15.6 3.9 -19.5 2 -54.7 -2 -48.8 -43H85.9v2q0 44.9 33.2 66.4t76.2 21.4q93.8 0 99.6 -74.2zM541 377q0 -37.2 -27.3 -62.5 -25.4 -25.4 -78.2 -25.4H334v269.5h64.4v-91.8h37.1q45 -2 74.3 -23.4Q539.1 419.9 541 377zm41 181.6l95.7 -269.5L582 558.6l95.7 -269.5h-60.5l-93.8 269.5H582zM789.1 289.1h-60.6 60.6 -60.6l-93.7 269.5h58.6z"/></svg>