<svg height="1000" width="859.4" xmlns="http://www.w3.org/2000/svg"><path d="M748 496.1l4 3.9 -4 -3.9 4 3.9L419.9 173.8q-11.7 -9.7 -25.4 -1.9l-113.2 85.9q-11.8 11.7 -2 23.5l132.8 126.9q13.7 9.8 27.4 0 15.6 -9.8 27.3 0l164.1 160.2q11.7 11.7 0 23.4L447.3 736.3q-13.7 9.8 -27.4 0L123 447.3q-11.7 -9.8 -27.3 0L7.8 513.7q-13.7 11.7 -3.9 25.4l408.2 382.8 9.8 3.9t23.4 -5.9L832 599.6q11.8 -11.7 2 -23.4zM853.5 332L443.4 -70.3 853.5 332 443.4 -70.3q-3.9 -3.9 -11.8 -5.9t-21.4 7.8L7.8 248q-13.7 11.8 -3.9 23.5l84 82 334 322.3q13.6 9.7 29.3 0l97.6 -76.2 13.7 -11.7q13.7 -11.7 2 -23.4L453.1 457q-13.6 -9.7 -27.3 0 -15.6 9.8 -27.4 0L212.9 277.3q-9.8 -11.7 1.9 -23.4L394.5 113.3q15.7 -9.8 27.4 1.9l314.4 310.6q11.7 9.7 27.4 0l87.9 -70.3q13.6 -11.7 1.9 -23.5z"/></svg>