<svg height="1000" width="875" xmlns="http://www.w3.org/2000/svg"><path d="M773.4 271.5q-1.9 48.8 -35.1 84 -35.2 33.2 -84 35.1 -50.8 -1.9 -85.9 -35.1 -33.2 -35.2 -33.2 -84 0 -50.8 33.2 -86 35.1 -33.2 85.9 -33.2 48.8 0 84 33.2 33.2 35.2 35.1 86zm101.6 0q-2 93.7 -64.5 156.2Q748 490.2 652.3 494.1L439.5 648.4q-7.9 64.5 -52.8 107.5 -46.9 41 -111.3 42.9 -60.6 -1.9 -105.5 -37.1Q125 724.6 113.3 668L0 623V414.1l189.5 76.1Q234.4 462.9 291 468.8L429.7 269.5q3.9 -93.7 66.4 -156.2T652.3 48.8q95.7 2 158.2 64.5T875 271.5zM396.5 632.8q-2 -52.7 -35.2 -85.9 -35.1 -35.2 -85.9 -35.2h-13.7q-7.8 0 -13.7 2l50.8 21.5q37.1 15.6 52.8 50.7t1.9 74.3q-17.6 37.1 -52.7 52.7t-74.2 1.9Q214.8 709 201.2 703.1 183.6 697.3 166 689.5q35.2 62.5 109.4 66.4 50.8 -2 85.9 -37.1 33.2 -33.3 35.2 -86zM802.7 271.5Q800.8 207 757.8 166q-41 -43 -105.5 -43 -62.5 0 -105.4 43 -41 41 -43 105.5 2 62.5 43 105.5 42.9 41 105.4 42.9Q716.8 418 757.8 377q43 -43 44.9 -105.5z"/></svg>