<svg height="1000" width="968.8" xmlns="http://www.w3.org/2000/svg"><path d="M968.8 423.8q-2 134.8 -66.5 244.2Q837.9 777.3 728.5 841.8q-109.4 64.5 -244.1 66.4Q314.5 904.3 187.5 808.6 62.5 710.9 17.6 556.6l185.5 76.2q9.8 46.9 46.9 78.1t87.9 31.3q58.6 0 97.6 -41t39.1 -101.6L638.7 482.4q80.1 0 132.8 -52.7 52.7 -50.8 54.7 -130.9 -2 -78.1 -52.8 -128.9Q720.7 119.1 644.5 117.2q-78.1 1.9 -130.8 52.7 -50.8 50.8 -52.8 128.9v2l-115.2 168q-46.9 -2 -85.9 23.4L0 384.8Q19.5 193.4 154.3 68.4q132.8 -125 330.1 -128.9 134.7 1.9 244.1 66.4t173.8 173.8 66.5 244.1zm-664.1 250l-60.6 -23.4 60.6 23.4 -60.6 -23.4q17.6 35.1 52.8 48.8 41 17.6 80.1 2 37.1 -15.7 54.6 -56.7 17.6 -39 2 -78.1Q416 527.3 377 509.8q-39.1 -15.7 -76.2 0l62.5 25.4q29.3 11.7 41 41 9.8 27.3 0 56.6 -13.7 29.3 -43 41 -27.3 11.7 -56.6 0zM644.5 419.9q-52.7 0 -87.9 -35.1 -33.2 -33.2 -35.1 -86 1.9 -50.8 35.1 -85.9 35.2 -35.2 87.9 -35.2 50.8 0 86 35.2 33.2 35.1 35.1 85.9 -1.9 52.8 -35.1 86 -35.2 35.1 -86 35.1zm0 -29.3q39.1 -1.9 64.5 -27.3 25.4 -25.4 27.3 -64.5 -1.9 -39 -27.3 -64.4T644.5 207q-39 2 -66.4 27.4 -25.4 25.4 -25.4 64.4t27.4 64.5q25.4 25.4 64.4 27.3z"/></svg>