<svg height="1000" width="1125" xmlns="http://www.w3.org/2000/svg"><path d="M1097.7 314.5q-2 0 0 0zm-11.8 -152.4q-9.7 -23.4 -11.7 -27.3l-5.8 -11.8q-2 -7.8 -9.8 -33.2 -3.9 -19.5 -11.7 -39Q1041 41 1039.1 37.1q-2 -1.9 -2 -3.9 2 -7.8 15.6 -27.3 13.7 -21.5 23.5 -41.1 7.8 -21.4 -2 -23.4 -9.7 0 -19.5 15.6 -9.8 9.8 -19.5 17.6 -11.8 5.9 -13.7 7.8 -3.9 2 -7.8 2 -7.8 -2 -11.7 -9.8 -2 -7.8 0 -21.5 1.9 -25.4 -5.9 -29.3 -5.9 2 -15.6 23.5t-17.6 27.3q-3.9 0 -9.8 -1.9 -15.6 -4 -48.8 0T816.4 9.8Q789.1 23.4 750 54.7 710.9 84 677.7 109.4q-31.2 25.4 -31.2 27.3 -7.8 5.9 -21.5 7.8 -21.5 5.9 -48.8 23.5 -44.9 27.3 -93.8 31.2 -48.8 2 -84 -3.9 -35.1 -7.8 -39 -9.8Q253.9 160.2 197.3 156.3q-56.7 -2 -87.9 11.7t-60.6 41q-27.3 25.4 -37.1 46.9T2 283.2v2q-4 42.9 7.8 89.8 3.9 19.5 5.8 35.2v27.3q0 13.7 2 48.8t13.7 115.3q0 1.9 3.9 1.9t5.8 2q-1.9 19.5 -7.8 23.4v2q-5.9 13.6 0 31.2 3.9 13.7 7.8 43 5.9 31.2 7.8 48.8v74.2q2 15.7 3.9 21.5 9.8 17.6 25.4 19.5l7.8 3.9q3.9 5.9 2 13.7v9.8q3.9 7.8 13.7 9.8 13.6 5.8 33.2 3.9 17.5 -3.9 23.4 -7.9 2 -1.9 2 -3.9 1.9 -3.9 5.8 -5.8 15.6 0 27.4 -5.9t1.9 -19.5q0 -2 -7.8 -13.7 -5.9 -11.7 -9.8 -17.6 -3.9 -3.9 -9.7 -5.8 -2 -2 -5.9 -3.9 -7.8 -7.8 -13.7 -21.5t-5.8 -15.6q-7.8 -29.3 -11.7 -64.5t3.9 -66.4q5.8 -19.5 23.4 -58.6 19.5 -41 35.2 -76.2 17.5 -35.1 19.5 -37.1 5.9 -9.7 21.5 -13.6 15.6 -5.9 31.2 0 3.9 1.9 11.7 9.7 11.8 9.8 39.1 25.4t76.2 25.4q52.7 9.8 101.5 5.9 48.9 -2 84 -5.9 23.5 -3.9 35.2 -3.9 1.9 2 0 17.6 -3.9 17.6 -2 58.6v31.2t-1.9 9.8q-2 1.9 -5.9 17.6 -1.9 11.7 0 27.3 3.9 23.4 -3.9 64.5 0 9.7 -5.8 27.3 -9.8 33.2 -9.8 56.6l3.9 7.9q0 13.6 7.8 19.5 7.8 1.9 11.7 1.9 11.7 -3.9 7.8 19.6 -1.9 5.8 -1.9 15.6t5.8 13.7q7.9 5.8 33.2 5.8t37.2 -3.9q3.9 -1.9 3.9 -5.8 1.9 -3.9 7.8 -9.8h5.8q13.7 0 17.6 -11.7 -1.9 -5.9 -9.8 -21.5t-9.7 -17.6q-3.9 -5.8 -9.8 -7.8 -7.8 -3.9 -11.7 -7.8 -9.8 -19.5 -5.9 -60.6t7.8 -56.6q2 -11.7 5.9 -23.4 5.9 -19.6 9.8 -39.1 15.6 -56.6 19.5 -82 5.9 -27.4 13.7 -50.8 0 -2 1.9 -9.8 3.9 -11.7 9.8 -27.3 3.9 -13.7 7.8 -21.5 27.4 -46.9 62.5 -87.9l3.9 -3.9q27.4 -35.2 52.7 -72.3 23.5 -33.2 48.9 -64.4 1.9 -3.9 5.8 -7.8 7.8 -19.6 29.3 -7.8l19.6 7.8q21.4 7.8 42.9 25.4 25.4 27.3 21.5 37.1v7.8q7.8 17.6 29.3 17.6 27.4 -5.9 27.4 -3.9 7.8 -5.9 13.6 -15.7l3.9 -7.8q9.8 -9.7 9.8 -25.4v-9.7l-7.8 -15.7q-7.8 -17.5 -31.3 -78.1z"/></svg>