<svg height="1000" width="750" xmlns="http://www.w3.org/2000/svg"><path d="M302.7 226.6q3.9 -64.5 95.7 -60.6 64.5 0 138.7 17.6 72.3 19.5 138.7 52.7V-25.4Q537.1 -78.1 398.4 -76.2q-171.8 2 -273.4 84T21.5 238.3q1.9 91.8 44.9 148.4 43 54.7 105.5 86t126.9 52.7q60.6 19.5 103.5 43 41.1 23.4 43 62.5 -1.9 37.1 -31.2 52.7t-76.2 15.6q-70.3 -1.9 -152.4 -25.4 -80 -25.4 -152.3 -64.4v251.9q146.5 62.5 304.7 62.5 175.8 0 283.2 -74.2Q726.6 773.4 728.5 623 726.6 521.5 681.6 462.9T570.3 373Q505.9 339.8 441.4 320.3q-58.6 -17.6 -97.6 -39t-41.1 -54.7z"/></svg>