<svg height="1000" width="1250" xmlns="http://www.w3.org/2000/svg"><path d="M322.3 207l-84 17.6 84 -17.6 -84 17.6V502q0 39 25.4 62.5 23.4 21.4 64.4 23.4 43 -2 60.6 -11.7v-66.4q-11.7 5.8 -37.1 5.8t-29.3 -37.1v-123h66.4v-74.2h-66.4V207zm173.8 99.6l-5.9 -25.3 5.9 25.3 -5.9 -25.3H416v298.8h86V378.9q17.5 -19.5 37.1 -19.5 19.5 -2 29.3 1.9v-80q-9.8 -4 -33.2 -2 -21.5 2 -39.1 27.3zM675.8 166l-86 17.6 86 -17.6 -86 17.6v72.3l86 -19.6V166zM87.9 369.1q0 -19.5 29.3 -17.5 43 0 85.9 21.4v-82q-42.9 -15.6 -85.9 -15.6 -52.7 0 -84 25.4Q0 328.1 0 373q2 43 29.3 62.5 27.3 17.6 56.6 27.4 41.1 9.8 46.9 33.2 -1.9 21.5 -33.2 21.5 -48.8 -2 -95.7 -29.3v78.1q48.8 21.5 95.7 19.5 54.7 2 85.9 -21.4 33.3 -23.5 35.2 -70.4 -1.9 -46.8 -31.2 -66.4 -27.4 -19.5 -58.6 -29.3 -39.1 -9.7 -43 -29.3zM1250 435.5q0 -68.3 -31.2 -113.2 -31.3 -45 -93.8 -46.9 -62.5 1.9 -97.7 46.9t-35.1 111.3q0 78.1 39.1 115.2 39 39.1 103.5 39.1 62.5 -2 97.6 -23.4V500q-35.1 17.6 -85.9 17.6 -25.4 1.9 -44.9 -9.8t-21.5 -41H1248q2 -13.7 2 -31.3zm-171.9 -33.2q2 -29.3 15.7 -42.9 13.6 -13.7 31.2 -13.7 37.1 0 43 56.6h-89.9zM857.4 275.4q-50.8 5.9 -68.3 27.3l-3.9 -21.4H709v400.3l85.9 -17.5 2 -99.6q15.6 17.5 60.5 23.4 48.9 0 82.1 -37.1 35.1 -37.1 37.1 -119.2 -2 -76.1 -37.1 -115.2 -35.2 -41 -82.1 -41zm-19.5 240.2q-29.3 -1.9 -41 -17.6l-2 -128.9q13.7 -15.6 43 -15.6 23.4 0 37.1 23.5 15.6 21.4 15.6 56.6T877 492.2q-15.7 21.5 -39.1 23.4zm-248.1 64.5h86 -86 86V281.3h-86v298.8z"/></svg>