<svg height="1000" width="875" xmlns="http://www.w3.org/2000/svg"><path d="M267.6 498l113.3 45L267.6 498l113.3 45q13.6 -54.7 39 -86 25.4 -33.2 68.4 -33.2 33.2 0 60.5 15.7 25.4 15.6 52.8 37.1 31.2 27.3 70.3 48.8t95.7 23.4q48.8 2 107.4 -27.3v121.1q-2 93.7 -64.5 154.3Q748 859.4 656.3 861.3H0L82 752 0 642.6 82 533.2 0 423.8 82 314.5 0 205.1 82 95.7 0 -13.7h656.3q91.7 2 154.2 64.5T875 205.1v99.6q-13.7 54.7 -39.1 85.9 -25.4 33.2 -68.3 33.2 -33.2 0 -60.6 -15.6 -25.4 -15.6 -52.7 -39.1Q623 343.8 584 322.3t-93.8 -21.5q-56.6 -3.9 -125 35.1Q298.8 375 267.6 498z"/></svg>