<svg height="1000" width="1000" xmlns="http://www.w3.org/2000/svg"><path d="M937.5 291l9.8 54.7L937.5 291l9.8 54.7v54.7l-50.8 85.9 -76.2 152.4L710.9 771.5l-156.2 72.3 -33.2 48.8L505.9 916l-19.6 7.8q2 -1.9 9.8 -31.2 7.8 -31.3 17.6 -60.6 7.8 -29.3 11.7 -33.2 3.9 0 21.5 2h17.6l130.8 -76.2 -181.6 52.7 -109.4 70.4 -43 54.6 -13.6 4 41 -144.6 13.6 -9.7 39.1 25.3 173.8 -89.8 109.4 -99.6 29.3 -134.8L509.8 500l29.3 -35.2L201.2 359.4l160.1 -19.6L37.1 99.6l224.6 35.2L62.5 -76.2l494.1 248.1L496.1 97.7l242.2 144.5L459 48.8l35.1 74.2L398.4 87.9 308.6 -76.2l380.9 238.3 -84 -109.4 210.9 189.5 23.4 -17.6 -41 -33.2 7.8 -72.3 74.3 -21.4 56.6 48.8 23.4 7.8L947.3 166l15.6 23.5 -25.4 15.6 -19.5 39 19.5 46.9z"/></svg>