<svg height="1000" width="1000" xmlns="http://www.w3.org/2000/svg"><path d="M982.4 443.4v136.7V443.4v136.7q-1.9 91.8 -64.4 154.3t-154.3 64.4q-93.8 -1.9 -156.3 -62.5Q544.9 673.8 543 582V445.3l66.4 31.3 101.5 -31.3V584q3.9 46.9 50.8 52.7 23.5 -1.9 37.1 -15.6 15.7 -15.6 15.7 -37.1V443.4h167.9zM543 330.1l68.3 31.2L543 330.1l68.3 31.2L710.9 332v-70.3Q707 169.9 644.5 111.3 584 50.8 492.2 48.8q-91.8 2 -154.3 62.5 -62.5 58.6 -66.4 148.5v318.3q-3.9 46.9 -50.8 50.8Q171.9 625 168 578.1V443.4H0v136.7q2 91.8 64.5 154.3t154.3 64.4q93.7 -1.9 156.2 -62.5Q437.5 673.8 439.5 582V269.5q0 -21.5 15.6 -37.1 13.7 -15.6 37.1 -15.6 21.5 0 35.1 15.6Q543 248 543 269.5v60.6z"/></svg>