<svg height="1000" width="968.8" xmlns="http://www.w3.org/2000/svg"><path d="M500 -60.5Q365.2 -58.6 255.9 5.9 146.5 70.3 82 179.7 17.6 289.1 15.6 423.8 17.6 558.6 82 668t173.9 173.8T500 908.2q134.8 -1.9 244.1 -66.4T918 668t66.4 -244.2Q982.4 289.1 918 179.7T744.1 5.9 500 -60.5zm0 347.6q-31.2 2 -35.2 33.2v209q-1.9 62.5 -42.9 101.6 -41 41 -103.5 42.9 -62.5 -1.9 -103.6 -42.9T171.9 527.3v-89.8h113.3v89.8q1.9 31.3 33.2 33.2 33.2 -1.9 35.1 -33.2V314.5q2 -60.6 43 -99.7 43 -39 103.5 -41 60.5 2 103.5 41 41 41.1 43 101.6v44.9l-66.4 19.6 -44.9 -19.6v-41Q531.3 289.1 500 287.1zm328.1 240.2q-1.9 62.5 -42.9 103.6 -41.1 41 -103.6 42.9 -62.5 -1.9 -103.5 -42.9T535.2 529.3v-91.8l44.9 21.5 66.4 -19.5v91.8q1.9 31.2 35.1 33.2 31.3 -2 33.2 -33.2v-93.8h113.3v78.1q0 15.7 0 11.7z"/></svg>