<svg height="1000" width="875" xmlns="http://www.w3.org/2000/svg"><path d="M875 -13.7Q753.9 2 630.9 19.5 507.8 35.2 386.7 50.8 250 72.3 158.2 168 68.4 263.7 56.6 402.3 52.7 484.4 82 558.6q29.3 76.2 87.9 132.8L0 861.3q121.1 -15.6 244.1 -31.2 121.1 -17.6 244.2 -33.2Q625 775.4 716.8 679.7 806.6 584 818.4 445.3q3.9 -82 -25.4 -156.2Q763.7 212.9 705.1 156.3L875 -13.7zM718.8 439.5Q709 558.6 625 632.8 539.1 707 419.9 703.1 300.8 693.4 226.6 611.3q-76.2 -84 -72.3 -203.1Q164.1 289.1 250 214.8q84 -74.2 203.1 -70.3 119.2 9.8 195.3 93.8 74.3 82 70.4 201.2z"/></svg>