<svg height="1000" width="1250" xmlns="http://www.w3.org/2000/svg"><path d="M1250 437.5q-5.9 95.7 -138.7 160.2 -134.7 62.5 -335.9 66.4 -74.2 0 -140.6 -9.8h46.8q201.2 -2 336 -72.3t138.7 -175.7q-2 -87.9 -99.7 -152.4 89.9 31.3 140.7 78.1 50.7 48.9 52.7 105.5zM93.8 369.1Q97.7 263.7 232.4 193.4q134.8 -70.4 336 -74.3 23.4 0 44.9 2 -66.4 -9.8 -138.7 -9.8 -201.2 2 -335.9 66.4Q5.9 242.2 0 339.8q2 56.7 52.7 103.6 52.8 46.8 140.7 78.1Q95.7 457 93.8 369.1zm117.1 78.2q0 1.9 15.7 11.7 13.6 11.7 41 13.7 54.7 -3.9 56.6 -48.9 -1.9 -23.4 -17.6 -35.1Q293 377 275.4 371.1 248 361.3 244.1 345.7q2 -15.6 25.4 -17.6 19.6 0 21.5 13.7v7.8h27.4V334q0 -17.6 -17.6 -25.4 -15.6 -7.8 -31.3 -7.8 -52.7 3.9 -54.7 46.9 0 21.4 15.7 33.2 13.6 11.7 31.2 19.5 27.4 7.8 31.3 25.4 -3.9 19.5 -25.4 19.5 -17.6 -1.9 -27.4 -9.8 -11.7 -7.8 -11.7 -9.7l-17.6 21.5zM447.3 302.7v107.5V302.7v107.5q-2 33.2 -35.2 33.2T377 410.2V302.7h-31.3v107.5q3.9 58.6 66.4 62.5 62.5 -3.9 64.5 -62.5V302.7h-29.3zm66.4 168h31.2 -31.2 31.2v-58.6h29.3q50.8 -1.9 54.7 -54.7Q625 306.6 574.2 302.7H498v27.4h15.7v140.6zm31.2 -84v-58.6 58.6 -58.6h25.4q25.4 2 27.4 29.3 -2 27.4 -27.4 29.3h-25.4zm111.4 84h31.2 -31.2 31.2v-58.6h29.3q50.8 -1.9 52.7 -54.7 -1.9 -50.8 -52.7 -54.7h-76.2v27.4h15.7v140.6zm31.2 -84v-58.6 58.6 -58.6h25.4q25.4 2 25.4 29.3t-27.4 29.3h-23.4zm111.3 66.4q-1.9 17.6 15.7 17.6h74.2q15.6 0 15.6 -17.6v-25.4H875v11.8q0 3.9 -3.9 3.9H834q-3.9 0 -3.9 -3.9V318.4q0 -15.7 -17.6 -15.7h-29.3v27.4h9.8q5.8 0 5.8 3.9v119.1zm123.1 0q0 17.6 15.6 17.6h76.2q15.6 0 15.6 -17.6v-25.4H1002v11.8q0 3.9 -5.9 3.9H959q-5.9 0 -5.9 -3.9v-41.1h54.7V373h-54.7v-44.9h37.1q5.9 2 5.9 5.9v9.8h27.3v-25.4q0 -15.7 -15.6 -15.7H906.3v25.4h15.6v125zm115.2 -148.4v11.7 -11.7 11.7h3.9v-11.7h3.9v-2h-13.6v2h5.8zm11.7 -2v13.7 -13.7 13.7h2v-9.8l5.8 9.8h2l3.9 -9.8v9.8h3.9v-13.7h-5.9l-3.9 9.8 -3.9 -9.8h-3.9z"/></svg>