<svg height="1000" width="1250" xmlns="http://www.w3.org/2000/svg"><path d="M1158.2 300.8q17.6 -9.8 29.3 5.8 7.8 15.7 -5.9 27.4 -17.5 7.8 -29.3 -5.9 -7.8 -15.6 5.9 -27.3zm-91.8 23.4q-7.8 -42.9 21.5 -72.2 33.2 -29.3 74.2 -17.6 39.1 13.6 50.8 54.7 7.8 42.9 -21.5 72.2 -33.2 29.3 -74.2 17.6 -39.1 -13.7 -50.8 -54.7zM847.7 582q9.7 13.7 13.6 25.4 2 11.7 11.7 17.6 9.8 3.9 23.5 3.9h91.8q17.6 -1.9 19.5 -3.9 -7.8 -21.5 -31.2 -29.3 -7.8 -1.9 -15.7 -7.8 -27.3 -13.7 -41 -41Q916 539.1 918 525.4t5.8 -21.5q7.8 -9.8 19.6 -11.7t21.4 0h5.9q7.8 1.9 17.6 3.9 5.8 0 11.7 1.9 31.3 4 60.5 2 50.8 0 99.7 -17.6 33.2 -9.7 62.5 -31.2 27.3 -17.6 -2 -11.7h-3.9q-39.1 3.9 -78.1 1.9 -37.1 0 -70.3 -15.6 -25.4 -11.7 -45 -31.3 -3.9 -5.8 0 -11.7 7.9 -3.9 13.7 0 39.1 33.2 95.7 37.1 29.3 2 60.6 2 9.7 -2 21.4 -2H1230.5q11.7 2 19.5 -3.9v-3.9q0 -62.5 -15.6 -121.1 -15.6 -56.6 -76.2 -87.9 -33.2 -15.6 -72.3 -33.2t-72.2 -33.2l-50.8 -25.4q-17.6 -3.9 -19.5 13.7v99.6Q916 201.2 880.9 187.5q-5.9 -2 -11.8 -5.9 -41 -19.5 -85.9 -31.2Q695.3 123 605.5 115.2 500 103.5 398.4 125q-83.9 17.6 -162.1 56.6 -78.1 41.1 -142.5 99.7 -39.1 35.1 -64.5 83.9T0 466.8q-2 72.3 17.6 119.1t56.6 86q66.4 66.4 166 68.3 99.6 3.9 158.2 -72.2 25.4 -35.2 29.3 -78.2t-13.6 -82 -52.8 -62.5Q326.2 419.9 283.2 418q-33.2 0 -62.5 15.6 -31.2 15.6 -43 44.9 -19.5 50.8 17.6 91.8 13.7 17.6 33.2 15.6 13.7 -3.9 15.6 -15.6 0 -13.7 -9.7 -23.4 -2 -2 -3.9 -5.9 -17.6 -29.3 3.9 -54.7 19.5 -15.6 46.9 -15.6 25.3 0 44.9 11.7 29.3 19.6 37.1 52.8 7.8 50.7 -23.5 83.9 -33.2 33.2 -87.8 37.2Q195.3 660.2 150.4 627 95.7 580.1 87.9 507.8 82 437.5 142.6 386.7q60.5 -42.9 125 -41T377 373q70.3 41.1 107.4 111.4 19.5 33.2 35.1 70.3 2 1.9 2 3.9 11.7 33.2 37.1 60.5 21.5 13.7 46.9 9.8H705.1q17.6 -1.9 5.8 -15.6Q693.4 599.6 668 595.7q-3.9 -1.9 -7.8 -1.9Q630.9 582 628.9 556.6t5.9 -27.3h87.9q21.4 -2 37.1 0 17.5 2 39 9.8 29.3 13.6 48.9 42.9z"/></svg>