<svg height="1000" width="875" xmlns="http://www.w3.org/2000/svg"><path d="M875 228.5v-25.4q0 -29.3 -5.9 -58.6 -3.9 -29.3 -17.5 -54.7Q824.2 37.1 771.5 9.8 746.1 -3.9 716.8 -7.8q-29.3 -5.9 -58.6 -5.9h-457q-21.5 2 -43 5.9t-41 11.7q-5.9 2 -13.7 5.9Q84 19.5 68.4 33.2 62.5 39.1 56.6 43 37.1 64.5 23.4 89.8T5.9 144.5Q0 173.8 0 203.1v441.4q0 29.3 5.9 58.6 3.9 29.3 17.5 54.7 27.4 52.7 80.1 80.1 25.4 13.7 54.7 17.6 29.3 5.8 58.6 5.8h441.4q29.3 0 58.6 -5.8 29.3 -3.9 54.7 -17.6 52.7 -27.4 80.1 -80.1 13.6 -25.4 17.5 -54.7 5.9 -29.3 5.9 -58.6v-416zM738.3 699.2Q707 644.5 664.1 644.5q-45 0 -74.3 17.6 -1.9 0 -5.8 2l-3.9 3.9h-2q-58.6 31.2 -132.8 31.2Q373 701.2 293 666 164.1 609.4 87.9 490.2q35.1 27.4 76.2 45 83.9 39 162.1 39 78.1 -1.9 136.7 -39 -84 -64.5 -152.4 -140.7T187.5 248Q168 224.6 150.4 197.3q68.4 62.5 148.4 121.1 80.1 60.5 121.1 82Q339.8 314.5 285.2 240.2t-54.7 -76.1q125 123 216.8 187.5Q537.1 418 541 418q7.8 5.8 13.7 7.8l7.8 -23.5q19.5 -72.2 0 -148.4T494.1 111.3q113.3 70.3 170 181.7t31.2 222.6q0 3.9 -1.9 7.8v3.9q52.7 72.3 54.6 127 0 54.7 -9.7 44.9z"/></svg>