<svg height="1000" width="1000" xmlns="http://www.w3.org/2000/svg"><path d="M500 -60.5Q365.2 -58.6 255.9 5.9 146.5 70.3 82 179.7 17.6 289.1 15.6 423.8 17.6 558.6 82 668t173.9 173.8T500 908.2q134.8 -1.9 244.1 -66.4T918 668t66.4 -244.2Q982.4 289.1 918 179.7T744.1 5.9 500 -60.5zm261.7 281.2q-35.1 -1.9 -39 -33.2 0 -15.6 7.8 -23.4 3.9 -7.8 5.8 -13.7 -1.9 -9.8 -11.7 -11.7t-13.7 -2q-54.6 5.9 -78.1 66.4 -23.4 62.5 -35.1 146.5 -2 3.9 -2 9.8 62.5 5.8 87.9 -11.7 15.6 -13.7 3.9 -29.3 -7.8 -9.8 -7.8 -19.6 9.8 -27.3 35.1 -25.4t27.4 37.1q0 27.4 -37.1 50.8Q668 386.7 591.8 378.9l-3.9 23.4q-13.7 82.1 -35.2 154.3 -21.4 74.3 -74.2 138.7 -44.9 48.8 -82 64.5 -39.1 15.6 -58.6 13.6 -76.2 -1.9 -82 -58.6 1.9 -23.4 17.5 -37.1t31.3 -13.6q33.2 1.9 41 25.4 9.8 25.3 -11.7 41 -15.6 13.6 -9.8 19.5 7.8 3.9 13.7 3.9 29.3 -3.9 43 -15.6v-2q33.2 -27.3 52.7 -84 19.5 -54.6 35.2 -146.4 27.3 -144.6 35.1 -160.2h2Q490.2 334 476.6 322.3q-25.4 -29.3 -68.4 -45 -44.9 -9.7 -62.5 15.7 -21.5 33.2 3.9 60.5l25.4 27.4q46.9 46.8 41 97.6 -9.7 46.9 -54.7 70.3 -44.9 25.4 -107.4 7.8 -52.7 -17.5 -68.4 -46.8Q171.9 480.5 177.7 459q15.7 -35.2 45 -23.5 31.2 11.8 23.4 48.9 -3.9 13.6 -7.8 17.6l-3.9 7.8q-2 25.4 39 31.2 41.1 7.8 60.6 -33.2 7.8 -31.2 -31.3 -64.4l-13.6 -13.7Q250 382.8 257.8 339.8t37.1 -66.4q70.3 -44.9 127 -15.6t80.1 58.6q5.8 5.9 9.7 7.8 37.1 -101.5 80.1 -144.5 44.9 -44.9 78.1 -52.7 35.2 -9.8 41 -7.9 39.1 -1.9 62.5 13.7t25.4 41q2 13.7 -7.8 29.3 -7.8 13.7 -29.3 17.6z"/></svg>