<svg height="1000" width="1125" xmlns="http://www.w3.org/2000/svg"><path d="M298.8 -3.9Q203.1 109.4 162.1 252q-58.6 25.3 -93.7 76.1Q31.3 380.9 31.3 447.3q1.9 89.8 62.5 148.4 58.5 60.6 148.4 62.5 89.8 -1.9 148.4 -62.5 60.6 -58.6 62.5 -148.4 -1.9 -80.1 -50.8 -136.8t-125 -70.3Q324.2 115.2 418 23.4q5.8 -5.8 13.6 -5.8Q541 -17.6 654.3 7.8q179.7 41 277.3 181.7 99.7 140.6 78.2 322.2Q984.4 695.3 837.9 808.6q-146.5 111.3 -332 101.6l-46.9 -2q37.1 7.8 74.2 11.7 119.1 15.6 234.4 -23.4Q1044.9 793 1085.9 500q13.7 -156.2 -60.5 -296.9Q955.1 74.2 835.9 2 718.8 -70.3 580.1 -76.2t-269.6 62.5q-7.8 3.9 -11.7 9.8zm304.7 775.4q-1.9 33.2 -27.3 60.5 80.1 0 167.9 -44.9T892.6 642.6Q1007.8 437.5 878.9 236.3 771.5 78.1 574.2 68.4q3.9 5.8 9.8 11.7l9.8 11.7q70.3 93.7 83.9 210.9 7.8 46.9 -27.3 82.1 -11.7 7.8 -7.8 19.5l13.7 35.2 58.5 105.4q15.7 31.3 -13.6 54.7 -7.8 7.8 -19.6 13.7l-37.1 15.6 5.9 27.4q7.8 17.5 -5.9 33.2 -7.8 7.8 -5.8 19.5 5.8 33.2 -23.5 48.8 -7.8 5.9 -11.7 13.7zm-259.7 -5.9q48.8 35.2 103.5 50.8 74.2 13.7 87.9 -58.6 1.9 -25.4 23.4 -35.1 23.4 -9.8 5.9 -27.4l-19.6 -15.6 27.4 -7.8q17.5 -5.9 9.7 -23.5 -3.9 -7.8 -5.8 -17.5 -5.9 -21.5 -2 -27.4t23.5 -9.7q25.3 -7.9 42.9 -23.5 9.8 -5.8 2 -17.6l-31.3 -58.6q-1.9 -3.9 -3.9 -5.8t-3.9 -5.9v-1.9Q584 449.2 574.2 410.2q-9.7 -27.4 15.6 -46.9 15.7 -11.7 15.7 -33.2 0 -29.3 -5.9 -58.6Q582 162.1 500 85.9 486.3 72.3 466.8 78.1l-68.4 25.4q2 0 5.9 2 2 1.9 5.9 3.9 19.5 9.7 33.2 23.4 42.9 39.1 64.4 89.9 19.5 48.8 25.4 105.4 3.9 27.4 -13.7 43 -25.4 15.6 -15.6 41 15.6 39.1 33.2 76.2l33.2 56.6q-19.5 21.5 -43 29.3 -35.1 3.9 -21.4 41l3.9 3.9v3.9q7.8 13.7 -7.8 19.6l-23.5 5.8 9.8 7.9 7.8 9.7q13.7 13.7 -3.9 19.5 -21.5 11.8 -21.5 35.2 -1.9 35.2 -37.1 46.9 -11.7 1.9 -23.4 1.9l-66.4 -3.9z"/></svg>