<svg height="1000" width="968.8" xmlns="http://www.w3.org/2000/svg"><path d="M484.4 -60.5Q349.6 -58.6 240.2 5.9 130.9 70.3 66.4 179.7 2 289.1 0 423.8 2 558.6 66.4 668t173.8 173.8 244.2 66.4q134.7 -1.9 244.1 -66.4T902.3 668t66.5 -244.2q-2 -134.7 -66.5 -244.1T728.5 5.9 484.4 -60.5zm224.6 330q-3.9 39.1 -13.7 105.5 -9.8 64.5 -21.5 130.9t-19.5 111.3Q642.6 668 621.1 666q-31.3 0 -60.6 -23.4l-15.6 -11.7q-33.2 -21.5 -56.6 -39.1 -23.5 -15.6 -52.8 -33.2 -29.2 -21.5 -23.4 -35.2 3.9 -15.6 23.4 -31.2l11.8 -11.7q1.9 -3.9 21.5 -19.6 31.2 -29.3 68.3 -66.4 39.1 -35.1 43 -44.9 1.9 -1.9 -2 -7.8 -5.8 -3.9 -9.7 -2 -7.9 2 -205.1 136.8 -29.3 19.5 -52.8 17.5 -13.6 0 -35.1 -5.8 -21.5 -3.9 -39.1 -11.7 -5.8 -2 -11.7 -2 -41 -9.8 -41 -29.3 1.9 -13.7 35.2 -27.3Q431.6 326.2 502 296.9q97.6 -41 132.8 -52.8 37.1 -13.6 46.8 -13.6t19.6 5.8q5.8 5.9 7.8 13.7v19.5z"/></svg>