<svg height="1000" width="750" xmlns="http://www.w3.org/2000/svg"><path d="M140.6 892.6q0 29.3 -25.4 31.2 -25.4 2 -31.2 -25.4Q68.4 707 123 550.8 175.8 394.5 281.3 287.1q-21.5 -54.7 7.8 -101.6t91.8 -50.7q44.9 1.9 76.1 33.2 29.3 29.3 31.3 76.1 -3.9 66.4 -58.6 93.8Q377 367.2 318.4 332 220.7 435.5 173.8 578.1 127 718.8 140.6 892.6zM375 -76.2Q250 -72.3 166 0T56.6 181.6Q33.2 289.1 85.9 396.5q15.7 25.4 37.1 13.7 23.5 -11.8 13.7 -39.1Q93.8 279.3 115.2 189.5 136.7 101.6 205.1 43 275.4 -15.6 375 -17.6q113.3 2 189.5 78.1 74.2 76.2 78.1 189.5 -2 89.8 -50.8 154.3Q544.9 470.7 470.7 500q-76.2 29.3 -156.2 9.8 -29.3 -3.9 -33.2 21.5 -5.9 25.3 21.4 35.1Q412.1 587.9 502 548.8T644.5 429.7Q699.2 351.6 701.2 250 697.3 111.3 605.5 19.5T375 -76.2z"/></svg>