<svg height="1000" width="1000" xmlns="http://www.w3.org/2000/svg"><path d="M953.1 396.5l41 13.7 -41 -13.7 41 13.7q-31.2 -62.5 -58.6 -84l-3.9 -3.9 13.7 -35.2q3.9 -3.9 9.8 -27.3 5.8 -25.4 -13.7 -33.2 -1.9 -17.6 -9.8 -35.2 -9.7 -15.6 -27.3 -17.6 -21.5 -31.2 -58.6 -11.7 -27.3 13.7 -50.8 33.2 -1.9 -1.9 -1.9 -3.9 -3.9 -3.9 -3.9 -9.8v-44.9q-43 -29.3 -68.4 -27.3T668 128.9q-11.7 7.8 -23.5 13.7Q580.1 121.1 511.7 117.2q-15.6 -21.5 -39 -41 -5.9 -3.9 -9.8 -7.8L509.8 82Q500 74.2 478.5 64.5 457 56.6 443.4 52.7q41 -13.6 66.4 -46.8 7.8 -9.8 17.5 -17.6Q423.8 -41 335.9 11.7l23.5 -85.9 -3.9 -2q-43 33.2 -54.7 56.7t-11.7 31.2v2 -2q-2 -7.8 -9.8 -25.4 -7.8 -15.6 -19.5 -25.4 -9.8 23.5 0 48.9 7.8 23.4 15.6 37.1Q252 41 230.5 41 209 39.1 179.7 46.9h-7.8l64.4 27.3q-58.6 56.7 -91.8 130.9l-1.9 17.6 1.9 1.9 15.7 -7.8q-9.8 33.2 -13.7 50.8 -31.3 35.1 -52.7 78.1 -37.2 5.9 -66.5 21.5 -7.8 3.9 -13.6 5.8l5.8 7.9 56.7 1.9v2q-2 1.9 -2 3.9 -15.6 9.7 -42.9 50.8Q3.9 482.4 9.8 546.9l39 -44.9q0 1.9 2 5.8v3.9q-3.9 41 17.6 121.1 19.5 82 109.3 173.8 128.9 117.2 308.6 117.2Q669.9 919.9 793 808.6 916 695.3 921.9 511.7l5.8 -9.7 5.9 -7.9q3.9 -5.8 19.5 -33.2l25.4 29.3 5.9 -1.9q-5.9 -33.2 -17.6 -66.4 -3.9 -13.7 -13.7 -25.4zM777.3 140.6v43 -43 43q7.9 25.4 19.6 29.3 13.6 5.9 21.5 3.9h1.9l-5.8 -7.8 42.9 -11.7q-27.3 1.9 -52.7 0 13.7 -3.9 29.3 -15.7t31.2 -17.5q13.7 -3.9 23.5 11.7 9.7 23.4 17.6 54.7l3.9 -11.7q-3.9 -15.7 -3.9 -29.3 17.5 0 17.5 19.5 2 17.6 7.8 48.8l9.8 -21.5h2q3.9 -1.9 1.9 3.9 0 5.9 -9.8 35.2 -56.6 -19.5 -87.8 -15.6h-2l35.2 -31.3q-35.2 11.7 -56.7 19.5t-50.8 21.5q-1.9 -17.5 -31.2 -39l-2 1.9q-3.9 2 -1.9 5.9 0 3.9 1.9 21.5h-3.9q-3.9 -25.4 -17.5 -45l9.7 -7.8Q752 187.5 748 164.1 746.1 146.5 722.7 125q15.6 -9.8 54.6 15.6zm-78.1 -19.5q2 1.9 3.9 1.9 13.7 5.9 33.2 31.3 11.7 21.5 7.8 21.5v1.9q-1.9 5.9 -5.8 13.7 -5.9 5.9 -23.5 13.7Q693.4 166 660.2 144.5zm-521.5 82l2 -3.9 -2 3.9 2 -3.9q3.9 -7.8 19.5 -29.3l3.9 -5.8 -25.4 23.4 9.8 -9.8L168 197.3l-7.8 1.9q37.1 -72.2 64.4 -97.6l39.1 -39.1L250 66.4Q218.8 52.7 203.1 48.8h5.9q29.3 0 41 2 15.6 3.9 31.3 3.9v-2l-15.7 -70.3L291 39.1q9.8 -13.7 11.7 -27.4 5.9 -19.5 19.6 -39l3.9 -4q9.7 -15.6 15.6 -17.5Q334 -25.4 328.1 0l-1.9 13.7 -2 9.7 5.9 3.9q62.5 -39 138.7 -35.1h41Q474.6 31.3 414.1 41q-21.5 3.9 -45 5.9v-2L363.3 43q-13.7 -2 -27.4 3.9h-7.8q-1.9 -2 -5.8 -2l-3.9 3.9v2h5.8q2 1.9 5.9 1.9l-3.9 5.9h7.8l-21.5 21.5q-11.7 9.7 -7.8 17.6l9.8 -5.9h3.9q17.5 -25.4 48.8 -29.3v-5.9q19.5 2 37.1 2 19.5 0 11.7 1.9 19.5 11.8 39.1 27.4 41 29.3 58.6 68.4Q541 209 541 267.6q0 27.3 -5.8 54.7 -9.8 46.8 -31.3 89.8l3.9 2q25.4 -25.4 50.8 -29.3 25.4 -5.9 41 -3.9 2 0 5.9 1.9l-13.7 9.8 44.9 35.1 -3.9 60.6q-15.6 -35.2 -64.4 -54.7l7.8 7.8q39 35.2 35.1 31.3 -7.8 -3.9 -13.6 -5.9h-7.9q7.9 5.9 19.6 21.5Q623 502 625 505.9v1.9q2 0 -2 5.9 -5.8 7.8 -25.3 39Q509.8 533.2 455.1 505.9t-93.8 -52.8q-19.5 -13.6 -39 -25.4l23.4 3.9Q332 408.2 320.3 400.4t-35.1 -15.6q-5.9 -2 -15.7 -5.9L291 363.3q-25.4 -9.8 -54.7 1.9L250 343.8l-2 -4q-35.1 11.8 -41 21.5 -1.9 0 -1.9 2 0 -13.7 -25.4 -56.7l-2 52.8 -25.4 -9.8q4 -74.2 25.4 -146.5zm541.1 644.6q-58.6 29.3 -82.1 37.1 -23.4 7.8 -29.3 7.8l-3.9 1.9q-87.9 -35.1 -125 -115.2l58.6 33.2q-1.9 -2 -3.9 -5.9 -13.7 -9.7 -29.3 -27.3t-41 -54.7l21.5 46.9 -33.2 -15.6 15.6 27.3q15.6 29.3 41 60.6 23.5 29.2 72.3 54.6Q464.8 918 378.9 884.8T242.2 806.6q-48.8 -42.9 -52.7 -52.7h-2q33.2 27.4 70.3 48.8 9.8 5.9 19.5 2l-31.2 -41 1.9 1.9q9.8 3.9 31.3 13.7 23.4 9.8 101.6 41Q255.9 759.8 199.2 703.1l-1.9 19.6q25.4 21.4 39 52.7Q181.6 748 148.4 707 117.2 666 97.7 613.3q50.7 52.7 103.5 66.4 52.7 15.6 89.8 11.7 39.1 -1.9 41 -5.9h2q48.8 25.4 103.5 33.3 54.7 5.8 117.2 -11.8 7.8 0 23.4 21.5 17.6 21.5 27.4 54.7l7.8 -5.9 -5.9 -44.9q15.6 13.7 33.2 25.4 19.6 11.7 35.2 0Q652.3 750 638.7 738.3q-11.7 -11.7 -21.5 -43 1.9 2 3.9 2 5.9 11.7 50.8 27.3l1.9 -1.9 -19.5 -29.3q3.9 -2 7.8 -2 2 -1.9 7.8 -3.9 5.9 0 46.9 -13.7 2 15.7 3.9 29.3 5.9 33.2 5.9 64.5t-7.8 80.1zm224.6 -418h-5.9 5.9 -5.9l5.9 19.5 -2 2q-5.9 15.6 -39.1 58.6t-97.6 93.7q-58.6 41 -101.6 58.6 -44.9 17.6 -56.6 19.5v2L630.9 668l-2 5.8 27.4 31.3 -13.7 -7.8 7.8 7.8h-3.9l-43 -27.4 19.5 52.8 -37.1 -54.7 -1.9 5.8 13.7 56.7q-2 -2 -2 -5.9 -9.8 -15.6 -35.2 -39 -25.3 -21.5 -74.2 -33.2l64.5 41Q459 714.8 369.1 689.5q-1.9 0 -1.9 -2 -11.7 -2 -25.4 -5.9l2 -5.8 -86 -44.9 50.8 44.9q-87.9 11.7 -156.3 -33.2T60.5 511.7l-3.9 -31.2 -42.9 42.9q25.4 -76.1 42.9 -99.6 17.6 -21.5 48.9 -33.2l7.8 -3.9q-3.9 -1.9 -5.9 -3.9 -3.9 -3.9 -15.6 -5.8Q82 375 39.1 369.1q1.9 -1.9 5.8 -3.9 21.5 -9.7 52.8 -11.7 29.3 -1.9 83.9 25.4 2 -1.9 5.9 -3.9v-2q2 2 2 -21.4 1.9 5.8 3.9 9.7 3.9 11.7 1.9 9.8h3.9q5.9 -3.9 9.8 -5.9 9.8 -3.9 11.7 -3.9 2 -1.9 11.7 -7.8l-9.7 27.4 42.9 -11.8L248 384.8l5.9 5.8q7.8 -1.9 35.2 3.9 27.3 7.8 44.9 27.4L287.1 416q56.7 35.2 80.1 74.2t29.3 62.5l3.9 -1.9Q388.7 496.1 373 478.5q-3.9 -3.9 -3.9 -5.8 5.9 9.7 58.6 39Q480.5 543 584 562.5q-33.2 -2 -68.4 37.1l91.8 -41 -17.6 43q21.5 -29.3 41.1 -76.2v-2l1.9 -5.8 -1.9 31.2q15.6 -52.7 31.2 -99.6Q683.6 386.7 699.2 334l27.4 -52.7v-4l-11.8 -9.7h19.6l11.7 9.7 5.9 -3.9 -7.9 -31.2 25.4 37.1 80.1 -39.1 -27.3 25.4v5.9h35.1q33.2 0 64.5 7.8l-46.9 3.9 -2 5.9 52.8 44.9q27.3 29.3 52.7 62.5 -3.9 0 -5.8 -2 -11.8 -1.9 -17.6 -3.9h-19.6l25.4 62.5zM931.6 289.1l-7.8 25.4 7.8 -25.4 -7.8 25.4L896.5 293zm-498 15.6q3.9 29.3 17.6 41 -31.3 23.4 -91.8 31.3l1.9 3.9q23.5 1.9 46.9 -5.9l-13.7 25.4q13.7 -5.9 35.2 -29.3 3.9 0 5.8 -2 13.7 -5.8 19.6 -9.7 5.8 -5.9 13.7 -19.6 -29.3 -17.5 -33.3 -33.2l-1.9 -1.9zm7.8 -201.2Q421.9 93.8 416 140.6q-3.9 46.9 23.5 78.2 27.3 27.3 50.7 5.8 23.5 -23.4 -21.4 -93.7Q459 113.3 441.4 103.5zm-9.8 91.8q17.6 9.8 23.5 -21.5v-9.7l-2 1.9q-7.8 -7.8 -3.9 -11.7l2 -2q-2 -3.9 -7.8 -5.8t-17.6 15.6q0 -41 5.8 -48.8 3.9 -7.8 23.5 7.8 17.6 15.6 29.3 64.4 5.8 39.1 -17.6 41.1 -21.5 0 -35.2 -31.3zm-87.8 -11.7q3.9 1.9 9.7 -3.9 7.8 -5.9 7.8 -25.4 -11.7 -5.9 -1.9 -11.7 -3.9 -7.8 -9.8 -7.8 -13.7 0 -17.6 13.6t0 27.4q3.9 5.8 11.8 7.8zm78.1 -97.7H418h3.9H418v5.9q27.3 0 50.8 11.7 -4 -7.8 -15.7 -17.6 -13.6 -9.7 -39 -9.7V82zm-140.6 95.7q17.5 13.7 25.3 21.5 11.8 11.7 23.5 17.6 11.7 5.9 42.9 7.8l-5.8 -9.7q25.4 -21.5 29.3 -54.7Q400.4 117.2 378.9 84l25.4 -15.6q0 -2 -2 -3.9 -13.6 -4 -25.3 3.9 -19.6 11.7 -37.2 25.4 -17.5 15.6 -19.5 17.5 -5.8 5.9 -11.7 27.4 -3.9 23.4 -3.9 46.8Q293 168 271.5 171.9q-3.9 1.9 -5.9 1.9l13.7 13.7q-23.4 2 -35.2 15.6 -9.7 11.7 -11.7 15.7 5.9 0 11.7 -4 3.9 -9.7 46.9 -19.5 -1.9 -3.9 -3.9 -5.8 -3.9 -5.9 -5.8 -7.9zm37.1 -35.1q3.9 -23.5 11.7 -35.2 15.6 -17.5 31.2 -21.5Q373 84 380.9 107.4t5.8 48.9q0 27.3 -15.6 44.9 -2 3.9 -5.9 5.8 -3.9 5.9 -5.8 9.8 -11.7 0 -23.5 -2L322.3 209l-9.8 -11.7v-7.8q2 -25.4 5.9 -43zm82 109.4q-46.9 19.5 -58.6 23.4l-11.7 3.9q-29.3 3.9 -33.2 -19.5Q291 238.3 293 234.4l11.7 -2 -2 -3.9q-54.7 -1.9 -62.5 7.8 2 2 11.8 19.6 11.7 -19.6 29.3 -21.5 -5.9 33.2 3.9 66.4 -2 1.9 7.8 19.5 9.7 15.6 44.9 27.4 33.2 7.8 95.7 -9.8H416q-13.7 -43 -11.7 -56.6 33.2 -27.4 60.5 -15.7h4L445.3 250l-13.7 2q-17.5 3.9 -37.1 15.6z"/></svg>