<svg height="1000" width="875" xmlns="http://www.w3.org/2000/svg"><path d="M396.5 -60.5q35.1 -15.7 70.3 0l373 210.9q33.2 21.5 35.2 60.5v423.9q-3.9 39 -35.2 60.5l-373 212.9q-35.2 15.6 -70.3 0L35.2 695.3Q3.9 673.8 0 634.8V210.9q3.9 -39 35.2 -60.5zM244.1 330.1h-91.8v199.2h37.2v-58.6h56.6q46.9 -1.9 64.4 -37.1 15.7 -33.2 0 -66.4Q293 334 246.1 330.1h-2zm275.4 197.2L459 459l60.5 68.3L459 459q35.1 -9.8 46.9 -39.1 9.7 -31.2 -7.9 -58.6Q482.4 334 437.5 330.1H343.8v199.2h37.1v-66.4H416l58.6 66.4h44.9v-2zm-82 -162.1q35.2 3.9 35.2 31.3 0 29.3 -35.2 33.2h-56.6v-64.5h56.6zM250 363.3q31.3 3.9 31.3 37.1T250 437.5h-62.5v-74.2H250zm377 -37.1q-66.5 3.9 -89.9 54.7 -23.4 48.8 -1.9 99.6 23.4 48.8 91.8 52.7 68.3 -3.9 89.8 -52.7 23.4 -50.8 0 -99.6Q695.3 330.1 627 326.2zm0 35.1q42.9 2 58.5 35.2 13.7 33.2 0 66.4Q671.9 496.1 627 500q-43 -3.9 -58.6 -37.1 -13.7 -33.2 0 -66.4Q584 363.3 627 361.3z"/></svg>