<svg height="1000" width="1000" xmlns="http://www.w3.org/2000/svg"><path d="M406.3 95.7q0 -15.6 9.7 -27.3 7.8 -13.7 25.4 -13.7 15.6 0 25.4 13.7 7.8 11.7 7.8 27.3 0 37.1 -33.2 43 -35.1 -5.9 -35.1 -43zM1000 408.2q0 56.6 -17.6 132.8 -17.6 76.2 -52.7 121.1 -39.1 39.1 -111.3 80.1t-125 58.6h-2v62.5q-1.9 25.4 -17.6 43t-39 17.5q-31.3 -1.9 -48.9 -27.3 -17.5 25.4 -48.8 27.3 -31.2 -1.9 -48.8 -27.3 -15.6 25.4 -46.9 27.3 -31.2 -1.9 -48.8 -27.3 -17.6 25.4 -48.8 27.3 -27.4 0 -41.1 -19.5 -15.6 -19.5 -15.6 -44.9 -48.8 37.1 -111.3 39Q109.4 896.5 58.6 853.5q31.2 -1.9 58.6 -11.7Q54.7 824.2 15.6 771.5 82 785.2 146.5 750 113.3 714.8 72.3 668 33.2 621.1 13.7 578.1 -2 535.2 0 488.3 0 437.5 15.6 365.2T68.4 236.3 168 175.8q33.2 0 44.9 29.3 11.7 -15.6 23.4 -29.3l5.9 -5.9 9.8 -9.7q7.8 -13.7 13.6 -23.5 9.8 -19.5 27.4 -42.9Q341.8 31.3 410.2 -5.9 478.5 -41 556.6 -43q17.6 0 35.2 2 33.2 -35.2 82 -35.2 45 0 78.2 31.3 1.9 3.9 1.9 7.8 -3.9 11.7 -21.5 27.3l-3.9 3.9q7.8 2 19.5 9.8 9.8 5.9 11.8 13.7 -2 5.8 -7.8 11.7 0 2 -2 2 91.8 85.9 111.3 210.9 11.7 -15.6 33.2 -15.6 31.3 1.9 54.7 27.3 31.3 27.4 41 70.3 9.8 44.9 9.8 84zM367.2 97.7q0 29.3 17.6 50.7 15.6 21.5 44.9 23.5 29.3 -2 46.9 -23.5Q492.2 127 494.1 97.7 492.2 70.3 476.6 48.8 459 27.3 429.7 27.3t-44.9 21.5q-17.6 21.5 -17.6 48.9zm97.6 205q0 -58.6 15.7 -113.2 -48.9 80 -45 162.1t50.8 138.6q48.9 56.7 128.9 58.6 64.5 -1.9 117.2 -39 7.8 -21.5 7.8 -43 0 -43 -41 -43 -13.7 0 -25.4 3.9 -93.7 21.5 -150.4 -3.9Q464.8 400.4 464.8 302.7zm-80 498.1q-3.9 -37.1 -41 -41 -35.2 3.9 -39.1 41v62.5q3.9 37.1 39.1 43 37.1 -4 41 -43v-62.5zm95.7 0q-3.9 -37.1 -39.1 -41 -37.1 3.9 -41 41v62.5q3.9 37.1 41 43 35.2 -5.9 39.1 -43v-62.5zm95.7 0q-2 -37.1 -39.1 -41 -37.1 3.9 -39.1 41v62.5q2 37.1 39.1 43 37.1 -4 39.1 -43v-62.5zm97.6 0q-1.9 -37.1 -39 -41 -37.1 3.9 -39.1 41v62.5q2 37.1 39.1 43 37.1 -5.9 39 -43v-62.5zM824.2 482.4Q777.3 570.3 695.3 625q-80.1 56.6 -181.6 58.6Q371.1 677.7 287.1 578.1q-84 -101.5 -85.9 -240.2 0 -48.8 11.7 -97.7Q154.3 341.8 154.3 459q0 89.8 35.2 171.9T293 773.4q17.5 -31.2 50.8 -33.2 31.2 2 48.8 29.3 17.6 -27.3 48.8 -29.3 31.3 2 46.9 29.3 17.6 -27.3 48.8 -29.3 31.3 2 48.8 29.3 17.6 -27.3 48.9 -29.3 33.2 2 48.8 31.3Q748 716.8 783.2 642.6q35.2 -76.2 41 -160.2zm19.6 -195.3q0 -82 -46.9 -142.6Q750 84 664.1 82q-91.8 3.9 -154.3 70.3 -33.2 103.6 -25.4 183.6 9.7 80.1 105.4 84 19.6 0 45 -5.8 50.7 -9.8 91.8 -2 39 7.8 29.3 80.1 41 -39.1 64.4 -93.8 23.5 -52.7 23.5 -111.3z"/></svg>