<svg height="1000" width="875" xmlns="http://www.w3.org/2000/svg"><path d="M648.4 384.8q2 0 5.9 1.9 2 2 5.9 3.9 85.9 41 121.1 119.2 23.4 54.7 15.6 130.8t-76.2 148.5Q621.1 892.6 443.4 892.6h-2q-205.1 -2 -312.5 -136.7Q33.2 634.8 31.3 423.8q1.9 -210.9 97.6 -332Q236.3 -43 441.4 -44.9h2q207 1.9 316.4 136.7 54.7 66.4 80 160.2l-80 19.5q-19.6 -74.2 -62.5 -127Q611.3 39.1 443.4 37.1q-168 2 -252 107.4 -76.2 97.7 -78.1 279.3 1.9 181.7 78.1 279.3 84 105.5 252 107.4 144.5 0 220.7 -80 46.8 -48.9 52.7 -99.6T707 543q-19.5 -43 -62.5 -68.4 -11.7 78.1 -48.8 127Q544.9 666 453.1 669.9q-70.3 3.9 -125 -31.2 -60.5 -43 -66.4 -115.3 -1.9 -72.2 46.9 -117.1 50.8 -45 138.7 -52.8 62.5 -1.9 117.2 5.9 -7.9 -43 -29.3 -68.4 -29.3 -35.1 -89.9 -35.1h-1.9q-25.4 0 -54.7 9.7 -27.4 11.7 -48.9 43l-68.3 -46.9q58.6 -85.9 171.9 -87.9h1.9q187.5 5.9 203.1 211h-1.9 1.9zM343.8 519.5q1.9 35.2 33.2 52.8 33.2 17.5 72.2 15.6 39.1 0 74.2 -27.4 33.2 -27.3 43 -115.2 -39.1 -9.8 -85.9 -9.8 -13.7 0 -27.4 2 -62.5 3.9 -87.9 27.3 -25.4 25.4 -21.4 52.8v1.9z"/></svg>