<svg height="1000" width="968.8" xmlns="http://www.w3.org/2000/svg"><path d="M484.4 -58.6q-134.8 2 -244.2 66.4Q130.9 72.3 66.4 181.6 2 291 0 425.8q2 134.7 66.4 244.1t173.8 173.9 244.2 66.4q134.7 -2 244.1 -66.4T902.3 669.9t66.5 -244.1Q966.8 291 902.3 181.6T728.5 7.8 484.4 -58.6zm0 943.4Q355.5 882.8 252 822.3 150.4 759.8 87.9 656.3 27.3 552.7 25.4 425.8 27.3 296.9 87.9 193.4 150.4 89.8 252 29.3q103.5 -60.6 232.4 -62.5 128.9 1.9 232.4 62.5 101.6 60.5 164.1 164.1 60.5 103.5 62.5 232.4 -2 126.9 -62.5 230.5 -62.5 103.5 -164.1 166 -103.5 60.5 -232.4 62.5zM787.1 242.2v-91.8 91.8 -91.8H408.2v160.1H105.5l72.2 89.9h230.5v384.8H502V402.3h164v-91.8H502v-68.3h285.1zm-142.6 87.9V377v-46.9V377H482.4v384.7h-52.7V377H187.5l-39.1 -46.9h281.3V173.8h335.9v46.9H482.4v109.4h162.1zM328.1 195.3l-23.4 -41 23.4 41 -23.4 -41 3.9 46.9 -44.9 11.7 44.9 9.8 -3.9 46.8 23.4 -39 43 17.5 -29.3 -35.1L373 177.7zm-56.6 -39l17.6 -21.5 -17.6 21.5 17.6 -21.5 -25.4 11.7L248 121.1l4 27.3 -27.4 7.9 27.4 5.8 -2 29.3L263.7 166l25.4 11.7zm322.3 285.1l-25.4 9.8 25.4 -9.8 -25.4 9.8 -13.7 -23.5 1.9 27.4 -27.3 7.8 27.3 5.9 -1.9 27.3 13.7 -23.4 25.4 9.7 -17.6 -19.5zM802.7 289.1l-41 19.5 41 -19.5 -41 19.5 -23.4 -39.1 5.8 45 -44.9 9.7 43 9.8 -2 44.9 21.5 -39.1 41 17.6 -29.3 -33.2zM484.4 -17.6q-123.1 2 -224.6 60.6 -99.6 58.6 -158.2 158.2Q43 300.8 41 425.8q2 123 60.6 222.6t158.2 160.2q101.5 58.6 224.6 60.5 123 -1.9 224.6 -60.5Q808.6 748 867.2 648.4t60.5 -222.6q-1.9 -125 -60.5 -224.6T709 43Q607.4 -15.6 484.4 -17.6zm185.5 324.2v99.7 -99.7 99.7h-164v382.8H404.3V404.3H175.8L97.7 306.6h306.6V146.5H791v99.6H505.9v60.5h164zM484.4 7.8q89.8 2 166 35.2t134.8 91.8H396.5v160.1H87.9Q130.9 168 238.3 89.8q105.5 -80 246.1 -82zm0 834Q306.6 837.9 189.5 720.7 72.3 603.5 66.4 425.8q0 -62.5 17.6 -119.2L169.9 416h224.6v384.8h125V418h164.1V294.9H521.5v-37.1h283.2v-99.6q93.7 111.3 95.7 267.6 -3.9 177.7 -121.1 294.9T484.4 841.8zM349.6 460.9l-21.5 -41 21.5 41 -21.5 -41 3.9 46.9 -46.8 7.8 46.8 11.7 -7.8 46.9 25.4 -41 41 21.5 -29.3 -37.1 33.2 -33.2z"/></svg>