<svg height="1000" width="875" xmlns="http://www.w3.org/2000/svg"><path d="M765.6 -13.7H109.4h656.2H109.4q-46.9 2 -78.1 31.3Q2 48.8 0 95.7q0 -5.9 0 23.4V752q2 46.8 31.3 78.1 31.2 29.3 78.1 31.2h656.2q46.9 -1.9 78.2 -33.2Q873 798.8 875 752V95.7Q873 48.8 843.8 19.5q-31.3 -31.2 -78.2 -33.2zM384.8 648.4q-3.9 48.9 -52.8 52.8H169.9q-21.5 0 -37.1 -15.7 -13.7 -13.6 -15.6 -37.1V152.3q1.9 -21.4 15.6 -37.1 15.6 -15.6 37.1 -15.6H332q23.5 0 37.1 15.6 15.7 15.7 15.7 37.1v496.1zM761.7 429.7q0 23.4 -15.6 37.1 -13.7 15.6 -37.1 15.6H550.8q-21.5 0 -37.1 -15.6Q500 453.1 498 429.7V152.3q2 -21.4 15.7 -37.1 15.6 -13.6 37.1 -15.6H709q23.4 2 37.1 15.6 15.6 15.7 15.6 37.1v277.4z"/></svg>