<svg height="1000" width="1000" xmlns="http://www.w3.org/2000/svg"><path d="M896.5 220.7q1.9 13.7 1.9 25.4 0 138.7 -68.3 271.5Q763.7 650.4 632.8 738.3q-128.9 87.9 -318.3 91.8Q138.7 828.1 0 738.3q23.4 1.9 48.8 1.9 146.5 -1.9 255.9 -87.9 -70.3 -1.9 -121.1 -41t-70.3 -99.6q17.6 2 37.1 2 29.3 0 54.7 -5.9Q132.8 492.2 87.9 437.5T41 306.6v-3.9q41 23.5 91.8 27.4Q46.9 269.5 41 158.2 43 101.6 70.3 54.7q76.2 93.7 185.6 150.4 107.4 56.6 236.3 64.4 -3.9 -23.4 -3.9 -46.8 1.9 -86 58.6 -144.6Q605.5 19.5 691.4 17.6q91.8 1.9 150.4 64.4Q912.1 68.4 972.7 33.2q-25.4 72.3 -89.9 113.3 60.6 -7.8 117.2 -33.2 -43 62.5 -103.5 107.4z"/></svg>