<svg height="1000" width="875" xmlns="http://www.w3.org/2000/svg"><path d="M349.6 76.2q0 -35.2 5.9 -50.8Q363.3 9.8 377 0 271.5 13.7 173.8 46.9 76.2 82 31.3 128.9q-15.7 23.4 -17.6 74.2 1.9 78.2 35.1 187.5t87.9 216.8 117.2 179.7T373 861.3q54.7 -1.9 134.8 -78.1Q585.9 709 660.2 589.8q-19.6 5.9 -37.2 4Q566.4 587.9 502 488.3 439.5 390.6 394.5 269.5 351.6 148.4 349.6 76.2zm240.2 -89.9Q544.9 -15.6 525.4 0q-17.6 13.7 -17.6 56.6 0 68.4 31.3 158.2 29.3 89.9 74.2 158.2t93.7 72.3q25.4 -1.9 62.5 -56.6Q804.7 334 832 252q27.4 -80.1 27.4 -164.1Q855.5 29.3 777.3 7.8q-80 -23.4 -187.5 -21.5z"/></svg>