<svg height="1000" width="875" xmlns="http://www.w3.org/2000/svg"><path d="M808.6 -13.7H66.4h742.2H66.4q-27.3 0 -46.9 19.6T0 52.7v742.2q0 27.4 19.5 46.9t46.9 19.5h742.2q27.3 0 46.9 -19.5T875 794.9V52.7Q875 25.4 855.5 5.9t-46.9 -19.6zM464.8 687.5q-113.2 7.8 -195.3 -58.6 -82 -66.4 -95.7 -177.7h183.6v39q2 11.8 13.7 13.7h132.8q11.7 -1.9 13.7 -13.7V357.4q-2 -11.7 -13.7 -13.6H371.1q-11.7 1.9 -13.7 13.6v41H173.8q11.7 -105.4 86 -171.8Q332 160.2 437.5 158.2q105.5 2 177.7 68.4 74.3 66.4 86 171.8 7.8 111.4 -58.6 193.4t-177.8 95.7z"/></svg>