<svg height="1000" width="1125" xmlns="http://www.w3.org/2000/svg"><path d="M916 70.3q-1.9 -84 -74.2 -128.9 -72.3 -39.1 -146.5 0Q623 -13.7 621.1 70.3q1.9 84 74.2 127 72.3 41 146.5 0 72.3 -43 74.2 -127zM300.8 394.5q-2 -84 -74.2 -128.9 -72.3 -39 -146.5 0Q7.8 310.5 5.9 394.5q1.9 84 74.2 127 74.2 39 146.5 0 72.2 -43 74.2 -127zM111.3 599.6Q168 740.2 293 824.2q126.9 84 277.3 82.1 -43 -56.7 -44.9 -127l-39.1 -7.8Q408.2 753.9 343.8 705.1T242.2 584q-62.5 29.3 -130.9 15.6zm771.5 175.8q-1.9 -84 -74.2 -128.9 -72.3 -39.1 -146.5 0 -72.3 44.9 -74.2 128.9 1.9 84 74.2 126.9 74.2 41.1 146.5 0 72.3 -42.9 74.2 -126.9zM867.2 611.3q54.7 45 72.3 113.3 99.6 -125 107.4 -283.2 5.8 -160.1 -82.1 -293Q937.5 212.9 878.9 250q44.9 85.9 43 181.6 -3.9 95.7 -54.7 179.7zM197.3 187.5q37.1 7.8 68.3 29.3 50.8 -72.3 127 -113.3t164 -43l3.9 -35.1q11.8 -48.8 43 -87.9Q460.9 -74.2 334 -7.8 209 60.5 138.7 183.6h15.6q21.5 0 43 3.9z"/></svg>