<svg height="1000" width="996.1" xmlns="http://www.w3.org/2000/svg"><path d="M498 -60.5Q363.3 -58.6 253.9 5.9 144.5 70.3 80.1 179.7 15.6 287.1 13.7 423.8 15.6 558.6 80.1 668t173.8 173.8T498 908.2q134.8 -1.9 244.2 -66.4T916 668q64.5 -107.5 66.4 -244.2Q980.5 289.1 916 179.7T742.2 5.9Q634.8 -58.6 498 -60.5zM781.3 459q-2 80.1 -27.4 126.9t-84 68.4Q609.4 675.8 502 673.8h-7.9q-107.4 2 -167.9 -19.5 -58.6 -21.5 -84 -68.4T214.8 459q-1.9 -29.3 0 -60.6 0 -42.9 5.9 -85.9 5.9 -37.1 11.7 -62.5v-3.9q2 -7.8 3.9 -11.7 2 -7.8 9.8 -7.8l62.5 9.7q7.8 2 7.8 9.8v1.9l-1.9 17.6q-5.9 25.4 -9.8 64.5 -5.9 41 -5.9 82 0 80.1 15.7 117.2 19.5 39.1 62.5 48.8 54.6 11.7 111.3 11.7h19.5q56.7 0 113.3 -11.7 41 -9.7 60.5 -48.8 15.7 -37.1 15.7 -117.2 0 -41 -5.9 -82 -3.9 -39.1 -9.8 -64.5L679.7 248v-1.9q0 -7.8 7.8 -9.8l62.5 -9.7h2q5.8 0 9.7 7.8 0 3.9 2 9.7v5.9q5.8 27.3 11.7 62.5 5.9 43 5.9 85.9 1.9 31.3 0 60.6z"/></svg>