<svg height="1000" width="875" xmlns="http://www.w3.org/2000/svg"><path d="M335.9 378.9q5.9 0 9.8 -5.9 5.9 -29.2 29.3 -50.7 2 -2 2 -7.8 0 -4 -4 -5.9L144.5 173.8 291 89.8q9.8 -5.8 9.8 -15.6 0 -11.7 -9.8 -17.6L248 33.2q-9.7 -5.9 -19.5 0L33.2 146.5q-9.8 3.9 -9.8 15.6v224.6q0 11.7 9.8 15.6l43 25.4q5.8 2 9.7 2 7.9 0 13.7 -3.9 5.9 -5.9 5.9 -13.7v-166L332 377q2 1.9 3.9 1.9zm295 283.2q-3.9 0 -9.8 2L476.6 748V486.3q-2 -11.7 -11.8 -9.7 -29.3 9.7 -56.6 1.9 -5.9 -1.9 -9.8 0 -3.9 3.9 -3.9 7.8V748L250 664.1q-3.9 -3.9 -9.8 -3.9 -17.5 1.9 -19.5 19.5v50.8q0 9.7 9.8 15.6l197.2 113.3q3.9 1.9 7.8 1.9 5.9 0 9.8 -1.9L642.6 746.1q7.8 -5.9 9.7 -15.6v-50.8q-3.9 -15.6 -21.4 -17.6zM558.6 76.2q41 -3.9 44.9 -44.9 -3.9 -41.1 -44.9 -45 -41 3.9 -44.9 45 3.9 41 44.9 44.9zm125 -19.6q-41 3.9 -44.9 45 3.9 41 44.9 44.9 41 -3.9 44.9 -44.9 -3.9 -41.1 -44.9 -45zm123 164.1q41.1 -3.9 45 -44.9 -3.9 -41 -45 -44.9 -41 3.9 -44.9 44.9 3.9 41 44.9 44.9zm-123 -19.5q-41 3.9 -44.9 44.9 3.9 41 44.9 44.9 41 -3.9 44.9 -44.9 0 -17.6 -13.7 -31.3 -13.6 -11.7 -31.2 -13.6zm-125 164q41 -3.9 44.9 -44.9 -3.9 -41 -44.9 -44.9 -41 3.9 -44.9 44.9 0 17.6 13.6 31.3t31.3 13.6zm-121.1 70.3q41 -3.9 44.9 -44.9 -3.9 -41 -44.9 -44.9 -41 3.9 -44.9 44.9 0 17.6 13.7 31.3 11.7 13.6 31.2 13.6zM806.6 275.4q-41 3.9 -44.9 44.9 3.9 41 44.9 44.9 41.1 -3.9 45 -44.9 -3.9 -41 -45 -44.9zm0 140.6q-41 3.9 -44.9 44.9 3.9 41.1 44.9 45 41.1 -3.9 45 -45 -3.9 -41 -45 -44.9z"/></svg>