<svg height="1000" width="750" xmlns="http://www.w3.org/2000/svg"><path d="M375 861.3q117.2 -1.9 209 -62.5H166q91.8 60.6 209 62.5zM201.2 484.4v-23.5 23.5 -23.5H0V498h201.2v-13.6zm39 111.3H17.6h222.6H17.6q5.8 25.4 17.6 48.8h269.5Q267.6 627 240.2 595.7zM207 527.3H2h205H2q3.9 23.5 7.8 43h214.8q-11.7 -19.5 -17.6 -43zm-5.8 -134.7H0h201.2H0v33.2h201.2v-33.2zm0 -337.9H0h201.2H0v9.8h201.2v-9.8zm0 -68.4H0h201.2H0v3.9h201.2v-3.9zm0 134.8H0h201.2H0v15.6h201.2v-15.6zm0 203.1H0h201.2H0v29.3h201.2v-29.3zm0 -134.7H0h201.2H0V209h201.2v-19.5zm0 68.3H0h201.2H0v23.5h201.2v-23.5zm324.2 312.5h214.8H525.4h214.8q3.9 -19.5 7.8 -43H543q-5.9 23.5 -17.6 43zM548.8 209H750 548.8 750v-19.5H548.8V209zm0 72.3H750 548.8 750v-23.5H548.8v23.5zm0 -144.6H750 548.8 750v-15.6H548.8v15.6zm0 -150.4v3.9 -3.9 3.9H750v-3.9H548.8zM152.3 789.1h445.4H152.3h445.4q35.1 -25.4 62.5 -58.6H87.9q29.3 33.2 64.4 58.6zM548.8 64.5H750 548.8 750v-9.8H548.8v9.8zm0 289H750 548.8 750v-29.3H548.8v29.3zM76.2 716.8h595.7H76.2h595.7q19.5 -25.4 35.1 -52.7H44.9l7.8 11.7q9.8 21.5 23.5 41zm369.1 -72.3h271.5H445.3h271.5q7.8 -19.5 13.7 -37.1l3.9 -11.7H509.8q-27.4 31.3 -64.5 48.8zM548.8 484.4V498H750v-37.1H548.8v23.5zm0 -58.6H750 548.8 750v-33.2H548.8v33.2z"/></svg>