<svg height="1000" width="875" xmlns="http://www.w3.org/2000/svg"><path d="M476.6 103.5l156.2 89.9L476.6 103.5l156.2 89.9q7.8 7.8 0 15.6L447.3 318.4q-9.8 3.9 -17.6 0L242.2 209q-7.8 -7.8 0 -15.6l156.2 -89.9V-76.2L0 156.3V623l152.3 -89.8V351.6q4 -11.8 13.7 -7.8l185.6 109.3q9.7 3.9 9.7 13.7v218.7q-1.9 9.8 -13.6 7.9L191.4 601.6 39.1 691.4l398.4 232.4L835.9 691.4 683.6 601.6l-156.3 91.8q-11.7 1.9 -13.6 -7.9V466.8q0 -9.8 9.7 -13.7L709 343.8q9.8 -4 13.7 7.8v181.6L875 623V156.3L476.6 -76.2v179.7z"/></svg>