<svg height="1000" width="1250" xmlns="http://www.w3.org/2000/svg"><path d="M783.2 21.5q-60.5 121.1 -93.7 183.6 -35.2 64.4 -50.8 91.8Q625 324.2 619.1 334q-5.8 11.7 -7.8 25.4l-9.7 64.4q-5.9 35.2 -27.4 64.5l-289 406.2q-25.4 33.2 -66.4 29.3Q158.2 916 109.4 878.9 60.5 843.8 33.2 789.1 15.6 752 39.1 718.8l291 -406.3q21.5 -29.3 52.7 -46.9l56.7 -29.3q11.7 -5.8 21.4 -15.6 9.8 -7.8 29.3 -29.3 19.6 -23.4 70.3 -78.1Q609.4 60.5 705.1 -35.2v-3.9q1.9 -9.7 7.8 -11.7h1.9q9.8 -1.9 9.8 -9.7v-7.9q0 -7.8 5.9 -7.8 13.6 -3.9 48.8 19.6 33.2 27.3 35.2 41 1.9 5.8 -4 7.8l-9.7 1.9q-5.9 3.9 -3.9 13.7v2q0 5.8 -9.8 9.7 -1.9 0 -3.9 2zm-334 -27.4q7.8 3.9 5.9 13.7 -2 0 -2 2 0 5.8 9.8 9.7 1.9 0 3.9 2l43 85.9q1.9 3.9 5.8 0 33.2 -35.1 80.1 -82 3.9 -5.9 0 -9.8l-50.8 -50.8v-3.9q-1.9 -9.7 -5.8 -11.7 -2 0 -3.9 -1.9 -7.9 0 -9.8 -7.8l1.9 -2q2 -11.7 -5.8 -13.7 -13.7 -3.9 -50.8 19.6 -33.2 27.3 -35.2 41 0 9.7 11.8 9.7h1.9zm761.7 724.7l-291 -406.3 291 406.3 -291 -406.3q-15.6 -23.4 -35.1 -35.2Q865.2 263.7 834 248l-23.5 -11.7q-13.6 -7.8 -21.4 -15.6 -9.8 -7.8 -23.5 -23.4 -5.8 -7.8 -15.6 -17.6 -3.9 -3.9 -5.9 0Q683.6 294.9 666 324.2q-9.7 17.6 -13.7 25.4t-3.9 15.6q-5.8 31.3 0 58.6 5.9 35.2 27.4 64.5l291 406.2q23.4 33.2 64.5 29.3 58.5 -7.8 109.3 -44.9 50.8 -35.1 76.2 -89.8 17.6 -37.1 -5.9 -70.3z"/></svg>