<svg height="1000" width="750" xmlns="http://www.w3.org/2000/svg"><path d="M201.2 515.6q-9.8 7.8 -35.2 7.8 -25.4 0 -27.3 -44.9V275.4H74.2v201.2q2 70.3 41 89.8 39.1 17.6 86 9.8 44.9 -9.8 64.4 -23.5V275.4h-64.4v240.2zM7.8 70.3V502 70.3 502q2 144.5 99.6 218.7 95.7 72.3 261.7 136.7 2 2 5.9 3.9l7.8 -3.9Q546.9 793 642.6 718.8 738.3 646.5 740.2 502V70.3Q625 9.8 490.2 -5.9T228.5 0 7.8 70.3zM707 502q0 121 -80 185.5 -82.1 66.4 -252 136.7Q203.1 753.9 121.1 687.5 41 623 41 502V253.9Q193.4 121.1 369.1 89.8 544.9 60.5 707 80.1V502zM298.8 291v416V291v416h62.5V572.3q41 13.6 87.9 -15.7Q498 527.3 502 419.9q-2 -93.7 -43 -125 -39.1 -31.2 -87.9 -25.4 -46.9 5.9 -72.3 21.5zm62.5 230.5V324.2v197.3V324.2q15.7 -9.7 45 0 27.3 9.8 31.2 97.7 -2 62.5 -19.5 84 -15.7 19.5 -33.2 19.5 -17.6 -2 -23.5 -3.9zM515.6 351.6q2 39 19.6 58.6 19.5 19.5 41 31.2 37.1 15.6 42.9 48.8 -1.9 33.2 -35.1 35.2 -33.2 0 -64.5 -25.4v58.6q56.7 31.2 105.5 13.7 50.8 -17.6 56.6 -80.1 0 -43 -19.5 -64.5 -21.5 -21.4 -44.9 -33.2 -37.1 -15.6 -39.1 -44.9 2 -29.3 33.2 -31.2 31.3 0 60.6 27.3v-56.6Q625 257.8 572.3 275.4q-52.8 15.6 -56.7 76.2z"/></svg>