<svg height="1000" width="1252" xmlns="http://www.w3.org/2000/svg"><path d="M966.8 502q-74.2 -4 -121.1 -43 -46.9 -37.1 -60.5 -62.5 17.5 -138.7 66.4 -193.4 46.8 -54.7 115.2 -52.7t111.3 48.8q44.9 46.9 46.9 127 -2 80.1 -46.9 126.9Q1035.2 500 966.8 502zm0 -464.9q-121.1 2 -189.5 64.5Q709 164.1 691.4 248 648.4 160.2 623 52.7H402.3v275.4q0 76.2 -33.2 125Q334 500 267.6 502q-66.4 -2 -103.5 -48.9 -35.2 -48.8 -35.2 -125V52.7H2v275.4q0 123.1 72.2 205.1 76.2 82 193.4 82 117.2 -1.9 189.4 -80Q527.3 457 529.3 328.1V142.6q11.7 48.8 43 125 29.3 76.2 84 156.2l-68.4 388.7h130.9l44.9 -275.4q21.5 17.6 46.8 33.2 66.5 41 144.6 44.9h11.7q121.1 -1.9 201.2 -82t84 -207q-4 -127 -84 -207.1t-201.2 -82z"/></svg>