<svg height="1000" width="1250" xmlns="http://www.w3.org/2000/svg"><path d="M1253.9 423.8q-1.9 9.8 -9.8 15.7L1070.3 543q-3.9 1.9 -9.8 1.9 -3.9 0 -7.8 -1.9 -7.8 -3.9 -9.7 -13.7V459H578.1q23.5 41 44.9 89.8 19.6 46.9 41.1 82.1t48.8 37.1h52.7v-52.8q2 -15.6 17.6 -17.5H957q15.7 1.9 17.6 17.5v173.9q-1.9 15.6 -17.6 17.5H783.2q-15.6 -1.9 -17.6 -17.5v-52.8h-52.7q-60.6 -1.9 -97.7 -54.7Q580.1 630.9 556.6 570.3q-19.5 -46.9 -39 -78.1Q496.1 460.9 470.7 459H273.4q-11.7 44.9 -48.8 74.2 -35.1 29.3 -85.9 29.3 -58.6 0 -97.7 -41Q2 482.4 0 423.8q2 -58.6 41 -97.6 39.1 -41 97.7 -41 50.8 0 85.9 29.3 37.1 29.3 48.8 74.2h25.4q39.1 5.8 60.6 -11.7 23.4 -19.6 60.5 -105.5 50.8 -117.2 91.8 -140.6 41 -25.4 99.6 -19.6h21.5Q658.2 44.9 730.5 41q44.9 2 74.2 31.3t31.2 74.2q-1.9 43 -31.2 72.3Q775.4 250 730.5 250q-72.3 -3.9 -97.7 -68.4h-58.6q-27.3 0 -48.8 35.2t-41 82q-21.5 48.9 -46.9 89.9h607.4v-68.4q0 -9.8 7.8 -15.6 9.8 -3.9 17.6 0l173.8 105.5q7.9 3.9 9.8 13.6z"/></svg>