<svg height="1000" width="1125" xmlns="http://www.w3.org/2000/svg"><path d="M898.4 396.5q37.1 -58.6 27.4 -78.1Q916 298.8 877 300.8h-52.8q2 -5.9 -21.5 15.6 -23.4 7.8 -50.7 11.7 -21.5 2 -23.5 5.9 0 1.9 23.5 1.9 21.4 0 52.7 -1.9 29.3 -2 54.7 -2 27.3 0 41 2 9.8 1.9 7.8 13.7 -3.9 11.7 -9.8 27.3 -3.9 11.7 -5.8 21.5 0 9.8 5.8 0zm-218.7 43q134.8 -41.1 177.7 -45 17.6 -3.9 21.5 -5.8Q892.6 377 828.1 377q-80.1 7.8 -181.6 42.9 -99.6 35.2 -156.3 62.5L431.6 300.8h382.9q-7.9 -33.2 -146.5 -41 -138.7 -5.9 -357.5 -3.9H154.3L52.7 736.3l168 -84Q408.2 558.6 507.8 511.7q101.6 -46.9 171.9 -72.2zM185.5 111.3q129 27.4 226.6 46.9 232.4 48.8 328.1 72.3 93.8 25.4 93.8 46.8 50.8 0 72.3 2t29.2 11.7q19.6 19.5 11.8 50.8t-23.5 54.7l-15.6 25.4v1.9q-5.9 2 -85.9 33.2Q742.2 490.2 625 535.2 507.8 582 390.6 627q-117.2 46.8 -195.3 76.1 -78.1 31.3 -82 33.2h826.2l132.8 -625H185.5z"/></svg>