<svg height="1000" width="941.4" xmlns="http://www.w3.org/2000/svg"><path d="M941.4 447.3q-1.9 128.9 -62.5 236.3Q816.4 791 705.1 855.5 593.8 918 470.7 918q-125 0 -234.4 -62.5Q125 789.1 62.5 681.6 2 574.2 0 447.3q2 -127 62.5 -234.4Q125 105.5 236.3 39.1q111.4 -62.5 234.4 -62.5 125 0 236.3 62.5 109.4 66.4 171.9 173.8 60.6 107.4 62.5 234.4zm-892.6 0q-1.9 117.2 52.8 214.8 54.7 99.6 154.3 158.2 101.5 58.6 214.8 58.6t214.8 -58.6q99.7 -58.6 154.3 -158.2 54.7 -97.6 52.8 -214.8 1.9 -117.2 -52.8 -214.9Q785.2 132.8 685.5 74.2 584 15.6 470.7 15.6T255.9 74.2q-99.6 58.6 -154.3 158.2Q46.9 330.1 48.8 447.3zm752 123q-37.1 0 -50.8 -11.7 -17.6 -11.7 -17.6 -44.9V324.2q2 -19.5 -29.3 -80.1 19.6 0 58.6 -52.7v289.1q0 31.2 13.7 48.8 9.8 13.7 37.1 23.4 2 2 3.9 2t3.9 1.9q7.8 2 17.6 5.9h1.9q-3.9 7.8 -39 7.8zm-427.8 0q-3.9 7.8 -11.7 19.5l-37.1 43q-1.9 -17.6 -17.6 -39Q291 570.3 279.3 570.3H105.5q9.7 -15.6 9.7 -21.5t-5.8 -17.5q-3.9 -13.7 -3.9 -25.4 0 -21.5 11.7 -37.1L156.3 418l-13.7 -33.2 31.2 -39.1 13.7 33.2 15.6 -21.5q-5.8 19.6 -5.8 35.2 0 11.7 15.6 52.7l33.2 80.1h33.2q9.8 1.9 29.3 27.3 1.9 2 1.9 3.9 5.9 5.9 13.7 15.7L332 584q3.9 -5.9 3.9 -13.7 0 -5.8 -7.8 -25.4l-9.7 -27.3q-11.8 -31.3 -11.8 -41 0 -19.6 11.8 -35.2v-1.9l1.9 -2 27.4 -31.2q-3.9 11.7 -3.9 23.4 0 9.8 9.7 35.1l15.6 41.1 5.9 17.5q0 2 2 2H425.8v-5.9q-5.9 -9.7 -15.6 -17.5l29.3 -39.1 25.3 62.5h25.4l-11.7 -31.3q-3.9 -11.7 -15.6 -17.5l31.2 -39.1 33.2 87.9h27.4l-23.4 -56.6q-4 -11.8 -13.7 -19.6l29.3 -39 44.9 115.2h50.8q1.9 0 3.9 -2l3.9 -3.9q5.9 -5.8 5.9 -11.7V324.2q0 -19.5 -27.4 -80.1 15.6 0 50.8 -52.7v318.4q0 21.5 3.9 29.3 3.9 9.7 21.5 15.6 -11.7 15.6 -29.3 17.6H627zM181.6 484.4q-7.8 -19.6 -7.8 -29.3 0 3.9 -9.7 15.6 -3.9 5.9 -3.9 9.8 0 7.8 3.9 17.5l11.7 27.4h23.4l-17.6 -41zM209 343.8q-9.8 -15.7 -23.5 -23.5 -9.7 -5.8 -9.7 -13.7t27.3 -37.1q0 11.8 9.8 23.5 7.8 9.7 7.8 19.5 0 5.9 -11.7 31.3zm-54.7 0q-7.8 -15.7 -23.4 -23.5 -9.8 -5.8 -9.8 -13.7t27.3 -37.1q0 11.8 9.8 23.5 9.8 9.7 9.8 19.5 0 5.9 -13.7 31.3zm169.9 52.7Q316.4 382.8 300.8 375 291 369.1 291 359.4q0 -7.8 27.4 -35.2 0 11.7 9.7 21.5t9.8 19.5q0 7.8 -13.7 31.3z"/></svg>