<svg height="1000" width="875" xmlns="http://www.w3.org/2000/svg"><path d="M539.1 218.8Q486.3 64.5 400.4 -76.2q64.4 46.9 99.6 130.9 33.2 85.9 39.1 164.1zm64.4 236.3Q625 509.8 625 566.4q-2 117.2 -76.2 195.3 -74.2 76.2 -193.3 78.1l7.8 -1.9Q578.1 697.3 576.2 437.5q0 -111.3 -37.1 -218.7 3.9 35.1 1.9 70.3 2 91.8 -15.6 203.1 -17.6 113.3 -66.4 207 -50.8 95.7 -144.5 136.7Q216.8 816.4 156.3 742.2 97.7 669.9 95.7 566.4 99.6 453.1 171.9 373t189.4 -83.9q48.9 0 95.7 19.5 5.9 -44.9 25.4 -85.9Q423.8 201.2 361.3 203.1 201.2 207 107.4 310.5 13.7 412.1 7.8 554.7 2 695.3 107.4 814.5q68.4 72.2 160.2 97.6 93.7 23.4 185.5 0 93.8 -25.4 162.1 -97.6Q695.3 722.7 709 617.2 722.7 509.8 685.5 421.9q-37.1 23.4 -82 33.2zM816.4 -52.7Q789.1 3.9 752 27.3q-37.2 21.5 -74.3 31.3 -46.8 11.7 -87.9 44.9 -17.5 17.6 -29.3 44.9 -9.7 27.4 -9.7 52.8 0 42.9 23.4 76.1Q644.5 259.8 709 212.9T804.7 99.6q-3.9 21.5 -13.7 39.1 -33.2 52.7 -87.9 93.7 -54.7 43 -107.4 72.3 44.9 44.9 107.4 48.8 78.2 -3.9 121.1 -72.2 43 -70.4 43 -164.1T816.4 -52.7z"/></svg>