<svg height="1000" width="1000" xmlns="http://www.w3.org/2000/svg"><path d="M867.2 21.5Q849.6 0 767.6 -35.2q-84 -35.1 -250 -41 -3.9 0 -72.3 2 -70.3 0 -160.1 21.5 -91.8 21.4 -160.2 80Q25.4 136.7 27.3 334q-3.9 66.4 5.9 156.2 7.8 89.9 56.6 168 50.8 78.1 166.1 113.3V873q-2 2 1.9 21.5t23.5 27.4q19.5 5.8 35.1 -5.9t31.3 -31.2q7.8 -7.8 15.6 -17.6 27.3 -31.3 58.6 -64.5Q543 810.5 625 796.9q82 -11.7 93.8 -17.6 3.9 0 11.7 -2 29.3 -5.8 78.1 -27.3 48.8 -23.4 95.7 -80.1Q949.2 611.3 964.8 502 986.3 314.5 959 195.3 929.7 74.2 867.2 21.5zm27.3 462.9q-13.6 89.8 -48.8 136.7 -37.1 46.9 -78.1 64.4 -39.1 17.6 -62.5 21.5 -7.8 0 -11.7 2 -11.8 3.9 -82.1 15.6t-173.8 5.9q-2 1.9 -27.3 33.2 -27.4 31.2 -58.6 68.3l-46.9 52.8q-19.5 17.5 -21.5 -9.8V707Q189.5 677.7 148.4 615.2q-39 -64.4 -46.8 -136.7Q95.7 404.3 97.7 347.7v-11.8q-2 -164 83.9 -255.8Q238.3 31.3 316.4 13.7 392.6 -3.9 451.2 -5.9q60.5 0 62.5 2Q654.3 -2 728.5 27.3q72.3 27.4 86 45 54.6 44.9 76.1 150.4 21.5 103.5 3.9 261.7zM623 326.2q-1.9 13.6 -11.7 13.6 -11.7 0 -13.6 -11.7 -2 -64.4 -64.5 -66.4Q521.5 259.8 521.5 248q1.9 -11.7 13.7 -11.7 82 5.9 87.8 89.9zm39.1 23.4q2 -64.4 -35.1 -107.4 -39.1 -41 -113.3 -48.8Q502 191.4 502 179.7q1.9 -9.8 13.6 -11.7 86 7.8 128.9 58.6 45 50.7 43 123 -2 11.7 -11.7 11.7 -11.7 0 -13.7 -13.6v1.9zm91.8 25.4q-1.9 11.7 -11.7 11.7 -11.7 0 -13.7 -11.7Q726.6 255.9 658.2 191.4q-66.4 -62.5 -166 -62.5Q480.5 127 480.5 115.2t11.7 -11.7q111.3 0 185.5 72.3Q750 246.1 753.9 375zm-21.5 191.4q-15.6 29.3 -42.9 50.8 -27.4 23.4 -58.6 15.6v-1.9q-33.2 -9.8 -91.8 -41.1T431.6 521.5q-48.8 -39.1 -83.9 -84 -29.3 -37.1 -60.6 -89.8Q232.4 236.3 236.3 238.3 228.5 207 250 179.7q23.4 -25.4 52.7 -43 27.4 -13.7 46.9 7.8 2 2 13.7 15.7 11.7 15.6 21.5 27.3 15.6 25.4 29.3 46.9 13.6 35.1 -7.8 52.7l-23.5 17.6q-7.8 7.8 -9.8 17.6v9.7q0 2 13.7 35.2t50.8 72.3q35.2 39 99.6 58.5 2 0 9.8 -1.9 9.7 0 17.6 -9.8L584 462.9q15.6 -21.5 50.8 -5.9 48.8 25.4 89.8 62.5 21.5 19.6 7.8 46.9z"/></svg>