<svg height="1000" width="875" xmlns="http://www.w3.org/2000/svg"><path d="M787.1 -13.7H87.9h699.2H87.9q-37.1 0 -62.5 25.4T0 74.2v699.2q0 37.1 25.4 62.5t62.5 25.4h699.2q37.1 0 62.5 -25.4T875 773.4V74.2q0 -37.1 -25.4 -62.5t-62.5 -25.4zm-50.8 291q-3.9 91.8 -128.9 252 -128.9 168 -218.7 168 -54.7 0 -93.8 -101.6 -9.7 -41 -19.5 -76.2Q250 416 228.5 361.3 209 306.6 183.6 306.6q-7.8 0 -48.8 29.3l-31.3 -39q21.5 -17.6 41 -35.2 43 -41 82.1 -70.3 37.1 -29.3 64.4 -33.2 72.3 -7.8 89.9 101.6 27.3 189.4 54.6 228.5 25.4 39 78.2 -50.8 39 -62.5 41 -93.7 3.9 -46.9 -27.4 -52.8 -29.3 -5.8 -60.5 7.8Q513.7 146.5 644.5 150.4q97.7 1.9 91.8 126.9z"/></svg>