<svg height="1000" width="750" xmlns="http://www.w3.org/2000/svg"><path d="M750 421.9v101.5V421.9v101.5q-54.7 11.8 -101.6 11.8Q589.8 650.4 515.6 734.4T404.3 839.8q-39.1 25.4 -84 -1.9 -29.3 -13.7 -91.8 -84T101.6 533.2Q35.2 380.9 0 125h146.5q27.3 228.5 87.9 365.2t134.7 224.6q84 -85.9 148.5 -208.9Q443.4 466.8 402.3 392.6q-41 -76.2 -41 -171.9 0 -97.7 52.8 -160.2Q464.8 -2 560.5 -3.9 669.9 0 712.9 64.5q41 64.4 37.1 148.4 -3.9 82 -29.3 136.7 -5.9 3.9 -50.8 2 -44.9 0 -74.2 -41.1 13.7 -39 15.6 -95.7Q609.4 125 556.6 125q-56.6 0 -60.5 97.7 3.9 117.1 76.2 169.9T750 421.9z"/></svg>