<svg height="1000" width="875" xmlns="http://www.w3.org/2000/svg"><path d="M60.5 46.9Q17.6 91.8 7.8 175.8 -2 259.8 0 406.3v35.1q-2 146.5 7.8 230.5t52.7 128.9q45 43 129 52.7t230.4 7.8h35.2q146.5 2 230.4 -7.8t129 -52.7q42.9 -44.9 52.7 -128.9T875 441.4v-35.1q2 -146.5 -7.8 -230.5T814.5 46.9q-45 -43 -129 -52.8t-230.4 -7.8h-35.2q-146.5 -1.9 -230.4 7.8t-129 52.8zM148.4 252H248h-99.6H248q4 125 46.9 183.5 41 58.6 87.9 68.4V252h93.8v144.5q44.9 -5.9 83.9 -46.9T615.2 252H709q-11.7 56.6 -44.9 105.4 -33.2 46.9 -82.1 76.2 54.7 27.3 93.8 76.2 39 46.8 54.7 107.4H627q-13.7 -52.7 -54.7 -87.9t-95.7 -43v130.9h-11.8q-150.3 -2 -230.4 -97.7Q152.3 423.8 148.4 252z"/></svg>