<svg height="1000" width="1250" xmlns="http://www.w3.org/2000/svg"><path d="M205.1 611.3Q156.3 607.4 134.8 582q-21.5 -25.4 -19.6 -29.3L5.9 334Q2 332 0 316.4t25.4 -17.6h64.4q21.5 2 31.3 27.4 1.9 3.9 5.9 7.8l70.3 146.5 9.7 11.7t31.3 13.7q23.4 -2 33.2 -13.7l9.8 -11.7L351.6 334q3.9 -3.9 5.8 -7.8 7.8 -25.4 31.3 -27.4h64.4q27.4 2 25.4 17.6t-5.8 17.6L363.3 552.7q1.9 3.9 -19.5 29.3t-70.4 29.3h-68.3zm771.5 0Q927.7 607.4 906.3 582q-21.5 -25.4 -19.6 -29.3L777.3 334q-3.9 -2 -5.8 -17.6t25.4 -17.6h64.4q21.5 2 31.3 27.4 1.9 3.9 5.8 7.8l70.4 146.5 9.7 11.7t31.3 13.7q23.4 -2 33.2 -13.7t7.8 -11.7L1123 334q4 -3.9 5.9 -7.8 9.8 -25.4 31.3 -27.4h64.4q27.4 2 25.4 17.6t-5.9 17.6l-107.4 218.7q0 3.9 -21.5 29.3t-70.3 29.3h-68.3zM660.2 298.8q48.8 3.9 70.3 29.3 19.5 25.4 19.5 29.3l109.4 218.8q1.9 1.9 5.8 17.6 2 15.6 -25.4 17.5h-64.4Q752 609.4 742.2 584l-3.9 -7.8L666 429.7 658.2 418Q648.4 406.3 625 404.3q-23.4 2 -31.2 13.7l-9.8 11.7 -72.3 146.5 -3.9 7.8q-9.8 25.4 -33.2 27.3h-62.5q-29.3 -1.9 -25.4 -17.5 2 -15.7 3.9 -17.6L500 357.4q0 -3.9 19.5 -29.3 21.5 -25.4 70.3 -29.3h70.4z"/></svg>