<svg height="1000" width="1000" xmlns="http://www.w3.org/2000/svg"><path d="M500 -44.9Q369.1 -43 263.7 19.5 158.2 82 95.7 187.5T31.3 423.8q1.9 130.9 64.4 236.4t168 167.9T500 892.6q130.9 -2 236.3 -64.5t168 -167.9 64.5 -236.4Q966.8 293 904.3 187.5t-168 -168T500 -44.9zM238.3 761.7Q160.2 703.1 117.2 615.2 72.3 527.3 72.3 423.8q0 -64.4 17.5 -125L291 263.7v21.5l-27.3 3.9v39t9.7 19.6l17.6 13.6zM443.4 209l17.5 -15.6L443.4 209l17.5 -15.6q2 0 3.9 -5.9 4 -5.9 -3.9 -11.7Q447.3 166 416 138.7q-29.3 -27.4 -33.2 -31.3 -11.7 -17.6 -29.3 0 -3.9 3.9 -33.2 31.3 -31.2 27.3 -44.9 37.1 -7.8 5.8 -5.9 11.7 3.9 5.9 5.9 5.9L293 209l-2 7.8L148.4 179.7Q207 95.7 298.8 46.9 390.6 -3.9 500 -3.9q93.8 0 177.7 37.1 82.1 39.1 144.6 109.4l-378.9 72.2V209zm66.4 642.6L445.3 361.3l64.5 490.3L445.3 361.3l17.6 -13.6q9.8 -7.9 9.8 -19.6v-39l-27.4 -3.9v-21.5L916 326.2q11.7 48.8 11.7 97.6 -3.9 179.7 -121.1 298.9Q687.5 843.8 509.8 851.6z"/></svg>