<svg height="1000" width="1000" xmlns="http://www.w3.org/2000/svg"><path d="M980.5 318.4q19.5 126.9 -39.1 236.3Q880.9 662.1 759.8 724.6q17.5 52.7 -11.8 93.8t-82 42.9q-41 0 -70.3 -27.3 -29.3 -29.3 -31.2 -68.4h-70.4T416 763.7q-1.9 42.9 -33.2 70.3t-72.3 27.3q-50.7 -3.9 -78.1 -42.9t-13.6 -89.9Q107.4 693.4 23.4 589.8 5.9 562.5 19.5 537.1q13.7 -27.3 45 -29.3 46.8 0 60.5 -35.1 11.7 -35.2 13.7 -89.9 1.9 -43 9.7 -89.8Q181.6 154.3 300.8 70.3q117.2 -82 261.7 -84 154.3 2 271.5 93.8 117.2 89.8 146.5 238.3zm-250 363.2q62.5 -27.3 113.3 -80Q894.5 550.8 918 482.4q37.1 -121.1 -5.9 -222.6Q869.1 160.2 773.4 99.6 679.7 39.1 562.5 37.1q-127 2 -230.5 74.2Q226.6 183.6 199.2 302.7q-5.8 33.2 -7.8 70.3 -1.9 70.4 -23.4 127T64.5 558.6q76.1 95.7 183.5 126.9 39.1 -33.2 84 -25.3 46.9 7.8 72.3 52.7 15.6 0 52.7 1.9H576.2q21.5 -42.9 68.3 -52.7t86 19.5zM400.4 289.1q5.9 -50.8 50.8 -50.8 42.9 0 48.8 50.8 -5.9 50.7 -48.8 50.7 -44.9 0 -50.8 -50.7zm228.5 0q5.9 -50.8 48.8 -50.8 43 0 50.8 50.8 -7.8 50.7 -50.8 50.7t-48.8 -50.7zM388.7 427.7q-2 -25.4 19.5 -31.2 23.4 -3.9 31.3 21.5 5.8 33.2 41 58.6 33.2 25.4 84 25.4 52.7 -2 83.9 -27.4 33.2 -25.4 41.1 -56.6 9.7 -23.5 31.2 -17.6 19.5 5.9 17.6 29.3 -5.9 37.1 -48.8 78.1 -41.1 41 -129 44.9 -64.4 -1.9 -111.3 -35.1 -48.8 -35.2 -60.5 -89.9z"/></svg>