<svg height="1000" width="1000" xmlns="http://www.w3.org/2000/svg"><path d="M830.1 52.7q-58.6 0 -103.5 35.2 -43 33.2 -60.6 89.8Q636.7 95.7 584 72.3 533.2 48.8 500 52.7q-31.2 -3.9 -84 19.6 -50.8 23.4 -82 105.4Q318.4 121.1 275.4 87.9 230.5 52.7 171.9 52.7q-74.2 2 -123.1 43Q2 138.7 0 203.1q0 21.5 3.9 43 5.9 23.4 23.4 72.3Q44.9 369.1 82 470.7q27.4 74.2 68.4 189.5 35.1 85.9 89.8 111.3 52.8 25.4 91.8 23.4Q449.2 793 500 689.5 548.8 793 668 794.9q39 2 91.8 -23.4t89.8 -111.3q44.9 -127 74.2 -205.1 37.1 -99.6 52.8 -144.6 17.5 -46.8 19.5 -62.5 3.9 -17.5 3.9 -33.2 0 -72.2 -46.9 -117.1 -46.8 -43 -123 -45zm50.8 224.6l-127 343.8 127 -343.8 -127 343.8q-19.5 68.4 -89.8 72.3 -68.4 -2 -86 -66.4L500 398.4h-2L421.9 627q-19.6 64.4 -86 66.4 -70.3 -3.9 -89.8 -72.3l-127 -341.8q-15.6 -41 -15.6 -68.4 0 -25.4 21.5 -41 19.5 -15.6 52.7 -15.6 56.7 2 70.3 56.6l86 273.5h1.9l87.9 -267.6q13.7 -60.5 76.2 -62.5 62.5 2 76.2 62.5l87.9 267.6h1.9l86 -273.5q13.6 -54.6 70.3 -56.6 70.3 2 74.2 68.4 -2 17.5 -9.8 37.1 -1.9 7.8 -5.8 17.5z"/></svg>