<svg height="1000" width="1000" xmlns="http://www.w3.org/2000/svg"><path d="M794.9 271.5q9.8 -37.1 -13.6 -62.5 -23.5 -25.4 -58.6 -19.5 -33.2 1.9 -39.1 -25.4T709 125q76.2 -11.7 121.1 41 46.9 50.8 27.3 125 -13.6 29.3 -41 21.5 -27.3 -9.8 -21.5 -41zm-375 525.4q-105.4 0 -201.1 -33.2Q123 732.4 62.5 671.9 2 613.3 0 529.3 3.9 396.5 148.4 250 248 152.3 335.9 119.1t132.9 -3.9 19.5 123.1q-3.9 15.6 5.8 15.6t15.7 -3.9h1.9q121.1 -48.8 189.5 -23.4 68.3 23.4 33.2 123Q726.6 373 750 377q130.9 44.9 121.1 144.5T742.2 705.1Q621.1 791 419.9 796.9zM701.2 509.8Q689.5 427.7 599.6 380.9 509.8 332 380.9 343.8q-127 13.6 -205.1 78.1 -80.1 64.4 -74.2 148.4 9.7 82 101.5 130.9Q293 748 419.9 736.3q127 -13.6 207.1 -78.1 78.1 -64.4 74.2 -148.4zM679.7 -7.8Q642.6 5.9 650.4 37.1q7.8 33.2 44.9 29.3 72.3 -11.7 128.9 19.5 58.6 31.3 84 91.8 27.3 60.6 5.9 130.9 -5.9 37.1 25.4 48.8 31.2 9.8 46.8 -25.4 29.3 -99.6 -7.8 -183.6Q943.4 64.5 861.3 19.5q-80 -46.8 -181.6 -27.3zM525.4 599.6q-27.4 58.6 -87.9 84 -60.5 25.4 -125 5.9 -60.5 -19.6 -82 -70.4Q209 570.3 234.4 515.6q27.3 -52.7 84 -78.1t117.1 -9.8q62.5 17.6 89.9 66.4 25.4 46.9 0 105.5zM357.4 541q-19.5 -7.8 -41 0 -19.5 5.9 -33.2 25.4 -23.4 43 17.6 66.4 19.5 7.8 41 2Q363.3 627 377 607.4 398.4 564.5 357.4 541zm64.5 -25.4q-17.6 -3.9 -29.3 9.8 -7.8 17.6 7.8 25.4 17.6 5.8 29.3 -9.8 7.8 -17.6 -7.8 -25.4z"/></svg>