<svg height="1000" width="1125" xmlns="http://www.w3.org/2000/svg"><path d="M752 252q19.5 0 37.1 1.9Q761.7 136.7 654.3 62.5q-105.5 -74.2 -248 -76.2Q244.1 -9.8 136.7 80.1T25.4 308.6q3.9 158.2 152.3 257.8l-37.1 115.2 132.8 -66.4q9.8 2 21.5 3.9 54.7 11.8 111.4 13.7 17.5 0 35.1 -1.9 -11.7 -37.1 -11.7 -78.2 3.9 -128.9 93.7 -212.9Q613.3 253.9 752 252zM548.8 148.4q45 2 46.9 46.9 -1.9 44.9 -46.9 46.9 -23.4 0 -39 -11.7 -17.6 -13.7 -19.6 -35.2 2 -21.5 19.6 -35.1 15.6 -11.8 39 -11.8zm-267.5 93.8q-21.5 0 -39.1 -11.7 -17.6 -13.7 -17.6 -35.2t17.6 -35.1q17.6 -11.8 39.1 -11.8 46.8 2 48.8 46.9 -2 44.9 -48.8 46.9zm818.3 304.7Q1095.7 429.7 1002 353.5q-93.8 -78.1 -224.7 -82 -140.6 3.9 -230.4 82Q457 429.7 453.1 546.9q3.9 117.2 93.8 195.3t230.4 82q52.8 -1.9 107.5 -17.6 1.9 -1.9 5.8 -1.9l105.5 56.6 -29.3 -93.7q58.6 -44.9 95.7 -99.6 35.2 -56.7 37.1 -121.1zM671.9 500q-15.6 0 -25.4 -11.7 -11.7 -11.7 -11.7 -27.4 0 -13.6 11.7 -25.4 9.8 -11.7 25.4 -11.7 44.9 3.9 46.9 37.1 -2 35.2 -46.9 39.1zm209 0q-15.7 0 -25.4 -11.7 -11.7 -11.7 -11.7 -27.4 0 -13.6 11.7 -25.4 9.7 -11.7 25.4 -11.7 44.9 3.9 46.8 37.1 -1.9 35.2 -46.8 39.1z"/></svg>