<svg height="1000" width="875" xmlns="http://www.w3.org/2000/svg"><path d="M744.1 113.3q-128.9 -125 -306.6 -127 -121.1 2 -218.7 58.6Q121.1 103.5 62.5 201.2 5.9 298.8 3.9 419.9q0 117.2 56.6 216.8L0 861.3l230.5 -60.5q95.7 52.7 207 52.7 121.1 -1.9 218.8 -58.6 99.6 -58.6 158.2 -156.2T875 419.9q0 -87.9 -35.2 -166Q806.6 175.8 744.1 113.3zm-306.6 668q-99.6 -2 -183.6 -50.8l-13.7 -7.8 -136.7 35.1L140.6 625l-7.8 -13.7Q78.1 523.4 76.2 419.9 80.1 267.6 183.6 166 285.2 62.5 437.5 60.5q148.4 0 253.9 105.5 107.4 105.5 111.3 253.9 -5.8 152.4 -109.3 255.9Q589.8 777.3 437.5 781.3zM634.8 511.7q-9.8 -5.8 -37.1 -19.5 -27.4 -11.7 -37.2 -15.6 -13.6 -9.8 -23.4 3.9 -7.8 9.7 -17.6 23.4 -11.7 13.7 -17.5 19.5 -7.9 11.8 -23.5 2 -46.9 -21.5 -82 -48.8T332 396.5q-7.8 -11.7 5.9 -23.5 9.8 -7.8 25.4 -35.1 3.9 -9.8 -2 -19.5 -1.9 -2 -7.8 -19.6 -5.8 -15.6 -13.7 -35.1Q332 248 328.1 238.3q-11.7 -23.5 -21.5 -17.6h-23.4q-11.7 -1.9 -29.3 11.7 0 2 -1.9 3.9 -9.8 7.8 -21.5 29.3t-13.7 58.6q2 39.1 19.5 72.3 17.6 31.2 23.5 39h1.9q0 2 2 4 9.7 17.5 58.6 70.3 46.8 52.7 123 89.8 50.8 21.5 78.1 27.4 29.3 3.9 52.8 0 17.6 -4 41 -17.6t31.2 -33.2q13.7 -43 7.9 -52.8 -4 -5.8 -15.7 -9.7 -3.9 -2 -5.8 -2z"/></svg>