<svg height="1000" width="875" xmlns="http://www.w3.org/2000/svg"><path d="M875 238.3v-41 41 -41l-54.7 -17.6 -5.8 -21.5 39 -39.1L834 80.1l-56.7 15.6L763.7 80.1l13.6 -54.7L740.2 3.9l-41 41 -21.5 -7.8 -13.6 -50.8h-43l-13.7 50.8L584 44.9l-37.1 -41 -39.1 21.5 15.6 52.7 -15.6 17.6L453.1 80.1l-21.5 37.1 39.1 41 -5.9 21.5 -54.6 15.6v41l54.6 15.7 5.9 23.4 -39.1 39.1 19.6 35.1 58.6 -13.7 13.6 15.7 -15.6 52.7 39.1 23.4 37.1 -41 23.4 5.9 11.7 56.6h45l13.6 -56.6 21.5 -5.9 41 41 39.1 -23.4 -15.6 -54.7L777.3 334l56.7 17.6 21.5 -39.1 -41 -37.1 3.9 -23.4L875 238.3zm-232.4 87.9q-46.9 0 -78.1 -31.3 -31.3 -31.2 -33.2 -80.1 1.9 -46.8 33.2 -78.1t78.1 -31.2 78.1 31.2 33.2 78.1q-1.9 48.9 -33.2 80.1t-78.1 31.3zm140.6 33.2l91.8 27.3 -91.8 -27.3 91.8 27.3v78.1l-107.4 25.4 -7.8 45 76.1 68.3 -39 74.2L691.4 646.5l-27.3 29.3 33.2 101.5 -76.2 45 -76.2 -78.2 -41 11.8 -25.4 105.4h-82L371.1 755.9l-43 -11.8 -70.3 76.2 -72.3 -43 29.3 -97.6 -27.3 -33.2L80.1 675.8 41 607.4l74.2 -74.2 -9.7 -43L0 462.9v-80.1l105.5 -29.3 11.7 -39L41 238.3 82 168l103.5 27.3 29.3 -31.2L185.5 62.5l72.3 -39.1 70.3 76.2L373 87.9l23.5 -101.6h82L502 76.2 457 64.5l-11.7 -4 -7.8 11.8L416 109.4l-5.8 11.7 9.7 7.8 33.2 35.2v1.9l-46.8 11.7 -11.8 3.9 -1.9 11.8v25.4Q322.3 236.3 277.3 291t-46.8 130.9q1.9 87.9 60.5 144.5Q349.6 625 437.5 627q74.2 0 128.9 -45t72.3 -115.2h39l3.9 -13.7 9.8 -46.8h3.9l33.2 33.2 9.8 9.7 11.7 -5.8 39.1 -23.5 11.7 -7.8 -3.9 -11.7 -13.7 -41z"/></svg>