<svg height="1000" width="1250" xmlns="http://www.w3.org/2000/svg"><path d="M1250 23.4v23.5V23.4v23.5q-80.1 5.8 -109.4 80.1 -17.6 39 -48.8 111.3 -52.7 125 -123 287.1T837.9 826.2h-27.4l-160.1 -377q-35.2 68.4 -72.3 138.7Q515.6 709 457 826.2q-1.9 1.9 -15.6 0h-13.7Q359.4 666 289.1 507.8 216.8 345.7 148.4 183.6q-19.5 -43 -62.5 -87.9Q41 50.8 0 48.8V21.5h316.4v25.4Q285.2 48.8 252 66.4 220.7 84 230.5 115.2q13.6 27.4 37.1 80.1 21.5 52.7 50.8 117.2 46.8 109.4 91.8 214.8 44.9 103.6 66.4 150.4 13.6 -27.3 39 -72.2 23.5 -45 48.9 -95.7Q601.6 441.4 623 398.4q-17.5 -39 -56.6 -126.9Q541 214.8 517.6 162.1L482.4 85.9Q466.8 62.5 433.6 54.7 402.3 46.9 373 48.8V21.5h277.4v25.4q-29.3 1.9 -48.8 13.6t-7.8 37.2q25.3 56.6 46.8 101.5 21.5 48.8 46.9 103.5 9.8 -19.5 41 -83.9 31.3 -62.5 52.8 -113.3Q806.6 48.8 705.1 48.8 707 43 707 35.2V21.5h240.3v25.4Q875 50.8 834 109.4L718.8 349.6q5.8 17.6 33.2 78.1t56.6 125q15.6 37.1 29.3 66.4 11.7 27.4 15.6 35.2l238.3 -550.8q-13.7 -33.2 -44.9 -44.9Q1017.6 46.9 1000 48.8V21.5l250 1.9z"/></svg>