<svg height="1000" width="1250" xmlns="http://www.w3.org/2000/svg"><path d="M767.6 181.6v3.9q1.9 19.6 -5.9 43 -7.8 21.5 -48.8 39.1 -29.3 13.7 -31.3 17.6 0 -45 7.9 -64.5 7.8 -21.5 25.3 -31.2 15.7 -5.9 33.2 -7.9h19.6zM543 250l-68.4 259.8L543 250l-68.4 259.8L419.9 296.9q-17.6 -93.8 -95.7 -93.8 -74.2 0 -93.7 93.8l-54.7 212.9L107.4 250q-9.7 -39.1 -39 -56.6Q37.1 177.7 0 181.6L128.9 666h23.4t39.1 -7.8q19.5 -9.8 33.2 -25.4 11.7 -17.6 25.4 -66.4 9.8 -43 27.3 -115.2 11.8 -46.9 21.5 -84t11.7 -43q15.7 -42.9 29.3 0 2 5.9 11.8 41 7.8 37.1 19.5 82.1 19.5 76.1 29.3 119.1 11.7 48.8 25.4 66.4 11.7 15.6 33.2 25.4 17.6 7.8 39 7.8h23.5L650.4 181.6q-37.1 -3.9 -68.4 13.7 -31.2 15.6 -39 54.7zm224.6 9.8q1.9 3.9 -25.4 23.4l-23.4 11.7q-5.9 2 -11.8 5.9 -19.5 7.8 -23.4 19.5t-2 35.2V666h17.6t35.2 -7.8q19.5 -7.8 27.3 -25.4t5.9 -60.5V259.8zm320.3 166L1250 183.6l-162.1 242.2L1250 183.6q-3.9 -2 -39.1 -2t-62.5 21.5q-17.5 13.7 -35.1 37.1 -17.6 25.4 -46.9 68.4 -11.7 15.6 -25.4 35.2 0 3.9 -7.8 7.8 -7.8 5.8 -17.6 -7.8Q1002 324.2 992.2 308.6q-29.3 -43 -48.8 -68.4 -17.6 -23.4 -33.2 -37.1 -29.3 -21.5 -64.5 -21.5t-37.1 2l162.1 242.2L808.6 666q3.9 2 39.1 0 37.1 0 66.4 -21.5 11.7 -11.7 27.3 -31.2 15.6 -21.5 46.9 -68.4 11.7 -17.6 27.3 -39 9.8 -13.7 17.6 -7.9 7.8 4 7.8 7.9 13.7 19.5 25.4 35.1 29.3 43 44.9 64.5 17.6 23.4 33.2 39 29.3 21.5 66.4 21.5 35.2 2 39.1 0L1087.9 425.8z"/></svg>