<svg height="1000" width="1250" xmlns="http://www.w3.org/2000/svg"><path d="M427.7 599.6q-3.9 2 -9.7 11.7 -3.9 11.7 9.7 33.2 7.8 9.8 19.6 15.7t23.4 -2q19.5 -15.6 0 -44.9 -17.6 -27.4 -43 -13.7zM1085.9 748q-1.9 4 2 0 5.9 -11.7 9.8 -39 1.9 -58.6 -52.8 -99.6 -54.7 -43 -146.5 -52.8 -80 -9.7 -175.7 15.7Q627 599.6 531.3 673.8l-2 3.9q9.8 11.8 7.8 41.1 95.7 -84 189.5 -117.2 91.8 -33.2 171.8 -27.4 86 7.8 140.7 44.9 52.7 37.2 54.7 87.9 -2 23.5 -5.9 35.2 -2 1.9 -2 5.8zM765.6 392.6q3.9 21.5 17.6 21.5 17.6 0 21.5 -13.7 1.9 -7.8 1.9 -31.3 2 -23.4 2 -27.3 -2 2 -11.7 7.8 -11.7 7.8 -17.6 13.7 -11.7 9.7 -13.7 29.3zM668 97.7Q468.8 103.5 324.2 168 177.7 234.4 95.7 304.7 13.7 377 2 394.5q-4 2 1.9 3.9Q97.7 421.9 209 517.6 322.3 615.2 386.7 793h2q82 -105.5 201.1 -175.8Q709 544.9 851.6 543q119.1 1.9 185.5 50.8 66.4 46.8 68.4 105.4 1.9 54.7 -43 91.8 -2 2 0 0 48.8 -33.2 54.7 -93.7 -2 -33.2 -11.7 -52.8Q1095.7 623 1093.8 623q21.4 25.4 21.4 31.3 9.8 -58.6 29.3 -89.8t23.5 -31.3Q1156.3 502 1154.3 498q11.7 13.7 19.5 37.2t7.8 42.9q2 33.2 -23.4 62.5v2q27.3 -13.7 31.3 -74.2 -4 -48.9 -7.9 -50.8 15.7 -15.6 31.3 -23.5 1.9 11.8 3.9 29.3 0 3.9 2 0 1.9 -19.5 0 -31.2l17.5 -9.8Q1220.7 375 1140.6 287.1 1060.5 201.2 937.5 150.4T668 97.7zM474.6 664.1q-17.6 11.7 -33.2 7.8Q423.8 668 414.1 656.3q-21.5 -33.3 9.7 -64.5 21.5 -13.7 37.1 -5.9 15.7 5.9 23.5 17.6 1.9 2 7.8 19.5 3.9 19.6 -17.6 41.1zm3.9 -265.7L498 363.3l-19.5 35.1L498 363.3 519.5 502l-23.4 11.7L447.3 457l27.3 -52.7 7.8 9.8 -3.9 -15.7zM515.6 627h-1.9 1.9 -1.9q5.8 -5.9 -7.8 -23.5 -9.8 -11.7 -25.4 -39 -3.9 -5.9 -9.8 -4v-1.9q21.5 -15.6 50.8 -31.3v2l3.9 3.9 3.9 3.9 -2 2q-1.9 -2 -9.7 0t-23.5 15.6v1.9q3.9 5.9 7.9 13.7 1.9 3.9 1.9 5.9h2q3.9 -3.9 7.8 -5.9 9.7 -5.8 13.6 -9.8h2q0 2 2 9.8v2h-2q-5.9 -2 -19.5 9.7 11.7 25.4 17.5 29.3 4 3.9 5.9 2v1.9q-1.9 0 -3.9 2 -7.8 5.8 -13.7 9.8zM623 564.5q-3.9 0 -5.8 1.9 -5.9 3.9 -13.7 7.8v-1.9q2 -2 -1.9 -9.8 -2 -9.8 -19.6 -46.9 0 -3.9 -1.9 -5.8 -2 0 -9.8 3.9t-9.8 9.7h-1.9l-2 -11.7Q568.4 503.9 584 498q15.6 -7.8 25.4 -9.7l1.9 -2h2l5.8 9.8v1.9q-7.8 -3.9 -19.5 2 -1.9 2 -5.8 2v1.9q17.5 43 21.4 52.7 5.9 7.9 7.8 5.9v2zm87.9 -33.2q-9.7 1.9 -19.5 5.8v-9.8q-3.9 -13.6 -5.9 -25.3l-1.9 -2 -23.4 7.8 -2 2q2 1.9 2 5.8 3.9 9.8 5.8 19.6 3.9 7.8 5.9 7.8 -7.8 3.9 -15.6 5.8 -2 2 -4 2 2 -3.9 0 -9.8 0 -3.9 -3.9 -11.7 -3.9 -11.7 -7.8 -25.4 -3.9 -11.7 -5.8 -15.6 -2 -5.9 -5.9 -7.8 2 0 3.9 -2 7.8 -1.9 17.6 -3.9v9.8l3.9 7.8q2 5.8 2 9.8 9.7 -2 17.5 -5.9 5.9 0 7.8 -2h2l-5.9 -17.5q-1.9 -5.9 -5.8 -7.8v-2h5.8l15.7 -3.9q-2 3.9 0 9.8 1.9 7.8 5.8 21.4l5.9 29.3q1.9 7.9 5.8 7.9zm62.5 -13.7v1.9 -1.9 1.9q-17.5 2 -44.9 7.8l2 -9.7q-2 -9.8 -5.9 -23.5l-3.9 -27.3q0 -3.9 -5.9 -7.8h2q31.2 -3.9 48.8 -5.9v2q2 3.9 2 9.7h1.9 -1.9q1.9 -5.8 -31.3 0 0 5.9 2 19.6h1.9q9.8 -2 11.8 -2l7.8 -1.9h1.9v1.9q-1.9 2 -1.9 7.8h-3.9q-2 -1.9 -15.7 0 0 5.9 2 17.6 1.9 3.9 1.9 7.8 3.9 0 15.7 -1.9t15.6 -7.8h1.9q-1.9 7.8 -3.9 11.7zm21.5 -86q-13.6 5.9 -21.5 5.9 -1.9 0 -13.6 -2T738.3 418q-9.8 -17.6 -3.9 -35.2 3.9 -17.6 15.6 -27.3 13.7 -11.7 29.3 -17.6 17.6 -5.9 25.4 -15.6 9.8 -17.6 -9.8 -25.4 -21.5 -7.8 -46.9 13.6l-5.8 -5.8 9.8 -31.3h1.9q37.1 -3.9 62.5 2 25.4 3.9 33.2 29.3 2 11.7 0 23.4 0 7.8 -1.9 25.4 -2 13.7 -2 19.5 -1.9 7.9 -1.9 23.5v17.6q0 7.8 3.9 11.7 7.8 3.9 9.7 1.9v9.8q-19.5 -2 -25.4 -2h-15.6q-1.9 -1.9 -1.9 -3.9 -4 -3.9 -5.9 -11.7 -2 3.9 -13.7 11.7zm72.3 41.1Q857.4 457 841.8 460.9q-13.7 3.9 -17.6 23.5 -1.9 23.4 13.7 29.3 15.6 3.9 27.3 -9.8 0 2 -1.9 5.9l-2 5.8v2q-17.5 9.7 -35.1 -2 -17.6 -9.7 -15.7 -35.1 4 -15.7 19.6 -23.5t37.1 3.9v11.8zm11.7 -171.9v-11.7 11.7 -11.7q2 0 21.5 3.9 17.6 3.9 31.2 9.7l-1.9 35.2q0 -2 11.7 -9.8 9.8 -9.7 17.6 -11.7 9.8 -1.9 19.5 5.9l9.8 7.8 -21.5 21.5q-17.6 -7.8 -27.3 -3.9 -11.8 3.9 -13.7 5.8 -2 19.5 -3.9 33.2 -5.9 33.2 -3.9 43 1.9 11.7 17.5 13.7l-1.9 9.7q-23.4 -5.8 -35.2 -7.8t-37.1 -5.8l2 -9.8q17.6 -3.9 15.6 -13.7 0 -5.8 3.9 -52.7 3.9 -44.9 5.9 -54.7 -5.9 -7.8 -9.8 -7.8zm21.5 224.6q-27.4 -9.8 -21.5 -41Q892.6 457 916 464.8q27.4 11.8 19.5 37.2 -7.8 27.3 -35.1 23.4zm82 17.6q-5.8 0 -13.6 -3.9h-4v-2l4 -3.9v-5.9q0 -9.7 0 -7.8l-13.7 -5.8 -3.9 7.8 -3.9 3.9 -2 5.9v1.9q0 -1.9 -3.9 -1.9 -3.9 -2 -7.8 -2l5.9 -3.9q13.6 -17.6 27.3 -39.1v-5.8l7.8 3.9t7.8 1.9v7.8t-1.9 43q0 3.9 1.9 5.9zm-9.7 -173.9q17.5 -27.3 39 -27.3t27.4 19.5l15.6 -50.8q1.9 -17.5 -7.8 -21.4h-2l3.9 -7.8q17.6 15.6 27.4 23.4l17.6 17.6q-17.6 44.9 -27.4 74.2 -19.5 52.7 -25.4 70.3 -3.9 17.6 3.9 19.5l-3.9 7.8 -23.4 -11.7q-3.9 -1.9 -11.7 -3.9l3.9 -13.7q-5.9 5.9 -17.6 5.9Q962.9 466.8 959 433.6q-5.9 -31.3 13.7 -64.5zm56.6 154.3q-3.9 -17.5 -13.7 -9.7 -1.9 3.9 2 11.7 1.9 1.9 1.9 3.9 5.9 7.8 2 19.5 -3.9 7.8 -13.7 7.8 -9.8 -1.9 -15.6 -9.7l3.9 -9.8h1.9q0 7.8 5.9 11.7t9.8 -1.9q1.9 -7.8 -3.9 -17.6 -7.8 -7.8 -3.9 -17.6 13.6 -15.6 29.3 3.9v2l-5.9 5.8zm43 25.4q-2 0 -2 -1.9 -1.9 -2 -7.8 -5.9 -7.8 13.7 -17.6 31.3 -1.9 5.8 -1.9 7.8l-11.7 -7.8 1.9 -2 3.9 -1.9q9.8 -17.6 17.6 -33.2l-2 -2q-1.9 -1.9 -9.7 -1.9l5.8 -7.9q13.7 9.8 25.4 17.6l-1.9 7.8zm52.7 -85.9l-5.9 -5.9 5.9 5.9 -5.9 -5.9v-1.9q3.9 -5.9 3.9 -11.7 0 -15.7 -9.7 -17.6 -11.7 -3.9 -11.7 7.8 0 5.9 5.8 19.5 7.8 19.6 7.8 33.2 0 31.3 -25.4 33.2 -13.6 0 -27.3 -9.7Q1050.8 500 1048.8 498l9.8 -27.3 5.9 3.9q0 25.4 13.6 29.3 15.7 3.9 13.7 -19.5 -2 -2 -3.9 -5.9 -7.8 -15.6 -11.7 -39 -5.9 -21.5 19.5 -29.3 19.5 0 31.3 13.6 11.7 15.7 13.6 19.6l-15.6 19.5zm68.4 -19.5q-9.8 -33.2 -48.9 -91.8 -39 -58.6 -119.1 -107.5Q947.3 195.3 820.3 189.5q-78.1 0 -140.6 19.5 -64.5 21.5 -119.2 54.7l166.1 -17.6 -177.8 41 48.9 37.1L589.8 293q13.7 -3.9 50.8 -9.8t80.1 -7.8l-43 156.2q37.1 -1.9 37.1 -42.9l9.8 -3.9 2 52.7q-64.5 9.8 -97.7 19.5l25.4 -84L535.2 300.8l3.9 15.6 19.5 9.8q11.7 31.2 23.4 70.3 13.7 39 17.6 44.9 0 11.7 23.4 7.8l2 9.8q-23.4 7.8 -39.1 13.7t-37.1 15.6l-5.8 -9.8q1.9 0 3.9 -1.9 13.6 -3.9 7.8 -23.5 -29.3 -74.2 -37.1 -95.7 -3.9 -13.6 -5.9 -17.6l-1.9 -1.9 3.9 -9.8 66.4 132.8q-2 -3.9 -2 -7.8 -1.9 -3.9 -9.7 -25.4 -9.8 -21.4 -52.8 -121.1l-82 171.9 9.8 -25.4 -70.4 -84 54.7 183.6 -23.4 15.7q-80.1 -72.3 -125 -113.3 -64.5 -58.6 -78.1 -70.3T181.6 377q-7.8 0 -17.5 3.9l-7.8 5.8L146.5 375q41 -31.2 58.6 -44.9 19.5 -13.7 54.7 -39.1l7.8 13.7q-3.9 3.9 -15.6 13.7 -7.9 9.7 3.9 25.4t60.5 64.4q23.4 23.4 56.6 58.6L335.9 351.6 414.1 332l50.7 60.6 7.9 -25.4 -9.8 -46.9 25.4 -7.8 1.9 5.9 7.8 -19.6 -185.5 56.7 23.4 -9.8 -27.3 -82 33.2 -17.6 58.6 70.3L457 291q0 -3.9 -1.9 -7.8 -2 -17.6 -7.8 -31.2l33.2 27.3 9.7 -3.9L375 191.4l44.9 23.4q33.2 -11.7 46.9 -15.6l15.6 -3.9 5.9 21.5q-15.6 15.6 -7.8 25.4 5.8 7.8 17.5 11.7h2L474.6 134.8l23.4 56.6 13.7 -3.9 5.9 15.6q-2 2 -13.7 3.9l17.6 41 66.4 -126.9 -41 119.1q62.5 -37.1 123 -54.7Q732.4 168 804.7 169.9q105.5 0 220.7 64.5 117.2 64.4 169.9 209 2 5.8 -1.9 0zM396.5 220.7q1.9 0 9.8 -1.9l17.5 15.6q-1.9 -2 -21.5 3.9l-5.8 -17.6zm281.2 76.2q-3.9 -3.9 -27.3 0 -25.4 5.8 -37.1 41l43 33.2 21.4 -74.2zM621.1 54.7q-85.9 1.9 -148.4 11.7Q412.1 78.1 396.5 82v2q23.4 3.9 43 23.4h1.9q11.7 -3.9 68.4 -13.6Q568.4 82 656.3 80.1 834 84 966.8 148.4q130.9 64.5 205.1 164.1 74.2 97.7 74.2 205.1v19.5q0 5.9 1.9 0t2 -37.1q0 -85.9 -64.5 -189.5Q1119.1 209 980.5 132.8 841.8 58.6 621.1 54.7zm412.1 332q5.9 -21.5 -13.7 -25.4 -13.6 0 -23.4 23.5 -7.8 25.4 -9.8 41 -1.9 9.7 0 19.5t11.7 9.8q7.9 1.9 15.7 -9.8 7.8 -9.8 19.5 -58.6zm-119.1 84q-3.9 -1.9 -11.8 0 -7.8 3.9 -13.6 19.5 -3.9 23.5 11.7 29.3 13.7 7.8 23.4 -21.5 3.9 -27.3 -9.7 -27.3zm44.9 41h5.8q2 2 5.9 2v-19.6q0 -1.9 2 -3.9 -7.9 9.8 -13.7 19.6v1.9z"/></svg>