<svg height="1000" width="1250" xmlns="http://www.w3.org/2000/svg"><path d="M347.7 587.9h-72.3 72.3 -72.3L218.8 359.4l-56.7 228.5H87.9L0 253.9h74.2L127 480.5l58.5 -226.6h68.4l56.6 230.5h2l54.7 -230.5h70.3zM529.3 339.8q58.6 0 91.8 35.2 33.2 33.2 35.2 91.8 -2 58.6 -35.2 91.8 -33.2 35.2 -91.8 35.2 -56.6 0 -89.8 -35.2 -33.2 -33.2 -33.2 -91.8T439.5 375q33.2 -35.2 89.8 -35.2zm0 203.2q35.2 0 46.9 -23.5 13.6 -23.4 13.6 -52.7 0 -31.3 -13.6 -52.7 -11.7 -23.5 -46.9 -25.4 -39.1 1.9 -48.8 25.4 -9.8 21.4 -7.8 52.7 -2 29.3 11.7 52.7 11.7 23.5 44.9 23.5zm320.3 13.6q-25.4 39.1 -74.2 37.2 -54.7 -2 -82 -39.1Q668 515.6 668 464.8T693.4 377q27.3 -35.2 80 -37.2 46.9 0 72.3 35.2V253.9h66.4v334h-62.5v-31.3zM791 388.7q-31.2 1.9 -44.9 23.4 -13.7 23.4 -11.7 54.7 -2 29.3 13.6 52.7 13.7 23.5 43 23.5 33.2 0 44.9 -23.5 13.7 -23.4 13.7 -52.7 0 -31.3 -13.7 -54.7Q824.2 390.6 791 388.7zm367.2 199.2h-62.5 62.5 -62.5v-35.2h-1.9q-29.3 41.1 -74.3 41.1 -50.7 0 -70.3 -27.4t-17.6 -72.3V345.7H998v136.7q-1.9 58.6 43 58.6 52.8 2 50.8 -68.3v-127h66.4v242.2zm17.6 -72.3h74.2 -74.2 74.2v72.3h-74.2v-72.3z"/></svg>