<svg height="1000" width="1000" xmlns="http://www.w3.org/2000/svg"><path d="M523.4 845.7L543 875l-19.6 -29.3L543 875l11.7 -23.4 9.8 13.6v58.6q23.4 -11.7 31.2 -54.7 9.8 -42.9 13.7 -91.8 1.9 -23.4 3.9 -42.9 1.9 -11.7 3.9 -27.4 0 -50.7 27.3 -121.1T773.4 443.4Q744.1 375 767.6 287.1q41 2 76.2 23.4 33.2 19.6 46.8 82.1L832 408.2q35.2 66.4 25.4 140.6l-52.7 -13.6L793 601.6l-37.1 -13.7 -15.7 64.4 -39 -13.6 52.7 41L769.5 625l48.9 9.8L832 566.4l50.8 27.4q2 -11.8 2 -27.4 3.9 -31.2 1.9 -68.4t-19.5 -68.3l50.8 9.8q5.8 -58.6 -13.7 -103.6 0 -3.9 -2 -7.8l43 19.6q-1.9 -39.1 -37.1 -74.3t-82 -41Q793 230.5 755.9 201.2q-35.2 -29.3 -35.2 -70.3 2 -29.3 23.4 -56.7 23.5 -27.3 60.6 -39 -58.6 54.6 -39.1 93.7 21.5 39.1 48.9 48.8 9.7 -19.5 15.6 -89.8 7.8 -72.3 -15.6 -164.1Q752 -43 697.3 23.4q-56.7 68.4 -64.5 189.5l-113.3 76.2 -7.8 181.6 211 -117.2 13.6 13.7 -35.1 7.8 -86 74.2L584 439.5l-54.7 95.7 -5.9 234.3 41.1 31.3L500 832l-62.5 -31.2 41 -31.3 -7.8 -234.3L416 439.5l-31.2 9.7 -86 -74.2 -33.2 -7.8 13.7 -13.7 209 117.2 -5.9 -181.6L369.1 212.9Q359.4 91.8 304.7 23.4 248 -44.9 185.5 -76.2 162.1 15.6 169.9 87.9q7.8 70.3 15.6 89.8 29.3 -9.7 48.9 -48.8Q255.9 89.8 197.3 35.2q37.1 11.7 58.6 39t25.4 56.7q0 41 -37.2 70.3t-68.3 31.2q-48.8 5.9 -84 41t-37.1 74.3l43 -19.6q0 3.9 -2 7.8Q76.2 380.9 84 439.5l50.8 -9.8q-17.6 31.2 -19.6 68.3t0 68.4q2 15.6 2 27.4L168 566.4l13.6 68.4 48.9 -9.8 17.5 54.7 50.8 -41 -37.1 13.6 -17.6 -64.4L209 601.6l-11.7 -66.4 -54.7 13.6Q134.8 474.6 168 408.2l-58.6 -15.6q15.6 -62.5 48.8 -82.1 33.2 -21.4 74.2 -23.4 25.4 87.9 -3.9 156.3 101.6 72.2 128.9 142.5 25.4 70.4 27.4 121.1 0 15.7 1.9 27.4 3.9 19.5 5.9 42.9 1.9 48.9 11.7 91.8t33.2 54.7v-58.6l9.8 -13.6L457 875l21.5 -29.3 21.5 41 23.4 -41zM677.7 660.2l-31.2 -21.5 31.2 21.5 -31.2 -21.5Q668 625 683.6 615.2v7.8q0 15.7 -5.9 37.2zm54.7 -97.7q0 33.2 -3.9 62.5 -23.4 -5.9 -41 -13.7 23.4 -23.4 44.9 -46.8v-2zm48.9 11.7q-2 -39 -11.8 -66.4 -15.6 27.4 -35.1 52.7zM787.1 416q54.7 39.1 58.6 109.4 -1.9 -2 -3.9 -2 -35.2 -13.6 -68.4 -19.5 13.7 -35.1 13.7 -87.9zm-3.9 -89.8q2 5.8 2 13.6 1.9 35.2 1.9 68.4 37.1 -15.6 62.5 -21.5 11.7 -1.9 23.4 -5.8 -33.2 -50.8 -89.8 -54.7zm-459 334l31.3 -21.5 -31.3 21.5 31.3 -21.5Q332 625 316.4 615.2v7.8q0 15.7 7.8 37.2zm-54.7 -97.7q0 33.2 2 62.5 25.4 -5.9 41 -13.7l-43 -46.8v-2zm-48.8 11.7q0 -39 9.8 -66.4 15.6 27.4 37.1 52.7zM212.9 416q-54.7 39.1 -58.6 109.4 3.9 -2 5.9 -2 33.2 -13.6 66.4 -19.5Q212.9 468.8 212.9 416zm3.9 -89.8v15.6q-3.9 33.2 -3.9 66.4 -37.1 -15.6 -62.5 -21.5 -9.8 -1.9 -23.4 -5.8 33.2 -50.8 89.8 -54.7z"/></svg>