<svg height="1000" width="1000" xmlns="http://www.w3.org/2000/svg"><path d="M500 -60.5Q365.2 -58.6 255.9 5.9 146.5 70.3 82 179.7 17.6 289.1 15.6 423.8 17.6 558.6 82 668t173.9 173.8T500 908.2q134.8 -1.9 244.1 -66.4T918 668t66.4 -244.2Q982.4 289.1 918 179.7T744.1 5.9 500 -60.5zM64.5 423.8q0 -95.7 37.1 -177.7l208.9 570.3Q199.2 761.7 132.8 658.2T64.5 423.8zM500 859.4q-64.5 0 -123 -17.6L507.8 462.9l132.8 365.2q2 3.9 3.9 5.9Q576.2 859.4 500 859.4zm60.5 -638.7q45 -3.9 48.9 -5.9Q627 210.9 627 195.3q-2 -13.7 -19.6 -15.6 -3.9 0 -41 1.9 -39.1 3.9 -76.2 3.9 -35.1 0 -72.2 -3.9 -39.1 -1.9 -41 -1.9 -17.6 1.9 -19.6 17.6t15.6 17.5q5.9 2 46.9 5.9l66.4 185.6 -93.7 285.1L232.4 220.7q44.9 -3.9 50.8 -5.9 17.6 -3.9 15.6 -19.5 0 -13.7 -17.5 -15.6 -4 0 -41.1 1.9 -39 3.9 -76.1 3.9h-27.4Q195.3 95.7 291 43q93.8 -52.8 209 -54.7 173.8 3.9 294.9 115.2l-1.9 -1.9h-3.9q-33.2 1.9 -52.8 23.4 -19.5 23.4 -21.5 54.7 4 46.9 37.2 93.7 3.9 3.9 5.8 7.9 31.3 41 37.1 121 -1.9 50.8 -31.2 130.9 -2 3.9 -2 9.8l-44.9 144.5L560.5 218.8v1.9zm158.3 580.1L851.6 416 718.8 800.8 851.6 416q35.1 -91.8 33.2 -156.2 0 -23.5 -2 -45 50.8 93.8 52.7 209Q933.6 544.9 875 644.5q-56.6 97.7 -156.2 156.3z"/></svg>