<svg height="1000" width="1000" xmlns="http://www.w3.org/2000/svg"><path d="M121.1 253.9l197.3 543 -197.3 -543 197.3 543Q212.9 746.1 150.4 646.5 85.9 548.8 84 423.8 85.9 332 121.1 253.9zm660.2 148.4q-5.9 -74.2 -35.2 -113.2l-3.9 -7.8q-33.2 -45 -37.1 -89.9 0 -31.2 19.5 -52.7t50.8 -21.5h5.9Q666 11.7 500 7.8q-109.4 2 -199.2 50.8Q209 109.4 152.3 195.3h27.4q35.1 0 70.3 -1.9 37.1 -2 41 -2 15.6 0 17.6 15.6 0 13.7 -15.6 17.6 -5.9 2 -46.9 3.9l150.4 451.2 91.8 -273.4L423.8 228.5q-39 -1.9 -44.9 -3.9Q363.3 222.7 363.3 207q1.9 -15.6 19.5 -15.6 2 0 39.1 2 35.1 1.9 70.3 1.9t70.3 -1.9q37.1 -2 39.1 -2 17.5 0 19.5 15.6 0 13.7 -15.6 17.6 -5.9 2 -46.9 3.9L707 675.8l43 -138.7q2 -7.8 3.9 -13.7 25.4 -74.2 27.4 -121.1zm-273.5 58.6l-125 361.4 125 -361.4 -125 361.4q56.7 17.5 117.2 17.5 72.3 0 138.7 -23.4 -2 -3.9 -3.9 -5.9l-127 -349.6zM865.2 224.6q2 19.5 2 43 1.9 60.5 -31.3 148.4L709 783.2q93.7 -54.7 150.4 -148.4Q914.1 541 916 423.8 914.1 314.5 865.2 224.6zm119.2 199.2Q982.4 558.6 918 668 853.5 777.3 744.1 841.8 634.8 906.3 500 908.2 365.2 906.3 255.9 841.8T82 668 15.6 423.8Q17.6 289.1 82 179.7T255.9 5.9 500 -60.5q134.8 1.9 244.1 66.4T918 179.7t66.4 244.1zm-21.5 0q-2 -128.9 -64.5 -232.4Q837.9 85.9 732.4 25.4 628.9 -37.1 500 -39.1q-128.9 2 -232.4 64.5 -105.5 60.5 -166 166Q39.1 294.9 37.1 423.8q2 128.9 64.5 232.5 60.5 105.4 166 166 103.5 62.5 232.4 64.4 128.9 -1.9 232.4 -64.4 105.5 -60.6 166 -166 62.5 -103.6 64.5 -232.5z"/></svg>