<svg height="1000" width="1000" xmlns="http://www.w3.org/2000/svg"><path d="M1000 423.8q-2 138.7 -68.4 252Q865.2 789.1 752 855.5q-113.3 66.4 -252 68.3Q361.3 921.9 248 855.5T68.4 675.8 0 423.8Q2 285.2 68.4 171.9T248 -7.8t252 -68.4q138.7 2 252 68.4t179.6 179.7 68.4 251.9zm-62.5 0Q935.5 302.7 877 203.1 820.3 105.5 720.7 46.9 623 -11.7 500 -13.7q-121.1 2 -220.7 60.6Q181.6 105.5 123 203.1 64.5 302.7 62.5 423.8q2 121.1 60.5 220.7 58.6 97.7 156.3 156.3 99.6 58.6 220.7 60.5 121.1 -1.9 220.7 -60.5Q818.4 742.2 877 644.5q58.5 -99.6 60.5 -220.7zM314.5 168l169.9 72.2L314.5 168l169.9 72.2 -72.3 170L242.2 337.9 314.5 168zm214.8 330l91.8 183.6L529.3 498l91.8 183.6h-29.3L494.1 486.3l-95.7 195.3h-27.3l99.6 -208.9 -43 -19.6 11.8 -27.3 132.8 58.6 -11.8 27.3L529.3 498zM505.9 269.5l134.7 58.6L505.9 269.5l134.7 58.6L582 460.9 449.2 404.3l56.7 -134.8zm156.2 84l107.4 44.9L662.1 353.5l107.4 44.9 -44.9 107.5 -107.4 -45 44.9 -107.4z"/></svg>