<svg height="1000" width="875" xmlns="http://www.w3.org/2000/svg"><path d="M875 70.3v707 -707 707q0 37.2 -25.4 60.6 -23.4 23.4 -58.6 23.4H84q-35.2 0 -58.6 -23.4Q0 814.5 0 777.3v-707Q0 35.2 23.4 11.7 46.9 -13.7 84 -13.7h707q35.2 0 58.6 23.5Q875 33.2 875 70.3zm-72.3 707v-707 707 -707Q800.8 60.5 791 58.6h-17.6L556.6 205.1 437.5 107.4l-119.1 97.7L103.5 58.6H84q-9.8 1.9 -11.7 11.7v707q1.9 9.8 11.7 11.8h707q9.8 -2 11.7 -11.8zM293 287.1v72.3 -72.3 72.3H150.4v-72.3H293zm0 144.5v74.3 -74.3 74.3H150.4v-74.3H293zm21.5 -287.1L419.9 58.6l-105.4 85.9L419.9 58.6H189.5l125 85.9zm410.1 142.6v72.3 -72.3 72.3H341.8v-72.3h382.8zm0 144.5v74.3 -74.3 74.3H341.8v-74.3h382.8zM560.5 144.5l125 -85.9 -125 85.9 125 -85.9H455.1l105.4 85.9zm164.1 433.6v72.3 -72.3 72.3H531.3v-72.3h193.3z"/></svg>