<svg height="1000" width="968.8" xmlns="http://www.w3.org/2000/svg"><path d="M484.4 -60.5Q349.6 -58.6 240.2 5.9 130.9 70.3 66.4 179.7 2 289.1 0 423.8 2 558.6 66.4 668t173.8 173.8 244.2 66.4q134.7 -1.9 244.1 -66.4T902.3 668t66.5 -244.2q-2 -134.7 -66.5 -244.1T728.5 5.9 484.4 -60.5zm334 310.5q-43 99.6 -87.9 201.2 -7.8 15.6 -25.4 15.6H570.3q-15.6 0 -21.5 13.7l-39 93.7q-11.8 21.5 -21.5 44.9 -3.9 9.8 -15.6 9.8H205.1q-9.8 0 -15.6 -7.8Q168 599.6 148.4 576.2 134.8 562.5 123 548.8q-7.8 -7.8 -1.9 -17.5l43 -97.7q3.9 -9.8 7.8 -17.6 7.8 -19.5 15.6 -37.1Q218.8 310.5 248 244.1q4 -11.7 15.7 -11.7h84q19.5 2 13.6 21.5 -41 89.9 -80 179.7 -17.6 39.1 -33.3 76.2 -3.9 13.6 4 17.5 9.7 4 17.5 -5.8 -1.9 3.9 7.8 -17.6 9.8 -19.5 50.8 -115.2 3.9 -7.8 13.7 -7.8h87.9q17.6 0 11.7 17.5 -7.8 15.7 -15.6 33.2 -17.6 39.1 -33.2 76.2 -5.9 17.6 3.9 19.5 11.7 2 17.6 -7.8 1.9 -1.9 15.6 -33.2 11.7 -31.2 27.3 -64.4T476.6 377q5.8 -13.7 21.4 -13.7h154.3q17.6 -2 19.6 -13.7t-11.7 -11.7H511.7q-17.6 0 -9.7 -17.6l7.8 -15.6q11.7 -31.3 25.4 -60.6 5.8 -11.7 17.5 -11.7h255.9q17.6 0 9.8 17.6z"/></svg>