<svg height="1000" width="1000" xmlns="http://www.w3.org/2000/svg"><path d="M722.7 544.9q64.4 80.1 93.7 140.6 27.4 62.5 11.7 91.8 -13.6 23.5 -70.3 56.7 -54.7 33.2 -109.4 52.7 -44.9 13.7 -97.6 19.6 -50.8 3.9 -99.6 0Q335.9 894.5 236.3 830.1q-39 -25.4 -52.7 -43Q169.9 771.5 169.9 750q0 -43 44.9 -115.2 46.9 -72.3 129 -162.1 50.7 -52.8 99.6 -95.7 48.8 -45 60.5 -45 9.8 3.9 52.7 41 41.1 39.1 87.9 87.9 48.9 48.9 78.2 84zM369.1 205.1l-11.7 -11.7q-41 -37.1 -80.1 -68.4 -39 -31.2 -78.1 -44.9 -19.5 -7.8 -29.3 -3.9 -9.7 1.9 -25.4 21.5Q99.6 142.6 68.4 207t-43 128.9q-7.8 48.9 -9.8 72.3 0 23.4 2 44.9 7.8 74.2 27.3 128.9 17.6 56.7 52.8 107.5 25.3 42.9 17.5 19.5 -5.8 -17.6 -1.9 -50.8Q119.1 625 132.8 584q21.5 -58.6 80.1 -158.2T369.1 205.1zm607.5 123Q947.3 210.9 896.5 142.6 845.7 76.2 832 74.2q-11.7 0 -33.2 7.8 -19.5 7.8 -37.1 19.6 -58.6 39 -115.2 93.7 -5.9 3.9 -11.7 9.8 66.4 80.1 136.7 189.4T875 599.6q21.5 64.5 15.6 101.6 -5.8 23.4 2 9.7 9.7 -13.6 25.4 -39 15.6 -27.4 23.4 -46.9 11.7 -23.4 21.5 -54.7t15.6 -58.6q5.9 -37.1 5.9 -91.8t-7.8 -91.8zM275.4 7.8q60.5 0 119.1 21.5 58.6 23.4 87.9 41 13.7 5.9 17.6 5.9 5.9 0 41 -17.6 86 -41 132.8 -46.9 48.9 -5.8 70.3 -3.9 3.9 0 7.9 2Q656.3 -50.8 535.2 -58.6 416 -68.4 294.9 -13.7 230.5 13.7 275.4 7.8z"/></svg>