<svg height="1000" width="1000" xmlns="http://www.w3.org/2000/svg"><path d="M978.5 234.4q-3.9 -9.8 -13.7 -15.6 -9.7 -4 -19.5 -2l-50.8 13.7 -44.9 9.7 -1.9 2v-5.9Q800.8 64.5 679.7 -68.4q-19.5 -15.6 -39.1 0L439.5 132.8H48.8Q3.9 136.7 0 179.7V666q3.9 44.9 48.8 48.8h390.7L640.6 916q19.6 15.6 37.1 0h2q85.9 -93.7 134.8 -210.9 21.4 -48.8 35.1 -99.6l39.1 11.7 54.7 13.7q3.9 0 5.8 1.9 3.9 0 7.8 -1.9 15.7 -2 21.5 -17.6 43 -189.5 0 -378.9zM658.2 -27.3zM443.4 294.9L339.8 472.7 443.4 294.9 339.8 472.7q-1.9 5.8 -1.9 11.7v89.8q-3.9 39.1 -43 43h-7.8q-39.1 -3.9 -43 -43v-89.8q0 -5.9 -1.9 -9.8L140.6 294.9q-9.7 -21.5 2 -42.9t37.1 -21.5h5.8q25.4 0 37.2 23.4l72.2 136.7 72.3 -136.7q13.7 -21.5 37.1 -23.4 25.4 0 39.1 21.5 11.7 21.4 0 42.9zM658.2 -27.3Q765.6 91.8 806.6 248l2 4L584 310.5V179.7q-3.9 -43 -48.8 -46.9H498zm119.1 716.8Q732.4 791 658.2 875L498 714.8h37.2Q580.1 710.9 584 666V537.1l224.6 58.6q-13.7 48.8 -31.3 93.8zM941.4 587.9l-99.6 -27.4L584 494.1V353.5L818.4 293l9.7 -3.9 76.2 -19.6 37.1 -9.7q35.2 164 0 328.1z"/></svg>