<svg height="1000" width="968.8" xmlns="http://www.w3.org/2000/svg"><path d="M769.5 597.7q-50.7 13.6 -84 39 -39 29.3 -119.1 54.7 0 2 -19.5 9.8 -25.4 5.8 -74.2 9.7 -48.9 2 -60.6 3.9 -37.1 -1.9 -43 -17.5Q361.3 675.8 373 666q11.8 -11.7 13.7 -11.7Q375 646.5 371.1 640.6q-2 -3.9 -3.9 -1.9 -2 5.8 -3.9 15.6 -3.9 21.5 -15.6 37.1 -13.7 11.7 -33.2 9.8 -19.6 0 -35.2 -9.8 -13.7 -7.8 -7.8 -21.5 7.8 -13.6 9.8 -15.6 0 2 -7.9 2 -5.8 1.9 -13.6 -7.9Q248 632.8 246.1 597.7q-2 -33.2 37.1 -70.4 -5.9 -17.5 5.9 -68.3 9.7 -50.8 72.2 -99.6 -1.9 -2 -17.5 -27.4t-5.9 -56.6q11.7 -31.3 15.6 -27.4 17.6 -5.8 31.3 -17.5 31.2 -31.3 60.5 -35.2 27.4 -1.9 29.3 0 2 -5.8 15.6 -35.1 13.7 -31.3 31.3 -25.4 7.8 7.8 19.5 33.2l13.7 27.3q0 -1.9 11.7 -7.8 13.7 -5.9 17.6 -2 11.7 25.4 13.7 62.5 1.9 35.2 -3.9 64.5 -17.6 70.3 -45 97.7l-7.8 15.6q-1.9 1.9 5.9 7.8 19.5 9.8 46.9 72.3 11.7 31.2 9.7 54.6 0 25.4 -1.9 41.1 -2 9.7 -2 11.7 3.9 9.7 72.3 -25.4 37.1 -27.4 87.9 -33.2 23.4 1.9 25.4 19.5t-15.7 23.5zM968.8 423.8q-2 134.8 -66.5 244.2Q837.9 777.3 728.5 841.8q-109.4 64.5 -244.1 66.4Q349.6 906.3 240.2 841.8T66.4 668 0 423.8Q2 289.1 66.4 179.7T240.2 5.9t244.2 -66.4q134.7 1.9 244.1 66.4t173.8 173.8 66.5 244.1zM814.5 570.3q-7.9 -43 -54.7 -44.9 -33.2 1.9 -58.6 13.7t-44.9 23.4v2q-13.7 7.8 -23.5 11.7 0 -64.5 -21.5 -105.5 -23.4 -39.1 -35.1 -48.8 27.3 -31.3 44.9 -103.5 7.8 -33.2 3.9 -74.3 -2 -42.9 -17.6 -72.2 -1.9 -5.9 -11.7 -11.7t-29.3 -2q-13.7 -27.3 -19.5 -37.1 -5.9 -7.8 -9.8 -9.8 -5.8 -5.8 -29.3 -5.8 -25.4 1.9 -52.7 60.5 -17.6 0 -43 9.8t-48.8 35.1q-7.8 5.9 -19.5 9.8 -21.5 7.8 -33.3 44.9 -9.7 25.4 -3.9 48.9t17.6 39Q296.9 377 275.4 416q-21.5 37.1 -21.5 99.6 -44.9 54.7 -35.1 99.6 9.7 43 23.4 54.7 -2 33.2 23.4 46.9 43 23.4 86 5.9 13.6 17.5 58.6 19.5 15.6 0 66.4 -3.9 48.8 -3.9 76.1 -7.8 19.6 -5.9 29.3 -13.7 13.7 -5.9 48.9 -19.5 33.2 -13.7 72.2 -37.1 25.4 -17.6 39.1 -23.5 15.6 -7.8 33.2 -11.7 41 -11.7 39.1 -54.7z"/></svg>