<svg height="1000" width="750" xmlns="http://www.w3.org/2000/svg"><path d="M84 392.6l195.3 95.7L84 392.6l195.3 95.7q27.3 15.6 23.4 44.9 -1.9 27.3 -33.2 39.1L60.5 623q-21.4 5.9 -37.1 -5.8T3.9 585.9Q-5.9 500 21.5 419.9q7.8 -19.5 25.4 -27.3 19.5 -7.8 37.1 0zm85.9 468.7q70.3 46.9 154.3 62.5 19.6 2 37.1 -9.7Q375 900.4 377 880.9l7.8 -216.8q-2 -31.3 -27.4 -43 -27.3 -9.8 -50.8 11.7L162.1 793q-13.7 15.6 -11.7 35.1 3.9 21.5 19.5 33.2zM453.1 646.5l115.3 183.6L453.1 646.5l115.3 183.6q11.7 15.6 31.2 19.5t35.2 -9.8Q701.2 785.2 738.3 709q7.8 -19.5 0 -37.1 -7.8 -19.6 -27.4 -25.4l-205 -66.4q-31.3 -7.8 -48.9 13.7 -17.5 23.4 -3.9 52.7zm291 -259.8Q709 308.6 644.5 252q-15.6 -13.7 -35.1 -9.8 -19.6 1.9 -31.3 19.5L457 439.5q-15.6 29.3 2 52.7 15.6 23.4 46.9 15.6l208.9 -58.6q19.6 -5.8 27.4 -25.4 9.8 -17.5 1.9 -37.1zm-623 -404.3Q103.5 -7.8 97.7 9.8q-5.9 19.5 3.9 35.1l203.1 353.5q21.5 27.4 50.8 19.6t33.2 -43V-31.3q0 -19.5 -13.7 -33.2 -15.6 -13.6 -35.2 -11.7 -113.2 9.8 -218.7 58.6z"/></svg>