<svg height="1000" width="875" xmlns="http://www.w3.org/2000/svg"><path d="M177.7 72.3H541 177.7 541l-13.7 37.1H177.7q-58.6 1.9 -99.6 41 -39 37.1 -41 95.7v402.3q0 52.8 39.1 93.8t125 43v37.1h-23.5q-74.2 -2 -125 -50.8Q2 720.7 0 648.4V246.1Q2 171.9 52.7 123q48.9 -48.8 125 -50.7zM625 -37.1h130.9H625h130.9q-84 218.7 -138.7 365.2Q544.9 519.5 507.8 615.2T447.3 752t-52.8 68.3q-64.4 62.5 -152.3 64.5v-99.6q70.3 -13.7 99.6 -60.6 27.3 -46.9 27.3 -85.9v-2q0 -13.7 -7.8 -39 -5.8 -23.5 -41 -109.4Q287.1 402.3 207 201.2h121.1l97.7 306.6L625 -37.1zm250 277.3v582.1V240.2v582.1H457q19.6 -29.3 23.5 -37.1h357.4v-545q-2 -93.7 -95.7 -123L755.9 82Q877 125 875 240.2z"/></svg>