<svg height="1000" width="1125" xmlns="http://www.w3.org/2000/svg"><path d="M1074.2 166Q1050.8 93.8 978.5 70.3 931.6 60.5 834 54.7 736.3 50.8 652.3 48.8H472.7q-84 2 -181.7 5.9 -97.6 5.8 -144.5 15.6Q74.2 93.8 50.8 166 41 210.9 35.2 269.5 31.3 330.1 29.3 377V472.7q2 46.8 5.9 105.4 5.8 60.6 15.6 105.5 23.4 72.3 95.7 93.7 46.9 9.8 144.5 15.7 97.7 3.9 181.7 5.8h179.6q84 -1.9 181.7 -5.8 97.6 -5.9 144.5 -15.7 72.3 -21.4 95.7 -93.7 9.8 -44.9 15.6 -105.5 4 -58.6 5.9 -105.4V377q-1.9 -46.9 -5.9 -107.5Q1084 210.9 1074.2 166zM453.1 584V265.6 584 265.6l279.3 158.2L453.1 584z"/></svg>