<svg height="1000" width="1250" xmlns="http://www.w3.org/2000/svg"><path d="M334 212.9v425.8V212.9v425.8h44.9l15.6 50.8 82.1 -50.8h95.7V212.9H334zm189.4 378.9h-54.6 54.6 -54.6L414.1 627l-9.8 -35.2h-23.4v-332h142.5v332zM293 408.2H191.4 293 191.4q3.9 -80.1 3.9 -144.5h99.6v-21.5Q293 222.7 277.3 220.7H105.5q9.7 -39.1 25.4 -80.1 -2 0 -25.4 5.9t-37.1 37.1l-5.9 17.6Q46.9 250 7.8 335.9h2q11.7 0 33.2 -7.8Q62.5 320.3 80.1 293q1.9 -5.9 1.9 -9.8 3.9 -5.9 7.8 -19.5h56.7q0 21.5 -2 74.2 0 54.7 -1.9 70.3H41q-17.6 2 -23.4 21.5 -7.8 21.5 -7.8 23.4h128.9Q125 599.6 0 697.3q31.3 7.8 56.6 1.9 27.4 -7.8 43 -21.5 2 2 25.4 -31.2T169.9 543l105.5 126.9q0 -1.9 3.9 -29.3t-7.8 -48.8v-2q-13.7 -13.6 -35.2 -39t-35.1 -41l-29.3 23.4q11.7 -41 15.6 -80.1h119.1q2 -1.9 -1.9 -23.4 -2 -19.5 -11.7 -21.5zm804.7 -3.9q31.2 -39.1 58.6 -76.2 27.3 -35.1 29.2 -37.1 -1.9 -3.9 -21.4 -13.7 -17.6 -7.8 -33.2 4 -11.8 17.5 -39.1 54.6 -29.3 35.2 -31.3 41.1l37.2 27.3zm-293 -115.2q-15.6 -9.8 -33.2 -3.9 -15.6 5.8 -17.6 7.8 2 1.9 19.5 27.3l39.1 54.7q17.6 25.4 21.5 31.3l37.1 -27.4q-2 -3.9 -27.3 -39.1 -23.5 -35.1 -39.1 -50.7zM1250 427.7q-21.5 0 -74.2 2H994.1V232.4q13.7 0 45 -1.9 119.1 -7.8 171.8 -9.8 2 -1.9 7.9 -27.3t-9.8 -37.1q-5.9 -2 -25.4 3.9 -17.6 3.9 -19.5 3.9 -5.9 1.9 -89.9 9.7 -82 7.8 -187.5 15.7 -107.4 7.8 -177.7 9.7 5.8 29.3 31.2 39.1 25.4 5.8 64.5 3.9 13.7 -2 31.2 -2 74.3 -5.8 111.4 -5.8v195.3H685.5q0 3.9 9.8 23.4 7.8 17.6 41 21.5h211v138.7q-3.9 43 -48.9 41 -25.4 0 -50.7 -2 -13.7 0 -29.3 -1.9v1.9q3.9 17.6 37.1 41.1 25.4 13.6 50.8 13.6 87.8 -3.9 87.8 -89.8V474.6h238.3q13.7 -1.9 15.6 -23.4 2 -19.6 2 -23.5z"/></svg>